<svg width="169" height="178" viewBox="0 0 169 178" fill="none" xmlns="http://www.w3.org/2000/svg">
<g clip-path="url(#clip0_10_1499)">
<path d="M49.1387 73.6902L92.4574 98.7006" stroke="#627BFD" stroke-width="3" stroke-linecap="round" stroke-linejoin="round"/>
<path d="M157.584 87.4358C158.145 87.4358 158.599 86.9814 158.599 86.4208C158.599 85.8602 158.145 85.4058 157.584 85.4058C157.024 85.4058 156.569 85.8602 156.569 86.4208C156.569 86.9814 157.024 87.4358 157.584 87.4358Z" fill="#627BFD"/>
<path d="M122.839 106.395L157.585 86.3345" stroke="#627BFD" stroke-width="3" stroke-miterlimit="10"/>
<path style="mix-blend-mode:multiply" opacity="0.75" d="M92.0635 152.265L0.596374 123.906L0.332031 73.9434L144.174 122.178L92.0635 152.265Z" fill="url(#paint0_linear_10_1499)"/>
<path d="M59.9334 97.83L46.0605 105.839V93.4325L59.9334 85.438V97.83Z" fill="#DCE6F4"/>
<path d="M32.1885 97.83L46.0614 105.839V93.4325L32.1885 85.438V97.83Z" fill="url(#paint1_linear_10_1499)"/>
<path d="M59.9343 85.4379L46.0614 77.4448L32.1885 85.4379L46.0614 93.4325L59.9343 85.4379Z" fill="#F3F7FF"/>
<path d="M59.9343 85.4379L46.0614 77.4448L32.1885 85.4379L46.0614 93.4325L59.9343 85.4379Z" fill="#F3F7FF"/>
<path opacity="0.7" d="M37.5508 85.4408L46.0609 80.5381L54.571 85.4408L46.0609 90.3392L37.5508 85.4408Z" fill="#4D4F80"/>
<path opacity="0.6" d="M32.1885 88.0662L46.0614 96.4463L59.9343 88.5087" stroke="#7D83AF" stroke-width="0.58" stroke-miterlimit="10"/>
<path d="M54.3051 98.2095C54.8459 97.257 54.8221 96.2223 54.2519 95.8985C53.6817 95.5747 52.7809 96.0844 52.2401 97.0369C51.6992 97.9893 51.723 99.024 52.2932 99.3478C52.8635 99.6716 53.7642 99.162 54.3051 98.2095Z" fill="#4D4F80"/>
<g style="mix-blend-mode:multiply" opacity="0.55">
<path d="M53.8381 97.9447C54.1348 97.4222 54.1218 96.8545 53.8089 96.6769C53.4961 96.4993 53.002 96.7789 52.7052 97.3014C52.4085 97.824 52.4216 98.3916 52.7344 98.5692C53.0472 98.7468 53.5413 98.4672 53.8381 97.9447Z" fill="#4D4F80"/>
</g>
<path d="M53.3027 97.6541L65.8495 104.765" stroke="#627BFD" stroke-width="3" stroke-linecap="round" stroke-linejoin="round"/>
<path style="mix-blend-mode:multiply" opacity="0.75" d="M159.577 118.945L143.09 113.833L143.043 104.828L168.969 113.522L159.577 118.945Z" fill="url(#paint2_linear_10_1499)"/>
<path d="M168.969 113.567L159.521 119.022V110.573L168.969 105.129V113.567Z" fill="#F9923E"/>
<path d="M150.074 113.567L159.522 119.022V110.573L150.074 105.129V113.567Z" fill="#FF7F0B"/>
<path d="M168.97 105.128L159.522 99.6831L150.074 105.128L159.522 110.572L168.97 105.128Z" fill="#F3F7FF"/>
<path d="M168.97 105.128L159.522 99.6831L150.074 105.128L159.522 110.572L168.97 105.128Z" fill="#FFA766"/>
<path d="M150.074 106.917L159.522 112.625L168.97 107.218" stroke="white" stroke-width="0.84" stroke-miterlimit="10"/>
<path d="M155.435 113.849C156.006 113.525 156.03 112.491 155.489 111.538C154.948 110.586 154.047 110.076 153.477 110.4C152.907 110.724 152.883 111.758 153.424 112.711C153.965 113.663 154.865 114.173 155.435 113.849Z" fill="#4D4F80"/>
<g style="mix-blend-mode:multiply" opacity="0.55">
<path d="M154.994 113.07C155.307 112.893 155.32 112.325 155.024 111.803C154.727 111.28 154.233 111 153.92 111.178C153.607 111.356 153.594 111.923 153.891 112.446C154.188 112.968 154.682 113.248 154.994 113.07Z" fill="#4D4F80"/>
</g>
<path d="M154.425 112.197L152.364 113.529C151.505 114.085 150.509 114.392 149.486 114.415C148.464 114.439 147.454 114.178 146.571 113.662L137.26 108.227C136.418 107.736 135.462 107.476 134.487 107.474C133.513 107.472 132.555 107.727 131.711 108.213L125.404 111.856" stroke="#627BFD" stroke-width="3" stroke-linecap="round" stroke-linejoin="round"/>
<path style="mix-blend-mode:multiply" opacity="0.75" d="M138.671 101.079L128.706 97.9905L128.677 92.5474L144.347 97.8021L138.671 101.079Z" fill="url(#paint3_linear_10_1499)"/>
<path d="M55.031 116.761L12.0264 141.604" stroke="#627BFD" stroke-width="3" stroke-linecap="round" stroke-linejoin="round"/>
<path d="M12.0258 142.618C12.5863 142.618 13.0408 142.164 13.0408 141.603C13.0408 141.043 12.5863 140.588 12.0258 140.588C11.4652 140.588 11.0107 141.043 11.0107 141.603C11.0107 142.164 11.4652 142.618 12.0258 142.618Z" fill="#627BFD"/>
<path d="M6.61463 99.6841C7.17521 99.6841 7.62965 99.2296 7.62965 98.6691C7.62965 98.1085 7.17521 97.6541 6.61463 97.6541C6.05405 97.6541 5.59961 98.1085 5.59961 98.6691C5.59961 99.2296 6.05405 99.6841 6.61463 99.6841Z" fill="#627BFD"/>
<path d="M49.9904 114.122L44.0274 110.687C43.1393 110.174 42.1319 109.904 41.1064 109.904C40.081 109.904 39.0736 110.174 38.1855 110.687L35.9145 112.001C35.0311 112.511 34.0298 112.781 33.01 112.784C31.9901 112.788 30.9871 112.524 30.1004 112.02L6.62207 98.6792" stroke="#627BFD" stroke-width="3" stroke-linecap="round" stroke-linejoin="round"/>
<path d="M41.5039 115.11L92.7762 144.712L144.047 115.11L92.3965 85.2903L41.5039 115.11Z" fill="#F3F7FF"/>
<path style="mix-blend-mode:multiply" opacity="0.75" d="M37.8099 140.496L14.2352 131.912L14.1885 123.263L46.8297 135.288L37.8099 140.496Z" fill="url(#paint4_linear_10_1499)"/>
<path style="mix-blend-mode:multiply" opacity="0.75" d="M138.422 144.325L121.465 138.151L121.433 131.93L144.911 140.579L138.422 144.325Z" fill="url(#paint5_linear_10_1499)"/>
<path d="M61.2948 155.023L47.4219 163.032V156.574L61.2948 148.565V155.023Z" fill="#DCE6F4"/>
<path d="M33.5488 155.023L47.4217 163.032V156.574L33.5488 148.565V155.023Z" fill="url(#paint6_linear_10_1499)"/>
<path d="M61.2946 148.565L47.4217 140.572L33.5488 148.565L47.4217 156.574L61.2946 148.565Z" fill="#F3F7FF"/>
<path d="M61.2946 148.565L47.4217 140.572L33.5488 148.565L47.4217 156.574L61.2946 148.565Z" fill="#F3F7FF"/>
<path opacity="0.7" d="M38.9111 148.568L47.4212 143.664L55.9313 148.568L47.4212 153.481L38.9111 148.568Z" fill="#4D4F80"/>
<path opacity="0.6" d="M33.5488 151.58L47.4217 159.589L61.2946 151.65" stroke="#7D83AF" stroke-width="0.58" stroke-miterlimit="10"/>
<path style="mix-blend-mode:multiply" opacity="0.75" d="M128.777 99.8414L104.428 92.2923L104.356 78.9919L142.65 91.8323L128.777 99.8414Z" fill="url(#paint7_linear_10_1499)"/>
<path d="M142.158 91.422L128.285 99.4312V87.0246L142.158 79.03V91.422Z" fill="#DCE6F4"/>
<path d="M114.415 91.422L128.286 99.4312V87.0246L114.415 79.03V91.422Z" fill="url(#paint8_linear_10_1499)"/>
<path d="M142.159 79.03L128.286 71.0369L114.415 79.03L128.286 87.0245L142.159 79.03Z" fill="#F3F7FF"/>
<path d="M142.159 79.03L128.286 71.0369L114.415 79.03L128.286 87.0245L142.159 79.03Z" fill="#F3F7FF"/>
<path opacity="0.7" d="M119.776 79.0331L128.286 74.1289L136.798 79.0331L128.286 83.9315L119.776 79.0331Z" fill="#4D4F80"/>
<path opacity="0.6" d="M114.415 81.6572L128.286 90.0373L142.159 82.0997" stroke="#7D83AF" stroke-width="0.58" stroke-miterlimit="10"/>
<path style="mix-blend-mode:multiply" opacity="0.75" d="M15.2698 129.867L5.30655 126.778L5.27734 121.335L20.9481 126.59L15.2698 129.867Z" fill="url(#paint9_linear_10_1499)"/>
<path d="M20.9477 126.617L15.2373 129.915V124.808L20.9477 121.516V126.617Z" fill="#F9923E"/>
<path d="M9.52539 126.617L15.2372 129.915V124.808L9.52539 121.516V126.617Z" fill="#FF7F0B"/>
<path d="M20.9476 121.516L15.2372 118.228L9.52539 121.516L15.2372 124.808L20.9476 121.516Z" fill="#F3F7FF"/>
<path d="M20.9476 121.516L15.2372 118.228L9.52539 121.516L15.2372 124.808L20.9476 121.516Z" fill="#FFA766"/>
<path d="M9.52539 122.598L15.2372 126.048L20.9476 122.781" stroke="white" stroke-width="0.51" stroke-miterlimit="10"/>
<path d="M144.347 97.8306L138.637 101.127V96.0197L144.347 92.7292V97.8306Z" fill="#8FA4F7"/>
<g style="mix-blend-mode:multiply">
<path d="M144.347 97.8306L138.637 101.127V96.0197L144.347 92.7292V97.8306Z" fill="#DCE6F4"/>
</g>
<path d="M132.927 97.8306L138.637 101.127V96.0197L132.927 92.7292V97.8306Z" fill="#8FA4F7"/>
<path style="mix-blend-mode:multiply" d="M132.927 97.8306L138.637 101.127V96.0197L132.927 92.7292V97.8306Z" fill="url(#paint10_linear_10_1499)"/>
<path d="M144.348 92.7289L138.637 89.4385L132.927 92.7289L138.637 96.0193L144.348 92.7289Z" fill="#F3F7FF"/>
<path d="M144.348 92.7289L138.637 89.4385L132.927 92.7289L138.637 96.0193L144.348 92.7289Z" fill="#8FA4F7"/>
<path d="M132.927 93.8091L138.637 97.2601L144.348 93.9916" stroke="white" stroke-width="0.51" stroke-miterlimit="10"/>
<path d="M46.8302 135.183L38.0996 140.223V132.414L46.8302 127.384V135.183Z" fill="#8FA4F7"/>
<g style="mix-blend-mode:multiply">
<path d="M46.8302 135.183L38.0996 140.223V132.414L46.8302 127.384V135.183Z" fill="#DCE6F4"/>
</g>
<path d="M25.6592 133.093L38.0994 140.223V132.414L25.6592 125.294V133.093Z" fill="#8FA4F7"/>
<path style="mix-blend-mode:multiply" d="M25.6592 133.093L38.0994 140.223V132.414L25.6592 125.294V133.093Z" fill="url(#paint11_linear_10_1499)"/>
<path d="M46.8294 127.384L38.0988 122.353L29.3682 127.384L38.0988 132.414L46.8294 127.384Z" fill="#F3F7FF"/>
<path d="M46.83 127.384L34.3898 120.265L25.6592 125.294L38.0994 132.414L46.83 127.384Z" fill="#8FA4F7"/>
<path d="M25.6592 127.105L38.0994 134.311L46.83 129.315" stroke="white" stroke-width="0.36" stroke-miterlimit="10"/>
<path d="M83.4259 85.2732L74.6953 90.3147V82.5056L83.4259 77.4744V85.2732Z" fill="#8FA4F7"/>
<g style="mix-blend-mode:multiply">
<path d="M83.4259 85.2732L74.6953 90.3147V82.5056L83.4259 77.4744V85.2732Z" fill="#DCE6F4"/>
</g>
<path d="M62.2559 83.1848L74.6961 90.3148V82.5057L62.2559 75.386V83.1848Z" fill="#8FA4F7"/>
<path style="mix-blend-mode:multiply" d="M62.2559 83.1848L74.6961 90.3148V82.5057L62.2559 75.386V83.1848Z" fill="url(#paint12_linear_10_1499)"/>
<path d="M83.4261 77.4749L74.6955 72.4451L65.9648 77.4749L74.6955 82.5062L83.4261 77.4749Z" fill="#F3F7FF"/>
<path d="M83.4267 77.475L70.9865 70.3567L62.2559 75.3865L74.6961 82.5063L83.4267 77.475Z" fill="#8FA4F7"/>
<path d="M62.2559 77.1973L74.6961 84.4032L83.4267 79.4069" stroke="white" stroke-width="0.36" stroke-miterlimit="10"/>
<path d="M144.912 140.459L138.547 144.132V138.441L144.912 134.775V140.459Z" fill="#8FA4F7"/>
<g style="mix-blend-mode:multiply">
<path d="M144.912 140.459L138.547 144.132V138.441L144.912 134.775V140.459Z" fill="#DCE6F4"/>
</g>
<path d="M129.48 138.937L138.547 144.133V138.442L129.48 133.253V138.937Z" fill="#8FA4F7"/>
<path style="mix-blend-mode:multiply" d="M129.48 138.937L138.547 144.133V138.442L129.48 133.253V138.937Z" fill="url(#paint13_linear_10_1499)"/>
<path d="M144.911 134.776L138.547 131.109L132.184 134.776L138.547 138.442L144.911 134.776Z" fill="#F3F7FF"/>
<path d="M144.912 134.776L135.844 129.585L129.48 133.252L138.547 138.441L144.912 134.776Z" fill="#8FA4F7"/>
<path d="M129.48 134.573L138.547 139.825L144.912 136.184" stroke="white" stroke-width="0.27" stroke-miterlimit="10"/>
<path d="M109.129 157.281L117.86 162.321V154.513L109.129 149.482V157.281Z" fill="#FF7F0B"/>
<path d="M130.3 155.192L117.859 162.321V154.513L130.3 147.393V155.192Z" fill="#F9923E"/>
<path d="M109.129 149.482L117.86 144.452L126.59 149.482L117.86 154.513L109.129 149.482Z" fill="#F3F7FF"/>
<path d="M109.129 149.483L121.569 142.363L130.3 147.394L117.86 154.514L109.129 149.483Z" fill="#FFA766"/>
<path d="M130.3 149.205L117.86 156.411L109.129 151.414" stroke="white" stroke-width="0.36" stroke-miterlimit="10"/>
<path d="M92.7762 152.387V144.712L41.5039 115.11V122.787L92.7762 152.387Z" fill="url(#paint14_linear_10_1499)"/>
<path d="M92.7764 152.387V144.712L144.047 115.11V122.787L92.7764 152.387Z" fill="#DCE6F4"/>
<path style="mix-blend-mode:multiply" opacity="0.8" d="M102.06 133.92L64.8698 128.601L41.5039 115.111L72.4306 96.9893L81.3598 117.163L112.538 126.16L111.641 127.694L88.7804 124.658L102.06 133.92Z" fill="url(#paint15_linear_10_1499)"/>
<path d="M58.3437 129.929C58.9139 129.605 58.9377 128.571 58.3969 127.618C57.856 126.666 56.9553 126.156 56.385 126.48C55.8148 126.804 55.791 127.838 56.3319 128.791C56.8728 129.743 57.7735 130.253 58.3437 129.929Z" fill="#4D4F80"/>
<g style="mix-blend-mode:multiply" opacity="0.55">
<path d="M57.9027 129.151C58.2155 128.973 58.2286 128.405 57.9318 127.883C57.6351 127.36 57.141 127.081 56.8281 127.258C56.5153 127.436 56.5023 128.004 56.799 128.526C57.0957 129.049 57.5898 129.328 57.9027 129.151Z" fill="#4D4F80"/>
</g>
<path d="M72.3476 138.083C72.9179 137.759 72.9417 136.725 72.4008 135.772C71.8599 134.82 70.9592 134.31 70.389 134.634C69.8187 134.957 69.7949 135.992 70.3358 136.945C70.8767 137.897 71.7774 138.407 72.3476 138.083Z" fill="#4D4F80"/>
<g style="mix-blend-mode:multiply" opacity="0.55">
<path d="M71.9046 137.305C72.2174 137.128 72.2305 136.56 71.9338 136.038C71.637 135.515 71.1429 135.236 70.8301 135.413C70.5173 135.591 70.5042 136.158 70.8009 136.681C71.0977 137.204 71.5918 137.483 71.9046 137.305Z" fill="#4D4F80"/>
</g>
<path d="M107.278 141.124C107.819 140.172 107.795 139.137 107.225 138.813C106.654 138.49 105.754 138.999 105.213 139.952C104.672 140.904 104.696 141.939 105.266 142.263C105.836 142.587 106.737 142.077 107.278 141.124Z" fill="#4D4F80"/>
<g style="mix-blend-mode:multiply" opacity="0.55">
<path d="M106.812 140.86C107.108 140.337 107.095 139.77 106.783 139.592C106.47 139.415 105.976 139.694 105.679 140.217C105.382 140.739 105.395 141.307 105.708 141.484C106.021 141.662 106.515 141.382 106.812 140.86Z" fill="#4D4F80"/>
</g>
<path d="M115.72 136.636C116.261 135.684 116.237 134.649 115.667 134.325C115.097 134.001 114.196 134.511 113.655 135.464C113.114 136.416 113.138 137.451 113.708 137.775C114.279 138.098 115.179 137.589 115.72 136.636Z" fill="#4D4F80"/>
<g style="mix-blend-mode:multiply" opacity="0.55">
<path d="M115.254 136.371C115.551 135.849 115.538 135.281 115.225 135.104C114.912 134.926 114.418 135.206 114.121 135.728C113.825 136.251 113.838 136.818 114.15 136.996C114.463 137.174 114.957 136.894 115.254 136.371Z" fill="#4D4F80"/>
</g>
<path d="M137.225 123.907C137.766 122.955 137.742 121.92 137.172 121.596C136.602 121.272 135.701 121.782 135.16 122.735C134.619 123.687 134.643 124.722 135.213 125.046C135.783 125.369 136.684 124.86 137.225 123.907Z" fill="#4D4F80"/>
<g style="mix-blend-mode:multiply" opacity="0.55">
<path d="M136.759 123.643C137.056 123.12 137.043 122.553 136.73 122.375C136.417 122.197 135.923 122.477 135.626 122.999C135.329 123.522 135.342 124.09 135.655 124.267C135.968 124.445 136.462 124.165 136.759 123.643Z" fill="#4D4F80"/>
</g>
<path d="M80.4316 142.985C81.0019 142.661 81.0256 141.627 80.4848 140.674C79.9439 139.722 79.0432 139.212 78.4729 139.536C77.9027 139.86 77.8789 140.894 78.4198 141.847C78.9606 142.799 79.8614 143.309 80.4316 142.985Z" fill="#4D4F80"/>
<g style="mix-blend-mode:multiply" opacity="0.55">
<path d="M79.9896 142.207C80.3024 142.029 80.3155 141.461 80.0188 140.939C79.722 140.416 79.2279 140.137 78.9151 140.314C78.6023 140.492 78.5892 141.06 78.8859 141.582C79.1826 142.105 79.6768 142.384 79.9896 142.207Z" fill="#4D4F80"/>
</g>
<path d="M115.155 159.209C115.725 158.885 115.749 157.851 115.208 156.898C114.668 155.946 113.767 155.436 113.197 155.76C112.626 156.084 112.603 157.118 113.143 158.071C113.684 159.023 114.585 159.533 115.155 159.209Z" fill="#4D4F80"/>
<g style="mix-blend-mode:multiply" opacity="0.55">
<path d="M114.712 158.431C115.025 158.253 115.038 157.686 114.741 157.163C114.445 156.64 113.951 156.361 113.638 156.538C113.325 156.716 113.312 157.284 113.609 157.806C113.905 158.329 114.399 158.608 114.712 158.431Z" fill="#4D4F80"/>
</g>
<path opacity="0.65" d="M119.145 94.131L68.4177 123.878L67.6846 31.892L117.699 0L119.145 94.131Z" fill="url(#paint16_linear_10_1499)"/>
<path d="M66.0098 85.4429V120.771C66.0097 121.224 66.1287 121.669 66.3548 122.061C66.581 122.453 66.9063 122.779 67.2981 123.006C67.6899 123.232 68.1345 123.352 68.5871 123.352C69.0398 123.353 69.4847 123.234 69.8771 123.009L116.585 96.2576C118.179 95.3415 119.503 94.0214 120.424 92.4304C121.345 90.8394 121.83 89.0337 121.83 87.1954V51.6201C121.83 51.1666 121.71 50.7212 121.483 50.3287C121.255 49.9362 120.929 49.6104 120.536 49.3842C120.143 49.158 119.697 49.0393 119.244 49.04C118.79 49.0408 118.345 49.161 117.952 49.3885L71.2178 76.407C69.6347 77.3254 68.3205 78.6434 67.4065 80.2291C66.4926 81.8148 66.0109 83.6126 66.0098 85.4429Z" fill="url(#paint17_linear_10_1499)"/>
<path d="M67.6846 86.7437V122.078C67.6846 122.531 67.8037 122.975 68.0297 123.367C68.2558 123.759 68.5809 124.085 68.9725 124.311C69.3641 124.538 69.8084 124.658 70.2609 124.658C70.7133 124.659 71.158 124.541 71.5504 124.315L118.26 97.5584C119.854 96.6423 121.178 95.3222 122.098 93.7311C123.019 92.1401 123.503 90.3344 123.503 88.4963V52.921C123.503 52.4673 123.384 52.0216 123.157 51.6288C122.93 51.2361 122.603 50.9101 122.21 50.6838C121.817 50.4575 121.371 50.3389 120.917 50.3398C120.463 50.3408 120.018 50.4614 119.626 50.6894L72.8911 77.7079C71.3083 78.6265 69.9943 79.9445 69.0806 81.5302C68.167 83.1159 67.6856 84.9137 67.6846 86.7437Z" fill="white"/>
<path d="M70.2678 123.14C69.9864 123.139 69.7169 123.027 69.5177 122.828C69.3184 122.629 69.2054 122.36 69.2031 122.079V86.7444C69.206 85.1804 69.618 83.6443 70.3981 82.2888C71.1782 80.9332 72.2994 79.8053 73.6502 79.0171L120.385 51.9986C120.547 51.9034 120.73 51.853 120.918 51.8525C121.201 51.8529 121.473 51.9655 121.673 52.1656C121.873 52.3656 121.986 52.637 121.987 52.9201V88.4969C121.984 90.0669 121.568 91.6086 120.781 92.9671C119.994 94.3257 118.864 95.4535 117.503 96.2373L70.7965 122.989C70.637 123.086 70.4545 123.138 70.2678 123.14Z" fill="#4D4F80"/>
<path d="M72.4307 116.49L89.299 106.943V102.539L72.4307 112.086V116.49Z" fill="#C4C7E8"/>
<path d="M72.4307 119.224L89.299 109.675V108.204L72.4307 117.753V119.224Z" fill="#C4C7E8"/>
<path d="M87.9889 97.805C88.7708 96.4282 88.7365 94.9326 87.9124 94.4647C87.0882 93.9967 85.7863 94.7335 85.0045 96.1103C84.2227 97.4871 84.257 98.9826 85.0811 99.4506C85.9052 99.9186 87.2071 99.1819 87.9889 97.805Z" fill="#FF7F0B"/>
<path d="M92.2956 82.4906C93.0774 81.1137 93.0431 79.6182 92.219 79.1502C91.3949 78.6823 90.093 79.419 89.3111 80.7958C88.5293 82.1727 88.5636 83.6682 89.3877 84.1362C90.2119 84.6042 91.5138 83.8674 92.2956 82.4906Z" fill="white"/>
<path d="M118.543 63.7284C119.05 62.8348 119.028 61.8644 118.494 61.5609C117.959 61.2574 117.115 61.7357 116.607 62.6293C116.1 63.5229 116.122 64.4933 116.656 64.7968C117.191 65.1003 118.035 64.6219 118.543 63.7284Z" fill="#627BFD"/>
<path d="M118.544 68.8946C119.051 68.0011 119.029 67.0307 118.495 66.7272C117.96 66.4237 117.116 66.902 116.608 67.7956C116.101 68.6892 116.123 69.6596 116.657 69.9631C117.192 70.2666 118.036 69.7882 118.544 68.8946Z" fill="#627BFD"/>
<path d="M118.546 74.1024C119.053 73.2088 119.031 72.2384 118.497 71.9349C117.962 71.6314 117.118 72.1098 116.61 73.0033C116.103 73.8969 116.125 74.8674 116.659 75.1709C117.194 75.4744 118.038 74.996 118.546 74.1024Z" fill="#627BFD"/>
<path opacity="0.7" d="M79.2494 88.1958C78.3951 93.2607 74.297 97.6231 69.2949 98.7929" stroke="white" stroke-miterlimit="10" stroke-dasharray="5 5"/>
<path d="M89.65 83.7729C88.1311 87.5146 85.9638 91.0606 82.9027 93.6924C79.8416 96.3241 75.8151 97.9686 71.79 97.6648L72.0704 97.9569" stroke="white" stroke-miterlimit="10" stroke-dasharray="5 5"/>
<path d="M88.3896 96.3897C89.1827 96.581 90.0137 96.3897 90.7936 96.1444C93.2048 95.4141 95.5109 94.2458 97.4138 92.594C99.3168 90.9422 100.805 88.7691 101.468 86.3345L101.614 86.7449" stroke="white" stroke-miterlimit="10" stroke-dasharray="5 5"/>
<path d="M90.701 83.7241C90.4629 83.7241 90.2745 83.9549 90.2453 84.1915C90.2363 84.4312 90.2864 84.6695 90.3913 84.8852L90.9244 86.2916C90.6688 86.0346 90.2321 86.0375 89.9138 86.2127C89.6071 86.4096 89.3606 86.6869 89.2011 87.0145C89.1091 87.1766 88.7789 87.476 88.7863 87.6615C88.7936 87.847 90.7257 89.7762 91.7072 90.3765C92.6969 90.956 93.7432 91.4331 94.8297 91.8004C94.948 91.8443 94.7099 90.0683 94.6442 89.9018C94.4777 89.4812 94.1695 89.2169 93.8628 88.8956C92.9668 87.9531 92.2028 86.8934 91.5918 85.7454C91.2426 85.0959 90.9448 84.4201 90.701 83.7241Z" fill="#FFA8A7"/>
<path d="M115.227 83.4685C115.347 84.5113 116.626 88.8109 116.359 90.3502C116.092 91.8895 111.813 94.6541 111.813 94.6541L111.229 92.0253L113.04 90.2509C113.206 90.0871 113.332 89.8863 113.407 89.6648C113.482 89.4433 113.504 89.2073 113.47 88.9759L112.943 85.3583L115.227 83.4685Z" fill="#FFA8A7"/>
<path d="M112.984 88.716L111.225 80.7872C110.988 77.8444 113.683 78.1014 114.308 79.1354C114.933 80.1694 116.206 86.943 116.26 87.5491C116.495 89.0797 116.532 89.8274 116.396 90.4569C116.26 91.0864 114.762 92.8783 111.813 94.6543L111.229 92.0254L112.984 88.716Z" fill="white"/>
<path d="M112.494 126.157C112.494 126.157 112.681 126.342 112.869 127.382C112.953 127.838 113.002 128.421 112.495 128.584C111.989 128.748 110.192 127.708 109.177 126.767C108.503 126.145 107.731 124.822 107.731 124.822C107.731 124.822 110.687 125.041 111.2 125.419C111.617 125.69 112.049 125.936 112.494 126.157V126.157Z" fill="#383C66"/>
<path d="M105.703 130.432C105.703 130.432 105.739 131.017 105.774 131.481C105.809 131.946 105.974 132.686 105.825 133.029C105.677 133.372 103.813 133.568 102.06 133.919C100.331 134.265 97.6148 134.266 97.4863 133.91C97.4863 133.91 97.8675 133.583 99.6449 132.514C101.675 131.291 103.652 130.057 103.652 130.057L105.703 130.432Z" fill="#383C66"/>
<path d="M112.994 116.136C113.181 112.51 113.119 109.814 113.119 109.814C113.119 109.814 112.414 108.809 112.535 105.59C112.665 102.114 112.881 97.7606 112.943 96.8931L101.674 99.3992C101.674 99.3992 102.384 112.873 102.506 114.639C102.629 116.405 102.768 118.85 102.944 121.116C103.175 123.982 103.422 130.326 103.422 130.326C104.113 130.736 104.925 130.891 105.718 130.764C105.718 130.764 106.693 122.851 106.856 120.82C107.076 118.078 107.552 111.327 107.552 111.327C107.552 111.327 106.693 112.247 106.968 109.373C107.21 106.811 107.514 105.283 107.552 104.026L107.777 103.906C107.777 103.906 108.006 108.872 108.129 110.643C108.252 112.415 108.513 114.102 108.989 117.38C109.401 120.225 110.476 126.083 110.476 126.083C111.668 126.776 112.531 126.152 112.531 126.152C112.531 126.152 112.87 118.622 112.994 116.136Z" fill="#627BFD"/>
<path d="M107.559 104.035C107.559 104.035 110.09 102.694 111.356 101.485C111.356 101.485 110.18 103.267 108.636 104.057C108.636 104.057 108.087 110.233 108.09 110.11L107.773 104.026L107.559 104.035Z" fill="#AACAF9"/>
<path d="M111.348 78.4831C110.49 78.524 109.852 78.7459 109.741 78.4918C109.658 78.2961 109.545 77.1511 109.545 77.1511C109.645 76.9014 109.729 76.6341 109.729 76.6341C110.807 75.9711 111.72 73.4956 111.72 73.4956C111.836 72.3824 111.505 71.2687 110.8 70.3994C110.095 69.5301 109.074 68.9764 107.961 68.8601C105.78 68.6337 104.177 70.1643 103.749 72.2673C103.518 73.3057 103.311 75.3664 103.828 77.2183C104.104 78.21 104.342 78.4933 104.762 78.6277C105.241 78.7049 105.725 78.7372 106.21 78.724C106.21 78.724 106.327 79.3681 106.405 79.7814C106.484 80.1947 106.454 80.4123 105.631 80.9191C104.809 81.4259 106.876 82.4687 108.225 82.3664C109.575 82.2642 111.096 81.4493 111.513 80.5744C111.979 79.6018 111.938 78.4553 111.348 78.4831Z" fill="#FFA8A7"/>
<path d="M111.347 78.484C110.489 78.5249 109.851 78.7469 109.74 78.4928C109.657 78.2971 109.545 77.1521 109.545 77.1521C109.644 76.9024 109.729 76.6351 109.729 76.6351C110.108 76.4004 110.449 76.1082 110.739 75.769L107.89 76.7081L107.057 76.5402L106.719 76.3459L106.498 75.9545C106.498 76.0086 106.368 77.2529 106.091 77.6749C105.813 78.097 105.102 78.5877 104.715 78.6111C104.731 78.6111 104.745 78.6242 104.762 78.6286C105.24 78.7059 105.725 78.7382 106.209 78.725C106.209 78.725 106.326 79.3691 106.405 79.7824C106.478 80.1548 106.453 80.3666 105.839 80.7843L106.998 81.6722L110.457 81.6138C110.552 81.5554 110.644 81.4955 110.73 81.4312L111.762 79.8437C111.924 79.1091 111.791 78.4621 111.347 78.484Z" fill="#F28F8F"/>
<path d="M111.723 73.4963C111.839 72.3831 111.508 71.2694 110.803 70.4001C110.098 69.5308 109.077 68.9771 107.964 68.8608C107.286 68.7804 106.6 68.8923 105.983 69.1836C105.366 69.4749 104.843 69.9339 104.475 70.5082C104.578 70.7098 104.711 70.8949 104.869 71.0573C104.869 71.0573 104.679 71.5948 105.015 71.9759C105.259 72.2505 105.274 72.5338 105.276 72.9983C105.276 73.397 105.782 74.6792 105.782 74.6792C105.782 74.6792 106.043 73.9096 106.163 73.765C106.395 73.2582 107.324 73.1078 107.6 73.8351C107.825 74.4339 107.707 74.9757 107.515 75.5555C107.487 75.658 107.434 75.7524 107.363 75.8311C107.291 75.9099 107.202 75.9708 107.103 76.0091C107.004 76.0474 106.897 76.062 106.791 76.0517C106.685 76.0414 106.583 76.0065 106.493 75.9498C106.502 76.2273 107.308 77.4381 107.308 77.4381C108.056 77.6399 108.853 77.5604 109.547 77.2146C109.837 77.0773 111.581 74.853 111.723 73.4963Z" fill="#8C7267"/>
<path d="M104.869 71.0575C104.869 71.0575 103.773 71.1597 102.776 70.0162C101.778 68.8727 106.939 68.8566 107.963 68.861C109.139 68.861 111.506 68.8391 111.224 71.0268L104.869 71.0575Z" fill="#8C7267"/>
<path d="M95.4917 89.5366L94.4299 89.0532C93.8092 89.319 93.301 90.3925 93.4982 91.5083L94.7892 92.0369L95.4917 89.5366Z" fill="#F5FBFB"/>
<path d="M113.12 92.2444C114.362 87.8236 115.086 81.6707 114.125 80.2686C113.075 78.7439 113.215 78.6942 112.519 78.4971C111.597 78.2386 110.11 78.6037 110.11 78.6037C110.348 79.1966 109.745 79.9181 108.133 80.4278C106.521 80.9375 106.38 80.2818 106.38 80.2818C106.38 80.2818 104.017 81.3581 103.248 81.8883C102.279 82.5645 101.851 84.5171 101.72 87.825C101.574 91.6485 99.8944 114.007 100.022 114.99C100.022 114.99 103.965 115.508 105.709 115.508C106.547 115.512 107.385 115.453 108.215 115.333L108.892 110.288L109.875 114.962C111.904 114.34 113.411 113.155 114.371 111.273C114.331 107.938 112.579 94.1751 113.12 92.2444Z" fill="#DCE6F4"/>
<path d="M109.639 77.9371L110.093 77.553C110.267 77.6742 110.61 78.5417 110.61 78.5417C110.61 78.5417 110.756 79.4866 109.614 80.195C108.472 80.9033 107.107 81.2786 105.7 80.6039C105.7 80.6039 105.794 79.0952 105.7 79.2559C105.631 79.3713 106.325 79.3479 106.325 79.3479C106.325 79.3479 106.683 79.8094 108.046 79.3479C109.408 78.8864 109.665 78.2306 109.665 78.2306L109.639 77.9371Z" fill="white"/>
<path d="M103.509 81.6732C102.275 81.8193 102.026 82.6211 101.675 84.6496C101.2 87.3982 100.699 90.0285 100.234 90.6288C99.7677 91.229 98.2006 90.3747 95.3483 89.3144C95.3483 89.3144 94.0339 89.8284 94.161 92.041C94.161 92.041 95.1439 93.0093 98.7644 94.6582C102.145 96.199 102.976 94.8948 103.876 93.4153C105.129 91.3707 105.653 88.8353 105.833 87.112C105.922 86.2562 106.227 84.0903 105.937 83.4725C105.943 83.4681 104.077 81.6046 103.509 81.6732Z" fill="white"/>
<path d="M93.413 86.1111H92.8668C92.5747 86.5492 92.5002 87.1013 92.4389 87.627C92.4024 87.7909 92.4162 87.9619 92.4783 88.1178C92.6244 88.4099 93.0377 88.4318 93.2845 88.645C93.2378 88.6056 93.2845 88.5121 93.3107 88.4814C93.2479 88.5019 93.2173 88.0915 93.2071 87.9878C93.1888 87.777 93.1844 87.5653 93.1939 87.3539C93.2114 86.9318 93.2851 86.5138 93.413 86.1111Z" fill="#FFA8A7"/>
<path d="M103.557 73.5986L102.746 74.767L103.878 75.7689L103.557 73.5986Z" fill="#FFA8A7"/>
<path d="M81.2566 87.356C82.0384 85.9792 82.0041 84.4837 81.18 84.0157C80.3558 83.5477 79.0539 84.2845 78.2721 85.6613C77.4903 87.0381 77.5245 88.5337 78.3487 89.0017C79.1728 89.4696 80.4747 88.7329 81.2566 87.356Z" fill="#FF7F0B"/>
<path d="M112.308 94.0588V95.3513C112.308 95.3513 110.652 97.4821 106.279 96.4715V94.9716C106.279 94.9716 109.155 96.6526 112.308 94.0588Z" fill="white"/>
<path d="M71.0383 136.271L63.5388 140.623C62.7254 141.096 61.7995 141.34 60.8589 141.329C59.9183 141.319 58.998 141.055 58.195 140.565L53.802 137.885C53.0005 137.397 52.0824 137.133 51.144 137.122C50.2056 137.111 49.2814 137.352 48.4684 137.821L39.6326 142.922C39.4616 143.021 39.3196 143.164 39.221 143.335C39.1223 143.506 39.0703 143.7 39.0703 143.898C39.0703 144.095 39.1223 144.29 39.221 144.461C39.3196 144.632 39.4616 144.774 39.6326 144.873V144.873" stroke="#627BFD" stroke-width="3" stroke-linecap="round" stroke-linejoin="round"/>
<path d="M158.078 162.47C158.639 162.47 159.093 162.015 159.093 161.455C159.093 160.894 158.639 160.44 158.078 160.44C157.518 160.44 157.063 160.894 157.063 161.455C157.063 162.015 157.518 162.47 158.078 162.47Z" fill="#627BFD"/>
<path d="M49.5521 74.9578C50.1127 74.9578 50.5671 74.5033 50.5671 73.9427C50.5671 73.3822 50.1127 72.9277 49.5521 72.9277C48.9915 72.9277 48.5371 73.3822 48.5371 73.9427C48.5371 74.5033 48.9915 74.9578 49.5521 74.9578Z" fill="#627BFD"/>
<path d="M106.28 140.572L112.786 144.223C113.007 144.347 113.192 144.528 113.321 144.747C113.45 144.965 113.519 145.214 113.521 145.468C113.523 145.722 113.457 145.972 113.331 146.193C113.204 146.413 113.022 146.596 112.802 146.723L101.139 153.457C100.92 153.584 100.739 153.765 100.613 153.984C100.487 154.202 100.421 154.45 100.421 154.702C100.421 154.955 100.487 155.203 100.613 155.421C100.739 155.64 100.92 155.821 101.139 155.947L106.949 159.318C107.553 159.668 108.238 159.852 108.936 159.852C109.634 159.852 110.32 159.668 110.924 159.318L114.168 157.447" stroke="#627BFD" stroke-width="3" stroke-linecap="round" stroke-linejoin="round"/>
<path d="M114.567 136.335L157.888 161.344" stroke="#627BFD" stroke-width="3" stroke-linecap="round" stroke-linejoin="round"/>
<path d="M136.103 123.356L160.702 137.566" stroke="#627BFD" stroke-width="3" stroke-linecap="round" stroke-linejoin="round"/>
<path d="M160.703 138.582C161.263 138.582 161.718 138.128 161.718 137.567C161.718 137.006 161.263 136.552 160.703 136.552C160.142 136.552 159.688 137.006 159.688 137.567C159.688 138.128 160.142 138.582 160.703 138.582Z" fill="#627BFD"/>
<path d="M79.4425 141.603L66.2501 149.223C66.0182 149.358 65.8258 149.551 65.6923 149.783C65.5589 150.015 65.4892 150.279 65.4902 150.547C65.4913 150.815 65.563 151.078 65.6983 151.309C65.8335 151.54 66.0274 151.732 66.2603 151.864L77.5584 158.264" stroke="#627BFD" stroke-width="3" stroke-linecap="round" stroke-linejoin="round"/>
<path style="mix-blend-mode:multiply" opacity="0.75" d="M80.9087 177.493L60.7967 171.259L60.7383 160.273L92.366 170.879L80.9087 177.493Z" fill="url(#paint18_linear_10_1499)"/>
<path d="M92.2625 170.676L80.8037 177.291V167.045L92.2625 160.442V170.676Z" fill="#DCE6F4"/>
<path d="M69.3457 170.676L80.803 177.291V167.045L69.3457 160.442V170.676Z" fill="url(#paint19_linear_10_1499)"/>
<path d="M92.2618 160.442L80.803 153.841L69.3457 160.442L80.803 167.045L92.2618 160.442Z" fill="#F3F7FF"/>
<path d="M92.2618 160.442L80.803 153.841L69.3457 160.442L80.803 167.045L92.2618 160.442Z" fill="#F3F7FF"/>
<path opacity="0.7" d="M73.7764 160.442L80.8041 156.393L87.8333 160.442L80.8041 164.488L73.7764 160.442Z" fill="#4D4F80"/>
<path opacity="0.6" d="M69.3457 162.61L80.803 169.533L92.2618 162.977" stroke="#7D83AF" stroke-width="0.48" stroke-miterlimit="10"/>
<path d="M42.9125 135.323C43.4534 134.371 43.4296 133.336 42.8593 133.012C42.2891 132.688 41.3884 133.198 40.8475 134.151C40.3066 135.103 40.3304 136.138 40.9007 136.462C41.4709 136.785 42.3716 136.276 42.9125 135.323Z" fill="#4D4F80"/>
<g style="mix-blend-mode:multiply" opacity="0.55">
<path d="M42.4475 135.059C42.7442 134.536 42.7311 133.969 42.4183 133.791C42.1055 133.613 41.6113 133.893 41.3146 134.415C41.0179 134.938 41.0309 135.506 41.3438 135.683C41.6566 135.861 42.1507 135.581 42.4475 135.059Z" fill="#4D4F80"/>
</g>
<path d="M18.887 126.304C19.2211 125.715 19.2066 125.076 18.8545 124.876C18.5024 124.676 17.9461 124.991 17.6119 125.58C17.2777 126.168 17.2923 126.807 17.6444 127.007C17.9965 127.207 18.5528 126.892 18.887 126.304Z" fill="#4D4F80"/>
<g style="mix-blend-mode:multiply" opacity="0.55">
<path d="M18.5996 126.14C18.7828 125.817 18.7749 125.467 18.582 125.358C18.3892 125.248 18.0843 125.421 17.9011 125.743C17.7179 126.066 17.7257 126.416 17.9186 126.526C18.1115 126.635 18.4164 126.463 18.5996 126.14Z" fill="#4D4F80"/>
</g>
<path d="M57.2159 128.296L45.7951 134.979C45.2578 135.293 44.6468 135.46 44.0243 135.462C43.4017 135.463 42.7898 135.3 42.2506 134.989L41.9688 134.827" stroke="#627BFD" stroke-width="3" stroke-linecap="round" stroke-linejoin="round"/>
</g>
<defs>
<linearGradient id="paint0_linear_10_1499" x1="0.332031" y1="113.104" x2="144.174" y2="113.104" gradientUnits="userSpaceOnUse">
<stop stop-color="#627BFD" stop-opacity="0"/>
<stop offset="0.09" stop-color="#627BFD" stop-opacity="0.03"/>
<stop offset="0.22" stop-color="#627BFD" stop-opacity="0.1"/>
<stop offset="0.38" stop-color="#627BFD" stop-opacity="0.23"/>
<stop offset="0.56" stop-color="#627BFD" stop-opacity="0.41"/>
<stop offset="0.75" stop-color="#627BFD" stop-opacity="0.63"/>
<stop offset="0.96" stop-color="#627BFD" stop-opacity="0.9"/>
<stop offset="1" stop-color="#627BFD" stop-opacity="0.96"/>
</linearGradient>
<linearGradient id="paint1_linear_10_1499" x1="35.5037" y1="102.832" x2="42.8834" y2="88.1705" gradientUnits="userSpaceOnUse">
<stop offset="0.02" stop-color="#D7DDF4"/>
<stop offset="0.18" stop-color="#CDD3ED"/>
<stop offset="0.7" stop-color="#AEB4DA"/>
<stop offset="1" stop-color="#A3A9D3"/>
</linearGradient>
<linearGradient id="paint2_linear_10_1499" x1="143.043" y1="111.886" x2="168.969" y2="111.886" gradientUnits="userSpaceOnUse">
<stop stop-color="#627BFD" stop-opacity="0"/>
<stop offset="0.05" stop-color="#627BFD" stop-opacity="0.05"/>
<stop offset="0.52" stop-color="#627BFD" stop-opacity="0.53"/>
<stop offset="0.85" stop-color="#627BFD" stop-opacity="0.84"/>
<stop offset="1" stop-color="#627BFD" stop-opacity="0.96"/>
</linearGradient>
<linearGradient id="paint3_linear_10_1499" x1="13900.1" y1="5748.39" x2="15581.6" y2="5748.39" gradientUnits="userSpaceOnUse">
<stop stop-color="#627BFD" stop-opacity="0"/>
<stop offset="0.05" stop-color="#627BFD" stop-opacity="0.05"/>
<stop offset="0.52" stop-color="#627BFD" stop-opacity="0.53"/>
<stop offset="0.85" stop-color="#627BFD" stop-opacity="0.84"/>
<stop offset="1" stop-color="#627BFD" stop-opacity="0.96"/>
</linearGradient>
<linearGradient id="paint4_linear_10_1499" x1="3111.19" y1="15685" x2="10406.5" y2="15685" gradientUnits="userSpaceOnUse">
<stop stop-color="#627BFD" stop-opacity="0"/>
<stop offset="0.05" stop-color="#627BFD" stop-opacity="0.05"/>
<stop offset="0.52" stop-color="#627BFD" stop-opacity="0.53"/>
<stop offset="0.85" stop-color="#627BFD" stop-opacity="0.84"/>
<stop offset="1" stop-color="#627BFD" stop-opacity="0.96"/>
</linearGradient>
<linearGradient id="paint5_linear_10_1499" x1="19589.7" y1="11854.8" x2="23364" y2="11854.8" gradientUnits="userSpaceOnUse">
<stop stop-color="#627BFD" stop-opacity="0"/>
<stop offset="0.05" stop-color="#627BFD" stop-opacity="0.05"/>
<stop offset="0.52" stop-color="#627BFD" stop-opacity="0.53"/>
<stop offset="0.85" stop-color="#627BFD" stop-opacity="0.84"/>
<stop offset="1" stop-color="#627BFD" stop-opacity="0.96"/>
</linearGradient>
<linearGradient id="paint6_linear_10_1499" x1="3655.9" y1="15979.6" x2="4073.67" y2="15183.5" gradientUnits="userSpaceOnUse">
<stop offset="0.02" stop-color="#D7DDF4"/>
<stop offset="0.18" stop-color="#CDD3ED"/>
<stop offset="0.7" stop-color="#AEB4DA"/>
<stop offset="1" stop-color="#A3A9D3"/>
</linearGradient>
<linearGradient id="paint7_linear_10_1499" x1="27379.5" y1="12844.1" x2="37420" y2="12844.1" gradientUnits="userSpaceOnUse">
<stop stop-color="#627BFD" stop-opacity="0"/>
<stop offset="0.05" stop-color="#627BFD" stop-opacity="0.05"/>
<stop offset="0.52" stop-color="#627BFD" stop-opacity="0.53"/>
<stop offset="0.85" stop-color="#627BFD" stop-opacity="0.84"/>
<stop offset="1" stop-color="#627BFD" stop-opacity="0.96"/>
</linearGradient>
<linearGradient id="paint8_linear_10_1499" x1="11264.8" y1="13548.5" x2="12492.4" y2="11890.3" gradientUnits="userSpaceOnUse">
<stop offset="0.02" stop-color="#D7DDF4"/>
<stop offset="0.18" stop-color="#CDD3ED"/>
<stop offset="0.7" stop-color="#AEB4DA"/>
<stop offset="1" stop-color="#A3A9D3"/>
</linearGradient>
<linearGradient id="paint9_linear_10_1499" x1="535.888" y1="7458.94" x2="2217.36" y2="7458.94" gradientUnits="userSpaceOnUse">
<stop stop-color="#627BFD" stop-opacity="0"/>
<stop offset="0.05" stop-color="#627BFD" stop-opacity="0.05"/>
<stop offset="0.52" stop-color="#627BFD" stop-opacity="0.53"/>
<stop offset="0.85" stop-color="#627BFD" stop-opacity="0.84"/>
<stop offset="1" stop-color="#627BFD" stop-opacity="0.96"/>
</linearGradient>
<linearGradient id="paint10_linear_10_1499" x1="5317.4" y1="5666.09" x2="5540.68" y2="5666.09" gradientUnits="userSpaceOnUse">
<stop offset="0.02" stop-color="#D7DDF4"/>
<stop offset="0.18" stop-color="#CDD3ED"/>
<stop offset="0.7" stop-color="#AEB4DA"/>
<stop offset="1" stop-color="#A3A9D3"/>
</linearGradient>
<linearGradient id="paint11_linear_10_1499" x1="2513.7" y1="14170.9" x2="3050.68" y2="13281.9" gradientUnits="userSpaceOnUse">
<stop offset="0.02" stop-color="#D7DDF4"/>
<stop offset="0.18" stop-color="#CDD3ED"/>
<stop offset="0.7" stop-color="#AEB4DA"/>
<stop offset="1" stop-color="#A3A9D3"/>
</linearGradient>
<linearGradient id="paint12_linear_10_1499" x1="5667.56" y1="9019.25" x2="6204.54" y2="8130.36" gradientUnits="userSpaceOnUse">
<stop offset="0.02" stop-color="#D7DDF4"/>
<stop offset="0.18" stop-color="#CDD3ED"/>
<stop offset="0.7" stop-color="#AEB4DA"/>
<stop offset="1" stop-color="#A3A9D3"/>
</linearGradient>
<linearGradient id="paint13_linear_10_1499" x1="8322.63" y1="10718.2" x2="8607.88" y2="10246" gradientUnits="userSpaceOnUse">
<stop offset="0.02" stop-color="#D7DDF4"/>
<stop offset="0.18" stop-color="#CDD3ED"/>
<stop offset="0.7" stop-color="#AEB4DA"/>
<stop offset="1" stop-color="#A3A9D3"/>
</linearGradient>
<linearGradient id="paint14_linear_10_1499" x1="14495.7" y1="34253.2" x2="32495.9" y2="34253.2" gradientUnits="userSpaceOnUse">
<stop offset="0.02" stop-color="#D7DDF4"/>
<stop offset="0.18" stop-color="#CDD3ED"/>
<stop offset="0.7" stop-color="#AEB4DA"/>
<stop offset="1" stop-color="#A3A9D3"/>
</linearGradient>
<linearGradient id="paint15_linear_10_1499" x1="41.5039" y1="115.454" x2="112.538" y2="115.454" gradientUnits="userSpaceOnUse">
<stop stop-color="#627BFD" stop-opacity="0"/>
<stop offset="0.13" stop-color="#627BFD" stop-opacity="0.02"/>
<stop offset="0.26" stop-color="#627BFD" stop-opacity="0.06"/>
<stop offset="0.39" stop-color="#627BFD" stop-opacity="0.14"/>
<stop offset="0.51" stop-color="#627BFD" stop-opacity="0.25"/>
<stop offset="0.64" stop-color="#627BFD" stop-opacity="0.4"/>
<stop offset="0.77" stop-color="#627BFD" stop-opacity="0.57"/>
<stop offset="0.9" stop-color="#627BFD" stop-opacity="0.78"/>
<stop offset="1" stop-color="#627BFD" stop-opacity="0.96"/>
</linearGradient>
<linearGradient id="paint16_linear_10_1499" x1="106.282" y1="119.118" x2="77.2856" y2="-6.26683" gradientUnits="userSpaceOnUse">
<stop stop-color="#627BFD"/>
<stop offset="0.07" stop-color="#627BFD" stop-opacity="0.98"/>
<stop offset="0.16" stop-color="#627BFD" stop-opacity="0.92"/>
<stop offset="0.25" stop-color="#627BFD" stop-opacity="0.82"/>
<stop offset="0.36" stop-color="#627BFD" stop-opacity="0.68"/>
<stop offset="0.46" stop-color="#627BFD" stop-opacity="0.5"/>
<stop offset="0.57" stop-color="#627BFD" stop-opacity="0.29"/>
<stop offset="0.69" stop-color="#627BFD" stop-opacity="0.03"/>
<stop offset="0.7" stop-color="#627BFD" stop-opacity="0"/>
</linearGradient>
<linearGradient id="paint17_linear_10_1499" x1="220675" y1="68142.2" x2="242010" y2="68142.2" gradientUnits="userSpaceOnUse">
<stop offset="0.02" stop-color="#D7DDF4"/>
<stop offset="0.18" stop-color="#CDD3ED"/>
<stop offset="0.7" stop-color="#AEB4DA"/>
<stop offset="1" stop-color="#A3A9D3"/>
</linearGradient>
<linearGradient id="paint18_linear_10_1499" x1="13142.3" y1="20073.4" x2="19991.6" y2="20073.4" gradientUnits="userSpaceOnUse">
<stop stop-color="#627BFD" stop-opacity="0"/>
<stop offset="0.05" stop-color="#627BFD" stop-opacity="0.05"/>
<stop offset="0.52" stop-color="#627BFD" stop-opacity="0.53"/>
<stop offset="0.85" stop-color="#627BFD" stop-opacity="0.84"/>
<stop offset="1" stop-color="#627BFD" stop-opacity="0.96"/>
</linearGradient>
<linearGradient id="paint19_linear_10_1499" x1="5698.32" y1="20328" x2="6535.75" y2="19196.8" gradientUnits="userSpaceOnUse">
<stop offset="0.02" stop-color="#D7DDF4"/>
<stop offset="0.18" stop-color="#CDD3ED"/>
<stop offset="0.7" stop-color="#AEB4DA"/>
<stop offset="1" stop-color="#A3A9D3"/>
</linearGradient>
<clipPath id="clip0_10_1499">
<rect width="168.668" height="177.494" fill="white" transform="translate(0.332031)"/>
</clipPath>
</defs>
</svg>
