<svg width="237" height="198" viewBox="0 0 237 198" fill="none" xmlns="http://www.w3.org/2000/svg">
<g clip-path="url(#clip0_29_1188)">
<path style="mix-blend-mode:multiply" opacity="0.75" d="M59.1937 112.109L31.1059 103.383L31.0234 88.0137L75.1952 102.852L59.1937 112.109Z" fill="url(#paint0_linear_29_1188)"/>
<path style="mix-blend-mode:multiply" opacity="0.75" d="M114.686 156.766L62.0135 140.407L61.8613 111.584L144.693 139.409L114.686 156.766Z" fill="url(#paint1_linear_29_1188)"/>
<path style="mix-blend-mode:multiply" opacity="0.75" d="M171.03 107.296L137.794 96.9735L137.699 78.7891L189.964 96.3466L171.03 107.296Z" fill="url(#paint2_linear_29_1188)"/>
<path d="M75.1963 102.929L59.0996 112.24V97.8188L75.1963 88.5254V102.929Z" fill="#8FA4F7"/>
<g style="mix-blend-mode:multiply">
<path d="M75.1963 102.929L59.0996 112.24V97.8188L75.1963 88.5254V102.929Z" fill="#DCE6F4"/>
</g>
<path d="M43.002 102.929L59.0986 112.24V97.8188L43.002 88.5254V102.929Z" fill="#8FA4F7"/>
<path style="mix-blend-mode:multiply" d="M43.002 102.929L59.0986 112.24V97.8188L43.002 88.5254V102.929Z" fill="url(#paint3_linear_29_1188)"/>
<path d="M75.1953 88.5257L59.0986 79.2344L43.002 88.5257L59.0986 97.8191L75.1953 88.5257Z" fill="#F3F7FF"/>
<path d="M75.1953 88.5257L59.0986 79.2344L43.002 88.5257L59.0986 97.8191L75.1953 88.5257Z" fill="#8FA4F7"/>
<path d="M43.002 91.5801L59.0986 101.323L75.1953 92.0947" stroke="white" stroke-width="0.252236" stroke-miterlimit="10"/>
<path style="mix-blend-mode:multiply" opacity="0.75" d="M181.886 142.912L159.968 136.105L159.906 124.111L194.372 135.69L181.886 142.912Z" fill="url(#paint4_linear_29_1188)"/>
<path d="M194.37 135.751L181.811 143.016V131.761L194.37 124.512V135.751Z" fill="#8FA4F7"/>
<g style="mix-blend-mode:multiply">
<path d="M194.37 135.751L181.811 143.016V131.761L194.37 124.512V135.751Z" fill="#DCE6F4"/>
</g>
<path d="M169.25 135.751L181.812 143.016V131.761L169.25 124.512V135.751Z" fill="#8FA4F7"/>
<path style="mix-blend-mode:multiply" d="M169.25 135.751L181.812 143.016V131.761L169.25 124.512V135.751Z" fill="url(#paint5_linear_29_1188)"/>
<path d="M194.372 124.511L181.812 117.262L169.25 124.511L181.812 131.761L194.372 124.511Z" fill="#F3F7FF"/>
<path d="M194.372 124.511L181.812 117.262L169.25 124.511L181.812 131.761L194.372 124.511Z" fill="#8FA4F7"/>
<path d="M169.25 126.895L181.812 134.496L194.372 127.295" stroke="white" stroke-width="0.198185" stroke-miterlimit="10"/>
<path style="mix-blend-mode:multiply" opacity="0.75" d="M33.3307 178.179L0.095134 167.858L0 149.672L52.2645 167.229L33.3307 178.179Z" fill="url(#paint6_linear_29_1188)"/>
<path style="mix-blend-mode:multiply" opacity="0.75" d="M200.52 182.605L167.285 172.282L167.189 154.096L219.454 171.653L200.52 182.605Z" fill="url(#paint7_linear_29_1188)"/>
<path d="M142.68 135.86L207.574 98.6758" stroke="#627BFD" stroke-width="0.540506" stroke-linecap="round" stroke-linejoin="round"/>
<path d="M141.138 123.115L84.4004 90.8125" stroke="#627BFD" stroke-width="0.540506" stroke-linecap="round" stroke-linejoin="round"/>
<path d="M39.6172 161.233L104.511 124.047" stroke="#627BFD" stroke-width="0.540506" stroke-linecap="round" stroke-linejoin="round"/>
<path d="M112.248 192.76L177.142 155.576" stroke="#627BFD" stroke-width="0.540506" stroke-linecap="round" stroke-linejoin="round"/>
<path style="mix-blend-mode:multiply" opacity="0.75" d="M25.3414 130.836L7.33996 125.245L7.28711 115.395L35.5969 124.904L25.3414 130.836Z" fill="url(#paint8_linear_29_1188)"/>
<path d="M35.6692 124.851L25.4688 130.75V118.919L35.6692 113.031V124.851Z" fill="#F9923E"/>
<path d="M15.2695 124.851L25.4679 130.75V118.919L15.2695 113.031V124.851Z" fill="#FF7F0B"/>
<path d="M35.6684 113.032L25.4679 107.145L15.2695 113.032L25.4679 118.92L35.6684 113.032Z" fill="#F3F7FF"/>
<path d="M35.6684 113.032L25.4679 107.145L15.2695 113.032L25.4679 118.92L35.6684 113.032Z" fill="#FFA766"/>
<path d="M15.2695 114.969L25.4679 121.142L35.6684 115.295" stroke="white" stroke-width="0.124116" stroke-miterlimit="10"/>
<path d="M32.3783 123.772C33.0628 122.556 33.029 121.238 32.3029 120.828C31.5768 120.418 30.4335 121.07 29.749 122.286C29.0646 123.501 29.0983 124.819 29.8244 125.229C30.5504 125.64 31.6939 124.987 32.3783 123.772Z" fill="#4D4F80"/>
<g style="mix-blend-mode:multiply" opacity="0.55">
<path d="M31.785 123.436C32.1602 122.769 32.1412 122.047 31.7426 121.821C31.344 121.596 30.7167 121.954 30.3415 122.62C29.9663 123.286 29.9852 124.009 30.3839 124.234C30.7825 124.459 31.4098 124.102 31.785 123.436Z" fill="#4D4F80"/>
</g>
<path d="M31.0859 124.237L40.1638 129.344C41.0288 129.83 42.0055 130.083 42.9975 130.076C43.9896 130.07 44.9628 129.804 45.8211 129.306L51.6603 125.917C52.5357 125.408 53.5303 125.142 54.5422 125.146C55.5541 125.149 56.547 125.422 57.419 125.936L70.2389 133.501C71.1227 134.023 72.1304 134.296 73.156 134.292C74.1817 134.288 75.1874 134.008 76.0674 133.48L93.3311 123.119" stroke="#627BFD" stroke-width="0.540506" stroke-linecap="round" stroke-linejoin="round"/>
<path d="M48.8743 104.441L41.8196 108.338C41.5511 108.484 41.3268 108.699 41.1705 108.961C41.0142 109.224 40.9316 109.524 40.9316 109.829C40.9316 110.135 41.0142 110.435 41.1705 110.698C41.3268 110.96 41.5511 111.175 41.8196 111.32L56.28 119.233C57.1391 119.703 58.1045 119.944 59.0834 119.933C60.0623 119.921 61.0217 119.658 61.8696 119.167L76.201 110.878C77.0808 110.369 78.08 110.105 79.0957 110.112C80.1114 110.12 81.1066 110.399 81.9788 110.92L89.4606 115.393" stroke="#627BFD" stroke-width="0.540506" stroke-linecap="round" stroke-linejoin="round"/>
<path d="M136.602 131.409L152.504 121.938C153.422 121.391 154.47 121.1 155.538 121.095C156.607 121.089 157.657 121.369 158.582 121.906L177.143 132.707C178.065 133.243 179.113 133.524 180.178 133.52C181.244 133.515 182.289 133.227 183.207 132.684L206.328 119.007C206.713 118.779 207.03 118.454 207.249 118.064C207.468 117.675 207.58 117.234 207.574 116.787C207.569 116.34 207.446 115.902 207.217 115.518C206.989 115.134 206.663 114.817 206.274 114.599L178.738 99.2168" stroke="#627BFD" stroke-width="0.540506" stroke-linecap="round" stroke-linejoin="round"/>
<path d="M144.27 140.817L116.869 156.666V119.674L144.27 103.855V140.817Z" fill="#DCE6F4"/>
<path d="M139.936 132.955L121.203 143.788V122.406L139.936 111.592V132.955Z" fill="url(#paint9_linear_29_1188)"/>
<path d="M138.543 112.397V132.097L121.203 142.128V143.788L139.936 132.955V111.592L138.543 112.397Z" fill="url(#paint10_linear_29_1188)"/>
<path d="M89.4688 140.817L116.869 156.666V119.674L89.4688 103.855V140.817Z" fill="url(#paint11_linear_29_1188)"/>
<path d="M144.27 103.856L116.869 88.0391L89.4688 103.856L116.869 119.674L144.27 103.856Z" fill="#F3F7FF"/>
<path d="M144.27 103.856L116.869 88.0391L89.4688 103.856L116.869 119.674L144.27 103.856Z" fill="#F3F7FF"/>
<path opacity="0.6" d="M89.4688 105.627L116.869 122.21L144.27 106.502" stroke="#7D83AF" stroke-width="0.202189" stroke-miterlimit="10"/>
<path opacity="0.6" d="M89.4688 132.328L116.869 148.914L144.27 133.205" stroke="#7D83AF" stroke-width="0.202189" stroke-miterlimit="10"/>
<path d="M138.543 132.098L139.936 132.955L121.203 143.789V142.128L138.543 132.098Z" fill="white"/>
<path d="M93.5748 132.526L112.337 143.308L112.278 121.923L93.5156 111.162L93.5748 132.526Z" fill="url(#paint12_linear_29_1188)"/>
<path d="M94.9109 111.963L94.9659 131.664L112.333 141.645L112.337 143.308L93.5748 132.526L93.5156 111.162L94.9109 111.963Z" fill="#DCE6F4"/>
<path d="M94.9672 131.664L93.5762 132.526L112.339 143.308L112.334 141.646L94.9672 131.664Z" fill="white"/>
<path d="M190.606 97.2124L171.285 108.387V86.3327L190.606 75.1797V97.2124Z" fill="#DCE6F4"/>
<path d="M187.549 95.6955L174.342 103.335V88.2573L187.549 80.6328V95.6955Z" fill="#4D4F80"/>
<path d="M186.568 81.2004V95.0918L174.342 102.161V103.335L187.549 95.6955V80.6328L186.568 81.2004Z" fill="url(#paint13_linear_29_1188)"/>
<path d="M151.967 97.2124L171.285 108.387V86.3327L151.967 75.1797V97.2124Z" fill="url(#paint14_linear_29_1188)"/>
<path d="M190.606 75.1782L171.285 64.0273L151.967 75.1782L171.285 86.3311L190.606 75.1782Z" fill="#F3F7FF"/>
<path d="M190.606 75.1782L171.285 64.0273L151.967 75.1782L171.285 86.3311L190.606 75.1782Z" fill="#F3F7FF"/>
<path opacity="0.6" d="M151.967 76.4277L171.285 88.1186L190.606 77.044" stroke="#7D83AF" stroke-width="0.142133" stroke-miterlimit="10"/>
<path opacity="0.6" d="M151.967 95.252L171.285 106.945L190.606 95.8704" stroke="#7D83AF" stroke-width="0.142133" stroke-miterlimit="10"/>
<path d="M186.568 95.0918L187.549 95.6954L174.342 103.335V102.161L186.568 95.0918Z" fill="white"/>
<path d="M154.866 95.3927L168.094 102.994L168.052 87.9186L154.824 80.3301L154.866 95.3927Z" fill="#4D4F80"/>
<path d="M155.807 80.8956L155.845 94.7849L168.09 101.823L168.094 102.994L154.866 95.3927L154.824 80.3301L155.807 80.8956Z" fill="#DCE6F4"/>
<path d="M155.844 94.7832L154.865 95.391L168.093 102.992L168.089 101.821L155.844 94.7832Z" fill="white"/>
<path style="mix-blend-mode:multiply" opacity="0.5" d="M117.089 113.527L89.4688 103.855L108.153 93.0703L117.049 96.0629L117.089 113.527Z" fill="url(#paint15_linear_29_1188)"/>
<g style="mix-blend-mode:multiply">
<path d="M102.018 102.988L117.089 94.2871L132.16 102.988L117.089 111.705L102.018 102.988Z" fill="#4D4F80"/>
</g>
<path d="M105.197 102.903L117.049 96.0625L128.9 102.903L117.049 109.759L105.197 102.903Z" fill="#627BFD"/>
<path opacity="0.3" d="M104.881 106.833L86.123 44.5684L150.076 46.5761L128.9 106.833L116.441 109.836L104.881 106.833Z" fill="url(#paint16_linear_29_1188)"/>
<path d="M121.927 85.3107C122.245 85.3107 122.504 85.0518 122.504 84.7325C122.504 84.4132 122.245 84.1543 121.927 84.1543C121.608 84.1543 121.35 84.4132 121.35 84.7325C121.35 85.0518 121.608 85.3107 121.927 85.3107Z" fill="white"/>
<path d="M121.925 83.2815C122.376 83.2815 122.741 82.9155 122.741 82.464C122.741 82.0125 122.376 81.6465 121.925 81.6465C121.475 81.6465 121.109 82.0125 121.109 82.464C121.109 82.9155 121.475 83.2815 121.925 83.2815Z" fill="white"/>
<path d="M121.927 87.0132C122.16 87.0132 122.35 86.8235 122.35 86.5896C122.35 86.3557 122.16 86.166 121.927 86.166C121.693 86.166 121.504 86.3557 121.504 86.5896C121.504 86.8235 121.693 87.0132 121.927 87.0132Z" fill="white"/>
<path d="M121.926 88.671C122.04 88.671 122.133 88.5781 122.133 88.4634C122.133 88.3488 122.04 88.2559 121.926 88.2559C121.812 88.2559 121.719 88.3488 121.719 88.4634C121.719 88.5781 121.812 88.671 121.926 88.671Z" fill="white"/>
<path d="M108.243 88.8224C108.562 88.8224 108.82 88.5635 108.82 88.2442C108.82 87.9249 108.562 87.666 108.243 87.666C107.924 87.666 107.666 87.9249 107.666 88.2442C107.666 88.5635 107.924 88.8224 108.243 88.8224Z" fill="white"/>
<path d="M108.244 86.7932C108.694 86.7932 109.06 86.4272 109.06 85.9757C109.06 85.5242 108.694 85.1582 108.244 85.1582C107.793 85.1582 107.428 85.5242 107.428 85.9757C107.428 86.4272 107.793 86.7932 108.244 86.7932Z" fill="white"/>
<path d="M108.243 90.5269C108.477 90.5269 108.666 90.3372 108.666 90.1033C108.666 89.8693 108.477 89.6797 108.243 89.6797C108.01 89.6797 107.82 89.8693 107.82 90.1033C107.82 90.3372 108.01 90.5269 108.243 90.5269Z" fill="white"/>
<path d="M108.242 92.1866C108.357 92.1866 108.45 92.0937 108.45 91.979C108.45 91.8644 108.357 91.7715 108.242 91.7715C108.128 91.7715 108.035 91.8644 108.035 91.979C108.035 92.0937 108.128 92.1866 108.242 92.1866Z" fill="white"/>
<path d="M117.088 111.704V113.527L132.159 104.89V102.986L117.088 111.704Z" fill="#C4C7E8"/>
<path style="mix-blend-mode:multiply" d="M117.089 111.704V113.527L102.018 104.89V102.986L117.089 111.704Z" fill="url(#paint17_linear_29_1188)"/>
<path d="M118.931 4.38098C118.931 4.38098 106.88 9.81548 95.6017 3.82812C95.6017 3.82812 94.0986 30.9502 98.8003 44.8543C103.502 58.7585 113.916 73.7978 118.931 78.1226L119.108 78.2243C124.119 79.6814 134.512 76.6422 139.192 68.1472C143.873 59.6522 142.296 30.7574 142.296 30.7574C131.021 23.7429 118.931 4.38098 118.931 4.38098Z" fill="#F2F7FC"/>
<path d="M121.858 78.7214C120.916 78.7344 119.977 78.6145 119.068 78.3655L119.034 78.3529L118.856 78.2512C113.711 73.8141 103.303 58.6308 98.6603 44.9004C94.0093 31.1339 95.4406 4.0923 95.4554 3.81274L95.4681 3.58398L95.6795 3.69205C106.753 9.57351 118.759 4.29351 118.879 4.24056L118.996 4.18761L119.063 4.29558C119.184 4.49042 131.264 23.7106 142.375 30.6256L142.441 30.6658V30.7421C142.456 31.0322 143.961 59.7766 139.319 68.2123C135.405 75.3242 127.374 78.7214 121.858 78.7214ZM119.165 78.086C124.239 79.5474 134.488 76.3769 139.056 68.0725C143.54 59.9249 142.227 32.4914 142.147 30.8395C131.429 24.1235 119.863 6.12334 118.873 4.56456C117.605 5.09615 106.29 9.53539 95.7366 4.06269C95.6076 6.72703 94.5294 31.7608 98.9394 44.8029C103.567 58.4868 113.926 73.6066 119.023 78.0098L119.165 78.086Z" fill="#7D83AF"/>
<path d="M114.493 6.60363C114.493 6.60363 102.432 12.036 91.1642 6.05078C91.1642 6.05078 89.6611 33.1729 94.3628 47.0749C99.0645 60.9769 109.479 76.0205 114.493 80.3453L114.669 80.4469C119.679 81.904 130.074 78.8648 134.752 70.3698C139.431 61.8749 137.856 32.978 137.856 32.978C126.582 25.9656 114.493 6.60363 114.493 6.60363Z" fill="#CED2EF"/>
<path opacity="0.2" d="M114.491 5.12765V84.8948L87.8133 49.8475L86.418 -0.00195312L114.491 5.12765Z" fill="#627BFD"/>
<path d="M114.493 6.60363C114.493 6.60363 102.432 12.036 91.1642 6.05078C91.1642 6.05078 89.6611 33.1729 94.3628 47.0749C99.0645 60.9769 109.479 76.0205 114.493 80.3453L114.669 80.4469C119.679 81.904 130.074 78.8648 134.752 70.3698C139.431 61.8749 137.856 32.978 137.856 32.978C126.582 25.9656 114.493 6.60363 114.493 6.60363Z" stroke="#7D83AF" stroke-width="0.27826" stroke-linecap="round" stroke-linejoin="round"/>
<path d="M114.566 74.4094C110.439 70.0211 102.488 58.1226 98.7654 47.1158C97.8436 44.3858 96.2432 37.7546 95.9007 24.0305C95.8035 20.0615 95.8373 16.4716 95.9007 13.8242C100.188 15.2305 104.78 15.6053 109.625 14.9382C111.268 14.7107 112.893 14.3676 114.488 13.9111C115.807 15.8066 117.469 18.113 119.369 20.5656C124.232 26.824 128.826 31.7587 133.111 35.2999C133.348 44.7204 133.111 60.2299 130.308 65.3256C126.629 72.0437 118.695 74.7801 114.566 74.4094Z" fill="#4D4F80"/>
<path opacity="0.58" d="M114.502 13.9044V76.8659L86.9 54.9941L86.418 4.49023L114.502 13.9044Z" fill="#627BFD"/>
<path d="M142.147 30.8413C131.429 24.1254 119.863 6.12521 118.873 4.56642C117.605 5.09802 106.29 9.53715 95.7367 4.06445L91.3203 6.05104C101.874 11.5237 113.182 7.08465 114.455 6.55094C115.444 8.11185 127.01 26.1119 137.729 32.8257L142.147 30.8413Z" fill="#F2F7FB"/>
<path opacity="0.4" d="M118.873 4.56565L114.454 6.55014L105.233 13.8146L85.502 6.45907L94.6158 0.609375L121.422 2.64893L118.873 4.56565Z" fill="#627BFD"/>
<path d="M142.147 30.8413C131.429 24.1254 119.863 6.12521 118.873 4.56642C117.605 5.09802 106.29 9.53715 95.7367 4.06445L91.3203 6.05104C101.874 11.5237 113.182 7.08465 114.455 6.55094C115.444 8.11185 127.01 26.1119 137.729 32.8257L142.147 30.8413Z" stroke="#858EBA" stroke-width="0.300281" stroke-linecap="round" stroke-linejoin="round"/>
<path d="M116.224 73.2721C112.097 68.8837 104.146 56.9852 100.423 45.9784C99.5017 43.2484 97.9013 36.6172 97.5609 22.8931C97.4806 19.6823 97.4869 16.7194 97.525 14.3028C96.9796 14.1609 96.4405 14 95.9035 13.8242C95.8443 16.4716 95.8105 20.0615 95.9035 24.0305C96.246 37.763 97.8463 44.3942 98.7681 47.1158C102.491 58.1289 110.442 70.0211 114.569 74.4094C117.387 74.6614 121.987 73.4626 125.797 70.5293C122.389 72.6324 118.645 73.4902 116.224 73.2721Z" fill="#F2F7FB"/>
<path d="M114.549 60.187C112.069 57.5502 107.296 50.4064 105.059 43.7942C104.505 42.155 103.545 38.1733 103.34 29.9261C103.281 27.5435 103.3 25.3874 103.34 23.7969C106.001 24.65 108.822 24.879 111.585 24.4662C112.574 24.3295 113.552 24.1228 114.511 23.8478C115.304 24.9872 116.302 26.3723 117.443 27.8464C120.357 31.6035 123.124 34.5665 125.701 36.6929C125.843 42.352 125.701 51.6645 124.01 54.7249C121.788 58.7638 117.025 60.4073 114.549 60.187Z" stroke="#ABBBFF" stroke-width="0.600562" stroke-miterlimit="10"/>
<path d="M101.012 144.898C101.737 144.485 101.767 143.167 101.08 141.954C100.392 140.74 99.2465 140.091 98.5216 140.503C97.7967 140.916 97.7665 142.234 98.4543 143.447C99.1422 144.661 100.287 145.31 101.012 144.898Z" fill="#4D4F80"/>
<g style="mix-blend-mode:multiply" opacity="0.55">
<path d="M100.451 143.905C100.849 143.679 100.866 142.956 100.489 142.291C100.112 141.626 99.4839 141.27 99.0859 141.496C98.6879 141.723 98.6709 142.445 99.0479 143.111C99.425 143.776 100.053 144.132 100.451 143.905Z" fill="#4D4F80"/>
</g>
<path d="M105.846 147.88C106.571 147.468 106.601 146.15 105.914 144.936C105.226 143.723 104.08 143.073 103.356 143.486C102.631 143.898 102.601 145.216 103.288 146.43C103.976 147.643 105.121 148.292 105.846 147.88Z" fill="#4D4F80"/>
<g style="mix-blend-mode:multiply" opacity="0.55">
<path d="M105.283 146.886C105.681 146.659 105.698 145.937 105.321 145.271C104.944 144.606 104.316 144.25 103.918 144.477C103.52 144.703 103.503 145.426 103.88 146.091C104.257 146.756 104.885 147.112 105.283 146.886Z" fill="#4D4F80"/>
</g>
<path d="M135.212 143.594C135.897 142.379 135.863 141.061 135.137 140.65C134.411 140.24 133.267 140.893 132.583 142.108C131.899 143.323 131.932 144.641 132.658 145.052C133.385 145.462 134.528 144.809 135.212 143.594Z" fill="#4D4F80"/>
<g style="mix-blend-mode:multiply" opacity="0.55">
<path d="M134.619 143.26C134.994 142.594 134.975 141.871 134.577 141.646C134.178 141.42 133.551 141.778 133.175 142.444C132.8 143.11 132.819 143.833 133.218 144.058C133.616 144.284 134.244 143.926 134.619 143.26Z" fill="#4D4F80"/>
</g>
<path d="M130.386 146.588C131.071 145.373 131.037 144.055 130.311 143.644C129.585 143.234 128.441 143.887 127.757 145.102C127.072 146.317 127.106 147.635 127.832 148.046C128.558 148.456 129.702 147.804 130.386 146.588Z" fill="#4D4F80"/>
<g style="mix-blend-mode:multiply" opacity="0.55">
<path d="M129.793 146.254C130.168 145.588 130.149 144.865 129.75 144.64C129.352 144.414 128.724 144.772 128.349 145.438C127.974 146.104 127.993 146.827 128.392 147.052C128.79 147.278 129.418 146.92 129.793 146.254Z" fill="#4D4F80"/>
</g>
<path style="mix-blend-mode:multiply" opacity="0.5" d="M93.5156 111.162V112.909H94.913L111.498 122.737L111.614 141.232L109.68 141.781L112.337 143.308L112.278 121.923L93.5156 111.162Z" fill="url(#paint18_linear_29_1188)"/>
<path d="M99.8434 142.635L94.1798 145.928C93.738 146.184 93.3712 146.553 93.1163 146.996C92.8614 147.439 92.7273 147.941 92.7274 148.453V153.08C92.7277 153.614 92.5887 154.138 92.3243 154.601C92.0598 155.064 91.6792 155.449 91.2201 155.719L78.3537 163.284C77.6207 163.715 76.7878 163.946 75.9379 163.954C75.0881 163.962 74.2511 163.746 73.5103 163.329L60.5298 156.009C59.8923 155.649 59.1736 155.458 58.4417 155.455C57.7099 155.451 56.9893 155.635 56.3482 155.988L44.2852 162.641" stroke="#627BFD" stroke-width="0.540506" stroke-linecap="round" stroke-linejoin="round"/>
<path style="mix-blend-mode:multiply" opacity="0.75" d="M77.3265 187.711L49.2387 178.987L49.1562 163.615L93.328 178.455L77.3265 187.711Z" fill="url(#paint19_linear_29_1188)"/>
<path d="M93.3291 178.535L77.2324 187.845V173.422L93.3291 164.131V178.535Z" fill="#8FA4F7"/>
<g style="mix-blend-mode:multiply">
<path d="M93.3291 178.535L77.2324 187.845V173.422L93.3291 164.131V178.535Z" fill="#DCE6F4"/>
</g>
<path d="M61.1348 178.535L77.2314 187.845V173.422L61.1348 164.131V178.535Z" fill="#8FA4F7"/>
<path style="mix-blend-mode:multiply" d="M61.1348 178.535L77.2314 187.845V173.422L61.1348 164.131V178.535Z" fill="url(#paint20_linear_29_1188)"/>
<path d="M93.3281 164.131L77.2314 154.838L61.1348 164.131L77.2314 173.423L93.3281 164.131Z" fill="#F3F7FF"/>
<path d="M93.3281 164.131L77.2314 154.838L61.1348 164.131L77.2314 173.423L93.3281 164.131Z" fill="#8FA4F7"/>
<path d="M61.1348 167.184L77.2314 176.926L93.3281 167.698" stroke="white" stroke-width="0.252236" stroke-miterlimit="10"/>
<path d="M85.3549 179.901C86.0393 178.685 86.0055 177.367 85.2795 176.957C84.5534 176.547 83.41 177.199 82.7256 178.415C82.0412 179.63 82.0749 180.948 82.8009 181.358C83.527 181.769 84.6705 181.116 85.3549 179.901Z" fill="#4D4F80"/>
<g style="mix-blend-mode:multiply" opacity="0.55">
<path d="M84.7635 179.565C85.1387 178.898 85.1197 178.176 84.7211 177.95C84.3225 177.725 83.6952 178.082 83.32 178.749C82.9448 179.415 82.9638 180.138 83.3624 180.363C83.761 180.588 84.3883 180.231 84.7635 179.565Z" fill="#4D4F80"/>
</g>
<path d="M51.693 168.099L33.8691 178.407V158.062L51.693 147.773V168.099Z" fill="#DCE6F4"/>
<path d="M48.873 166.7L36.6895 173.749V159.84L48.873 152.805V166.7Z" fill="#4D4F80"/>
<path d="M47.9681 153.328V166.143L36.6895 172.667V173.749L48.873 166.7V152.805L47.9681 153.328Z" fill="url(#paint21_linear_29_1188)"/>
<path d="M16.0488 168.099L33.8706 178.407V158.062L16.0488 147.773V168.099Z" fill="url(#paint22_linear_29_1188)"/>
<path d="M51.6945 147.775L33.8706 137.486L16.0488 147.775L33.8706 158.064L51.6945 147.775Z" fill="#F3F7FF"/>
<path d="M51.6945 147.775L33.8706 137.486L16.0488 147.775L33.8706 158.064L51.6945 147.775Z" fill="#F3F7FF"/>
<path opacity="0.6" d="M16.0488 148.926L33.8706 159.712L51.6945 149.496" stroke="#7D83AF" stroke-width="0.130122" stroke-miterlimit="10"/>
<path opacity="0.6" d="M16.0488 166.293L33.8706 177.08L51.6945 166.863" stroke="#7D83AF" stroke-width="0.130122" stroke-miterlimit="10"/>
<path d="M47.9681 166.143L48.873 166.7L36.6895 173.748V172.666L47.9681 166.143Z" fill="white"/>
<path d="M18.7197 166.421L30.9243 173.435L30.8842 159.527L18.6816 152.527L18.7197 166.421Z" fill="#4D4F80"/>
<path d="M19.5886 153.046L19.6245 165.862L30.9201 172.353L30.9243 173.433L18.7197 166.421L18.6816 152.527L19.5886 153.046Z" fill="#DCE6F4"/>
<path d="M19.6255 165.861L18.7207 166.42L30.9253 173.433L30.9211 172.353L19.6255 165.861Z" fill="white"/>
<path d="M104.601 145.811L98.9395 149.104C98.4979 149.36 98.1313 149.729 97.8764 150.172C97.6215 150.615 97.4872 151.117 97.4872 151.629V156.256C97.487 156.79 97.3476 157.314 97.0828 157.777C96.8181 158.24 96.4371 158.625 95.9777 158.895L93.4408 160.409C93.3276 160.476 93.2338 160.57 93.1685 160.684C93.1033 160.798 93.069 160.927 93.069 161.059C93.069 161.19 93.1033 161.319 93.1685 161.433C93.2338 161.547 93.3276 161.641 93.4408 161.708L112.273 172.6C112.479 172.719 112.651 172.89 112.772 173.095C112.892 173.301 112.957 173.534 112.96 173.773C112.964 174.011 112.905 174.246 112.79 174.455C112.675 174.664 112.508 174.839 112.305 174.964L97.151 184.283C96.5054 184.679 95.7646 184.894 95.0072 184.903C94.2498 184.912 93.504 184.716 92.8489 184.335L84.291 179.352" stroke="#627BFD" stroke-width="0.540506" stroke-linecap="round" stroke-linejoin="round"/>
<path d="M133.871 143.481L139.543 146.758C139.986 147.013 140.353 147.38 140.609 147.822C140.865 148.265 141.001 148.767 141.002 149.278L141.015 153.906C141.016 154.439 141.156 154.963 141.422 155.425C141.688 155.888 142.07 156.272 142.53 156.54L155.426 164.07C156.16 164.498 156.994 164.727 157.844 164.733C158.694 164.738 159.53 164.52 160.27 164.101L212.858 133.137C213.612 132.693 214.47 132.457 215.344 132.453C216.219 132.449 217.079 132.678 217.836 133.116L235.618 143.386C235.952 143.579 236.23 143.856 236.425 144.19C236.619 144.524 236.722 144.903 236.725 145.289C236.728 145.676 236.63 146.056 236.44 146.393C236.251 146.73 235.977 147.011 235.645 147.209L216.691 158.518" stroke="#627BFD" stroke-width="0.540506" stroke-linecap="round" stroke-linejoin="round"/>
<path d="M219.31 172.29L201.486 182.598V162.254L219.31 151.965V172.29Z" fill="#DCE6F4"/>
<path d="M216.49 170.894L204.307 177.94V164.032L216.49 156.998V170.894Z" fill="#4D4F80"/>
<path d="M215.585 157.521V170.337L204.307 176.86V177.94L216.49 170.894V156.998L215.585 157.521Z" fill="url(#paint23_linear_29_1188)"/>
<path d="M183.664 172.29L201.486 182.598V162.254L183.664 151.965V172.29Z" fill="url(#paint24_linear_29_1188)"/>
<path d="M219.31 151.966L201.486 141.68L183.664 151.966L201.486 162.255L219.31 151.966Z" fill="#F3F7FF"/>
<path d="M219.31 151.966L201.486 141.68L183.664 151.966L201.486 162.255L219.31 151.966Z" fill="#F3F7FF"/>
<path opacity="0.6" d="M183.664 153.117L201.486 163.904L219.31 153.687" stroke="#7D83AF" stroke-width="0.130122" stroke-miterlimit="10"/>
<path opacity="0.6" d="M183.664 170.484L201.486 181.273L219.31 171.054" stroke="#7D83AF" stroke-width="0.130122" stroke-miterlimit="10"/>
<path d="M215.585 170.336L216.49 170.893L204.307 177.939V176.859L215.585 170.336Z" fill="white"/>
<path d="M186.337 170.614L198.542 177.627L198.501 163.718L186.299 156.719L186.337 170.614Z" fill="#4D4F80"/>
<path d="M187.206 157.24L187.242 170.053L198.537 176.547L198.542 177.627L186.337 170.614L186.299 156.719L187.206 157.24Z" fill="#DCE6F4"/>
<path d="M187.241 170.053L186.336 170.614L198.541 177.626L198.536 176.546L187.241 170.053Z" fill="white"/>
<path style="mix-blend-mode:multiply" opacity="0.75" d="M168.989 197.999L132.986 186.816L132.883 167.115L189.502 186.136L168.989 197.999Z" fill="url(#paint25_linear_29_1188)"/>
<path d="M189.645 186.031L169.246 197.83V174.168L189.645 162.393V186.031Z" fill="#F9923E"/>
<path d="M148.846 186.031L169.247 197.83V174.168L148.846 162.393V186.031Z" fill="#FF7F0B"/>
<path d="M189.646 162.393L169.247 150.617L148.846 162.393L169.247 174.168L189.646 162.393Z" fill="#F3F7FF"/>
<path d="M189.646 162.393L169.247 150.617L148.846 162.393L169.247 174.168L189.646 162.393Z" fill="#FFA766"/>
<path d="M148.846 166.262L169.247 178.609L189.646 166.914" stroke="white" stroke-width="0.250234" stroke-miterlimit="10"/>
<path d="M154.892 190.585C155.618 190.176 155.652 188.86 154.97 187.646C154.287 186.432 153.146 185.779 152.421 186.189C151.695 186.598 151.661 187.914 152.343 189.128C153.026 190.342 154.167 190.994 154.892 190.585Z" fill="#4D4F80"/>
<g style="mix-blend-mode:multiply" opacity="0.55">
<path d="M159.131 187.979C159.529 187.753 159.546 187.03 159.169 186.365C158.792 185.7 158.164 185.344 157.766 185.571C157.368 185.797 157.351 186.52 157.728 187.185C158.105 187.85 158.733 188.206 159.131 187.979Z" fill="#4D4F80"/>
</g>
<path d="M129.044 146.023L134.716 149.3C135.158 149.555 135.526 149.922 135.782 150.364C136.038 150.807 136.173 151.309 136.175 151.82L136.187 156.448C136.189 156.981 136.33 157.505 136.596 157.968C136.863 158.43 137.245 158.814 137.705 159.083L142.468 161.865C142.722 162.015 142.932 162.229 143.078 162.484C143.223 162.74 143.3 163.03 143.3 163.325C143.3 163.619 143.223 163.909 143.078 164.165C142.932 164.421 142.722 164.634 142.468 164.784L119.801 177.928C119.55 178.076 119.341 178.287 119.194 178.539C119.048 178.792 118.97 179.079 118.967 179.371C118.964 179.663 119.036 179.951 119.177 180.207C119.318 180.463 119.523 180.678 119.772 180.831L141.259 193.888C142.009 194.344 142.867 194.591 143.744 194.605C144.621 194.619 145.486 194.398 146.251 193.967L159.062 186.732" stroke="#627BFD" stroke-width="0.540506" stroke-linecap="round" stroke-linejoin="round"/>
<path d="M207.574 100.052C208.334 100.052 208.95 99.4352 208.95 98.6737C208.95 97.9122 208.334 97.2949 207.574 97.2949C206.813 97.2949 206.197 97.9122 206.197 98.6737C206.197 99.4352 206.813 100.052 207.574 100.052Z" fill="#627BFD"/>
<path d="M84.4017 92.1911C85.1618 92.1911 85.7779 91.5738 85.7779 90.8124C85.7779 90.0509 85.1618 89.4336 84.4017 89.4336C83.6416 89.4336 83.0254 90.0509 83.0254 90.8124C83.0254 91.5738 83.6416 92.1911 84.4017 92.1911Z" fill="#627BFD"/>
<path d="M112.341 194.14C113.101 194.14 113.717 193.523 113.717 192.762C113.717 192 113.101 191.383 112.341 191.383C111.581 191.383 110.965 192 110.965 192.762C110.965 193.523 111.581 194.14 112.341 194.14Z" fill="#627BFD"/>
</g>
<defs>
<linearGradient id="paint0_linear_29_1188" x1="31.0234" y1="100.06" x2="75.1952" y2="100.06" gradientUnits="userSpaceOnUse">
<stop stop-color="#627BFD" stop-opacity="0"/>
<stop offset="0.05" stop-color="#627BFD" stop-opacity="0.05"/>
<stop offset="0.52" stop-color="#627BFD" stop-opacity="0.53"/>
<stop offset="0.85" stop-color="#627BFD" stop-opacity="0.84"/>
<stop offset="1" stop-color="#627BFD" stop-opacity="0.96"/>
</linearGradient>
<linearGradient id="paint1_linear_29_1188" x1="24300.2" y1="28735.5" x2="56754.7" y2="28735.5" gradientUnits="userSpaceOnUse">
<stop stop-color="#627BFD" stop-opacity="0"/>
<stop offset="0.05" stop-color="#627BFD" stop-opacity="0.05"/>
<stop offset="0.52" stop-color="#627BFD" stop-opacity="0.53"/>
<stop offset="0.85" stop-color="#627BFD" stop-opacity="0.84"/>
<stop offset="1" stop-color="#627BFD" stop-opacity="0.96"/>
</linearGradient>
<linearGradient id="paint2_linear_29_1188" x1="34179.7" y1="12602.6" x2="47100.5" y2="12602.6" gradientUnits="userSpaceOnUse">
<stop stop-color="#627BFD" stop-opacity="0"/>
<stop offset="0.05" stop-color="#627BFD" stop-opacity="0.05"/>
<stop offset="0.52" stop-color="#627BFD" stop-opacity="0.53"/>
<stop offset="0.85" stop-color="#627BFD" stop-opacity="0.84"/>
<stop offset="1" stop-color="#627BFD" stop-opacity="0.96"/>
</linearGradient>
<linearGradient id="paint3_linear_29_1188" x1="43.002" y1="100.384" x2="59.0986" y2="100.384" gradientUnits="userSpaceOnUse">
<stop offset="0.02" stop-color="#D7DDF4"/>
<stop offset="0.18" stop-color="#CDD3ED"/>
<stop offset="0.7" stop-color="#AEB4DA"/>
<stop offset="1" stop-color="#A3A9D3"/>
</linearGradient>
<linearGradient id="paint4_linear_29_1188" x1="26229.3" y1="11975.9" x2="31848.3" y2="11975.9" gradientUnits="userSpaceOnUse">
<stop stop-color="#627BFD" stop-opacity="0"/>
<stop offset="0.05" stop-color="#627BFD" stop-opacity="0.05"/>
<stop offset="0.52" stop-color="#627BFD" stop-opacity="0.53"/>
<stop offset="0.85" stop-color="#627BFD" stop-opacity="0.84"/>
<stop offset="1" stop-color="#627BFD" stop-opacity="0.96"/>
</linearGradient>
<linearGradient id="paint5_linear_29_1188" x1="10226.1" y1="11811.4" x2="10972.5" y2="11811.4" gradientUnits="userSpaceOnUse">
<stop offset="0.02" stop-color="#D7DDF4"/>
<stop offset="0.18" stop-color="#CDD3ED"/>
<stop offset="0.7" stop-color="#AEB4DA"/>
<stop offset="1" stop-color="#A3A9D3"/>
</linearGradient>
<linearGradient id="paint6_linear_29_1188" x1="0" y1="22214.2" x2="12920.8" y2="22214.2" gradientUnits="userSpaceOnUse">
<stop stop-color="#627BFD" stop-opacity="0"/>
<stop offset="0.05" stop-color="#627BFD" stop-opacity="0.05"/>
<stop offset="0.52" stop-color="#627BFD" stop-opacity="0.53"/>
<stop offset="0.85" stop-color="#627BFD" stop-opacity="0.84"/>
<stop offset="1" stop-color="#627BFD" stop-opacity="0.96"/>
</linearGradient>
<linearGradient id="paint7_linear_29_1188" x1="41500.1" y1="22815.9" x2="54420.9" y2="22815.9" gradientUnits="userSpaceOnUse">
<stop stop-color="#627BFD" stop-opacity="0"/>
<stop offset="0.05" stop-color="#627BFD" stop-opacity="0.05"/>
<stop offset="0.52" stop-color="#627BFD" stop-opacity="0.53"/>
<stop offset="0.85" stop-color="#627BFD" stop-opacity="0.84"/>
<stop offset="1" stop-color="#627BFD" stop-opacity="0.96"/>
</linearGradient>
<linearGradient id="paint8_linear_29_1188" x1="983.125" y1="9091.85" x2="4774.09" y2="9091.85" gradientUnits="userSpaceOnUse">
<stop stop-color="#627BFD" stop-opacity="0"/>
<stop offset="0.05" stop-color="#627BFD" stop-opacity="0.05"/>
<stop offset="0.52" stop-color="#627BFD" stop-opacity="0.53"/>
<stop offset="0.85" stop-color="#627BFD" stop-opacity="0.84"/>
<stop offset="1" stop-color="#627BFD" stop-opacity="0.96"/>
</linearGradient>
<linearGradient id="paint9_linear_29_1188" x1="130.571" y1="143.788" x2="130.571" y2="111.592" gradientUnits="userSpaceOnUse">
<stop offset="0.31" stop-color="#FF7F0B" stop-opacity="0.4"/>
<stop offset="0.32" stop-color="#F67F1A" stop-opacity="0.4"/>
<stop offset="0.41" stop-color="#A67D94" stop-opacity="0.4"/>
<stop offset="0.47" stop-color="#757BE0" stop-opacity="0.4"/>
<stop offset="0.51" stop-color="#627BFD" stop-opacity="0.4"/>
<stop offset="0.54" stop-color="#627BFD" stop-opacity="0.45"/>
<stop offset="0.7" stop-color="#617BFE" stop-opacity="0.68"/>
<stop offset="0.83" stop-color="#607AFF" stop-opacity="0.85"/>
<stop offset="0.94" stop-color="#5F7AFF" stop-opacity="0.96"/>
<stop offset="1" stop-color="#5F7AFF"/>
</linearGradient>
<linearGradient id="paint10_linear_29_1188" x1="10861" y1="19523.2" x2="12520.9" y2="19523.2" gradientUnits="userSpaceOnUse">
<stop offset="0.02" stop-color="#D7DDF4"/>
<stop offset="0.18" stop-color="#CDD3ED"/>
<stop offset="0.7" stop-color="#AEB4DA"/>
<stop offset="1" stop-color="#A3A9D3"/>
</linearGradient>
<linearGradient id="paint11_linear_29_1188" x1="12099.7" y1="37797.2" x2="18754.7" y2="30937.1" gradientUnits="userSpaceOnUse">
<stop offset="0.02" stop-color="#D7DDF4"/>
<stop offset="0.18" stop-color="#CDD3ED"/>
<stop offset="0.7" stop-color="#AEB4DA"/>
<stop offset="1" stop-color="#A3A9D3"/>
</linearGradient>
<linearGradient id="paint12_linear_29_1188" x1="9257.26" y1="21862.6" x2="9257.26" y2="16983.5" gradientUnits="userSpaceOnUse">
<stop offset="0.31" stop-color="#FF7F0B" stop-opacity="0.4"/>
<stop offset="0.32" stop-color="#F67F1A" stop-opacity="0.4"/>
<stop offset="0.41" stop-color="#A67D94" stop-opacity="0.4"/>
<stop offset="0.47" stop-color="#757BE0" stop-opacity="0.4"/>
<stop offset="0.51" stop-color="#627BFD" stop-opacity="0.4"/>
<stop offset="0.54" stop-color="#627BFD" stop-opacity="0.45"/>
<stop offset="0.7" stop-color="#617BFE" stop-opacity="0.68"/>
<stop offset="0.83" stop-color="#607AFF" stop-opacity="0.85"/>
<stop offset="0.94" stop-color="#5F7AFF" stop-opacity="0.96"/>
<stop offset="1" stop-color="#5F7AFF"/>
</linearGradient>
<linearGradient id="paint13_linear_29_1188" x1="11065.5" y1="9940.33" x2="11890.5" y2="9940.33" gradientUnits="userSpaceOnUse">
<stop offset="0.02" stop-color="#D7DDF4"/>
<stop offset="0.18" stop-color="#CDD3ED"/>
<stop offset="0.7" stop-color="#AEB4DA"/>
<stop offset="1" stop-color="#A3A9D3"/>
</linearGradient>
<linearGradient id="paint14_linear_29_1188" x1="14344" y1="16438.2" x2="16836.9" y2="13556.6" gradientUnits="userSpaceOnUse">
<stop offset="0.02" stop-color="#D7DDF4"/>
<stop offset="0.18" stop-color="#CDD3ED"/>
<stop offset="0.7" stop-color="#AEB4DA"/>
<stop offset="1" stop-color="#A3A9D3"/>
</linearGradient>
<linearGradient id="paint15_linear_29_1188" x1="89.4688" y1="103.3" x2="117.089" y2="103.3" gradientUnits="userSpaceOnUse">
<stop stop-color="#627BFD" stop-opacity="0"/>
<stop offset="0.13" stop-color="#627BFD" stop-opacity="0.02"/>
<stop offset="0.26" stop-color="#627BFD" stop-opacity="0.06"/>
<stop offset="0.39" stop-color="#627BFD" stop-opacity="0.14"/>
<stop offset="0.51" stop-color="#627BFD" stop-opacity="0.25"/>
<stop offset="0.64" stop-color="#627BFD" stop-opacity="0.4"/>
<stop offset="0.77" stop-color="#627BFD" stop-opacity="0.57"/>
<stop offset="0.9" stop-color="#627BFD" stop-opacity="0.78"/>
<stop offset="1" stop-color="#627BFD" stop-opacity="0.96"/>
</linearGradient>
<linearGradient id="paint16_linear_29_1188" x1="118.101" y1="109.836" x2="118.101" y2="44.5684" gradientUnits="userSpaceOnUse">
<stop stop-color="#627BFD"/>
<stop offset="0.04" stop-color="#627BFD" stop-opacity="0.95"/>
<stop offset="0.25" stop-color="#627BFD" stop-opacity="0.66"/>
<stop offset="0.44" stop-color="#627BFD" stop-opacity="0.43"/>
<stop offset="0.62" stop-color="#627BFD" stop-opacity="0.24"/>
<stop offset="0.78" stop-color="#627BFD" stop-opacity="0.11"/>
<stop offset="0.91" stop-color="#627BFD" stop-opacity="0.03"/>
<stop offset="1" stop-color="#627BFD" stop-opacity="0"/>
</linearGradient>
<linearGradient id="paint17_linear_29_1188" x1="102.018" y1="108.258" x2="117.089" y2="108.258" gradientUnits="userSpaceOnUse">
<stop offset="0.02" stop-color="#D0D4EF"/>
<stop offset="0.38" stop-color="#AFB5D7"/>
<stop offset="0.78" stop-color="#9099C2"/>
<stop offset="1" stop-color="#858EBA"/>
</linearGradient>
<linearGradient id="paint18_linear_29_1188" x1="8419.32" y1="19423.1" x2="10095.2" y2="19423.1" gradientUnits="userSpaceOnUse">
<stop stop-color="#627BFD" stop-opacity="0"/>
<stop offset="0.13" stop-color="#627BFD" stop-opacity="0.02"/>
<stop offset="0.26" stop-color="#627BFD" stop-opacity="0.06"/>
<stop offset="0.39" stop-color="#627BFD" stop-opacity="0.14"/>
<stop offset="0.51" stop-color="#627BFD" stop-opacity="0.25"/>
<stop offset="0.64" stop-color="#627BFD" stop-opacity="0.4"/>
<stop offset="0.77" stop-color="#627BFD" stop-opacity="0.57"/>
<stop offset="0.9" stop-color="#627BFD" stop-opacity="0.78"/>
<stop offset="1" stop-color="#627BFD" stop-opacity="0.96"/>
</linearGradient>
<linearGradient id="paint19_linear_29_1188" x1="10320" y1="20149.2" x2="19549.2" y2="20149.2" gradientUnits="userSpaceOnUse">
<stop stop-color="#627BFD" stop-opacity="0"/>
<stop offset="0.05" stop-color="#627BFD" stop-opacity="0.05"/>
<stop offset="0.52" stop-color="#627BFD" stop-opacity="0.53"/>
<stop offset="0.85" stop-color="#627BFD" stop-opacity="0.84"/>
<stop offset="1" stop-color="#627BFD" stop-opacity="0.96"/>
</linearGradient>
<linearGradient id="paint20_linear_29_1188" x1="4715.97" y1="19869.6" x2="5941.57" y2="19869.6" gradientUnits="userSpaceOnUse">
<stop offset="0.02" stop-color="#D7DDF4"/>
<stop offset="0.18" stop-color="#CDD3ED"/>
<stop offset="0.7" stop-color="#AEB4DA"/>
<stop offset="1" stop-color="#A3A9D3"/>
</linearGradient>
<linearGradient id="paint21_linear_29_1188" x1="2151.14" y1="16299.2" x2="2853.27" y2="16299.2" gradientUnits="userSpaceOnUse">
<stop offset="0.02" stop-color="#D7DDF4"/>
<stop offset="0.18" stop-color="#CDD3ED"/>
<stop offset="0.7" stop-color="#AEB4DA"/>
<stop offset="1" stop-color="#A3A9D3"/>
</linearGradient>
<linearGradient id="paint22_linear_29_1188" x1="1628.56" y1="25415.9" x2="3750.38" y2="22963.7" gradientUnits="userSpaceOnUse">
<stop offset="0.02" stop-color="#D7DDF4"/>
<stop offset="0.18" stop-color="#CDD3ED"/>
<stop offset="0.7" stop-color="#AEB4DA"/>
<stop offset="1" stop-color="#A3A9D3"/>
</linearGradient>
<linearGradient id="paint23_linear_29_1188" x1="11978.4" y1="16716.4" x2="12680.6" y2="16716.4" gradientUnits="userSpaceOnUse">
<stop offset="0.02" stop-color="#D7DDF4"/>
<stop offset="0.18" stop-color="#CDD3ED"/>
<stop offset="0.7" stop-color="#AEB4DA"/>
<stop offset="1" stop-color="#A3A9D3"/>
</linearGradient>
<linearGradient id="paint24_linear_29_1188" x1="15926.2" y1="26026.6" x2="18047.9" y2="23573.9" gradientUnits="userSpaceOnUse">
<stop offset="0.02" stop-color="#D7DDF4"/>
<stop offset="0.18" stop-color="#CDD3ED"/>
<stop offset="0.7" stop-color="#AEB4DA"/>
<stop offset="1" stop-color="#A3A9D3"/>
</linearGradient>
<linearGradient id="paint25_linear_29_1188" x1="35721.7" y1="26787.8" x2="50885" y2="26787.8" gradientUnits="userSpaceOnUse">
<stop stop-color="#627BFD" stop-opacity="0"/>
<stop offset="0.05" stop-color="#627BFD" stop-opacity="0.05"/>
<stop offset="0.52" stop-color="#627BFD" stop-opacity="0.53"/>
<stop offset="0.85" stop-color="#627BFD" stop-opacity="0.84"/>
<stop offset="1" stop-color="#627BFD" stop-opacity="0.96"/>
</linearGradient>
<clipPath id="clip0_29_1188">
<rect width="237" height="198" fill="white"/>
</clipPath>
</defs>
</svg>
