<svg width="319" height="248" viewBox="0 0 319 248" fill="none" xmlns="http://www.w3.org/2000/svg">
<g clip-path="url(#clip0_29_2517)">
<path d="M104.215 187.771L6.42663 161.246L14.0489 150.551L0 144.514L89.9876 92.0059L189.178 118.83L104.215 187.771Z" fill="url(#paint0_linear_29_2517)"/>
<path d="M167.925 222.297C167.925 222.297 168.572 223.277 167.697 224.47C166.823 225.663 141.57 234.812 139.752 235.184C137.934 235.557 129.275 237.808 125.926 231.835C122.576 225.862 157.512 214.091 157.512 214.091C157.512 214.091 172.777 212.474 167.925 222.297Z" fill="url(#paint1_linear_29_2517)"/>
<path d="M97.9792 55.3431L107.429 66.3318L193.835 16.4451L174.802 10.9887L165.352 0L78.9492 49.8867L97.9792 55.3431Z" fill="white"/>
<path d="M80.0566 49.7805L98.4692 55.0605L107.611 65.6915L150.169 41.1194L192.725 16.5497L174.315 11.2697L165.171 0.638672L122.613 25.2108L80.0566 49.7805Z" fill="#8FA4F7"/>
<path style="mix-blend-mode:multiply" opacity="0.59" d="M165.172 0.638672V32.4558L192.726 16.5497L174.316 11.2697L165.172 0.638672Z" fill="url(#paint2_linear_29_2517)"/>
<g style="mix-blend-mode:multiply" opacity="0.22">
<path d="M174.271 27.2295L192.726 16.5495L174.271 11.2695V27.2295Z" fill="#627BFD"/>
</g>
<path d="M193.835 16.4453L200.211 132.348L104.215 187.772L93.7167 175.563L72.5723 169.501L78.9499 49.8868L97.9799 55.3432L107.43 66.332L193.835 16.4453Z" fill="url(#paint3_linear_29_2517)"/>
<path d="M104.215 187.771L93.7167 175.563L72.5723 169.501L78.9499 49.8867L97.9799 55.3431L107.43 66.3318L104.215 187.771Z" fill="url(#paint4_linear_29_2517)"/>
<path d="M104.216 187.772L93.7168 175.563L97.98 55.3438L107.43 66.3325L104.216 187.772Z" fill="url(#paint5_linear_29_2517)"/>
<path style="mix-blend-mode:multiply" opacity="0.36" d="M104.216 187.772L93.7168 175.563L97.98 55.3438L107.43 66.3325L104.216 187.772Z" fill="url(#paint6_linear_29_2517)"/>
<path d="M173.504 81.3703L160.11 89.1052V73.6328L145.093 82.3013V97.7737L131.693 105.511V122.843L145.095 115.106V130.583L160.11 121.917V106.437L173.504 98.7048V81.3703Z" fill="#FF7F0B"/>
<path d="M107.88 65.6988L104.215 187.771L107.344 65.6816L107.88 65.6988Z" fill="white"/>
<path d="M131.075 64.5016C132.101 62.6954 132.057 60.734 130.977 60.1206C129.896 59.5072 128.189 60.4741 127.164 62.2803C126.138 64.0865 126.182 66.048 127.262 66.6614C128.343 67.2748 130.05 66.3078 131.075 64.5016Z" fill="#4D4F80"/>
<g style="mix-blend-mode:multiply" opacity="0.55">
<path d="M130.194 63.9998C130.756 63.009 130.732 61.9328 130.139 61.5961C129.545 61.2593 128.609 61.7895 128.046 62.7802C127.483 63.771 127.508 64.8472 128.101 65.184C128.694 65.5207 129.631 64.9905 130.194 63.9998Z" fill="#4D4F80"/>
</g>
<path d="M176.79 37.9743C177.816 36.1681 177.772 34.2066 176.692 33.5932C175.611 32.9799 173.904 33.9468 172.879 35.753C171.853 37.5593 171.897 39.5207 172.977 40.1341C174.058 40.7475 175.765 39.7805 176.79 37.9743Z" fill="#4D4F80"/>
<g style="mix-blend-mode:multiply" opacity="0.55">
<path d="M175.908 37.4725C176.471 36.4817 176.446 35.4055 175.853 35.0687C175.26 34.732 174.323 35.2622 173.761 36.253C173.198 37.2437 173.223 38.3199 173.816 38.6566C174.409 38.9934 175.346 38.4632 175.908 37.4725Z" fill="#4D4F80"/>
</g>
<g style="mix-blend-mode:multiply" opacity="0.6">
<g style="mix-blend-mode:multiply" opacity="0.6">
<path d="M145.011 98.3017C143.128 98.3119 141.272 97.8619 139.603 96.9909C132.037 93.0389 127.786 80.1709 128.504 63.4097C128.516 63.2007 128.609 63.0045 128.763 62.8627C128.917 62.721 129.121 62.6448 129.33 62.6502C129.434 62.6543 129.536 62.6789 129.631 62.7227C129.725 62.7665 129.81 62.8286 129.88 62.9053C129.951 62.9821 130.005 63.072 130.041 63.17C130.076 63.2679 130.092 63.3718 130.087 63.4759C129.396 79.6172 133.321 91.9216 140.333 95.587C144.695 97.8656 150.148 96.6748 156.097 92.1446C173.726 78.7327 174.645 48.9345 174.228 36.7476C174.224 36.6434 174.241 36.5395 174.277 36.4418C174.314 36.3441 174.37 36.2546 174.441 36.1785C174.512 36.1024 174.598 36.0412 174.693 35.9984C174.788 35.9556 174.891 35.9321 174.995 35.9293C175.099 35.9226 175.204 35.9373 175.302 35.9726C175.401 36.0078 175.491 36.0628 175.567 36.1341C175.644 36.2055 175.705 36.2918 175.747 36.3876C175.789 36.4834 175.81 36.5867 175.811 36.6913C176.328 51.4581 174.515 64.1864 170.435 74.521C166.368 84.8114 160.922 90.4736 157.07 93.4064C152.219 97.0914 148.201 98.3017 145.011 98.3017Z" fill="#7D83AF"/>
</g>
</g>
<path d="M148.23 89.8278C145.909 89.8264 143.619 89.296 141.534 88.2769C133.921 84.5772 128.683 74.6028 128.504 63.4548C128.501 63.2445 128.582 63.0416 128.729 62.8906C128.875 62.7396 129.075 62.6526 129.286 62.6488H129.298C129.506 62.6493 129.705 62.7312 129.853 62.8767C130.002 63.0223 130.087 63.2201 130.092 63.4279C130.258 73.8286 135.237 83.4624 142.225 86.8509C147.661 89.4921 153.872 88.3455 160.189 83.5359C169.516 76.4306 175.284 57.2046 174.221 36.7585C174.209 36.5479 174.283 36.3416 174.424 36.1849C174.565 36.0283 174.762 35.934 174.973 35.923C175.183 35.9119 175.39 35.985 175.546 36.126C175.703 36.2671 175.797 36.4646 175.808 36.6752C176.916 57.947 171.026 77.2857 161.152 84.7977C156.193 88.5709 151.834 89.8278 148.23 89.8278Z" fill="#4D4F80"/>
<path style="mix-blend-mode:multiply" opacity="0.5" d="M159.352 176.297L202.474 151.404C204.131 150.447 206.01 149.943 207.924 149.943C209.837 149.943 211.717 150.447 213.374 151.404L312.547 209.587C312.952 209.821 313.289 210.157 313.522 210.562C313.756 210.967 313.879 211.426 313.879 211.894C313.879 212.361 313.756 212.821 313.522 213.226C313.289 213.63 312.952 213.967 312.547 214.2L269.425 239.094C267.768 240.049 265.889 240.552 263.976 240.552C262.063 240.552 260.184 240.049 258.527 239.094L159.352 180.911C158.947 180.677 158.61 180.341 158.376 179.936C158.143 179.531 158.02 179.072 158.02 178.604C158.02 178.136 158.143 177.677 158.376 177.272C158.61 176.867 158.947 176.531 159.352 176.297Z" fill="url(#paint7_linear_29_2517)"/>
<path style="mix-blend-mode:multiply" opacity="0.45" d="M164.252 176.787L207.374 151.894C209.031 150.937 210.911 150.434 212.824 150.434C214.738 150.434 216.618 150.937 218.275 151.894L317.448 210.077C317.853 210.311 318.189 210.647 318.423 211.052C318.657 211.457 318.78 211.916 318.78 212.384C318.78 212.852 318.657 213.311 318.423 213.716C318.189 214.121 317.853 214.457 317.448 214.691L274.326 239.584C272.669 240.54 270.79 241.043 268.877 241.043C266.964 241.043 265.085 240.54 263.428 239.584L164.252 181.401C163.847 181.167 163.511 180.831 163.277 180.426C163.043 180.021 162.92 179.562 162.92 179.094C162.92 178.627 163.043 178.167 163.277 177.762C163.511 177.357 163.847 177.021 164.252 176.787Z" fill="url(#paint8_linear_29_2517)"/>
<path d="M273.638 239.935V248L159.098 181.534V168.869L273.638 239.935Z" fill="url(#paint9_linear_29_2517)"/>
<path d="M164.252 174.582L207.374 149.689C209.031 148.732 210.911 148.229 212.824 148.229C214.738 148.229 216.618 148.732 218.275 149.689L317.448 207.872C317.853 208.106 318.189 208.442 318.423 208.847C318.657 209.252 318.78 209.711 318.78 210.179C318.78 210.646 318.657 211.106 318.423 211.511C318.189 211.916 317.853 212.252 317.448 212.486L274.326 237.379C272.669 238.334 270.79 238.838 268.877 238.838C266.964 238.838 265.085 238.334 263.428 237.379L164.252 179.196C163.847 178.962 163.511 178.626 163.277 178.221C163.043 177.816 162.92 177.357 162.92 176.889C162.92 176.422 163.043 175.962 163.277 175.557C163.511 175.152 163.847 174.816 164.252 174.582Z" fill="#DCE6F4" stroke="#97A3D1" stroke-miterlimit="10"/>
<path style="mix-blend-mode:multiply" opacity="0.21" d="M164.252 174.582L207.374 149.689C209.031 148.732 210.911 148.229 212.824 148.229C214.738 148.229 216.618 148.732 218.275 149.689L317.448 207.872C317.853 208.106 318.189 208.442 318.423 208.847C318.657 209.252 318.78 209.711 318.78 210.179C318.78 210.646 318.657 211.106 318.423 211.511C318.189 211.916 317.853 212.252 317.448 212.486L274.326 237.379C272.669 238.334 270.79 238.838 268.877 238.838C266.964 238.838 265.085 238.334 263.428 237.379L164.252 179.196C163.847 178.962 163.511 178.626 163.277 178.221C163.043 177.816 162.92 177.357 162.92 176.889C162.92 176.422 163.043 175.962 163.277 175.557C163.511 175.152 163.847 174.816 164.252 174.582Z" fill="url(#paint10_linear_29_2517)"/>
<path style="mix-blend-mode:multiply" opacity="0.88" d="M266.866 229.918C266.866 229.918 259.026 229.455 253.739 225.954C248.451 222.453 254.285 218.697 256.189 218.52C258.092 218.344 270.446 219.025 274.942 219.949C279.438 220.872 266.866 229.918 266.866 229.918Z" fill="url(#paint11_linear_29_2517)"/>
<path d="M268.151 229.917C273.822 229.917 278.42 227.366 278.42 224.218C278.42 221.071 273.822 218.52 268.151 218.52C262.48 218.52 257.883 221.071 257.883 224.218C257.883 227.366 262.48 229.917 268.151 229.917Z" fill="white"/>
<path d="M276.565 224.389C276.565 224.332 276.565 224.276 276.565 224.22C276.565 224.163 276.565 224.107 276.565 224.051V221.28L275.325 221.77C273.841 220.434 271.185 219.545 268.154 219.545C265.123 219.545 262.465 220.434 260.98 221.77L259.73 221.28V224.408C259.909 226.903 263.607 228.895 268.144 228.895C272.682 228.895 276.376 226.903 276.555 224.408L276.565 224.389Z" fill="#627BFD"/>
<path d="M276.565 224.389C276.565 224.332 276.565 224.276 276.565 224.22C276.565 224.163 276.565 224.107 276.565 224.051V221.28L275.325 221.77C273.841 220.434 271.185 219.545 268.154 219.545C265.123 219.545 262.465 220.434 260.98 221.77L259.73 221.28V224.408C259.909 226.903 263.607 228.895 268.144 228.895C272.682 228.895 276.376 226.903 276.555 224.408L276.565 224.389Z" stroke="#4A63CE" stroke-miterlimit="10"/>
<path d="M268.151 225.953C272.802 225.953 276.572 223.86 276.572 221.278C276.572 218.697 272.802 216.604 268.151 216.604C263.501 216.604 259.73 218.697 259.73 221.278C259.73 223.86 263.501 225.953 268.151 225.953Z" fill="#627BFD" stroke="#4A63CE" stroke-miterlimit="10"/>
<path d="M261.121 223.851L274.952 218.52" stroke="#4A63CE" stroke-miterlimit="10"/>
<path opacity="0.4" d="M261.383 224.06L275.211 218.729" stroke="white" stroke-miterlimit="10"/>
<path d="M268.153 225.001C273.557 225.001 277.939 222.45 277.939 219.302C277.939 216.155 273.557 213.604 268.153 213.604C262.748 213.604 258.367 216.155 258.367 219.302C258.367 222.45 262.748 225.001 268.153 225.001Z" fill="url(#paint12_linear_29_2517)" fill-opacity="0.2" stroke="#797FB2" stroke-miterlimit="10"/>
<path d="M268.153 225.002C262.748 225.002 258.367 222.451 258.367 219.303L257.877 224.22C257.877 227.368 262.748 229.919 268.153 229.919C273.558 229.919 278.431 227.368 278.431 224.22L277.941 219.303C277.941 222.451 273.567 225.002 268.153 225.002Z" fill="url(#paint13_linear_29_2517)" fill-opacity="0.2" stroke="#797FB2" stroke-miterlimit="10"/>
<path d="M278.431 224.22C278.431 227.126 274.283 229.52 269.395 229.872C268.986 229.904 268.572 229.919 268.153 229.919C265.458 229.919 262.883 229.282 260.989 228.25C260.06 227.778 259.246 227.109 258.602 226.29C258.142 225.7 257.884 224.978 257.867 224.23L258.357 219.312C258.367 220.063 258.604 220.793 259.038 221.405C260.469 223.517 264.007 225.011 268.143 225.011C268.564 225.011 268.978 224.997 269.385 224.965C271.59 224.803 273.57 224.213 275.065 223.343C276.836 222.311 277.931 220.893 277.931 219.312L278.431 224.22Z" fill="url(#paint14_linear_29_2517)" fill-opacity="0.2" stroke="#797FB2" stroke-miterlimit="10"/>
<path d="M269.402 224.954V229.872C268.993 229.904 268.579 229.918 268.16 229.918C265.465 229.918 262.89 229.281 260.996 228.25C260.068 227.777 259.253 227.109 258.609 226.29L259.055 221.404C260.486 223.516 264.024 225.011 268.16 225.011C268.574 225.001 268.988 224.986 269.402 224.954Z" fill="url(#paint15_linear_29_2517)" fill-opacity="0.2"/>
<path d="M268.154 225.002C269.182 224.955 270.204 224.828 271.212 224.622C272.216 224.42 273.193 224.105 274.125 223.681C275.062 223.278 275.917 222.708 276.649 221.998C277.398 221.29 277.858 220.33 277.94 219.303C277.958 219.825 277.859 220.345 277.651 220.824C277.435 221.303 277.142 221.744 276.784 222.128C276.054 222.88 275.185 223.483 274.226 223.904C273.274 224.327 272.273 224.629 271.246 224.806C270.734 224.891 270.22 224.955 269.703 224.989C269.186 225.024 268.666 225.026 268.154 225.002Z" fill="white"/>
<path style="mix-blend-mode:multiply" opacity="0.88" d="M291.438 215.246C291.438 215.246 283.598 214.786 278.311 211.282C273.024 207.778 278.857 204.025 280.761 203.848C282.665 203.672 295.018 204.353 299.514 205.279C304.01 206.205 291.438 215.246 291.438 215.246Z" fill="url(#paint16_linear_29_2517)"/>
<path d="M292.724 215.249C298.395 215.249 302.992 212.698 302.992 209.551C302.992 206.403 298.395 203.852 292.724 203.852C287.052 203.852 282.455 206.403 282.455 209.551C282.455 212.698 287.052 215.249 292.724 215.249Z" fill="white"/>
<path d="M301.137 209.716C301.137 209.659 301.137 209.603 301.137 209.547C301.137 209.492 301.137 209.435 301.137 209.378V206.607L299.898 207.097C298.413 205.764 295.757 204.875 292.724 204.875C289.69 204.875 287.037 205.764 285.552 207.097L284.303 206.607V209.738C284.482 212.23 288.179 214.222 292.714 214.222C297.249 214.222 300.949 212.23 301.128 209.738L301.137 209.716Z" fill="#627BFD"/>
<path d="M301.137 209.716C301.137 209.659 301.137 209.603 301.137 209.547C301.137 209.492 301.137 209.435 301.137 209.378V206.607L299.898 207.097C298.413 205.764 295.757 204.875 292.724 204.875C289.69 204.875 287.037 205.764 285.552 207.097L284.303 206.607V209.738C284.482 212.23 288.179 214.222 292.714 214.222C297.249 214.222 300.949 212.23 301.128 209.738L301.137 209.716Z" stroke="#4A63CE" stroke-miterlimit="10"/>
<path d="M292.724 211.285C297.375 211.285 301.145 209.192 301.145 206.61C301.145 204.029 297.375 201.936 292.724 201.936C288.073 201.936 284.303 204.029 284.303 206.61C284.303 209.192 288.073 211.285 292.724 211.285Z" fill="#627BFD" stroke="#4A63CE" stroke-miterlimit="10"/>
<path d="M285.693 209.183L299.522 203.852" stroke="#4A63CE" stroke-miterlimit="10"/>
<path opacity="0.4" d="M285.955 209.388L299.784 204.057" stroke="white" stroke-miterlimit="10"/>
<path d="M292.725 210.332C298.13 210.332 302.511 207.78 302.511 204.633C302.511 201.485 298.13 198.934 292.725 198.934C287.321 198.934 282.939 201.485 282.939 204.633C282.939 207.78 287.321 210.332 292.725 210.332Z" fill="url(#paint17_linear_29_2517)" fill-opacity="0.2" stroke="#797FB2" stroke-miterlimit="10"/>
<path d="M292.725 210.33C287.32 210.33 282.939 207.779 282.939 204.631L282.449 209.548C282.449 212.697 287.32 215.247 292.725 215.247C298.13 215.247 303.003 212.697 303.003 209.548L302.513 204.631C302.513 207.779 298.13 210.33 292.725 210.33Z" fill="url(#paint18_linear_29_2517)" fill-opacity="0.2" stroke="#797FB2" stroke-miterlimit="10"/>
<path d="M303.003 209.548C303.003 212.454 298.855 214.848 293.967 215.201C293.558 215.233 293.144 215.247 292.725 215.247C290.03 215.247 287.455 214.61 285.561 213.579C284.633 213.106 283.818 212.437 283.174 211.619C282.714 211.029 282.457 210.306 282.439 209.558L282.929 204.641C282.944 205.385 283.182 206.107 283.613 206.713C285.044 208.825 288.582 210.32 292.718 210.32C293.139 210.32 293.553 210.305 293.96 210.274C296.165 210.112 298.145 209.521 299.639 208.652C301.411 207.62 302.506 206.201 302.506 204.621L303.003 209.548Z" fill="url(#paint19_linear_29_2517)" fill-opacity="0.2" stroke="#797FB2" stroke-miterlimit="10"/>
<path d="M293.967 210.283V215.2C293.557 215.232 293.143 215.247 292.724 215.247C290.029 215.247 287.454 214.61 285.56 213.578C284.632 213.106 283.818 212.437 283.174 211.618L283.612 206.713C285.043 208.825 288.581 210.319 292.717 210.319C293.146 210.329 293.56 210.315 293.967 210.283Z" fill="url(#paint20_linear_29_2517)" fill-opacity="0.2"/>
<path d="M292.725 210.33C293.752 210.285 294.775 210.158 295.782 209.95C296.787 209.748 297.765 209.434 298.698 209.012C299.635 208.609 300.491 208.038 301.222 207.326C301.971 206.618 302.431 205.658 302.513 204.631C302.531 205.153 302.432 205.673 302.224 206.152C302.008 206.632 301.715 207.072 301.356 207.456C300.626 208.208 299.758 208.812 298.798 209.235C297.846 209.655 296.845 209.957 295.819 210.134C295.307 210.22 294.793 210.286 294.276 210.32C293.759 210.354 293.242 210.357 292.725 210.33Z" fill="white"/>
<path style="mix-blend-mode:multiply" opacity="0.88" d="M242.294 215.69C242.294 215.69 234.454 215.226 229.166 211.725C223.879 208.224 229.713 204.468 231.616 204.292C233.52 204.115 245.874 204.796 250.37 205.72C254.866 206.644 242.294 215.69 242.294 215.69Z" fill="url(#paint21_linear_29_2517)"/>
<path d="M243.581 215.691C249.252 215.691 253.849 213.139 253.849 209.992C253.849 206.844 249.252 204.293 243.581 204.293C237.91 204.293 233.312 206.844 233.312 209.992C233.312 213.139 237.91 215.691 243.581 215.691Z" fill="white"/>
<path d="M252.007 210.16C252.007 210.104 252.007 210.048 252.007 209.991C252.007 209.935 252.007 209.878 252.007 209.822V207.051L250.764 207.541C249.294 206.206 246.624 205.316 243.593 205.316C240.562 205.316 237.904 206.206 236.421 207.541L235.172 207.051V210.18C235.351 212.674 239.048 214.666 243.586 214.666C248.123 214.666 251.818 212.674 251.997 210.18L252.007 210.16Z" fill="#627BFD"/>
<path d="M252.007 210.16C252.007 210.104 252.007 210.048 252.007 209.991C252.007 209.935 252.007 209.878 252.007 209.822V207.051L250.764 207.541C249.294 206.206 246.624 205.316 243.593 205.316C240.562 205.316 237.904 206.206 236.421 207.541L235.172 207.051V210.18C235.351 212.674 239.048 214.666 243.586 214.666C248.123 214.666 251.818 212.674 251.997 210.18L252.007 210.16Z" stroke="#4A63CE" stroke-miterlimit="10"/>
<path d="M243.579 211.727C248.23 211.727 252 209.634 252 207.052C252 204.47 248.23 202.377 243.579 202.377C238.928 202.377 235.158 204.47 235.158 207.052C235.158 209.634 238.928 211.727 243.579 211.727Z" fill="#627BFD" stroke="#4A63CE" stroke-miterlimit="10"/>
<path d="M236.549 209.624L250.38 204.293" stroke="#4A63CE" stroke-miterlimit="10"/>
<path opacity="0.4" d="M236.811 209.831L250.639 204.5" stroke="white" stroke-miterlimit="10"/>
<path d="M243.581 210.773C248.985 210.773 253.366 208.221 253.366 205.074C253.366 201.927 248.985 199.375 243.581 199.375C238.176 199.375 233.795 201.927 233.795 205.074C233.795 208.221 238.176 210.773 243.581 210.773Z" fill="url(#paint22_linear_29_2517)" fill-opacity="0.2" stroke="#797FB2" stroke-miterlimit="10"/>
<path d="M243.583 210.773C238.178 210.773 233.795 208.223 233.795 205.074L233.305 209.992C233.305 213.14 238.178 215.691 243.583 215.691C248.988 215.691 253.859 213.14 253.859 209.992L253.369 205.074C253.369 208.223 248.988 210.773 243.583 210.773Z" fill="url(#paint23_linear_29_2517)" fill-opacity="0.2" stroke="#797FB2" stroke-miterlimit="10"/>
<path d="M253.859 209.992C253.859 212.897 249.711 215.291 244.823 215.644C244.414 215.676 244 215.691 243.581 215.691C240.885 215.691 238.31 215.053 236.416 214.022C235.488 213.549 234.674 212.881 234.03 212.062C233.57 211.472 233.312 210.749 233.295 210.001L233.785 205.084C233.794 205.834 234.032 206.564 234.466 207.176C235.897 209.288 239.435 210.783 243.571 210.783C243.992 210.783 244.406 210.768 244.813 210.736C247.018 210.575 248.998 209.984 250.492 209.114C252.264 208.083 253.359 206.664 253.359 205.084L253.859 209.992Z" fill="url(#paint24_linear_29_2517)" fill-opacity="0.2" stroke="#797FB2" stroke-miterlimit="10"/>
<path d="M244.822 210.726V215.643C244.413 215.675 243.999 215.69 243.58 215.69C240.885 215.69 238.31 215.053 236.416 214.021C235.488 213.549 234.673 212.88 234.029 212.061L234.475 207.176C235.906 209.288 239.444 210.782 243.58 210.782C244.001 210.773 244.41 210.758 244.822 210.726Z" fill="url(#paint25_linear_29_2517)" fill-opacity="0.2"/>
<path d="M243.582 210.773C244.61 210.727 245.632 210.6 246.64 210.393C247.643 210.192 248.621 209.876 249.553 209.453C250.49 209.051 251.345 208.48 252.077 207.769C252.826 207.062 253.286 206.101 253.368 205.074C253.387 205.597 253.288 206.117 253.079 206.596C252.863 207.074 252.571 207.515 252.214 207.899C251.484 208.652 250.614 209.255 249.653 209.675C248.701 210.098 247.701 210.401 246.674 210.577C246.162 210.663 245.647 210.727 245.13 210.761C244.613 210.795 244.097 210.798 243.582 210.773Z" fill="white"/>
<path style="mix-blend-mode:multiply" opacity="0.88" d="M266.866 201.02C266.866 201.02 259.026 200.559 253.739 197.055C248.451 193.552 254.285 189.798 256.189 189.622C258.092 189.445 270.446 190.126 274.942 191.05C279.438 191.974 266.866 201.02 266.866 201.02Z" fill="url(#paint26_linear_29_2517)"/>
<path d="M268.151 201.019C273.822 201.019 278.42 198.467 278.42 195.32C278.42 192.173 273.822 189.621 268.151 189.621C262.48 189.621 257.883 192.173 257.883 195.32C257.883 198.467 262.48 201.019 268.151 201.019Z" fill="white"/>
<path d="M276.565 195.488C276.565 195.432 276.565 195.376 276.565 195.319C276.565 195.263 276.565 195.207 276.565 195.15V192.379L275.325 192.869C273.841 191.536 271.185 190.645 268.154 190.645C265.123 190.645 262.465 191.536 260.98 192.869L259.73 192.379V195.51C259.909 198.002 263.607 199.994 268.144 199.994C272.682 199.994 276.376 198.002 276.555 195.51L276.565 195.488Z" fill="#627BFD"/>
<path d="M276.565 195.488C276.565 195.432 276.565 195.376 276.565 195.319C276.565 195.263 276.565 195.207 276.565 195.15V192.379L275.325 192.869C273.841 191.536 271.185 190.645 268.154 190.645C265.123 190.645 262.465 191.536 260.98 192.869L259.73 192.379V195.51C259.909 198.002 263.607 199.994 268.144 199.994C272.682 199.994 276.376 198.002 276.555 195.51L276.565 195.488Z" stroke="#4A63CE" stroke-miterlimit="10"/>
<path d="M268.151 197.055C272.802 197.055 276.572 194.962 276.572 192.38C276.572 189.798 272.802 187.705 268.151 187.705C263.501 187.705 259.73 189.798 259.73 192.38C259.73 194.962 263.501 197.055 268.151 197.055Z" fill="#627BFD" stroke="#4A63CE" stroke-miterlimit="10"/>
<path d="M261.121 194.953L274.952 189.621" stroke="#4A63CE" stroke-miterlimit="10"/>
<path opacity="0.4" d="M261.383 195.161L275.211 189.83" stroke="white" stroke-miterlimit="10"/>
<path d="M268.153 196.101C273.557 196.101 277.939 193.55 277.939 190.402C277.939 187.255 273.557 184.703 268.153 184.703C262.748 184.703 258.367 187.255 258.367 190.402C258.367 193.55 262.748 196.101 268.153 196.101Z" fill="url(#paint27_linear_29_2517)" fill-opacity="0.2" stroke="#797FB2" stroke-miterlimit="10"/>
<path d="M268.153 196.101C262.748 196.101 258.367 193.551 258.367 190.402L257.877 195.32C257.877 198.468 262.748 201.019 268.153 201.019C273.558 201.019 278.431 198.468 278.431 195.32L277.941 190.402C277.941 193.551 273.567 196.101 268.153 196.101Z" fill="url(#paint28_linear_29_2517)" fill-opacity="0.2" stroke="#797FB2" stroke-miterlimit="10"/>
<path d="M278.431 195.32C278.431 198.226 274.283 200.619 269.395 200.972C268.986 201.004 268.572 201.019 268.153 201.019C265.458 201.019 262.883 200.382 260.989 199.35C260.06 198.878 259.246 198.209 258.602 197.39C258.142 196.8 257.884 196.077 257.867 195.329L258.357 190.412C258.367 191.163 258.604 191.892 259.038 192.505C260.469 194.617 264.007 196.111 268.143 196.111C268.564 196.111 268.978 196.096 269.385 196.065C271.59 195.903 273.57 195.312 275.065 194.443C276.836 193.411 277.931 191.992 277.931 190.412L278.431 195.32Z" fill="url(#paint29_linear_29_2517)" fill-opacity="0.2" stroke="#797FB2" stroke-miterlimit="10"/>
<path d="M269.402 196.056V200.973C268.993 201.005 268.579 201.02 268.16 201.02C265.465 201.02 262.89 200.383 260.996 199.351C260.068 198.879 259.253 198.21 258.609 197.391L259.055 192.506C260.486 194.618 264.024 196.112 268.16 196.112C268.574 196.103 268.988 196.088 269.402 196.056Z" fill="url(#paint30_linear_29_2517)" fill-opacity="0.2"/>
<path d="M268.154 196.101C269.182 196.056 270.204 195.929 271.212 195.722C272.215 195.52 273.193 195.205 274.125 194.783C275.062 194.38 275.917 193.808 276.649 193.097C277.398 192.39 277.858 191.43 277.94 190.402C277.958 190.925 277.859 191.445 277.651 191.924C277.435 192.403 277.142 192.843 276.784 193.227C276.054 193.98 275.185 194.584 274.226 195.006C273.273 195.427 272.273 195.729 271.246 195.905C270.734 195.991 270.22 196.055 269.703 196.089C269.187 196.12 268.67 196.124 268.154 196.101Z" fill="white"/>
<path style="mix-blend-mode:multiply" opacity="0.88" d="M217.058 202.377C217.058 202.377 209.233 201.914 203.931 198.413C198.629 194.912 204.477 191.156 206.381 190.979C208.284 190.803 220.635 191.484 225.131 192.407C229.627 193.331 217.058 202.377 217.058 202.377Z" fill="url(#paint31_linear_29_2517)"/>
<path d="M218.347 202.376C224.018 202.376 228.615 199.825 228.615 196.677C228.615 193.53 224.018 190.979 218.347 190.979C212.675 190.979 208.078 193.53 208.078 196.677C208.078 199.825 212.675 202.376 218.347 202.376Z" fill="white"/>
<path d="M226.77 196.846C226.77 196.789 226.77 196.733 226.77 196.677C226.77 196.62 226.77 196.564 226.77 196.508V193.727L225.528 194.217C224.058 192.882 221.387 191.992 218.357 191.992C215.326 191.992 212.667 192.882 211.185 194.217L209.936 193.727V196.856C210.117 199.35 213.812 201.342 218.349 201.342C222.887 201.342 226.582 199.35 226.763 196.856L226.77 196.846Z" fill="#627BFD"/>
<path d="M226.77 196.846C226.77 196.789 226.77 196.733 226.77 196.677C226.77 196.62 226.77 196.564 226.77 196.508V193.727L225.528 194.217C224.058 192.882 221.387 191.992 218.357 191.992C215.326 191.992 212.667 192.882 211.185 194.217L209.936 193.727V196.856C210.117 199.35 213.812 201.342 218.349 201.342C222.887 201.342 226.582 199.35 226.763 196.856L226.77 196.846Z" stroke="#4A63CE" stroke-miterlimit="10"/>
<path d="M218.347 198.412C222.998 198.412 226.768 196.319 226.768 193.737C226.768 191.155 222.998 189.062 218.347 189.062C213.696 189.062 209.926 191.155 209.926 193.737C209.926 196.319 213.696 198.412 218.347 198.412Z" fill="#627BFD" stroke="#4A63CE" stroke-miterlimit="10"/>
<path d="M211.314 196.31L225.143 190.979" stroke="#4A63CE" stroke-miterlimit="10"/>
<path opacity="0.4" d="M211.574 196.519L225.405 191.188" stroke="white" stroke-miterlimit="10"/>
<path d="M218.346 197.458C223.751 197.458 228.132 194.907 228.132 191.759C228.132 188.612 223.751 186.061 218.346 186.061C212.942 186.061 208.561 188.612 208.561 191.759C208.561 194.907 212.942 197.458 218.346 197.458Z" fill="url(#paint32_linear_29_2517)" fill-opacity="0.2" stroke="#797FB2" stroke-miterlimit="10"/>
<path d="M218.346 197.459C212.941 197.459 208.56 194.908 208.56 191.76L208.07 196.677C208.07 199.826 212.941 202.376 218.346 202.376C223.751 202.376 228.622 199.826 228.622 196.677L228.132 191.76C228.132 194.908 223.751 197.459 218.346 197.459Z" fill="url(#paint33_linear_29_2517)" fill-opacity="0.2" stroke="#797FB2" stroke-miterlimit="10"/>
<path d="M228.624 196.667C228.624 199.573 224.476 201.967 219.588 202.32C219.179 202.352 218.765 202.366 218.346 202.366C215.651 202.366 213.076 201.729 211.182 200.698C210.254 200.225 209.439 199.556 208.796 198.738C208.336 198.148 208.078 197.425 208.061 196.677L208.551 191.76C208.56 192.51 208.798 193.24 209.232 193.852C210.663 195.964 214.201 197.459 218.336 197.459C218.758 197.459 219.172 197.444 219.579 197.412C221.784 197.25 223.763 196.66 225.258 195.79C227.029 194.759 228.125 193.34 228.125 191.76L228.624 196.667Z" fill="url(#paint34_linear_29_2517)" fill-opacity="0.2" stroke="#797FB2" stroke-miterlimit="10"/>
<path d="M219.588 197.404V202.321C219.178 202.353 218.764 202.368 218.345 202.368C215.65 202.368 213.075 201.731 211.181 200.699C210.253 200.227 209.439 199.558 208.795 198.739L209.241 193.854C210.672 195.966 214.21 197.46 218.345 197.46C218.767 197.46 219.174 197.445 219.588 197.404Z" fill="url(#paint35_linear_29_2517)" fill-opacity="0.2"/>
<path d="M218.346 197.459C219.373 197.413 220.396 197.286 221.403 197.079C222.407 196.877 223.384 196.562 224.317 196.141C225.253 195.737 226.108 195.166 226.84 194.455C227.591 193.748 228.051 192.787 228.131 191.76C228.152 192.282 228.054 192.802 227.845 193.281C227.628 193.76 227.335 194.2 226.977 194.585C226.247 195.336 225.379 195.94 224.419 196.361C223.467 196.783 222.467 197.086 221.44 197.263C220.928 197.348 220.414 197.412 219.897 197.446C219.38 197.481 218.86 197.483 218.346 197.459Z" fill="white"/>
<path style="mix-blend-mode:multiply" opacity="0.88" d="M241.631 187.705C241.631 187.705 233.805 187.245 228.503 183.741C223.201 180.237 229.049 176.484 230.953 176.307C232.857 176.131 245.208 176.812 249.704 177.738C254.2 178.664 241.631 187.705 241.631 187.705Z" fill="url(#paint36_linear_29_2517)"/>
<path d="M242.919 187.708C248.59 187.708 253.187 185.157 253.187 182.01C253.187 178.862 248.59 176.311 242.919 176.311C237.248 176.311 232.65 178.862 232.65 182.01C232.65 185.157 237.248 187.708 242.919 187.708Z" fill="white"/>
<path d="M251.333 182.175C251.333 182.119 251.333 182.063 251.333 182.006C251.333 181.95 251.333 181.894 251.333 181.837V179.066L250.091 179.556C248.62 178.223 245.95 177.334 242.919 177.334C239.888 177.334 237.23 178.223 235.748 179.556L234.498 179.066V182.197C234.677 184.689 238.374 186.681 242.912 186.681C247.449 186.681 251.144 184.689 251.323 182.197L251.333 182.175Z" fill="#627BFD"/>
<path d="M251.333 182.175C251.333 182.119 251.333 182.063 251.333 182.006C251.333 181.95 251.333 181.894 251.333 181.837V179.066L250.091 179.556C248.62 178.223 245.95 177.334 242.919 177.334C239.888 177.334 237.23 178.223 235.748 179.556L234.498 179.066V182.197C234.677 184.689 238.374 186.681 242.912 186.681C247.449 186.681 251.144 184.689 251.323 182.197L251.333 182.175Z" stroke="#4A63CE" stroke-miterlimit="10"/>
<path d="M242.919 183.744C247.57 183.744 251.34 181.651 251.34 179.069C251.34 176.487 247.57 174.395 242.919 174.395C238.268 174.395 234.498 176.487 234.498 179.069C234.498 181.651 238.268 183.744 242.919 183.744Z" fill="#627BFD" stroke="#4A63CE" stroke-miterlimit="10"/>
<path d="M235.887 181.642L249.715 176.311" stroke="#4A63CE" stroke-miterlimit="10"/>
<path opacity="0.4" d="M236.146 181.847L249.975 176.516" stroke="white" stroke-miterlimit="10"/>
<path d="M242.919 182.79C248.323 182.79 252.704 180.239 252.704 177.092C252.704 173.944 248.323 171.393 242.919 171.393C237.514 171.393 233.133 173.944 233.133 177.092C233.133 180.239 237.514 182.79 242.919 182.79Z" fill="url(#paint37_linear_29_2517)" fill-opacity="0.2" stroke="#797FB2" stroke-miterlimit="10"/>
<path d="M242.919 182.789C237.514 182.789 233.131 180.238 233.131 177.09L232.641 182.007C232.641 185.156 237.514 187.706 242.919 187.706C248.324 187.706 253.195 185.156 253.195 182.007L252.705 177.09C252.705 180.238 248.331 182.789 242.919 182.789Z" fill="url(#paint38_linear_29_2517)" fill-opacity="0.2" stroke="#797FB2" stroke-miterlimit="10"/>
<path d="M253.197 182.007C253.197 184.913 249.049 187.307 244.161 187.66C243.751 187.691 243.337 187.706 242.918 187.706C240.223 187.706 237.648 187.069 235.754 186.038C234.826 185.565 234.012 184.896 233.368 184.078C232.908 183.487 232.65 182.765 232.633 182.017L233.123 177.1C233.132 177.85 233.37 178.58 233.804 179.192C235.235 181.304 238.773 182.799 242.909 182.799C243.33 182.799 243.744 182.784 244.151 182.752C246.356 182.59 248.336 182 249.83 181.13C251.602 180.099 252.697 178.68 252.697 177.1L253.197 182.007Z" fill="url(#paint39_linear_29_2517)" fill-opacity="0.2" stroke="#797FB2" stroke-miterlimit="10"/>
<path d="M244.166 182.742V187.659C243.757 187.691 243.343 187.706 242.924 187.706C240.228 187.706 237.653 187.069 235.759 186.037C234.831 185.564 234.017 184.896 233.373 184.077L233.819 179.191C235.25 181.303 238.788 182.798 242.924 182.798C243.34 182.788 243.754 182.773 244.166 182.742Z" fill="url(#paint40_linear_29_2517)" fill-opacity="0.2"/>
<path d="M242.918 182.789C243.946 182.744 244.968 182.617 245.976 182.409C246.979 182.207 247.956 181.892 248.889 181.471C249.827 181.069 250.682 180.497 251.413 179.785C252.163 179.078 252.623 178.117 252.704 177.09C252.725 177.612 252.626 178.133 252.415 178.611C252.2 179.09 251.908 179.531 251.55 179.915C250.819 180.667 249.949 181.271 248.989 181.694C248.037 182.114 247.036 182.416 246.01 182.593C245.5 182.679 244.983 182.745 244.469 182.779C243.954 182.813 243.43 182.816 242.918 182.789Z" fill="white"/>
<path style="mix-blend-mode:multiply" opacity="0.88" d="M190.508 187.911C190.508 187.911 182.668 187.448 177.378 183.944C172.088 180.44 177.927 176.687 179.828 176.51C181.729 176.334 194.085 177.015 198.581 177.941C203.077 178.867 190.508 187.911 190.508 187.911Z" fill="url(#paint41_linear_29_2517)"/>
<path d="M191.798 187.912C197.469 187.912 202.066 185.36 202.066 182.213C202.066 179.065 197.469 176.514 191.798 176.514C186.127 176.514 181.529 179.065 181.529 182.213C181.529 185.36 186.127 187.912 191.798 187.912Z" fill="white"/>
<path d="M200.211 182.379C200.211 182.325 200.211 182.268 200.211 182.212C200.211 182.156 200.211 182.097 200.211 182.043V179.272L198.969 179.762C197.487 178.426 194.831 177.537 191.798 177.537C188.764 177.537 186.099 178.426 184.628 179.762L183.379 179.272V182.401C183.558 184.895 187.255 186.884 191.79 186.884C196.325 186.884 200.025 184.895 200.204 182.401L200.211 182.379Z" fill="#627BFD"/>
<path d="M200.211 182.379C200.211 182.325 200.211 182.268 200.211 182.212C200.211 182.156 200.211 182.097 200.211 182.043V179.272L198.969 179.762C197.487 178.426 194.831 177.537 191.798 177.537C188.764 177.537 186.099 178.426 184.628 179.762L183.379 179.272V182.401C183.558 184.895 187.255 186.884 191.79 186.884C196.325 186.884 200.025 184.895 200.204 182.401L200.211 182.379Z" stroke="#4A63CE" stroke-miterlimit="10"/>
<path d="M191.796 183.947C196.447 183.947 200.217 181.854 200.217 179.272C200.217 176.691 196.447 174.598 191.796 174.598C187.145 174.598 183.375 176.691 183.375 179.272C183.375 181.854 187.145 183.947 191.796 183.947Z" fill="#627BFD" stroke="#4A63CE" stroke-miterlimit="10"/>
<path d="M184.766 181.845L198.594 176.514" stroke="#4A63CE" stroke-miterlimit="10"/>
<path opacity="0.4" d="M185.027 182.052L198.856 176.721" stroke="white" stroke-miterlimit="10"/>
<path d="M191.797 182.994C197.202 182.994 201.583 180.442 201.583 177.295C201.583 174.147 197.202 171.596 191.797 171.596C186.393 171.596 182.012 174.147 182.012 177.295C182.012 180.442 186.393 182.994 191.797 182.994Z" fill="url(#paint42_linear_29_2517)" fill-opacity="0.2" stroke="#797FB2" stroke-miterlimit="10"/>
<path d="M191.797 182.994C186.392 182.994 182.012 180.441 182.012 177.295L181.521 182.21C181.521 185.356 186.392 187.909 191.797 187.909C197.202 187.909 202.075 185.356 202.075 182.21L201.585 177.293C201.585 180.441 197.202 182.994 191.797 182.994Z" fill="url(#paint43_linear_29_2517)" fill-opacity="0.2" stroke="#797FB2" stroke-miterlimit="10"/>
<path d="M202.075 182.212C202.075 185.118 197.927 187.512 193.039 187.865C192.63 187.896 192.216 187.911 191.797 187.911C189.102 187.911 186.527 187.274 184.633 186.243C183.705 185.77 182.891 185.101 182.247 184.283C181.787 183.693 181.529 182.97 181.512 182.222L182.002 177.305C182.011 178.055 182.249 178.785 182.683 179.397C184.114 181.509 187.652 183.004 191.787 183.004C192.209 183.004 192.623 182.989 193.03 182.957C195.235 182.795 197.214 182.205 198.709 181.335C200.48 180.304 201.576 178.885 201.576 177.305L202.075 182.212Z" fill="url(#paint44_linear_29_2517)" fill-opacity="0.2" stroke="#797FB2" stroke-miterlimit="10"/>
<path d="M193.039 182.947V187.864C192.63 187.896 192.216 187.911 191.797 187.911C189.101 187.911 186.526 187.274 184.632 186.242C183.704 185.77 182.89 185.101 182.246 184.282L182.692 179.396C184.123 181.508 187.661 183.003 191.797 183.003C192.223 182.991 192.632 182.976 193.039 182.947Z" fill="url(#paint45_linear_29_2517)" fill-opacity="0.2"/>
<path d="M191.797 182.994C192.825 182.949 193.847 182.821 194.855 182.612C195.858 182.412 196.836 182.097 197.768 181.674C198.706 181.271 199.562 180.7 200.294 179.988C201.043 179.28 201.503 178.32 201.585 177.293C201.603 177.815 201.504 178.334 201.296 178.812C201.08 179.291 200.787 179.732 200.429 180.115C199.699 180.868 198.83 181.472 197.871 181.894C196.919 182.316 195.918 182.618 194.891 182.793C194.379 182.879 193.865 182.945 193.348 182.98C192.831 183.014 192.314 183.019 191.797 182.994Z" fill="white"/>
<path style="mix-blend-mode:multiply" opacity="0.88" d="M215.081 173.24C215.081 173.24 207.255 172.777 201.953 169.276C196.651 165.775 202.502 162.019 204.416 161.842C206.329 161.666 218.673 162.347 223.166 163.271C227.66 164.194 215.081 173.24 215.081 173.24Z" fill="url(#paint46_linear_29_2517)"/>
<path d="M216.37 173.24C222.041 173.24 226.638 170.688 226.638 167.541C226.638 164.393 222.041 161.842 216.37 161.842C210.699 161.842 206.102 164.393 206.102 167.541C206.102 170.688 210.699 173.24 216.37 173.24Z" fill="white"/>
<path d="M224.782 167.709C224.782 167.652 224.782 167.596 224.782 167.54C224.782 167.484 224.782 167.428 224.782 167.371V164.6L223.54 165.09C222.057 163.755 219.402 162.865 216.368 162.865C213.335 162.865 210.679 163.755 209.197 165.09L207.947 164.6V167.729C208.126 170.223 211.823 172.215 216.358 172.215C220.894 172.215 224.593 170.223 224.772 167.729L224.782 167.709Z" fill="#627BFD"/>
<path d="M224.782 167.709C224.782 167.652 224.782 167.596 224.782 167.54C224.782 167.484 224.782 167.428 224.782 167.371V164.6L223.54 165.09C222.057 163.755 219.402 162.865 216.368 162.865C213.335 162.865 210.679 163.755 209.197 165.09L207.947 164.6V167.729C208.126 170.223 211.823 172.215 216.358 172.215C220.894 172.215 224.593 170.223 224.772 167.729L224.782 167.709Z" stroke="#4A63CE" stroke-miterlimit="10"/>
<path d="M216.368 169.275C221.019 169.275 224.789 167.182 224.789 164.601C224.789 162.019 221.019 159.926 216.368 159.926C211.717 159.926 207.947 162.019 207.947 164.601C207.947 167.182 211.717 169.275 216.368 169.275Z" fill="#627BFD" stroke="#4A63CE" stroke-miterlimit="10"/>
<path d="M209.338 167.173L223.166 161.842" stroke="#4A63CE" stroke-miterlimit="10"/>
<path opacity="0.4" d="M209.6 167.382L223.428 162.051" stroke="white" stroke-miterlimit="10"/>
<path d="M216.37 168.322C221.774 168.322 226.155 165.77 226.155 162.623C226.155 159.475 221.774 156.924 216.37 156.924C210.965 156.924 206.584 159.475 206.584 162.623C206.584 165.77 210.965 168.322 216.37 168.322Z" fill="url(#paint47_linear_29_2517)" fill-opacity="0.2" stroke="#797FB2" stroke-miterlimit="10"/>
<path d="M216.369 168.322C210.965 168.322 206.584 165.769 206.584 162.623L206.094 167.54C206.094 170.686 210.965 173.239 216.369 173.239C221.774 173.239 226.648 170.686 226.648 167.54L226.158 162.623C226.158 165.769 221.774 168.322 216.369 168.322Z" fill="url(#paint48_linear_29_2517)" fill-opacity="0.2" stroke="#797FB2" stroke-miterlimit="10"/>
<path d="M226.648 167.54C226.648 170.446 222.5 172.84 217.612 173.193C217.203 173.225 216.789 173.239 216.37 173.239C213.674 173.239 211.099 172.602 209.205 171.571C208.277 171.098 207.463 170.429 206.819 169.611C206.359 169.021 206.101 168.298 206.084 167.55L206.574 162.633C206.583 163.383 206.821 164.113 207.255 164.725C208.686 166.837 212.224 168.332 216.36 168.332C216.781 168.332 217.195 168.317 217.602 168.285C219.807 168.124 221.787 167.533 223.281 166.663C225.053 165.632 226.148 164.213 226.148 162.633L226.648 167.54Z" fill="url(#paint49_linear_29_2517)" fill-opacity="0.2" stroke="#797FB2" stroke-miterlimit="10"/>
<path d="M217.611 168.277V173.194C217.202 173.226 216.788 173.241 216.369 173.241C213.674 173.241 211.099 172.604 209.205 171.572C208.277 171.1 207.462 170.431 206.818 169.612L207.264 164.727C208.695 166.839 212.233 168.333 216.369 168.333C216.79 168.323 217.214 168.309 217.611 168.277Z" fill="url(#paint50_linear_29_2517)" fill-opacity="0.2"/>
<path d="M216.369 168.322C217.397 168.277 218.419 168.149 219.427 167.94C220.431 167.74 221.408 167.425 222.34 167.002C223.278 166.6 224.133 166.028 224.864 165.316C225.614 164.609 226.074 163.649 226.157 162.621C226.175 163.143 226.076 163.663 225.868 164.143C225.652 164.621 225.359 165.06 225.001 165.444C224.271 166.196 223.402 166.8 222.443 167.222C221.491 167.645 220.49 167.947 219.464 168.124C218.952 168.21 218.437 168.273 217.92 168.308C217.403 168.342 216.886 168.347 216.369 168.322Z" fill="white"/>
<path d="M317.44 212.486C315.26 213.809 313.064 215.105 310.877 216.407L304.286 220.29C299.876 222.875 295.465 225.435 291.055 227.991C286.645 230.546 282.213 233.075 277.778 235.586L274.448 237.47C273.323 238.109 272.095 238.548 270.82 238.769C268.264 239.194 265.641 238.697 263.418 237.367C265.089 238.287 266.971 238.755 268.878 238.726C270.785 238.697 272.652 238.171 274.294 237.201L277.589 235.26C281.985 232.675 286.41 230.115 290.82 227.562C295.23 225.009 299.66 222.475 304.097 219.966L310.756 216.201C312.984 214.968 315.218 213.714 317.44 212.486Z" fill="white"/>
<path d="M93.7285 175.563L99.0526 181.602L104.364 187.654L104.137 187.615L116.091 180.61L122.069 177.111L128.062 173.634L140.048 166.681L146.041 163.207L152.048 159.755C160.063 155.161 168.055 150.532 176.094 145.98C184.133 141.428 192.157 136.853 200.222 132.348C192.286 137.085 184.329 141.777 176.351 146.426C168.391 151.111 160.386 155.722 152.399 160.365L146.406 163.836L140.403 167.291L128.398 174.193L122.39 177.645L116.37 181.075L104.328 187.936L104.195 188.012L104.097 187.899L98.8934 181.722L93.7285 175.563Z" fill="#7D83AF"/>
<g opacity="0.51">
<path opacity="0.51" d="M116.353 173.004C112.039 175.491 112.039 179.516 116.353 182.006L139.139 195.168C143.439 197.657 150.427 197.657 154.727 195.168C159.024 192.686 159.024 188.653 154.727 186.171L131.924 173.004C127.619 170.52 120.653 170.52 116.346 173.004H116.353Z" fill="url(#paint51_linear_29_2517)"/>
</g>
<path d="M144.664 173.13C143.67 172.565 142.704 172.008 141.724 171.445C140.039 170.494 138.385 169.519 136.689 168.593C134.82 167.554 133.031 166.655 130.878 166.28C130.427 166.181 129.964 166.154 129.506 166.199C128.503 166.334 127.536 166.662 126.659 167.167C123.99 168.72 122.292 172.052 122.998 175.118C123.393 176.867 124.223 178.606 125.693 179.699C126.257 180.074 126.843 180.415 127.448 180.718L137.128 186.275L144.664 173.13Z" fill="url(#paint52_linear_29_2517)"/>
<path d="M158.321 182.783C157.76 181.41 156.798 180.238 155.559 179.422C155.15 179.124 154.707 178.878 154.239 178.687L144.708 173.147C143.728 172.579 142.393 172.657 140.903 173.519C137.941 175.234 135.537 179.382 135.537 182.8C135.537 184.621 136.218 185.863 137.306 186.37L146.803 191.844L148.334 192.758C148.363 192.779 148.396 192.793 148.432 192.797C149.339 193.169 150.311 193.356 151.291 193.346C151.626 193.364 151.961 193.331 152.286 193.25C154.12 193.021 155.808 192.129 157.029 190.741C158.251 189.354 158.922 187.567 158.916 185.718C158.908 184.711 158.706 183.714 158.321 182.783Z" fill="#FF7F0B"/>
<path opacity="0.5" d="M126.455 169.164C125.637 170.571 126.539 168.652 127.95 169.466L152.451 183.613C153.862 184.431 155.259 187.675 156.08 186.266C156.467 185.585 156.57 184.779 156.366 184.022C156.162 183.266 155.669 182.62 154.992 182.226L130.491 168.079C129.812 167.689 129.006 167.584 128.25 167.787C127.493 167.991 126.849 168.486 126.458 169.164H126.455Z" fill="white"/>
<path d="M148.337 215.043C147.261 215.43 146.203 215.812 145.14 216.19C143.319 216.851 141.506 217.473 139.7 218.15C137.696 218.885 135.849 219.671 134.166 221.065C133.798 221.34 133.477 221.671 133.213 222.045C132.662 222.895 132.283 223.844 132.095 224.838C131.544 227.874 132.972 231.331 135.771 232.789C137.356 233.627 139.225 234.117 141.006 233.713C141.659 233.53 142.299 233.306 142.922 233.041L153.436 229.298L148.337 215.043Z" fill="url(#paint53_linear_29_2517)"/>
<path d="M164.549 210.938C163.141 210.471 161.625 210.441 160.2 210.852C159.71 210.972 159.236 211.151 158.789 211.384L148.386 215.027C147.325 215.395 146.509 216.468 146.198 218.161C145.568 221.522 147.166 226.05 149.763 228.272C151.145 229.453 152.534 229.742 153.624 229.252L163.956 225.592L165.647 225.021C165.682 225.013 165.714 224.996 165.74 224.972C166.613 224.526 167.387 223.908 168.016 223.157C168.248 222.915 168.441 222.639 168.589 222.338C169.608 220.796 170.027 218.934 169.766 217.104C169.506 215.274 168.584 213.602 167.176 212.405C166.403 211.751 165.511 211.253 164.549 210.938Z" fill="#FF7F0B"/>
<path opacity="0.5" d="M133.489 226.314C134.028 227.85 133.156 225.919 134.692 225.375L161.366 215.947C162.905 215.403 166.281 216.452 165.742 214.913C165.476 214.176 164.931 213.574 164.223 213.237C163.516 212.9 162.704 212.855 161.964 213.113L135.285 222.543C134.548 222.806 133.944 223.35 133.608 224.057C133.271 224.764 133.228 225.575 133.489 226.314Z" fill="white"/>
</g>
<defs>
<linearGradient id="paint0_linear_29_2517" x1="8.14661" y1="112.937" x2="189.232" y2="167.673" gradientUnits="userSpaceOnUse">
<stop stop-color="#627BFD" stop-opacity="0"/>
<stop offset="0.11" stop-color="#627BFD" stop-opacity="0.07"/>
<stop offset="0.31" stop-color="#627BFD" stop-opacity="0.25"/>
<stop offset="0.61" stop-color="#627BFD" stop-opacity="0.54"/>
<stop offset="0.97" stop-color="#627BFD" stop-opacity="0.93"/>
<stop offset="1" stop-color="#627BFD" stop-opacity="0.96"/>
</linearGradient>
<linearGradient id="paint1_linear_29_2517" x1="144.207" y1="220.24" x2="162.93" y2="254.257" gradientUnits="userSpaceOnUse">
<stop stop-color="#627BFD" stop-opacity="0"/>
<stop offset="0.14" stop-color="#627BFD" stop-opacity="0.2"/>
<stop offset="0.31" stop-color="#627BFD" stop-opacity="0.43"/>
<stop offset="0.47" stop-color="#627BFD" stop-opacity="0.62"/>
<stop offset="0.63" stop-color="#627BFD" stop-opacity="0.77"/>
<stop offset="0.77" stop-color="#627BFD" stop-opacity="0.87"/>
<stop offset="0.9" stop-color="#627BFD" stop-opacity="0.94"/>
<stop offset="1" stop-color="#627BFD" stop-opacity="0.96"/>
</linearGradient>
<linearGradient id="paint2_linear_29_2517" x1="178.949" y1="32.4558" x2="178.949" y2="0.638672" gradientUnits="userSpaceOnUse">
<stop stop-color="#4D4F80" stop-opacity="0"/>
<stop offset="0.14" stop-color="#4D4F80" stop-opacity="0.28"/>
<stop offset="0.29" stop-color="#4D4F80" stop-opacity="0.52"/>
<stop offset="0.45" stop-color="#4D4F80" stop-opacity="0.72"/>
<stop offset="0.61" stop-color="#4D4F80" stop-opacity="0.85"/>
<stop offset="0.79" stop-color="#4D4F80" stop-opacity="0.93"/>
<stop offset="1" stop-color="#4D4F80" stop-opacity="0.96"/>
</linearGradient>
<linearGradient id="paint3_linear_29_2517" x1="72.5723" y1="102.108" x2="200.211" y2="102.108" gradientUnits="userSpaceOnUse">
<stop stop-color="#D5D8EF"/>
<stop offset="0.41" stop-color="#D9DBEF"/>
<stop offset="0.8" stop-color="#E4E5EF"/>
<stop offset="1" stop-color="#EDEDEF"/>
</linearGradient>
<linearGradient id="paint4_linear_29_2517" x1="90.0023" y1="187.774" x2="90.0023" y2="49.8867" gradientUnits="userSpaceOnUse">
<stop offset="0.02" stop-color="#D7DDF4"/>
<stop offset="0.18" stop-color="#CDD3ED"/>
<stop offset="0.7" stop-color="#AEB4DA"/>
<stop offset="1" stop-color="#A3A9D3"/>
</linearGradient>
<linearGradient id="paint5_linear_29_2517" x1="5722.87" y1="101547" x2="5722.87" y2="29968.3" gradientUnits="userSpaceOnUse">
<stop offset="0.02" stop-color="#D7DDF4"/>
<stop offset="0.18" stop-color="#CDD3ED"/>
<stop offset="0.7" stop-color="#AEB4DA"/>
<stop offset="1" stop-color="#A3A9D3"/>
</linearGradient>
<linearGradient id="paint6_linear_29_2517" x1="100.575" y1="187.775" x2="100.575" y2="55.3438" gradientUnits="userSpaceOnUse">
<stop stop-color="#627BFD"/>
<stop offset="0.04" stop-color="#627BFD" stop-opacity="0.95"/>
<stop offset="0.25" stop-color="#627BFD" stop-opacity="0.66"/>
<stop offset="0.44" stop-color="#627BFD" stop-opacity="0.43"/>
<stop offset="0.62" stop-color="#627BFD" stop-opacity="0.24"/>
<stop offset="0.78" stop-color="#627BFD" stop-opacity="0.11"/>
<stop offset="0.91" stop-color="#627BFD" stop-opacity="0.03"/>
<stop offset="1" stop-color="#627BFD" stop-opacity="0"/>
</linearGradient>
<linearGradient id="paint7_linear_29_2517" x1="158.019" y1="195.249" x2="313.873" y2="195.249" gradientUnits="userSpaceOnUse">
<stop stop-color="#627BFD" stop-opacity="0.3"/>
<stop offset="0.33" stop-color="#627BFD" stop-opacity="0.54"/>
<stop offset="0.79" stop-color="#627BFD" stop-opacity="0.84"/>
<stop offset="1" stop-color="#627BFD" stop-opacity="0.96"/>
</linearGradient>
<linearGradient id="paint8_linear_29_2517" x1="162.919" y1="195.739" x2="318.773" y2="195.739" gradientUnits="userSpaceOnUse">
<stop stop-color="#627BFD" stop-opacity="0"/>
<stop offset="0.04" stop-color="#627BFD" stop-opacity="0.16"/>
<stop offset="0.09" stop-color="#627BFD" stop-opacity="0.33"/>
<stop offset="0.14" stop-color="#627BFD" stop-opacity="0.48"/>
<stop offset="0.2" stop-color="#627BFD" stop-opacity="0.61"/>
<stop offset="0.26" stop-color="#627BFD" stop-opacity="0.72"/>
<stop offset="0.33" stop-color="#627BFD" stop-opacity="0.81"/>
<stop offset="0.41" stop-color="#627BFD" stop-opacity="0.88"/>
<stop offset="0.51" stop-color="#627BFD" stop-opacity="0.92"/>
<stop offset="0.65" stop-color="#627BFD" stop-opacity="0.95"/>
<stop offset="1" stop-color="#627BFD" stop-opacity="0.96"/>
</linearGradient>
<linearGradient id="paint9_linear_29_2517" x1="159.098" y1="208.436" x2="273.638" y2="208.436" gradientUnits="userSpaceOnUse">
<stop offset="0.02" stop-color="#D0D4EF"/>
<stop offset="0.38" stop-color="#AFB5D7"/>
<stop offset="0.78" stop-color="#9099C2"/>
<stop offset="1" stop-color="#858EBA"/>
</linearGradient>
<linearGradient id="paint10_linear_29_2517" x1="162.919" y1="193.534" x2="318.773" y2="193.534" gradientUnits="userSpaceOnUse">
<stop stop-color="#627BFD" stop-opacity="0"/>
<stop offset="0.09" stop-color="#627BFD" stop-opacity="0.05"/>
<stop offset="0.27" stop-color="#627BFD" stop-opacity="0.19"/>
<stop offset="0.5" stop-color="#627BFD" stop-opacity="0.41"/>
<stop offset="0.79" stop-color="#627BFD" stop-opacity="0.71"/>
<stop offset="1" stop-color="#627BFD" stop-opacity="0.96"/>
</linearGradient>
<linearGradient id="paint11_linear_29_2517" x1="251.57" y1="224.204" x2="275.922" y2="224.204" gradientUnits="userSpaceOnUse">
<stop stop-color="#627BFD" stop-opacity="0"/>
<stop offset="0.05" stop-color="#627BFD" stop-opacity="0.05"/>
<stop offset="0.52" stop-color="#627BFD" stop-opacity="0.53"/>
<stop offset="0.85" stop-color="#627BFD" stop-opacity="0.84"/>
<stop offset="1" stop-color="#627BFD" stop-opacity="0.96"/>
</linearGradient>
<linearGradient id="paint12_linear_29_2517" x1="258.367" y1="219.302" x2="277.941" y2="219.302" gradientUnits="userSpaceOnUse">
<stop stop-color="#627BFD"/>
<stop offset="0.16" stop-color="#6D84FC"/>
<stop offset="0.46" stop-color="#8C9DF8"/>
<stop offset="0.84" stop-color="#BDC5F1"/>
<stop offset="0.98" stop-color="#D0D4EF"/>
</linearGradient>
<linearGradient id="paint13_linear_29_2517" x1="60439.1" y1="16016.9" x2="62163.4" y2="16016.9" gradientUnits="userSpaceOnUse">
<stop stop-color="#627BFD"/>
<stop offset="0.16" stop-color="#6D84FC"/>
<stop offset="0.46" stop-color="#8C9DF8"/>
<stop offset="0.84" stop-color="#BDC5F1"/>
<stop offset="0.98" stop-color="#D0D4EF"/>
</linearGradient>
<linearGradient id="paint14_linear_29_2517" x1="60467.9" y1="16002.2" x2="62193" y2="16002.2" gradientUnits="userSpaceOnUse">
<stop stop-color="#627BFD"/>
<stop offset="0.16" stop-color="#6D84FC"/>
<stop offset="0.46" stop-color="#8C9DF8"/>
<stop offset="0.84" stop-color="#BDC5F1"/>
<stop offset="0.98" stop-color="#D0D4EF"/>
</linearGradient>
<linearGradient id="paint15_linear_29_2517" x1="31891.2" y1="12927.1" x2="32366.6" y2="12927.1" gradientUnits="userSpaceOnUse">
<stop stop-color="#627BFD"/>
<stop offset="0.16" stop-color="#6D84FC"/>
<stop offset="0.46" stop-color="#8C9DF8"/>
<stop offset="0.84" stop-color="#BDC5F1"/>
<stop offset="0.98" stop-color="#D0D4EF"/>
</linearGradient>
<linearGradient id="paint16_linear_29_2517" x1="73347.8" y1="16503" x2="75766.6" y2="16503" gradientUnits="userSpaceOnUse">
<stop stop-color="#627BFD" stop-opacity="0"/>
<stop offset="0.05" stop-color="#627BFD" stop-opacity="0.05"/>
<stop offset="0.52" stop-color="#627BFD" stop-opacity="0.53"/>
<stop offset="0.85" stop-color="#627BFD" stop-opacity="0.84"/>
<stop offset="1" stop-color="#627BFD" stop-opacity="0.96"/>
</linearGradient>
<linearGradient id="paint17_linear_29_2517" x1="22884.1" y1="9718.47" x2="24447.7" y2="9718.47" gradientUnits="userSpaceOnUse">
<stop stop-color="#627BFD"/>
<stop offset="0.16" stop-color="#6D84FC"/>
<stop offset="0.46" stop-color="#8C9DF8"/>
<stop offset="0.84" stop-color="#BDC5F1"/>
<stop offset="0.98" stop-color="#D0D4EF"/>
</linearGradient>
<linearGradient id="paint18_linear_29_2517" x1="62525.1" y1="15366.5" x2="64249.4" y2="15366.5" gradientUnits="userSpaceOnUse">
<stop stop-color="#627BFD"/>
<stop offset="0.16" stop-color="#6D84FC"/>
<stop offset="0.46" stop-color="#8C9DF8"/>
<stop offset="0.84" stop-color="#BDC5F1"/>
<stop offset="0.98" stop-color="#D0D4EF"/>
</linearGradient>
<linearGradient id="paint19_linear_29_2517" x1="62554.7" y1="15380.5" x2="64279.8" y2="15380.5" gradientUnits="userSpaceOnUse">
<stop stop-color="#627BFD"/>
<stop offset="0.16" stop-color="#6D84FC"/>
<stop offset="0.46" stop-color="#8C9DF8"/>
<stop offset="0.84" stop-color="#BDC5F1"/>
<stop offset="0.98" stop-color="#D0D4EF"/>
</linearGradient>
<linearGradient id="paint20_linear_29_2517" x1="32998.3" y1="12430.8" x2="33473.7" y2="12430.8" gradientUnits="userSpaceOnUse">
<stop stop-color="#627BFD"/>
<stop offset="0.16" stop-color="#6D84FC"/>
<stop offset="0.46" stop-color="#8C9DF8"/>
<stop offset="0.84" stop-color="#BDC5F1"/>
<stop offset="0.98" stop-color="#D0D4EF"/>
</linearGradient>
<linearGradient id="paint21_linear_29_2517" x1="68417.4" y1="16524" x2="70836.3" y2="16524" gradientUnits="userSpaceOnUse">
<stop stop-color="#627BFD" stop-opacity="0"/>
<stop offset="0.05" stop-color="#627BFD" stop-opacity="0.05"/>
<stop offset="0.52" stop-color="#627BFD" stop-opacity="0.53"/>
<stop offset="0.85" stop-color="#627BFD" stop-opacity="0.84"/>
<stop offset="1" stop-color="#627BFD" stop-opacity="0.96"/>
</linearGradient>
<linearGradient id="paint22_linear_29_2517" x1="18909.3" y1="9739.43" x2="20472.8" y2="9739.43" gradientUnits="userSpaceOnUse">
<stop stop-color="#627BFD"/>
<stop offset="0.16" stop-color="#6D84FC"/>
<stop offset="0.46" stop-color="#8C9DF8"/>
<stop offset="0.84" stop-color="#BDC5F1"/>
<stop offset="0.98" stop-color="#D0D4EF"/>
</linearGradient>
<linearGradient id="paint23_linear_29_2517" x1="58353.4" y1="15386.2" x2="60077.6" y2="15386.2" gradientUnits="userSpaceOnUse">
<stop stop-color="#627BFD"/>
<stop offset="0.16" stop-color="#6D84FC"/>
<stop offset="0.46" stop-color="#8C9DF8"/>
<stop offset="0.84" stop-color="#BDC5F1"/>
<stop offset="0.98" stop-color="#D0D4EF"/>
</linearGradient>
<linearGradient id="paint24_linear_29_2517" x1="58381.1" y1="15372.1" x2="60106.2" y2="15372.1" gradientUnits="userSpaceOnUse">
<stop stop-color="#627BFD"/>
<stop offset="0.16" stop-color="#6D84FC"/>
<stop offset="0.46" stop-color="#8C9DF8"/>
<stop offset="0.84" stop-color="#BDC5F1"/>
<stop offset="0.98" stop-color="#D0D4EF"/>
</linearGradient>
<linearGradient id="paint25_linear_29_2517" x1="30784.2" y1="12418.5" x2="31259.6" y2="12418.5" gradientUnits="userSpaceOnUse">
<stop stop-color="#627BFD"/>
<stop offset="0.16" stop-color="#6D84FC"/>
<stop offset="0.46" stop-color="#8C9DF8"/>
<stop offset="0.84" stop-color="#BDC5F1"/>
<stop offset="0.98" stop-color="#D0D4EF"/>
</linearGradient>
<linearGradient id="paint26_linear_29_2517" x1="70882.6" y1="15825.3" x2="73301.5" y2="15825.3" gradientUnits="userSpaceOnUse">
<stop stop-color="#627BFD" stop-opacity="0"/>
<stop offset="0.05" stop-color="#627BFD" stop-opacity="0.05"/>
<stop offset="0.52" stop-color="#627BFD" stop-opacity="0.53"/>
<stop offset="0.85" stop-color="#627BFD" stop-opacity="0.84"/>
<stop offset="1" stop-color="#627BFD" stop-opacity="0.96"/>
</linearGradient>
<linearGradient id="paint27_linear_29_2517" x1="20896.6" y1="9042.23" x2="22460.2" y2="9042.23" gradientUnits="userSpaceOnUse">
<stop stop-color="#627BFD"/>
<stop offset="0.16" stop-color="#6D84FC"/>
<stop offset="0.46" stop-color="#8C9DF8"/>
<stop offset="0.84" stop-color="#BDC5F1"/>
<stop offset="0.98" stop-color="#D0D4EF"/>
</linearGradient>
<linearGradient id="paint28_linear_29_2517" x1="60439.1" y1="14735.8" x2="62163.4" y2="14735.8" gradientUnits="userSpaceOnUse">
<stop stop-color="#627BFD"/>
<stop offset="0.16" stop-color="#6D84FC"/>
<stop offset="0.46" stop-color="#8C9DF8"/>
<stop offset="0.84" stop-color="#BDC5F1"/>
<stop offset="0.98" stop-color="#D0D4EF"/>
</linearGradient>
<linearGradient id="paint29_linear_29_2517" x1="60467.9" y1="14722.4" x2="62193" y2="14722.4" gradientUnits="userSpaceOnUse">
<stop stop-color="#627BFD"/>
<stop offset="0.16" stop-color="#6D84FC"/>
<stop offset="0.46" stop-color="#8C9DF8"/>
<stop offset="0.84" stop-color="#BDC5F1"/>
<stop offset="0.98" stop-color="#D0D4EF"/>
</linearGradient>
<linearGradient id="paint30_linear_29_2517" x1="31891.2" y1="11894.1" x2="32366.6" y2="11894.1" gradientUnits="userSpaceOnUse">
<stop stop-color="#627BFD"/>
<stop offset="0.16" stop-color="#6D84FC"/>
<stop offset="0.46" stop-color="#8C9DF8"/>
<stop offset="0.84" stop-color="#BDC5F1"/>
<stop offset="0.98" stop-color="#D0D4EF"/>
</linearGradient>
<linearGradient id="paint31_linear_29_2517" x1="65896.6" y1="15889.8" x2="68315.9" y2="15889.8" gradientUnits="userSpaceOnUse">
<stop stop-color="#627BFD" stop-opacity="0"/>
<stop offset="0.05" stop-color="#627BFD" stop-opacity="0.05"/>
<stop offset="0.52" stop-color="#627BFD" stop-opacity="0.53"/>
<stop offset="0.85" stop-color="#627BFD" stop-opacity="0.84"/>
<stop offset="1" stop-color="#627BFD" stop-opacity="0.96"/>
</linearGradient>
<linearGradient id="paint32_linear_29_2517" x1="16868.2" y1="9106.74" x2="18431.7" y2="9106.74" gradientUnits="userSpaceOnUse">
<stop stop-color="#627BFD"/>
<stop offset="0.16" stop-color="#6D84FC"/>
<stop offset="0.46" stop-color="#8C9DF8"/>
<stop offset="0.84" stop-color="#BDC5F1"/>
<stop offset="0.98" stop-color="#D0D4EF"/>
</linearGradient>
<linearGradient id="paint33_linear_29_2517" x1="56204.5" y1="14796" x2="57928.4" y2="14796" gradientUnits="userSpaceOnUse">
<stop stop-color="#627BFD"/>
<stop offset="0.16" stop-color="#6D84FC"/>
<stop offset="0.46" stop-color="#8C9DF8"/>
<stop offset="0.84" stop-color="#BDC5F1"/>
<stop offset="0.98" stop-color="#D0D4EF"/>
</linearGradient>
<linearGradient id="paint34_linear_29_2517" x1="56237.8" y1="14782.4" x2="57962.9" y2="14782.4" gradientUnits="userSpaceOnUse">
<stop stop-color="#627BFD"/>
<stop offset="0.16" stop-color="#6D84FC"/>
<stop offset="0.46" stop-color="#8C9DF8"/>
<stop offset="0.84" stop-color="#BDC5F1"/>
<stop offset="0.98" stop-color="#D0D4EF"/>
</linearGradient>
<linearGradient id="paint35_linear_29_2517" x1="29647.5" y1="11942.5" x2="30122.9" y2="11942.5" gradientUnits="userSpaceOnUse">
<stop stop-color="#627BFD"/>
<stop offset="0.16" stop-color="#6D84FC"/>
<stop offset="0.46" stop-color="#8C9DF8"/>
<stop offset="0.84" stop-color="#BDC5F1"/>
<stop offset="0.98" stop-color="#D0D4EF"/>
</linearGradient>
<linearGradient id="paint36_linear_29_2517" x1="68362.4" y1="15191.1" x2="70781.7" y2="15191.1" gradientUnits="userSpaceOnUse">
<stop stop-color="#627BFD" stop-opacity="0"/>
<stop offset="0.05" stop-color="#627BFD" stop-opacity="0.05"/>
<stop offset="0.52" stop-color="#627BFD" stop-opacity="0.53"/>
<stop offset="0.85" stop-color="#627BFD" stop-opacity="0.84"/>
<stop offset="1" stop-color="#627BFD" stop-opacity="0.96"/>
</linearGradient>
<linearGradient id="paint37_linear_29_2517" x1="18855.6" y1="8409.67" x2="20419.2" y2="8409.67" gradientUnits="userSpaceOnUse">
<stop stop-color="#627BFD"/>
<stop offset="0.16" stop-color="#6D84FC"/>
<stop offset="0.46" stop-color="#8C9DF8"/>
<stop offset="0.84" stop-color="#BDC5F1"/>
<stop offset="0.98" stop-color="#D0D4EF"/>
</linearGradient>
<linearGradient id="paint38_linear_29_2517" x1="58296.9" y1="14145.7" x2="60021.1" y2="14145.7" gradientUnits="userSpaceOnUse">
<stop stop-color="#627BFD"/>
<stop offset="0.16" stop-color="#6D84FC"/>
<stop offset="0.46" stop-color="#8C9DF8"/>
<stop offset="0.84" stop-color="#BDC5F1"/>
<stop offset="0.98" stop-color="#D0D4EF"/>
</linearGradient>
<linearGradient id="paint39_linear_29_2517" x1="58324.7" y1="14132.8" x2="60049.8" y2="14132.8" gradientUnits="userSpaceOnUse">
<stop stop-color="#627BFD"/>
<stop offset="0.16" stop-color="#6D84FC"/>
<stop offset="0.46" stop-color="#8C9DF8"/>
<stop offset="0.84" stop-color="#BDC5F1"/>
<stop offset="0.98" stop-color="#D0D4EF"/>
</linearGradient>
<linearGradient id="paint40_linear_29_2517" x1="30754.5" y1="11418.2" x2="31229.9" y2="11418.2" gradientUnits="userSpaceOnUse">
<stop stop-color="#627BFD"/>
<stop offset="0.16" stop-color="#6D84FC"/>
<stop offset="0.46" stop-color="#8C9DF8"/>
<stop offset="0.84" stop-color="#BDC5F1"/>
<stop offset="0.98" stop-color="#D0D4EF"/>
</linearGradient>
<linearGradient id="paint41_linear_29_2517" x1="63224" y1="15204" x2="65642.9" y2="15204" gradientUnits="userSpaceOnUse">
<stop stop-color="#627BFD" stop-opacity="0"/>
<stop offset="0.05" stop-color="#627BFD" stop-opacity="0.05"/>
<stop offset="0.52" stop-color="#627BFD" stop-opacity="0.53"/>
<stop offset="0.85" stop-color="#627BFD" stop-opacity="0.84"/>
<stop offset="1" stop-color="#627BFD" stop-opacity="0.96"/>
</linearGradient>
<linearGradient id="paint42_linear_29_2517" x1="14721" y1="8419.35" x2="16284.4" y2="8419.35" gradientUnits="userSpaceOnUse">
<stop stop-color="#627BFD"/>
<stop offset="0.16" stop-color="#6D84FC"/>
<stop offset="0.46" stop-color="#8C9DF8"/>
<stop offset="0.84" stop-color="#BDC5F1"/>
<stop offset="0.98" stop-color="#D0D4EF"/>
</linearGradient>
<linearGradient id="paint43_linear_29_2517" x1="53957.2" y1="14154.6" x2="55681.5" y2="14154.6" gradientUnits="userSpaceOnUse">
<stop stop-color="#627BFD"/>
<stop offset="0.16" stop-color="#6D84FC"/>
<stop offset="0.46" stop-color="#8C9DF8"/>
<stop offset="0.84" stop-color="#BDC5F1"/>
<stop offset="0.98" stop-color="#D0D4EF"/>
</linearGradient>
<linearGradient id="paint44_linear_29_2517" x1="53982.8" y1="14141.7" x2="55707.9" y2="14141.7" gradientUnits="userSpaceOnUse">
<stop stop-color="#627BFD"/>
<stop offset="0.16" stop-color="#6D84FC"/>
<stop offset="0.46" stop-color="#8C9DF8"/>
<stop offset="0.84" stop-color="#BDC5F1"/>
<stop offset="0.98" stop-color="#D0D4EF"/>
</linearGradient>
<linearGradient id="paint45_linear_29_2517" x1="28451.5" y1="11425.4" x2="28926.9" y2="11425.4" gradientUnits="userSpaceOnUse">
<stop stop-color="#627BFD"/>
<stop offset="0.16" stop-color="#6D84FC"/>
<stop offset="0.46" stop-color="#8C9DF8"/>
<stop offset="0.84" stop-color="#BDC5F1"/>
<stop offset="0.98" stop-color="#D0D4EF"/>
</linearGradient>
<linearGradient id="paint46_linear_29_2517" x1="65725.1" y1="14501.9" x2="68145.4" y2="14501.9" gradientUnits="userSpaceOnUse">
<stop stop-color="#627BFD" stop-opacity="0"/>
<stop offset="0.05" stop-color="#627BFD" stop-opacity="0.05"/>
<stop offset="0.52" stop-color="#627BFD" stop-opacity="0.53"/>
<stop offset="0.85" stop-color="#627BFD" stop-opacity="0.84"/>
<stop offset="1" stop-color="#627BFD" stop-opacity="0.96"/>
</linearGradient>
<linearGradient id="paint47_linear_29_2517" x1="16708.2" y1="7722.17" x2="18271.8" y2="7722.17" gradientUnits="userSpaceOnUse">
<stop stop-color="#627BFD"/>
<stop offset="0.16" stop-color="#6D84FC"/>
<stop offset="0.46" stop-color="#8C9DF8"/>
<stop offset="0.84" stop-color="#BDC5F1"/>
<stop offset="0.98" stop-color="#D0D4EF"/>
</linearGradient>
<linearGradient id="paint48_linear_29_2517" x1="56043.1" y1="13504.2" x2="57767.4" y2="13504.2" gradientUnits="userSpaceOnUse">
<stop stop-color="#627BFD"/>
<stop offset="0.16" stop-color="#6D84FC"/>
<stop offset="0.46" stop-color="#8C9DF8"/>
<stop offset="0.84" stop-color="#BDC5F1"/>
<stop offset="0.98" stop-color="#D0D4EF"/>
</linearGradient>
<linearGradient id="paint49_linear_29_2517" x1="56069.8" y1="13492" x2="57794.9" y2="13492" gradientUnits="userSpaceOnUse">
<stop stop-color="#627BFD"/>
<stop offset="0.16" stop-color="#6D84FC"/>
<stop offset="0.46" stop-color="#8C9DF8"/>
<stop offset="0.84" stop-color="#BDC5F1"/>
<stop offset="0.98" stop-color="#D0D4EF"/>
</linearGradient>
<linearGradient id="paint50_linear_29_2517" x1="29558.4" y1="10900.9" x2="30033.8" y2="10900.9" gradientUnits="userSpaceOnUse">
<stop stop-color="#627BFD"/>
<stop offset="0.16" stop-color="#6D84FC"/>
<stop offset="0.46" stop-color="#8C9DF8"/>
<stop offset="0.84" stop-color="#BDC5F1"/>
<stop offset="0.98" stop-color="#D0D4EF"/>
</linearGradient>
<linearGradient id="paint51_linear_29_2517" x1="157.958" y1="184.088" x2="113.119" y2="184.088" gradientUnits="userSpaceOnUse">
<stop stop-color="#627BFD" stop-opacity="0.96"/>
<stop offset="0.1" stop-color="#627BFD" stop-opacity="0.94"/>
<stop offset="0.23" stop-color="#627BFD" stop-opacity="0.87"/>
<stop offset="0.37" stop-color="#627BFD" stop-opacity="0.77"/>
<stop offset="0.53" stop-color="#627BFD" stop-opacity="0.62"/>
<stop offset="0.69" stop-color="#627BFD" stop-opacity="0.43"/>
<stop offset="0.86" stop-color="#627BFD" stop-opacity="0.2"/>
<stop offset="1" stop-color="#627BFD" stop-opacity="0"/>
</linearGradient>
<linearGradient id="paint52_linear_29_2517" x1="140.472" y1="172.269" x2="133.101" y2="185.52" gradientUnits="userSpaceOnUse">
<stop stop-color="white"/>
<stop offset="0.21" stop-color="#EEF0F9"/>
<stop offset="0.73" stop-color="#C8CEED"/>
<stop offset="0.84" stop-color="#DBE0F4"/>
<stop offset="1" stop-color="#F2F7FC"/>
</linearGradient>
<linearGradient id="paint53_linear_29_2517" x1="33722.3" y1="16392.7" x2="34079" y2="17546.2" gradientUnits="userSpaceOnUse">
<stop stop-color="white"/>
<stop offset="0.21" stop-color="#EEF0F9"/>
<stop offset="0.73" stop-color="#C8CEED"/>
<stop offset="0.84" stop-color="#DBE0F4"/>
<stop offset="1" stop-color="#F2F7FC"/>
</linearGradient>
<clipPath id="clip0_29_2517">
<rect width="318.894" height="248" fill="white"/>
</clipPath>
</defs>
</svg>
