<svg width="187" height="147" viewBox="0 0 187 147" fill="none" xmlns="http://www.w3.org/2000/svg">
<g clip-path="url(#clip0_29_2731)">
<path d="M18.7324 85.9332L100.223 39.0625L160.874 74.0801L145.753 83.0355L185.897 106.137" stroke="url(#paint0_linear_29_2731)" stroke-width="10" stroke-linecap="round" stroke-linejoin="round"/>
<path style="mix-blend-mode:multiply" opacity="0.75" d="M67.5288 147.001L41.6424 138.976L41.5684 124.836L82.2764 138.487L67.5288 147.001Z" fill="url(#paint1_linear_29_2731)"/>
<path style="mix-blend-mode:multiply" opacity="0.6" d="M63.7662 128.361L0.091035 108.248L0 90.8789L81.8822 117.901L63.7662 128.361Z" fill="url(#paint2_linear_29_2731)"/>
<path style="mix-blend-mode:multiply" opacity="0.6" d="M87.3111 114.921L23.636 94.8086L23.5449 77.4395L105.426 104.463L87.3111 114.921Z" fill="url(#paint3_linear_29_2731)"/>
<path style="mix-blend-mode:multiply" opacity="0.6" d="M110.442 101.033L46.7684 80.92L46.6758 63.5508L128.558 90.5728L110.442 101.033Z" fill="url(#paint4_linear_29_2731)"/>
<path d="M129.347 90.5193L111.123 101.769V21.7924L129.347 11.291V90.5193Z" fill="#DCE6F4"/>
<path d="M92.8984 91.246L111.122 101.769V21.7924L92.8984 11.291V91.246Z" fill="url(#paint5_linear_29_2731)"/>
<path d="M129.346 11.2905L111.122 0.789062L92.8984 11.2905L111.122 21.7919L129.346 11.2905Z" fill="#F3F7FF"/>
<path d="M129.346 11.2905L111.122 0.789062L92.8984 11.2905L111.122 21.7919L129.346 11.2905Z" fill="#F3F7FF"/>
<path opacity="0.6" d="M92.8984 14.7422L111.122 25.7528L129.346 15.3239" stroke="#7D83AF" stroke-width="0.75" stroke-miterlimit="10"/>
<path d="M129.475 10.5014L111.251 0L93.0273 10.5014L111.251 21.0029L129.475 10.5014Z" fill="#8FA4F7"/>
<path d="M111.252 21.0034V23.8856L129.476 13.4104V10.502L111.252 21.0034Z" fill="#8FA4F7"/>
<g style="mix-blend-mode:multiply">
<path d="M111.252 21.0034V23.8856L129.476 13.4104V10.502L111.252 21.0034Z" fill="#DCE6F4"/>
</g>
<path d="M111.251 21.0034V23.8856L93.0273 13.4104V10.502L111.251 21.0034Z" fill="#8FA4F7"/>
<path style="mix-blend-mode:multiply" d="M111.251 21.0034V23.8856L93.0273 13.4104V10.502L111.251 21.0034Z" fill="url(#paint6_linear_29_2731)"/>
<path d="M111.306 33.2851V38.4448L98.0117 30.7685V25.6582L111.306 33.2851ZM98.0117 38.292L111.306 45.9714V40.8086L98.0117 33.1817V38.292ZM98.0117 45.8402L111.306 53.5165V48.3568L98.0117 40.7253V45.8402Z" fill="url(#paint7_linear_29_2731)"/>
<g style="mix-blend-mode:multiply" opacity="0.42">
<g style="mix-blend-mode:multiply" opacity="0.42">
<path d="M98.0117 41.3199L111.306 48.9483V48.3589L98.0117 40.7305V41.3199Z" fill="#4D4F80"/>
</g>
<g style="mix-blend-mode:multiply" opacity="0.42">
<path d="M98.0117 25.6582V26.2476L111.306 33.876V33.2866L98.0117 25.6582Z" fill="#4D4F80"/>
</g>
<g style="mix-blend-mode:multiply" opacity="0.42">
<path d="M98.0117 33.7712L111.306 41.3996V40.8102L98.0117 33.1818V33.7712Z" fill="#4D4F80"/>
</g>
</g>
<path d="M111.279 53.5477V48.439L124.574 40.7627V45.9208L111.279 53.5477ZM124.574 38.3958V33.2376L111.279 40.9139V46.0242L124.574 38.3958ZM124.574 30.8491V25.6895L111.279 33.3657V38.476L124.574 30.8491Z" fill="url(#paint8_linear_29_2731)"/>
<path d="M98.0117 25.6582V30.7701L111.28 38.4772" stroke="white" stroke-width="1.74" stroke-miterlimit="10"/>
<path d="M98.0117 33.166V38.2763L111.28 45.985" stroke="white" stroke-width="1.74" stroke-miterlimit="10"/>
<path d="M98.0117 40.7461V45.8564L111.28 53.5651" stroke="white" stroke-width="1.74" stroke-miterlimit="10"/>
<path d="M124.6 25.6582V30.7701L111.332 38.4772" stroke="white" stroke-width="1.74" stroke-miterlimit="10"/>
<path d="M124.6 33.166V38.2763L111.332 45.985" stroke="white" stroke-width="1.74" stroke-miterlimit="10"/>
<path d="M124.6 40.7461V45.8564L111.332 53.5651" stroke="white" stroke-width="1.74" stroke-miterlimit="10"/>
<path style="mix-blend-mode:multiply" opacity="0.5" d="M117.649 124.451L101.665 121.056C101.665 121.056 93.2683 119.131 88.4188 117.329C83.5692 115.526 71.4785 109.498 71.4785 109.498C71.4785 109.498 81.0295 104.835 81.3535 105.048C81.6775 105.261 91.3828 108.046 95.7139 110.211C100.045 112.376 121.909 120.845 121.909 120.845L117.649 124.451Z" fill="url(#paint9_linear_29_2731)"/>
<path d="M105.608 104.498L87.3828 115.019V53.4194L105.608 42.918V104.498Z" fill="#DCE6F4"/>
<path style="mix-blend-mode:multiply" opacity="0.6" d="M108.867 120.132L100.904 63.3273C100.888 63.2295 100.834 63.1419 100.754 63.0833C100.674 63.0247 100.574 62.9996 100.476 63.0135C100.378 63.0274 100.289 63.0792 100.229 63.1577C100.168 63.2362 100.141 63.3353 100.152 63.4337L101.523 73.2038L92.6753 77.0319L91.3097 67.2865C91.3044 67.2359 91.2889 67.1868 91.2642 67.1423C91.2395 67.0978 91.2062 67.0587 91.1661 67.0273C91.126 66.996 91.0799 66.973 91.0308 66.9598C90.9816 66.9466 90.9302 66.9434 90.8798 66.9505C90.8293 66.9575 90.7809 66.9746 90.7372 67.0008C90.6936 67.027 90.6556 67.0617 90.6256 67.1028C90.5956 67.1439 90.5741 67.1907 90.5626 67.2403C90.551 67.2899 90.5496 67.3413 90.5584 67.3914L98.5216 124.199C98.5333 124.282 98.5722 124.359 98.6322 124.417C98.6922 124.476 98.77 124.513 98.8533 124.523C98.8851 124.527 98.9172 124.527 98.949 124.523C99.0486 124.509 99.1387 124.456 99.1994 124.376C99.2602 124.296 99.2867 124.195 99.273 124.095L97.8427 113.898L106.69 110.071L108.116 120.241C108.127 120.324 108.166 120.401 108.226 120.46C108.286 120.519 108.364 120.556 108.448 120.565C108.479 120.57 108.511 120.57 108.543 120.565C108.593 120.558 108.641 120.542 108.685 120.516C108.728 120.491 108.766 120.457 108.796 120.416C108.826 120.376 108.848 120.33 108.86 120.281C108.872 120.232 108.875 120.181 108.867 120.132ZM104.11 91.6577L105.283 100.033L96.437 103.859L95.269 95.4843L104.11 91.6577ZM95.1533 94.705L94.0454 86.7989L102.893 82.9723L104.001 90.8785L95.1533 94.705ZM101.634 73.983L102.785 82.1931L93.9375 86.0212L92.7864 77.8096L101.634 73.983ZM97.7378 113.114L96.5496 104.639L105.397 100.812L106.585 109.288L97.7378 113.114Z" fill="url(#paint10_linear_29_2731)"/>
<path style="mix-blend-mode:multiply" opacity="0.2" d="M95.7102 110.212L87.3828 93.2559V115.018L95.7102 110.212Z" fill="url(#paint11_linear_29_2731)"/>
<path d="M69.1582 104.498L87.3822 115.019V53.4194L69.1582 42.918V104.498Z" fill="url(#paint12_linear_29_2731)"/>
<path d="M105.608 42.9174L87.3822 32.416L69.1582 42.9174L87.3822 53.4189L105.608 42.9174Z" fill="#F3F7FF"/>
<path d="M105.608 42.9174L87.3822 32.416L69.1582 42.9174L87.3822 53.4189L105.608 42.9174Z" fill="#F3F7FF"/>
<path opacity="0.6" d="M69.1582 46.3672L87.3822 57.3778L105.608 46.9489" stroke="#7D83AF" stroke-width="0.75" stroke-miterlimit="10"/>
<path d="M82.0829 118.158L63.8574 128.681V90.7475L82.0829 80.2461V118.158Z" fill="#DCE6F4"/>
<path d="M45.6328 118.158L63.8568 128.681V90.7475L45.6328 80.2461V118.158Z" fill="url(#paint13_linear_29_2731)"/>
<path d="M82.0823 80.2475L63.8568 69.7461L45.6328 80.2475L63.8568 90.749L82.0823 80.2475Z" fill="#F3F7FF"/>
<path d="M82.0823 80.2475L63.8568 69.7461L45.6328 80.2475L63.8568 90.749L82.0823 80.2475Z" fill="#F3F7FF"/>
<path opacity="0.6" d="M45.6328 86.5938L63.8568 97.6044L82.0823 87.1755" stroke="#7D83AF" stroke-width="0.75" stroke-miterlimit="10"/>
<path d="M82.3803 138.41L67.7129 146.878V129.898L82.3803 121.445V138.41Z" fill="#F9923E"/>
<path d="M53.0449 138.41L67.7124 146.878V129.898L53.0449 121.445V138.41Z" fill="#FF7F0B"/>
<path d="M82.3798 121.445L67.7124 112.994L53.0449 121.445L67.7124 129.897L82.3798 121.445Z" fill="#F3F7FF"/>
<path d="M82.3798 121.445L67.7124 112.994L53.0449 121.445L67.7124 129.897L82.3798 121.445Z" fill="#FFA766"/>
<path d="M53.0449 124.223L67.7124 133.084L82.3798 124.69" stroke="white" stroke-miterlimit="10"/>
<path d="M91 67.1152L105.447 122.625" stroke="#7D83AF" stroke-width="4" stroke-linecap="round" stroke-linejoin="round"/>
<path d="M100.076 62.0781L114.521 117.589" stroke="#7D83AF" stroke-width="4" stroke-linecap="round" stroke-linejoin="round"/>
<path d="M82.2776 80.3784L64.0536 69.877L45.8281 80.3784L64.0536 90.8798L82.2776 80.3784Z" fill="#8FA4F7"/>
<path d="M64.0527 90.8803V93.7626L82.2767 83.2874V80.3789L64.0527 90.8803Z" fill="#8FA4F7"/>
<g style="mix-blend-mode:multiply">
<path d="M64.0527 90.8803V93.7626L82.2767 83.2874V80.3789L64.0527 90.8803Z" fill="#DCE6F4"/>
</g>
<path d="M64.0537 90.8803V93.7626L45.8281 83.2874V80.3789L64.0537 90.8803Z" fill="#8FA4F7"/>
<path style="mix-blend-mode:multiply" d="M64.0537 90.8803V93.7626L45.8281 83.2874V80.3789L64.0537 90.8803Z" fill="url(#paint14_linear_29_2731)"/>
<path d="M93.4453 77.2117L102.473 71.998" stroke="#7D83AF" stroke-width="4" stroke-miterlimit="10"/>
<path d="M102.783 112.38L111.813 107.166" stroke="#7D83AF" stroke-width="4" stroke-miterlimit="10"/>
<path d="M97.959 94.4719L106.987 89.2598" stroke="#7D83AF" stroke-width="4" stroke-miterlimit="10"/>
<path d="M95.7109 86.009L104.739 80.7969" stroke="#7D83AF" stroke-width="4" stroke-miterlimit="10"/>
<path d="M100.188 103.475L109.217 98.2617" stroke="#7D83AF" stroke-width="4" stroke-miterlimit="10"/>
<path d="M69.0764 102.622L66.3516 104.063V99.2399L69.0764 97.6738V102.622Z" fill="#4D4F80"/>
<path opacity="0.42" d="M66.3516 104.063V103.483L68.6352 102.281V97.9315L69.0764 97.6738V102.622L66.3516 104.063Z" fill="#C4C7E8"/>
<path style="mix-blend-mode:multiply" opacity="0.5" d="M87.5288 49.3386L69.1582 42.9168L81.5853 35.7559L87.5025 37.7432L87.5288 49.3386Z" fill="url(#paint15_linear_29_2731)"/>
<g style="mix-blend-mode:multiply">
<path d="M77.5059 42.3398L87.529 36.5645L97.5536 42.3398L87.529 48.1274L77.5059 42.3398Z" fill="#4D4F80"/>
</g>
<path d="M79.6211 42.2851L87.5041 37.7441L95.3856 42.2851L87.5041 46.8368L79.6211 42.2851Z" fill="#627BFD"/>
<path opacity="0.5" d="M79.4121 44.8938V8.02148H95.3849V44.8938L87.0992 46.8873L79.4121 44.8938Z" fill="url(#paint16_linear_29_2731)"/>
<path d="M82.3574 30.0058C82.5969 30.0058 82.791 29.8117 82.791 29.5722C82.791 29.3328 82.5969 29.1387 82.3574 29.1387C82.1179 29.1387 81.9238 29.3328 81.9238 29.5722C81.9238 29.8117 82.1179 30.0058 82.3574 30.0058Z" fill="#627BFD"/>
<path d="M82.3582 28.4841C82.6974 28.4841 82.9723 28.2091 82.9723 27.87C82.9723 27.5308 82.6974 27.2559 82.3582 27.2559C82.0191 27.2559 81.7441 27.5308 81.7441 27.87C81.7441 28.2091 82.0191 28.4841 82.3582 28.4841Z" fill="#627BFD"/>
<path d="M82.3569 31.2861C82.5324 31.2861 82.6748 31.1438 82.6748 30.9682C82.6748 30.7927 82.5324 30.6504 82.3569 30.6504C82.1814 30.6504 82.0391 30.7927 82.0391 30.9682C82.0391 31.1438 82.1814 31.2861 82.3569 31.2861Z" fill="#627BFD"/>
<path d="M82.357 32.5343C82.4431 32.5343 82.5128 32.4646 82.5128 32.3785C82.5128 32.2924 82.4431 32.2227 82.357 32.2227C82.2709 32.2227 82.2012 32.2924 82.2012 32.3785C82.2012 32.4646 82.2709 32.5343 82.357 32.5343Z" fill="#627BFD"/>
<path d="M84.4213 18.0125C84.6335 18.0125 84.8055 17.8405 84.8055 17.6283C84.8055 17.4162 84.6335 17.2441 84.4213 17.2441C84.2091 17.2441 84.0371 17.4162 84.0371 17.6283C84.0371 17.8405 84.2091 18.0125 84.4213 18.0125Z" fill="#627BFD"/>
<path d="M84.422 16.6663C84.722 16.6663 84.9652 16.4232 84.9652 16.1232C84.9652 15.8232 84.722 15.5801 84.422 15.5801C84.1221 15.5801 83.8789 15.8232 83.8789 16.1232C83.8789 16.4232 84.1221 16.6663 84.422 16.6663Z" fill="#627BFD"/>
<path d="M84.4214 19.1437C84.5765 19.1437 84.7023 19.0179 84.7023 18.8629C84.7023 18.7078 84.5765 18.582 84.4214 18.582C84.2664 18.582 84.1406 18.7078 84.1406 18.8629C84.1406 19.0179 84.2664 19.1437 84.4214 19.1437Z" fill="#627BFD"/>
<path d="M84.4225 20.2434C84.4983 20.2434 84.5598 20.1819 84.5598 20.1061C84.5598 20.0302 84.4983 19.9688 84.4225 19.9688C84.3466 19.9688 84.2852 20.0302 84.2852 20.1061C84.2852 20.1819 84.3466 20.2434 84.4225 20.2434Z" fill="#627BFD"/>
<path d="M90.7475 30.6043C90.9597 30.6043 91.1317 30.4323 91.1317 30.2201C91.1317 30.0079 90.9597 29.8359 90.7475 29.8359C90.5353 29.8359 90.3633 30.0079 90.3633 30.2201C90.3633 30.4323 90.5353 30.6043 90.7475 30.6043Z" fill="white"/>
<path d="M90.7463 29.2601C91.0462 29.2601 91.2894 29.0169 91.2894 28.717C91.2894 28.417 91.0462 28.1738 90.7463 28.1738C90.4463 28.1738 90.2031 28.417 90.2031 28.717C90.2031 29.0169 90.4463 29.2601 90.7463 29.2601Z" fill="white"/>
<path d="M90.7457 31.7355C90.9008 31.7355 91.0265 31.6097 91.0265 31.4546C91.0265 31.2996 90.9008 31.1738 90.7457 31.1738C90.5906 31.1738 90.4648 31.2996 90.4648 31.4546C90.4648 31.6097 90.5906 31.7355 90.7457 31.7355Z" fill="white"/>
<path d="M90.7467 32.8372C90.8225 32.8372 90.884 32.7757 90.884 32.6998C90.884 32.624 90.8225 32.5625 90.7467 32.5625C90.6709 32.5625 90.6094 32.624 90.6094 32.6998C90.6094 32.7757 90.6709 32.8372 90.7467 32.8372Z" fill="white"/>
<path d="M89.0033 8.02426C89.2155 8.02426 89.3875 7.85224 89.3875 7.64006C89.3875 7.42787 89.2155 7.25586 89.0033 7.25586C88.7911 7.25586 88.6191 7.42787 88.6191 7.64006C88.6191 7.85224 88.7911 8.02426 89.0033 8.02426Z" fill="white"/>
<path d="M89.0021 6.67609C89.3021 6.67609 89.5452 6.43293 89.5452 6.13297C89.5452 5.83301 89.3021 5.58984 89.0021 5.58984C88.7022 5.58984 88.459 5.83301 88.459 6.13297C88.459 6.43293 88.7022 6.67609 89.0021 6.67609Z" fill="white"/>
<path d="M89.0035 9.15539C89.1586 9.15539 89.2843 9.02966 89.2843 8.87457C89.2843 8.71948 89.1586 8.59375 89.0035 8.59375C88.8484 8.59375 88.7227 8.71948 88.7227 8.87457C88.7227 9.02966 88.8484 9.15539 89.0035 9.15539Z" fill="white"/>
<path d="M89.0026 10.2551C89.0784 10.2551 89.1399 10.1936 89.1399 10.1178C89.1399 10.042 89.0784 9.98047 89.0026 9.98047C88.9267 9.98047 88.8652 10.042 88.8652 10.1178C88.8652 10.1936 88.9267 10.2551 89.0026 10.2551Z" fill="white"/>
<path d="M87.5293 48.1275V49.3387L97.5539 43.6035V42.3398L87.5293 48.1275Z" fill="#C4C7E8"/>
<path style="mix-blend-mode:multiply" d="M87.529 48.1275V49.3387L77.5059 43.6035V42.3398L87.529 48.1275Z" fill="url(#paint17_linear_29_2731)"/>
<path d="M104.757 107.166C104.672 107.306 104.125 107.592 103.504 107.732C102.884 107.873 99.8011 109.068 98.2227 110.027C98.2227 110.027 100.502 110.632 104.419 110.519C104.419 110.519 106.391 110.661 106.982 110.041L106.533 107.984L104.757 107.166Z" fill="#383C66"/>
<path d="M120.805 120.664C120.74 120.818 120.237 121.173 119.641 121.397C119.046 121.621 116.153 123.222 114.721 124.386C114.721 124.386 117.06 124.677 120.925 124.032C120.925 124.032 122.898 123.904 123.401 123.21L122.675 121.233L120.805 120.664Z" fill="#383C66"/>
<path d="M114.402 87.9043C114.402 87.9043 107.235 90.7557 106.732 92.3403C106.229 93.925 104.594 107.168 104.594 107.168C104.774 107.595 105.069 107.964 105.447 108.232C105.825 108.501 106.27 108.658 106.732 108.688L111.053 97.0294C111.053 97.0294 115.911 93.8617 116.916 94.0515L120.374 121.87C120.374 121.87 121.762 122.566 122.764 121.87C122.764 121.87 124.77 95.1917 124.586 95.1917C124.402 95.1917 114.402 87.9043 114.402 87.9043Z" fill="#8FA4F7"/>
<path d="M124.092 68.8936C124.092 68.8936 123.89 67.9493 124.295 67.4108C124.699 66.8723 126.418 65.3556 126.455 64.6813C126.492 64.007 124.364 60.1311 123.215 59.9289C122.065 59.7268 120.081 61.2096 119.575 61.816C119.069 62.4224 119.238 62.2542 119.238 62.2542L117.85 62.2202L118.558 63.467C118.558 63.467 118.249 64.8556 118.422 65.5577C118.595 66.2597 118.288 66.8044 118.826 67.2766C119.365 67.7487 120.738 68.8936 120.738 68.8936H124.092Z" fill="#FFA8A7"/>
<path d="M119.842 68.4102H124.344C124.344 68.4102 124.216 69.6322 124.795 70.6629C125.373 71.6936 127.368 72.8493 128.077 74.2657C128.785 75.6822 132.851 83.5127 133.168 84.7996C133.486 86.0864 132.416 88.9548 131.652 90.6551C130.959 92.1981 128.813 95.4522 128.813 95.4522L127.449 93.1239C127.449 93.1239 129.101 87.7574 129.036 86.9844C128.972 86.2114 127.449 83.4001 127.449 83.4001C127.449 83.4001 126.142 94.852 125.949 95.6883C125.756 96.5246 124.983 98.3915 124.983 98.3915C124.983 98.3915 121.57 97.0399 120.222 95.3673C118.873 93.6948 117.714 91.0563 116.555 90.5425C115.397 90.0287 112.953 88.0969 112.953 88.0969C112.953 88.0969 115.204 83.144 115.397 81.1535C115.59 79.1631 115.654 77.4859 115.654 77.4859C115.654 77.4859 110.765 78.4518 108.321 78.066C105.876 77.6803 100.214 75.0418 100.214 75.0418C100.214 75.0418 99.9562 73.4989 100.857 72.5962C100.857 72.5962 108.927 74.3984 111.326 73.4325C113.726 72.4666 117.585 70.4731 118.55 70.217C119.516 69.9608 120.606 70.4731 120.222 69.4455L119.842 68.4102Z" fill="#627BFD"/>
<path d="M131.429 85.1431C131.6 86.1709 132.165 87.0915 133.005 87.7091C133.545 86.8183 133.744 85.762 133.565 84.7358C133.471 84.2096 132.94 82.4506 132.218 82.5031C131.321 82.5679 131.34 84.5815 131.429 85.1431Z" fill="#4D4F80"/>
<path d="M108.19 76.3342C107.773 76.4065 107.365 76.526 106.976 76.6906C106.605 76.8449 106.204 77.0702 106.119 77.4621C106.459 77.8741 106.968 78.1009 107.466 78.2891C108.174 78.5786 108.92 78.7657 109.68 78.8446C110.362 78.8986 111.18 78.8446 111.816 78.57C112.587 78.2259 112.288 77.8201 111.748 77.3603C111.262 76.9456 110.693 76.6396 110.08 76.4626C109.466 76.2856 108.822 76.2419 108.19 76.3342Z" fill="#4D4F80"/>
<path d="M119.945 60.9732C119.945 60.9732 121.9 62.0533 123.012 62.2199C123.012 62.2199 123.046 62.76 122.574 63.6086C122.102 64.4572 121.63 65.7317 121.125 65.9339C120.621 66.136 120.147 65.866 119.945 65.3614C119.743 64.8569 119.743 63.9728 118.556 63.4728C117.37 62.9729 117.578 66.0959 117.848 66.6081C118.118 67.1204 121.312 67.3488 121.724 67.1466C122.136 66.9445 122.432 64.3878 122.836 64.0993C123.24 63.8107 124.217 63.6904 124.251 64.4079C124.285 65.1253 123.207 66.1314 122.768 65.7965C122.33 65.4617 124.251 67.8194 124.251 67.8194C124.251 67.8194 126.678 65.9323 127.351 64.8198C128.024 63.7074 124.893 59.8268 123.18 59.3562C121.468 58.8856 119.945 60.9732 119.945 60.9732Z" fill="#4D4F80"/>
<path d="M101.01 72.6847C100.304 72.2939 99.5862 71.9256 98.8579 71.58C98.7624 71.5267 98.6577 71.4916 98.5493 71.4766C98.4086 71.4752 98.2698 71.5103 98.1466 71.5784C97.011 72.1231 96.5034 73.7386 96.7086 74.973L97.7393 74.4746C97.7948 74.4468 97.6637 74.1444 97.6961 74.0919C97.7285 74.0395 97.7285 73.987 97.7547 73.9376C97.8118 73.8296 97.9553 73.8049 98.0788 73.7988C98.3582 73.7836 98.6384 73.7908 98.9166 73.8204C99.0063 73.8204 99.0934 73.8509 99.1635 73.9068C99.214 73.9659 99.2428 74.0405 99.2452 74.1182C99.2776 74.507 99.0338 74.8603 98.8024 75.1735C98.7503 75.2613 98.6728 75.3312 98.5802 75.3741C98.4919 75.3942 98.4002 75.3942 98.3118 75.3741C98.1075 75.3514 97.9007 75.372 97.705 75.4348C97.5093 75.4975 97.329 75.601 97.1761 75.7383C97.55 76.0161 98.0086 76.1557 98.4739 76.1335C98.9392 76.1113 99.3824 75.9285 99.7282 75.6164C100.082 75.28 100.324 74.7986 100.774 74.6134C100.812 74.0205 100.982 73.4436 101.273 72.9254C101.065 72.8047 100.874 72.6591 100.702 72.4919L100.481 72.8128" fill="#FFA8A7"/>
<path d="M125.82 98.9513L125.674 98.6628C126.004 98.3067 126.248 97.8797 126.388 97.4145C125.697 98.1134 124.897 98.6969 124.021 99.1426L123.027 98.3048L125.312 95.9826C125.439 95.853 125.573 95.654 125.467 95.5089C125.429 95.4711 125.384 95.4423 125.333 95.4247C125.283 95.407 125.23 95.401 125.177 95.4071C124.917 95.4107 124.662 95.4727 124.43 95.5887C124.198 95.7046 123.995 95.8715 123.836 96.0767C123.697 95.8252 123.871 95.5197 124.061 95.3053C124.486 94.823 125.013 94.4418 125.604 94.1897C126.294 93.8981 127.095 93.7654 127.61 93.2207C127.479 93.3596 128.443 94.4304 128.511 94.6094C128.609 94.8418 128.646 95.0953 128.619 95.346C128.592 95.5967 128.502 95.8364 128.357 96.0428C127.625 97.1058 126.774 98.0817 125.82 98.9513Z" fill="#FFA8A7"/>
</g>
<defs>
<linearGradient id="paint0_linear_29_2731" x1="17.9609" y1="72.5989" x2="186.669" y2="72.5989" gradientUnits="userSpaceOnUse">
<stop stop-color="#627BFD" stop-opacity="0"/>
<stop offset="0.02" stop-color="#627BFD" stop-opacity="0.05"/>
<stop offset="0.27" stop-color="#627BFD" stop-opacity="0.53"/>
<stop offset="0.43" stop-color="#627BFD" stop-opacity="0.84"/>
<stop offset="0.51" stop-color="#627BFD" stop-opacity="0.96"/>
<stop offset="0.99" stop-color="#627BFD" stop-opacity="0"/>
</linearGradient>
<linearGradient id="paint1_linear_29_2731" x1="41.5684" y1="135.918" x2="82.2764" y2="135.918" gradientUnits="userSpaceOnUse">
<stop stop-color="#627BFD" stop-opacity="0"/>
<stop offset="0.05" stop-color="#627BFD" stop-opacity="0.05"/>
<stop offset="0.52" stop-color="#627BFD" stop-opacity="0.53"/>
<stop offset="0.85" stop-color="#627BFD" stop-opacity="0.84"/>
<stop offset="1" stop-color="#627BFD" stop-opacity="0.96"/>
</linearGradient>
<linearGradient id="paint2_linear_29_2731" x1="0" y1="26719.8" x2="43453.2" y2="26719.8" gradientUnits="userSpaceOnUse">
<stop stop-color="#627BFD" stop-opacity="0"/>
<stop offset="0.05" stop-color="#627BFD" stop-opacity="0.05"/>
<stop offset="0.52" stop-color="#627BFD" stop-opacity="0.53"/>
<stop offset="0.85" stop-color="#627BFD" stop-opacity="0.84"/>
<stop offset="1" stop-color="#627BFD" stop-opacity="0.96"/>
</linearGradient>
<linearGradient id="paint3_linear_29_2731" x1="12517.7" y1="23441.7" x2="55969.3" y2="23441.7" gradientUnits="userSpaceOnUse">
<stop stop-color="#627BFD" stop-opacity="0"/>
<stop offset="0.05" stop-color="#627BFD" stop-opacity="0.05"/>
<stop offset="0.52" stop-color="#627BFD" stop-opacity="0.53"/>
<stop offset="0.85" stop-color="#627BFD" stop-opacity="0.84"/>
<stop offset="1" stop-color="#627BFD" stop-opacity="0.96"/>
</linearGradient>
<linearGradient id="paint4_linear_29_2731" x1="24817.7" y1="20054.1" x2="68270.1" y2="20054.1" gradientUnits="userSpaceOnUse">
<stop stop-color="#627BFD" stop-opacity="0"/>
<stop offset="0.05" stop-color="#627BFD" stop-opacity="0.05"/>
<stop offset="0.52" stop-color="#627BFD" stop-opacity="0.53"/>
<stop offset="0.85" stop-color="#627BFD" stop-opacity="0.84"/>
<stop offset="1" stop-color="#627BFD" stop-opacity="0.96"/>
</linearGradient>
<linearGradient id="paint5_linear_29_2731" x1="80.0702" y1="100.117" x2="124.788" y2="11.2756" gradientUnits="userSpaceOnUse">
<stop offset="0.02" stop-color="#D7DDF4"/>
<stop offset="0.18" stop-color="#CDD3ED"/>
<stop offset="0.7" stop-color="#AEB4DA"/>
<stop offset="1" stop-color="#A3A9D3"/>
</linearGradient>
<linearGradient id="paint6_linear_29_2731" x1="11080.5" y1="1501.85" x2="13232.9" y2="1501.85" gradientUnits="userSpaceOnUse">
<stop offset="0.02" stop-color="#D7DDF4"/>
<stop offset="0.18" stop-color="#CDD3ED"/>
<stop offset="0.7" stop-color="#AEB4DA"/>
<stop offset="1" stop-color="#A3A9D3"/>
</linearGradient>
<linearGradient id="paint7_linear_29_2731" x1="104.659" y1="53.5165" x2="104.659" y2="25.6582" gradientUnits="userSpaceOnUse">
<stop offset="0.12" stop-color="#FF7F0B" stop-opacity="0.4"/>
<stop offset="0.14" stop-color="#F67F1A" stop-opacity="0.4"/>
<stop offset="0.31" stop-color="#A67D94" stop-opacity="0.4"/>
<stop offset="0.44" stop-color="#757BE0" stop-opacity="0.4"/>
<stop offset="0.51" stop-color="#627BFD" stop-opacity="0.4"/>
<stop offset="0.54" stop-color="#627BFD" stop-opacity="0.45"/>
<stop offset="0.7" stop-color="#617BFE" stop-opacity="0.68"/>
<stop offset="0.83" stop-color="#607AFF" stop-opacity="0.85"/>
<stop offset="0.94" stop-color="#5F7AFF" stop-opacity="0.96"/>
<stop offset="1" stop-color="#5F7AFF"/>
</linearGradient>
<linearGradient id="paint8_linear_29_2731" x1="117.926" y1="53.5477" x2="117.926" y2="25.6895" gradientUnits="userSpaceOnUse">
<stop offset="0.01" stop-color="#627BFD" stop-opacity="0.4"/>
<stop offset="0.03" stop-color="#627AFB" stop-opacity="0.41"/>
<stop offset="0.64" stop-color="#535BA1" stop-opacity="0.84"/>
<stop offset="1" stop-color="#4D4F80"/>
</linearGradient>
<linearGradient id="paint9_linear_29_2731" x1="71.4785" y1="114.746" x2="121.903" y2="114.746" gradientUnits="userSpaceOnUse">
<stop stop-color="#627BFD" stop-opacity="0"/>
<stop offset="0.13" stop-color="#627BFD" stop-opacity="0.02"/>
<stop offset="0.26" stop-color="#627BFD" stop-opacity="0.06"/>
<stop offset="0.39" stop-color="#627BFD" stop-opacity="0.14"/>
<stop offset="0.51" stop-color="#627BFD" stop-opacity="0.25"/>
<stop offset="0.64" stop-color="#627BFD" stop-opacity="0.4"/>
<stop offset="0.77" stop-color="#627BFD" stop-opacity="0.57"/>
<stop offset="0.9" stop-color="#627BFD" stop-opacity="0.78"/>
<stop offset="1" stop-color="#627BFD" stop-opacity="0.96"/>
</linearGradient>
<linearGradient id="paint10_linear_29_2731" x1="116954" y1="99753.6" x2="115731" y2="75290.5" gradientUnits="userSpaceOnUse">
<stop stop-color="#627BFD" stop-opacity="0"/>
<stop offset="0.13" stop-color="#627BFD" stop-opacity="0.02"/>
<stop offset="0.26" stop-color="#627BFD" stop-opacity="0.06"/>
<stop offset="0.39" stop-color="#627BFD" stop-opacity="0.14"/>
<stop offset="0.51" stop-color="#627BFD" stop-opacity="0.25"/>
<stop offset="0.64" stop-color="#627BFD" stop-opacity="0.4"/>
<stop offset="0.77" stop-color="#627BFD" stop-opacity="0.57"/>
<stop offset="0.9" stop-color="#627BFD" stop-opacity="0.78"/>
<stop offset="1" stop-color="#627BFD" stop-opacity="0.96"/>
</linearGradient>
<linearGradient id="paint11_linear_29_2731" x1="5028.11" y1="16315.5" x2="5028.11" y2="13246.2" gradientUnits="userSpaceOnUse">
<stop stop-color="#627BFD" stop-opacity="0"/>
<stop offset="0.13" stop-color="#627BFD" stop-opacity="0.02"/>
<stop offset="0.26" stop-color="#627BFD" stop-opacity="0.06"/>
<stop offset="0.39" stop-color="#627BFD" stop-opacity="0.14"/>
<stop offset="0.51" stop-color="#627BFD" stop-opacity="0.25"/>
<stop offset="0.64" stop-color="#627BFD" stop-opacity="0.4"/>
<stop offset="0.77" stop-color="#627BFD" stop-opacity="0.57"/>
<stop offset="0.9" stop-color="#627BFD" stop-opacity="0.78"/>
<stop offset="1" stop-color="#627BFD" stop-opacity="0.96"/>
</linearGradient>
<linearGradient id="paint12_linear_29_2731" x1="7308.09" y1="52708.6" x2="23458.6" y2="44598.8" gradientUnits="userSpaceOnUse">
<stop offset="0.02" stop-color="#D7DDF4"/>
<stop offset="0.18" stop-color="#CDD3ED"/>
<stop offset="0.7" stop-color="#AEB4DA"/>
<stop offset="1" stop-color="#A3A9D3"/>
</linearGradient>
<linearGradient id="paint13_linear_29_2731" x1="5260.24" y1="39479.9" x2="13354.8" y2="33429.3" gradientUnits="userSpaceOnUse">
<stop offset="0.02" stop-color="#D7DDF4"/>
<stop offset="0.18" stop-color="#CDD3ED"/>
<stop offset="0.7" stop-color="#AEB4DA"/>
<stop offset="1" stop-color="#A3A9D3"/>
</linearGradient>
<linearGradient id="paint14_linear_29_2731" x1="5458.99" y1="7632.93" x2="7611.79" y2="7632.93" gradientUnits="userSpaceOnUse">
<stop offset="0.02" stop-color="#D7DDF4"/>
<stop offset="0.18" stop-color="#CDD3ED"/>
<stop offset="0.7" stop-color="#AEB4DA"/>
<stop offset="1" stop-color="#A3A9D3"/>
</linearGradient>
<linearGradient id="paint15_linear_29_2731" x1="8303.22" y1="3781.2" x2="10490.4" y2="3781.2" gradientUnits="userSpaceOnUse">
<stop stop-color="#627BFD" stop-opacity="0"/>
<stop offset="0.13" stop-color="#627BFD" stop-opacity="0.02"/>
<stop offset="0.26" stop-color="#627BFD" stop-opacity="0.06"/>
<stop offset="0.39" stop-color="#627BFD" stop-opacity="0.14"/>
<stop offset="0.51" stop-color="#627BFD" stop-opacity="0.25"/>
<stop offset="0.64" stop-color="#627BFD" stop-opacity="0.4"/>
<stop offset="0.77" stop-color="#627BFD" stop-opacity="0.57"/>
<stop offset="0.9" stop-color="#627BFD" stop-opacity="0.78"/>
<stop offset="1" stop-color="#627BFD" stop-opacity="0.96"/>
</linearGradient>
<linearGradient id="paint16_linear_29_2731" x1="87.3985" y1="46.8873" x2="87.3985" y2="8.02303" gradientUnits="userSpaceOnUse">
<stop stop-color="#627BFD"/>
<stop offset="0.04" stop-color="#627BFD" stop-opacity="0.95"/>
<stop offset="0.25" stop-color="#627BFD" stop-opacity="0.66"/>
<stop offset="0.44" stop-color="#627BFD" stop-opacity="0.43"/>
<stop offset="0.62" stop-color="#627BFD" stop-opacity="0.24"/>
<stop offset="0.78" stop-color="#627BFD" stop-opacity="0.11"/>
<stop offset="0.91" stop-color="#627BFD" stop-opacity="0.03"/>
<stop offset="1" stop-color="#627BFD" stop-opacity="0"/>
</linearGradient>
<linearGradient id="paint17_linear_29_2731" x1="77.5059" y1="45.8393" x2="87.529" y2="45.8393" gradientUnits="userSpaceOnUse">
<stop offset="0.02" stop-color="#D0D4EF"/>
<stop offset="0.38" stop-color="#AFB5D7"/>
<stop offset="0.78" stop-color="#9099C2"/>
<stop offset="1" stop-color="#858EBA"/>
</linearGradient>
<clipPath id="clip0_29_2731">
<rect width="186.67" height="147" fill="white"/>
</clipPath>
</defs>
</svg>
