<svg width="172" height="158" viewBox="0 0 172 158" fill="none" xmlns="http://www.w3.org/2000/svg">
<g clip-path="url(#clip0_1742_24389)">
<path d="M103.684 95.7814L57.1016 69.3085" stroke="#4A63CE" stroke-width="0.86785" stroke-linecap="round" stroke-linejoin="round"/>
<path d="M170.572 121.593L151.656 110.039" stroke="#4A63CE" stroke-width="0.86785" stroke-linecap="round" stroke-linejoin="round"/>
<path d="M79.9688 152.858L133.248 122.385" stroke="#4A63CE" stroke-width="0.86785" stroke-linecap="round" stroke-linejoin="round"/>
<path d="M67.1172 97.7811L126.763 63.6659" stroke="#4A63CE" stroke-width="0.86785" stroke-linecap="round" stroke-linejoin="round"/>
<path d="M17.0918 97.2044L8.71875 102.038V92.3427L17.0918 87.5175V97.2044Z" fill="#4A63CE" stroke="white" stroke-width="0.69428" stroke-linecap="round" stroke-linejoin="round"/>
<path d="M0.351562 97.2044L8.72631 102.038V92.3427L0.351562 87.5175V97.2044Z" fill="#4A63CE" stroke="white" stroke-width="0.69428" stroke-linecap="round" stroke-linejoin="round"/>
<path d="M17.0993 87.5165L8.72631 82.6913L0.351562 87.5165L8.72631 92.3418L17.0993 87.5165Z" fill="white" stroke="#4A63CE" stroke-width="0.34714" stroke-linecap="round" stroke-linejoin="round"/>
<path d="M17.0993 87.5165L8.72631 82.6913L0.351562 87.5165L8.72631 92.3418L17.0993 87.5165Z" fill="#4A63CE" stroke="white" stroke-width="0.69428" stroke-linecap="round" stroke-linejoin="round"/>
<path d="M162.359 112.398L153.984 117.232V107.536L162.359 102.711V112.398Z" fill="#4A63CE" stroke="white" stroke-width="0.69428" stroke-linecap="round" stroke-linejoin="round"/>
<path d="M145.609 112.398L153.984 117.232V107.536L145.609 102.711V112.398Z" fill="#4A63CE" stroke="white" stroke-width="0.69428" stroke-linecap="round" stroke-linejoin="round"/>
<path d="M162.359 102.71L153.984 97.8846L145.609 102.71L153.984 107.535L162.359 102.71Z" fill="white" stroke="#4A63CE" stroke-width="0.34714" stroke-linecap="round" stroke-linejoin="round"/>
<path d="M162.359 102.71L153.984 97.8846L145.609 102.71L153.984 107.535L162.359 102.71Z" fill="#4A63CE" stroke="white" stroke-width="0.69428" stroke-linecap="round" stroke-linejoin="round"/>
<path d="M14.1449 96.7561C14.7069 95.76 14.6791 94.68 14.083 94.3437C13.4869 94.0073 12.5481 94.5422 11.9862 95.5382C11.4243 96.5342 11.452 97.6143 12.0481 97.9506C12.6442 98.2869 13.583 97.7521 14.1449 96.7561Z" fill="white" stroke="#4A63CE" stroke-width="0.69428" stroke-linecap="round" stroke-linejoin="round"/>
<path d="M13.3359 96.701L20.7873 100.888C21.4976 101.286 22.2995 101.493 23.114 101.487C23.9285 101.481 24.7275 101.263 25.432 100.855L30.226 98.0775C30.9449 97.661 31.7616 97.4431 32.5924 97.4462C33.4232 97.4492 34.2383 97.6731 34.9541 98.0948L45.4759 104.291C46.2017 104.718 47.0291 104.942 47.8712 104.939C48.7133 104.935 49.5389 104.705 50.2612 104.272L64.4349 95.7811" stroke="#4A63CE" stroke-width="0.86785" stroke-linecap="round" stroke-linejoin="round"/>
<path d="M27.9465 80.4764L22.1493 83.6719C21.9293 83.791 21.7456 83.9673 21.6175 84.1823C21.4895 84.3972 21.4219 84.6427 21.4219 84.8929C21.4219 85.1431 21.4895 85.3887 21.6175 85.6036C21.7456 85.8185 21.9293 85.9949 22.1493 86.114L34.0215 92.5986C34.7268 92.9839 35.5194 93.1813 36.3231 93.1719C37.1268 93.1625 37.9146 92.9465 38.6107 92.5448L50.377 85.7512C51.0993 85.3345 51.9197 85.1179 52.7535 85.124C53.5874 85.1301 54.4046 85.3586 55.1207 85.786L61.272 89.4517" stroke="#FF7F0B" stroke-width="1.7357" stroke-linecap="round" stroke-linejoin="round"/>
<path d="M99.9609 102.573L113.017 94.8125C113.771 94.364 114.631 94.1251 115.508 94.1206C116.386 94.116 117.248 94.3459 118.007 94.7865L133.246 103.639C134.003 104.078 134.863 104.307 135.738 104.304C136.613 104.301 137.471 104.064 138.224 103.619L157.208 92.4103C157.523 92.2238 157.783 91.9575 157.962 91.6383C158.142 91.319 158.234 90.9582 158.229 90.5921C158.225 90.226 158.124 89.8676 157.936 89.553C157.749 89.2384 157.482 88.9787 157.163 88.8001L134.555 76.1971" stroke="#4A63CE" stroke-width="0.86785" stroke-linecap="round" stroke-linejoin="round"/>
<path d="M106.256 110.287L83.7578 123.276V92.9599L106.256 79.996V110.287Z" fill="white" stroke="#4A63CE" stroke-width="0.86785" stroke-linecap="round" stroke-linejoin="round"/>
<path d="M102.7 103.844L87.3203 112.722V95.1983L102.7 86.3358V103.844Z" fill="white" stroke="#4A63CE" stroke-width="0.34714" stroke-linecap="round" stroke-linejoin="round"/>
<path d="M101.557 86.9936V103.141L87.3203 111.361V112.722L102.7 103.844V86.3358L101.557 86.9936Z" fill="white" stroke="#4A63CE" stroke-width="0.34714" stroke-linecap="round" stroke-linejoin="round"/>
<path d="M61.2656 110.287L83.762 123.276V92.9599L61.2656 79.996V110.287Z" fill="white" stroke="#4A63CE" stroke-width="0.86785" stroke-linecap="round" stroke-linejoin="round"/>
<path d="M106.26 79.9953L83.762 67.0331L61.2656 79.9953L83.762 92.9592L106.26 79.9953Z" fill="white" stroke="#4A63CE" stroke-width="0.34714" stroke-linecap="round" stroke-linejoin="round"/>
<path d="M106.26 79.9953L83.762 67.0331L61.2656 79.9953L83.762 92.9592L106.26 79.9953Z" fill="white" stroke="#4A63CE" stroke-width="0.86785" stroke-linecap="round" stroke-linejoin="round"/>
<path d="M101.557 103.142L102.7 103.845L87.3203 112.724V111.363L101.557 103.142Z" fill="white" stroke="#4A63CE" stroke-width="0.34714" stroke-linecap="round" stroke-linejoin="round"/>
<path d="M64.6423 103.492L80.0467 112.329L79.9981 94.8033L64.5938 85.9843L64.6423 103.492Z" fill="white" stroke="#4A63CE" stroke-width="0.34714" stroke-linecap="round" stroke-linejoin="round"/>
<path d="M65.7393 86.6403L65.7844 102.788L80.0432 110.966L80.0467 112.329L64.6423 103.492L64.5938 85.9843L65.7393 86.6403Z" fill="white" stroke="#4A63CE" stroke-width="0.34714" stroke-linecap="round" stroke-linejoin="round"/>
<path d="M65.7827 102.787L64.6406 103.492L80.045 112.328L80.0415 110.966L65.7827 102.787Z" fill="white" stroke="#4A63CE" stroke-width="0.34714" stroke-linecap="round" stroke-linejoin="round"/>
<path d="M73.0078 79.8306L83.9045 73.5526L94.8013 79.8306L83.9045 86.1225L73.0078 79.8306Z" fill="#4A63CE" stroke="#4A63CE" stroke-width="0.69428" stroke-linecap="round" stroke-linejoin="round"/>
<path d="M83.7704 83.0594C86.7459 83.0594 89.158 81.6544 89.158 79.9212C89.158 78.1881 86.7459 76.7831 83.7704 76.7831C80.7949 76.7831 78.3828 78.1881 78.3828 79.9212C78.3828 81.6544 80.7949 83.0594 83.7704 83.0594Z" fill="white"/>
<path d="M85.4494 0.909927C85.4494 0.909927 75.5559 5.362 66.2977 0.456909C66.2977 0.456909 65.0619 22.6739 68.9221 34.0774C72.7823 45.481 81.3341 57.7975 85.4494 61.3435L85.5952 61.4268C89.7088 62.6193 98.2415 60.1285 102.084 53.1666C105.927 46.2047 104.634 22.5246 104.634 22.5246C95.3759 16.7777 85.4494 0.909927 85.4494 0.909927Z" fill="white"/>
<path d="M87.857 61.8347C87.0834 61.8443 86.3123 61.7462 85.5659 61.5431L85.5381 61.5309L85.3923 61.4476C81.1676 57.8113 72.6245 45.3681 68.8112 34.1155C64.9926 22.8335 66.1677 0.672087 66.1798 0.442975L66.1902 0.253784L66.3638 0.342304C75.4554 5.16408 85.3125 0.836978 85.4114 0.791849L85.5069 0.748457L85.5624 0.838714C85.6613 0.996663 95.5791 16.7481 104.702 22.4152L104.756 22.4482V22.5107C104.768 22.7485 106.004 46.3054 102.192 53.2187C98.9794 59.0489 92.3854 61.8347 87.857 61.8347ZM85.6457 61.314C89.8114 62.5116 98.2261 59.915 101.977 53.1093C105.658 46.4303 104.58 23.9496 104.514 22.594C95.7145 17.0918 86.2185 2.33836 85.4062 1.06088C84.3648 1.49828 75.0753 5.13631 66.4107 0.651258C66.3048 2.83477 65.4196 23.3507 69.0403 34.0392C72.8397 45.2535 81.3446 57.6447 85.5294 61.2515L85.6457 61.314Z" fill="white"/>
<path d="M85.4494 0.909927C85.4494 0.909927 75.5559 5.362 66.2977 0.456909C66.2977 0.456909 65.0619 22.6739 68.9221 34.0774C72.7823 45.481 81.3341 57.7975 85.4494 61.3435L85.5952 61.4268C89.7088 62.6193 98.2415 60.1285 102.084 53.1666C105.927 46.2047 104.634 22.5246 104.634 22.5246C95.3759 16.7777 85.4494 0.909927 85.4494 0.909927Z" stroke="#4A63CE" stroke-width="0.52071" stroke-linecap="round" stroke-linejoin="round"/>
<path d="M87.857 61.8347C87.0834 61.8443 86.3123 61.7462 85.5659 61.5431L85.5381 61.5309L85.3923 61.4476C81.1676 57.8113 72.6245 45.3681 68.8112 34.1155C64.9926 22.8335 66.1677 0.672087 66.1798 0.442975L66.1902 0.253784L66.3638 0.342304C75.4554 5.16408 85.3124 0.836978 85.4114 0.791849L85.5069 0.748457L85.5624 0.838714C85.6613 0.996663 95.5791 16.7481 104.702 22.4152L104.756 22.4482V22.5107C104.768 22.7485 106.004 46.3054 102.192 53.2187C98.9794 59.0489 92.3854 61.8347 87.857 61.8347ZM85.6457 61.314C89.8114 62.5116 98.2261 59.915 101.977 53.1093C105.658 46.4303 104.58 23.9496 104.514 22.594C95.7145 17.0918 86.2185 2.33836 85.4062 1.06088C84.3648 1.49828 75.0753 5.13631 66.4107 0.651258C66.3048 2.83477 65.4196 23.3507 69.0403 34.0392C72.8397 45.2535 81.3446 57.6447 85.5294 61.2515L85.6457 61.314Z" stroke="#4A63CE" stroke-width="0.52071" stroke-linecap="round" stroke-linejoin="round"/>
<path d="M81.8099 2.7285C81.8099 2.7285 71.9077 7.18404 62.6565 2.27722C62.6565 2.27722 61.4224 24.5046 65.2826 35.8995C69.1428 47.2943 77.6928 59.6195 81.8099 63.1638L81.9557 63.2471C86.0676 64.4413 94.602 61.9506 98.4449 54.9887C102.288 48.0268 100.993 24.3466 100.993 24.3466C91.7346 18.598 81.8099 2.7285 81.8099 2.7285Z" fill="white"/>
<path d="M81.8099 2.7285C81.8099 2.7285 71.9077 7.18404 62.6565 2.27722C62.6565 2.27722 61.4224 24.5046 65.2826 35.8995C69.1428 47.2943 77.6928 59.6195 81.8099 63.1638L81.9557 63.2471C86.0676 64.4413 94.602 61.9506 98.4449 54.9887C102.288 48.0268 100.993 24.3466 100.993 24.3466C91.7346 18.598 81.8099 2.7285 81.8099 2.7285Z" stroke="#4A63CE" stroke-width="0.86785" stroke-linecap="round" stroke-linejoin="round"/>
<path d="M81.8745 58.2997C78.4864 54.7016 71.9584 44.9522 68.9019 35.93C68.1451 33.6927 66.8312 28.2582 66.55 17.0109C66.4702 13.7582 66.4979 10.8179 66.55 8.64832C70.07 9.80082 73.8399 10.108 77.8182 9.56129C79.1669 9.37355 80.5009 9.09168 81.8103 8.71774C82.8933 10.2712 84.2576 12.1614 85.818 14.1713C89.8014 19.302 93.5835 23.3445 97.1001 26.2466C97.2945 33.967 97.1001 46.6775 94.7985 50.8536C91.7732 56.361 85.2591 58.6017 81.8745 58.2997Z" fill="white"/>
<path d="M83.231 57.3676C79.8394 53.7695 73.3149 44.0201 70.2584 34.9979C69.5016 32.7606 68.1877 27.3261 67.9082 16.0788C67.8423 13.4475 67.8475 11.021 67.8787 9.04052C67.4309 8.92249 66.9883 8.79232 66.5474 8.64825C66.4988 10.8179 66.4711 13.7582 66.5474 17.0109C66.8286 28.2651 68.1425 33.6996 68.8993 35.93C71.9559 44.9556 78.4838 54.7016 81.8719 58.2997C84.1856 58.5062 87.9625 57.5221 91.0902 55.1181C88.2853 56.8434 85.2201 57.5447 83.231 57.3676Z" fill="white" stroke="#FF7F0B" stroke-width="0.34714" stroke-linecap="round" stroke-linejoin="round"/>
<path d="M81.8745 58.2997C78.4864 54.7016 71.9584 44.9522 68.9019 35.93C68.1451 33.6927 66.8312 28.2582 66.55 17.0109C66.4702 13.7582 66.4979 10.8179 66.55 8.64832C70.07 9.80082 73.8399 10.108 77.8182 9.56129C79.1669 9.37355 80.5009 9.09168 81.8103 8.71774C82.8933 10.2712 84.2576 12.1614 85.818 14.1713C89.8014 19.302 93.5835 23.3445 97.1001 26.2466C97.2945 33.967 97.1001 46.6775 94.7985 50.8536C91.7732 56.361 85.2591 58.6018 81.8745 58.2997Z" stroke="#FF7F0B" stroke-width="0.69428" stroke-linecap="round" stroke-linejoin="round"/>
<path d="M104.511 22.593C95.7109 17.0908 86.2149 2.33737 85.4026 1.05989C84.3612 1.49729 75.0717 5.13532 66.4071 0.650269L62.7812 2.27662C71.4459 6.76167 80.7301 3.12364 81.775 2.68798C82.5873 3.96546 92.0833 18.7172 100.883 24.2211L104.511 22.593Z" fill="white"/>
<path d="M104.511 22.593C95.7109 17.0908 86.2149 2.33737 85.4026 1.05989C84.3612 1.49729 75.0717 5.13532 66.4071 0.650269L62.7812 2.27662C71.4459 6.76167 80.7301 3.12364 81.775 2.68798C82.5873 3.96546 92.0833 18.7172 100.883 24.2211L104.511 22.593Z" stroke="#4A63CE" stroke-width="0.86785" stroke-linecap="round" stroke-linejoin="round"/>
<path d="M81.8586 46.6412C79.8243 44.482 75.9034 38.6258 74.0687 33.2087C73.6122 31.8635 72.8242 28.6004 72.6559 21.8416C72.6073 19.8889 72.6229 18.122 72.6559 16.8202C74.8406 17.5187 77.1566 17.7058 79.4251 17.3669C80.2368 17.2556 81.0395 17.0868 81.8273 16.8618C82.4782 17.7957 83.2974 18.9291 84.2347 20.1371C86.6265 23.218 88.8985 25.6462 91.0144 27.3889C91.1307 32.0249 91.0144 39.6585 89.6258 42.1666C87.8033 45.4783 83.8911 46.8252 81.8586 46.6412Z" fill="#FF7F0B"/>
<path d="M70.8023 113.597C71.3975 113.259 71.4222 112.178 70.8575 111.184C70.2928 110.19 69.3525 109.657 68.7574 109.995C68.1622 110.333 68.1375 111.413 68.7022 112.408C69.2669 113.402 70.2071 113.935 70.8023 113.597Z" fill="#4A63CE"/>
<path d="M74.7711 116.038C75.3662 115.7 75.3909 114.62 74.8262 113.625C74.2615 112.631 73.3213 112.099 72.7261 112.437C72.1309 112.775 72.1062 113.855 72.6709 114.849C73.2356 115.844 74.1759 116.376 74.7711 116.038Z" fill="#4A63CE"/>
<path d="M98.7934 112.623C99.3553 111.627 99.3276 110.547 98.7315 110.211C98.1353 109.875 97.1966 110.409 96.6346 111.405C96.0727 112.401 96.1004 113.481 96.6965 113.818C97.2927 114.154 98.2314 113.619 98.7934 112.623Z" fill="#4A63CE"/>
<path d="M94.8324 115.078C95.3944 114.082 95.3666 113.002 94.7705 112.666C94.1744 112.33 93.2356 112.864 92.6737 113.86C92.1118 114.856 92.1395 115.937 92.7356 116.273C93.3317 116.609 94.2705 116.074 94.8324 115.078Z" fill="#FF7F0B"/>
<path d="M69.7864 111.781L65.1364 114.48C64.7741 114.691 64.4735 114.992 64.2645 115.355C64.0555 115.719 63.9456 116.13 63.9457 116.549V120.342C63.9455 120.779 63.8311 121.209 63.6137 121.589C63.3964 121.968 63.0836 122.284 62.7064 122.506L52.143 128.704C51.5411 129.057 50.8573 129.246 50.1596 129.253C49.4619 129.259 48.7747 129.083 48.1665 128.741L37.511 122.742C36.9872 122.447 36.3967 122.291 35.7956 122.288C35.1945 122.286 34.6026 122.436 34.0761 122.726L18.0938 131.476" stroke="#4A63CE" stroke-width="0.86785" stroke-linecap="round" stroke-linejoin="round"/>
<path d="M64.4344 141.199L51.2188 148.829V137.009L64.4344 129.392V141.199Z" fill="white" stroke="#4A63CE" stroke-width="0.34714" stroke-linecap="round" stroke-linejoin="round"/>
<path d="M64.4344 141.199L51.2188 148.829V137.009L64.4344 129.392V141.199Z" fill="white" stroke="#4A63CE" stroke-width="0.69428" stroke-linecap="round" stroke-linejoin="round"/>
<path d="M38 141.199L51.2174 148.829V137.009L38 129.392V141.199Z" fill="white" stroke="#4A63CE" stroke-width="0.34714" stroke-linecap="round" stroke-linejoin="round"/>
<path d="M38 141.199L51.2174 148.829V137.009L38 129.392V141.199Z" fill="white" stroke="#4A63CE" stroke-width="0.69428" stroke-linecap="round" stroke-linejoin="round"/>
<path d="M64.433 129.392L51.2174 121.777L38 129.392L51.2174 137.008L64.433 129.392Z" fill="white" stroke="#4A63CE" stroke-width="0.34714" stroke-linecap="round" stroke-linejoin="round"/>
<path d="M64.433 129.392L51.2174 121.777L38 129.392L51.2174 137.008L64.433 129.392Z" fill="white" stroke="#4A63CE" stroke-width="0.69428" stroke-linecap="round" stroke-linejoin="round"/>
<path d="M38 131.896L51.2174 139.881L64.433 132.318" stroke="#4A63CE" stroke-width="0.34714" stroke-linecap="round" stroke-linejoin="round"/>
<path d="M57.8559 142.377C58.4178 141.381 58.3901 140.301 57.794 139.965C57.1979 139.628 56.2591 140.163 55.6971 141.159C55.1352 142.155 55.1629 143.235 55.7591 143.572C56.3552 143.908 57.294 143.373 57.8559 142.377Z" fill="white" stroke="#4A63CE" stroke-width="0.69428" stroke-linecap="round" stroke-linejoin="round"/>
<path d="M73.6905 114.373L69.0406 117.072C68.6781 117.282 68.3772 117.584 68.1679 117.947C67.9586 118.31 67.8484 118.722 67.8481 119.141V122.933C67.8477 123.37 67.7331 123.8 67.5157 124.179C67.2984 124.558 66.9857 124.873 66.6088 125.094L64.526 126.334C64.4331 126.388 64.356 126.466 64.3025 126.559C64.2489 126.652 64.2207 126.758 64.2207 126.866C64.2207 126.973 64.2489 127.079 64.3025 127.172C64.356 127.266 64.4331 127.343 64.526 127.398L79.9876 136.324C80.1569 136.422 80.298 136.562 80.3969 136.731C80.4958 136.899 80.5491 137.091 80.5517 137.286C80.5544 137.482 80.5062 137.675 80.4118 137.846C80.3175 138.017 80.1803 138.161 80.0136 138.263L67.5722 145.9C67.0422 146.226 66.434 146.402 65.8121 146.409C65.1902 146.417 64.5778 146.256 64.04 145.944L57.0156 141.861" stroke="#4A63CE" stroke-width="0.86785" stroke-linecap="round" stroke-linejoin="round"/>
<path d="M97.7188 112.463L102.376 115.148C102.739 115.357 103.041 115.658 103.251 116.021C103.461 116.384 103.572 116.796 103.573 117.215L103.584 121.006C103.586 121.444 103.702 121.874 103.922 122.253C104.141 122.632 104.456 122.947 104.835 123.167L115.423 129.337C116.026 129.688 116.71 129.875 117.408 129.88C118.106 129.884 118.792 129.705 119.399 129.362L147.707 112.725" stroke="#4A63CE" stroke-width="0.86785" stroke-linecap="round" stroke-linejoin="round"/>
<path d="M143.515 147.341L126.766 157.01V137.619L143.515 127.969V147.341Z" fill="white" stroke="#FF7F0B" stroke-width="0.86785" stroke-linecap="round" stroke-linejoin="round"/>
<path d="M110.016 147.341L126.763 157.01V137.619L110.016 127.969V147.341Z" fill="white" stroke="#FF7F0B" stroke-width="0.86785" stroke-linecap="round" stroke-linejoin="round"/>
<path d="M143.513 127.969L126.763 118.318L110.016 127.969L126.763 137.619L143.513 127.969Z" fill="white" stroke="#FF7F0B" stroke-width="0.86785" stroke-linecap="round" stroke-linejoin="round"/>
<path d="M143.513 127.969L126.763 118.318L110.016 127.969L126.763 137.619L143.513 127.969Z" fill="white" stroke="#FF7F0B" stroke-width="0.86785" stroke-linecap="round" stroke-linejoin="round"/>
<path d="M118.982 149.716C119.577 149.378 119.602 148.298 119.037 147.303C118.472 146.309 117.532 145.777 116.937 146.114C116.342 146.452 116.317 147.533 116.882 148.527C117.447 149.522 118.387 150.054 118.982 149.716Z" fill="#FF7F0B" stroke="#FF7F0B" stroke-width="0.69428" stroke-linecap="round" stroke-linejoin="round"/>
<path d="M93.7553 114.56L98.4104 117.246C98.7737 117.455 99.0756 117.756 99.2858 118.119C99.496 118.482 99.6071 118.893 99.608 119.313L99.6202 123.104C99.6207 123.542 99.7361 123.972 99.9547 124.352C100.173 124.732 100.488 125.047 100.866 125.268L104.777 127.549C104.985 127.671 105.157 127.846 105.277 128.056C105.397 128.266 105.46 128.503 105.46 128.745C105.46 128.986 105.397 129.223 105.277 129.433C105.157 129.643 104.985 129.818 104.777 129.94L86.1616 140.716C85.9551 140.837 85.7835 141.01 85.6635 141.217C85.5434 141.424 85.4791 141.659 85.4766 141.899C85.4742 142.138 85.5337 142.374 85.6495 142.584C85.7653 142.794 85.9333 142.97 86.1373 143.095L103.791 153.787C104.407 154.161 105.111 154.364 105.831 154.375C106.551 154.387 107.262 154.207 107.889 153.853L118.407 147.922" stroke="#FF7F0B" stroke-width="1.7357" stroke-linecap="round" stroke-linejoin="round"/>
<path d="M57.1065 70.4375C57.7306 70.4375 58.2364 69.9316 58.2364 69.3076C58.2364 68.6835 57.7306 68.1776 57.1065 68.1776C56.4825 68.1776 55.9766 68.6835 55.9766 69.3076C55.9766 69.9316 56.4825 70.4375 57.1065 70.4375Z" fill="#4A63CE" stroke="#4A63CE" stroke-width="0.34714" stroke-linecap="round" stroke-linejoin="round"/>
<path d="M170.575 122.908C171.199 122.908 171.705 122.402 171.705 121.778C171.705 121.154 171.199 120.648 170.575 120.648C169.951 120.648 169.445 121.154 169.445 121.778C169.445 122.402 169.951 122.908 170.575 122.908Z" fill="#4A63CE" stroke="#4A63CE" stroke-width="0.34714" stroke-linecap="round" stroke-linejoin="round"/>
<path d="M133.247 76.8672C133.871 76.8672 134.377 76.3613 134.377 75.7372C134.377 75.1132 133.871 74.6073 133.247 74.6073C132.623 74.6073 132.117 75.1132 132.117 75.7372C132.117 76.3613 132.623 76.8672 133.247 76.8672Z" fill="#4A63CE" stroke="#4A63CE" stroke-width="0.34714" stroke-linecap="round" stroke-linejoin="round"/>
<path d="M80.044 153.988C80.6681 153.988 81.1739 153.482 81.1739 152.858C81.1739 152.234 80.6681 151.728 80.044 151.728C79.42 151.728 78.9141 152.234 78.9141 152.858C78.9141 153.482 79.42 153.988 80.044 153.988Z" fill="#4A63CE" stroke="#4A63CE" stroke-width="0.34714" stroke-linecap="round" stroke-linejoin="round"/>
<path d="M126.505 64.7969C127.129 64.7969 127.635 64.291 127.635 63.6669C127.635 63.0429 127.129 62.537 126.505 62.537C125.881 62.537 125.375 63.0429 125.375 63.6669C125.375 64.291 125.881 64.7969 126.505 64.7969Z" fill="#4A63CE" stroke="#4A63CE" stroke-width="0.34714" stroke-linecap="round" stroke-linejoin="round"/>
<path d="M18.0909 132.852C18.7149 132.852 19.2208 132.346 19.2208 131.722C19.2208 131.098 18.7149 130.592 18.0909 130.592C17.4668 130.592 16.9609 131.098 16.9609 131.722C16.9609 132.346 17.4668 132.852 18.0909 132.852Z" fill="#4A63CE" stroke="#4A63CE" stroke-width="0.34714" stroke-linecap="round" stroke-linejoin="round"/>
<path d="M81.7812 2.68738V8.71199" stroke="#4A63CE" stroke-width="0.52071" stroke-linecap="round" stroke-linejoin="round"/>
<path d="M81.8125 63.1639V58.2987" stroke="#4A63CE" stroke-width="0.52071" stroke-linecap="round" stroke-linejoin="round"/>
<path d="M49.5516 79.238L36.3359 86.8681V75.0497L49.5516 67.4335V79.238Z" fill="white" stroke="#FF7F0B" stroke-width="0.34714" stroke-linecap="round" stroke-linejoin="round"/>
<path d="M49.5516 79.238L36.3359 86.8681V75.0497L49.5516 67.4335V79.238Z" fill="white" stroke="#FF7F0B" stroke-width="0.69428" stroke-linecap="round" stroke-linejoin="round"/>
<path d="M23.1172 79.238L36.3328 86.8681V75.0497L23.1172 67.4335V79.238Z" fill="white" stroke="#FF7F0B" stroke-width="0.34714" stroke-linecap="round" stroke-linejoin="round"/>
<path d="M23.1172 79.238L36.3328 86.8681V75.0497L23.1172 67.4335V79.238Z" fill="white" stroke="#FF7F0B" stroke-width="0.69428" stroke-linecap="round" stroke-linejoin="round"/>
<path d="M49.5484 67.4328L36.3328 59.8182L23.1172 67.4328L36.3328 75.049L49.5484 67.4328Z" fill="white" stroke="#FF7F0B" stroke-width="0.34714" stroke-linecap="round" stroke-linejoin="round"/>
<path d="M49.5484 67.4328L36.3328 59.8182L23.1172 67.4328L36.3328 75.049L49.5484 67.4328Z" fill="white" stroke="#FF7F0B" stroke-width="0.69428" stroke-linecap="round" stroke-linejoin="round"/>
<path d="M23.1172 69.9354L36.3328 77.9196L49.5484 70.3572" stroke="#FF7F0B" stroke-width="0.34714" stroke-linecap="round" stroke-linejoin="round"/>
</g>
<defs>
<clipPath id="clip0_1742_24389">
<rect width="171.876" height="157.445" fill="white" transform="translate(0 -0.00012207)"/>
</clipPath>
</defs>
</svg>
