<svg width="160" height="144" viewBox="0 0 160 144" fill="none" xmlns="http://www.w3.org/2000/svg">
<g clip-path="url(#clip0_29_2663)">
<path d="M52.9375 5.0682L58.551 1.25438C58.7012 1.08039 58.867 0.920601 59.0465 0.776995C60.3922 -0.293111 62.4045 -0.303952 64.6546 1.01476L100.314 21.5378C104.362 23.8996 107.643 29.6266 107.643 34.3286V133.85C107.643 138.554 104.362 140.453 100.314 138.091L63.8061 116.797C59.7581 114.435 56.4757 108.706 56.4757 104.006V7.16159L52.9375 5.0682Z" fill="#C4C7E8"/>
<path d="M107.644 26.2246L97.0526 33.0776L95.5195 114.227L118.565 104.697L107.644 26.2246Z" fill="url(#paint0_linear_29_2663)"/>
<path opacity="0.6" d="M104.203 22.4219L94.6191 28.1147L98.1916 30.5161L107.644 24.7603L104.203 22.4219Z" fill="white"/>
<path d="M100.873 142.826L106.341 137.94L101.1 136.648L100.873 142.826Z" fill="#C4C7E8"/>
<path d="M59.1078 121.045L95.6139 142.343C99.6637 144.705 102.944 142.806 102.944 138.102V38.5805C102.944 33.8767 99.6637 28.1479 95.6139 25.7897L59.1078 4.49386C55.0597 2.13206 51.7773 4.03088 51.7773 8.73466V108.256C51.7773 112.957 55.0597 118.676 59.1078 121.045Z" fill="#DCE6F4"/>
<path d="M55.8236 5.60042C56.4577 5.60042 57.2234 5.85263 58.0358 6.32103L94.5438 27.6187C97.945 29.6003 100.818 34.6194 100.818 38.5755V138.097C100.818 139.266 100.57 141.226 98.8999 141.226C98.2657 141.226 97.5001 140.976 96.6858 140.506L60.1797 119.217C56.7784 117.236 53.9031 112.215 53.9031 108.26V8.73145C53.9031 7.56226 54.1535 5.60042 55.8236 5.60042ZM55.8236 3.47461C53.4239 3.47461 51.7773 5.39863 51.7773 8.73145V108.253C51.7773 112.957 55.0597 118.684 59.1078 121.044L95.6139 142.342C96.7957 143.03 97.9108 143.356 98.8999 143.356C101.298 143.356 102.944 141.432 102.944 138.101V38.5809C102.944 33.8771 99.6637 28.1483 95.6139 25.7901L59.1078 4.49426C57.9278 3.80427 56.8108 3.47822 55.8236 3.47822V3.47461Z" fill="#4D4F80"/>
<path d="M68.2387 12.5662L86.6574 23.3105V23.9518L69.1448 13.7354C68.8007 13.5354 68.444 13.049 68.2441 12.5662H68.2387ZM65.9453 8.76318V11.851C65.9453 13.2202 66.9001 14.8848 68.0783 15.573L86.6574 26.411C86.9441 26.5919 87.2735 26.6938 87.6123 26.7064C88.3095 26.7064 88.7887 26.1461 88.7887 25.1769V22.0891L65.9453 8.75781V8.76318Z" fill="#4D4F80"/>
<path d="M81.6145 20.2263L72.8555 15.1172" stroke="white" stroke-width="0.92" stroke-linecap="round" stroke-linejoin="round"/>
<path opacity="0.4" d="M68.2399 113.565L94.3242 128.786C95.4501 129.444 96.3653 128.914 96.3653 127.604V102.282C96.3653 100.972 95.4501 99.3779 94.3242 98.7204L68.2345 83.4993C67.1067 82.8417 66.1934 83.3714 66.1934 84.6811V110C66.1988 111.313 67.1211 112.911 68.2399 113.565Z" fill="#627BFD"/>
<path d="M85.3419 106.538L91.3374 110.037C91.786 110.298 92.1499 110.087 92.1499 109.567V102.6C92.1347 102.317 92.0532 102.042 91.9121 101.796C91.771 101.55 91.5742 101.34 91.3374 101.184L85.3419 97.6875C84.8934 97.4245 84.5312 97.6353 84.5312 98.1559V105.122C84.5454 105.406 84.6262 105.681 84.7671 105.927C84.908 106.174 85.1049 106.383 85.3419 106.538Z" fill="white"/>
<path d="M81.9304 98.49L75.0449 94.4727" stroke="#7D83AF" stroke-width="2.61" stroke-linecap="round" stroke-linejoin="round"/>
<path d="M81.9288 101.34L70.8242 94.8613" stroke="#7D83AF" stroke-width="2.61" stroke-linecap="round" stroke-linejoin="round"/>
<path d="M92.1499 114.198L84.5312 109.754" stroke="white" stroke-width="2.61" stroke-linecap="round" stroke-linejoin="round"/>
<path d="M92.1489 117.137L70.8242 104.699" stroke="white" stroke-width="2.61" stroke-linecap="round" stroke-linejoin="round"/>
<path d="M92.1489 120.379L70.8242 107.941" stroke="white" stroke-width="2.61" stroke-linecap="round" stroke-linejoin="round"/>
<path d="M59.7345 49.5969L95.0192 70.1811C96.1451 70.8387 97.0585 70.309 97.0585 68.9993V43.6807C97.0585 42.3709 96.1451 40.7766 95.0192 40.119L59.7345 19.5348C58.6068 18.8772 57.6934 19.4051 57.6934 20.7148V46.0353C57.6862 47.345 58.5996 48.9393 59.7345 49.5969Z" fill="white"/>
<g opacity="0.6">
<path opacity="0.6" d="M87.8476 50.8691L93.1044 53.9317C93.4972 54.1623 93.825 53.9767 93.825 53.5209V47.4119C93.8107 47.163 93.7381 46.9209 93.6129 46.7053C93.4877 46.4897 93.3135 46.3066 93.1044 46.1707L87.8476 43.1081C87.453 42.8793 87.127 43.0631 87.127 43.5207V49.6296C87.1412 49.8783 87.2139 50.1201 87.3391 50.3355C87.4643 50.5508 87.6385 50.7336 87.8476 50.8691Z" fill="#4D4F80"/>
</g>
<g opacity="0.6">
<path opacity="0.6" d="M79.3378 45.903L84.5946 48.9656C84.9874 49.1944 85.3152 49.0088 85.3152 48.553V42.4441C85.3009 42.1951 85.2283 41.9531 85.1031 41.7374C84.9779 41.5218 84.8037 41.3386 84.5946 41.2028L79.3378 38.1402C78.9451 37.9096 78.6172 38.0952 78.6172 38.551V44.6599C78.6312 44.9092 78.7037 45.1516 78.8289 45.3675C78.9541 45.5835 79.1285 45.767 79.3378 45.903Z" fill="#4D4F80"/>
</g>
<g opacity="0.6">
<path opacity="0.6" d="M70.8261 40.9393L76.0829 44.0019C76.4757 44.2307 76.8036 44.0469 76.8036 43.5893V37.4822C76.7895 37.233 76.717 36.9905 76.5918 36.7746C76.4666 36.5586 76.2923 36.3751 76.0829 36.2391L70.8261 33.1765C70.4333 32.9477 70.1055 33.1315 70.1055 33.5873V39.6963C70.1194 39.9455 70.1919 40.188 70.3171 40.404C70.4423 40.62 70.6167 40.8034 70.8261 40.9393Z" fill="#4D4F80"/>
</g>
<path d="M62.3171 35.9744L67.5739 39.037C67.9667 39.2658 68.2945 39.082 68.2945 38.6244V32.5173C68.2802 32.2681 68.2076 32.0258 68.0824 31.8098C67.9572 31.5939 67.783 31.4105 67.5739 31.2742L62.3171 28.2116C61.9243 27.9828 61.6055 28.1666 61.6055 28.6242V34.7241C61.6177 34.9737 61.6884 35.217 61.8121 35.4342C61.9357 35.6514 62.1087 35.8364 62.3171 35.9744Z" fill="#F77701"/>
<g opacity="0.6">
<path opacity="0.6" d="M88.3794 60.4199C88.2852 60.3338 88.2219 60.2193 88.1992 60.0938V55.0117L92.5679 57.5609C92.661 57.6478 92.724 57.7619 92.7481 57.8869V62.969L88.3794 60.4199Z" fill="#4D4F80"/>
<path opacity="0.6" d="M89.2625 56.8635L91.691 58.2796V61.1188L89.2625 59.7027V56.8635ZM87.5295 53.4785C87.2953 53.4785 87.1367 53.6586 87.1367 53.9883V60.0973C87.1507 60.3463 87.2233 60.5885 87.3485 60.8042C87.4737 61.0198 87.6481 61.2029 87.8573 61.3385L93.1142 64.4011C93.2098 64.4618 93.3199 64.496 93.4331 64.5002C93.6655 64.5002 93.8258 64.3201 93.8258 63.9904V57.8814C93.8115 57.6325 93.7388 57.3904 93.6136 57.1748C93.4884 56.9592 93.3143 56.776 93.1052 56.6402L87.8483 53.5776C87.7524 53.5178 87.6424 53.4842 87.5295 53.4803V53.4785Z" fill="#4D4F80"/>
<path opacity="0.6" d="M79.8735 55.457C79.7801 55.3704 79.7169 55.2561 79.6934 55.1309V50.0488L84.0621 52.598C84.1555 52.6846 84.2187 52.7989 84.2422 52.9241V58.0062L79.8735 55.457Z" fill="#4D4F80"/>
<path opacity="0.6" d="M80.7528 51.899L83.1812 53.315V56.1632L80.7528 54.7472V51.908V51.899ZM79.0197 48.523C78.7855 48.523 78.627 48.7031 78.627 49.0328V55.1418C78.6413 55.3907 78.7139 55.6328 78.8391 55.8484C78.9643 56.064 79.1385 56.2472 79.3476 56.383L84.6044 59.4456C84.7002 59.5057 84.8103 59.5392 84.9233 59.5429C85.1557 59.5429 85.316 59.3627 85.316 59.0331V52.9205C85.3017 52.6716 85.229 52.4295 85.1038 52.2139C84.9787 51.9982 84.8045 51.8151 84.5954 51.6793L79.3386 48.6167C79.2431 48.5556 79.133 48.5214 79.0197 48.5176V48.523Z" fill="#4D4F80"/>
<path opacity="0.6" d="M71.3618 50.4922C71.2679 50.4059 71.2047 50.2914 71.1816 50.1661V45.084L75.5503 47.6331C75.6434 47.72 75.7064 47.8342 75.7305 47.9592V53.0413L71.3618 50.4922Z" fill="#4D4F80"/>
<path opacity="0.6" d="M72.241 46.9342L74.6695 48.3502V51.1894L72.241 49.7734V46.9342ZM70.508 43.5527C70.2738 43.5527 70.1152 43.7329 70.1152 44.0626V50.1715C70.1295 50.4207 70.2022 50.663 70.3274 50.879C70.4526 51.0949 70.6267 51.2783 70.8358 51.4146L76.0927 54.4772C76.1885 54.5372 76.2985 54.5708 76.4116 54.5745C76.644 54.5745 76.8043 54.3943 76.8043 54.0647V47.9575C76.7903 47.7082 76.7177 47.4658 76.5925 47.2498C76.4673 47.0339 76.293 46.8504 76.0837 46.7144L70.8268 43.6518C70.731 43.5915 70.6211 43.5574 70.508 43.5527Z" fill="#4D4F80"/>
<path opacity="0.6" d="M62.852 45.5351C62.7588 45.4484 62.6957 45.3342 62.6719 45.2091V40.127L67.0424 42.6761C67.1349 42.7634 67.1979 42.8774 67.2225 43.0022V48.0843L62.852 45.5351Z" fill="#4D4F80"/>
<path opacity="0.6" d="M63.7313 41.9691L66.1597 43.3869V46.2261L63.7313 44.8083V41.9691ZM61.9982 38.584C61.7658 38.584 61.6055 38.7642 61.6055 39.0956V45.2028C61.6188 45.4512 61.6901 45.693 61.8136 45.9088C61.9372 46.1247 62.1096 46.3086 62.3171 46.4459L67.5739 49.5085C67.6697 49.5688 67.7797 49.6029 67.8928 49.6076C68.1252 49.6076 68.2855 49.4274 68.2855 49.0959V42.9887C68.2712 42.7396 68.1985 42.4973 68.0734 42.2813C67.9482 42.0654 67.774 41.8819 67.5649 41.7457L62.3081 38.6831C62.2122 38.6228 62.1023 38.5886 61.9892 38.584H61.9982Z" fill="#4D4F80"/>
</g>
<path d="M59.0146 71.7489L82.0976 85.2153C82.8344 85.644 83.4325 85.2981 83.4325 84.4424V67.8738C83.4075 67.4082 83.2737 66.955 83.0419 66.5505C82.81 66.1459 82.4866 65.8014 82.0976 65.5444L59.0146 52.0816C58.2778 51.6511 57.6797 51.9969 57.6797 52.8545V69.4177C57.7046 69.8836 57.8383 70.3371 58.0701 70.7419C58.3019 71.1468 58.6254 71.4917 59.0146 71.7489Z" fill="white"/>
<path opacity="0.4" d="M61.1894 60.0464L79.4839 70.7186C79.8766 70.9474 80.2045 70.7636 80.2045 70.306V67.4902C80.1904 67.241 80.1179 66.9986 79.9927 66.7826C79.8675 66.5667 79.6932 66.3832 79.4839 66.2472L61.1894 55.575C60.7948 55.3462 60.4688 55.5299 60.4688 55.9857V58.8033C60.4826 59.0525 60.5551 59.2951 60.6804 59.511C60.8056 59.727 60.9799 59.9104 61.1894 60.0464Z" fill="#627BFD"/>
<path d="M79.9372 73.9143L70.9512 68.6719" stroke="#7D83AF" stroke-width="2.61" stroke-linecap="round" stroke-linejoin="round"/>
<path d="M79.9368 76.4558L60.7344 65.2539" stroke="#7D83AF" stroke-width="2.61" stroke-linecap="round" stroke-linejoin="round"/>
<path d="M79.9368 79.2605L60.7344 68.0586" stroke="#7D83AF" stroke-width="2.61" stroke-linecap="round" stroke-linejoin="round"/>
<path d="M2.04113 36.3449L37.324 56.9327C38.4518 57.5903 39.3651 57.0606 39.3651 55.7509V30.4323C39.3651 29.1226 38.4518 27.5282 37.324 26.8707L2.04113 6.28643C0.913377 5.62887 0 6.15853 0 7.46644V32.7869C0 34.0966 0.913377 35.6909 2.04113 36.3449Z" fill="#FF7F0B"/>
<path d="M36.0254 26.1133L46.0455 31.8962L37.3964 32.4943L36.0254 26.1133Z" fill="#FF7F0B"/>
<path d="M2.04113 62.6124L37.324 83.1949C38.4518 83.8524 39.3651 83.3246 39.3651 82.0148V67.4693C39.3651 66.1596 38.4518 64.5653 37.324 63.9077L2.04113 43.3235C0.913377 42.6659 0 43.1956 0 44.5053V59.0454C0 60.3587 0.913377 61.9549 2.04113 62.6124Z" fill="#8FA4F7"/>
<path d="M36.0254 63.1504L46.0455 68.9333L37.3964 69.5296L36.0254 63.1504Z" fill="#8FA4F7"/>
<path d="M121.822 37.7059L157.107 58.2901C158.235 58.9477 159.148 58.4198 159.148 57.1101V31.7897C159.148 30.4799 158.235 28.8856 157.107 28.228L121.822 7.64381C120.696 6.98625 119.781 7.51591 119.781 8.82562V34.1443C119.781 35.454 120.696 37.0483 121.822 37.7059Z" fill="#8FA4F7"/>
<path d="M128.46 11.5173L115.193 3.92383L120.798 15.5401L128.46 11.5173Z" fill="#8FA4F7"/>
<path opacity="0.4" d="M17.5802 24.3967L34.5722 34.1934C34.801 34.3267 34.9865 34.2186 34.9865 33.952V32.3108C34.9784 32.1667 34.9367 32.0265 34.8648 31.9014C34.7928 31.7763 34.6926 31.6697 34.5722 31.5902L17.5802 21.7899C17.3514 21.6566 17.1641 21.7629 17.1641 22.0295V23.6725C17.172 23.8173 17.2138 23.9583 17.286 24.0841C17.3583 24.2098 17.4591 24.3169 17.5802 24.3967Z" fill="white"/>
<path opacity="0.4" d="M16.4534 60.9094L33.4454 70.7043C33.6742 70.8394 33.8598 70.7313 33.8598 70.4647V68.8217C33.8516 68.6776 33.8099 68.5374 33.738 68.4123C33.666 68.2871 33.5658 68.1806 33.4454 68.1011L16.4534 58.3043C16.2246 58.1692 16.0391 58.2773 16.0391 58.544V60.187C16.0473 60.3313 16.0891 60.4717 16.161 60.5971C16.2329 60.7225 16.333 60.8294 16.4534 60.9094Z" fill="white"/>
<path opacity="0.4" d="M17.5802 29.0546L34.5722 38.8512C34.801 38.9846 34.9865 38.8783 34.9865 38.6117V36.9687C34.9784 36.8246 34.9367 36.6844 34.8648 36.5593C34.7928 36.4342 34.6926 36.3276 34.5722 36.2481L17.5802 26.4478C17.3514 26.3145 17.1641 26.4225 17.1641 26.6873V28.3304C17.172 28.4752 17.2138 28.6162 17.286 28.7419C17.3583 28.8677 17.4591 28.9748 17.5802 29.0546Z" fill="white"/>
<path opacity="0.4" d="M17.5802 33.4002L34.5668 43.1915C34.7956 43.3266 34.9812 43.2185 34.9812 42.9519V41.3089C34.9726 41.165 34.9307 41.0249 34.8588 40.8999C34.7869 40.7748 34.6869 40.6682 34.5668 40.5883L17.5802 30.7934C17.3514 30.6601 17.1641 30.7682 17.1641 31.0348V32.676C17.172 32.8209 17.2138 32.9618 17.286 33.0876C17.3583 33.2134 17.4591 33.3204 17.5802 33.4002Z" fill="white"/>
<path opacity="0.4" d="M137.137 26.6968L154.129 36.4917C154.36 36.6268 154.545 36.5187 154.545 36.2521V34.6091C154.537 34.4649 154.495 34.3246 154.422 34.1995C154.35 34.0744 154.25 33.9679 154.129 33.8885L137.137 24.0954C136.908 23.9603 136.723 24.0684 136.723 24.335V25.978C136.731 26.1216 136.773 26.2613 136.845 26.3861C136.917 26.5108 137.017 26.6171 137.137 26.6968Z" fill="white"/>
<path opacity="0.4" d="M137.137 31.356L154.129 41.1527C154.36 41.286 154.545 41.1779 154.545 40.9131V39.2701C154.537 39.1257 154.495 38.9853 154.423 38.8602C154.351 38.735 154.25 38.6286 154.129 38.5495L137.137 28.7528C136.908 28.6195 136.723 28.7257 136.723 28.9924V30.6354C136.731 30.7795 136.772 30.9196 136.844 31.0448C136.916 31.1699 137.017 31.2765 137.137 31.356Z" fill="white"/>
<path opacity="0.4" d="M137.137 35.7018L154.134 45.4985C154.365 45.6318 154.551 45.5255 154.551 45.2589V43.6159C154.543 43.4716 154.501 43.3311 154.428 43.206C154.356 43.0808 154.255 42.9744 154.134 42.8953L137.137 33.104C136.908 32.9707 136.723 33.0788 136.723 33.3454V34.9866C136.732 35.1297 136.774 35.2688 136.846 35.393C136.918 35.5171 137.017 35.6228 137.137 35.7018Z" fill="white"/>
<path opacity="0.6" d="M11.0661 26.1681C12.8458 25.1575 12.92 21.9283 11.2319 18.9555C9.54384 15.9827 6.73261 14.392 4.95291 15.4026C3.17321 16.4132 3.09896 19.6424 4.78706 22.6152C6.47516 25.588 9.28639 27.1787 11.0661 26.1681Z" fill="white"/>
<path opacity="0.6" d="M11.0641 62.1661C12.8438 61.1555 12.9181 57.9263 11.23 54.9535C9.54188 51.9807 6.73066 50.39 4.95096 51.4006C3.17125 52.4112 3.097 55.6404 4.78511 58.6132C6.47321 61.586 9.28441 63.1767 11.0641 62.1661Z" fill="white"/>
<path opacity="0.6" d="M132.41 28.7716C134.19 27.761 134.264 24.5318 132.576 21.5589C130.888 18.5861 128.076 16.9955 126.297 18.0061C124.517 19.0167 124.443 22.2459 126.131 25.2187C127.819 28.1915 130.63 29.7822 132.41 28.7716Z" fill="white"/>
</g>
<defs>
<linearGradient id="paint0_linear_29_2663" x1="107.04" y1="114.227" x2="107.04" y2="26.2246" gradientUnits="userSpaceOnUse">
<stop offset="0.02" stop-color="#D0D4EF"/>
<stop offset="0.08" stop-color="#CDD1ED"/>
<stop offset="0.67" stop-color="#AEB4DA"/>
<stop offset="1" stop-color="#A3A9D3"/>
</linearGradient>
<clipPath id="clip0_29_2663">
<rect width="159.149" height="143.358" fill="white"/>
</clipPath>
</defs>
</svg>
