<svg width="195" height="149" viewBox="0 0 195 149" fill="none" xmlns="http://www.w3.org/2000/svg">
<g clip-path="url(#clip0_1742_24169)">
<path d="M1.70312 99.6791H167.737C174.26 99.6791 180.516 97.0878 185.129 92.4752C189.741 87.8626 192.333 81.6067 192.333 75.0835V1.70117" stroke="#FF7F0B" stroke-width="4" stroke-linecap="round" stroke-linejoin="round"/>
<path d="M53.9453 115.342L80.2095 130.501L165.547 81.2316L139.283 66.0781L53.9453 115.342ZM124.482 82.1643C124.482 78.0375 129.743 74.6852 136.235 74.6852C142.726 74.6852 147.988 78.0334 147.988 82.1643C147.988 86.2952 142.726 89.6434 136.235 89.6434C129.743 89.6434 124.482 86.2993 124.482 82.1643ZM98.6204 98.3963C98.6204 94.2695 103.882 90.9158 110.373 90.9158C116.865 90.9158 122.127 94.2654 122.127 98.3963C122.127 102.527 116.864 105.875 110.373 105.875C103.883 105.875 98.6163 102.52 98.6163 98.3908L98.6204 98.3963ZM71.5433 112.473C71.5433 108.346 76.8063 104.994 83.2963 104.994C89.7864 104.994 95.0494 108.342 95.0494 112.473C95.0494 116.604 89.7877 119.952 83.2963 119.952C76.8049 119.952 71.5433 116.604 71.5433 112.473Z" fill="white" stroke="#4A63CE" stroke-width="0.275118" stroke-linecap="round" stroke-linejoin="round"/>
<path d="M53.9453 113.261L80.2095 128.42L165.54 79.1465L139.283 63.9902L53.9453 113.261ZM124.482 80.0833C124.482 75.9565 129.743 72.6028 136.235 72.6028C142.726 72.6028 147.988 75.9524 147.988 80.0833C147.988 84.2142 142.726 87.5624 136.235 87.5624C129.743 87.5624 124.482 84.2128 124.482 80.0833ZM98.6204 96.3153C98.6204 92.1885 103.882 88.8362 110.373 88.8362C116.865 88.8362 122.127 92.1844 122.127 96.3153C122.127 100.446 116.864 103.794 110.373 103.794C103.883 103.794 98.6163 100.439 98.6163 96.3084L98.6204 96.3153ZM71.5433 110.392C71.5433 106.265 76.8063 102.913 83.2963 102.913C89.7864 102.913 95.0494 106.261 95.0494 110.392C95.0494 114.523 89.7877 117.871 83.2963 117.871C76.8049 117.871 71.5433 114.523 71.5433 110.392Z" fill="white" stroke="#4A63CE" stroke-width="0.687796" stroke-linecap="round" stroke-linejoin="round"/>
<path d="M81.9587 106.953H85.0469V98.2635H81.9587V106.953Z" fill="white" stroke="#4A63CE" stroke-width="0.275118" stroke-linecap="round" stroke-linejoin="round"/>
<path d="M80.5391 96.6476C80.5391 97.2086 80.7055 97.7569 81.0172 98.2233C81.329 98.6896 81.7721 99.053 82.2905 99.2674C82.8089 99.4818 83.3792 99.5377 83.9293 99.4278C84.4794 99.318 84.9845 99.0474 85.3808 98.6504C85.7771 98.2533 86.0467 97.7476 86.1554 97.1973C86.2642 96.647 86.2073 96.0768 85.9919 95.5588C85.7764 95.0409 85.4122 94.5985 84.9452 94.2876C84.4783 93.9768 83.9296 93.8114 83.3687 93.8125C82.6176 93.8136 81.8977 94.1128 81.3671 94.6444C80.8365 95.176 80.5387 95.8965 80.5391 96.6476Z" fill="white" stroke="#4A63CE" stroke-width="0.275118" stroke-linecap="round" stroke-linejoin="round"/>
<g style="mix-blend-mode:color-dodge">
<path d="M83.8977 97.6489C84.8724 97.6489 85.6626 96.8587 85.6626 95.884C85.6626 94.9093 84.8724 94.1191 83.8977 94.1191C82.923 94.1191 82.1328 94.9093 82.1328 95.884C82.1328 96.8587 82.923 97.6489 83.8977 97.6489Z" fill="white"/>
<path d="M83.8977 97.6489C84.8724 97.6489 85.6626 96.8587 85.6626 95.884C85.6626 94.9093 84.8724 94.1191 83.8977 94.1191C82.923 94.1191 82.1328 94.9093 82.1328 95.884C82.1328 96.8587 82.923 97.6489 83.8977 97.6489Z" stroke="#4A63CE" stroke-width="0.275118" stroke-linecap="round" stroke-linejoin="round"/>
</g>
<path d="M83.4668 99.7773C85.1959 99.7773 86.5976 98.3756 86.5976 96.6465C86.5976 94.9174 85.1959 93.5156 83.4668 93.5156C81.7377 93.5156 80.3359 94.9174 80.3359 96.6465C80.3359 98.3756 81.7377 99.7773 83.4668 99.7773Z" fill="white" stroke="#4A63CE" stroke-width="0.275118" stroke-linecap="round" stroke-linejoin="round"/>
<g style="mix-blend-mode:color-dodge" opacity="0.36">
<path d="M81.3596 94.8535C81.1771 95.3903 81.1515 95.968 81.2859 96.5188C81.4203 97.0695 81.709 97.5706 82.1182 97.963C82.5273 98.3554 83.04 98.6229 83.5959 98.7342C84.1518 98.8454 84.7279 98.7958 85.2566 98.591C84.7475 99.0429 84.0869 99.2865 83.4063 99.2734C82.7258 99.2603 82.0751 98.9914 81.5838 98.5202C81.0925 98.049 80.7966 97.4101 80.7551 96.7307C80.7135 96.0512 80.9293 95.381 81.3596 94.8535Z" fill="white"/>
<path d="M81.3596 94.8535C81.1771 95.3903 81.1515 95.968 81.2859 96.5188C81.4203 97.0695 81.709 97.5706 82.1182 97.963C82.5273 98.3554 83.04 98.6229 83.5959 98.7342C84.1518 98.8454 84.7279 98.7958 85.2566 98.591C84.7475 99.0429 84.0869 99.2865 83.4063 99.2734C82.7258 99.2603 82.0751 98.9914 81.5838 98.5202C81.0925 98.049 80.7966 97.4101 80.7551 96.7307C80.7135 96.0512 80.9293 95.381 81.3596 94.8535Z" stroke="#4A63CE" stroke-width="0.275118" stroke-linecap="round" stroke-linejoin="round"/>
</g>
<path d="M91.6376 73.7084V140.441C91.6378 141.511 91.4272 142.57 91.0179 143.559C90.6086 144.547 90.0086 145.446 89.2521 146.202C88.4957 146.959 87.5976 147.559 86.6091 147.968C85.6207 148.378 84.5613 148.589 83.4914 148.589C81.3305 148.589 79.2581 147.73 77.7301 146.202C76.2022 144.674 75.3438 142.602 75.3438 140.441V73.7084C75.3438 73.7084 80.7911 71.7949 84.2067 71.7949C87.6223 71.7949 91.6376 73.7084 91.6376 73.7084Z" fill="white"/>
<path d="M91.6376 73.7084V140.441C91.6378 141.511 91.4272 142.57 91.0179 143.559C90.6086 144.547 90.0086 145.446 89.2521 146.202C88.4957 146.959 87.5976 147.559 86.6091 147.968C85.6207 148.378 84.5613 148.589 83.4914 148.589C81.3305 148.589 79.2581 147.73 77.7301 146.202C76.2022 144.674 75.3438 142.602 75.3438 140.441V73.7084C75.3438 73.7084 80.7911 71.7949 84.2067 71.7949C87.6223 71.7949 91.6376 73.7084 91.6376 73.7084Z" fill="white" fill-opacity="0.3" stroke="#4A63CE" stroke-width="0.825355" stroke-linecap="round" stroke-linejoin="round"/>
<path d="M91.6376 73.7084V140.441C91.6378 141.511 91.4272 142.57 91.0179 143.559C90.6086 144.547 90.0086 145.446 89.2521 146.202C88.4957 146.959 87.5976 147.559 86.6091 147.968C85.6207 148.378 84.5613 148.589 83.4914 148.589V148.589C81.3305 148.589 79.2581 147.73 77.7301 146.202C76.2022 144.674 75.3438 142.602 75.3438 140.441V73.7084C75.3438 73.7084 80.7911 71.7949 84.2067 71.7949C87.6223 71.7949 91.6376 73.7084 91.6376 73.7084Z" stroke="#4A63CE" stroke-width="0.275118" stroke-linecap="round" stroke-linejoin="round"/>
<path d="M83.4949 146.631C85.136 146.629 86.7095 145.977 87.8699 144.816C89.0304 143.656 89.6832 142.082 89.685 140.441V109.49H77.3047V140.441C77.3065 142.082 77.9593 143.656 79.1198 144.816C80.2802 145.977 81.8537 146.629 83.4949 146.631Z" fill="#4A63CE" stroke="#4A63CE" stroke-width="0.275118" stroke-linecap="round" stroke-linejoin="round"/>
<path d="M83.4935 114.261C86.9114 114.261 89.6823 112.498 89.6823 110.323C89.6823 108.148 86.9114 106.385 83.4935 106.385C80.0755 106.385 77.3047 108.148 77.3047 110.323C77.3047 112.498 80.0755 114.261 83.4935 114.261Z" fill="#4A63CE" stroke="white" stroke-width="0.412678" stroke-linecap="round" stroke-linejoin="round"/>
<path d="M83.4952 73C78.7962 73 75.3352 75.4238 75.3352 78.4143C75.3352 81.4049 78.7962 83.8232 83.4952 83.8232C88.1943 83.8232 91.6553 81.3994 91.6553 78.4102C91.6553 75.421 88.1874 73 83.4952 73C88.6523 73 93.665 74.6149 95.2483 77.556V80.4805C95.2483 84.6072 89.9853 87.9596 83.4952 87.9596C77.0052 87.9596 71.7422 84.61 71.7422 80.4805V77.8283C73.331 74.8901 78.3395 73 83.4952 73Z" fill="white"/>
<path d="M83.4952 73C78.7962 73 75.3352 75.4238 75.3352 78.4143C75.3352 81.4049 78.7962 83.8232 83.4952 83.8232C88.1943 83.8232 91.6553 81.3994 91.6553 78.4102C91.6553 75.421 88.1874 73 83.4952 73ZM83.4952 73C88.6523 73 93.665 74.6149 95.2483 77.556V80.4805C95.2483 84.6072 89.9853 87.9596 83.4952 87.9596C77.0052 87.9596 71.7422 84.61 71.7422 80.4805V77.8283C73.331 74.8901 78.3395 73 83.4952 73Z" stroke="#4A63CE" stroke-width="0.687796" stroke-linecap="round" stroke-linejoin="round"/>
<path d="M71.7422 78.4146C71.7422 82.5414 77.0038 85.8937 83.4952 85.8937C89.9867 85.8937 95.2483 82.5455 95.2483 78.4146C95.2483 74.2837 89.9853 70.9355 83.4952 70.9355C77.0052 70.9355 71.7422 74.2837 71.7422 78.4146ZM75.3352 78.4146C75.3352 75.4241 78.7962 73.0003 83.4952 73.0003C88.1943 73.0003 91.6553 75.4241 91.6553 78.4146C91.6553 81.4052 88.1874 83.8235 83.4952 83.8235C78.8031 83.8235 75.3352 81.4038 75.3352 78.4146Z" fill="white" stroke="#4A63CE" stroke-width="0.275118" stroke-linecap="round" stroke-linejoin="round"/>
<path d="M71.7422 78.4146C71.7422 82.5414 77.0038 85.8937 83.4952 85.8937C89.9867 85.8937 95.2483 82.5455 95.2483 78.4146C95.2483 74.2837 89.9853 70.9355 83.4952 70.9355C77.0052 70.9355 71.7422 74.2837 71.7422 78.4146ZM75.3352 78.4146C75.3352 75.4241 78.7962 73.0003 83.4952 73.0003C88.1943 73.0003 91.6553 75.4241 91.6553 78.4146C91.6553 81.4052 88.1874 83.8235 83.4952 83.8235C78.8031 83.8235 75.3352 81.4038 75.3352 78.4146Z" fill="white" stroke="#4A63CE" stroke-width="0.687796" stroke-linecap="round" stroke-linejoin="round"/>
<path d="M85.265 119.831C85.5407 119.831 85.7643 119.607 85.7643 119.331C85.7643 119.056 85.5407 118.832 85.265 118.832C84.9892 118.832 84.7656 119.056 84.7656 119.331C84.7656 119.607 84.9892 119.831 85.265 119.831Z" fill="white"/>
<path d="M83.9915 124.602C84.2673 124.602 84.4909 124.379 84.4909 124.103C84.4909 123.827 84.2673 123.604 83.9915 123.604C83.7158 123.604 83.4922 123.827 83.4922 124.103C83.4922 124.379 83.7158 124.602 83.9915 124.602Z" fill="white"/>
<path d="M85.304 129.909C85.5798 129.909 85.8034 129.685 85.8034 129.409C85.8034 129.134 85.5798 128.91 85.304 128.91C85.0283 128.91 84.8047 129.134 84.8047 129.409C84.8047 129.685 85.0283 129.909 85.304 129.909Z" fill="white"/>
<path d="M83.015 136.694C83.2907 136.694 83.5143 136.47 83.5143 136.195C83.5143 135.919 83.2907 135.695 83.015 135.695C82.7392 135.695 82.5156 135.919 82.5156 136.195C82.5156 136.47 82.7392 136.694 83.015 136.694Z" fill="white"/>
<path d="M78.9531 87.252V140.853" stroke="#4A63CE" stroke-width="0.275118" stroke-linecap="round" stroke-linejoin="round"/>
<path d="M138.3 54.7676H141.562V42.7765H138.3V54.7676Z" fill="white" stroke="#4A63CE" stroke-width="0.275118" stroke-linecap="round" stroke-linejoin="round"/>
<path d="M144.702 43.291V110.025C144.702 112.186 143.843 114.258 142.315 115.786C140.787 117.314 138.715 118.173 136.554 118.173C134.393 118.173 132.321 117.314 130.793 115.786C129.265 114.258 128.406 112.186 128.406 110.025V43.291C128.406 43.291 133.854 41.3789 137.269 41.3789C140.685 41.3789 144.702 43.291 144.702 43.291Z" fill="white"/>
<path d="M144.709 43.291V110.025C144.709 112.186 143.851 114.258 142.323 115.786C140.795 117.314 138.723 118.173 136.562 118.173C134.401 118.173 132.328 117.314 130.8 115.786C129.272 114.258 128.414 112.186 128.414 110.025V43.291C128.414 43.291 133.861 41.3789 137.277 41.3789C140.693 41.3789 144.709 43.291 144.709 43.291Z" fill="white" fill-opacity="0.3" stroke="#4A63CE" stroke-width="0.825355" stroke-linecap="round" stroke-linejoin="round"/>
<path d="M144.702 43.291V110.025C144.702 112.186 143.843 114.258 142.315 115.786C140.787 117.314 138.715 118.173 136.554 118.173V118.173C134.393 118.173 132.321 117.314 130.793 115.786C129.265 114.258 128.406 112.186 128.406 110.025V43.291C128.406 43.291 133.854 41.3789 137.269 41.3789C140.685 41.3789 144.702 43.291 144.702 43.291Z" stroke="#4A63CE" stroke-width="0.275118" stroke-linecap="round" stroke-linejoin="round"/>
<path d="M136.557 116.213C138.199 116.213 139.774 115.561 140.934 114.4C142.095 113.239 142.748 111.665 142.748 110.023V79.0723H130.367V110.023C130.367 110.836 130.527 111.641 130.838 112.392C131.149 113.143 131.605 113.825 132.18 114.4C132.755 114.975 133.437 115.431 134.188 115.742C134.94 116.053 135.744 116.213 136.557 116.213Z" fill="white" stroke="#FF7F0B" stroke-width="0.687796" stroke-linecap="round" stroke-linejoin="round"/>
<path d="M136.556 83.8454C139.974 83.8454 142.745 82.0821 142.745 79.9071C142.745 77.732 139.974 75.9688 136.556 75.9688C133.138 75.9688 130.367 77.732 130.367 79.9071C130.367 82.0821 133.138 83.8454 136.556 83.8454Z" fill="white" stroke="#FF7F0B" stroke-width="0.687796" stroke-linecap="round" stroke-linejoin="round"/>
<path d="M136.563 42.5859C131.864 42.5859 128.403 45.0097 128.403 47.9989C128.403 50.9881 131.864 53.4132 136.563 53.4132C141.262 53.4132 144.726 50.9894 144.726 47.9989C144.726 45.0084 141.263 42.5859 136.566 42.5859C141.723 42.5859 146.735 44.1995 148.319 47.1405V50.065C148.319 54.1918 143.057 57.5441 136.566 57.5441C130.074 57.5441 124.812 54.1959 124.812 50.065V47.4143C126.393 44.4746 131.407 42.5859 136.563 42.5859Z" fill="white"/>
<path d="M136.563 42.5859C131.864 42.5859 128.403 45.0097 128.403 47.9989C128.403 50.9881 131.864 53.4132 136.563 53.4132C141.262 53.4132 144.726 50.9894 144.726 47.9989C144.726 45.0084 141.263 42.5859 136.566 42.5859C141.723 42.5859 146.735 44.1995 148.319 47.1405V50.065C148.319 54.1918 143.057 57.5441 136.566 57.5441C130.074 57.5441 124.812 54.1959 124.812 50.065V47.4143C126.393 44.4746 131.407 42.5859 136.563 42.5859Z" stroke="#4A63CE" stroke-width="0.687796" stroke-linecap="round" stroke-linejoin="round"/>
<path d="M124.805 47.9986C124.805 52.1254 130.066 55.4791 136.558 55.4791C143.049 55.4791 148.311 52.1295 148.311 47.9986C148.311 43.8677 143.049 40.5195 136.558 40.5195C130.066 40.5195 124.805 43.8691 124.805 47.9986ZM128.398 47.9986C128.398 45.0095 131.859 42.5857 136.558 42.5857C141.257 42.5857 144.721 45.0095 144.721 47.9986C144.721 50.9878 141.258 53.413 136.56 53.413C131.863 53.413 128.398 50.9892 128.398 47.9986Z" fill="white" stroke="#4A63CE" stroke-width="0.275118" stroke-linecap="round" stroke-linejoin="round"/>
<path d="M124.805 47.9986C124.805 52.1254 130.066 55.4791 136.558 55.4791C143.049 55.4791 148.311 52.1295 148.311 47.9986C148.311 43.8677 143.049 40.5195 136.558 40.5195C130.066 40.5195 124.805 43.8691 124.805 47.9986ZM128.398 47.9986C128.398 45.0095 131.859 42.5857 136.558 42.5857C141.257 42.5857 144.721 45.0095 144.721 47.9986C144.721 50.9878 141.258 53.413 136.56 53.413C131.863 53.413 128.398 50.9892 128.398 47.9986Z" fill="white" stroke="#4A63CE" stroke-width="0.687796" stroke-linecap="round" stroke-linejoin="round"/>
<path d="M138.335 89.4166C138.611 89.4166 138.835 89.1931 138.835 88.9173C138.835 88.6415 138.611 88.418 138.335 88.418C138.06 88.418 137.836 88.6415 137.836 88.9173C137.836 89.1931 138.06 89.4166 138.335 89.4166Z" fill="#FF7F0B" stroke="#FF7F0B" stroke-width="0.275118" stroke-linecap="round" stroke-linejoin="round"/>
<path d="M137.054 94.1881C137.33 94.1881 137.553 93.9646 137.553 93.6888C137.553 93.413 137.33 93.1895 137.054 93.1895C136.778 93.1895 136.555 93.413 136.555 93.6888C136.555 93.9646 136.778 94.1881 137.054 94.1881Z" fill="#FF7F0B" stroke="#FF7F0B" stroke-width="0.275118" stroke-linecap="round" stroke-linejoin="round"/>
<path d="M138.374 99.4928C138.65 99.4928 138.874 99.2693 138.874 98.9935C138.874 98.7177 138.65 98.4941 138.374 98.4941C138.099 98.4941 137.875 98.7177 137.875 98.9935C137.875 99.2693 138.099 99.4928 138.374 99.4928Z" fill="#FF7F0B" stroke="#FF7F0B" stroke-width="0.275118" stroke-linecap="round" stroke-linejoin="round"/>
<path d="M136.085 106.28C136.361 106.28 136.585 106.056 136.585 105.781C136.585 105.505 136.361 105.281 136.085 105.281C135.81 105.281 135.586 105.505 135.586 105.781C135.586 106.056 135.81 106.28 136.085 106.28Z" fill="#FF7F0B" stroke="#FF7F0B" stroke-width="0.275118" stroke-linecap="round" stroke-linejoin="round"/>
<path d="M109.052 92.248H112.141V83.5584H109.052V92.248Z" fill="white" stroke="#4A63CE" stroke-width="0.275118" stroke-linecap="round" stroke-linejoin="round"/>
<path d="M107.633 81.9431C107.633 82.5037 107.798 83.0518 108.11 83.5181C108.421 83.9845 108.863 84.3481 109.381 84.563C109.899 84.7779 110.469 84.8345 111.019 84.7256C111.569 84.6167 112.074 84.3472 112.471 83.9511C112.867 83.5551 113.138 83.0503 113.248 82.5006C113.358 81.9509 113.302 81.3809 113.089 80.8627C112.875 80.3445 112.512 79.9014 112.046 79.5893C111.58 79.2772 111.033 79.1102 110.472 79.1094C110.099 79.1088 109.731 79.1817 109.386 79.3239C109.042 79.466 108.729 79.6746 108.465 79.9378C108.201 80.201 107.992 80.5135 107.849 80.8576C107.707 81.2017 107.633 81.5706 107.633 81.9431Z" fill="white" stroke="#4A63CE" stroke-width="0.275118" stroke-linecap="round" stroke-linejoin="round"/>
<g style="mix-blend-mode:color-dodge">
<path d="M110.991 82.9438C111.966 82.9438 112.756 82.1537 112.756 81.1789C112.756 80.2042 111.966 79.4141 110.991 79.4141C110.017 79.4141 109.227 80.2042 109.227 81.1789C109.227 82.1537 110.017 82.9438 110.991 82.9438Z" fill="white"/>
<path d="M110.991 82.9438C111.966 82.9438 112.756 82.1537 112.756 81.1789C112.756 80.2042 111.966 79.4141 110.991 79.4141C110.017 79.4141 109.227 80.2042 109.227 81.1789C109.227 82.1537 110.017 82.9438 110.991 82.9438Z" stroke="#4A63CE" stroke-width="0.275118" stroke-linecap="round" stroke-linejoin="round"/>
</g>
<path d="M110.561 85.0722C112.29 85.0722 113.691 83.6705 113.691 81.9414C113.691 80.2123 112.29 78.8105 110.561 78.8105C108.831 78.8105 107.43 80.2123 107.43 81.9414C107.43 83.6705 108.831 85.0722 110.561 85.0722Z" fill="white" stroke="#4A63CE" stroke-width="0.275118" stroke-linecap="round" stroke-linejoin="round"/>
<g style="mix-blend-mode:color-dodge" opacity="0.36">
<path d="M108.446 80.1484C108.263 80.6852 108.237 81.2629 108.372 81.8137C108.506 82.3645 108.795 82.8655 109.204 83.2579C109.613 83.6503 110.126 83.9179 110.682 84.0291C111.238 84.1404 111.814 84.0907 112.343 83.8859C111.833 84.3378 111.173 84.5815 110.492 84.5683C109.812 84.5552 109.161 84.2863 108.67 83.8151C108.178 83.344 107.883 82.705 107.841 82.0256C107.799 81.3461 108.015 80.676 108.446 80.1484Z" fill="white"/>
<path d="M108.446 80.1484C108.263 80.6852 108.237 81.2629 108.372 81.8137C108.506 82.3645 108.795 82.8655 109.204 83.2579C109.613 83.6503 110.126 83.9179 110.682 84.0291C111.238 84.1404 111.814 84.0907 112.343 83.8859C111.833 84.3378 111.173 84.5815 110.492 84.5683C109.812 84.5552 109.161 84.2863 108.67 83.8151C108.178 83.344 107.883 82.705 107.841 82.0256C107.799 81.3461 108.015 80.676 108.446 80.1484Z" stroke="#4A63CE" stroke-width="0.275118" stroke-linecap="round" stroke-linejoin="round"/>
</g>
<path d="M118.725 59.0033V125.737C118.725 126.807 118.514 127.867 118.105 128.855C117.695 129.844 117.095 130.742 116.338 131.498C115.582 132.255 114.684 132.855 113.695 133.264C112.707 133.673 111.647 133.884 110.577 133.884C109.507 133.884 108.448 133.673 107.459 133.264C106.471 132.855 105.573 132.255 104.816 131.498C104.06 130.742 103.459 129.844 103.05 128.855C102.64 127.867 102.43 126.807 102.43 125.737V59.0033C102.43 59.0033 107.878 57.0898 111.29 57.0898C114.701 57.0898 118.725 59.0033 118.725 59.0033Z" fill="white"/>
<path d="M118.725 59.0033V125.737C118.725 126.807 118.514 127.867 118.105 128.855C117.695 129.844 117.095 130.742 116.338 131.498C115.582 132.255 114.684 132.855 113.695 133.264C112.707 133.673 111.647 133.884 110.577 133.884C109.507 133.884 108.448 133.673 107.459 133.264C106.471 132.855 105.573 132.255 104.816 131.498C104.06 130.742 103.459 129.844 103.05 128.855C102.64 127.867 102.43 126.807 102.43 125.737V59.0033C102.43 59.0033 107.878 57.0898 111.29 57.0898C114.701 57.0898 118.725 59.0033 118.725 59.0033Z" fill="white" fill-opacity="0.3" stroke="#4A63CE" stroke-width="0.825355" stroke-linecap="round" stroke-linejoin="round"/>
<path d="M118.725 59.0033V125.737C118.725 126.807 118.514 127.867 118.105 128.855C117.695 129.844 117.095 130.742 116.338 131.498C115.582 132.255 114.684 132.855 113.695 133.264C112.707 133.673 111.647 133.884 110.577 133.884V133.884C109.507 133.884 108.448 133.673 107.459 133.264C106.471 132.855 105.573 132.255 104.816 131.498C104.06 130.742 103.459 129.844 103.05 128.855C102.64 127.867 102.43 126.807 102.43 125.737V59.0033C102.43 59.0033 107.878 57.0898 111.29 57.0898C114.701 57.0898 118.725 59.0033 118.725 59.0033Z" stroke="#4A63CE" stroke-width="0.275118" stroke-linecap="round" stroke-linejoin="round"/>
<path d="M110.581 131.926C112.223 131.926 113.797 131.274 114.958 130.113C116.119 128.952 116.771 127.378 116.771 125.736V94.7852H104.391V125.736C104.391 127.378 105.043 128.952 106.204 130.113C107.365 131.274 108.939 131.926 110.581 131.926Z" fill="white" stroke="#FF7F0B" stroke-width="0.687796" stroke-linecap="round" stroke-linejoin="round"/>
<path d="M110.579 99.5563C113.997 99.5563 116.768 97.7931 116.768 95.618C116.768 93.4429 113.997 91.6797 110.579 91.6797C107.161 91.6797 104.391 93.4429 104.391 95.618C104.391 97.7931 107.161 99.5563 110.579 99.5563Z" fill="white" stroke="#FF7F0B" stroke-width="0.687796" stroke-linecap="round" stroke-linejoin="round"/>
<path d="M110.581 58.2969C105.884 58.2969 102.421 60.7207 102.421 63.7098C102.421 66.699 105.884 69.1242 110.581 69.1242C115.279 69.1242 118.741 66.7004 118.741 63.7098C118.741 60.7193 115.283 58.2969 110.581 58.2969C115.738 58.2969 120.752 59.9104 122.334 62.8515V65.776C122.334 69.9027 117.073 73.2551 110.581 73.2551C104.09 73.2551 98.8281 69.9069 98.8281 65.776V63.1238C100.413 60.1856 105.425 58.2969 110.581 58.2969Z" fill="white"/>
<path d="M110.581 58.2969C105.884 58.2969 102.421 60.7207 102.421 63.7098C102.421 66.699 105.884 69.1242 110.581 69.1242C115.279 69.1242 118.741 66.7004 118.741 63.7098C118.741 60.7193 115.283 58.2969 110.581 58.2969ZM110.581 58.2969C115.738 58.2969 120.752 59.9104 122.334 62.8515V65.776C122.334 69.9027 117.073 73.2551 110.581 73.2551C104.09 73.2551 98.8281 69.9069 98.8281 65.776V63.1238C100.413 60.1856 105.425 58.2969 110.581 58.2969Z" stroke="#4A63CE" stroke-width="0.687796" stroke-linecap="round" stroke-linejoin="round"/>
<path d="M98.8281 63.7096C98.8281 67.8363 104.09 71.1887 110.581 71.1887C117.073 71.1887 122.334 67.8405 122.334 63.7096C122.334 59.5787 117.071 56.2305 110.581 56.2305C104.091 56.2305 98.8281 59.5787 98.8281 63.7096ZM102.421 63.7096C102.421 60.7204 105.884 58.2966 110.581 58.2966C115.279 58.2966 118.741 60.7204 118.741 63.7096C118.741 66.6987 115.283 69.1239 110.581 69.1239C105.879 69.1239 102.421 66.7001 102.421 63.7096Z" fill="white" stroke="#4A63CE" stroke-width="0.275118" stroke-linecap="round" stroke-linejoin="round"/>
<path d="M98.8281 63.7096C98.8281 67.8363 104.09 71.1887 110.581 71.1887C117.073 71.1887 122.334 67.8405 122.334 63.7096C122.334 59.5787 117.071 56.2305 110.581 56.2305C104.091 56.2305 98.8281 59.5787 98.8281 63.7096ZM102.421 63.7096C102.421 60.7204 105.884 58.2966 110.581 58.2966C115.279 58.2966 118.741 60.7204 118.741 63.7096C118.741 66.6987 115.283 69.1239 110.581 69.1239C105.879 69.1239 102.421 66.7001 102.421 63.7096Z" fill="white" stroke="#4A63CE" stroke-width="0.687796" stroke-linecap="round" stroke-linejoin="round"/>
<path d="M112.359 105.126C112.634 105.126 112.858 104.902 112.858 104.626C112.858 104.351 112.634 104.127 112.359 104.127C112.083 104.127 111.859 104.351 111.859 104.626C111.859 104.902 112.083 105.126 112.359 105.126Z" fill="#FF7F0B" stroke="#FF7F0B" stroke-width="0.275118" stroke-linecap="round" stroke-linejoin="round"/>
<path d="M111.077 109.899C111.353 109.899 111.577 109.676 111.577 109.4C111.577 109.124 111.353 108.9 111.077 108.9C110.802 108.9 110.578 109.124 110.578 109.4C110.578 109.676 110.802 109.899 111.077 109.899Z" fill="#FF7F0B" stroke="#FF7F0B" stroke-width="0.275118" stroke-linecap="round" stroke-linejoin="round"/>
<path d="M112.39 115.204C112.666 115.204 112.889 114.98 112.889 114.704C112.889 114.429 112.666 114.205 112.39 114.205C112.114 114.205 111.891 114.429 111.891 114.704C111.891 114.98 112.114 115.204 112.39 115.204Z" fill="#FF7F0B" stroke="#FF7F0B" stroke-width="0.275118" stroke-linecap="round" stroke-linejoin="round"/>
<path d="M110.101 121.989C110.377 121.989 110.6 121.765 110.6 121.49C110.6 121.214 110.377 120.99 110.101 120.99C109.825 120.99 109.602 121.214 109.602 121.49C109.602 121.765 109.825 121.989 110.101 121.989Z" fill="#FF7F0B" stroke="#FF7F0B" stroke-width="0.275118" stroke-linecap="round" stroke-linejoin="round"/>
<path d="M107.633 56.8728C107.633 57.4334 107.798 57.9815 108.11 58.4478C108.421 58.9141 108.863 59.2777 109.381 59.4927C109.899 59.7076 110.469 59.7641 111.019 59.6552C111.569 59.5463 112.074 59.2768 112.471 58.8808C112.867 58.4848 113.138 57.98 113.248 57.4303C113.358 56.8806 113.302 56.3106 113.089 55.7924C112.875 55.2742 112.512 54.831 112.046 54.519C111.58 54.2069 111.033 54.0399 110.472 54.0391C110.099 54.0385 109.731 54.1114 109.386 54.2536C109.042 54.3957 108.729 54.6043 108.465 54.8675C108.201 55.1307 107.992 55.4432 107.849 55.7873C107.707 56.1314 107.633 56.5002 107.633 56.8728Z" fill="white" stroke="#4A63CE" stroke-width="0.275118" stroke-linecap="round" stroke-linejoin="round"/>
<g style="mix-blend-mode:color-dodge">
<path d="M110.991 57.8735C111.966 57.8735 112.756 57.0834 112.756 56.1086C112.756 55.1339 111.966 54.3438 110.991 54.3438C110.017 54.3438 109.227 55.1339 109.227 56.1086C109.227 57.0834 110.017 57.8735 110.991 57.8735Z" fill="white"/>
<path d="M110.991 57.8735C111.966 57.8735 112.756 57.0834 112.756 56.1086C112.756 55.1339 111.966 54.3438 110.991 54.3438C110.017 54.3438 109.227 55.1339 109.227 56.1086C109.227 57.0834 110.017 57.8735 110.991 57.8735Z" stroke="#4A63CE" stroke-width="0.275118" stroke-linecap="round" stroke-linejoin="round"/>
</g>
<path d="M110.561 60.0039C112.29 60.0039 113.691 58.6022 113.691 56.873C113.691 55.1439 112.29 53.7422 110.561 53.7422C108.831 53.7422 107.43 55.1439 107.43 56.873C107.43 58.6022 108.831 60.0039 110.561 60.0039Z" fill="white" stroke="#FF7F0B" stroke-width="0.550237" stroke-linecap="round" stroke-linejoin="round"/>
<g style="mix-blend-mode:color-dodge" opacity="0.36">
<path d="M108.45 55.0742C108.268 55.611 108.243 56.1884 108.378 56.7388C108.512 57.2892 108.801 57.7899 109.21 58.1822C109.619 58.5745 110.131 58.8422 110.687 58.9539C111.242 59.0656 111.818 59.0168 112.347 58.8131C111.838 59.2667 111.176 59.5117 110.495 59.4992C109.813 59.4867 109.161 59.2176 108.669 58.7456C108.177 58.2736 107.882 57.6335 107.841 56.9529C107.8 56.2724 108.017 55.6015 108.45 55.0742Z" fill="white"/>
<path d="M108.45 55.0742C108.268 55.611 108.243 56.1884 108.378 56.7388C108.512 57.2892 108.801 57.7899 109.21 58.1822C109.619 58.5745 110.131 58.8422 110.687 58.9539C111.242 59.0656 111.818 59.0168 112.347 58.8131C111.838 59.2667 111.176 59.5117 110.495 59.4992C109.813 59.4867 109.161 59.2176 108.669 58.7456C108.177 58.2736 107.882 57.6335 107.841 56.9529C107.8 56.2724 108.017 55.6015 108.45 55.0742Z" stroke="#4A63CE" stroke-width="0.275118" stroke-linecap="round" stroke-linejoin="round"/>
</g>
<path d="M108.586 37.0187C108.586 37.3963 108.698 37.7655 108.908 38.0795C109.118 38.3934 109.416 38.6382 109.765 38.7827C110.113 38.9272 110.497 38.965 110.868 38.8913C111.238 38.8177 111.578 38.6358 111.845 38.3688C112.112 38.1018 112.294 37.7616 112.368 37.3912C112.442 37.0208 112.404 36.6369 112.259 36.288C112.115 35.9391 111.87 35.641 111.556 35.4312C111.242 35.2214 110.873 35.1094 110.495 35.1094C110.244 35.1092 109.996 35.1585 109.764 35.2543C109.533 35.3502 109.322 35.4909 109.145 35.6682C108.967 35.8455 108.827 36.0561 108.731 36.2878C108.635 36.5195 108.586 36.7679 108.586 37.0187Z" fill="white" stroke="#4A63CE" stroke-width="0.275118" stroke-linecap="round" stroke-linejoin="round"/>
<g style="mix-blend-mode:color-dodge">
<path d="M110.845 37.6915C111.501 37.6915 112.033 37.1594 112.033 36.503C112.033 35.8466 111.501 35.3145 110.845 35.3145C110.188 35.3145 109.656 35.8466 109.656 36.503C109.656 37.1594 110.188 37.6915 110.845 37.6915Z" fill="white"/>
<path d="M110.845 37.6915C111.501 37.6915 112.033 37.1594 112.033 36.503C112.033 35.8466 111.501 35.3145 110.845 35.3145C110.188 35.3145 109.656 35.8466 109.656 36.503C109.656 37.1594 110.188 37.6915 110.845 37.6915Z" stroke="#4A63CE" stroke-width="0.275118" stroke-linecap="round" stroke-linejoin="round"/>
</g>
<path d="M110.554 39.1277C111.719 39.1277 112.663 38.1836 112.663 37.0189C112.663 35.8543 111.719 34.9102 110.554 34.9102C109.389 34.9102 108.445 35.8543 108.445 37.0189C108.445 38.1836 109.389 39.1277 110.554 39.1277Z" fill="white" stroke="#FF7F0B" stroke-width="0.550237" stroke-linecap="round" stroke-linejoin="round"/>
<g style="mix-blend-mode:color-dodge" opacity="0.36">
<path d="M109.135 35.8164C109.032 36.1187 109.004 36.4411 109.051 36.7568C109.098 37.0725 109.22 37.3723 109.406 37.6315C109.592 37.8907 109.838 38.1017 110.122 38.2471C110.406 38.3924 110.721 38.4678 111.04 38.4672C111.286 38.4662 111.53 38.4196 111.759 38.3296C111.416 38.6298 110.973 38.7906 110.517 38.7804C110.062 38.7701 109.626 38.5896 109.297 38.2743C108.968 37.9589 108.768 37.5317 108.738 37.0768C108.708 36.6219 108.85 36.1722 109.135 35.8164Z" fill="white"/>
<path d="M109.135 35.8164C109.032 36.1187 109.004 36.4411 109.051 36.7568C109.098 37.0725 109.22 37.3723 109.406 37.6315C109.592 37.8907 109.838 38.1017 110.122 38.2471C110.406 38.3924 110.721 38.4678 111.04 38.4672C111.286 38.4662 111.53 38.4196 111.759 38.3296C111.416 38.6298 110.973 38.7906 110.517 38.7804C110.062 38.7701 109.626 38.5896 109.297 38.2743C108.968 37.9589 108.768 37.5317 108.738 37.0768C108.708 36.6219 108.85 36.1722 109.135 35.8164Z" stroke="#4A63CE" stroke-width="0.275118" stroke-linecap="round" stroke-linejoin="round"/>
</g>
<path d="M75.9201 116.216C77.9354 117.25 80.4981 117.866 83.2892 117.866C89.7806 117.866 95.0422 114.518 95.0422 110.387C95.0422 108.815 94.2788 107.361 92.9788 106.153L101.485 101.201C103.641 102.782 106.819 103.783 110.366 103.783C116.856 103.783 122.119 100.435 122.119 96.3039C122.119 94.2515 120.819 92.3931 118.716 91.0423L128.07 85.4615C130.183 86.7587 133.057 87.5579 136.225 87.5579C142.716 87.5579 147.978 84.2083 147.978 80.0788C147.978 78.2672 146.965 76.6068 145.283 75.3124L151.375 71.7207L165.53 79.1489L80.2051 128.42L66.9375 121.514L75.9201 116.216Z" fill="white"/>
<g style="mix-blend-mode:multiply">
<path d="M87.2969 117.426L112.276 113.598L122.218 105.705L93.2491 108.469L87.2969 117.426Z" fill="#C4C7E8"/>
</g>
<g style="mix-blend-mode:multiply">
<path d="M115.438 102.216L139.029 99.0826L148.97 91.1895L121.39 93.2583L115.438 102.216Z" fill="#C4C7E8"/>
</g>
<g style="mix-blend-mode:multiply">
<path d="M135.484 87.7875L159.769 84.3072L169.71 76.4141L141.437 78.8296L135.484 87.7875Z" fill="#C4C7E8"/>
</g>
<path d="M75.9201 116.216C77.9354 117.25 80.4981 117.866 83.2892 117.866C89.7806 117.866 95.0422 114.518 95.0422 110.387C95.0422 108.815 94.2788 107.361 92.9788 106.153L101.485 101.201C103.641 102.782 106.819 103.783 110.366 103.783C116.856 103.783 122.119 100.435 122.119 96.3039C122.119 94.2515 120.819 92.3931 118.716 91.0423L128.07 85.4615C130.183 86.7587 133.057 87.5579 136.225 87.5579C142.716 87.5579 147.978 84.2083 147.978 80.0788C147.978 78.2672 146.965 76.6068 145.283 75.3124L151.375 71.7207L165.53 79.1489L80.2051 128.42L66.9375 121.514L75.9201 116.216Z" stroke="#4A63CE" stroke-width="0.275118" stroke-linecap="round" stroke-linejoin="round"/>
<path d="M80.2031 128.42V131.935L165.484 82.3335V79.1504L80.2031 128.42Z" fill="white" stroke="#4A63CE" stroke-width="0.275118" stroke-linecap="round" stroke-linejoin="round"/>
<path d="M80.2031 128.42V131.935L165.484 82.3335V79.1504L80.2031 128.42Z" fill="white" stroke="#4A63CE" stroke-width="0.687796" stroke-linecap="round" stroke-linejoin="round"/>
<path d="M80.204 128.42L53.9453 113.26V116.697L80.204 131.935V128.42Z" fill="white" stroke="#4A63CE" stroke-width="0.550237" stroke-linecap="round" stroke-linejoin="round"/>
<path d="M133.633 35.5929C133.633 36.1535 133.799 36.7015 134.11 37.1677C134.422 37.6339 134.864 37.9973 135.382 38.2119C135.9 38.4266 136.47 38.4829 137.02 38.3737C137.57 38.2646 138.075 37.9948 138.472 37.5986C138.868 37.2024 139.138 36.6975 139.248 36.1477C139.358 35.5979 139.302 35.028 139.088 34.5099C138.874 33.9918 138.511 33.5488 138.045 33.2369C137.579 32.9251 137.031 32.7584 136.471 32.7578C136.098 32.7575 135.729 32.8305 135.385 32.9728C135.041 33.1151 134.728 33.3239 134.464 33.5872C134.201 33.8505 133.992 34.1632 133.849 34.5073C133.706 34.8515 133.633 35.2204 133.633 35.5929Z" fill="white" stroke="#4A63CE" stroke-width="0.275118" stroke-linecap="round" stroke-linejoin="round"/>
<g style="mix-blend-mode:color-dodge">
<path d="M136.991 36.5942C137.966 36.5942 138.756 35.8041 138.756 34.8293C138.756 33.8546 137.966 33.0645 136.991 33.0645C136.017 33.0645 135.227 33.8546 135.227 34.8293C135.227 35.8041 136.017 36.5942 136.991 36.5942Z" fill="white"/>
<path d="M136.991 36.5942C137.966 36.5942 138.756 35.8041 138.756 34.8293C138.756 33.8546 137.966 33.0645 136.991 33.0645C136.017 33.0645 135.227 33.8546 135.227 34.8293C135.227 35.8041 136.017 36.5942 136.991 36.5942Z" stroke="#4A63CE" stroke-width="0.275118" stroke-linecap="round" stroke-linejoin="round"/>
</g>
<path d="M136.561 38.7226C138.29 38.7226 139.691 37.3209 139.691 35.5918C139.691 33.8627 138.29 32.4609 136.561 32.4609C134.831 32.4609 133.43 33.8627 133.43 35.5918C133.43 37.3209 134.831 38.7226 136.561 38.7226Z" fill="white" stroke="#FF7F0B" stroke-width="0.550237" stroke-linecap="round" stroke-linejoin="round"/>
<g style="mix-blend-mode:color-dodge">
<path d="M134.446 33.7988C134.263 34.3356 134.237 34.9133 134.372 35.4641C134.506 36.0149 134.795 36.5159 135.204 36.9083C135.613 37.3007 136.126 37.5683 136.682 37.6795C137.238 37.7907 137.814 37.7411 138.343 37.5363C137.833 37.9882 137.173 38.2319 136.492 38.2187C135.812 38.2056 135.161 37.9367 134.67 37.4655C134.178 36.9944 133.883 36.3554 133.841 35.676C133.799 34.9965 134.015 34.3264 134.446 33.7988Z" fill="white"/>
</g>
<path d="M80.8438 70.7941C80.8438 71.3548 81.01 71.9029 81.3216 72.3692C81.6331 72.8354 82.0759 73.1988 82.5939 73.4134C83.1119 73.6279 83.682 73.6841 84.232 73.5747C84.7819 73.4653 85.2871 73.1953 85.6836 72.7988C86.0801 72.4023 86.3501 71.8971 86.4595 71.3472C86.5689 70.7972 86.5127 70.2272 86.2981 69.7091C86.0836 69.1911 85.7202 68.7483 85.2539 68.4368C84.7877 68.1253 84.2396 67.959 83.6789 67.959C82.9269 67.959 82.2058 68.2577 81.6741 68.7894C81.1425 69.321 80.8438 70.0422 80.8438 70.7941Z" fill="white" stroke="#4A63CE" stroke-width="0.275118" stroke-linecap="round" stroke-linejoin="round"/>
<g style="mix-blend-mode:color-dodge">
<path d="M84.2102 71.7954C85.1849 71.7954 85.9751 71.0052 85.9751 70.0305C85.9751 69.0558 85.1849 68.2656 84.2102 68.2656C83.2355 68.2656 82.4453 69.0558 82.4453 70.0305C82.4453 71.0052 83.2355 71.7954 84.2102 71.7954Z" fill="white"/>
<path d="M84.2102 71.7954C85.1849 71.7954 85.9751 71.0052 85.9751 70.0305C85.9751 69.0558 85.1849 68.2656 84.2102 68.2656C83.2355 68.2656 82.4453 69.0558 82.4453 70.0305C82.4453 71.0052 83.2355 71.7954 84.2102 71.7954Z" stroke="#4A63CE" stroke-width="0.275118" stroke-linecap="round" stroke-linejoin="round"/>
</g>
<path d="M83.7715 73.9238C85.5006 73.9238 86.9023 72.5221 86.9023 70.793C86.9023 69.0638 85.5006 67.6621 83.7715 67.6621C82.0424 67.6621 80.6406 69.0638 80.6406 70.793C80.6406 72.5221 82.0424 73.9238 83.7715 73.9238Z" fill="#4A63CE" stroke="#4A63CE" stroke-width="0.275118" stroke-linecap="round" stroke-linejoin="round"/>
<g style="mix-blend-mode:color-dodge">
<path d="M81.6652 69C81.4818 69.5375 81.4558 70.1162 81.5904 70.668C81.7249 71.2198 82.0144 71.7216 82.4246 72.1144C82.8349 72.5071 83.3488 72.7744 83.9059 72.8848C84.4631 72.9952 85.0401 72.9441 85.5691 72.7375C85.06 73.1894 84.3995 73.433 83.7189 73.4199C83.0383 73.4068 82.3876 73.1379 81.8963 72.6667C81.405 72.1955 81.1091 71.5566 81.0676 70.8772C81.026 70.1977 81.2418 69.5275 81.6721 69H81.6652Z" fill="white"/>
</g>
<path d="M81.6875 55.0743C81.6875 55.4552 81.8004 55.8275 82.0121 56.1442C82.2237 56.4609 82.5244 56.7077 82.8763 56.8535C83.2282 56.9993 83.6155 57.0374 83.989 56.9631C84.3626 56.8888 84.7058 56.7054 84.9751 56.436C85.2444 56.1667 85.4278 55.8236 85.5021 55.45C85.5765 55.0764 85.5383 54.6892 85.3926 54.3373C85.2468 53.9854 85 53.6846 84.6833 53.473C84.3666 53.2614 83.9942 53.1484 83.6133 53.1484C83.1026 53.1484 82.6127 53.3513 82.2516 53.7125C81.8904 54.0737 81.6875 54.5635 81.6875 55.0743Z" fill="white" stroke="#4A63CE" stroke-width="0.187081" stroke-linecap="round" stroke-linejoin="round"/>
<g style="mix-blend-mode:color-dodge">
<path d="M83.9757 55.76C84.6397 55.76 85.178 55.2217 85.178 54.5577C85.178 53.8937 84.6397 53.3555 83.9757 53.3555C83.3117 53.3555 82.7734 53.8937 82.7734 54.5577C82.7734 55.2217 83.3117 55.76 83.9757 55.76Z" fill="white"/>
<path d="M83.9757 55.76C84.6397 55.76 85.178 55.2217 85.178 54.5577C85.178 53.8937 84.6397 53.3555 83.9757 53.3555C83.3117 53.3555 82.7734 53.8937 82.7734 54.5577C82.7734 55.2217 83.3117 55.76 83.9757 55.76Z" stroke="#4A63CE" stroke-width="0.187081" stroke-linecap="round" stroke-linejoin="round"/>
</g>
<path d="M83.679 57.2096C84.8566 57.2096 85.8112 56.255 85.8112 55.0775C85.8112 53.8999 84.8566 52.9453 83.679 52.9453C82.5015 52.9453 81.5469 53.8999 81.5469 55.0775C81.5469 56.255 82.5015 57.2096 83.679 57.2096Z" fill="#4A63CE" stroke="#4A63CE" stroke-width="0.187081" stroke-linecap="round" stroke-linejoin="round"/>
<g style="mix-blend-mode:color-dodge">
<path d="M82.2478 53.8574C82.1237 54.2231 82.1064 54.6165 82.198 54.9917C82.2897 55.3668 82.4864 55.708 82.765 55.9753C83.0437 56.2425 83.3929 56.4248 83.7715 56.5007C84.1501 56.5766 84.5425 56.5429 84.9026 56.4036C84.5562 56.7135 84.1055 56.8812 83.6408 56.8732C83.176 56.8651 82.7314 56.6819 82.3959 56.3601C82.0605 56.0384 81.8588 55.6018 81.8314 55.1378C81.8039 54.6738 81.9526 54.2165 82.2478 53.8574Z" fill="white"/>
</g>
<path d="M134.586 15.0173C134.586 15.3951 134.697 15.7644 134.907 16.0786C135.117 16.3928 135.415 16.6377 135.764 16.7824C136.113 16.9271 136.497 16.965 136.867 16.8914C137.238 16.8178 137.578 16.6359 137.845 16.3688C138.112 16.1017 138.294 15.7613 138.368 15.3908C138.442 15.0203 138.404 14.6363 138.259 14.2874C138.114 13.9385 137.869 13.6403 137.555 13.4306C137.241 13.2209 136.872 13.1091 136.494 13.1094C135.988 13.1094 135.503 13.3104 135.145 13.6682C134.787 14.026 134.586 14.5113 134.586 15.0173Z" fill="white" stroke="#4A63CE" stroke-width="0.275118" stroke-linecap="round" stroke-linejoin="round"/>
<g style="mix-blend-mode:color-dodge">
<path d="M136.853 15.6915C137.509 15.6915 138.041 15.1594 138.041 14.503C138.041 13.8466 137.509 13.3145 136.853 13.3145C136.196 13.3145 135.664 13.8466 135.664 14.503C135.664 15.1594 136.196 15.6915 136.853 15.6915Z" fill="white"/>
<path d="M136.853 15.6915C137.509 15.6915 138.041 15.1594 138.041 14.503C138.041 13.8466 137.509 13.3145 136.853 13.3145C136.196 13.3145 135.664 13.8466 135.664 14.503C135.664 15.1594 136.196 15.6915 136.853 15.6915Z" stroke="#4A63CE" stroke-width="0.275118" stroke-linecap="round" stroke-linejoin="round"/>
</g>
<path d="M136.554 17.1258C137.719 17.1258 138.663 16.1816 138.663 15.017C138.663 13.8523 137.719 12.9082 136.554 12.9082C135.389 12.9082 134.445 13.8523 134.445 15.017C134.445 16.1816 135.389 17.1258 136.554 17.1258Z" fill="white" stroke="#FF7F0B" stroke-width="0.550237" stroke-linecap="round" stroke-linejoin="round"/>
<g style="mix-blend-mode:color-dodge" opacity="0.36">
<path d="M135.135 13.8066C135.065 14.013 135.029 14.2296 135.029 14.4477C135.028 14.774 135.107 15.0956 135.258 15.3846C135.41 15.6736 135.63 15.9213 135.899 16.1061C136.167 16.291 136.477 16.4075 136.801 16.4454C137.126 16.4834 137.454 16.4417 137.758 16.324C137.415 16.6271 136.971 16.7901 136.513 16.7807C136.055 16.7713 135.618 16.5901 135.288 16.2732C134.957 15.9562 134.758 15.5266 134.73 15.0697C134.702 14.6127 134.846 14.1619 135.135 13.8066Z" fill="white"/>
<path d="M135.135 13.8066C135.065 14.013 135.029 14.2296 135.029 14.4477C135.028 14.774 135.107 15.0956 135.258 15.3846C135.41 15.6736 135.63 15.9213 135.899 16.1061C136.167 16.291 136.477 16.4075 136.801 16.4454C137.126 16.4834 137.454 16.4417 137.758 16.324C137.415 16.6271 136.971 16.7901 136.513 16.7807C136.055 16.7713 135.618 16.5901 135.288 16.2732C134.957 15.9562 134.758 15.5266 134.73 15.0697C134.702 14.6127 134.846 14.1619 135.135 13.8066Z" stroke="#4A63CE" stroke-width="0.275118" stroke-linecap="round" stroke-linejoin="round"/>
</g>
<path d="M80.2026 128.421C79.0939 127.816 77.9934 127.196 76.8874 126.584L73.586 124.722C71.3851 123.484 69.1993 122.213 67.0052 120.96C64.8111 119.707 62.6349 118.425 60.4574 117.143L57.1945 115.217C56.1119 114.566 55.0238 113.923 53.9453 113.264C55.0554 113.869 56.1559 114.489 57.2619 115.1L60.5633 116.963C62.7642 118.201 64.95 119.47 67.1427 120.725C69.3354 121.979 71.5144 123.26 73.6919 124.542L76.9548 126.468C78.0306 127.12 79.1173 127.762 80.2026 128.421Z" fill="#4A63CE"/>
</g>
<defs>
<clipPath id="clip0_1742_24169">
<rect width="194.024" height="149" fill="white"/>
</clipPath>
</defs>
</svg>
