<svg width="299" height="228" viewBox="0 0 299 228" fill="none" xmlns="http://www.w3.org/2000/svg">
<g clip-path="url(#clip0_1742_24086)">
<path d="M79.0489 124.073L61.1094 134.626V59.6289L79.0489 49.0994V124.073Z" fill="white" stroke="#4A63CE" stroke-width="1.3009" stroke-linecap="round" stroke-linejoin="round"/>
<path d="M76.9407 68.8L63.2266 76.8683V66.9658L76.9407 58.9158V68.8Z" fill="white" stroke="#FF7F0B" stroke-width="0.780543" stroke-linecap="round" stroke-linejoin="round"/>
<path d="M76.9407 81.1497L63.2266 89.2179V79.3128L76.9407 71.2654V81.1497Z" fill="white" stroke="#FF7F0B" stroke-width="0.780543" stroke-linecap="round" stroke-linejoin="round"/>
<path d="M38.9219 121.815L61.1127 134.627V59.6294L38.9219 46.8416V121.815Z" fill="white" stroke="#4A63CE" stroke-width="1.3009" stroke-linecap="round" stroke-linejoin="round"/>
<path d="M79.0522 49.0995L56.864 36.3142L38.9219 46.8411L61.1127 59.629L79.0522 49.0995Z" fill="white" stroke="#4A63CE" stroke-width="0.520362" stroke-linecap="round" stroke-linejoin="round"/>
<path d="M79.0522 49.0995L56.864 36.3142L38.9219 46.8411L61.1127 59.629L79.0522 49.0995Z" fill="white" stroke="#4A63CE" stroke-width="1.3009" stroke-linecap="round" stroke-linejoin="round"/>
<path d="M43.1406 46.8258L56.8756 38.7654L74.8385 49.1154L61.1035 57.1758L43.1406 46.8258Z" fill="white" stroke="#4A63CE" stroke-width="0.520362" stroke-linecap="round" stroke-linejoin="round"/>
<path d="M42.8125 46.8258L56.5501 38.7654L74.5129 49.1154L60.7754 57.1758L42.8125 46.8258Z" fill="white" stroke="#4A63CE" stroke-width="0.520362" stroke-linecap="round" stroke-linejoin="round"/>
<path d="M42.8125 44.7073L56.5501 36.6443L74.5129 46.9969L60.7754 55.0573L42.8125 44.7073Z" fill="white" stroke="#4A63CE" stroke-width="0.520362" stroke-linecap="round" stroke-linejoin="round"/>
<path d="M60.7734 55.0602V57.178L74.511 49.1176V46.9998L60.7734 55.0602Z" fill="white" stroke="#4A63CE" stroke-width="0.520362" stroke-linecap="round" stroke-linejoin="round"/>
<path d="M42.8125 44.7087V46.8266L60.7754 57.1766V55.0587L42.8125 44.7087Z" fill="white" stroke="#4A63CE" stroke-width="0.520362" stroke-linecap="round" stroke-linejoin="round"/>
<path d="M55.4414 125.367C56.7322 124.634 56.7863 122.292 55.5624 120.137C54.3384 117.981 52.2998 116.828 51.009 117.561C49.7182 118.294 49.6641 120.636 50.8881 122.791C52.112 124.947 54.1506 126.1 55.4414 125.367Z" fill="#4A63CE" stroke="#4A63CE" stroke-width="0.520362" stroke-linecap="round" stroke-linejoin="round"/>
<path d="M54.4457 123.604C55.1529 123.202 55.1821 121.919 54.5109 120.737C53.8397 119.554 52.7222 118.922 52.0149 119.323C51.3077 119.725 51.2785 121.009 51.9497 122.191C52.621 123.373 53.7384 124.006 54.4457 123.604Z" fill="white" stroke="#4A63CE" stroke-width="0.520362" stroke-linecap="round" stroke-linejoin="round"/>
<path d="M86.6875 28.7107L293.347 147.637C294.234 148.149 294.972 148.886 295.484 149.774C295.997 150.662 296.267 151.668 296.267 152.693C296.267 153.718 295.997 154.725 295.484 155.613C294.972 156.501 294.234 157.238 293.347 157.75L193.206 215.568C189.916 217.467 186.196 218.496 182.397 218.557C178.599 218.618 174.848 217.709 171.499 215.916L161.705 210.671" stroke="#FF7F0B" stroke-width="4" stroke-linecap="round" stroke-linejoin="round"/>
<path d="M93.625 197.965L112.967 209.132L140.328 193.336L121.048 182.133L93.625 197.965Z" fill="white" stroke="#4A63CE" stroke-width="0.520362" stroke-linecap="round" stroke-linejoin="round"/>
<path d="M114.089 176.202C115.323 175.487 117.329 175.487 118.57 176.202L169.014 201.812C170.252 202.528 169.326 206.664 168.095 207.38L135.77 226.165C134.537 226.88 132.536 226.878 131.295 226.165L81.7853 197.579C80.5468 196.863 80.2008 193.676 81.4314 192.961" fill="white"/>
<path d="M132.643 226.833V224.332L77.9219 192.736V195.236" fill="white"/>
<path d="M132.643 226.833V224.332L77.9219 192.736V195.236" stroke="#4A63CE" stroke-width="0.520362" stroke-linecap="round" stroke-linejoin="round"/>
<path d="M114.089 176.202C115.323 175.487 117.329 175.487 118.57 176.202L169.014 201.812C170.252 202.528 169.326 206.664 168.095 207.38L135.77 226.165C134.537 226.88 132.536 226.878 131.295 226.165L81.7853 197.579C80.5468 196.863 80.2008 193.676 81.4314 192.961" stroke="#4A63CE" stroke-width="0.520362" stroke-linecap="round" stroke-linejoin="round"/>
<path d="M168.082 202.531C169.321 203.247 169.328 204.41 168.098 205.133L135.773 223.918C134.54 224.634 132.539 224.631 131.298 223.918L81.7879 195.322C80.5495 194.606 80.5365 193.446 81.7671 192.72L114.092 173.935C115.325 173.219 117.331 173.219 118.572 173.935L168.082 202.531Z" fill="white" stroke="#4A63CE" stroke-width="1.04072" stroke-linecap="round" stroke-linejoin="round"/>
<path d="M162.059 203.399L117.024 177.41C116.603 177.168 116.126 177.041 115.64 177.041C115.154 177.041 114.677 177.168 114.256 177.41L98.7232 186.316C98.6173 186.377 98.5294 186.465 98.4683 186.571C98.4072 186.677 98.375 186.797 98.375 186.919C98.375 187.042 98.4072 187.162 98.4683 187.268C98.5294 187.374 98.6173 187.462 98.7232 187.523L143.758 213.512C144.179 213.754 144.656 213.881 145.142 213.881C145.628 213.881 146.105 213.754 146.526 213.512L162.059 204.606C162.165 204.545 162.253 204.457 162.314 204.351C162.375 204.245 162.407 204.125 162.407 204.003C162.407 203.88 162.375 203.76 162.314 203.654C162.253 203.548 162.165 203.46 162.059 203.399Z" fill="white" stroke="#4A63CE" stroke-width="0.520362" stroke-linecap="round" stroke-linejoin="round"/>
<path d="M180.243 163.093V163.052C180.243 163.036 180.243 163.023 180.243 163.01C180.243 162.997 180.243 162.982 180.243 162.966V162.922V162.877V162.833C180.243 162.818 180.243 162.802 180.23 162.786C180.217 162.771 180.23 162.755 180.23 162.74L180.215 162.693C180.212 162.677 180.207 162.661 180.202 162.646L180.186 162.602C180.181 162.587 180.175 162.572 180.168 162.557L180.152 162.516C180.152 162.5 180.139 162.487 180.134 162.472C180.129 162.456 180.134 162.443 180.113 162.427L180.092 162.383L180.064 162.328C180.048 162.3 180.033 162.271 180.014 162.243L179.957 162.152L179.9 162.068L179.861 162.019C179.851 162.004 179.84 161.99 179.827 161.977L179.793 161.938L179.759 161.899L179.723 161.863C179.712 161.849 179.7 161.837 179.687 161.826L179.647 161.79L179.611 161.756L179.569 161.725L179.533 161.694L179.494 161.668L179.455 161.642L179.419 161.618L125.907 130.748L125.878 130.732L125.845 130.714L125.808 130.698L125.772 130.683L125.738 130.67H125.702H125.668H125.629H125.592H125.467H125.415C125.395 130.672 125.375 130.678 125.356 130.685C125.331 130.694 125.308 130.706 125.285 130.719L123.969 131.484C123.991 131.471 124.015 131.459 124.039 131.45L124.101 131.435C124.118 131.433 124.134 131.433 124.151 131.435H124.276H124.315H124.351H124.385L124.421 131.448H124.458L124.492 131.463L124.528 131.479L124.565 131.497L124.591 131.513L178.053 162.378L178.092 162.401L178.128 162.427L178.167 162.453L178.203 162.482L178.245 162.516L178.284 162.55L178.321 162.586L178.36 162.623L178.393 162.659L178.427 162.698L178.461 162.737L178.495 162.776L178.534 162.828L178.591 162.911L178.651 163.002L178.698 163.088C178.708 163.106 178.718 163.124 178.726 163.143L178.747 163.187L178.768 163.231C178.768 163.247 178.768 163.26 178.786 163.276L178.804 163.317L178.82 163.361L178.836 163.406L178.851 163.452C178.854 163.468 178.859 163.484 178.864 163.499C178.864 163.515 178.864 163.531 178.864 163.546C178.863 163.562 178.863 163.577 178.864 163.593V163.637V163.681V163.726C178.863 163.74 178.863 163.755 178.864 163.77C178.863 163.784 178.863 163.798 178.864 163.812C178.863 163.825 178.863 163.839 178.864 163.853V163.903C178.866 163.916 178.866 163.93 178.864 163.944C178.866 163.958 178.866 163.972 178.864 163.986C178.864 163.999 178.864 164.014 178.864 164.027V164.072L171.259 203.799V203.83C171.26 203.846 171.26 203.861 171.259 203.877C171.256 203.893 171.251 203.909 171.244 203.924C171.238 203.941 171.231 203.957 171.223 203.973L171.192 204.033C171.154 204.093 171.102 204.143 171.041 204.179L172.357 203.414C172.418 203.378 172.469 203.328 172.506 203.268C172.518 203.249 172.53 203.229 172.539 203.208C172.547 203.192 172.554 203.176 172.56 203.159L172.576 203.112C172.576 203.096 172.576 203.081 172.589 203.065C172.59 203.055 172.59 203.044 172.589 203.034L180.243 163.315V163.273C180.243 163.257 180.243 163.244 180.243 163.229C180.245 163.215 180.245 163.201 180.243 163.187C180.243 163.174 180.243 163.158 180.243 163.145C180.245 163.128 180.245 163.111 180.243 163.093Z" fill="white" stroke="#4A63CE" stroke-width="0.520362" stroke-linecap="round" stroke-linejoin="round"/>
<path d="M178.056 162.377C178.608 162.698 179.022 163.517 178.915 164.079L171.263 203.798C171.182 204.228 170.821 204.36 170.397 204.116L116.94 173.253C116.388 172.933 115.975 172.116 116.079 171.551L123.733 131.835C123.814 131.403 124.175 131.27 124.594 131.512L178.056 162.377Z" fill="white" stroke="#4A63CE" stroke-width="1.04072" stroke-linecap="round" stroke-linejoin="round"/>
<path d="M119.349 171.69C119.312 171.639 119.281 171.584 119.258 171.526L126.231 135.41L175.665 163.944C175.703 163.994 175.733 164.049 175.754 164.108L168.77 200.224L119.349 171.69Z" fill="white" stroke="#4A63CE" stroke-width="0.504751" stroke-linecap="round" stroke-linejoin="round"/>
<path d="M127.302 205.681C127.96 206.061 127.963 206.667 127.302 207.049L117.837 212.555C117.471 212.741 117.066 212.838 116.656 212.838C116.245 212.838 115.84 212.741 115.474 212.555L98.8228 203.04C98.1645 202.66 98.1619 202.051 98.8228 201.672L108.296 196.164C108.661 195.976 109.066 195.879 109.476 195.879C109.886 195.879 110.291 195.976 110.656 196.164L127.302 205.681Z" fill="white" stroke="#4A63CE" stroke-width="1.04072" stroke-linecap="round" stroke-linejoin="round"/>
<path d="M126.125 115.261L79.9402 142.115C77.0955 143.778 73.8565 144.647 70.5613 144.631C67.2661 144.615 64.0356 143.714 61.2072 142.024L39.8203 129.244L53.2326 121.438" stroke="#4A63CE" stroke-width="1.3009" stroke-linecap="round" stroke-linejoin="round"/>
<path d="M41.9343 140.763L23.9922 151.318V76.3183L41.9343 65.7888V140.763Z" fill="white" stroke="#4A63CE" stroke-width="1.3009" stroke-linecap="round" stroke-linejoin="round"/>
<path d="M39.8287 85.4915L26.1172 93.5597V83.6546L39.8287 75.6072V85.4915Z" fill="white" stroke="#FF7F0B" stroke-width="0.780543" stroke-linecap="round" stroke-linejoin="round"/>
<path d="M39.8287 97.8391L26.1172 105.907V96.0022L39.8287 87.9548V97.8391Z" fill="white" stroke="#FF7F0B" stroke-width="0.780543" stroke-linecap="round" stroke-linejoin="round"/>
<path d="M1.8125 138.507L24.0007 151.318V76.3183L1.8125 63.533V138.507Z" fill="white" stroke="#4A63CE" stroke-width="1.3009" stroke-linecap="round" stroke-linejoin="round"/>
<path d="M41.9428 65.7883L19.7546 53.0056L1.8125 63.5325L24.0007 76.3178L41.9428 65.7883Z" fill="white" stroke="#4A63CE" stroke-width="0.520362" stroke-linecap="round" stroke-linejoin="round"/>
<path d="M41.9428 65.7883L19.7546 53.0056L1.8125 63.5325L24.0007 76.3178L41.9428 65.7883Z" fill="white" stroke="#4A63CE" stroke-width="1.3009" stroke-linecap="round" stroke-linejoin="round"/>
<path d="M6.02344 63.5172L19.761 55.4568L37.7239 65.8068L23.9863 73.8672L6.02344 63.5172Z" fill="white" stroke="#4A63CE" stroke-width="0.520362" stroke-linecap="round" stroke-linejoin="round"/>
<path d="M5.6875 63.5172L19.4225 55.4568L37.3854 65.8068L23.6504 73.8672L5.6875 63.5172Z" fill="white" stroke="#4A63CE" stroke-width="0.520362" stroke-linecap="round" stroke-linejoin="round"/>
<path d="M5.6875 61.3961L19.4225 53.3357L37.3854 63.6857L23.6504 71.7487L5.6875 61.3961Z" fill="white" stroke="#4A63CE" stroke-width="0.520362" stroke-linecap="round" stroke-linejoin="round"/>
<path d="M23.6562 71.7483V73.8662L37.3912 65.8058V63.6853L23.6562 71.7483Z" fill="white" stroke="#4A63CE" stroke-width="0.520362" stroke-linecap="round" stroke-linejoin="round"/>
<path d="M5.6875 61.3962V63.5167L23.6504 73.8667V71.7488L5.6875 61.3962Z" fill="white" stroke="#4A63CE" stroke-width="0.520362" stroke-linecap="round" stroke-linejoin="round"/>
<path d="M18.332 142.056C19.6228 141.323 19.677 138.982 18.453 136.826C17.229 134.671 15.1904 133.518 13.8996 134.251C12.6089 134.984 12.5547 137.325 13.7787 139.481C15.0027 141.636 17.0413 142.789 18.332 142.056Z" fill="#4A63CE" stroke="#4A63CE" stroke-width="0.520362" stroke-linecap="round" stroke-linejoin="round"/>
<path d="M17.3285 140.293C18.0357 139.892 18.0649 138.608 17.3937 137.426C16.7225 136.244 15.605 135.611 14.8978 136.013C14.1905 136.414 14.1613 137.698 14.8326 138.88C15.5038 140.062 16.6213 140.695 17.3285 140.293Z" fill="white" stroke="#4A63CE" stroke-width="0.520362" stroke-linecap="round" stroke-linejoin="round"/>
<path d="M135.793 121.59L42.7678 174.196C39.9516 175.787 36.7655 176.609 33.5307 176.577C30.2959 176.546 27.1265 175.662 24.3418 174.016L2.5204 161.111C1.95024 160.773 1.47827 160.293 1.15128 159.716C0.824293 159.14 0.65365 158.488 0.65628 157.825C0.658909 157.163 0.83472 156.512 1.16627 155.939C1.49782 155.365 1.97359 154.888 2.54641 154.555L7.33114 151.781C8.25435 151.244 9.02061 150.475 9.55341 149.549C10.0862 148.624 10.3669 147.575 10.3675 146.507V143.609C10.3669 142.76 10.6045 141.927 11.0534 141.207C11.5024 140.486 12.1445 139.906 12.9068 139.532L15.7428 138.137" stroke="#4A63CE" stroke-width="1.3009" stroke-linecap="round" stroke-linejoin="round"/>
<path d="M235.265 83.8409V164.567C235.266 165.603 234.994 166.621 234.477 167.518C233.96 168.416 233.216 169.161 232.319 169.68C231.422 170.198 230.405 170.471 229.369 170.472C228.333 170.472 227.316 170.2 226.419 169.682L119.687 108.54C116.048 106.445 113.026 103.428 110.924 99.7933C108.823 96.1582 107.718 92.0334 107.719 87.8346V6.5567C107.72 5.52194 107.993 4.50562 108.511 3.60987C109.029 2.71412 109.774 1.97049 110.67 1.4537C111.566 0.936914 112.583 0.665167 113.618 0.665772C114.653 0.666378 115.669 0.939312 116.565 1.45715L223.367 63.1877C226.984 65.2871 229.988 68.2998 232.076 71.9242C234.164 75.5487 235.263 79.658 235.265 83.8409Z" fill="white" stroke="#4A63CE" stroke-width="1.3009" stroke-linecap="round" stroke-linejoin="round"/>
<path d="M231.437 86.8167V167.546C231.437 168.581 231.165 169.599 230.648 170.496C230.131 171.393 229.386 172.138 228.49 172.656C227.593 173.174 226.576 173.447 225.54 173.448C224.505 173.448 223.487 173.176 222.59 172.658L115.867 111.529C112.228 109.434 109.205 106.416 107.104 102.781C105.003 99.1451 103.897 95.02 103.898 90.8209V9.53258C103.898 8.49583 104.172 7.47741 104.691 6.57994C105.21 5.68246 105.956 4.93765 106.855 4.42056C107.753 3.90346 108.772 3.63234 109.809 3.63453C110.846 3.63673 111.864 3.91214 112.76 4.43303L219.562 66.1636C223.175 68.266 226.174 71.2799 228.258 74.9042C230.342 78.5284 231.438 82.6361 231.437 86.8167Z" fill="white" stroke="#4A63CE" stroke-width="1.56109" stroke-linecap="round" stroke-linejoin="round"/>
<path d="M225.528 169.981C226.173 169.977 226.79 169.719 227.245 169.262C227.7 168.806 227.956 168.188 227.958 167.543V86.8143C227.953 83.242 227.014 79.7332 225.234 76.6361C223.454 73.5389 220.895 70.961 217.811 69.1584L111.01 7.43044C110.642 7.20962 110.221 7.09189 109.792 7.0896C109.145 7.09029 108.525 7.34763 108.067 7.80516C107.61 8.2627 107.352 8.88305 107.352 9.53009V90.8185C107.358 94.4062 108.308 97.9292 110.105 101.034C111.903 104.14 114.485 106.718 117.592 108.511L224.316 169.645C224.683 169.863 225.102 169.979 225.528 169.981Z" fill="white" stroke="#4A63CE" stroke-width="0.520362" stroke-linecap="round" stroke-linejoin="round"/>
<path d="M225.528 169.981C226.173 169.977 226.79 169.719 227.245 169.262C227.7 168.806 227.956 168.188 227.958 167.543V86.8143C227.953 83.242 227.014 79.7332 225.234 76.6361C223.454 73.5389 220.895 70.961 217.811 69.1584L111.01 7.43044C110.642 7.20962 110.221 7.09189 109.792 7.0896C109.145 7.09029 108.525 7.34763 108.067 7.80516C107.61 8.2627 107.352 8.88305 107.352 9.53009V90.8185C107.358 94.4062 108.308 97.9292 110.105 101.034C111.903 104.14 114.485 106.718 117.592 108.511L224.316 169.645C224.683 169.863 225.102 169.979 225.528 169.981Z" fill="white" stroke="#4A63CE" stroke-width="0.520362" stroke-linecap="round" stroke-linejoin="round"/>
<path opacity="0.24" d="M220.587 154.788L170.188 126.361V116.295L220.587 144.725V154.788Z" fill="#4A63CE" stroke="#4A63CE" stroke-width="0.520362" stroke-linecap="round" stroke-linejoin="round"/>
<path opacity="0.24" d="M220.587 161.03L170.188 132.603V129.244L220.587 157.671V161.03Z" fill="#4A63CE" stroke="#4A63CE" stroke-width="0.520362" stroke-linecap="round" stroke-linejoin="round"/>
<path d="M163.121 71.7484L160.485 61.8511L155.716 59.1479L149.399 51.0432L141.542 47.9705L132.453 53.3354L127.398 40.8207L121.299 36.3144L118.359 26.4431" stroke="white" stroke-width="0.520362" stroke-linecap="round" stroke-linejoin="round"/>
<path d="M142.096 49.5481C142.536 49.2983 142.554 48.5002 142.137 47.7655C141.72 47.0307 141.025 46.6376 140.585 46.8874C140.146 47.1371 140.127 47.9352 140.544 48.6699C140.962 49.4047 141.656 49.7978 142.096 49.5481Z" fill="white"/>
<path d="M128.229 42.3625C128.669 42.1128 128.687 41.3147 128.27 40.5799C127.853 39.8452 127.158 39.4521 126.718 39.7018C126.278 39.9516 126.26 40.7497 126.677 41.4844C127.095 42.2191 127.789 42.6123 128.229 42.3625Z" fill="white"/>
<path d="M133.214 54.5949C133.653 54.3452 133.672 53.5471 133.254 52.8123C132.837 52.0776 132.142 51.6845 131.703 51.9342C131.263 52.184 131.244 52.9821 131.662 53.7168C132.079 54.4515 132.774 54.8447 133.214 54.5949Z" fill="white"/>
<path d="M122.253 37.6067C122.692 37.3569 122.711 36.5588 122.294 35.8241C121.876 35.0893 121.182 34.6962 120.742 34.946C120.302 35.1957 120.284 35.9938 120.701 36.7285C121.118 37.4633 121.813 37.8564 122.253 37.6067Z" fill="white"/>
<path d="M150.089 52.4172C150.528 52.1674 150.547 51.3693 150.129 50.6346C149.712 49.8999 149.017 49.5068 148.578 49.7565C148.138 50.0063 148.119 50.8044 148.537 51.5391C148.954 52.2738 149.649 52.667 150.089 52.4172Z" fill="white"/>
<path d="M134.262 50.3411C134.965 49.9424 134.994 48.6679 134.328 47.4946C133.661 46.3213 132.552 45.6934 131.85 46.0922C131.147 46.4909 131.118 47.7654 131.785 48.9387C132.451 50.112 133.56 50.7399 134.262 50.3411Z" fill="#FF7F0B"/>
<path d="M147.098 64.8646C147.801 64.4658 147.83 63.1914 147.163 62.0181C146.497 60.8447 145.388 60.2169 144.686 60.6156C143.983 61.0144 143.954 62.2888 144.62 63.4621C145.287 64.6354 146.396 65.2633 147.098 64.8646Z" fill="#FF7F0B"/>
<path d="M155.176 65.9271C155.879 65.5283 155.908 64.2539 155.242 63.0806C154.575 61.9073 153.466 61.2794 152.764 61.6781C152.061 62.0769 152.032 63.3513 152.699 64.5246C153.365 65.6979 154.474 66.3258 155.176 65.9271Z" fill="#FF7F0B"/>
<path d="M156.479 60.3332C156.919 60.0835 156.937 59.2854 156.52 58.5506C156.103 57.8159 155.408 57.4228 154.968 57.6725C154.528 57.9223 154.51 58.7204 154.927 59.4551C155.345 60.1898 156.039 60.583 156.479 60.3332Z" fill="white"/>
<path d="M161.128 63.2004C161.567 62.9506 161.586 62.1526 161.169 61.4178C160.751 60.6831 160.057 60.2899 159.617 60.5397C159.177 60.7895 159.159 61.5876 159.576 62.3223C159.993 63.057 160.688 63.4502 161.128 63.2004Z" fill="white"/>
<path d="M166.708 54.4066C167.93 53.7127 167.981 51.495 166.822 49.4532C165.662 47.4115 163.732 46.3189 162.51 47.0128C161.288 47.7067 161.237 49.9244 162.396 51.9662C163.556 54.0079 165.486 55.1005 166.708 54.4066Z" fill="#4A63CE"/>
<path d="M166.708 66.2113C167.93 65.5173 167.981 63.2996 166.822 61.2579C165.662 59.2162 163.732 58.1236 162.51 58.8175C161.288 59.5114 161.237 61.7291 162.396 63.7709C163.556 65.8126 165.486 66.9052 166.708 66.2113Z" fill="#4A63CE"/>
<path d="M166.333 79.0839C167.556 78.3953 167.614 76.1811 166.464 74.1384C165.313 72.0956 163.39 70.9979 162.167 71.6865C160.944 72.3751 160.886 74.5893 162.036 76.632C163.187 78.6748 165.111 79.7725 166.333 79.0839Z" fill="#4A63CE"/>
<path d="M243.687 111.805L191.141 82.0635V74.781L243.687 104.525V111.805Z" fill="#4A63CE" stroke="#4A63CE" stroke-width="1.3009" stroke-linecap="round" stroke-linejoin="round"/>
<path d="M243.687 144.14L191.141 114.399V81.283L243.687 111.024V144.14Z" fill="white" stroke="#4A63CE" stroke-width="1.3009" stroke-linecap="round" stroke-linejoin="round"/>
<path d="M156.765 115.517L118.977 94.1303V22.5935L156.765 43.983V115.517Z" fill="#FF7F0B"/>
<path d="M152.153 56.8093L123.023 40.3216V32.7166L152.153 49.2016V56.8093Z" fill="white"/>
<path d="M152.153 79.1479L123.023 62.6602V60.1208L152.153 76.6085V79.1479Z" fill="white"/>
<path d="M152.153 83.6166L123.023 67.129V64.5896L152.153 81.0773V83.6166Z" fill="white"/>
<path d="M152.153 87.7534L123.023 71.2657V68.7263L152.153 85.214V87.7534Z" fill="white"/>
<path d="M196.513 81.936C196.889 81.7224 196.904 81.0398 196.547 80.4112C196.19 79.7827 195.596 79.4463 195.22 79.6599C194.844 79.8735 194.828 80.5561 195.185 81.1847C195.542 81.8132 196.136 82.1496 196.513 81.936Z" fill="white"/>
<path d="M199.7 83.7661C200.076 83.5525 200.092 82.8698 199.735 82.2413C199.378 81.6128 198.784 81.2764 198.408 81.49C198.031 81.7036 198.016 82.3862 198.373 83.0147C198.73 83.6433 199.324 83.9796 199.7 83.7661Z" fill="white"/>
<path d="M202.872 85.3364C203.248 85.1228 203.264 84.4401 202.907 83.8116C202.55 83.1831 201.956 82.8467 201.579 83.0603C201.203 83.2739 201.188 83.9565 201.545 84.5851C201.902 85.2136 202.496 85.5499 202.872 85.3364Z" fill="white"/>
<path d="M237.412 118.585L197.43 95.9549V93.8708L237.412 116.499V118.585Z" fill="#DCE6F4"/>
</g>
<defs>
<clipPath id="clip0_1742_24086">
<rect width="299" height="227.094" fill="white" transform="translate(0 -0.000244141)"/>
</clipPath>
</defs>
</svg>
