<svg width="106" height="172" viewBox="0 0 106 172" fill="none" xmlns="http://www.w3.org/2000/svg">
<g clip-path="url(#clip0_29_1785)">
<path opacity="0.7" d="M39.5566 85.4456L56.0996 76.0819V71.7617L39.5566 81.1253V85.4456Z" fill="#C4C7E8"/>
<path opacity="0.7" d="M39.5566 79.948L56.0996 70.5844V66.2656L39.5566 75.6278V79.948Z" fill="#C4C7E8"/>
<path opacity="0.7" d="M39.5566 88.124L56.0996 78.7604V77.3184L39.5566 86.682V88.124Z" fill="#C4C7E8"/>
<path opacity="0.65" d="M50.4684 142.829L0.720765 172.001L0.00195312 81.7932L49.0528 50.5176L50.4684 142.829Z" fill="url(#paint0_linear_29_1785)"/>
<path d="M5.70509 73.2976V107.944C5.70388 108.389 5.81974 108.826 6.04101 109.211C6.26228 109.597 6.58115 109.917 6.96554 110.14C7.34994 110.363 7.78629 110.481 8.23071 110.482C8.67513 110.483 9.11194 110.366 9.49718 110.145L55.3046 83.9111C56.8658 83.0116 58.1625 81.7166 59.0638 80.1564C59.9652 78.5962 60.4395 76.8261 60.439 75.0243V40.1281C60.4387 39.6834 60.3213 39.2465 60.0985 38.8616C59.8758 38.4766 59.5556 38.1571 59.1701 37.9352C58.7847 37.7134 58.3476 37.5969 57.9028 37.5977C57.458 37.5984 57.0213 37.7163 56.6366 37.9394L10.8072 64.4328C9.25517 65.3345 7.96709 66.6278 7.07173 68.1835C6.17636 69.7392 5.70511 71.5027 5.70509 73.2976Z" fill="url(#paint1_linear_29_1785)"/>
<path d="M7.34571 74.5815V109.227C7.34451 109.671 7.46037 110.108 7.68163 110.493C7.9029 110.879 8.22178 111.199 8.60617 111.422C8.99056 111.645 9.42692 111.763 9.87134 111.764C10.3158 111.765 10.7526 111.649 11.1378 111.427L56.9452 85.192C58.5085 84.2941 59.8072 82.9996 60.7103 81.4393C61.6133 79.8789 62.0887 78.108 62.0884 76.3051V41.4046C62.0886 40.9597 61.9714 40.5226 61.7488 40.1373C61.5262 39.7521 61.2059 39.4324 60.8203 39.2104C60.4347 38.9885 59.9974 38.8721 59.5524 38.8731C59.1075 38.874 58.6707 38.9923 58.286 39.2159L12.4478 65.7093C10.8947 66.6116 9.60595 67.9061 8.71052 69.4632C7.8151 71.0203 7.34445 72.7853 7.34571 74.5815Z" fill="white"/>
<path d="M9.8814 110.267C9.60385 110.266 9.33788 110.156 9.14162 109.959C8.94536 109.763 8.83476 109.497 8.83398 109.22V74.5817C8.83538 73.0464 9.23888 71.5382 10.0043 70.2074C10.7697 68.8765 11.8704 67.7693 13.1967 66.996L59.0305 40.5041C59.1883 40.4093 59.3687 40.3586 59.5528 40.3574C59.8305 40.3578 60.0966 40.4683 60.293 40.6646C60.4893 40.861 60.5998 41.1272 60.6002 41.4048V76.2922C60.5976 77.8333 60.1895 79.3466 59.417 80.6801C58.6446 82.0137 57.5349 83.1206 56.1993 83.8896L10.3992 110.123C10.2426 110.217 10.0638 110.266 9.8814 110.267Z" fill="#4D4F80"/>
<path d="M14.3711 71.2246V102.911L55.4534 79.6567" fill="url(#paint2_linear_29_1785)"/>
<path d="M60.0721 113.19L86.2339 128.3C87.6674 129.128 89.2935 129.563 90.9487 129.563C92.6039 129.563 94.23 129.128 95.6635 128.3L103.62 123.706C106.089 122.28 106.089 117.893 103.62 116.469L77.482 101.397C74.5774 99.7237 71.0039 100.536 68.0934 102.2L60.0882 106.772C59.5234 107.096 59.0537 107.562 58.7265 108.125C58.3994 108.687 58.2263 109.326 58.2246 109.977C58.223 110.627 58.3929 111.267 58.7172 111.831C59.0416 112.396 59.5089 112.864 60.0721 113.19Z" fill="#C4C7E8" stroke="#797FB2" stroke-width="0.515242" stroke-linecap="round" stroke-linejoin="round"/>
<path d="M103.619 115.832L77.481 100.761C76.054 99.938 74.4364 99.5034 72.7892 99.5C71.1421 99.4967 69.5228 99.9247 68.0924 100.742L60.0872 105.314C59.5214 105.637 59.051 106.104 58.7233 106.667C58.3956 107.23 58.2222 107.87 58.2207 108.522C58.2192 109.173 58.3897 109.814 58.7148 110.378C59.0399 110.943 59.5083 111.412 60.0725 111.738L86.2344 126.848C87.6679 127.675 89.294 128.111 90.9492 128.111C92.6044 128.111 94.2305 127.675 95.664 126.848L103.621 122.253C104.185 121.928 104.654 121.46 104.98 120.897C105.305 120.333 105.477 119.693 105.477 119.042C105.477 118.391 105.305 117.752 104.979 117.188C104.653 116.624 104.184 116.157 103.619 115.832ZM81.9009 120.233C75.6311 120.233 70.5496 117.274 70.5496 113.623C70.5496 109.972 75.6311 107.013 81.9009 107.013C88.1708 107.013 93.2523 109.972 93.2523 113.623C93.2523 117.274 88.1708 120.24 81.9009 120.24V120.233Z" fill="url(#paint3_linear_29_1785)" stroke="#797FB2" stroke-width="0.515242" stroke-linecap="round" stroke-linejoin="round"/>
<path d="M81.8994 167.289C87.4766 167.289 91.9979 164.656 91.9979 161.408C91.9979 158.16 87.4766 155.527 81.8994 155.527C76.3221 155.527 71.8008 158.16 71.8008 161.408C71.8008 164.656 76.3221 167.289 81.8994 167.289Z" fill="url(#paint4_linear_29_1785)" fill-opacity="0.2" stroke="#797FB2" stroke-width="0.515242" stroke-linecap="round" stroke-linejoin="round"/>
<path d="M81.8994 166.022C87.4766 166.022 91.9979 163.389 91.9979 160.141C91.9979 156.893 87.4766 154.26 81.8994 154.26C76.3221 154.26 71.8008 156.893 71.8008 160.141C71.8008 163.389 76.3221 166.022 81.8994 166.022Z" fill="url(#paint5_linear_29_1785)" stroke="#797FB2" stroke-width="0.515242" stroke-linecap="round" stroke-linejoin="round"/>
<path d="M88.5975 84.4434V156.43L75.5488 163.849V91.9337L88.5975 84.4434Z" fill="url(#paint6_linear_29_1785)" stroke="#797FB2" stroke-width="0.515242" stroke-linecap="round" stroke-linejoin="round"/>
<path d="M82.0742 88.1875V160.139L88.5978 163.848V91.9327L82.0742 88.1875Z" fill="url(#paint7_linear_29_1785)" stroke="#797FB2" stroke-width="0.515242" stroke-linecap="round" stroke-linejoin="round"/>
<path d="M75.6251 84.5527L75.5488 163.848L82.1487 160.214V88.2979L75.6251 84.5527Z" fill="url(#paint8_linear_29_1785)" stroke="#797FB2" stroke-width="0.515242" stroke-linecap="round" stroke-linejoin="round"/>
<path opacity="0.38" d="M75.6251 84.5527L75.5488 163.848L82.1487 160.214V88.2979L75.6251 84.5527Z" fill="white"/>
<path d="M82.0742 160.139V88.1875" stroke="#797FB2" stroke-width="0.515242" stroke-linecap="round" stroke-linejoin="round"/>
<path d="M81.8994 95.4457C87.4766 95.4457 91.9979 92.8127 91.9979 89.5647C91.9979 86.3166 87.4766 83.6836 81.8994 83.6836C76.3221 83.6836 71.8008 86.3166 71.8008 89.5647C71.8008 92.8127 76.3221 95.4457 81.8994 95.4457Z" fill="url(#paint9_linear_29_1785)" stroke="#797FB2" stroke-width="0.378703" stroke-linecap="round" stroke-linejoin="round"/>
<path d="M81.8994 94.1781C87.4766 94.1781 91.9979 91.5451 91.9979 88.2971C91.9979 85.0491 87.4766 82.416 81.8994 82.416C76.3221 82.416 71.8008 85.0491 71.8008 88.2971C71.8008 91.5451 76.3221 94.1781 81.8994 94.1781Z" fill="url(#paint10_linear_29_1785)" stroke="#797FB2" stroke-width="0.378703" stroke-linecap="round" stroke-linejoin="round"/>
<path style="mix-blend-mode:multiply" opacity="0.75" d="M88.5984 138.916L82.0748 137.146L75.582 138.916L75.651 120.594L88.8331 125.722L88.5984 138.916Z" fill="url(#paint11_linear_29_1785)"/>
<path d="M103.619 117.242L77.481 102.171C76.054 101.348 74.4364 100.914 72.7892 100.91C71.1421 100.907 69.5228 101.335 68.0924 102.152L60.0872 106.724C59.5214 107.047 59.051 107.514 58.7233 108.077C58.3956 108.641 58.2222 109.28 58.2207 109.932C58.2192 110.583 58.3897 111.224 58.7148 111.789C59.0399 112.353 59.5083 112.822 60.0725 113.148L86.2344 128.258C87.6679 129.085 89.294 129.521 90.9492 129.521C92.6044 129.521 94.2305 129.085 95.664 128.258L103.621 123.663C104.185 123.338 104.654 122.871 104.98 122.307C105.305 121.743 105.477 121.103 105.477 120.452C105.477 119.801 105.305 119.162 104.979 118.598C104.653 118.035 104.184 117.567 103.619 117.242ZM81.9009 121.643C75.6311 121.643 70.5496 118.684 70.5496 115.033C70.5496 111.382 75.6311 108.423 81.9009 108.423C88.1708 108.423 93.2523 111.382 93.2523 115.033C93.2523 118.684 88.1708 121.651 81.9009 121.651V121.643Z" fill="#D3D6F2" stroke="#797FB2" stroke-width="0.39416" stroke-linecap="round" stroke-linejoin="round"/>
<path d="M103.619 115.832L77.481 100.761C76.054 99.938 74.4364 99.5034 72.7892 99.5C71.1421 99.4967 69.5228 99.9247 68.0924 100.742L60.0872 105.314C59.5214 105.637 59.051 106.104 58.7233 106.667C58.3956 107.23 58.2222 107.87 58.2207 108.522C58.2192 109.173 58.3897 109.814 58.7148 110.378C59.0399 110.943 59.5083 111.412 60.0725 111.738L86.2344 126.848C87.6679 127.675 89.294 128.111 90.9492 128.111C92.6044 128.111 94.2305 127.675 95.664 126.848L103.621 122.253C104.185 121.928 104.654 121.46 104.98 120.897C105.305 120.333 105.477 119.693 105.477 119.042C105.477 118.391 105.305 117.752 104.979 117.188C104.653 116.624 104.184 116.157 103.619 115.832ZM81.9009 120.233C75.6311 120.233 70.5496 117.274 70.5496 113.623C70.5496 109.972 75.6311 107.013 81.9009 107.013C88.1708 107.013 93.2523 109.972 93.2523 113.623C93.2523 117.274 88.1708 120.24 81.9009 120.24V120.233Z" fill="url(#paint12_linear_29_1785)" stroke="#797FB2" stroke-width="0.378703" stroke-linecap="round" stroke-linejoin="round"/>
<path d="M81.9019 32.0982C82.0882 32.0982 82.2393 32.0102 82.2393 31.9017C82.2393 31.7931 82.0882 31.7051 81.9019 31.7051C81.7155 31.7051 81.5645 31.7931 81.5645 31.9017C81.5645 32.0102 81.7155 32.0982 81.9019 32.0982Z" fill="#627BFD" stroke="#4A63CE" stroke-width="0.0566767" stroke-linecap="round" stroke-linejoin="round"/>
<path d="M70.6021 51.0957V112.959C70.5681 113.169 70.5509 113.381 70.5508 113.594C70.5508 117.262 75.6323 120.241 81.9021 120.241C88.1719 120.241 93.2535 117.265 93.2535 113.594V51.1016" fill="url(#paint13_linear_29_1785)" fill-opacity="0.2"/>
<path d="M70.6021 51.0957V112.959C70.5681 113.169 70.5509 113.381 70.5508 113.594C70.5508 117.262 75.6323 120.241 81.9021 120.241C88.1719 120.241 93.2535 117.265 93.2535 113.594V51.1016" stroke="#7C87C4" stroke-width="0.515242" stroke-linecap="round" stroke-linejoin="round"/>
<path d="M71.9239 47.6953C71.0437 48.6327 70.5508 49.708 70.5508 50.8508C70.5508 54.502 75.6323 57.4609 81.9021 57.4609C88.1719 57.4609 93.2535 54.502 93.2535 50.8508C93.2535 49.7095 92.7577 48.6371 91.8834 47.6997" fill="url(#paint14_linear_29_1785)" fill-opacity="0.2"/>
<path d="M71.9239 47.6953C71.0437 48.6327 70.5508 49.708 70.5508 50.8508C70.5508 54.502 75.6323 57.4609 81.9021 57.4609C88.1719 57.4609 93.2535 54.502 93.2535 50.8508C93.2535 49.7095 92.7577 48.6371 91.8834 47.6997" stroke="#7C87C4" stroke-width="0.515242" stroke-linecap="round" stroke-linejoin="round"/>
<path d="M81.9009 56.4352C87.876 56.4352 92.7197 53.6143 92.7197 50.1346C92.7197 46.6549 87.876 43.834 81.9009 43.834C75.9258 43.834 71.082 46.6549 71.082 50.1346C71.082 53.6143 75.9258 56.4352 81.9009 56.4352Z" fill="url(#paint15_linear_29_1785)"/>
<path style="mix-blend-mode:multiply" d="M80.951 51.0955C80.951 51.0955 78.0728 50.6422 76.3051 49.8573C76.3051 49.8573 75.3706 51.584 74.6122 51.0955C73.8538 50.607 69.2695 49.0843 69.2695 49.0843L73.8846 43.834L78.6698 45.8276L80.951 51.0955Z" fill="url(#paint16_linear_29_1785)"/>
<path d="M81.9009 56.4352C87.876 56.4352 92.7197 53.6143 92.7197 50.1346C92.7197 46.6549 87.876 43.834 81.9009 43.834C75.9258 43.834 71.082 46.6549 71.082 50.1346C71.082 53.6143 75.9258 56.4352 81.9009 56.4352Z" stroke="#797FB2" stroke-width="0.515242" stroke-linecap="round" stroke-linejoin="round"/>
<path d="M81.8999 51.0979C83.5737 51.0979 84.9306 50.3078 84.9306 49.3331C84.9306 48.3585 83.5737 47.5684 81.8999 47.5684C80.226 47.5684 78.8691 48.3585 78.8691 49.3331C78.8691 50.3078 80.226 51.0979 81.8999 51.0979Z" fill="url(#paint17_linear_29_1785)" fill-opacity="0.2" stroke="#797FB2" stroke-width="0.110777" stroke-linecap="round" stroke-linejoin="round"/>
<path d="M81.8999 45.5315C83.5737 45.5315 84.9306 44.7414 84.9306 43.7667C84.9306 42.7921 83.5737 42.002 81.8999 42.002C80.226 42.002 78.8691 42.7921 78.8691 43.7667C78.8691 44.7414 80.226 45.5315 81.8999 45.5315Z" fill="url(#paint18_linear_29_1785)" fill-opacity="0.2" stroke="#797FB2" stroke-width="0.515242" stroke-linecap="round" stroke-linejoin="round"/>
<path d="M78.8691 43.7754V49.3396C78.8691 50.3151 80.2261 51.0999 81.8999 51.0999C83.5737 51.0999 84.9306 50.3107 84.9306 49.3396V43.7754H78.8691Z" fill="url(#paint19_linear_29_1785)" stroke="#797FB2" stroke-width="0.515242" stroke-linecap="round" stroke-linejoin="round"/>
<path d="M81.9001 47.9138C84.3873 47.9138 86.4036 46.7395 86.4036 45.2909C86.4036 43.8423 84.3873 42.668 81.9001 42.668C79.4128 42.668 77.3965 43.8423 77.3965 45.2909C77.3965 46.7395 79.4128 47.9138 81.9001 47.9138Z" fill="#627BFD" stroke="#4A63CE" stroke-width="0.765135" stroke-linecap="round" stroke-linejoin="round"/>
<path d="M81.9001 46.6248C84.3873 46.6248 86.4036 45.4504 86.4036 44.0018C86.4036 42.5532 84.3873 41.3789 81.9001 41.3789C79.4128 41.3789 77.3965 42.5532 77.3965 44.0018C77.3965 45.4504 79.4128 46.6248 81.9001 46.6248Z" fill="#627BFD" stroke="#4A63CE" stroke-width="0.765135" stroke-linecap="round" stroke-linejoin="round"/>
<path d="M85.1334 44.0028V39.2411L83.7266 31.9062H80.0768L78.6699 39.2411V44.0028C78.6699 45.0414 80.1163 45.8849 81.8972 45.8849C83.6781 45.8849 85.1246 45.0414 85.1246 44.0028H85.1334Z" fill="#627BFD" stroke="#4A63CE" stroke-width="0.548733" stroke-linecap="round" stroke-linejoin="round"/>
<path d="M81.9022 33.0091C82.9538 33.0091 83.8063 32.5125 83.8063 31.9C83.8063 31.2875 82.9538 30.791 81.9022 30.791C80.8505 30.791 79.998 31.2875 79.998 31.9C79.998 32.5125 80.8505 33.0091 81.9022 33.0091Z" fill="#627BFD" stroke="#4A63CE" stroke-width="0.515242" stroke-linecap="round" stroke-linejoin="round"/>
<path d="M82.1286 0.0664062H81.6738V31.901H82.1286V0.0664062Z" fill="#C4C7E8" stroke="#4A63CE" stroke-width="0.229283" stroke-linecap="round" stroke-linejoin="round"/>
<path opacity="0.5" d="M77.2008 57.1238V118.736C77.2008 118.736 74.9827 118.906 73.4219 117.307V55.6055C73.4219 55.6055 73.7065 56.6221 77.2008 57.1238Z" fill="white"/>
<path d="M81.666 68.2722C87.9358 68.2722 93.0174 65.3134 93.0174 61.6621" stroke="#627BFD" stroke-width="1.28811" stroke-linecap="round" stroke-linejoin="round"/>
<path d="M81.666 74.816C84.2757 74.816 86.6801 74.3025 88.5974 73.4414" stroke="#627BFD" stroke-width="1.28811" stroke-linecap="round" stroke-linejoin="round"/>
<path d="M81.666 87.04C84.2757 87.04 86.6801 86.5266 88.5974 85.6641" stroke="#627BFD" stroke-width="1.28811" stroke-linecap="round" stroke-linejoin="round"/>
<path d="M81.666 98.564C84.2757 98.564 86.6801 98.0506 88.5974 97.1895" stroke="#627BFD" stroke-width="1.28811" stroke-linecap="round" stroke-linejoin="round"/>
<path d="M81.666 80.6062C87.9358 80.6062 93.0174 77.6459 93.0174 73.9961" stroke="#627BFD" stroke-width="1.28811" stroke-linecap="round" stroke-linejoin="round"/>
<path d="M81.666 92.2801C87.9358 92.2801 93.0174 89.3197 93.0174 85.6699" stroke="#627BFD" stroke-width="1.28811" stroke-linecap="round" stroke-linejoin="round"/>
<path d="M81.666 103.85C87.9358 103.85 93.0174 100.892 93.0174 97.2402" stroke="#627BFD" stroke-width="1.28811" stroke-linecap="round" stroke-linejoin="round"/>
<path d="M83.2734 33.6523L83.7972 39.8473V44.3847C83.7972 44.3847 84.0099 44.4947 84.3399 44.0032V39.6669L83.2734 33.6523Z" fill="url(#paint20_linear_29_1785)"/>
<path d="M18.5332 67.8379V100.463" stroke="white" stroke-width="0.257621" stroke-miterlimit="10"/>
<path d="M23.6914 64.9727V97.5965" stroke="white" stroke-width="0.257621" stroke-miterlimit="10"/>
<path d="M28.6035 62.293V94.9168" stroke="white" stroke-width="0.257621" stroke-miterlimit="10"/>
<path d="M33.7617 59.3164V91.9402" stroke="white" stroke-width="0.257621" stroke-miterlimit="10"/>
<path d="M38.9199 56.4512V89.075" stroke="white" stroke-width="0.257621" stroke-miterlimit="10"/>
<path d="M43.832 53.7676V86.3914" stroke="white" stroke-width="0.257621" stroke-miterlimit="10"/>
<path d="M48.6367 50.9941V83.6179" stroke="white" stroke-width="0.257621" stroke-miterlimit="10"/>
<path d="M53.7949 48.1289V80.7527" stroke="white" stroke-width="0.257621" stroke-miterlimit="10"/>
<path d="M15.5996 102.009L20.7531 89.223L27.7182 85.3194L30.1739 74.8394L41.5649 68.5374L53.6732 52.4727" stroke="#FF7F0B" stroke-width="4.12194" stroke-miterlimit="10"/>
<path d="M49.3262 51.9665L55.0679 56.5551L55.1764 50.5039L49.3262 51.9665Z" fill="#FF7F0B"/>
</g>
<defs>
<linearGradient id="paint0_linear_29_1785" x1="37.854" y1="167.335" x2="9.41839" y2="44.3725" gradientUnits="userSpaceOnUse">
<stop offset="0.3" stop-color="#627BFD" stop-opacity="0"/>
<stop offset="0.31" stop-color="#627BFD" stop-opacity="0.03"/>
<stop offset="0.43" stop-color="#627BFD" stop-opacity="0.29"/>
<stop offset="0.54" stop-color="#627BFD" stop-opacity="0.5"/>
<stop offset="0.64" stop-color="#627BFD" stop-opacity="0.68"/>
<stop offset="0.75" stop-color="#627BFD" stop-opacity="0.82"/>
<stop offset="0.84" stop-color="#627BFD" stop-opacity="0.92"/>
<stop offset="0.93" stop-color="#627BFD" stop-opacity="0.98"/>
<stop offset="1" stop-color="#627BFD"/>
</linearGradient>
<linearGradient id="paint1_linear_29_1785" x1="5.70509" y1="74.0355" x2="60.4463" y2="74.0355" gradientUnits="userSpaceOnUse">
<stop offset="0.02" stop-color="#D7DDF4"/>
<stop offset="0.18" stop-color="#CDD3ED"/>
<stop offset="0.7" stop-color="#AEB4DA"/>
<stop offset="1" stop-color="#A3A9D3"/>
</linearGradient>
<linearGradient id="paint2_linear_29_1785" x1="36.6689" y1="98.8798" x2="28.4994" y2="63.5583" gradientUnits="userSpaceOnUse">
<stop stop-color="#627BFD"/>
<stop offset="0.07" stop-color="#627BFD" stop-opacity="0.98"/>
<stop offset="0.16" stop-color="#627BFD" stop-opacity="0.92"/>
<stop offset="0.25" stop-color="#627BFD" stop-opacity="0.82"/>
<stop offset="0.36" stop-color="#627BFD" stop-opacity="0.68"/>
<stop offset="0.46" stop-color="#627BFD" stop-opacity="0.5"/>
<stop offset="0.57" stop-color="#627BFD" stop-opacity="0.29"/>
<stop offset="0.69" stop-color="#627BFD" stop-opacity="0.03"/>
<stop offset="0.7" stop-color="#627BFD" stop-opacity="0"/>
</linearGradient>
<linearGradient id="paint3_linear_29_1785" x1="48586.8" y1="35043.8" x2="63807.9" y2="35043.8" gradientUnits="userSpaceOnUse">
<stop stop-color="#A0B1F9"/>
<stop offset="0.32" stop-color="#ABB9F7"/>
<stop offset="0.88" stop-color="#CACFF0"/>
<stop offset="0.98" stop-color="#D0D4EF"/>
</linearGradient>
<linearGradient id="paint4_linear_29_1785" x1="71.8008" y1="161.408" x2="91.9965" y2="161.408" gradientUnits="userSpaceOnUse">
<stop stop-color="#627BFD"/>
<stop offset="0.16" stop-color="#6D84FC"/>
<stop offset="0.46" stop-color="#8C9DF8"/>
<stop offset="0.84" stop-color="#BDC5F1"/>
<stop offset="0.98" stop-color="#D0D4EF"/>
</linearGradient>
<linearGradient id="paint5_linear_29_1785" x1="9957.3" y1="12994.2" x2="12737.8" y2="12994.2" gradientUnits="userSpaceOnUse">
<stop stop-color="#A0B1F9"/>
<stop offset="0.32" stop-color="#ABB9F7"/>
<stop offset="0.88" stop-color="#CACFF0"/>
<stop offset="0.98" stop-color="#D0D4EF"/>
</linearGradient>
<linearGradient id="paint6_linear_29_1785" x1="7375.88" y1="88773.8" x2="7375.88" y2="45792.5" gradientUnits="userSpaceOnUse">
<stop stop-color="#A0B1F9"/>
<stop offset="0.32" stop-color="#ABB9F7"/>
<stop offset="0.88" stop-color="#CACFF0"/>
<stop offset="0.98" stop-color="#D0D4EF"/>
</linearGradient>
<linearGradient id="paint7_linear_29_1785" x1="14328.1" y1="118243" x2="14328.1" y2="79220" gradientUnits="userSpaceOnUse">
<stop stop-color="#A0B1F9"/>
<stop offset="0.32" stop-color="#ABB9F7"/>
<stop offset="0.88" stop-color="#CACFF0"/>
<stop offset="0.98" stop-color="#D0D4EF"/>
</linearGradient>
<linearGradient id="paint8_linear_29_1785" x1="14214.2" y1="123920" x2="14214.2" y2="81057.3" gradientUnits="userSpaceOnUse">
<stop stop-color="#A0B1F9"/>
<stop offset="0.32" stop-color="#ABB9F7"/>
<stop offset="0.88" stop-color="#CACFF0"/>
<stop offset="0.98" stop-color="#D0D4EF"/>
</linearGradient>
<linearGradient id="paint9_linear_29_1785" x1="9957.3" y1="7265.05" x2="12737.8" y2="7265.05" gradientUnits="userSpaceOnUse">
<stop stop-color="#A0B1F9"/>
<stop offset="0.32" stop-color="#ABB9F7"/>
<stop offset="0.88" stop-color="#CACFF0"/>
<stop offset="0.98" stop-color="#D0D4EF"/>
</linearGradient>
<linearGradient id="paint10_linear_29_1785" x1="9957.3" y1="7162.03" x2="12737.8" y2="7162.03" gradientUnits="userSpaceOnUse">
<stop stop-color="#A0B1F9"/>
<stop offset="0.32" stop-color="#ABB9F7"/>
<stop offset="0.88" stop-color="#CACFF0"/>
<stop offset="0.98" stop-color="#D0D4EF"/>
</linearGradient>
<linearGradient id="paint11_linear_29_1785" x1="82.2068" y1="138.916" x2="82.2068" y2="120.594" gradientUnits="userSpaceOnUse">
<stop stop-color="#627BFD" stop-opacity="0"/>
<stop offset="0.05" stop-color="#627BFD" stop-opacity="0.05"/>
<stop offset="0.52" stop-color="#627BFD" stop-opacity="0.53"/>
<stop offset="0.85" stop-color="#627BFD" stop-opacity="0.84"/>
<stop offset="1" stop-color="#627BFD" stop-opacity="0.96"/>
</linearGradient>
<linearGradient id="paint12_linear_29_1785" x1="48586.8" y1="35043.8" x2="63807.9" y2="35043.8" gradientUnits="userSpaceOnUse">
<stop stop-color="#A0B1F9"/>
<stop offset="0.32" stop-color="#ABB9F7"/>
<stop offset="0.88" stop-color="#CACFF0"/>
<stop offset="0.98" stop-color="#D0D4EF"/>
</linearGradient>
<linearGradient id="paint13_linear_29_1785" x1="25292.6" y1="71242.4" x2="28806.1" y2="71242.4" gradientUnits="userSpaceOnUse">
<stop stop-color="#627BFD"/>
<stop offset="0.16" stop-color="#6D84FC"/>
<stop offset="0.46" stop-color="#8C9DF8"/>
<stop offset="0.84" stop-color="#BDC5F1"/>
<stop offset="0.98" stop-color="#D0D4EF"/>
</linearGradient>
<linearGradient id="paint14_linear_29_1785" x1="25292.6" y1="7899.32" x2="28806.1" y2="7899.32" gradientUnits="userSpaceOnUse">
<stop stop-color="#627BFD"/>
<stop offset="0.16" stop-color="#6D84FC"/>
<stop offset="0.46" stop-color="#8C9DF8"/>
<stop offset="0.84" stop-color="#BDC5F1"/>
<stop offset="0.98" stop-color="#D0D4EF"/>
</linearGradient>
<linearGradient id="paint15_linear_29_1785" x1="163.509" y1="115.502" x2="185.147" y2="115.502" gradientUnits="userSpaceOnUse">
<stop stop-color="#A0B1F9"/>
<stop offset="0.32" stop-color="#ABB9F7"/>
<stop offset="0.88" stop-color="#CACFF0"/>
<stop offset="0.98" stop-color="#D0D4EF"/>
</linearGradient>
<linearGradient id="paint16_linear_29_1785" x1="69.2695" y1="47.5087" x2="80.951" y2="47.5087" gradientUnits="userSpaceOnUse">
<stop stop-color="#627BFD" stop-opacity="0"/>
<stop offset="0.13" stop-color="#627BFD" stop-opacity="0.02"/>
<stop offset="0.26" stop-color="#627BFD" stop-opacity="0.06"/>
<stop offset="0.39" stop-color="#627BFD" stop-opacity="0.14"/>
<stop offset="0.51" stop-color="#627BFD" stop-opacity="0.25"/>
<stop offset="0.64" stop-color="#627BFD" stop-opacity="0.4"/>
<stop offset="0.77" stop-color="#627BFD" stop-opacity="0.57"/>
<stop offset="0.9" stop-color="#627BFD" stop-opacity="0.78"/>
<stop offset="1" stop-color="#627BFD" stop-opacity="0.96"/>
</linearGradient>
<linearGradient id="paint17_linear_29_1785" x1="3337.71" y1="1234.51" x2="3588.11" y2="1234.51" gradientUnits="userSpaceOnUse">
<stop stop-color="#627BFD"/>
<stop offset="0.16" stop-color="#6D84FC"/>
<stop offset="0.46" stop-color="#8C9DF8"/>
<stop offset="0.84" stop-color="#BDC5F1"/>
<stop offset="0.98" stop-color="#D0D4EF"/>
</linearGradient>
<linearGradient id="paint18_linear_29_1785" x1="3337.71" y1="1095.03" x2="3588.11" y2="1095.03" gradientUnits="userSpaceOnUse">
<stop stop-color="#627BFD"/>
<stop offset="0.16" stop-color="#6D84FC"/>
<stop offset="0.46" stop-color="#8C9DF8"/>
<stop offset="0.84" stop-color="#BDC5F1"/>
<stop offset="0.98" stop-color="#D0D4EF"/>
</linearGradient>
<linearGradient id="paint19_linear_29_1785" x1="7156.83" y1="5675.84" x2="7407.29" y2="5675.84" gradientUnits="userSpaceOnUse">
<stop stop-color="#A0B1F9"/>
<stop offset="0.32" stop-color="#ABB9F7"/>
<stop offset="0.88" stop-color="#CACFF0"/>
<stop offset="0.98" stop-color="#D0D4EF"/>
</linearGradient>
<linearGradient id="paint20_linear_29_1785" x1="83.8059" y1="44.3935" x2="83.8059" y2="33.6509" gradientUnits="userSpaceOnUse">
<stop stop-color="white" stop-opacity="0"/>
<stop offset="0.05" stop-color="white" stop-opacity="0.04"/>
<stop offset="0.13" stop-color="white" stop-opacity="0.16"/>
<stop offset="0.25" stop-color="white" stop-opacity="0.36"/>
<stop offset="0.39" stop-color="white" stop-opacity="0.63"/>
<stop offset="0.54" stop-color="white" stop-opacity="0.97"/>
<stop offset="0.56" stop-color="white"/>
<stop offset="0.98" stop-color="white" stop-opacity="0"/>
</linearGradient>
<clipPath id="clip0_29_1785">
<rect width="105.617" height="172" fill="white"/>
</clipPath>
</defs>
</svg>
