<svg width="189" height="149" viewBox="0 0 189 149" fill="none" xmlns="http://www.w3.org/2000/svg">
<g clip-path="url(#clip0_29_1703)">
<path opacity="0.4" d="M121.124 181.66L11.8468 148.762L30.7052 130.37L79.6076 143.607L89.9633 147.609L97.4047 138.147L0 109.622L19.8536 91.832L110.913 124.009L167.186 158.706L171.163 169.145L112.12 146.928L109.438 155.375C109.438 155.375 115.284 180.753 115.353 176.877C115.423 173 121.124 181.66 121.124 181.66Z" fill="url(#paint0_linear_29_1703)"/>
<path d="M155.566 29.5322L160.855 51.4893L177.592 71.771C177.592 71.771 173.566 75.2403 173.264 78.1493L150.247 58.4749L142.812 31.079L149.109 21.8664C153.266 21.4662 154.945 26.9798 155.566 29.5322Z" fill="#DCE6F4"/>
<path opacity="0.42" d="M155.566 29.5322L160.855 51.4893L177.592 71.771C177.592 71.771 173.566 75.2403 173.264 78.1493L150.247 58.4749L142.812 31.079L149.109 21.8664C153.266 21.4662 154.945 26.9798 155.566 29.5322Z" fill="#8FA4F7"/>
<path d="M156.827 79.7144C156.885 74.1173 155.465 70.4705 155.465 70.4705C155.465 70.4705 129.101 65.9086 125.934 79.5579C125.177 82.764 125.109 86.0944 125.734 89.3289L121.67 119.383L107.375 147.199L111.725 150.395L134.99 120.582L143.676 97.9639C148.149 107.585 153.833 120.582 153.833 120.582L160.126 160.998C165.852 160.302 167.185 158.706 167.185 158.706L169.393 113.565L156.827 79.7144Z" fill="#8FA4F7"/>
<path opacity="0.3" d="M157.079 75.1319C157.667 76.9531 157.656 78.9146 157.048 80.7291C156.749 81.6095 152.021 83.0936 151.089 83.5129C148.991 84.4559 146.871 85.3554 144.712 86.1557C142.573 86.9625 140.388 87.6456 138.17 88.2018C136.256 88.6751 134.169 88.5498 133.492 90.7438C131.134 98.4456 129.137 106.246 127.501 114.145C127.187 115.666 126.322 117.303 124.987 118.1C124.718 118.287 124.397 118.387 124.069 118.387C123.561 118.348 123.18 117.913 122.903 117.485C121.685 115.587 121.361 113.223 121.52 110.968C121.678 108.713 122.273 106.516 122.729 104.301C123.386 101.122 123.762 97.8911 123.853 94.6462C123.923 92.1582 123.829 89.6355 124.411 87.2171C124.514 86.7943 124.65 86.3471 124.97 86.0583C125.29 85.7695 125.666 85.6807 126.064 85.592C131.394 84.3741 137.128 84.4803 141.998 81.9957C146.67 79.6138 150.358 74.9423 155.569 74.3751C156.303 74.2951 157.342 74.4429 157.079 75.1319Z" fill="#4A63CE"/>
<path opacity="0.3" d="M143.114 98.5422C144.158 96.7327 145.238 94.9459 146.355 93.1816C146.355 93.1816 153.885 108.694 158.392 117.155C160.048 120.264 162.555 152.172 163.632 163.025C161.823 162.752 158.828 161.682 157.021 161.409C156.648 161.353 156.26 161.289 155.961 161.061C155.423 160.655 155.352 159.888 155.321 159.215C154.607 144.262 149.985 129.811 147.479 115.047C146.524 109.422 145.825 103.588 143.006 98.6292C143.375 98.8171 142.766 98.3578 143.114 98.5422Z" fill="#4A63CE"/>
<path d="M122.939 55.1441C123.195 51.9445 123.647 48.8284 122.993 45.7018C122.348 42.5855 122.184 39.389 122.506 36.223C122.942 31.6002 125.688 31.5045 128.628 28.7259C132.887 24.6999 139.32 25.0061 144.635 22.5442C145.679 22.057 146.765 21.5473 147.922 21.4742C148.546 21.4387 149.17 21.5315 149.757 21.747C150.344 21.9624 150.881 22.2959 151.333 22.7269C153.687 24.9887 153.844 30.4345 154.465 33.5053C155.379 37.9988 156.087 42.5283 156.59 47.0937C157.616 56.3861 157.779 65.7536 157.077 75.076L157.446 73.9694C157.78 75.2587 155.814 76.9446 154.77 77.7728C146.418 84.4156 135.396 87.6187 124.778 86.4947L126.123 86.1137C124.538 85.1777 124.091 83.9684 123.823 82.1468C122.513 73.2078 122.216 64.1496 122.939 55.1441Z" fill="#DCE6F4"/>
<path opacity="0.3" d="M133.744 41.595C132.316 48.5109 132.338 55.6339 132.366 62.6943C132.384 67.1553 132.405 71.6442 133.236 76.0269C133.584 77.8225 134.063 79.6163 134.976 81.2048C135.463 82.0556 136.109 82.8733 137.012 83.2526C137.915 83.6319 138.926 83.5258 139.898 83.3796C145.791 82.4871 151.679 80.1956 155.731 75.8216C156.427 75.0717 157.224 74.4889 157.848 73.6799C157.967 73.5045 158.114 73.3494 158.282 73.2205C158.367 73.1568 158.467 73.1165 158.572 73.1037C158.677 73.0909 158.784 73.106 158.882 73.1475C159.108 73.2658 159.185 73.5459 159.23 73.7947C159.354 74.2766 159.39 74.7771 159.336 75.2718C159.233 75.9017 158.866 76.4584 158.445 76.9404C158.024 77.4223 157.546 77.8503 157.154 78.3531C156.963 78.5967 156.806 78.983 157.045 79.1813C152.469 83.5605 146.317 85.7771 140.253 87.6162C134.397 89.3943 128.145 91.0681 122.239 89.4674C121.428 89.2482 120.594 88.9454 120.041 88.3104C119.58 87.7884 119.366 87.0925 119.189 86.4139C117.952 81.6857 117.869 76.7298 118.945 71.9626C119.641 68.8952 120.821 65.8922 120.878 62.7413C120.901 61.5234 120.753 60.3055 120.864 59.0876C120.975 57.8697 121.341 56.7162 121.776 55.587C123.749 50.4561 127.133 46.0177 130.475 41.6419C130.973 40.9912 131.587 40.2779 132.406 40.2657C133.226 40.2535 133.845 41.5358 133.102 41.8942C133.076 41.3548 133.774 42.1326 133.744 41.595Z" fill="#8FA4F7"/>
<path opacity="0.42" d="M148.45 27.8016C148.497 28.6837 148.375 29.6267 147.822 30.3157C147.211 31.0743 146.204 31.3788 145.249 31.5719C141.277 32.3692 137.159 31.9664 133.417 30.4149C132.071 29.8546 130.634 28.9482 130.413 27.5058C130.274 26.6011 130.669 25.679 131.269 24.9882C131.869 24.2975 132.661 23.8034 133.442 23.3336C134.834 22.4967 136.297 21.6964 137.901 21.4198C139.989 21.0718 142.108 21.6338 144.147 22.1992C147.082 23.0135 148.283 24.7098 148.45 27.8016Z" fill="#8FA4F7"/>
<path d="M136.112 9.94531C135.259 11.1632 135.538 19.913 134.198 24.0104C133.594 25.8442 132.468 26.2826 132.468 26.2826C131.164 27.2691 131.598 28.2713 133.143 28.7968C136.018 29.7728 140.254 30.8237 144.155 30.2948C144.794 30.2094 145.402 29.9644 145.922 29.5824C146.441 29.2004 146.856 28.6937 147.129 28.109C147.401 27.5243 147.522 26.8805 147.48 26.2369C147.438 25.5932 147.234 24.9705 146.888 24.4262L145.768 22.6655L145.283 11.2241L136.112 9.94531Z" fill="#FFA8A7"/>
<path d="M146.045 28.1098C145.065 28.79 143.767 28.8057 142.598 28.5778C140.162 28.1028 138.024 26.7127 136.039 25.2321C135.421 24.771 134.79 24.2716 134.473 23.5722C134.156 22.8728 134.243 21.9176 134.884 21.4844C137.493 22.9058 140.321 24.3708 143.277 24.0507C143.929 23.9793 144.575 23.8228 145.229 23.828C147.752 23.8645 147.823 26.8762 146.045 28.1098Z" fill="#F28F8F"/>
<path d="M107.678 84.296C110.255 82.9406 113.371 84.1933 116.029 85.3938C118.688 86.5943 121.895 87.7166 124.356 86.1629C125.117 85.6827 125.715 84.9902 126.282 84.2942C129.635 80.176 130.587 77.8707 132.558 72.9416C132.415 72.3553 132.676 72.8581 133.242 72.6458C133.528 72.5477 133.84 72.5534 134.122 72.6619C134.405 72.7703 134.64 72.9747 134.787 73.2391C135.119 73.8777 134.851 74.6501 134.571 75.313C132.275 80.7553 131.135 83.6139 127.676 88.402C126.336 90.2585 124.718 92.1845 122.456 92.6021C121.334 92.8091 120.181 92.6108 119.057 92.4107L112.967 91.3337C111.995 91.1597 111.003 90.9857 110.131 90.5212C108.452 89.6304 107.464 87.8279 106.826 86.0358C106.605 85.4217 106.478 84.5935 107.027 84.2368C107.661 83.8245 107.006 84.6492 107.678 84.296Z" fill="#F9B7B7"/>
<path d="M124.382 70.4629C124.5 70.8109 124.829 71.0614 125.159 71.2406C126.045 71.7063 127.047 71.9049 128.044 71.8123C129.041 71.7196 129.989 71.3397 130.774 70.7186C131.89 72.364 133.531 73.5817 135.43 74.1723C136.079 74.3723 136.931 74.4263 137.29 73.8487C137.401 73.6747 137.464 73.4363 137.657 73.3563C137.85 73.2762 138.073 73.4067 138.234 73.5477C139.739 74.8734 139.55 77.6346 137.886 78.7446C138.117 79.2753 138.138 79.8738 137.944 80.419C137.75 80.9642 137.356 81.4155 136.842 81.6815C136.536 81.8277 136.197 81.9008 135.906 82.0748C135.706 82.1965 135.536 82.3601 135.346 82.4975C133.857 83.5797 131.767 82.7515 130.2 81.7842C129.821 81.5255 129.412 81.314 128.982 81.1544C128.609 81.0513 128.228 80.9837 127.842 80.9525C125.056 80.609 122.387 79.6226 120.048 78.0713C119.252 77.5407 123.832 70.9831 124.382 70.4629Z" fill="#FFA8A7"/>
<path d="M130.033 77.4402L131.251 77.8613C131.446 77.0177 131.709 76.1914 132.038 75.3906C132.133 75.8853 132.125 76.3944 132.014 76.8859C131.903 77.3773 131.691 77.8404 131.392 78.2458C132.051 78.3223 132.636 78.9226 133.282 78.7677C133.696 78.6703 133.978 78.2875 134.171 77.9099C134.564 77.1566 134.78 76.3235 134.802 75.4741C135.023 76.0554 135.01 76.6996 134.766 77.2714C135.192 77.4767 135.604 76.9583 135.752 76.5094C136.097 75.4537 136.135 74.3216 135.86 73.2454C135.822 73.0392 135.73 72.847 135.592 72.6886C135.38 72.5178 135.121 72.4169 134.849 72.3998L133.266 72.1371C129.337 71.4881 131.556 75.114 130.033 77.4402Z" fill="#F9B7B7"/>
<path d="M143.46 23.3074C143.308 23.2791 143.152 23.3109 143.023 23.3961C142.167 23.8065 141.237 24.0401 140.288 24.0832C139.34 24.1262 138.393 23.9778 137.503 23.6466C137.115 23.5005 136.713 23.2987 136.53 22.9211C136.413 22.613 136.378 22.2795 136.429 21.9537L136.513 20.7985C136.542 20.3861 136.594 19.9285 136.904 19.6519C137.129 19.4858 137.395 19.3831 137.673 19.3544C139.138 19.0807 140.627 18.9582 142.117 18.989C142.501 18.9977 142.908 19.0238 143.22 19.2465C143.613 19.5284 143.979 19.6676 144.292 20.0364C144.162 19.9454 144.053 19.8265 143.975 19.6884L144.535 22.9124C144.554 22.9689 144.554 23.0299 144.535 23.0864C144.501 23.1356 144.452 23.1718 144.394 23.1891C143.885 23.3976 143.35 23.5386 142.804 23.6084C142.938 23.5857 143.375 23.1891 143.46 23.3074Z" fill="#FF7F0B"/>
<path d="M182.956 72.3462C184.081 72.461 185.506 71.9147 185.913 70.8012C186.917 70.9909 187.131 72.3914 186.501 73.3118C185.872 74.2322 184.762 74.7142 183.702 74.9595L188.995 77.8755C188.601 78.5714 187.651 78.8272 186.945 78.6358C186.239 78.4445 185.727 77.9242 185.235 77.4179L188.367 79.9842L186.139 82.6915C183.883 81.9285 181.691 80.9877 179.584 79.8781C180.123 80.669 180.892 81.276 181.786 81.618C181.565 82.3922 180.41 82.2356 179.772 81.8633L174.216 78.6167C171.756 77.1796 169.063 73.3466 173.364 71.217C176.603 69.6076 180.078 72.0591 182.956 72.3462Z" fill="#FFA8A7"/>
<path d="M108.642 83.7635C109.338 83.0798 110.358 82.7822 111.337 82.7892C112.317 82.7961 113.274 83.085 114.187 83.4364C116.354 84.2675 118.362 85.4652 120.122 86.977C120.527 88.3245 120.434 89.7726 119.859 91.057C119.604 91.6259 119.186 92.1984 118.574 92.3132C118.239 92.35 117.901 92.3138 117.582 92.207C116.326 91.8869 112.771 90.6551 111.71 91.8591C111.799 90.2532 111.003 88.7482 110.229 87.3355L108.858 84.8353C108.641 84.4386 108.418 84.0054 108.488 83.56L108.662 83.8314" fill="#FF7F0B"/>
<path d="M134.459 71.8745C134.643 72.0206 134.84 72.2608 134.716 72.4609C134.667 72.5204 134.604 72.5673 134.533 72.5976C134.462 72.6279 134.384 72.6406 134.307 72.6348C134.068 72.6496 133.827 72.6391 133.59 72.6035C133.227 72.5443 132.879 72.4052 132.519 72.3182C132.162 72.2106 131.78 72.2203 131.429 72.346C131.279 72.412 131.146 72.5103 131.038 72.6339C130.93 72.7576 130.851 72.9034 130.807 73.0611C130.76 73.2229 130.265 72.5966 130.241 72.5391C130.131 72.2267 130.131 71.8859 130.241 71.5735C130.372 71.1438 130.608 70.7906 131.048 70.6514C132.191 70.2843 133.627 71.2151 134.459 71.8745Z" fill="#FFA8A7"/>
<path d="M143.309 98.5763C143.557 97.9805 143.839 97.3995 144.154 96.8364C144.469 96.2735 144.813 95.7275 145.186 95.2009C145.557 94.673 145.956 94.1654 146.381 93.6803C146.596 93.4379 146.814 93.2007 147.035 92.9687C147.263 92.7408 147.491 92.5146 147.731 92.2988C147.625 92.4206 147.519 92.5424 147.411 92.6607L147.098 93.026C146.889 93.2696 146.684 93.5149 146.482 93.7655C146.084 94.2666 145.694 94.7764 145.327 95.3001C144.96 95.8238 144.608 96.3596 144.271 96.9042C143.933 97.4488 143.618 98.0126 143.309 98.5763Z" fill="#4A63CE"/>
<path style="mix-blend-mode:multiply" opacity="0.4" d="M122.29 62.9991C121.359 55.3994 123.765 47.5944 128.332 41.5118C129.028 40.5723 130.685 37.8302 132.033 38.0321C133.883 38.3087 133.34 41.1412 133.187 42.3295C132.416 48.1985 130.118 53.7621 126.521 58.4633C126.025 59.1088 122.234 62.505 122.29 62.9991Z" fill="url(#paint1_linear_29_1703)"/>
<path d="M127.721 31.6946C123.198 31.1622 122.354 33.8834 116.574 42.9307C110.794 51.978 101.437 63.0696 102.518 66.2449C103.598 69.4202 104.964 72.7346 110.103 74.6398C110.494 74.7978 110.92 74.8469 111.337 74.7816C111.753 74.7163 112.144 74.5392 112.468 74.2691C114.093 75.5353 115.857 76.6138 117.724 77.4844C119.617 78.363 121.921 78.9998 123.714 77.935C125.291 76.999 125.941 75.0051 125.934 73.1695C125.919 68.0874 122.041 63.9483 118.389 60.4111L118.082 60.1188C122.173 55.7065 133.03 43.7293 133.423 40.4687C133.907 36.4479 133.649 32.3906 127.721 31.6946Z" fill="#DCE6F4"/>
<path d="M102.936 144.422L97.9316 156.103L101.608 158.214L112.416 143.607L102.936 144.422Z" fill="#FFA8A7"/>
<path d="M98.2733 100.815C97.3721 102.207 94.7275 111.588 93.687 115.115C92.6466 118.642 86.6719 147.303 86.6719 147.303C86.6719 147.303 96.5108 151.464 100.149 151.911C103.787 152.359 121.534 149.143 124.926 144.143C124.926 144.143 120.009 133.114 119.849 125.612C119.689 118.109 114.865 104.458 113.172 99.6875C113.172 99.6875 112.596 102.256 107.604 103.421C103.009 104.502 98.4978 102.048 98.2733 100.815Z" fill="#FF7F0B"/>
<path opacity="0.2" d="M96.2535 118.369C98.1934 120.139 100.793 120.942 103.213 121.962C105.604 122.972 107.881 124.23 110.009 125.717C110.747 126.239 111.489 126.802 111.923 127.596C112.46 128.594 112.419 129.791 112.365 130.924C112.187 134.545 112.013 138.165 111.843 141.784C111.757 143.507 111.669 145.264 112.135 146.927C112.601 148.591 113.683 150.174 115.303 150.771C111.521 152.406 107.648 154.064 103.533 154.336C102.028 154.435 100.297 154.237 99.4113 153.015C98.6545 151.971 98.7902 150.543 98.9607 149.262L100.593 136.956L95.8846 152.21C95.5906 153.161 94.9364 154.338 93.9708 154.108C93.3409 153.96 92.6867 153.238 92.1996 153.659C91.7142 153.198 91.8064 152.415 91.9334 151.757C95.0373 135.854 98.1633 119.954 101.311 104.059C100.179 103.497 98.8754 102.867 97.6993 102.387C97.3252 102.234 96.8903 102.086 96.5319 102.274C96.2117 102.448 96.069 102.813 95.9542 103.156C94.9886 106.016 94.0212 108.885 93.3444 111.831C92.6815 114.742 92.3162 117.712 91.7785 120.65C91.1261 124.222 90.2231 127.745 89.2418 131.244C88.2211 134.889 87.1151 138.509 85.9239 142.104C84.3006 147.011 82.4963 152.107 83.248 157.219C83.4916 158.865 84.0205 160.509 85.0696 161.8C86.4719 163.528 88.6242 164.429 90.6876 165.264C93.2974 166.323 95.9507 167.393 98.7502 167.714C100.608 167.926 102.487 167.802 104.356 167.851C105.807 167.888 107.27 168.025 108.706 167.804C110.526 167.519 112.21 166.657 113.732 165.622C119.556 161.669 123.375 154.908 123.754 147.876C124.154 140.448 120.951 133.238 120.89 125.799C120.874 123.926 120.979 121.821 119.696 120.455C118.846 119.551 117.351 118.749 117.711 117.56C115.121 117.838 112.588 118.507 110.199 119.544C109.551 119.826 108.908 120.137 108.213 120.273C104.335 121.035 101.176 116.271 97.2313 116.528C96.4866 116.575 95.6654 116.889 95.3957 117.583C95.126 118.277 95.5888 118.709 96.2535 118.369Z" fill="#4A63CE"/>
<path d="M128.111 107.798L108.203 119.291C108.203 119.291 113.579 118.383 114.406 123.622C115.232 128.86 111.796 145.309 116.236 147.538C120.676 149.767 123.277 148.265 123.277 148.265L145.026 135.707C145.026 135.707 137.859 138.75 136.05 134.063C134.24 129.375 136.05 114.48 134.806 111.876C133.562 109.271 132.377 107.349 128.111 107.798Z" fill="#DCE6F4"/>
<path d="M100.28 76.7266C100.28 76.7266 99.9687 84.2845 99.8591 84.7299C99.7495 85.1753 97.4894 85.5999 96.8544 86.1218C96.2193 86.6438 100.111 92.7715 102.098 93.6815C104.085 94.5914 110.244 92.3001 110.683 89.2397C111.085 86.4211 108.943 84.2219 108.108 83.4546C107.555 83.3363 106.66 83.4424 106.41 83.4076L106.236 80.4846C103.546 79.6112 100.28 76.7266 100.28 76.7266Z" fill="#F9B7B7"/>
<path d="M98.7855 85.308C97.0926 85.5655 95.1527 86.4633 94.883 87.3958C94.5698 88.4763 93.8843 93.5741 95.3388 97.4558C96.7934 101.337 97.6598 102.296 98.4967 103.97C98.4967 103.97 107.556 105.466 113.475 101.819C113.475 101.819 113.065 101.27 113.291 99.0564C113.91 93.0208 113.117 88.0065 108.515 83.4341C107.962 83.3786 107.406 83.3699 106.852 83.4081C106.852 83.4081 108.539 84.9078 109.374 86.82C110.142 88.5737 109.561 90.4041 108.085 91.0548C105.942 92.0013 104.374 91.4271 102.563 89.4715C101.331 88.1336 100.745 86.4128 98.7855 85.308Z" fill="#FF7F0B"/>
<path d="M108.992 84.1609C109.56 84.5593 109.935 85.3057 109.708 85.9598C110.101 86.0215 110.47 86.193 110.771 86.4547C111.072 86.7164 111.292 87.0577 111.408 87.4393C111.524 87.8209 111.529 88.2273 111.424 88.6119C111.319 88.9966 111.108 89.3438 110.814 89.6136C111.393 90.6123 111.51 91.9606 110.814 92.8775C110.118 93.7945 108.486 93.9215 107.856 92.9524C107.881 94.186 106.477 95.1377 105.274 94.8662C104.072 94.5948 103.244 93.3595 103.187 92.1277C103.013 92.3973 102.607 92.3295 102.317 92.1938C101.589 91.8367 100.984 91.2698 100.581 90.5663C100.178 89.8627 99.9948 89.0547 100.055 88.246C99.4975 88.2075 98.9714 87.9746 98.5683 87.588C98.1651 87.2014 97.9104 86.6855 97.8486 86.1304C97.8287 86.01 97.8528 85.8865 97.9164 85.7824C97.9901 85.705 98.0842 85.65 98.1879 85.6241C100.077 84.9556 102.008 84.4117 103.968 83.9956C105.61 83.6337 107.494 83.1117 108.992 84.1609Z" fill="white"/>
<path d="M106.875 81.9242L106.736 79.558L104.822 78.9282L100.235 76.7343C100.235 76.7343 100.187 78.4271 100.222 79.2274C100.222 79.2274 100.702 81.8234 104.103 83.431C104.7 83.7163 106.683 83.3962 106.875 81.9242Z" fill="#F28F8F"/>
<path d="M95.0208 87.0738C93.3331 87.8341 88.1709 110.945 88.3606 112.563C88.5502 114.181 102.85 121.321 107.485 123.413C107.485 123.413 111.158 123.04 109.81 120.996C109.462 120.474 92.7589 110.367 92.7589 110.367C92.7589 110.367 99.0468 95.2111 99.1529 92.4586C99.2591 89.7062 98.6153 85.4557 95.0208 87.0738Z" fill="#F9B7B7"/>
<path d="M104.386 61.8934C104.386 61.8934 103.815 59.2088 100.515 59.3115C94.3207 59.5028 88.4852 74.8798 90.3016 81.5278C90.3016 81.5278 92.5634 83.3825 94.954 83.466L95.8465 81.0059L95.944 83.3947C95.944 83.3947 98.4859 84.1028 99.8239 83.4469C101.162 82.791 99.4133 83.3999 99.4133 83.3999L104.386 61.8934Z" fill="#4D4F80"/>
<path d="M116.243 70.9726C116.765 66.1932 114.379 61.8384 109.575 60.8397C107.645 60.4322 105.636 60.6415 103.831 61.438C102.026 62.2344 100.518 63.5777 99.5176 65.2782C98.5177 66.9787 98.0773 68.9503 98.2586 70.9146C98.4399 72.8789 99.2338 74.7366 100.528 76.2253C100.528 76.2253 100.512 77.9965 100.718 78.4263C101.871 80.829 105.986 83.2666 107.448 83.6789C108.714 84.0373 110.129 83.1448 111.848 81.4954C115.43 78.0591 116.029 73.3441 116.243 70.9726Z" fill="#F9B7B7"/>
<path d="M116.54 67.0901C115.955 65.2907 114.837 63.7115 113.334 62.5619C111.831 61.4122 110.015 60.7464 108.125 60.6526C106.119 60.5604 104.135 61.1063 102.458 62.212C100.782 63.3176 99.4989 64.9262 98.7938 66.8065C98.2123 68.3884 98.067 70.0975 98.3731 71.7548C98.6792 73.412 99.4254 74.9564 100.534 76.2262C100.516 75.8904 99.0687 71.6851 101.738 71.5512C102.007 72.1079 102.2 73.5033 102.026 74.2323C102.026 74.2323 106.15 66.5769 106.164 65.3294C108.148 66.7624 110.505 67.5892 112.949 67.7095C114.674 67.7982 115.949 67.4781 116.54 67.0901Z" fill="#4D4F80"/>
<path d="M106.157 65.3295C106.157 65.3295 106.425 68.5447 105.256 71.245C105.256 71.245 107.72 72.5708 110.373 73.0301C113.026 73.4894 115.497 73.8565 117.578 72.3759C118.554 71.1162 119.276 63.2294 112.358 61.8984L106.157 65.3295Z" fill="#4D4F80"/>
<path d="M100.525 76.2348C100.525 76.2348 100.177 76.6332 99.2831 76.4401C97.6024 76.0799 96.4767 72.4784 98.3749 70.7403C99.5598 69.6529 101.333 70.6133 101.729 71.5598L100.525 76.2348Z" fill="#F9B7B7"/>
<path d="M150.711 12.1711C150.728 5.21166 148.209 2.57402 143.092 1.81544C137.646 1.00814 134.278 4.01114 133.463 9.51086C132.985 12.7279 134.554 20.6269 134.796 21.0688C136.151 23.5533 140.63 25.8865 142.194 26.2345C143.547 26.5372 144.978 25.4985 146.7 23.6368C150.272 19.7587 150.625 14.7061 150.711 12.1711Z" fill="#FFA8A7"/>
<path d="M145.418 26.3999C145.247 26.465 145.067 26.5008 144.884 26.506L142.622 26.6939C142.378 26.7131 141.128 26.4677 140.773 26.2816C139.68 25.7097 138.612 25.0903 137.57 24.4234C136.569 23.7814 135.567 23.0732 134.923 22.0746C134.109 20.8062 133.971 19.2334 133.855 17.7249C133.942 17.7632 133.921 17.6222 133.841 17.6727L133.961 17.8467C134.573 17.1942 134.85 16.2808 134.894 15.3883C134.937 14.4957 134.772 13.6049 134.6 12.7263C134.516 12.293 134.426 11.8441 134.149 11.4996C133.771 11.0264 133.296 11.096 132.795 11.1934C132.732 9.42282 132.836 7.6502 133.105 5.89903C133.39 4.1435 133.961 2.40888 134.994 0.963048C135.429 0.766837 135.879 0.607329 136.339 0.486284C140.543 -0.408008 146.415 -0.140055 149.651 1.67463C151.993 2.98997 150.852 6.58279 151.003 8.59234C150.975 8.43749 150.622 9.58234 150.491 9.56842C149.865 7.82856 150.19 6.23307 148.752 5.06214C148.974 5.84404 148.989 6.67051 148.793 7.45968C146.502 7.96599 142.704 7.77634 140.388 7.37617C140.225 7.3614 140.07 7.30443 139.936 7.2109C139.805 7.07798 139.718 6.90879 139.685 6.72547C139.549 6.22595 139.451 5.71711 139.389 5.20308L138.323 4.91254C137.615 6.2244 136.367 7.28398 136.094 8.74024C136.018 9.30026 136.018 9.8679 136.094 10.4279L136.675 17.4274C136.849 17.5805 137.977 18.5722 138.208 18.6053C138.443 18.0398 140.687 17.2047 141.3 17.2134L146.199 17.3212C147.358 17.3473 147.361 17.5283 148.198 18.393C148.419 18.6227 148.668 18.915 148.983 18.861C149.16 18.816 149.311 18.7035 149.406 18.5479C149.778 18.0259 150.199 17.062 150.244 16.42C150.244 16.42 150.431 16.714 149.575 20.2982C149.317 21.3804 148.993 22.4939 148.254 23.3273C148.122 23.3429 145.592 26.3216 145.418 26.3999Z" fill="#4D4F80"/>
<path d="M131.827 15.1884C132.024 16.1071 132.512 16.9376 133.219 17.5564C133.5 17.809 133.847 17.9767 134.219 18.0401C134.339 18.0614 134.462 18.0404 134.567 17.9809C134.729 17.8695 134.752 17.6434 134.759 17.4468C134.808 15.9749 135.594 12.5456 134.237 11.4338C131.763 9.39989 131.477 13.7356 131.827 15.1884Z" fill="#FFA8A7"/>
<path d="M97.9934 102.603C98.3779 102.535 98.8946 102.766 99.22 102.855C100.417 103.181 105.8 104.15 110.007 102.333C111.329 101.764 112.617 100.988 113.377 99.7617C113.725 100.423 113.899 100.882 113.468 101.488C113.065 101.995 112.588 102.437 112.051 102.8C110.214 103.876 108.177 104.57 106.065 104.839C103.952 105.108 101.806 104.947 99.7576 104.365C99.2269 104.214 97.9464 103.997 97.5567 103.635C97.2852 103.382 97.3479 102.871 97.8281 102.643C97.8812 102.622 97.9368 102.609 97.9934 102.603Z" fill="#627BFD"/>
<path style="mix-blend-mode:multiply" opacity="0.4" d="M98.1264 102.159C98.0342 102.359 97.942 102.611 98.0777 102.785C98.2917 103.057 98.8241 102.837 99.0207 103.123C98.1925 105.343 96.8772 107.342 95.5723 109.32C96.0055 107.14 96.6505 105.008 97.4983 102.954C97.5751 102.8 97.6206 102.632 97.6323 102.46C97.6081 102.223 97.5269 101.996 97.3956 101.797C96.2038 99.556 96.4579 96.8453 96.8737 94.3416C97.1938 92.4197 97.5905 90.5111 98.0638 88.6158C98.537 86.7228 99.353 89.7119 99.4556 90.1938C100.308 94.2213 99.8426 98.4162 98.1281 102.159H98.1264Z" fill="url(#paint2_linear_29_1703)"/>
<path d="M146.045 28.1098C145.065 28.79 143.767 28.8057 142.598 28.5778C140.162 28.1028 138.024 26.7127 136.039 25.2321C135.421 24.771 134.79 24.2716 134.473 23.5722C134.156 22.8728 134.243 21.9176 134.884 21.4844C137.493 22.9058 140.321 24.3708 143.277 24.0507C143.929 23.9793 144.575 23.8228 145.229 23.828C147.752 23.8645 147.823 26.8762 146.045 28.1098Z" fill="#F28F8F"/>
<path d="M97.0846 86.2188C98.3912 86.2188 100.042 89.6289 99.6944 92.4005C99.3464 95.1721 93.8015 108.693 93.8015 108.693C93.8015 108.693 92.5366 107.784 91.4335 107.459C89.932 107.017 89.0621 107.473 88.6602 108.172C88.6602 108.172 88.9124 107.196 89.0655 104.59C89.3143 100.312 89.7215 93.0808 91.4648 89.2409C92.6671 86.6015 94.7584 86.2188 97.0846 86.2188Z" fill="#FF7F0B"/>
<path d="M95.2501 106.265L93.3519 109.501C93.3519 109.501 90.0462 107.306 88.6543 108.172L89.0597 104.59C89.0597 104.59 92.7082 102.855 95.2501 106.265Z" fill="white"/>
<path d="M121.927 88.3431C121.942 88.7291 121.909 89.1156 121.826 89.4931C121.678 90.2618 121.439 91.0099 121.113 91.7218C120.939 92.1255 120.696 92.5396 120.302 92.7466C119.68 92.5338 119.029 92.4165 118.371 92.3986C119.984 90.9963 120.506 88.4805 119.589 86.5527C120.958 86.7946 121.828 86.7337 121.927 88.3431Z" fill="white"/>
<path d="M117.885 126.532V131.464C117.884 131.615 117.923 131.764 117.997 131.896C118.071 132.027 118.178 132.137 118.308 132.215C118.437 132.292 118.585 132.335 118.736 132.338C118.887 132.341 119.036 132.305 119.169 132.233L123.099 130.132C123.381 129.981 123.617 129.757 123.781 129.483C123.945 129.209 124.032 128.896 124.032 128.576V123.696C124.032 123.546 123.994 123.398 123.921 123.267C123.847 123.135 123.741 123.026 123.612 122.948C123.483 122.87 123.337 122.827 123.187 122.823C123.036 122.818 122.888 122.853 122.755 122.923L118.833 124.968C118.547 125.117 118.308 125.342 118.14 125.617C117.973 125.893 117.885 126.209 117.885 126.532Z" fill="white" stroke="#4D4F80" stroke-miterlimit="10"/>
<path opacity="0.3" d="M126.613 124.027V126.004L132.759 122.717V120.822L126.613 124.027Z" fill="#4A63CE"/>
<path opacity="0.3" d="M123.727 113.209L124.774 114.244L131.128 110.846L129.872 109.623L123.727 113.209Z" fill="#4A63CE"/>
<path opacity="0.3" d="M126.613 133.574V135.552L132.759 132.264V130.369L126.613 133.574Z" fill="#4A63CE"/>
<path opacity="0.3" d="M126.613 136.164V138.142L132.759 134.855V132.959L126.613 136.164Z" fill="#4A63CE"/>
<path d="M117.885 137.554V142.487C117.884 142.638 117.923 142.787 117.997 142.918C118.071 143.05 118.178 143.16 118.308 143.237C118.437 143.315 118.585 143.357 118.736 143.361C118.887 143.364 119.036 143.328 119.169 143.256L123.099 141.154C123.381 141.004 123.616 140.779 123.781 140.506C123.945 140.232 124.032 139.918 124.032 139.599V134.727C124.032 134.577 123.994 134.429 123.921 134.298C123.847 134.167 123.741 134.057 123.612 133.979C123.483 133.901 123.337 133.858 123.187 133.854C123.036 133.85 122.888 133.884 122.755 133.955L118.833 135.999C118.548 136.148 118.31 136.371 118.143 136.645C117.976 136.919 117.886 137.233 117.885 137.554Z" fill="white" stroke="#4D4F80" stroke-miterlimit="10"/>
<path d="M119.762 129.61L120.964 125.744L123.727 131.48" stroke="#4D4F80" stroke-width="3" stroke-linecap="round" stroke-linejoin="round"/>
<path d="M119.762 141.169L120.964 137.303L123.727 143.039" stroke="#4D4F80" stroke-width="3" stroke-linecap="round" stroke-linejoin="round"/>
<path d="M114.473 117.073C114.394 117.116 114.329 117.18 114.286 117.259C114.242 117.337 114.222 117.427 114.227 117.516C114.233 117.606 114.264 117.692 114.316 117.764C114.369 117.837 114.441 117.893 114.525 117.926C115.395 118.274 116.586 118.883 116.827 119.605C117.216 120.777 116.72 121.487 117.573 121.518C118.178 121.545 120.588 120.188 121.923 119.401C122.302 119.188 122.597 118.853 122.76 118.45C122.924 118.047 122.945 117.601 122.82 117.184C122.768 117.017 122.684 116.861 122.572 116.725C121.968 116.015 120.049 114.7 119.161 114.811C118.53 114.888 115.892 116.295 114.473 117.073Z" fill="white" stroke="#4D4F80" stroke-miterlimit="10"/>
<path d="M105.804 121.818C105.766 122.019 107.342 123.169 107.535 123.238C108.588 123.612 109.797 124.006 110.912 124.004C111.249 124.011 111.585 123.979 111.914 123.906C112.168 123.836 112.416 123.747 112.657 123.64C113.186 123.448 113.687 123.188 114.148 122.866C114.411 122.664 113.832 122.962 114.148 122.866C114.465 122.77 113.957 121.192 113.139 120.787C113.035 121.1 112.875 121.109 112.551 121.17C112.388 121.198 112.221 121.184 112.065 121.128C111.91 121.072 111.771 120.977 111.664 120.851C111.592 120.773 111.549 120.673 111.542 120.568C111.556 120.478 111.591 120.393 111.646 120.321C111.7 120.248 111.771 120.19 111.853 120.152C112.276 119.887 112.769 119.738 113.167 119.437C113.565 119.136 115.691 118.266 115.49 117.81C115.345 117.484 115.002 117.305 114.684 117.15C114.23 118.13 112.208 118.523 111.17 118.817C110.719 118.946 108.956 120.294 108.796 119.861C108.384 120.237 108.184 119.746 107.806 120.157C107.401 120.599 107.006 121.079 106.853 121.658C106.7 122.238 105.705 121.925 105.804 121.818Z" fill="#F9B7B7"/>
</g>
<defs>
<linearGradient id="paint0_linear_29_1703" x1="0" y1="136.747" x2="171.163" y2="136.747" gradientUnits="userSpaceOnUse">
<stop stop-color="#627BFD" stop-opacity="0"/>
<stop offset="0.09" stop-color="#627BFD" stop-opacity="0.02"/>
<stop offset="0.22" stop-color="#627BFD" stop-opacity="0.09"/>
<stop offset="0.37" stop-color="#627BFD" stop-opacity="0.21"/>
<stop offset="0.54" stop-color="#627BFD" stop-opacity="0.37"/>
<stop offset="0.72" stop-color="#627BFD" stop-opacity="0.57"/>
<stop offset="0.9" stop-color="#627BFD" stop-opacity="0.82"/>
<stop offset="1" stop-color="#627BFD" stop-opacity="0.96"/>
</linearGradient>
<linearGradient id="paint1_linear_29_1703" x1="122.091" y1="50.5104" x2="133.38" y2="50.5104" gradientUnits="userSpaceOnUse">
<stop stop-color="#627BFD" stop-opacity="0"/>
<stop offset="0.05" stop-color="#627BFD" stop-opacity="0.05"/>
<stop offset="0.52" stop-color="#627BFD" stop-opacity="0.53"/>
<stop offset="0.85" stop-color="#627BFD" stop-opacity="0.84"/>
<stop offset="1" stop-color="#627BFD" stop-opacity="0.96"/>
</linearGradient>
<linearGradient id="paint2_linear_29_1703" x1="3920.88" y1="88630.6" x2="4027.07" y2="88630.6" gradientUnits="userSpaceOnUse">
<stop stop-color="#627BFD" stop-opacity="0"/>
<stop offset="0.05" stop-color="#627BFD" stop-opacity="0.05"/>
<stop offset="0.52" stop-color="#627BFD" stop-opacity="0.53"/>
<stop offset="0.85" stop-color="#627BFD" stop-opacity="0.84"/>
<stop offset="1" stop-color="#627BFD" stop-opacity="0.96"/>
</linearGradient>
<clipPath id="clip0_29_1703">
<rect width="189" height="181.773" fill="white"/>
</clipPath>
</defs>
</svg>
