<svg width="256" height="311" viewBox="0 0 256 311" fill="none" xmlns="http://www.w3.org/2000/svg">
<path d="M0.890625 234.197L60.7221 268.788L255.127 156.361L195.295 121.782L0.890625 234.197ZM161.577 158.489C161.577 149.072 173.563 141.423 188.351 141.423C203.139 141.423 215.125 149.063 215.125 158.489C215.125 167.915 203.139 175.556 188.351 175.556C173.563 175.556 161.577 167.925 161.577 158.489ZM102.663 195.529C102.663 186.112 114.65 178.459 129.438 178.459C144.225 178.459 156.212 186.102 156.212 195.529C156.212 204.955 144.222 212.595 129.438 212.595C114.653 212.595 102.654 204.939 102.654 195.516L102.663 195.529ZM40.9799 227.649C40.9799 218.233 52.9693 210.583 67.7541 210.583C82.5388 210.583 94.5283 218.223 94.5283 227.649C94.5283 237.076 82.5419 244.716 67.7541 244.716C52.9662 244.716 40.9799 237.076 40.9799 227.649Z" fill="white" stroke="#4A63CE" stroke-width="0.275118" stroke-linecap="round" stroke-linejoin="round"/>
<path d="M0.890625 229.448L60.7221 264.04L255.111 151.603L195.295 117.018L0.890625 229.448ZM161.577 153.74C161.577 144.324 173.563 136.671 188.351 136.671C203.139 136.671 215.125 144.314 215.125 153.74C215.125 163.167 203.139 170.807 188.351 170.807C173.563 170.807 161.577 163.164 161.577 153.74ZM102.663 190.78C102.663 181.363 114.65 173.714 129.438 173.714C144.225 173.714 156.212 181.354 156.212 190.78C156.212 200.206 144.222 207.846 129.438 207.846C114.653 207.846 102.654 200.19 102.654 190.764L102.663 190.78ZM40.9799 222.901C40.9799 213.484 52.9693 205.834 67.7541 205.834C82.5388 205.834 94.5283 213.474 94.5283 222.901C94.5283 232.327 82.5419 239.967 67.7541 239.967C52.9662 239.967 40.9799 232.327 40.9799 222.901Z" fill="white" stroke="#4A63CE" stroke-width="0.687796" stroke-linecap="round" stroke-linejoin="round"/>
<path d="M64.707 215.054H71.7422V195.226H64.707V215.054Z" fill="white" stroke="#4A63CE" stroke-width="0.275118" stroke-linecap="round" stroke-linejoin="round"/>
<path d="M61.4727 191.538C61.4727 192.818 61.8518 194.07 62.562 195.134C63.2722 196.198 64.2816 197.027 65.4625 197.516C66.6434 198.006 67.9426 198.133 69.1958 197.882C70.449 197.632 71.5997 197.014 72.5025 196.108C73.4052 195.202 74.0193 194.048 74.2671 192.793C74.5149 191.537 74.3852 190.236 73.8945 189.054C73.4037 187.872 72.574 186.863 71.5102 186.153C70.4465 185.444 69.1965 185.066 67.9186 185.069C66.2077 185.071 64.5676 185.754 63.359 186.967C62.1503 188.18 61.4718 189.824 61.4727 191.538Z" fill="white" stroke="#4A63CE" stroke-width="0.275118" stroke-linecap="round" stroke-linejoin="round"/>
<g style="mix-blend-mode:color-dodge">
<path d="M69.1221 193.823C71.3426 193.823 73.1426 192.02 73.1426 189.796C73.1426 187.572 71.3426 185.769 69.1221 185.769C66.9016 185.769 65.1016 187.572 65.1016 189.796C65.1016 192.02 66.9016 193.823 69.1221 193.823Z" fill="white"/>
<path d="M69.1221 193.823C71.3426 193.823 73.1426 192.02 73.1426 189.796C73.1426 187.572 71.3426 185.769 69.1221 185.769C66.9016 185.769 65.1016 187.572 65.1016 189.796C65.1016 192.02 66.9016 193.823 69.1221 193.823Z" stroke="#4A63CE" stroke-width="0.275118" stroke-linecap="round" stroke-linejoin="round"/>
</g>
<path d="M68.144 198.68C72.083 198.68 75.2763 195.481 75.2763 191.536C75.2763 187.59 72.083 184.391 68.144 184.391C64.2049 184.391 61.0117 187.59 61.0117 191.536C61.0117 195.481 64.2049 198.68 68.144 198.68Z" fill="white" stroke="#4A63CE" stroke-width="0.275118" stroke-linecap="round" stroke-linejoin="round"/>
<g style="mix-blend-mode:color-dodge" opacity="0.36">
<path d="M63.3418 187.444C62.926 188.669 62.8678 189.988 63.1739 191.244C63.48 192.501 64.1378 193.644 65.0699 194.54C66.002 195.435 67.1699 196.046 68.4363 196.3C69.7027 196.553 71.0152 196.44 72.2195 195.973C71.0598 197.004 69.5549 197.56 68.0045 197.53C66.454 197.5 64.9717 196.887 63.8525 195.811C62.7333 194.736 62.0593 193.278 61.9646 191.728C61.87 190.177 62.3617 188.648 63.3418 187.444Z" fill="white"/>
<path d="M63.3418 187.444C62.926 188.669 62.8678 189.988 63.1739 191.244C63.48 192.501 64.1378 193.644 65.0699 194.54C66.002 195.435 67.1699 196.046 68.4363 196.3C69.7027 196.553 71.0152 196.44 72.2195 195.973C71.0598 197.004 69.5549 197.56 68.0045 197.53C66.454 197.5 64.9717 196.887 63.8525 195.811C62.7333 194.736 62.0593 193.278 61.9646 191.728C61.87 190.177 62.3617 188.648 63.3418 187.444Z" stroke="#4A63CE" stroke-width="0.275118" stroke-linecap="round" stroke-linejoin="round"/>
</g>
<path d="M86.7552 139.194V291.47C86.7556 293.911 86.2759 296.329 85.3435 298.584C84.4111 300.84 83.0442 302.889 81.3209 304.616C79.5976 306.342 77.5517 307.712 75.3 308.646C73.0483 309.581 70.6348 310.062 68.1975 310.062V310.062C63.2749 310.062 58.5539 308.103 55.0731 304.616C51.5922 301.129 49.6367 296.401 49.6367 291.47V139.194C49.6367 139.194 62.0461 134.827 69.8271 134.827C77.608 134.827 86.7552 139.194 86.7552 139.194Z" fill="white"/>
<path d="M86.7552 139.194V291.47C86.7556 293.911 86.2759 296.329 85.3435 298.584C84.4111 300.84 83.0442 302.889 81.3209 304.616C79.5976 306.342 77.5517 307.712 75.3 308.646C73.0483 309.581 70.6348 310.062 68.1975 310.062V310.062C63.2749 310.062 58.5539 308.103 55.0731 304.616C51.5922 301.129 49.6367 296.401 49.6367 291.47V139.194C49.6367 139.194 62.0461 134.827 69.8271 134.827C77.608 134.827 86.7552 139.194 86.7552 139.194Z" fill="white" fill-opacity="0.3" stroke="#4A63CE" stroke-width="0.825355" stroke-linecap="round" stroke-linejoin="round"/>
<path d="M86.7552 139.194V291.47C86.7556 293.911 86.2759 296.329 85.3435 298.584C84.4111 300.84 83.0442 302.889 81.3209 304.616C79.5976 306.342 77.5517 307.712 75.3 308.646C73.0483 309.581 70.6348 310.062 68.1975 310.062V310.062C63.2749 310.062 58.5539 308.103 55.0731 304.616C51.5922 301.129 49.6367 296.401 49.6367 291.47V139.194C49.6367 139.194 62.0461 134.827 69.8271 134.827C77.608 134.827 86.7552 139.194 86.7552 139.194Z" stroke="#4A63CE" stroke-width="0.275118" stroke-linecap="round" stroke-linejoin="round"/>
<path d="M68.207 305.595C71.9457 305.591 75.5301 304.101 78.1738 301.453C80.8174 298.805 82.3045 295.215 82.3086 291.47V220.844H54.1055V291.47C54.1096 295.215 55.5966 298.805 58.2403 301.453C60.884 304.101 64.4683 305.591 68.207 305.595V305.595Z" fill="#4A63CE" stroke="#4A63CE" stroke-width="0.275118" stroke-linecap="round" stroke-linejoin="round"/>
<path d="M68.2039 231.731C75.9903 231.731 82.3023 227.707 82.3023 222.744C82.3023 217.781 75.9903 213.757 68.2039 213.757C60.4176 213.757 54.1055 217.781 54.1055 222.744C54.1055 227.707 60.4176 231.731 68.2039 231.731Z" fill="#4A63CE" stroke="white" stroke-width="0.412678" stroke-linecap="round" stroke-linejoin="round"/>
<path d="M68.2078 137.577C57.5031 137.577 49.6188 143.108 49.6188 149.932C49.6188 156.756 57.5031 162.274 68.2078 162.274C78.9125 162.274 86.7968 156.744 86.7968 149.923C86.7968 143.102 78.8968 137.577 68.2078 137.577C79.956 137.577 91.3751 141.262 94.982 147.973V154.647C94.982 164.064 82.9925 171.713 68.2078 171.713C53.4231 171.713 41.4336 164.07 41.4336 154.647V148.595C45.053 141.89 56.4627 137.577 68.2078 137.577Z" fill="white"/>
<path d="M68.2078 137.577C57.5031 137.577 49.6188 143.108 49.6188 149.932C49.6188 156.756 57.5031 162.274 68.2078 162.274C78.9125 162.274 86.7968 156.744 86.7968 149.923C86.7968 143.102 78.8968 137.577 68.2078 137.577ZM68.2078 137.577C79.956 137.577 91.3751 141.262 94.982 147.973V154.647C94.982 164.064 82.9925 171.713 68.2078 171.713C53.4231 171.713 41.4336 164.07 41.4336 154.647V148.595C45.053 141.89 56.4627 137.577 68.2078 137.577Z" stroke="#4A63CE" stroke-width="0.687796" stroke-linecap="round" stroke-linejoin="round"/>
<path d="M41.4336 149.933C41.4336 159.35 53.4199 166.999 68.2078 166.999C82.9957 166.999 94.982 159.359 94.982 149.933C94.982 140.507 82.9925 132.866 68.2078 132.866C53.4231 132.866 41.4336 140.507 41.4336 149.933ZM49.6188 149.933C49.6188 143.109 57.5031 137.578 68.2078 137.578C78.9125 137.578 86.7968 143.109 86.7968 149.933C86.7968 156.757 78.8968 162.275 68.2078 162.275C57.5188 162.275 49.6188 156.754 49.6188 149.933Z" fill="white" stroke="#4A63CE" stroke-width="0.275118" stroke-linecap="round" stroke-linejoin="round"/>
<path d="M41.4336 149.933C41.4336 159.35 53.4199 166.999 68.2078 166.999C82.9957 166.999 94.982 159.359 94.982 149.933C94.982 140.507 82.9925 132.866 68.2078 132.866C53.4231 132.866 41.4336 140.507 41.4336 149.933ZM49.6188 149.933C49.6188 143.109 57.5031 137.578 68.2078 137.578C78.9125 137.578 86.7968 143.109 86.7968 149.933C86.7968 156.757 78.8968 162.275 68.2078 162.275C57.5188 162.275 49.6188 156.754 49.6188 149.933Z" fill="white" stroke="#4A63CE" stroke-width="0.687796" stroke-linecap="round" stroke-linejoin="round"/>
<path d="M72.2391 244.439C72.8673 244.439 73.3766 243.929 73.3766 243.3C73.3766 242.671 72.8673 242.16 72.2391 242.16C71.6109 242.16 71.1016 242.671 71.1016 243.3C71.1016 243.929 71.6109 244.439 72.2391 244.439Z" fill="white"/>
<path d="M69.3368 255.327C69.965 255.327 70.4743 254.817 70.4743 254.188C70.4743 253.558 69.965 253.048 69.3368 253.048C68.7085 253.048 68.1992 253.558 68.1992 254.188C68.1992 254.817 68.7085 255.327 69.3368 255.327Z" fill="white"/>
<path d="M72.3289 267.437C72.9572 267.437 73.4665 266.926 73.4665 266.297C73.4665 265.668 72.9572 265.158 72.3289 265.158C71.7007 265.158 71.1914 265.668 71.1914 266.297C71.1914 266.926 71.7007 267.437 72.3289 267.437Z" fill="white"/>
<path d="M67.1141 282.919C67.7423 282.919 68.2516 282.409 68.2516 281.78C68.2516 281.151 67.7423 280.64 67.1141 280.64C66.4859 280.64 65.9766 281.151 65.9766 281.78C65.9766 282.409 66.4859 282.919 67.1141 282.919Z" fill="white"/>
<path d="M57.8594 170.099V292.41" stroke="#4A63CE" stroke-width="0.275118" stroke-linecap="round" stroke-linejoin="round"/>
<path d="M193.055 95.9731H200.488V68.6111H193.055V95.9731Z" fill="white" stroke="#4A63CE" stroke-width="0.275118" stroke-linecap="round" stroke-linejoin="round"/>
<path d="M207.637 69.7849V222.064C207.637 226.995 205.682 231.724 202.201 235.21C198.72 238.697 193.999 240.656 189.076 240.656V240.656C184.154 240.656 179.433 238.697 175.952 235.21C172.471 231.724 170.516 226.995 170.516 222.064V69.7849C170.516 69.7849 182.925 65.4218 190.706 65.4218C198.487 65.4218 207.637 69.7849 207.637 69.7849Z" fill="white"/>
<path d="M207.657 69.7849V222.064C207.657 226.995 205.701 231.724 202.221 235.21C198.74 238.697 194.019 240.656 189.096 240.656V240.656C184.173 240.656 179.452 238.697 175.972 235.21C172.491 231.724 170.535 226.995 170.535 222.064V69.7849C170.535 69.7849 182.945 65.4218 190.726 65.4218C198.506 65.4218 207.657 69.7849 207.657 69.7849Z" fill="white" fill-opacity="0.3" stroke="#4A63CE" stroke-width="0.825355" stroke-linecap="round" stroke-linejoin="round"/>
<path d="M207.637 69.7849V222.064C207.637 226.995 205.682 231.724 202.201 235.21C198.72 238.697 193.999 240.656 189.076 240.656V240.656C184.154 240.656 179.433 238.697 175.952 235.21C172.471 231.724 170.516 226.995 170.516 222.064V69.7849C170.516 69.7849 182.925 65.4218 190.706 65.4218C198.487 65.4218 207.637 69.7849 207.637 69.7849Z" stroke="#4A63CE" stroke-width="0.275118" stroke-linecap="round" stroke-linejoin="round"/>
<path d="M189.086 236.185C192.826 236.185 196.413 234.697 199.057 232.048C201.702 229.399 203.188 225.806 203.188 222.06V151.433H174.984V222.06C174.984 223.914 175.349 225.751 176.058 227.465C176.766 229.179 177.805 230.736 179.115 232.048C180.424 233.359 181.979 234.4 183.69 235.109C185.4 235.819 187.234 236.185 189.086 236.185V236.185Z" fill="white" stroke="#FF7F0B" stroke-width="0.687796" stroke-linecap="round" stroke-linejoin="round"/>
<path d="M189.083 162.325C196.869 162.325 203.181 158.302 203.181 153.338C203.181 148.375 196.869 144.352 189.083 144.352C181.296 144.352 174.984 148.375 174.984 153.338C174.984 158.302 181.296 162.325 189.083 162.325Z" fill="white" stroke="#FF7F0B" stroke-width="0.687796" stroke-linecap="round" stroke-linejoin="round"/>
<path d="M189.1 68.176C178.395 68.176 170.511 73.7068 170.511 80.5277C170.511 87.3486 178.395 92.8826 189.1 92.8826C199.805 92.8826 207.695 87.3518 207.695 80.5277C207.695 73.7037 199.808 68.176 189.106 68.176C200.854 68.176 212.274 71.858 215.88 78.569V85.2424C215.88 94.6592 203.894 102.309 189.106 102.309C174.318 102.309 162.332 94.6686 162.332 85.2424V79.1937C165.933 72.4858 177.355 68.176 189.1 68.176Z" fill="white"/>
<path d="M189.1 68.176C178.395 68.176 170.511 73.7068 170.511 80.5277C170.511 87.3486 178.395 92.8826 189.1 92.8826C199.805 92.8826 207.695 87.3518 207.695 80.5277C207.695 73.7037 199.808 68.176 189.106 68.176C200.854 68.176 212.274 71.858 215.88 78.569V85.2424C215.88 94.6592 203.894 102.309 189.106 102.309C174.318 102.309 162.332 94.6686 162.332 85.2424V79.1937C165.933 72.4858 177.355 68.176 189.1 68.176Z" stroke="#4A63CE" stroke-width="0.687796" stroke-linecap="round" stroke-linejoin="round"/>
<path d="M162.312 80.5272C162.312 89.944 174.299 97.5967 189.087 97.5967C203.875 97.5967 215.861 89.9534 215.861 80.5272C215.861 71.101 203.875 63.4608 189.087 63.4608C174.299 63.4608 162.312 71.1041 162.312 80.5272ZM170.498 80.5272C170.498 73.7063 178.382 68.1755 189.087 68.1755C199.791 68.1755 207.682 73.7063 207.682 80.5272C207.682 87.3481 199.795 92.8821 189.093 92.8821C178.391 92.8821 170.498 87.3513 170.498 80.5272Z" fill="white" stroke="#4A63CE" stroke-width="0.275118" stroke-linecap="round" stroke-linejoin="round"/>
<path d="M162.312 80.5272C162.312 89.944 174.299 97.5967 189.087 97.5967C203.875 97.5967 215.861 89.9534 215.861 80.5272C215.861 71.101 203.875 63.4608 189.087 63.4608C174.299 63.4608 162.312 71.1041 162.312 80.5272ZM170.498 80.5272C170.498 73.7063 178.382 68.1755 189.087 68.1755C199.791 68.1755 207.682 73.7063 207.682 80.5272C207.682 87.3481 199.795 92.8821 189.093 92.8821C178.391 92.8821 170.498 87.3513 170.498 80.5272Z" fill="white" stroke="#4A63CE" stroke-width="0.687796" stroke-linecap="round" stroke-linejoin="round"/>
<path d="M193.138 175.038C193.766 175.038 194.275 174.528 194.275 173.899C194.275 173.269 193.766 172.759 193.138 172.759C192.509 172.759 192 173.269 192 173.899C192 174.528 192.509 175.038 193.138 175.038Z" fill="#FF7F0B" stroke="#FF7F0B" stroke-width="0.275118" stroke-linecap="round" stroke-linejoin="round"/>
<path d="M190.216 185.926C190.844 185.926 191.353 185.416 191.353 184.787C191.353 184.157 190.844 183.647 190.216 183.647C189.587 183.647 189.078 184.157 189.078 184.787C189.078 185.416 189.587 185.926 190.216 185.926Z" fill="#FF7F0B" stroke="#FF7F0B" stroke-width="0.275118" stroke-linecap="round" stroke-linejoin="round"/>
<path d="M193.223 198.031C193.852 198.031 194.361 197.521 194.361 196.891C194.361 196.262 193.852 195.752 193.223 195.752C192.595 195.752 192.086 196.262 192.086 196.891C192.086 197.521 192.595 198.031 193.223 198.031Z" fill="#FF7F0B" stroke="#FF7F0B" stroke-width="0.275118" stroke-linecap="round" stroke-linejoin="round"/>
<path d="M188.013 213.518C188.641 213.518 189.15 213.008 189.15 212.379C189.15 211.749 188.641 211.239 188.013 211.239C187.384 211.239 186.875 211.749 186.875 212.379C186.875 213.008 187.384 213.518 188.013 213.518Z" fill="#FF7F0B" stroke="#FF7F0B" stroke-width="0.275118" stroke-linecap="round" stroke-linejoin="round"/>
<path d="M126.43 181.499H133.465V161.67H126.43V181.499Z" fill="white" stroke="#4A63CE" stroke-width="0.275118" stroke-linecap="round" stroke-linejoin="round"/>
<path d="M123.195 157.984C123.195 159.264 123.573 160.514 124.282 161.578C124.99 162.643 125.998 163.472 127.178 163.963C128.357 164.453 129.656 164.582 130.908 164.334C132.161 164.085 133.312 163.47 134.216 162.567C135.12 161.663 135.736 160.511 135.987 159.257C136.237 158.002 136.111 156.702 135.624 155.519C135.136 154.337 134.31 153.325 133.249 152.613C132.188 151.901 130.94 151.52 129.663 151.518C128.815 151.517 127.974 151.683 127.19 152.008C126.405 152.332 125.692 152.808 125.091 153.409C124.491 154.009 124.014 154.722 123.689 155.507C123.363 156.293 123.196 157.134 123.195 157.984V157.984Z" fill="white" stroke="#4A63CE" stroke-width="0.275118" stroke-linecap="round" stroke-linejoin="round"/>
<g style="mix-blend-mode:color-dodge">
<path d="M130.845 160.268C133.065 160.268 134.865 158.465 134.865 156.241C134.865 154.016 133.065 152.213 130.845 152.213C128.624 152.213 126.824 154.016 126.824 156.241C126.824 158.465 128.624 160.268 130.845 160.268Z" fill="white"/>
<path d="M130.845 160.268C133.065 160.268 134.865 158.465 134.865 156.241C134.865 154.016 133.065 152.213 130.845 152.213C128.624 152.213 126.824 154.016 126.824 156.241C126.824 158.465 128.624 160.268 130.845 160.268Z" stroke="#4A63CE" stroke-width="0.275118" stroke-linecap="round" stroke-linejoin="round"/>
</g>
<path d="M129.863 165.125C133.802 165.125 136.995 161.926 136.995 157.981C136.995 154.035 133.802 150.836 129.863 150.836C125.924 150.836 122.73 154.035 122.73 157.981C122.73 161.926 125.924 165.125 129.863 165.125Z" fill="white" stroke="#4A63CE" stroke-width="0.275118" stroke-linecap="round" stroke-linejoin="round"/>
<g style="mix-blend-mode:color-dodge" opacity="0.36">
<path d="M125.045 153.889C124.629 155.114 124.571 156.432 124.877 157.689C125.183 158.946 125.841 160.089 126.773 160.985C127.705 161.88 128.873 162.491 130.139 162.744C131.406 162.998 132.718 162.885 133.923 162.418C132.763 163.449 131.258 164.005 129.708 163.975C128.157 163.945 126.675 163.331 125.556 162.256C124.436 161.181 123.762 159.723 123.668 158.173C123.573 156.622 124.065 155.093 125.045 153.889V153.889Z" fill="white"/>
<path d="M125.045 153.889C124.629 155.114 124.571 156.432 124.877 157.689C125.183 158.946 125.841 160.089 126.773 160.985C127.705 161.88 128.873 162.491 130.139 162.744C131.406 162.998 132.718 162.885 133.923 162.418C132.763 163.449 131.258 164.005 129.708 163.975C128.157 163.945 126.675 163.331 125.556 162.256C124.436 161.181 123.762 159.723 123.668 158.173C123.573 156.622 124.065 155.093 125.045 153.889V153.889Z" stroke="#4A63CE" stroke-width="0.275118" stroke-linecap="round" stroke-linejoin="round"/>
</g>
<path d="M148.461 105.638V257.918C148.461 260.359 147.981 262.776 147.049 265.032C146.116 267.287 144.749 269.337 143.025 271.063C141.301 272.789 139.255 274.158 137.003 275.092C134.751 276.026 132.338 276.507 129.901 276.506V276.506C127.463 276.507 125.05 276.026 122.798 275.092C120.546 274.158 118.5 272.789 116.776 271.063C115.053 269.337 113.686 267.287 112.753 265.032C111.82 262.776 111.34 260.359 111.34 257.918V105.638C111.34 105.638 123.752 101.272 131.524 101.272C139.295 101.272 148.461 105.638 148.461 105.638Z" fill="white"/>
<path d="M148.461 105.638V257.918C148.461 260.359 147.981 262.776 147.049 265.032C146.116 267.287 144.749 269.337 143.025 271.063C141.301 272.789 139.255 274.158 137.003 275.092C134.751 276.026 132.338 276.507 129.901 276.506V276.506C127.463 276.507 125.05 276.026 122.798 275.092C120.546 274.158 118.5 272.789 116.776 271.063C115.053 269.337 113.686 267.287 112.753 265.032C111.82 262.776 111.34 260.359 111.34 257.918V105.638C111.34 105.638 123.752 101.272 131.524 101.272C139.295 101.272 148.461 105.638 148.461 105.638Z" fill="white" fill-opacity="0.3" stroke="#4A63CE" stroke-width="0.825355" stroke-linecap="round" stroke-linejoin="round"/>
<path d="M148.461 105.638V257.918C148.461 260.359 147.981 262.776 147.049 265.032C146.116 267.287 144.749 269.337 143.025 271.063C141.301 272.789 139.255 274.158 137.003 275.092C134.751 276.026 132.338 276.507 129.901 276.506V276.506C127.463 276.507 125.05 276.026 122.798 275.092C120.546 274.158 118.5 272.789 116.776 271.063C115.053 269.337 113.686 267.287 112.753 265.032C111.82 262.776 111.34 260.359 111.34 257.918V105.638C111.34 105.638 123.752 101.272 131.524 101.272C139.295 101.272 148.461 105.638 148.461 105.638Z" stroke="#4A63CE" stroke-width="0.275118" stroke-linecap="round" stroke-linejoin="round"/>
<path d="M129.91 272.04C133.65 272.04 137.237 270.551 139.881 267.902C142.526 265.253 144.012 261.661 144.012 257.914V187.288H115.809V257.914C115.809 261.661 117.294 265.253 119.939 267.902C122.583 270.551 126.17 272.04 129.91 272.04V272.04Z" fill="white" stroke="#FF7F0B" stroke-width="0.687796" stroke-linecap="round" stroke-linejoin="round"/>
<path d="M129.907 198.176C137.693 198.176 144.005 194.152 144.005 189.189C144.005 184.226 137.693 180.202 129.907 180.202C122.121 180.202 115.809 184.226 115.809 189.189C115.809 194.152 122.121 198.176 129.907 198.176Z" fill="white" stroke="#FF7F0B" stroke-width="0.687796" stroke-linecap="round" stroke-linejoin="round"/>
<path d="M129.911 104.027C119.209 104.027 111.322 109.557 111.322 116.378C111.322 123.199 119.209 128.733 129.911 128.733C140.612 128.733 148.5 123.202 148.5 116.378C148.5 109.554 140.622 104.027 129.911 104.027C141.659 104.027 153.081 107.709 156.685 114.42V121.093C156.685 130.51 144.699 138.159 129.911 138.159C115.123 138.159 103.137 130.519 103.137 121.093V115.041C106.747 108.336 118.166 104.027 129.911 104.027Z" fill="white"/>
<path d="M129.911 104.027C119.209 104.027 111.322 109.557 111.322 116.378C111.322 123.199 119.209 128.733 129.911 128.733C140.612 128.733 148.5 123.202 148.5 116.378C148.5 109.554 140.622 104.027 129.911 104.027ZM129.911 104.027C141.659 104.027 153.081 107.709 156.685 114.42V121.093C156.685 130.51 144.699 138.159 129.911 138.159C115.123 138.159 103.137 130.519 103.137 121.093V115.041C106.747 108.336 118.166 104.027 129.911 104.027Z" stroke="#4A63CE" stroke-width="0.687796" stroke-linecap="round" stroke-linejoin="round"/>
<path d="M103.137 116.378C103.137 125.794 115.123 133.444 129.911 133.444C144.699 133.444 156.685 125.804 156.685 116.378C156.685 106.951 144.696 99.3113 129.911 99.3113C115.126 99.3113 103.137 106.951 103.137 116.378ZM111.322 116.378C111.322 109.557 119.209 104.026 129.911 104.026C140.612 104.026 148.5 109.557 148.5 116.378C148.5 123.199 140.622 128.733 129.911 128.733C119.2 128.733 111.322 123.202 111.322 116.378Z" fill="white" stroke="#4A63CE" stroke-width="0.275118" stroke-linecap="round" stroke-linejoin="round"/>
<path d="M103.137 116.378C103.137 125.794 115.123 133.444 129.911 133.444C144.699 133.444 156.685 125.804 156.685 116.378C156.685 106.951 144.696 99.3113 129.911 99.3113C115.126 99.3113 103.137 106.951 103.137 116.378ZM111.322 116.378C111.322 109.557 119.209 104.026 129.911 104.026C140.612 104.026 148.5 109.557 148.5 116.378C148.5 123.199 140.622 128.733 129.911 128.733C119.2 128.733 111.322 123.202 111.322 116.378Z" fill="white" stroke="#4A63CE" stroke-width="0.687796" stroke-linecap="round" stroke-linejoin="round"/>
<path d="M133.962 210.884C134.59 210.884 135.099 210.374 135.099 209.745C135.099 209.115 134.59 208.605 133.962 208.605C133.334 208.605 132.824 209.115 132.824 209.745C132.824 210.374 133.334 210.884 133.962 210.884Z" fill="#FF7F0B" stroke="#FF7F0B" stroke-width="0.275118" stroke-linecap="round" stroke-linejoin="round"/>
<path d="M131.04 221.777C131.668 221.777 132.177 221.266 132.177 220.637C132.177 220.008 131.668 219.498 131.04 219.498C130.412 219.498 129.902 220.008 129.902 220.637C129.902 221.266 130.412 221.777 131.04 221.777Z" fill="#FF7F0B" stroke="#FF7F0B" stroke-width="0.275118" stroke-linecap="round" stroke-linejoin="round"/>
<path d="M134.032 233.881C134.66 233.881 135.17 233.371 135.17 232.742C135.17 232.112 134.66 231.602 134.032 231.602C133.404 231.602 132.895 232.112 132.895 232.742C132.895 233.371 133.404 233.881 134.032 233.881Z" fill="#FF7F0B" stroke="#FF7F0B" stroke-width="0.275118" stroke-linecap="round" stroke-linejoin="round"/>
<path d="M128.817 249.364C129.445 249.364 129.955 248.854 129.955 248.225C129.955 247.595 129.445 247.085 128.817 247.085C128.189 247.085 127.68 247.595 127.68 248.225C127.68 248.854 128.189 249.364 128.817 249.364Z" fill="#FF7F0B" stroke="#FF7F0B" stroke-width="0.275118" stroke-linecap="round" stroke-linejoin="round"/>
<path d="M123.195 100.777C123.195 102.056 123.573 103.307 124.282 104.371C124.99 105.435 125.998 106.265 127.178 106.755C128.357 107.246 129.656 107.375 130.908 107.126C132.161 106.878 133.312 106.263 134.216 105.359C135.12 104.455 135.736 103.304 135.987 102.049C136.237 100.795 136.111 99.4941 135.624 98.3117C135.136 97.1292 134.31 96.118 133.249 95.4059C132.188 94.6937 130.94 94.3127 129.663 94.3108C128.815 94.3096 127.974 94.4759 127.19 94.8002C126.405 95.1246 125.692 95.6007 125.091 96.2012C124.491 96.8017 124.014 97.5149 123.689 98.3001C123.363 99.0852 123.196 99.9269 123.195 100.777V100.777Z" fill="white" stroke="#4A63CE" stroke-width="0.275118" stroke-linecap="round" stroke-linejoin="round"/>
<g style="mix-blend-mode:color-dodge">
<path d="M130.845 103.06C133.065 103.06 134.865 101.257 134.865 99.0332C134.865 96.809 133.065 95.006 130.845 95.006C128.624 95.006 126.824 96.809 126.824 99.0332C126.824 101.257 128.624 103.06 130.845 103.06Z" fill="white"/>
<path d="M130.845 103.06C133.065 103.06 134.865 101.257 134.865 99.0332C134.865 96.809 133.065 95.006 130.845 95.006C128.624 95.006 126.824 96.809 126.824 99.0332C126.824 101.257 128.624 103.06 130.845 103.06Z" stroke="#4A63CE" stroke-width="0.275118" stroke-linecap="round" stroke-linejoin="round"/>
</g>
<path d="M129.863 107.922C133.802 107.922 136.995 104.723 136.995 100.778C136.995 96.8319 133.802 93.6333 129.863 93.6333C125.924 93.6333 122.73 96.8319 122.73 100.778C122.73 104.723 125.924 107.922 129.863 107.922Z" fill="white" stroke="#FF7F0B" stroke-width="0.550237" stroke-linecap="round" stroke-linejoin="round"/>
<g style="mix-blend-mode:color-dodge" opacity="0.36">
<path d="M125.054 96.6729C124.641 97.8977 124.584 99.2152 124.89 100.471C125.197 101.727 125.855 102.87 126.786 103.765C127.718 104.66 128.885 105.271 130.15 105.526C131.416 105.781 132.727 105.669 133.932 105.204C132.773 106.24 131.266 106.799 129.713 106.77C128.16 106.742 126.676 106.128 125.555 105.051C124.434 103.974 123.76 102.513 123.667 100.96C123.575 99.4069 124.07 97.8761 125.054 96.6729V96.6729Z" fill="white"/>
<path d="M125.054 96.6729C124.641 97.8977 124.584 99.2152 124.89 100.471C125.197 101.727 125.855 102.87 126.786 103.765C127.718 104.66 128.885 105.271 130.15 105.526C131.416 105.781 132.727 105.669 133.932 105.204C132.773 106.24 131.266 106.799 129.713 106.77C128.16 106.742 126.676 106.128 125.555 105.051C124.434 103.974 123.76 102.513 123.667 100.96C123.575 99.4069 124.07 97.8761 125.054 96.6729V96.6729Z" stroke="#4A63CE" stroke-width="0.275118" stroke-linecap="round" stroke-linejoin="round"/>
</g>
<path d="M125.367 55.4723C125.367 56.334 125.622 57.1764 126.1 57.8929C126.578 58.6093 127.257 59.1678 128.052 59.4975C128.847 59.8273 129.722 59.9136 130.565 59.7455C131.409 59.5773 132.184 59.1624 132.792 58.5531C133.401 57.9438 133.815 57.1674 133.983 56.3223C134.151 55.4772 134.064 54.6011 133.735 53.805C133.406 53.0089 132.849 52.3285 132.133 51.8497C131.418 51.371 130.577 51.1155 129.717 51.1155C129.145 51.1151 128.58 51.2275 128.052 51.4463C127.524 51.6651 127.044 51.986 126.64 52.3906C126.236 52.7953 125.916 53.2758 125.697 53.8045C125.479 54.3333 125.367 54.9001 125.367 55.4723Z" fill="white" stroke="#4A63CE" stroke-width="0.275118" stroke-linecap="round" stroke-linejoin="round"/>
<g style="mix-blend-mode:color-dodge">
<path d="M130.512 57.0076C132.007 57.0076 133.22 55.7933 133.22 54.2955C133.22 52.7977 132.007 51.5835 130.512 51.5835C129.017 51.5835 127.805 52.7977 127.805 54.2955C127.805 55.7933 129.017 57.0076 130.512 57.0076Z" fill="white"/>
<path d="M130.512 57.0076C132.007 57.0076 133.22 55.7933 133.22 54.2955C133.22 52.7977 132.007 51.5835 130.512 51.5835C129.017 51.5835 127.805 52.7977 127.805 54.2955C127.805 55.7933 129.017 57.0076 130.512 57.0076Z" stroke="#4A63CE" stroke-width="0.275118" stroke-linecap="round" stroke-linejoin="round"/>
</g>
<path d="M129.851 60.2849C132.504 60.2849 134.655 58.1305 134.655 55.4729C134.655 52.8153 132.504 50.6609 129.851 50.6609C127.198 50.6609 125.047 52.8153 125.047 55.4729C125.047 58.1305 127.198 60.2849 129.851 60.2849Z" fill="white" stroke="#FF7F0B" stroke-width="0.550237" stroke-linecap="round" stroke-linejoin="round"/>
<g style="mix-blend-mode:color-dodge" opacity="0.36">
<path d="M126.615 52.7288C126.382 53.4186 126.317 54.1542 126.424 54.8746C126.531 55.5949 126.809 56.2792 127.233 56.8706C127.658 57.4621 128.217 57.9436 128.864 58.2752C129.511 58.6068 130.228 58.779 130.956 58.7775C131.517 58.7753 132.072 58.6689 132.594 58.4636C131.813 59.1486 130.803 59.5156 129.765 59.4922C128.727 59.4688 127.735 59.0568 126.985 58.3373C126.234 57.6178 125.78 56.643 125.712 55.6049C125.644 54.5668 125.966 53.5407 126.615 52.7288V52.7288Z" fill="white"/>
<path d="M126.615 52.7288C126.382 53.4186 126.317 54.1542 126.424 54.8746C126.531 55.5949 126.809 56.2792 127.233 56.8706C127.658 57.4621 128.217 57.9436 128.864 58.2752C129.511 58.6068 130.228 58.779 130.956 58.7775C131.517 58.7753 132.072 58.6689 132.594 58.4636C131.813 59.1486 130.803 59.5156 129.765 59.4922C128.727 59.4688 127.735 59.0568 126.985 58.3373C126.234 57.6178 125.78 56.643 125.712 55.6049C125.644 54.5668 125.966 53.5407 126.615 52.7288V52.7288Z" stroke="#4A63CE" stroke-width="0.275118" stroke-linecap="round" stroke-linejoin="round"/>
</g>
<path d="M50.9512 236.19C55.5421 238.55 61.3801 239.957 67.7384 239.957C82.5263 239.957 94.5126 232.317 94.5126 222.89C94.5126 219.303 92.7734 215.985 89.8121 213.229L109.191 201.929C114.101 205.535 121.34 207.82 129.422 207.82C144.207 207.82 156.196 200.18 156.196 190.754C156.196 186.071 153.235 181.83 148.443 178.748L169.752 166.013C174.566 168.973 181.112 170.797 188.329 170.797C203.117 170.797 215.103 163.153 215.103 153.73C215.103 149.596 212.797 145.808 208.964 142.854L222.843 134.658L255.089 151.608L60.7127 264.039L30.4883 248.281L50.9512 236.19Z" fill="white"/>
<g style="mix-blend-mode:multiply">
<path d="M76.8672 238.953L133.772 230.218L156.419 212.206L90.4266 218.512L76.8672 238.953Z" fill="#C4C7E8"/>
</g>
<g style="mix-blend-mode:multiply">
<path d="M140.973 204.245L194.715 197.095L217.362 179.083L154.532 183.804L140.973 204.245Z" fill="#C4C7E8"/>
</g>
<g style="mix-blend-mode:multiply">
<path d="M186.641 171.321L218 173L255 151.5L200.2 150.88L186.641 171.321Z" fill="#C4C7E8"/>
</g>
<path d="M50.9512 236.19C55.5421 238.55 61.3801 239.957 67.7384 239.957C82.5263 239.957 94.5126 232.317 94.5126 222.89C94.5126 219.303 92.7734 215.985 89.8121 213.229L109.191 201.929C114.101 205.535 121.34 207.82 129.422 207.82C144.207 207.82 156.196 200.18 156.196 190.754C156.196 186.071 153.235 181.83 148.443 178.748L169.752 166.013C174.566 168.973 181.112 170.797 188.329 170.797C203.117 170.797 215.103 163.153 215.103 153.73C215.103 149.596 212.797 145.808 208.964 142.854L222.843 134.658L255.089 151.608L60.7127 264.039L30.4883 248.281L50.9512 236.19Z" stroke="#4A63CE" stroke-width="0.275118" stroke-linecap="round" stroke-linejoin="round"/>
<path d="M60.707 264.039V272.059L254.983 158.875V151.612L60.707 264.039Z" fill="white" stroke="#4A63CE" stroke-width="0.275118" stroke-linecap="round" stroke-linejoin="round"/>
<path d="M60.707 264.039V272.059L254.983 158.875V151.612L60.707 264.039Z" fill="white" stroke="#4A63CE" stroke-width="0.687796" stroke-linecap="round" stroke-linejoin="round"/>
<path d="M60.7095 264.039L0.890625 229.445V237.289L60.7095 272.059V264.039Z" fill="white" stroke="#4A63CE" stroke-width="0.550237" stroke-linecap="round" stroke-linejoin="round"/>
<path d="M182.422 52.2189C182.422 53.4981 182.801 54.7486 183.51 55.8124C184.219 56.8761 185.228 57.7053 186.407 58.1951C187.587 58.685 188.885 58.8135 190.138 58.5643C191.391 58.3152 192.542 57.6997 193.445 56.7956C194.349 55.8915 194.964 54.7393 195.214 53.4848C195.464 52.2303 195.337 50.9297 194.849 49.7475C194.361 48.5653 193.534 47.5545 192.473 46.8428C191.412 46.1312 190.164 45.7508 188.887 45.7495C188.038 45.7487 187.197 45.9154 186.413 46.2402C185.629 46.5649 184.916 47.0413 184.316 47.6421C183.715 48.2429 183.239 48.9564 182.914 49.7417C182.589 50.527 182.422 51.3688 182.422 52.2189Z" fill="white" stroke="#4A63CE" stroke-width="0.275118" stroke-linecap="round" stroke-linejoin="round"/>
<g style="mix-blend-mode:color-dodge">
<path d="M190.075 54.5037C192.296 54.5037 194.096 52.7007 194.096 50.4765C194.096 48.2523 192.296 46.4492 190.075 46.4492C187.855 46.4492 186.055 48.2523 186.055 50.4765C186.055 52.7007 187.855 54.5037 190.075 54.5037Z" fill="white"/>
<path d="M190.075 54.5037C192.296 54.5037 194.096 52.7007 194.096 50.4765C194.096 48.2523 192.296 46.4492 190.075 46.4492C187.855 46.4492 186.055 48.2523 186.055 50.4765C186.055 52.7007 187.855 54.5037 190.075 54.5037Z" stroke="#4A63CE" stroke-width="0.275118" stroke-linecap="round" stroke-linejoin="round"/>
</g>
<path d="M189.093 59.3604C193.032 59.3604 196.225 56.1619 196.225 52.2162C196.225 48.2706 193.032 45.072 189.093 45.072C185.154 45.072 181.961 48.2706 181.961 52.2162C181.961 56.1619 185.154 59.3604 189.093 59.3604Z" fill="white" stroke="#FF7F0B" stroke-width="0.550237" stroke-linecap="round" stroke-linejoin="round"/>
<g style="mix-blend-mode:color-dodge">
<path d="M184.275 48.125C183.86 49.3498 183.801 50.6681 184.108 51.9249C184.414 53.1817 185.071 54.325 186.003 55.2204C186.936 56.1159 188.103 56.7264 189.37 56.9802C190.636 57.2341 191.949 57.1207 193.153 56.6535C191.993 57.6847 190.488 58.2406 188.938 58.2107C187.388 58.1808 185.905 57.5672 184.786 56.492C183.667 55.4168 182.993 53.9589 182.898 52.4085C182.804 50.858 183.295 49.3287 184.275 48.125V48.125Z" fill="white"/>
</g>
<path d="M62.168 132.544C62.168 133.823 62.5468 135.074 63.2564 136.138C63.9661 137.202 64.9748 138.031 66.1549 138.521C67.3351 139.01 68.6337 139.138 69.8865 138.889C71.1393 138.639 72.2901 138.023 73.1934 137.118C74.0966 136.213 74.7117 135.061 74.9609 133.806C75.2101 132.551 75.0822 131.25 74.5934 130.068C74.1046 128.886 73.2768 127.875 72.2147 127.165C71.1526 126.454 69.9039 126.074 68.6265 126.074C66.9136 126.074 65.2708 126.756 64.0596 127.969C62.8484 129.182 62.168 130.828 62.168 132.544V132.544Z" fill="white" stroke="#4A63CE" stroke-width="0.275118" stroke-linecap="round" stroke-linejoin="round"/>
<g style="mix-blend-mode:color-dodge">
<path d="M69.8369 134.829C72.0574 134.829 73.8575 133.026 73.8575 130.801C73.8575 128.577 72.0574 126.774 69.8369 126.774C67.6165 126.774 65.8164 128.577 65.8164 130.801C65.8164 133.026 67.6165 134.829 69.8369 134.829Z" fill="white"/>
<path d="M69.8369 134.829C72.0574 134.829 73.8575 133.026 73.8575 130.801C73.8575 128.577 72.0574 126.774 69.8369 126.774C67.6165 126.774 65.8164 128.577 65.8164 130.801C65.8164 133.026 67.6165 134.829 69.8369 134.829Z" stroke="#4A63CE" stroke-width="0.275118" stroke-linecap="round" stroke-linejoin="round"/>
</g>
<path d="M68.8354 139.685C72.7744 139.685 75.9677 136.487 75.9677 132.541C75.9677 128.595 72.7744 125.397 68.8354 125.397C64.8963 125.397 61.7031 128.595 61.7031 132.541C61.7031 136.487 64.8963 139.685 68.8354 139.685Z" fill="#4A63CE" stroke="#4A63CE" stroke-width="0.275118" stroke-linecap="round" stroke-linejoin="round"/>
<g style="mix-blend-mode:color-dodge">
<path d="M64.037 128.45C63.6192 129.676 63.5601 130.997 63.8666 132.256C64.1732 133.515 64.8325 134.66 65.7671 135.556C66.7017 136.453 67.8725 137.063 69.1416 137.315C70.4107 137.566 71.7253 137.45 72.9304 136.978C71.7707 138.009 70.2659 138.565 68.7154 138.536C67.165 138.506 65.6826 137.892 64.5634 136.817C63.4442 135.742 62.7702 134.284 62.6756 132.733C62.5809 131.183 63.0726 129.654 64.0527 128.45H64.037Z" fill="white"/>
</g>
<path d="M64.0898 96.673C64.0898 97.5421 64.3471 98.3917 64.8292 99.1144C65.3113 99.8371 65.9964 100.4 66.7981 100.733C67.5997 101.066 68.4819 101.153 69.3329 100.983C70.1839 100.813 70.9656 100.395 71.5792 99.7803C72.1927 99.1658 72.6106 98.3827 72.7799 97.5303C72.9491 96.6778 72.8622 95.7942 72.5302 94.9912C72.1981 94.1883 71.6358 93.5019 70.9144 93.0191C70.1929 92.5362 69.3447 92.2784 68.477 92.2784C67.3135 92.2784 66.1976 92.7414 65.3748 93.5656C64.552 94.3897 64.0898 95.5075 64.0898 96.673Z" fill="white" stroke="#4A63CE" stroke-width="0.187081" stroke-linecap="round" stroke-linejoin="round"/>
<g style="mix-blend-mode:color-dodge">
<path d="M69.3013 98.2377C70.8139 98.2377 72.0401 97.0094 72.0401 95.4943C72.0401 93.9791 70.8139 92.7509 69.3013 92.7509C67.7887 92.7509 66.5625 93.9791 66.5625 95.4943C66.5625 97.0094 67.7887 98.2377 69.3013 98.2377Z" fill="white"/>
<path d="M69.3013 98.2377C70.8139 98.2377 72.0401 97.0094 72.0401 95.4943C72.0401 93.9791 70.8139 92.7509 69.3013 92.7509C67.7887 92.7509 66.5625 93.9791 66.5625 95.4943C66.5625 97.0094 67.7887 98.2377 69.3013 98.2377Z" stroke="#4A63CE" stroke-width="0.187081" stroke-linecap="round" stroke-linejoin="round"/>
</g>
<path d="M68.6267 101.546C71.3093 101.546 73.4839 99.3673 73.4839 96.6803C73.4839 93.9932 71.3093 91.8149 68.6267 91.8149C65.9442 91.8149 63.7695 93.9932 63.7695 96.6803C63.7695 99.3673 65.9442 101.546 68.6267 101.546Z" fill="#4A63CE" stroke="#4A63CE" stroke-width="0.187081" stroke-linecap="round" stroke-linejoin="round"/>
<g style="mix-blend-mode:color-dodge">
<path d="M65.3661 93.8962C65.0834 94.7306 65.0441 95.6285 65.2529 96.4844C65.4616 97.3404 65.9097 98.119 66.5445 98.7289C67.1794 99.3388 67.9747 99.7547 68.8373 99.9279C69.6998 100.101 70.5937 100.024 71.4141 99.7064C70.6249 100.414 69.5982 100.796 68.5395 100.778C67.4807 100.759 66.4679 100.341 65.7037 99.6071C64.9395 98.8729 64.4801 97.8768 64.4175 96.8179C64.3549 95.7591 64.6937 94.7156 65.3661 93.8962V93.8962Z" fill="white"/>
</g>
<path d="M184.594 5.26777C184.593 6.12974 184.848 6.97252 185.325 7.68948C185.803 8.40644 186.482 8.96535 187.277 9.2955C188.072 9.62565 188.947 9.71219 189.791 9.54418C190.635 9.37617 191.41 8.96116 192.019 8.35166C192.627 7.74215 193.042 6.96555 193.209 6.12011C193.377 5.27468 193.291 4.3984 192.961 3.60216C192.632 2.80593 192.074 2.12551 191.358 1.64702C190.642 1.16852 189.801 0.913443 188.94 0.914064C187.787 0.914064 186.682 1.37276 185.867 2.18923C185.052 3.00571 184.594 4.11309 184.594 5.26777V5.26777Z" fill="white" stroke="#4A63CE" stroke-width="0.275118" stroke-linecap="round" stroke-linejoin="round"/>
<g style="mix-blend-mode:color-dodge">
<path d="M189.758 6.80615C191.254 6.80615 192.466 5.59193 192.466 4.09412C192.466 2.5963 191.254 1.38208 189.758 1.38208C188.263 1.38208 187.051 2.5963 187.051 4.09412C187.051 5.59193 188.263 6.80615 189.758 6.80615Z" fill="white"/>
<path d="M189.758 6.80615C191.254 6.80615 192.466 5.59193 192.466 4.09412C192.466 2.5963 191.254 1.38208 189.758 1.38208C188.263 1.38208 187.051 2.5963 187.051 4.09412C187.051 5.59193 188.263 6.80615 189.758 6.80615Z" stroke="#4A63CE" stroke-width="0.275118" stroke-linecap="round" stroke-linejoin="round"/>
</g>
<path d="M189.077 10.079C191.731 10.079 193.881 7.92465 193.881 5.26706C193.881 2.60948 191.731 0.455078 189.077 0.455078C186.424 0.455078 184.273 2.60948 184.273 5.26706C184.273 7.92465 186.424 10.079 189.077 10.079Z" fill="white" stroke="#FF7F0B" stroke-width="0.550237" stroke-linecap="round" stroke-linejoin="round"/>
<g style="mix-blend-mode:color-dodge" opacity="0.36">
<path d="M185.845 2.50513C185.685 2.9761 185.603 3.47032 185.603 3.96787C185.601 4.71246 185.781 5.44633 186.126 6.10582C186.471 6.7653 186.971 7.33047 187.584 7.75231C188.197 8.17414 188.903 8.4399 189.641 8.52652C190.379 8.61314 191.127 8.51801 191.821 8.24938C191.039 8.94108 190.027 9.31313 188.984 9.29165C187.941 9.27018 186.945 8.85675 186.192 8.13345C185.44 7.41015 184.986 6.42987 184.922 5.38721C184.858 4.34456 185.187 3.31579 185.845 2.50513V2.50513Z" fill="white"/>
<path d="M185.845 2.50513C185.685 2.9761 185.603 3.47032 185.603 3.96787C185.601 4.71246 185.781 5.44633 186.126 6.10582C186.471 6.7653 186.971 7.33047 187.584 7.75231C188.197 8.17414 188.903 8.4399 189.641 8.52652C190.379 8.61314 191.127 8.51801 191.821 8.24938C191.039 8.94108 190.027 9.31313 188.984 9.29165C187.941 9.27018 186.945 8.85675 186.192 8.13345C185.44 7.41015 184.986 6.42987 184.922 5.38721C184.858 4.34456 185.187 3.31579 185.845 2.50513V2.50513Z" stroke="#4A63CE" stroke-width="0.275118" stroke-linecap="round" stroke-linejoin="round"/>
</g>
<path d="M60.7064 264.042C58.1806 262.661 55.6737 261.245 53.1542 259.848L45.6334 255.601C40.6195 252.776 35.64 249.876 30.6418 247.016C25.6436 244.157 20.6861 241.231 15.7255 238.306L8.29239 233.911C5.82618 232.427 3.34743 230.958 0.890625 229.454C3.41951 230.835 5.92646 232.251 8.44594 233.645L15.9668 237.895C20.9807 240.72 25.9601 243.617 30.9552 246.48C35.9503 249.342 40.914 252.265 45.8747 255.19L53.3078 259.585C55.7583 261.073 58.2339 262.539 60.7064 264.042Z" fill="#4A63CE"/>
</svg>
