<svg width="219" height="51" viewBox="0 0 219 51" fill="none" xmlns="http://www.w3.org/2000/svg">
<path fill-rule="evenodd" clip-rule="evenodd" d="M38.5922 0H13.2965V13.0051H1.10571e-06L0 37.7464H13.2965V50.7514H38.5922V37.7464H51.8887V13.0051H38.5922V0Z" fill="url(#paint0_linear_2_954)"/>
<path fill-rule="evenodd" clip-rule="evenodd" d="M25.4116 21.1982C24.6336 30.7228 22.1959 42.4062 18.1503 50.0258C18.0225 50.2666 17.9013 50.5066 17.7865 50.7455H23.8812C23.959 50.5105 24.0369 50.2706 24.1149 50.0258C29.8202 32.1197 29.8135 20.4929 29.8135 20.4929C29.566 20.5193 30.054 20.4673 29.8135 20.4929C35.7025 19.8649 43.7593 18.8698 51.8821 19.0215V16.5181C45.2436 15.989 37.6748 15.9108 29.8202 16.6264C29.6083 10.4211 29.2769 3.56967 28.085 0.000488281H23.013C22.3304 0.9801 21.5765 2.27498 20.7436 3.92708C19.0147 7.18659 15.2199 14.9501 13.8713 19.9283C10.6945 19.9283 1.81246 22.7222 9.33304 27.4209C10.1975 28.0136 12.2894 28.2464 14.779 23.6746C17.4371 22.5952 19.9656 22.0872 25.4116 21.1982ZM16.1405 19.2934C17.8478 18.7854 22.0921 17.6933 25.4116 17.3885C25.9086 7.58882 24.7503 -5.74977 16.1405 19.2934ZM12.4451 24.5001C11.9696 24.5847 10.7205 24.9064 9.52759 25.516C10.1543 26.151 11.6152 26.8367 12.4451 24.5001Z" fill="white"/>
<path d="M87.5043 38.0559H79.5635L71.8542 25.1811V38.0559H64.8013V12.6538H71.8542V24.9553L79.2793 12.6538H86.9892L78.9774 24.7815L87.5043 38.0559Z" fill="white"/>
<path d="M114.471 25.3189C114.471 29.5931 113.398 32.8422 111.255 35.0662C109.111 37.2902 105.973 38.4022 101.84 38.4022C97.7661 38.4022 94.6396 37.2844 92.4605 35.0488C90.2935 32.8133 89.2094 29.5583 89.2094 25.2841C89.2094 21.0562 90.2872 17.8303 92.4428 15.6063C94.6098 13.3707 97.7541 12.2529 101.875 12.2529C106.009 12.2529 109.141 13.3591 111.273 15.5715C113.405 17.7839 114.471 21.033 114.471 25.3189ZM96.5996 25.3189C96.5996 30.2302 98.3464 32.6858 101.84 32.6858C103.616 32.6858 104.931 32.0893 105.784 30.8962C106.648 29.7031 107.08 27.844 107.08 25.3189C107.08 22.7821 106.642 20.9114 105.766 19.7068C104.901 18.4905 103.604 17.8824 101.875 17.8824C98.3584 17.8824 96.5996 20.3612 96.5996 25.3189Z" fill="white"/>
<path d="M130.475 38.0559L125.164 19.7601H125.004C125.252 22.876 125.377 25.297 125.377 27.0229V38.0559H119.159V12.6538H128.503L133.922 30.689H134.063L139.375 12.6538H148.737V38.0559H142.288V26.9186C142.288 26.3395 142.294 25.6966 142.306 24.99C142.33 24.2834 142.413 22.5517 142.555 19.7949H142.395L137.154 38.0559H130.475Z" fill="white"/>
<path d="M165.791 38.0559H158.774V18.2659H152.432V12.6538H172.115V18.2659H165.791V38.0559Z" fill="white"/>
<path d="M191.247 38.0559H175.828V12.6538H191.247V18.1617H182.845V22.1579H190.625V27.6657H182.845V32.4612H191.247V38.0559Z" fill="white"/>
<path d="M218.498 38.0559H210.557L202.847 25.1811V38.0559H195.795V12.6538H202.847V24.9553L210.273 12.6538H217.983L209.971 24.7815L218.498 38.0559Z" fill="white"/>
<defs>
<linearGradient id="paint0_linear_2_954" x1="0" y1="50.7514" x2="50.739" y2="-1.12454" gradientUnits="userSpaceOnUse">
<stop stop-color="#FF2A00"/>
<stop offset="1" stop-color="#FFD500"/>
</linearGradient>
</defs>
</svg>
