<svg width="232" height="127" viewBox="0 0 232 127" fill="none" xmlns="http://www.w3.org/2000/svg">
<g clip-path="url(#clip0_1844_16973)">
<path d="M1.58594 126.848L97.7088 72.9202C98.2237 72.6235 98.6514 72.1964 98.9488 71.6818C99.2462 71.1672 99.4028 70.5834 99.4028 69.989C99.4028 69.3947 99.2462 68.8109 98.9488 68.2963C98.6514 67.7817 98.2237 67.3546 97.7088 67.0579L144.53 93.231C148.274 95.3235 152.498 96.4051 156.786 96.3691C161.074 96.3332 165.279 95.1809 168.987 93.0258L234.246 53.3379" stroke="#FF7F0B" stroke-width="3.16719" stroke-linecap="round" stroke-linejoin="round"/>
<path d="M130.211 119.945L135.373 115.855L130.988 114.773L130.211 119.945Z" fill="white" stroke="#4A63CE" stroke-width="0.754094" stroke-linecap="round" stroke-linejoin="round"/>
<path d="M90.6719 4.6196L95.3699 1.43129C95.4956 1.2861 95.6344 1.15282 95.7846 1.03312C96.9112 0.137261 98.5959 0.128211 100.48 1.2307L130.337 18.4074C133.726 20.3847 136.474 25.1807 136.474 29.1156V112.434C136.474 116.372 133.726 117.961 130.337 115.984L99.7693 98.1559C96.3804 96.1786 93.6324 91.3841 93.6324 87.4477V6.37814L90.6719 4.6196Z" fill="white"/>
<path d="M90.6719 4.6196L95.3699 1.43129C95.4956 1.2861 95.6344 1.15282 95.7846 1.03312V1.03312C96.9112 0.137261 98.5959 0.128211 100.48 1.2307L130.337 18.4074C133.726 20.3847 136.474 25.1807 136.474 29.1156V112.434C136.474 116.372 133.726 117.961 130.337 115.984L99.7693 98.1559C96.3804 96.1786 93.6324 91.3841 93.6324 87.4477V6.37814L90.6719 4.6196Z" stroke="#4A63CE" stroke-width="0.754094" stroke-linecap="round" stroke-linejoin="round"/>
<path d="M95.8321 101.713L126.396 119.542C129.784 121.519 132.531 119.929 132.531 115.991V32.6746C132.531 28.7367 129.784 23.9422 126.396 21.9665L95.8321 4.13518C92.4432 2.15794 89.6953 3.74758 89.6953 7.68545V91.0023C89.6953 94.9386 92.4432 99.7362 95.8321 101.713Z" fill="white" stroke="#4A63CE" stroke-width="0.150819" stroke-linecap="round" stroke-linejoin="round"/>
<path d="M129.146 119.502C128.457 119.502 127.662 119.25 126.844 118.774L96.2824 100.944C93.1408 99.1116 90.5859 94.6519 90.5859 91.0021V7.68533C90.5859 5.4879 91.5195 4.17578 93.0835 4.17578C93.7712 4.17578 94.5676 4.42765 95.385 4.90423L125.947 22.7325C129.087 24.565 131.642 29.0247 131.642 32.6745V115.991C131.642 117.136 131.384 118.068 130.895 118.685C130.689 118.95 130.423 119.162 130.119 119.304C129.815 119.446 129.481 119.514 129.146 119.502Z" fill="white"/>
<path d="M93.0812 5.06677C93.6121 5.06677 94.2531 5.27641 94.9333 5.67005L125.498 23.5028C128.346 25.1619 130.751 29.3652 130.751 32.6756V115.992C130.751 116.971 130.543 118.614 129.145 118.614C128.614 118.614 127.973 118.403 127.291 118.01L96.7295 100.176C93.882 98.5171 91.475 94.3153 91.475 91.0033V7.68649C91.475 6.70919 91.6846 5.06677 93.0827 5.06677H93.0812ZM93.0827 3.28711C91.0738 3.28711 89.6953 4.89785 89.6953 7.68649V91.0033C89.6953 94.9412 92.4432 99.7372 95.8321 101.711L126.396 119.54C127.383 120.117 128.317 120.39 129.145 120.39C131.152 120.39 132.531 118.78 132.531 115.989V32.6756C132.531 28.7378 129.784 23.9432 126.396 21.9675L95.8321 4.13622C94.8443 3.56009 93.9092 3.28711 93.0827 3.28711Z" fill="#4A63CE"/>
<path d="M119.688 21.8487C119.563 21.8371 119.442 21.794 119.337 21.7235L103.788 12.6503C103.073 12.2325 102.445 11.1421 102.445 10.3035V9.27344L119.789 19.3919V21.4596C119.801 21.5943 119.774 21.7296 119.71 21.8487H119.688Z" fill="#4A63CE"/>
<path d="M103.476 10.9031L118.895 19.898V20.4349L104.241 11.882C103.953 11.7146 103.654 11.3073 103.487 10.9031H103.476ZM101.562 7.71937V10.3044C101.562 11.4491 102.36 12.8442 103.347 13.4188L118.901 22.4921C119.14 22.6442 119.416 22.7296 119.7 22.7394C120.284 22.7394 120.685 22.2719 120.685 21.4605V18.8754L101.562 7.71484V7.71937Z" fill="#4A63CE"/>
<path d="M114.677 17.3104L107.344 13.0332" stroke="#4A63CE" stroke-width="0.138753" stroke-linecap="round" stroke-linejoin="round"/>
<path d="M103.474 95.4508L125.316 108.192C126.259 108.742 127.025 108.301 127.025 107.204V86.0065C127.025 84.9101 126.259 83.5753 125.316 83.0248L103.474 70.2837C102.53 69.7332 101.766 70.1751 101.766 71.2715V92.4691C101.766 93.5656 102.53 94.9003 103.474 95.4508Z" fill="white" stroke="#4A63CE" stroke-width="0.301637" stroke-linecap="round" stroke-linejoin="round"/>
<path d="M117.796 89.5696L122.815 92.497C123.191 92.7156 123.495 92.5407 123.495 92.1048V86.2727C123.483 86.0356 123.414 85.8049 123.296 85.599C123.178 85.3931 123.013 85.2178 122.815 85.0872L117.796 82.1583C117.422 81.9396 117.117 82.1161 117.117 82.552V88.3841C117.13 88.621 117.198 88.8516 117.316 89.0574C117.434 89.2633 117.598 89.4387 117.796 89.5696Z" fill="white" stroke="#4A63CE" stroke-width="0.301637" stroke-linecap="round" stroke-linejoin="round"/>
<path d="M114.936 82.8301L109.172 79.4668" stroke="#4A63CE" stroke-width="0.393637" stroke-linecap="round" stroke-linejoin="round"/>
<path d="M114.937 85.2164L105.641 79.793" stroke="#4A63CE" stroke-width="0.393637" stroke-linecap="round" stroke-linejoin="round"/>
<path d="M123.495 95.9805L117.117 92.2598" stroke="#4A63CE" stroke-width="0.393637" stroke-linecap="round" stroke-linejoin="round"/>
<path d="M123.493 98.4418L105.641 88.0293" stroke="#4A63CE" stroke-width="0.393637" stroke-linecap="round" stroke-linejoin="round"/>
<path d="M123.493 101.155L105.641 90.7422" stroke="#4A63CE" stroke-width="0.393637" stroke-linecap="round" stroke-linejoin="round"/>
<path d="M96.3494 41.8993L125.889 59.1303C126.831 59.6808 127.598 59.2389 127.598 58.1424V36.9449C127.598 35.8484 126.831 34.5137 125.889 33.9632L96.3494 16.7306C95.4053 16.1801 94.6406 16.6235 94.6406 17.72V38.9161C94.6406 40.0125 95.4053 41.3488 96.3494 41.8993Z" fill="white" stroke="#FF7F0B" stroke-width="0.452456" stroke-linecap="round" stroke-linejoin="round"/>
<path d="M119.588 41.9073L123.989 44.4712C124.318 44.6628 124.585 44.509 124.585 44.1259V39.0131C124.574 38.8051 124.514 38.6026 124.411 38.4219C124.307 38.2411 124.163 38.0872 123.989 37.9725L119.588 35.4085C119.259 35.217 118.992 35.3708 118.992 35.7524V40.8667C119.003 41.0746 119.063 41.277 119.166 41.4578C119.27 41.6385 119.414 41.7924 119.588 41.9073Z" fill="white" stroke="#FF7F0B" stroke-width="0.452456" stroke-linecap="round" stroke-linejoin="round"/>
<path d="M112.463 37.7519L116.864 40.3158C117.193 40.5074 117.46 40.3535 117.46 39.972V34.8607C117.448 34.6528 117.389 34.4504 117.285 34.2697C117.182 34.0889 117.037 33.935 116.864 33.8201L112.463 31.2562C112.134 31.0646 111.867 31.2185 111.867 31.6015V36.7143C111.879 36.9217 111.939 37.1235 112.042 37.3037C112.146 37.4838 112.29 37.6373 112.463 37.7519Z" fill="white" stroke="#FF7F0B" stroke-width="0.452456" stroke-linecap="round" stroke-linejoin="round"/>
<path d="M105.346 33.5942L109.747 36.1581C110.075 36.3511 110.342 36.1958 110.342 35.8142V30.703C110.331 30.4952 110.272 30.293 110.168 30.1126C110.065 29.9321 109.92 29.7784 109.747 29.6638L105.346 27.0999C105.017 26.9084 104.75 27.0622 104.75 27.4453V32.5595C104.762 32.7665 104.822 32.9678 104.925 33.1474C105.029 33.3271 105.173 33.4801 105.346 33.5942Z" fill="white" stroke="#FF7F0B" stroke-width="0.452456" stroke-linecap="round" stroke-linejoin="round"/>
<path d="M98.2129 29.4386L102.614 32.0025C102.943 32.1941 103.21 32.0387 103.21 31.6572V26.5474C103.198 26.3397 103.139 26.1375 103.035 25.957C102.932 25.7765 102.787 25.6228 102.614 25.5083L98.2129 22.9444C97.8841 22.7513 97.6172 22.9067 97.6172 23.2882V28.4025C97.6288 28.6097 97.6887 28.8113 97.7921 28.9912C97.8956 29.1711 98.0397 29.3244 98.2129 29.4386Z" fill="white" stroke="#FF7F0B" stroke-width="0.452456" stroke-linecap="round" stroke-linejoin="round"/>
<path d="M119.588 50.673L123.989 53.2369C124.318 53.4284 124.585 53.2746 124.585 52.8915V47.7787C124.574 47.5708 124.514 47.3682 124.411 47.1875C124.307 47.0067 124.163 46.8528 123.989 46.7381L119.588 44.1742C119.259 43.9826 118.992 44.1365 118.992 44.518V49.6323C119.003 49.8402 119.063 50.0427 119.166 50.2234C119.27 50.4041 119.414 50.5581 119.588 50.673Z" fill="white" stroke="#FF7F0B" stroke-width="0.452456" stroke-linecap="round" stroke-linejoin="round"/>
<path d="M112.463 46.5176L116.864 49.0815C117.193 49.273 117.46 49.1192 117.46 48.7376V43.6264C117.448 43.4184 117.389 43.216 117.285 43.0353C117.182 42.8546 117.037 42.7006 116.864 42.5857L112.463 40.0218C112.134 39.8302 111.867 39.9841 111.867 40.3672V45.4709C111.877 45.6799 111.936 45.8836 112.04 46.0655C112.143 46.2474 112.288 46.4022 112.463 46.5176Z" fill="white" stroke="#FF7F0B" stroke-width="0.452456" stroke-linecap="round" stroke-linejoin="round"/>
<path d="M105.346 42.3598L109.747 44.9237C110.075 45.1168 110.342 44.9614 110.342 44.5798V39.4686C110.331 39.2609 110.272 39.0587 110.168 38.8782C110.065 38.6977 109.92 38.544 109.747 38.4295L105.346 35.8655C105.017 35.674 104.75 35.8278 104.75 36.2109V41.3252C104.762 41.5321 104.822 41.7334 104.925 41.9131C105.029 42.0927 105.173 42.2457 105.346 42.3598Z" fill="white" stroke="#FF7F0B" stroke-width="0.452456" stroke-linecap="round" stroke-linejoin="round"/>
<path d="M98.2129 38.2042L102.614 40.7682C102.943 40.9597 103.21 40.8059 103.21 40.4228V35.313C103.198 35.1053 103.139 34.9031 103.035 34.7226C102.932 34.5422 102.787 34.3885 102.614 34.2739L98.2129 31.71C97.8841 31.5169 97.6172 31.6723 97.6172 32.0539V37.1681C97.6288 37.3753 97.6887 37.5769 97.7921 37.7569C97.8956 37.9368 98.0397 38.09 98.2129 38.2042Z" fill="white" stroke="#FF7F0B" stroke-width="0.452456" stroke-linecap="round" stroke-linejoin="round"/>
<path d="M95.7582 60.4426L115.083 71.7133C115.701 72.0738 116.2 71.7842 116.2 71.0663V57.203C116.18 56.813 116.068 56.4331 115.874 56.0942C115.68 55.7552 115.409 55.4665 115.083 55.2515L95.7582 43.9793C95.1413 43.6188 94.6406 43.9084 94.6406 44.6248V58.5001C94.6626 58.8886 94.7751 59.2666 94.9691 59.6038C95.1632 59.9411 95.4334 60.2284 95.7582 60.4426Z" fill="white" stroke="#4A63CE" stroke-width="0.301637" stroke-linecap="round" stroke-linejoin="round"/>
<path d="M113.271 64.3838L97.1953 55.0059" stroke="#4A63CE" stroke-width="0.393637" stroke-linecap="round" stroke-linejoin="round"/>
<path d="M113.271 66.7314L97.1953 57.3535" stroke="#4A63CE" stroke-width="0.393637" stroke-linecap="round" stroke-linejoin="round"/>
<path d="M84.8915 27.0816L76.503 22.2448L48.0525 5.65476C47.1084 5.10427 46.3438 5.54617 46.3438 6.64262V27.8251C46.3438 28.9216 47.1084 30.2578 48.0525 30.8083L77.5919 48.0348C78.5345 48.5853 79.2992 48.1434 79.2992 47.047V27.4677L84.8915 27.0816Z" fill="white" stroke="#4A63CE" stroke-width="0.754094" stroke-linecap="round" stroke-linejoin="round"/>
<path d="M84.8915 58.0861L76.503 53.2448L48.0525 36.6548C47.1084 36.1043 46.3438 36.5462 46.3438 37.6426V49.8197C46.3438 50.9162 47.1084 52.2509 48.0525 52.8014L77.5919 70.0264C78.5345 70.5769 79.2992 70.1335 79.2992 69.0371V58.4797L84.8915 58.0861Z" fill="#FF7F0B" stroke="#FF7F0B" stroke-width="0.150819" stroke-linecap="round" stroke-linejoin="round"/>
<path d="M177.874 24.0106L153.894 10.0191L148.337 6.77802C148.203 6.69848 148.059 6.63664 147.909 6.59403L142.781 3.66211L146.621 11.6268V28.971C146.621 30.0675 147.386 31.4022 148.328 31.9527L177.868 49.1852C178.812 49.7357 179.576 49.2923 179.576 48.1959V26.9923C179.583 25.8958 178.818 24.5611 177.874 24.0106Z" fill="white" stroke="#4A63CE" stroke-width="0.754094" stroke-linecap="round" stroke-linejoin="round"/>
<path d="M61.0578 20.8003L75.2815 29.0018C75.4731 29.1134 75.6284 29.0244 75.6284 28.8012V27.4258C75.6216 27.3051 75.5867 27.1877 75.5265 27.083C75.4662 26.9783 75.3824 26.889 75.2815 26.8225L61.0578 18.624C60.8663 18.5124 60.7109 18.6029 60.7109 18.8261V20.2C60.7182 20.3201 60.7533 20.4369 60.8135 20.5411C60.8737 20.6453 60.9574 20.734 61.0578 20.8003Z" fill="white" stroke="#4A63CE" stroke-width="0.301637" stroke-linecap="round" stroke-linejoin="round"/>
<path d="M60.1203 51.3699L74.3455 59.5714C74.5371 59.683 74.6939 59.5941 74.6939 59.3708V57.9894C74.6868 57.8686 74.6516 57.7512 74.5912 57.6465C74.5307 57.5417 74.4466 57.4526 74.3455 57.3861L60.1203 49.1846C59.9288 49.0729 59.7734 49.1634 59.7734 49.3851V50.7606C59.7793 50.8823 59.8138 51.0009 59.8741 51.1067C59.9343 51.2126 60.0187 51.3028 60.1203 51.3699Z" fill="white"/>
<path d="M61.0593 24.7027L75.283 32.9042C75.4746 33.0158 75.6299 32.9253 75.6299 32.7021V31.3282C75.6231 31.2075 75.5882 31.0902 75.528 30.9854C75.4678 30.8807 75.3839 30.7915 75.283 30.7249L61.0578 22.5234C60.8663 22.4103 60.7109 22.5008 60.7109 22.724V24.0994C60.7183 24.2201 60.7535 24.3374 60.814 24.4421C60.8745 24.5468 60.9585 24.636 61.0593 24.7027Z" fill="white" stroke="#4A63CE" stroke-width="0.301637" stroke-linecap="round" stroke-linejoin="round"/>
<path d="M61.0578 28.3401L75.2815 36.5416C75.4731 36.6532 75.6284 36.5627 75.6284 36.341V34.9656C75.6216 34.8449 75.5867 34.7276 75.5265 34.6228C75.4662 34.5181 75.3824 34.4289 75.2815 34.3623L61.0578 26.1653C60.8663 26.0537 60.7109 26.1427 60.7109 26.3659V27.7414C60.7184 27.8612 60.7537 27.9777 60.8139 28.0816C60.8741 28.1855 60.9576 28.274 61.0578 28.3401Z" fill="white" stroke="#4A63CE" stroke-width="0.301637" stroke-linecap="round" stroke-linejoin="round"/>
<path d="M161.152 22.7272L175.378 30.9287C175.57 31.0403 175.725 30.9513 175.725 30.7281V29.3526C175.718 29.232 175.683 29.1146 175.623 29.0099C175.563 28.9051 175.479 28.8159 175.378 28.7494L161.152 20.5478C160.96 20.4362 160.805 20.5267 160.805 20.7484V22.1239C160.811 22.2445 160.846 22.3619 160.907 22.4666C160.967 22.5714 161.051 22.6606 161.152 22.7272Z" fill="white" stroke="#4A63CE" stroke-width="0.301637" stroke-linecap="round" stroke-linejoin="round"/>
<path d="M161.152 26.628L175.378 34.8295C175.57 34.9426 175.725 34.8521 175.725 34.6289V33.2549C175.718 33.1344 175.683 33.0172 175.623 32.9125C175.563 32.8078 175.479 32.7185 175.378 32.6517L161.152 24.4501C160.96 24.3385 160.805 24.429 160.805 24.6522V26.0277C160.812 26.1478 160.847 26.2646 160.907 26.3688C160.967 26.473 161.051 26.5617 161.152 26.628Z" fill="white" stroke="#4A63CE" stroke-width="0.301637" stroke-linecap="round" stroke-linejoin="round"/>
<path d="M161.152 30.2665L175.378 38.468C175.57 38.5796 175.725 38.4891 175.725 38.2659V36.892C175.718 36.7713 175.683 36.654 175.623 36.5492C175.563 36.4445 175.479 36.3553 175.378 36.2887L161.152 28.0872C160.96 27.9756 160.805 28.0646 160.805 28.2878V29.6632C160.811 29.7839 160.846 29.9012 160.907 30.006C160.967 30.1107 161.051 30.1999 161.152 30.2665Z" fill="white" stroke="#4A63CE" stroke-width="0.301637" stroke-linecap="round" stroke-linejoin="round"/>
<path d="M57.1436 23.0842C58.6335 22.2381 58.6957 19.5347 57.2825 17.046C55.8693 14.5572 53.5158 13.2256 52.0259 14.0716C50.5359 14.9177 50.4738 17.621 51.887 20.1098C53.3002 22.5986 55.6537 23.9302 57.1436 23.0842Z" fill="white" stroke="#4A63CE" stroke-width="0.301637" stroke-linecap="round" stroke-linejoin="round"/>
<path d="M55.628 52.4064C57.1179 51.5604 57.1801 48.857 55.7669 46.3683C54.3536 43.8795 52.0002 42.5478 50.5102 43.3939C49.0203 44.2399 48.9582 46.9433 50.3714 49.4321C51.7846 51.9208 54.1381 53.2525 55.628 52.4064Z" fill="white"/>
<path d="M157.214 24.4494C158.704 23.6034 158.766 20.9 157.353 18.4112C155.94 15.9225 153.586 14.5908 152.096 15.4368C150.606 16.2829 150.544 18.9863 151.957 21.475C153.371 23.9638 155.724 25.2955 157.214 24.4494Z" fill="white" stroke="#4A63CE" stroke-width="0.301637" stroke-linecap="round" stroke-linejoin="round"/>
</g>
<defs>
<clipPath id="clip0_1844_16973">
<rect width="235.834" height="128.43" fill="white"/>
</clipPath>
</defs>
</svg>
