<svg width="169" height="178" viewBox="0 0 169 178" fill="none" xmlns="http://www.w3.org/2000/svg">
<g clip-path="url(#clip0_1281_2160)">
<path d="M49.1387 73.6895L92.4574 98.6998" stroke="#627BFD" stroke-width="3" stroke-linecap="round" stroke-linejoin="round"/>
<path d="M157.583 87.4363C158.144 87.4363 158.598 86.9819 158.598 86.4213C158.598 85.8607 158.144 85.4062 157.583 85.4062C157.023 85.4062 156.568 85.8607 156.568 86.4213C156.568 86.9819 157.023 87.4363 157.583 87.4363Z" fill="#627BFD"/>
<path d="M122.838 106.395L157.584 86.334" stroke="#627BFD" stroke-width="3" stroke-miterlimit="10"/>
<path style="mix-blend-mode:multiply" opacity="0.75" d="M92.0635 152.265L0.596374 123.906L0.332031 73.9434L144.174 122.178L92.0635 152.265Z" fill="url(#paint0_linear_1281_2160)"/>
<path d="M59.9334 97.8295L46.0605 105.839V93.432L59.9334 85.4375V97.8295Z" fill="#DCE6F4"/>
<path d="M32.1875 97.8295L46.0604 105.839V93.432L32.1875 85.4375V97.8295Z" fill="url(#paint1_linear_1281_2160)"/>
<path d="M59.9333 85.4384L46.0604 77.4453L32.1875 85.4384L46.0604 93.4329L59.9333 85.4384Z" fill="#F3F7FF"/>
<path d="M59.9333 85.4384L46.0604 77.4453L32.1875 85.4384L46.0604 93.4329L59.9333 85.4384Z" fill="#F3F7FF"/>
<path opacity="0.7" d="M37.5508 85.4399L46.0609 80.5371L54.571 85.4399L46.0609 90.3382L37.5508 85.4399Z" fill="#4D4F80"/>
<path opacity="0.6" d="M32.1875 88.0664L46.0604 96.4465L59.9333 88.5089" stroke="#7D83AF" stroke-width="0.58" stroke-miterlimit="10"/>
<path d="M54.3041 98.2097C54.845 97.2572 54.8212 96.2226 54.2509 95.8987C53.6807 95.5749 52.78 96.0846 52.2391 97.0371C51.6982 97.9896 51.722 99.0242 52.2923 99.348C52.8625 99.6718 53.7632 99.1622 54.3041 98.2097Z" fill="#4D4F80"/>
<g style="mix-blend-mode:multiply" opacity="0.55">
<path d="M53.8381 97.9452C54.1348 97.4226 54.1218 96.855 53.8089 96.6774C53.4961 96.4997 53.002 96.7794 52.7052 97.3019C52.4085 97.8245 52.4216 98.3921 52.7344 98.5697C53.0472 98.7473 53.5413 98.4677 53.8381 97.9452Z" fill="#4D4F80"/>
</g>
<path d="M53.3027 97.6543L65.8495 104.765" stroke="#627BFD" stroke-width="3" stroke-linecap="round" stroke-linejoin="round"/>
<path style="mix-blend-mode:multiply" opacity="0.75" d="M159.577 118.945L143.09 113.833L143.043 104.828L168.969 113.522L159.577 118.945Z" fill="url(#paint2_linear_1281_2160)"/>
<path d="M168.969 113.567L159.521 119.022V110.573L168.969 105.129V113.567Z" fill="#F9923E"/>
<path d="M150.074 113.567L159.522 119.022V110.573L150.074 105.129V113.567Z" fill="#FF7F0B"/>
<path d="M168.97 105.128L159.522 99.6836L150.074 105.128L159.522 110.573L168.97 105.128Z" fill="#F3F7FF"/>
<path d="M168.97 105.128L159.522 99.6836L150.074 105.128L159.522 110.573L168.97 105.128Z" fill="#FFA766"/>
<path d="M150.074 106.918L159.522 112.625L168.97 107.219" stroke="white" stroke-width="0.84" stroke-miterlimit="10"/>
<path d="M155.436 113.849C156.007 113.526 156.03 112.491 155.49 111.538C154.949 110.586 154.048 110.076 153.478 110.4C152.908 110.724 152.884 111.758 153.425 112.711C153.966 113.663 154.866 114.173 155.436 113.849Z" fill="#4D4F80"/>
<g style="mix-blend-mode:multiply" opacity="0.55">
<path d="M154.994 113.071C155.307 112.893 155.32 112.325 155.024 111.803C154.727 111.28 154.233 111.001 153.92 111.178C153.607 111.356 153.594 111.924 153.891 112.446C154.188 112.969 154.682 113.248 154.994 113.071Z" fill="#4D4F80"/>
</g>
<path d="M154.425 112.198L152.364 113.53C151.505 114.086 150.509 114.392 149.486 114.416C148.464 114.439 147.454 114.179 146.571 113.663L137.26 108.227C136.418 107.736 135.462 107.477 134.487 107.475C133.513 107.472 132.555 107.727 131.711 108.214L125.404 111.856" stroke="#627BFD" stroke-width="3" stroke-linecap="round" stroke-linejoin="round"/>
<path style="mix-blend-mode:multiply" opacity="0.75" d="M138.67 101.079L128.705 97.99L128.676 92.5469L144.347 97.8016L138.67 101.079Z" fill="url(#paint3_linear_1281_2160)"/>
<path d="M55.0301 116.762L12.0254 141.604" stroke="#627BFD" stroke-width="3" stroke-linecap="round" stroke-linejoin="round"/>
<path d="M12.0248 142.618C12.5854 142.618 13.0398 142.163 13.0398 141.603C13.0398 141.042 12.5854 140.588 12.0248 140.588C11.4642 140.588 11.0098 141.042 11.0098 141.603C11.0098 142.163 11.4642 142.618 12.0248 142.618Z" fill="#627BFD"/>
<path d="M6.61463 99.6843C7.17521 99.6843 7.62965 99.2299 7.62965 98.6693C7.62965 98.1087 7.17521 97.6543 6.61463 97.6543C6.05405 97.6543 5.59961 98.1087 5.59961 98.6693C5.59961 99.2299 6.05405 99.6843 6.61463 99.6843Z" fill="#627BFD"/>
<path d="M49.9914 114.123L44.0283 110.688C43.1403 110.175 42.1329 109.905 41.1074 109.905C40.082 109.905 39.0746 110.175 38.1865 110.688L35.9155 112.002C35.0321 112.512 34.0308 112.781 33.011 112.785C31.9911 112.788 30.9881 112.525 30.1014 112.021L6.62305 98.6797" stroke="#627BFD" stroke-width="3" stroke-linecap="round" stroke-linejoin="round"/>
<path d="M41.5039 115.111L92.7762 144.713L144.047 115.111L92.3965 85.291L41.5039 115.111Z" fill="#F3F7FF"/>
<path style="mix-blend-mode:multiply" opacity="0.75" d="M37.809 140.497L14.2342 131.913L14.1875 123.264L46.8288 135.289L37.809 140.497Z" fill="url(#paint4_linear_1281_2160)"/>
<path style="mix-blend-mode:multiply" opacity="0.75" d="M138.423 144.325L121.466 138.15L121.434 131.93L144.912 140.579L138.423 144.325Z" fill="url(#paint5_linear_1281_2160)"/>
<path d="M61.2948 155.023L47.4219 163.032V156.574L61.2948 148.564V155.023Z" fill="#DCE6F4"/>
<path d="M33.5488 155.023L47.4217 163.032V156.574L33.5488 148.564V155.023Z" fill="url(#paint6_linear_1281_2160)"/>
<path d="M61.2946 148.565L47.4217 140.572L33.5488 148.565L47.4217 156.575L61.2946 148.565Z" fill="#F3F7FF"/>
<path d="M61.2946 148.565L47.4217 140.572L33.5488 148.565L47.4217 156.575L61.2946 148.565Z" fill="#F3F7FF"/>
<path opacity="0.7" d="M38.9102 148.568L47.4202 143.664L55.9303 148.568L47.4202 153.481L38.9102 148.568Z" fill="#4D4F80"/>
<path opacity="0.6" d="M33.5488 151.58L47.4217 159.589L61.2946 151.65" stroke="#7D83AF" stroke-width="0.58" stroke-miterlimit="10"/>
<path style="mix-blend-mode:multiply" opacity="0.75" d="M128.776 99.8417L104.427 92.2926L104.355 78.9922L142.649 91.8325L128.776 99.8417Z" fill="url(#paint7_linear_1281_2160)"/>
<path d="M142.158 91.4213L128.285 99.4304V87.0238L142.158 79.0293V91.4213Z" fill="#DCE6F4"/>
<path d="M114.414 91.4213L128.285 99.4304V87.0238L114.414 79.0293V91.4213Z" fill="url(#paint8_linear_1281_2160)"/>
<path d="M142.158 79.0302L128.285 71.0371L114.414 79.0302L128.285 87.0248L142.158 79.0302Z" fill="#F3F7FF"/>
<path d="M142.158 79.0302L128.285 71.0371L114.414 79.0302L128.285 87.0248L142.158 79.0302Z" fill="#F3F7FF"/>
<path opacity="0.7" d="M119.775 79.0331L128.285 74.1289L136.797 79.0331L128.285 83.9315L119.775 79.0331Z" fill="#4D4F80"/>
<path opacity="0.6" d="M114.414 81.6562L128.285 90.0364L142.158 82.0988" stroke="#7D83AF" stroke-width="0.58" stroke-miterlimit="10"/>
<path style="mix-blend-mode:multiply" opacity="0.75" d="M15.2698 129.868L5.30655 126.779L5.27734 121.336L20.9481 126.591L15.2698 129.868Z" fill="url(#paint9_linear_1281_2160)"/>
<path d="M20.9467 126.617L15.2363 129.915V124.808L20.9467 121.516V126.617Z" fill="#F9923E"/>
<path d="M9.52539 126.617L15.2372 129.915V124.808L9.52539 121.516V126.617Z" fill="#FF7F0B"/>
<path d="M20.9476 121.516L15.2372 118.227L9.52539 121.516L15.2372 124.807L20.9476 121.516Z" fill="#F3F7FF"/>
<path d="M20.9476 121.516L15.2372 118.227L9.52539 121.516L15.2372 124.807L20.9476 121.516Z" fill="#FFA766"/>
<path d="M9.52539 122.598L15.2372 126.047L20.9476 122.78" stroke="white" stroke-width="0.51" stroke-miterlimit="10"/>
<path d="M144.347 97.8299L138.637 101.126V96.0189L144.347 92.7285V97.8299Z" fill="#8FA4F7"/>
<g style="mix-blend-mode:multiply">
<path d="M144.347 97.8299L138.637 101.126V96.0189L144.347 92.7285V97.8299Z" fill="#DCE6F4"/>
</g>
<path d="M132.928 97.8299L138.638 101.126V96.0189L132.928 92.7285V97.8299Z" fill="#8FA4F7"/>
<path style="mix-blend-mode:multiply" d="M132.928 97.8299L138.638 101.126V96.0189L132.928 92.7285V97.8299Z" fill="url(#paint10_linear_1281_2160)"/>
<path d="M144.349 92.7299L138.638 89.4395L132.928 92.7299L138.638 96.0203L144.349 92.7299Z" fill="#F3F7FF"/>
<path d="M144.349 92.7299L138.638 89.4395L132.928 92.7299L138.638 96.0203L144.349 92.7299Z" fill="#8FA4F7"/>
<path d="M132.928 93.8086L138.638 97.2597L144.349 93.9912" stroke="white" stroke-width="0.51" stroke-miterlimit="10"/>
<path d="M46.8302 135.182L38.0996 140.222V132.413L46.8302 127.383V135.182Z" fill="#8FA4F7"/>
<g style="mix-blend-mode:multiply">
<path d="M46.8302 135.182L38.0996 140.222V132.413L46.8302 127.383V135.182Z" fill="#DCE6F4"/>
</g>
<path d="M25.6582 133.094L38.0984 140.224V132.415L25.6582 125.295V133.094Z" fill="#8FA4F7"/>
<path style="mix-blend-mode:multiply" d="M25.6582 133.094L38.0984 140.224V132.415L25.6582 125.295V133.094Z" fill="url(#paint11_linear_1281_2160)"/>
<path d="M46.8304 127.385L38.0998 122.354L29.3691 127.385L38.0998 132.415L46.8304 127.385Z" fill="#F3F7FF"/>
<path d="M46.829 127.385L34.3888 120.266L25.6582 125.295L38.0984 132.415L46.829 127.385Z" fill="#8FA4F7"/>
<path d="M25.6582 127.105L38.0984 134.311L46.829 129.315" stroke="white" stroke-width="0.36" stroke-miterlimit="10"/>
<path d="M83.4259 85.2735L74.6953 90.315V82.5059L83.4259 77.4746V85.2735Z" fill="#8FA4F7"/>
<g style="mix-blend-mode:multiply">
<path d="M83.4259 85.2735L74.6953 90.315V82.5059L83.4259 77.4746V85.2735Z" fill="#DCE6F4"/>
</g>
<path d="M62.2559 83.1856L74.6961 90.3156V82.5065L62.2559 75.3867V83.1856Z" fill="#8FA4F7"/>
<path style="mix-blend-mode:multiply" d="M62.2559 83.1856L74.6961 90.3156V82.5065L62.2559 75.3867V83.1856Z" fill="url(#paint12_linear_1281_2160)"/>
<path d="M83.4261 77.4751L74.6955 72.4453L65.9648 77.4751L74.6955 82.5064L83.4261 77.4751Z" fill="#F3F7FF"/>
<path d="M83.4267 77.4757L70.9865 70.3574L62.2559 75.3872L74.6961 82.507L83.4267 77.4757Z" fill="#8FA4F7"/>
<path d="M62.2559 77.1973L74.6961 84.4032L83.4267 79.4069" stroke="white" stroke-width="0.36" stroke-miterlimit="10"/>
<path d="M144.912 140.46L138.547 144.133V138.441L144.912 134.775V140.46Z" fill="#8FA4F7"/>
<g style="mix-blend-mode:multiply">
<path d="M144.912 140.46L138.547 144.133V138.441L144.912 134.775V140.46Z" fill="#DCE6F4"/>
</g>
<path d="M129.48 138.936L138.547 144.132V138.441L129.48 133.252V138.936Z" fill="#8FA4F7"/>
<path style="mix-blend-mode:multiply" d="M129.48 138.936L138.547 144.132V138.441L129.48 133.252V138.936Z" fill="url(#paint13_linear_1281_2160)"/>
<path d="M144.911 134.777L138.547 131.109L132.184 134.777L138.547 138.442L144.911 134.777Z" fill="#F3F7FF"/>
<path d="M144.912 134.776L135.844 129.586L129.48 133.253L138.547 138.442L144.912 134.776Z" fill="#8FA4F7"/>
<path d="M129.48 134.572L138.547 139.824L144.912 136.183" stroke="white" stroke-width="0.27" stroke-miterlimit="10"/>
<path d="M109.129 157.281L117.86 162.321V154.514L109.129 149.482V157.281Z" fill="#FF7F0B"/>
<path d="M130.3 155.191L117.859 162.32V154.512L130.3 147.393V155.191Z" fill="#F9923E"/>
<path d="M109.129 149.483L117.86 144.453L126.59 149.483L117.86 154.514L109.129 149.483Z" fill="#F3F7FF"/>
<path d="M109.129 149.483L121.569 142.363L130.3 147.395L117.86 154.514L109.129 149.483Z" fill="#FFA766"/>
<path d="M130.3 149.205L117.86 156.411L109.129 151.415" stroke="white" stroke-width="0.36" stroke-miterlimit="10"/>
<path d="M92.7762 152.388V144.713L41.5039 115.111V122.787L92.7762 152.388Z" fill="url(#paint14_linear_1281_2160)"/>
<path d="M92.7754 152.388V144.713L144.046 115.111V122.787L92.7754 152.388Z" fill="#DCE6F4"/>
<path style="mix-blend-mode:multiply" opacity="0.8" d="M102.06 133.921L64.8698 128.602L41.5039 115.112L72.4306 96.9902L81.3598 117.164L112.538 126.161L111.641 127.695L88.7804 124.659L102.06 133.921Z" fill="url(#paint15_linear_1281_2160)"/>
<path d="M58.3447 129.929C58.9149 129.606 58.9387 128.571 58.3979 127.618C57.857 126.666 56.9562 126.156 56.386 126.48C55.8158 126.804 55.792 127.839 56.3329 128.791C56.8737 129.744 57.7744 130.253 58.3447 129.929Z" fill="#4D4F80"/>
<g style="mix-blend-mode:multiply" opacity="0.55">
<path d="M57.9027 129.151C58.2155 128.973 58.2286 128.405 57.9318 127.883C57.6351 127.36 57.141 127.081 56.8281 127.258C56.5153 127.436 56.5023 128.004 56.799 128.526C57.0957 129.049 57.5898 129.328 57.9027 129.151Z" fill="#4D4F80"/>
</g>
<path d="M72.3486 138.084C72.9189 137.76 72.9426 136.725 72.4018 135.773C71.8609 134.82 70.9602 134.311 70.3899 134.634C69.8197 134.958 69.7959 135.993 70.3368 136.945C70.8776 137.898 71.7784 138.408 72.3486 138.084Z" fill="#4D4F80"/>
<g style="mix-blend-mode:multiply" opacity="0.55">
<path d="M71.9046 137.305C72.2174 137.127 72.2305 136.56 71.9338 136.037C71.637 135.515 71.1429 135.235 70.8301 135.413C70.5173 135.59 70.5042 136.158 70.8009 136.68C71.0977 137.203 71.5918 137.483 71.9046 137.305Z" fill="#4D4F80"/>
</g>
<path d="M107.279 141.124C107.82 140.171 107.796 139.137 107.226 138.813C106.655 138.489 105.755 138.999 105.214 139.951C104.673 140.904 104.697 141.938 105.267 142.262C105.837 142.586 106.738 142.076 107.279 141.124Z" fill="#4D4F80"/>
<g style="mix-blend-mode:multiply" opacity="0.55">
<path d="M106.813 140.859C107.109 140.337 107.096 139.769 106.784 139.591C106.471 139.414 105.977 139.693 105.68 140.216C105.383 140.738 105.396 141.306 105.709 141.484C106.022 141.661 106.516 141.382 106.813 140.859Z" fill="#4D4F80"/>
</g>
<path d="M115.72 136.635C116.261 135.683 116.237 134.648 115.667 134.325C115.097 134.001 114.196 134.51 113.655 135.463C113.114 136.415 113.138 137.45 113.708 137.774C114.279 138.098 115.179 137.588 115.72 136.635Z" fill="#4D4F80"/>
<g style="mix-blend-mode:multiply" opacity="0.55">
<path d="M115.254 136.371C115.551 135.848 115.538 135.281 115.225 135.103C114.912 134.926 114.418 135.205 114.121 135.728C113.825 136.25 113.838 136.818 114.15 136.995C114.463 137.173 114.957 136.893 115.254 136.371Z" fill="#4D4F80"/>
</g>
<path d="M137.226 123.907C137.767 122.954 137.743 121.92 137.173 121.596C136.603 121.272 135.702 121.782 135.161 122.734C134.62 123.687 134.644 124.721 135.214 125.045C135.784 125.369 136.685 124.859 137.226 123.907Z" fill="#4D4F80"/>
<g style="mix-blend-mode:multiply" opacity="0.55">
<path d="M136.76 123.642C137.057 123.12 137.044 122.552 136.731 122.375C136.418 122.197 135.924 122.477 135.627 122.999C135.33 123.522 135.343 124.089 135.656 124.267C135.969 124.445 136.463 124.165 136.76 123.642Z" fill="#4D4F80"/>
</g>
<path d="M80.4306 142.986C81.0009 142.662 81.0247 141.628 80.4838 140.675C79.9429 139.723 79.0422 139.213 78.472 139.537C77.9017 139.861 77.8779 140.895 78.4188 141.848C78.9597 142.8 79.8604 143.31 80.4306 142.986Z" fill="#4D4F80"/>
<g style="mix-blend-mode:multiply" opacity="0.55">
<path d="M79.9906 142.207C80.3034 142.03 80.3165 141.462 80.0197 140.94C79.723 140.417 79.2289 140.137 78.9161 140.315C78.6032 140.493 78.5902 141.06 78.8869 141.583C79.1836 142.105 79.6778 142.385 79.9906 142.207Z" fill="#4D4F80"/>
</g>
<path d="M115.155 159.209C115.725 158.885 115.749 157.85 115.208 156.898C114.668 155.945 113.767 155.436 113.197 155.759C112.626 156.083 112.603 157.118 113.143 158.07C113.684 159.023 114.585 159.533 115.155 159.209Z" fill="#4D4F80"/>
<g style="mix-blend-mode:multiply" opacity="0.55">
<path d="M114.711 158.43C115.024 158.252 115.037 157.685 114.74 157.162C114.444 156.64 113.95 156.36 113.637 156.538C113.324 156.715 113.311 157.283 113.608 157.806C113.904 158.328 114.398 158.608 114.711 158.43Z" fill="#4D4F80"/>
</g>
<path opacity="0.65" d="M119.144 94.131L68.4167 123.878L67.6836 31.892L117.698 0L119.144 94.131Z" fill="url(#paint16_linear_1281_2160)"/>
<path d="M66.0098 85.4419V120.77C66.0097 121.223 66.1287 121.668 66.3548 122.06C66.581 122.452 66.9063 122.778 67.2981 123.005C67.6899 123.231 68.1345 123.351 68.5871 123.351C69.0398 123.352 69.4847 123.234 69.8771 123.008L116.585 96.2566C118.179 95.3405 119.503 94.0204 120.424 92.4294C121.345 90.8384 121.83 89.0327 121.83 87.1944V51.6191C121.83 51.1656 121.71 50.7202 121.483 50.3277C121.255 49.9352 120.929 49.6094 120.536 49.3832C120.143 49.157 119.697 49.0383 119.244 49.0391C118.79 49.0398 118.345 49.16 117.952 49.3875L71.2178 76.406C69.6347 77.3245 68.3205 78.6424 67.4065 80.2281C66.4926 81.8138 66.0109 83.6117 66.0098 85.4419Z" fill="url(#paint17_linear_1281_2160)"/>
<path d="M67.6836 86.7437V122.078C67.6837 122.531 67.8027 122.975 68.0287 123.367C68.2548 123.759 68.5799 124.085 68.9715 124.311C69.3631 124.538 69.8074 124.658 70.2599 124.658C70.7124 124.659 71.1571 124.541 71.5494 124.315L118.259 97.5584C119.853 96.6423 121.177 95.3222 122.097 93.7311C123.018 92.1401 123.502 90.3344 123.502 88.4963V52.921C123.502 52.4673 123.383 52.0216 123.156 51.6288C122.929 51.2361 122.602 50.9101 122.209 50.6838C121.816 50.4575 121.37 50.3389 120.916 50.3398C120.462 50.3408 120.017 50.4614 119.625 50.6894L72.8901 77.7079C71.3073 78.6265 69.9933 79.9445 69.0797 81.5302C68.166 83.1159 67.6846 84.9137 67.6836 86.7437Z" fill="white"/>
<path d="M70.2678 123.141C69.9864 123.14 69.7169 123.028 69.5177 122.829C69.3184 122.63 69.2054 122.361 69.2031 122.08V86.7453C69.206 85.1813 69.618 83.6453 70.3981 82.2897C71.1782 80.9342 72.2994 79.8063 73.6502 79.0181L120.385 51.9996C120.547 51.9044 120.73 51.854 120.918 51.8535C121.201 51.8539 121.473 51.9664 121.673 52.1665C121.873 52.3666 121.986 52.638 121.987 52.9211V88.4979C121.984 90.0679 121.568 91.6095 120.781 92.9681C119.994 94.3267 118.864 95.4545 117.503 96.2383L70.7965 122.99C70.637 123.087 70.4545 123.139 70.2678 123.141Z" fill="#4D4F80"/>
<path d="M72.4316 116.491L89.2999 106.944V102.539L72.4316 112.086V116.491Z" fill="#C4C7E8"/>
<path d="M72.4316 119.224L89.2999 109.676V108.205L72.4316 117.754V119.224Z" fill="#C4C7E8"/>
<path d="M87.988 97.8053C88.7698 96.4284 88.7355 94.9329 87.9114 94.4649C87.0872 93.9969 85.7853 94.7337 85.0035 96.1105C84.2217 97.4874 84.256 98.9829 85.0801 99.4509C85.9043 99.9189 87.2061 99.1821 87.988 97.8053Z" fill="#FF7F0B"/>
<path d="M92.2946 82.4908C93.0765 81.114 93.0422 79.6185 92.218 79.1505C91.3939 78.6825 90.092 79.4193 89.3102 80.7961C88.5283 82.1729 88.5626 83.6684 89.3868 84.1364C90.2109 84.6044 91.5128 83.8677 92.2946 82.4908Z" fill="white"/>
<path d="M118.544 63.7291C119.051 62.8355 119.029 61.8651 118.495 61.5616C117.96 61.2581 117.116 61.7365 116.608 62.6301C116.101 63.5236 116.123 64.4941 116.657 64.7976C117.192 65.1011 118.036 64.6227 118.544 63.7291Z" fill="#627BFD"/>
<path d="M118.544 68.8951C119.051 68.0015 119.029 67.0312 118.495 66.7277C117.96 66.4242 117.116 66.9025 116.608 67.7961C116.101 68.6896 116.123 69.6601 116.657 69.9636C117.192 70.2671 118.036 69.7887 118.544 68.8951Z" fill="#627BFD"/>
<path d="M118.546 74.1021C119.053 73.2086 119.031 72.2382 118.497 71.9347C117.962 71.6312 117.118 72.1095 116.61 73.0031C116.103 73.8967 116.125 74.8671 116.659 75.1706C117.194 75.4741 118.038 74.9957 118.546 74.1021Z" fill="#627BFD"/>
<path opacity="0.7" d="M79.2494 88.1953C78.3951 93.2602 74.297 97.6226 69.2949 98.7924" stroke="white" stroke-miterlimit="10" stroke-dasharray="5 5"/>
<path d="M89.649 83.7734C88.1302 87.5151 85.9628 91.0611 82.9017 93.6929C79.8406 96.3246 75.8141 97.9691 71.7891 97.6653L72.0695 97.9574" stroke="white" stroke-miterlimit="10" stroke-dasharray="5 5"/>
<path d="M88.3906 96.3892C89.1837 96.5805 90.0147 96.3892 90.7945 96.1439C93.2058 95.4136 95.5118 94.2453 97.4148 92.5935C99.3178 90.9417 100.806 88.7686 101.469 86.334L101.615 86.7444" stroke="white" stroke-miterlimit="10" stroke-dasharray="5 5"/>
<path d="M90.7 83.7246C90.4619 83.7246 90.2735 83.9554 90.2443 84.192C90.2353 84.4317 90.2854 84.6699 90.3904 84.8857L90.9234 86.2921C90.6678 86.0351 90.2312 86.038 89.9128 86.2132C89.6062 86.4101 89.3596 86.6874 89.2001 87.015C89.1081 87.1771 88.778 87.4765 88.7853 87.662C88.7926 87.8475 90.7248 89.7767 91.7062 90.377C92.6959 90.9565 93.7422 91.4336 94.8287 91.8009C94.947 91.8447 94.7089 90.0688 94.6432 89.9023C94.4767 89.4817 94.1686 89.2174 93.8619 88.8961C92.9658 87.9536 92.2018 86.8939 91.5908 85.7459C91.2416 85.0964 90.9438 84.4206 90.7 83.7246Z" fill="#FFA8A7"/>
<path d="M115.227 83.4688C115.347 84.5115 116.626 88.8111 116.359 90.3504C116.092 91.8897 111.813 94.6544 111.813 94.6544L111.229 92.0256L113.04 90.2511C113.206 90.0873 113.332 89.8865 113.407 89.665C113.482 89.4436 113.504 89.2076 113.47 88.9761L112.943 85.3586L115.227 83.4688Z" fill="#FFA8A7"/>
<path d="M112.983 88.7156L111.224 80.7867C110.987 77.8439 113.682 78.1009 114.307 79.1349C114.932 80.1689 116.205 86.9426 116.259 87.5486C116.494 89.0792 116.531 89.827 116.395 90.4564C116.259 91.0859 114.761 92.8779 111.812 94.6538L111.228 92.0249L112.983 88.7156Z" fill="white"/>
<path d="M112.493 126.157C112.493 126.157 112.68 126.343 112.868 127.382C112.952 127.838 113.001 128.421 112.495 128.584C111.988 128.748 110.191 127.708 109.176 126.768C108.502 126.145 107.73 124.822 107.73 124.822C107.73 124.822 110.686 125.041 111.199 125.42C111.616 125.69 112.048 125.936 112.493 126.157Z" fill="#383C66"/>
<path d="M105.703 130.432C105.703 130.432 105.739 131.016 105.774 131.481C105.809 131.945 105.974 132.685 105.825 133.029C105.677 133.372 103.813 133.568 102.06 133.918C100.331 134.264 97.6148 134.266 97.4863 133.909C97.4863 133.909 97.8675 133.582 99.6449 132.513C101.675 131.291 103.652 130.057 103.652 130.057L105.703 130.432Z" fill="#383C66"/>
<path d="M112.994 116.136C113.181 112.509 113.119 109.813 113.119 109.813C113.119 109.813 112.414 108.808 112.535 105.59C112.665 102.114 112.881 97.7601 112.943 96.8926L101.674 99.3987C101.674 99.3987 102.384 112.873 102.506 114.639C102.629 116.404 102.768 118.849 102.944 121.116C103.175 123.981 103.422 130.325 103.422 130.325C104.113 130.735 104.925 130.89 105.718 130.764C105.718 130.764 106.693 122.851 106.856 120.819C107.076 118.078 107.552 111.326 107.552 111.326C107.552 111.326 106.693 112.246 106.968 109.372C107.21 106.811 107.514 105.283 107.552 104.025L107.777 103.906C107.777 103.906 108.006 108.871 108.129 110.643C108.252 112.414 108.513 114.101 108.989 117.38C109.401 120.225 110.476 126.083 110.476 126.083C111.668 126.775 112.531 126.151 112.531 126.151C112.531 126.151 112.87 118.621 112.994 116.136Z" fill="#627BFD"/>
<path d="M107.559 104.034C107.559 104.034 110.09 102.694 111.356 101.484C111.356 101.484 110.18 103.266 108.636 104.056C108.636 104.056 108.087 110.233 108.09 110.11L107.773 104.026L107.559 104.034Z" fill="#AACAF9"/>
<path d="M111.348 78.4831C110.49 78.524 109.852 78.7459 109.741 78.4918C109.658 78.2961 109.545 77.1511 109.545 77.1511C109.645 76.9014 109.729 76.6341 109.729 76.6341C110.807 75.9711 111.72 73.4956 111.72 73.4956C111.836 72.3824 111.505 71.2687 110.8 70.3994C110.095 69.5301 109.074 68.9764 107.961 68.8601C105.78 68.6337 104.177 70.1643 103.749 72.2673C103.518 73.3057 103.311 75.3664 103.828 77.2183C104.104 78.21 104.342 78.4933 104.762 78.6277C105.241 78.7049 105.725 78.7372 106.21 78.724C106.21 78.724 106.327 79.3681 106.405 79.7814C106.484 80.1947 106.454 80.4123 105.631 80.9191C104.809 81.4259 106.876 82.4687 108.225 82.3664C109.575 82.2642 111.096 81.4493 111.513 80.5744C111.979 79.6018 111.938 78.4553 111.348 78.4831Z" fill="#FFA8A7"/>
<path d="M111.347 78.4845C110.489 78.5254 109.851 78.7474 109.74 78.4933C109.657 78.2976 109.545 77.1526 109.545 77.1526C109.644 76.9029 109.729 76.6356 109.729 76.6356C110.108 76.4009 110.449 76.1087 110.739 75.7695L107.89 76.7086L107.057 76.5407L106.719 76.3464L106.498 75.955C106.498 76.009 106.368 77.2534 106.091 77.6754C105.813 78.0975 105.102 78.5882 104.715 78.6116C104.731 78.6116 104.745 78.6247 104.762 78.6291C105.24 78.7064 105.725 78.7387 106.209 78.7255C106.209 78.7255 106.326 79.3696 106.405 79.7829C106.478 80.1553 106.453 80.3671 105.839 80.7848L106.998 81.6727L110.457 81.6143C110.552 81.5559 110.644 81.496 110.73 81.4317L111.762 79.8442C111.924 79.1096 111.791 78.4626 111.347 78.4845Z" fill="#F28F8F"/>
<path d="M111.723 73.4968C111.839 72.3836 111.508 71.2699 110.803 70.4006C110.098 69.5313 109.077 68.9776 107.964 68.8613C107.286 68.7809 106.6 68.8928 105.983 69.1841C105.366 69.4754 104.843 69.9344 104.475 70.5087C104.578 70.7103 104.711 70.8954 104.869 71.0578C104.869 71.0578 104.679 71.5952 105.015 71.9764C105.259 72.251 105.274 72.5343 105.276 72.9987C105.276 73.3974 105.782 74.6797 105.782 74.6797C105.782 74.6797 106.043 73.9101 106.163 73.7655C106.395 73.2587 107.324 73.1083 107.6 73.8356C107.825 74.4344 107.707 74.9762 107.515 75.556C107.487 75.6585 107.434 75.7529 107.363 75.8316C107.291 75.9103 107.202 75.9713 107.103 76.0096C107.004 76.0479 106.897 76.0625 106.791 76.0522C106.685 76.0419 106.583 76.007 106.493 75.9503C106.502 76.2278 107.308 77.4385 107.308 77.4385C108.056 77.6404 108.853 77.5609 109.547 77.2151C109.837 77.0778 111.581 74.8535 111.723 73.4968Z" fill="#8C7267"/>
<path d="M104.869 71.0582C104.869 71.0582 103.773 71.1605 102.776 70.0169C101.778 68.8734 106.939 68.8573 107.963 68.8617C109.139 68.8617 111.506 68.8398 111.224 71.0276L104.869 71.0582Z" fill="#8C7267"/>
<path d="M95.4917 89.5361L94.4299 89.0527C93.8092 89.3185 93.301 90.392 93.4982 91.5078L94.7892 92.0365L95.4917 89.5361Z" fill="#F5FBFB"/>
<path d="M113.121 92.2441C114.363 87.8233 115.087 81.6704 114.126 80.2684C113.076 78.7436 113.216 78.694 112.52 78.4968C111.598 78.2383 110.111 78.6034 110.111 78.6034C110.349 79.1964 109.746 79.9179 108.134 80.4276C106.522 80.9373 106.381 80.2815 106.381 80.2815C106.381 80.2815 104.018 81.3579 103.249 81.888C102.28 82.5642 101.852 84.5169 101.721 87.8248C101.575 91.6483 99.8954 114.006 100.022 114.989C100.022 114.989 103.966 115.508 105.709 115.508C106.548 115.512 107.386 115.453 108.216 115.333L108.893 110.288L109.876 114.962C111.905 114.339 113.412 113.155 114.371 111.272C114.332 107.938 112.58 94.1749 113.121 92.2441Z" fill="#DCE6F4"/>
<path d="M109.639 77.9368L110.093 77.5527C110.267 77.674 110.61 78.5415 110.61 78.5415C110.61 78.5415 110.756 79.4864 109.614 80.1947C108.472 80.903 107.107 81.2784 105.7 80.6036C105.7 80.6036 105.794 79.095 105.7 79.2556C105.631 79.371 106.325 79.3476 106.325 79.3476C106.325 79.3476 106.683 79.8091 108.046 79.3476C109.408 78.8861 109.665 78.2304 109.665 78.2304L109.639 77.9368Z" fill="white"/>
<path d="M103.509 81.6737C102.275 81.8198 102.026 82.6216 101.675 84.6501C101.2 87.3987 100.699 90.029 100.234 90.6293C99.7677 91.2295 98.2006 90.3751 95.3483 89.3148C95.3483 89.3148 94.0339 89.8289 94.161 92.0415C94.161 92.0415 95.1439 93.0098 98.7644 94.6587C102.145 96.1995 102.976 94.8953 103.876 93.4158C105.129 91.3712 105.653 88.8358 105.833 87.1125C105.922 86.2566 106.227 84.0908 105.937 83.473C105.943 83.4686 104.077 81.6051 103.509 81.6737Z" fill="white"/>
<path d="M93.414 86.1113H92.8677C92.5756 86.5495 92.5012 87.1015 92.4399 87.6273C92.4034 87.7911 92.4172 87.9621 92.4793 88.118C92.6253 88.4101 93.0387 88.432 93.2855 88.6452C93.2387 88.6058 93.2854 88.5123 93.3117 88.4817C93.2489 88.5021 93.2183 88.0917 93.208 87.988C93.1898 87.7773 93.1854 87.5655 93.1949 87.3542C93.2124 86.932 93.2861 86.514 93.414 86.1113Z" fill="#FFA8A7"/>
<path d="M103.557 73.5977L102.746 74.766L103.878 75.7679L103.557 73.5977Z" fill="#FFA8A7"/>
<path d="M81.2556 87.356C82.0374 85.9792 82.0031 84.4837 81.179 84.0157C80.3548 83.5477 79.0529 84.2845 78.2711 85.6613C77.4893 87.0381 77.5236 88.5337 78.3477 89.0017C79.1718 89.4696 80.4737 88.7329 81.2556 87.356Z" fill="#FF7F0B"/>
<path d="M112.308 94.0586V95.3511C112.308 95.3511 110.652 97.4819 106.279 96.4713V94.9714C106.279 94.9714 109.155 96.6524 112.308 94.0586Z" fill="white"/>
<path d="M71.0383 136.271L63.5388 140.624C62.7254 141.096 61.7995 141.34 60.8589 141.329C59.9183 141.319 58.998 141.055 58.195 140.565L53.802 137.885C53.0005 137.397 52.0824 137.133 51.144 137.122C50.2056 137.111 49.2814 137.352 48.4684 137.821L39.6326 142.922C39.4616 143.021 39.3196 143.164 39.221 143.335C39.1223 143.506 39.0703 143.7 39.0703 143.898C39.0703 144.096 39.1223 144.29 39.221 144.461C39.3196 144.632 39.4616 144.775 39.6326 144.874V144.874" stroke="#627BFD" stroke-width="3" stroke-linecap="round" stroke-linejoin="round"/>
<path d="M158.079 162.469C158.64 162.469 159.094 162.015 159.094 161.454C159.094 160.894 158.64 160.439 158.079 160.439C157.519 160.439 157.064 160.894 157.064 161.454C157.064 162.015 157.519 162.469 158.079 162.469Z" fill="#627BFD"/>
<path d="M49.5521 74.9578C50.1127 74.9578 50.5671 74.5033 50.5671 73.9427C50.5671 73.3822 50.1127 72.9277 49.5521 72.9277C48.9915 72.9277 48.5371 73.3822 48.5371 73.9427C48.5371 74.5033 48.9915 74.9578 49.5521 74.9578Z" fill="#627BFD"/>
<path d="M106.279 140.572L112.785 144.223C113.007 144.348 113.191 144.528 113.32 144.747C113.449 144.966 113.518 145.215 113.52 145.469C113.522 145.723 113.456 145.973 113.33 146.193C113.203 146.414 113.021 146.597 112.801 146.724L101.138 153.458C100.919 153.584 100.738 153.766 100.612 153.984C100.486 154.203 100.42 154.451 100.42 154.703C100.42 154.955 100.486 155.203 100.612 155.422C100.738 155.64 100.919 155.822 101.138 155.948L106.948 159.319C107.552 159.668 108.237 159.852 108.935 159.852C109.633 159.852 110.319 159.668 110.923 159.319L114.167 157.448" stroke="#627BFD" stroke-width="3" stroke-linecap="round" stroke-linejoin="round"/>
<path d="M114.566 136.336L157.887 161.345" stroke="#627BFD" stroke-width="3" stroke-linecap="round" stroke-linejoin="round"/>
<path d="M136.104 123.355L160.703 137.566" stroke="#627BFD" stroke-width="3" stroke-linecap="round" stroke-linejoin="round"/>
<path d="M160.703 138.583C161.263 138.583 161.718 138.128 161.718 137.568C161.718 137.007 161.263 136.553 160.703 136.553C160.142 136.553 159.688 137.007 159.688 137.568C159.688 138.128 160.142 138.583 160.703 138.583Z" fill="#627BFD"/>
<path d="M79.4425 141.604L66.2501 149.224C66.0182 149.358 65.8258 149.551 65.6923 149.784C65.5589 150.016 65.4892 150.279 65.4902 150.547C65.4913 150.815 65.563 151.078 65.6983 151.31C65.8335 151.541 66.0274 151.732 66.2603 151.865L77.5584 158.264" stroke="#627BFD" stroke-width="3" stroke-linecap="round" stroke-linejoin="round"/>
<path style="mix-blend-mode:multiply" opacity="0.75" d="M80.9087 177.494L60.7967 171.259L60.7383 160.273L92.366 170.879L80.9087 177.494Z" fill="url(#paint18_linear_1281_2160)"/>
<path d="M92.2615 170.675L80.8027 177.291V167.044L92.2615 160.441V170.675Z" fill="#DCE6F4"/>
<path d="M69.3457 170.675L80.803 177.291V167.044L69.3457 160.441V170.675Z" fill="url(#paint19_linear_1281_2160)"/>
<path d="M92.2618 160.441L80.803 153.84L69.3457 160.441L80.803 167.044L92.2618 160.441Z" fill="#F3F7FF"/>
<path d="M92.2618 160.441L80.803 153.84L69.3457 160.441L80.803 167.044L92.2618 160.441Z" fill="#F3F7FF"/>
<path opacity="0.7" d="M73.7754 160.442L80.8031 156.393L87.8323 160.442L80.8031 164.488L73.7754 160.442Z" fill="#4D4F80"/>
<path opacity="0.6" d="M69.3457 162.609L80.803 169.532L92.2618 162.976" stroke="#7D83AF" stroke-width="0.48" stroke-miterlimit="10"/>
<path d="M42.9135 135.323C43.4544 134.37 43.4305 133.336 42.8603 133.012C42.2901 132.688 41.3894 133.198 40.8485 134.15C40.3076 135.103 40.3314 136.137 40.9016 136.461C41.4719 136.785 42.3726 136.275 42.9135 135.323Z" fill="#4D4F80"/>
<g style="mix-blend-mode:multiply" opacity="0.55">
<path d="M42.4475 135.058C42.7442 134.536 42.7311 133.968 42.4183 133.791C42.1055 133.613 41.6113 133.893 41.3146 134.415C41.0179 134.938 41.0309 135.505 41.3438 135.683C41.6566 135.861 42.1507 135.581 42.4475 135.058Z" fill="#4D4F80"/>
</g>
<path d="M18.8879 126.303C19.2221 125.715 19.2076 125.075 18.8555 124.875C18.5034 124.676 17.947 124.991 17.6129 125.579C17.2787 126.167 17.2932 126.807 17.6453 127.007C17.9974 127.207 18.5538 126.892 18.8879 126.303Z" fill="#4D4F80"/>
<g style="mix-blend-mode:multiply" opacity="0.55">
<path d="M18.6005 126.141C18.7838 125.818 18.7759 125.468 18.583 125.358C18.3901 125.249 18.0853 125.421 17.9021 125.744C17.7188 126.067 17.7267 126.417 17.9196 126.526C18.1124 126.636 18.4173 126.463 18.6005 126.141Z" fill="#4D4F80"/>
</g>
<path d="M57.2159 128.297L45.7951 134.98C45.2578 135.294 44.6468 135.461 44.0243 135.463C43.4017 135.464 42.7898 135.301 42.2506 134.99L41.9688 134.828" stroke="#627BFD" stroke-width="3" stroke-linecap="round" stroke-linejoin="round"/>
</g>
<defs>
<linearGradient id="paint0_linear_1281_2160" x1="0.332031" y1="113.104" x2="144.174" y2="113.104" gradientUnits="userSpaceOnUse">
<stop stop-color="#627BFD" stop-opacity="0"/>
<stop offset="0.09" stop-color="#627BFD" stop-opacity="0.03"/>
<stop offset="0.22" stop-color="#627BFD" stop-opacity="0.1"/>
<stop offset="0.38" stop-color="#627BFD" stop-opacity="0.23"/>
<stop offset="0.56" stop-color="#627BFD" stop-opacity="0.41"/>
<stop offset="0.75" stop-color="#627BFD" stop-opacity="0.63"/>
<stop offset="0.96" stop-color="#627BFD" stop-opacity="0.9"/>
<stop offset="1" stop-color="#627BFD" stop-opacity="0.96"/>
</linearGradient>
<linearGradient id="paint1_linear_1281_2160" x1="35.5027" y1="102.832" x2="42.8824" y2="88.17" gradientUnits="userSpaceOnUse">
<stop offset="0.02" stop-color="#D7DDF4"/>
<stop offset="0.18" stop-color="#CDD3ED"/>
<stop offset="0.7" stop-color="#AEB4DA"/>
<stop offset="1" stop-color="#A3A9D3"/>
</linearGradient>
<linearGradient id="paint2_linear_1281_2160" x1="143.043" y1="111.887" x2="168.969" y2="111.887" gradientUnits="userSpaceOnUse">
<stop stop-color="#627BFD" stop-opacity="0"/>
<stop offset="0.05" stop-color="#627BFD" stop-opacity="0.05"/>
<stop offset="0.52" stop-color="#627BFD" stop-opacity="0.53"/>
<stop offset="0.85" stop-color="#627BFD" stop-opacity="0.84"/>
<stop offset="1" stop-color="#627BFD" stop-opacity="0.96"/>
</linearGradient>
<linearGradient id="paint3_linear_1281_2160" x1="13900.1" y1="5748.39" x2="15581.6" y2="5748.39" gradientUnits="userSpaceOnUse">
<stop stop-color="#627BFD" stop-opacity="0"/>
<stop offset="0.05" stop-color="#627BFD" stop-opacity="0.05"/>
<stop offset="0.52" stop-color="#627BFD" stop-opacity="0.53"/>
<stop offset="0.85" stop-color="#627BFD" stop-opacity="0.84"/>
<stop offset="1" stop-color="#627BFD" stop-opacity="0.96"/>
</linearGradient>
<linearGradient id="paint4_linear_1281_2160" x1="3111.19" y1="15685" x2="10406.5" y2="15685" gradientUnits="userSpaceOnUse">
<stop stop-color="#627BFD" stop-opacity="0"/>
<stop offset="0.05" stop-color="#627BFD" stop-opacity="0.05"/>
<stop offset="0.52" stop-color="#627BFD" stop-opacity="0.53"/>
<stop offset="0.85" stop-color="#627BFD" stop-opacity="0.84"/>
<stop offset="1" stop-color="#627BFD" stop-opacity="0.96"/>
</linearGradient>
<linearGradient id="paint5_linear_1281_2160" x1="19589.7" y1="11854.8" x2="23364" y2="11854.8" gradientUnits="userSpaceOnUse">
<stop stop-color="#627BFD" stop-opacity="0"/>
<stop offset="0.05" stop-color="#627BFD" stop-opacity="0.05"/>
<stop offset="0.52" stop-color="#627BFD" stop-opacity="0.53"/>
<stop offset="0.85" stop-color="#627BFD" stop-opacity="0.84"/>
<stop offset="1" stop-color="#627BFD" stop-opacity="0.96"/>
</linearGradient>
<linearGradient id="paint6_linear_1281_2160" x1="3655.9" y1="15979.6" x2="4073.67" y2="15183.5" gradientUnits="userSpaceOnUse">
<stop offset="0.02" stop-color="#D7DDF4"/>
<stop offset="0.18" stop-color="#CDD3ED"/>
<stop offset="0.7" stop-color="#AEB4DA"/>
<stop offset="1" stop-color="#A3A9D3"/>
</linearGradient>
<linearGradient id="paint7_linear_1281_2160" x1="27379.5" y1="12844.1" x2="37420" y2="12844.1" gradientUnits="userSpaceOnUse">
<stop stop-color="#627BFD" stop-opacity="0"/>
<stop offset="0.05" stop-color="#627BFD" stop-opacity="0.05"/>
<stop offset="0.52" stop-color="#627BFD" stop-opacity="0.53"/>
<stop offset="0.85" stop-color="#627BFD" stop-opacity="0.84"/>
<stop offset="1" stop-color="#627BFD" stop-opacity="0.96"/>
</linearGradient>
<linearGradient id="paint8_linear_1281_2160" x1="11264.8" y1="13548.5" x2="12492.4" y2="11890.3" gradientUnits="userSpaceOnUse">
<stop offset="0.02" stop-color="#D7DDF4"/>
<stop offset="0.18" stop-color="#CDD3ED"/>
<stop offset="0.7" stop-color="#AEB4DA"/>
<stop offset="1" stop-color="#A3A9D3"/>
</linearGradient>
<linearGradient id="paint9_linear_1281_2160" x1="535.888" y1="7458.94" x2="2217.36" y2="7458.94" gradientUnits="userSpaceOnUse">
<stop stop-color="#627BFD" stop-opacity="0"/>
<stop offset="0.05" stop-color="#627BFD" stop-opacity="0.05"/>
<stop offset="0.52" stop-color="#627BFD" stop-opacity="0.53"/>
<stop offset="0.85" stop-color="#627BFD" stop-opacity="0.84"/>
<stop offset="1" stop-color="#627BFD" stop-opacity="0.96"/>
</linearGradient>
<linearGradient id="paint10_linear_1281_2160" x1="5317.4" y1="5666.09" x2="5540.68" y2="5666.09" gradientUnits="userSpaceOnUse">
<stop offset="0.02" stop-color="#D7DDF4"/>
<stop offset="0.18" stop-color="#CDD3ED"/>
<stop offset="0.7" stop-color="#AEB4DA"/>
<stop offset="1" stop-color="#A3A9D3"/>
</linearGradient>
<linearGradient id="paint11_linear_1281_2160" x1="2513.7" y1="14170.9" x2="3050.68" y2="13281.9" gradientUnits="userSpaceOnUse">
<stop offset="0.02" stop-color="#D7DDF4"/>
<stop offset="0.18" stop-color="#CDD3ED"/>
<stop offset="0.7" stop-color="#AEB4DA"/>
<stop offset="1" stop-color="#A3A9D3"/>
</linearGradient>
<linearGradient id="paint12_linear_1281_2160" x1="5667.56" y1="9019.25" x2="6204.54" y2="8130.36" gradientUnits="userSpaceOnUse">
<stop offset="0.02" stop-color="#D7DDF4"/>
<stop offset="0.18" stop-color="#CDD3ED"/>
<stop offset="0.7" stop-color="#AEB4DA"/>
<stop offset="1" stop-color="#A3A9D3"/>
</linearGradient>
<linearGradient id="paint13_linear_1281_2160" x1="8322.63" y1="10718.2" x2="8607.88" y2="10246" gradientUnits="userSpaceOnUse">
<stop offset="0.02" stop-color="#D7DDF4"/>
<stop offset="0.18" stop-color="#CDD3ED"/>
<stop offset="0.7" stop-color="#AEB4DA"/>
<stop offset="1" stop-color="#A3A9D3"/>
</linearGradient>
<linearGradient id="paint14_linear_1281_2160" x1="14495.7" y1="34253.2" x2="32495.9" y2="34253.2" gradientUnits="userSpaceOnUse">
<stop offset="0.02" stop-color="#D7DDF4"/>
<stop offset="0.18" stop-color="#CDD3ED"/>
<stop offset="0.7" stop-color="#AEB4DA"/>
<stop offset="1" stop-color="#A3A9D3"/>
</linearGradient>
<linearGradient id="paint15_linear_1281_2160" x1="41.5039" y1="115.455" x2="112.538" y2="115.455" gradientUnits="userSpaceOnUse">
<stop stop-color="#627BFD" stop-opacity="0"/>
<stop offset="0.13" stop-color="#627BFD" stop-opacity="0.02"/>
<stop offset="0.26" stop-color="#627BFD" stop-opacity="0.06"/>
<stop offset="0.39" stop-color="#627BFD" stop-opacity="0.14"/>
<stop offset="0.51" stop-color="#627BFD" stop-opacity="0.25"/>
<stop offset="0.64" stop-color="#627BFD" stop-opacity="0.4"/>
<stop offset="0.77" stop-color="#627BFD" stop-opacity="0.57"/>
<stop offset="0.9" stop-color="#627BFD" stop-opacity="0.78"/>
<stop offset="1" stop-color="#627BFD" stop-opacity="0.96"/>
</linearGradient>
<linearGradient id="paint16_linear_1281_2160" x1="106.281" y1="119.118" x2="77.2847" y2="-6.26683" gradientUnits="userSpaceOnUse">
<stop stop-color="#627BFD"/>
<stop offset="0.07" stop-color="#627BFD" stop-opacity="0.98"/>
<stop offset="0.16" stop-color="#627BFD" stop-opacity="0.92"/>
<stop offset="0.25" stop-color="#627BFD" stop-opacity="0.82"/>
<stop offset="0.36" stop-color="#627BFD" stop-opacity="0.68"/>
<stop offset="0.46" stop-color="#627BFD" stop-opacity="0.5"/>
<stop offset="0.57" stop-color="#627BFD" stop-opacity="0.29"/>
<stop offset="0.69" stop-color="#627BFD" stop-opacity="0.03"/>
<stop offset="0.7" stop-color="#627BFD" stop-opacity="0"/>
</linearGradient>
<linearGradient id="paint17_linear_1281_2160" x1="220675" y1="68142.2" x2="242010" y2="68142.2" gradientUnits="userSpaceOnUse">
<stop offset="0.02" stop-color="#D7DDF4"/>
<stop offset="0.18" stop-color="#CDD3ED"/>
<stop offset="0.7" stop-color="#AEB4DA"/>
<stop offset="1" stop-color="#A3A9D3"/>
</linearGradient>
<linearGradient id="paint18_linear_1281_2160" x1="13142.3" y1="20073.4" x2="19991.6" y2="20073.4" gradientUnits="userSpaceOnUse">
<stop stop-color="#627BFD" stop-opacity="0"/>
<stop offset="0.05" stop-color="#627BFD" stop-opacity="0.05"/>
<stop offset="0.52" stop-color="#627BFD" stop-opacity="0.53"/>
<stop offset="0.85" stop-color="#627BFD" stop-opacity="0.84"/>
<stop offset="1" stop-color="#627BFD" stop-opacity="0.96"/>
</linearGradient>
<linearGradient id="paint19_linear_1281_2160" x1="5698.32" y1="20328" x2="6535.75" y2="19196.8" gradientUnits="userSpaceOnUse">
<stop offset="0.02" stop-color="#D7DDF4"/>
<stop offset="0.18" stop-color="#CDD3ED"/>
<stop offset="0.7" stop-color="#AEB4DA"/>
<stop offset="1" stop-color="#A3A9D3"/>
</linearGradient>
<clipPath id="clip0_1281_2160">
<rect width="168.668" height="177.494" fill="white" transform="translate(0.332031)"/>
</clipPath>
</defs>
</svg>
