<svg width="148" height="145" viewBox="0 0 148 145" fill="none" xmlns="http://www.w3.org/2000/svg">
<g clip-path="url(#clip0_1302_1829)">
<path style="mix-blend-mode:multiply" opacity="0.4" d="M99.7825 128.213L0 96.2578L85.4599 46.6445L119.747 68.3585L99.7825 128.213Z" fill="url(#paint0_linear_1302_1829)"/>
<path d="M99.9219 121.171V128.455L147.308 101.284V94.1113L99.9219 121.171Z" fill="#C4C7E8"/>
<path d="M99.9372 121.172V128.457L69.1406 110.504V103.238L99.9372 121.172Z" fill="url(#paint1_linear_1302_1829)"/>
<path style="mix-blend-mode:multiply" opacity="0.27" d="M99.9372 121.172V128.457L69.1406 110.504V103.238L99.9372 121.172Z" fill="url(#paint2_linear_1302_1829)"/>
<path d="M69.1406 103.238L99.9372 121.171L147.306 94.112L116.475 76.3184L69.1406 103.238Z" fill="#DCE6F4"/>
<path style="mix-blend-mode:color-dodge" d="M100.013 128.214L100.257 121.276L147.277 94.0957L100.019 121.037L69.3457 103.32L99.829 121.276L100.013 128.214Z" fill="url(#paint3_radial_1302_1829)"/>
<path style="mix-blend-mode:multiply" opacity="0.65" d="M118.433 102.066L76.3516 99.1355L100.102 85.6309L108.224 96.1011L118.433 102.066Z" fill="url(#paint4_linear_1302_1829)"/>
<path d="M139.12 43.8202L137.933 34.014L116.969 21.9635H116.95C113.218 19.4766 107.873 19.6526 101.936 23.0807L92.293 28.6479V37.0318L99.5014 32.8662L113.256 40.7594L113.925 40.575V62.1185L97.4567 71.6114V89.9929L122.36 75.6384L139.119 76.5921L139.12 43.8202Z" fill="url(#paint5_linear_1302_1829)"/>
<path d="M113.262 40.6975V49.0884L122.606 43.6932C129.399 39.7729 134.901 42.9113 134.901 50.7019V74.1792L118.432 83.6721V102.042L143.332 87.6811V46.7734C143.332 33.8273 134.183 28.6137 122.904 35.129L113.262 40.6975Z" fill="url(#paint6_linear_1302_1829)"/>
<path style="mix-blend-mode:multiply" opacity="0.49" d="M113.262 40.6975V49.0884L122.606 43.6932C129.399 39.7729 134.901 42.9113 134.901 50.7019V74.1792L118.432 83.6721V102.042L143.332 87.6811V46.7734C143.332 33.8273 134.183 28.6137 122.904 35.129L113.262 40.6975Z" fill="url(#paint7_linear_1302_1829)"/>
<path style="mix-blend-mode:color-dodge" d="M113.39 40.9521L123.033 35.3849C130.847 30.8741 137.633 32.2479 141.068 37.6584C137.772 31.6976 130.764 30.3113 122.65 35.0023L113.008 40.5695V48.9492L113.39 48.7288V40.9521Z" fill="url(#paint8_radial_1302_1829)"/>
<g opacity="0.69">
<path style="mix-blend-mode:multiply" opacity="0.69" d="M134.901 74.1801V50.6973C134.901 42.9067 129.396 39.7682 122.606 43.6885L113.93 48.697V62.1199L134.901 74.1801Z" fill="url(#paint9_linear_1302_1829)"/>
</g>
<path d="M118.433 83.6553V102.066L97.4688 90.0153V71.627L118.433 83.6553Z" fill="url(#paint10_linear_1302_1829)"/>
<path d="M118.433 83.6559L134.982 74.2004L114.018 62.1484L97.4688 71.6275L118.433 83.6559Z" fill="#CEDAEF"/>
<path d="M113.261 40.7002V49.0301L92.2969 36.9796V28.6719L113.261 40.7002Z" fill="url(#paint11_linear_1302_1829)"/>
<path style="mix-blend-mode:multiply" opacity="0.65" d="M134.982 74.2004L97.4688 71.6275L114.018 62.1484L134.982 74.2004Z" fill="url(#paint12_linear_1302_1829)"/>
<path d="M104.161 96.2575V98.7665L73.8008 81.0851V78.5996L104.161 96.2575Z" fill="url(#paint13_linear_1302_1829)"/>
<path style="mix-blend-mode:multiply" opacity="0.35" d="M104.161 96.2575V98.7665L73.8008 81.0851V78.5996L104.161 96.2575Z" fill="url(#paint14_linear_1302_1829)"/>
<path d="M106.856 59.5371L73.8008 78.6006L104.159 96.2584L137.256 77.023L106.856 59.5371ZM98.6573 83.9348C96.5225 83.9348 94.7925 82.927 94.7925 81.6835C94.7925 80.4401 96.5225 79.4323 98.6573 79.4323C100.792 79.4323 102.524 80.4401 102.524 81.6835C102.524 82.927 100.794 83.9362 98.6546 83.9362L98.6573 83.9348Z" fill="#E4EBF4"/>
<path d="M95.3389 82.8326C96.0126 82.1728 97.2464 81.7236 98.6659 81.7236C100.085 81.7236 101.314 82.1672 101.993 82.8326C102.156 82.688 102.289 82.5118 102.383 82.3145C102.476 82.1172 102.529 81.9031 102.538 81.6849C102.538 80.4373 100.808 79.4336 98.6714 79.4336C96.5353 79.4336 94.8066 80.4414 94.8066 81.6849C94.8136 81.9021 94.8644 82.1158 94.9558 82.313C95.0473 82.5102 95.1776 82.6869 95.3389 82.8326Z" fill="#67709E"/>
<path d="M104.141 96.2583V98.7673L137.258 79.3906V77.0215L104.141 96.2583Z" fill="url(#paint15_linear_1302_1829)"/>
<path style="mix-blend-mode:color-dodge" d="M104.14 98.7673L104.467 96.2652L137.257 77.0215L104.148 95.9464L73.8008 78.6004L103.893 96.2652L104.14 98.7673Z" fill="url(#paint16_radial_1302_1829)"/>
<path d="M103.076 60.2676H94.1197V73.8069C94.119 73.8189 94.119 73.831 94.1197 73.843C94.1197 75.2833 96.1255 76.4505 98.5986 76.4505C101.072 76.4505 103.076 75.2833 103.076 73.843C103.077 73.831 103.077 73.8189 103.076 73.8069V60.2676Z" fill="url(#paint17_linear_1302_1829)"/>
<path d="M98.5986 74.2989C96.1255 74.2989 94.1197 73.1317 94.1197 71.6914V73.8082C94.119 73.8202 94.119 73.8322 94.1197 73.8443C94.1197 75.2845 96.1255 76.4518 98.5986 76.4518C101.072 76.4518 103.076 75.2845 103.076 73.8443C103.077 73.8322 103.077 73.8202 103.076 73.8082V71.6914C103.076 73.1317 101.07 74.2989 98.5986 74.2989Z" fill="url(#paint18_linear_1302_1829)"/>
<path d="M109.409 55.1387L101.262 58.8566L106.882 71.1746C106.882 71.1857 106.89 71.1968 106.895 71.2079C107.493 72.5179 109.806 72.748 112.051 71.7208C114.295 70.6936 115.64 68.8 115.042 67.49C115.037 67.4791 115.032 67.4685 115.026 67.4581L109.409 55.1387Z" fill="url(#paint19_linear_1302_1829)"/>
<path d="M105.988 69.2168L106.002 69.2497L105.99 69.2168H105.988Z" fill="url(#paint20_linear_1302_1829)"/>
<path d="M111.159 69.762C108.909 70.7892 106.601 70.5591 106.002 69.2491L106.881 71.1746C106.881 71.1857 106.889 71.1968 106.895 71.2078C107.492 72.5178 109.806 72.748 112.05 71.7208C114.294 70.6936 115.639 68.8 115.042 67.49C115.037 67.4791 115.031 67.4684 115.025 67.4581L114.147 65.5312C114.748 66.8412 113.409 68.7362 111.159 69.762Z" fill="url(#paint21_linear_1302_1829)"/>
<path d="M114.15 65.5316L114.135 65.5L114.15 65.5316Z" fill="url(#paint22_linear_1302_1829)"/>
<path d="M97.1546 60.3967L90.0335 54.9668L81.8228 65.7323C81.8145 65.742 81.8062 65.7503 81.7993 65.76C80.9259 66.905 81.8117 69.0496 83.7788 70.5495C85.7458 72.0494 88.0456 72.3363 88.9189 71.1913C88.9273 71.1816 88.9328 71.1719 88.9397 71.1622L97.1546 60.3967Z" fill="url(#paint23_linear_1302_1829)"/>
<path d="M83.1302 64.0195L83.1074 64.0493L83.1302 64.021V64.0195Z" fill="url(#paint24_linear_1302_1829)"/>
<path d="M85.0846 68.8369C83.1189 67.337 82.2331 65.1939 83.1064 64.0488L81.8228 65.7317C81.8145 65.7414 81.8062 65.7497 81.7993 65.7595C80.9259 66.9045 81.8117 69.049 83.7788 70.5489C85.7458 72.0488 88.0456 72.3357 88.9189 71.1907C88.9273 71.181 88.9328 71.1713 88.9397 71.1616L90.2234 69.4773C89.3528 70.6238 87.0517 70.3368 85.0846 68.8369Z" fill="url(#paint25_linear_1302_1829)"/>
<path d="M90.2266 69.4798L90.2494 69.4512C90.2426 69.4613 90.235 69.4709 90.2266 69.4798Z" fill="url(#paint26_linear_1302_1829)"/>
<path d="M112.967 53.8721C114.249 46.0091 108.914 38.5957 101.051 37.3137C93.1885 36.0317 85.7751 41.3667 84.4931 49.2296C83.2111 57.0926 88.5461 64.506 96.409 65.788C104.272 67.07 111.685 61.735 112.967 53.8721Z" fill="url(#paint27_radial_1302_1829)"/>
<path d="M113.195 36.127H84.2461V48.9496C84.2461 48.9884 84.2461 49.0259 84.2461 49.0647C84.2461 53.721 90.7268 57.4943 98.7198 57.4943C106.713 57.4943 113.195 53.721 113.195 49.0647C113.195 49.0259 113.195 48.9884 113.195 48.9496V36.127Z" fill="url(#paint28_linear_1302_1829)"/>
<path d="M98.7198 53.3502C90.7268 53.3502 84.2461 49.5768 84.2461 44.9219V48.942C84.2461 48.9808 84.2461 49.0182 84.2461 49.057C84.2461 53.712 90.7268 57.4867 98.7198 57.4867C106.713 57.4867 113.195 53.712 113.195 49.057C113.195 49.0182 113.195 48.9808 113.195 48.942V44.9219C113.195 49.5768 106.714 53.3502 98.7198 53.3502Z" fill="#DCE6F4"/>
<path d="M110.137 49.584H102.09V58.7636H110.137V49.584Z" fill="url(#paint29_linear_1302_1829)"/>
<path opacity="0.35" d="M94.1643 48.4473H86.1172V57.6269H94.1643V48.4473Z" fill="url(#paint30_linear_1302_1829)"/>
<path d="M113.195 44.9211V44.8047C113.191 44.8435 113.195 44.8823 113.195 44.9211Z" fill="url(#paint31_linear_1302_1829)"/>
<path d="M98.7192 44.6144C106.714 44.6144 113.194 40.8409 113.194 36.1861C113.194 31.5313 106.714 27.7578 98.7192 27.7578C90.7248 27.7578 84.2441 31.5313 84.2441 36.1861C84.2441 40.8409 90.7248 44.6144 98.7192 44.6144Z" fill="url(#paint32_linear_1302_1829)"/>
<path style="mix-blend-mode:color-dodge" d="M98.7198 44.3587C91.0206 44.3587 84.7285 40.8585 84.2752 36.4405C84.2572 36.6097 84.2461 36.2686 84.2461 36.4405C84.2461 41.0955 90.7268 44.8688 98.7198 44.8688C106.713 44.8688 113.195 41.0955 113.195 36.4405C113.195 36.2686 113.184 36.6097 113.166 36.4405C112.712 40.8585 106.419 44.3587 98.7198 44.3587Z" fill="url(#paint33_radial_1302_1829)"/>
<path d="M108.082 7.64062H89.3555V35.96C89.3555 35.9849 89.3555 36.0099 89.3555 36.0349C89.3555 39.0471 93.5474 41.4897 98.7195 41.4897C103.891 41.4897 108.085 39.0471 108.085 36.0349C108.085 36.0099 108.085 35.9849 108.085 35.96L108.082 7.64062Z" fill="url(#paint34_linear_1302_1829)"/>
<path style="mix-blend-mode:multiply" d="M89.3555 11.59C89.3555 11.615 89.3555 11.6399 89.3555 11.6649C89.3555 14.6772 93.5474 17.1183 98.7194 17.1183C103.891 17.1183 108.082 14.6771 108.082 11.6607C108.082 11.6358 108.082 11.6108 108.082 11.5858V7.64062H89.3555V11.59Z" fill="url(#paint35_linear_1302_1829)"/>
<path d="M98.7189 13.1315C103.891 13.1315 108.084 10.6899 108.084 7.67805C108.084 4.6662 103.891 2.22461 98.7189 2.22461C93.5465 2.22461 89.3535 4.6662 89.3535 7.67805C89.3535 10.6899 93.5465 13.1315 98.7189 13.1315Z" fill="url(#paint36_linear_1302_1829)"/>
<path d="M109.198 6.06055H88.2422V8.81636C88.2422 8.84409 88.2422 8.87183 88.2422 8.90094C88.2422 12.2709 92.9332 15.0004 98.7193 15.0004C104.505 15.0004 109.198 12.2695 109.198 8.90094C109.198 8.87183 109.198 8.84409 109.198 8.81636V6.06055Z" fill="url(#paint37_linear_1302_1829)"/>
<path d="M109.198 6.10138C109.198 9.47131 104.507 12.2008 98.7193 12.2008C92.9318 12.2008 88.2422 9.46992 88.2422 6.10138C88.2422 2.73283 92.9332 0.00195312 98.7193 0.00195312C104.505 0.00195312 109.198 2.73145 109.198 6.10138Z" fill="url(#paint38_linear_1302_1829)"/>
<path style="mix-blend-mode:color-dodge" d="M98.7193 12.0332C93.0566 12.0332 88.4543 9.41465 88.2602 6.14453C88.2602 6.21523 88.2422 6.28316 88.2422 6.35663C88.2422 9.72656 92.9332 12.4561 98.7193 12.4561C104.505 12.4561 109.198 9.72517 109.198 6.35663C109.198 6.28454 109.183 6.218 109.178 6.14453C108.984 9.41465 104.383 12.0332 98.7193 12.0332Z" fill="url(#paint39_radial_1302_1829)"/>
<path d="M107.078 6.10142C107.078 8.78933 103.335 10.9685 98.7189 10.9685C94.1028 10.9685 90.3613 8.78933 90.3613 6.10142C90.3613 3.41352 94.1042 1.23438 98.7189 1.23438C103.334 1.23438 107.078 3.41352 107.078 6.10142Z" fill="url(#paint40_linear_1302_1829)"/>
<path d="M98.7198 2.9375C94.6041 2.9375 91.1898 4.67168 90.498 6.95758C91.1912 9.23932 94.6041 10.9777 98.7198 10.9777C102.836 10.9777 106.25 9.24347 106.943 6.95758C106.25 4.67168 102.837 2.9375 98.7198 2.9375Z" fill="#383A5B"/>
<path style="mix-blend-mode:screen" d="M101.894 6.74489C101.894 8.07844 100.038 9.1597 97.7478 9.1597C95.4578 9.1597 93.6016 8.07844 93.6016 6.74489C93.6016 5.41133 95.4578 4.33008 97.7478 4.33008C100.038 4.33008 101.894 5.41133 101.894 6.74489Z" fill="url(#paint41_linear_1302_1829)"/>
<path style="mix-blend-mode:color-dodge" opacity="0.53" d="M94.1199 36.6562C96.3187 36.6562 98.1012 28.7263 98.1012 18.9443C98.1012 9.16231 96.3187 1.23242 94.1199 1.23242C91.9211 1.23242 90.1387 9.16231 90.1387 18.9443C90.1387 28.7263 91.9211 36.6562 94.1199 36.6562Z" fill="url(#paint42_radial_1302_1829)"/>
<path d="M102.584 82.0799C102.584 82.8026 102.369 83.5091 101.968 84.11C101.566 84.7109 100.996 85.1793 100.328 85.4558C99.6602 85.7324 98.9255 85.8048 98.2166 85.6638C97.5078 85.5228 96.8567 85.1747 96.3457 84.6637C95.8346 84.1527 95.4866 83.5016 95.3456 82.7928C95.2046 82.0839 95.277 81.3492 95.5535 80.6815C95.8301 80.0138 96.2985 79.4431 96.8994 79.0416C97.5003 78.6401 98.2068 78.4258 98.9295 78.4258C99.8986 78.4258 100.828 78.8108 101.513 79.4961C102.199 80.1813 102.584 81.1107 102.584 82.0799Z" fill="url(#paint43_radial_1302_1829)"/>
<path style="mix-blend-mode:color-dodge" d="M101.528 79.7695C101.763 80.4613 101.795 81.2056 101.622 81.9152C101.449 82.6248 101.077 83.2703 100.55 83.7759C100.022 84.2816 99.3619 84.6265 98.6457 84.7701C97.9295 84.9137 97.1872 84.85 96.5059 84.5867C97.1618 85.17 98.0135 85.4848 98.8912 85.4683C99.7688 85.4517 100.608 85.1051 101.242 84.4974C101.875 83.8898 102.256 83.0658 102.309 82.1896C102.363 81.3133 102.084 80.4493 101.528 79.7695Z" fill="url(#paint44_radial_1302_1829)"/>
<path style="mix-blend-mode:color-dodge" d="M98.2514 83.3699C99.5077 83.3699 100.526 82.3515 100.526 81.0951C100.526 79.8388 99.5077 78.8203 98.2514 78.8203C96.995 78.8203 95.9766 79.8388 95.9766 81.0951C95.9766 82.3515 96.995 83.3699 98.2514 83.3699Z" fill="url(#paint45_radial_1302_1829)"/>
<path style="mix-blend-mode:multiply" opacity="0.75" d="M99.8351 87.0025C98.7012 87.392 97.4439 87.3102 96.2975 86.9595C95.1511 86.6088 94.0989 86.0044 93.0925 85.3515C92.4979 84.9661 91.8962 84.5433 91.5288 83.9376C91.1615 83.3318 91.0866 82.4931 91.5288 81.9427C91.8809 81.5116 92.4645 81.348 93.019 81.2856C95.219 81.0417 97.3469 82.0287 99.3403 82.9921C100.092 83.3553 101.32 83.8946 101.521 84.8081C101.751 85.8242 100.671 86.7156 99.8351 87.0025Z" fill="url(#paint46_linear_1302_1829)"/>
<path d="M98.8107 86.1156C101.039 86.1156 102.846 84.3089 102.846 82.0802C102.846 79.8516 101.039 78.0449 98.8107 78.0449C96.5821 78.0449 94.7754 79.8516 94.7754 82.0802C94.7754 84.3089 96.5821 86.1156 98.8107 86.1156Z" fill="url(#paint47_radial_1302_1829)"/>
<g opacity="0.7">
<path opacity="0.7" d="M140.835 62.4663L138.408 63.7499V59.4512L140.835 58.0566V62.4663Z" fill="#4D4F80"/>
<path opacity="0.42" d="M138.408 63.7499V63.2328L140.443 62.1627V58.2854L140.835 58.0566V62.4663L138.408 63.7499Z" fill="#C4C7E8"/>
</g>
<g opacity="0.7">
<path opacity="0.7" d="M140.835 71.1166L138.408 72.4003V68.1016L140.835 66.707V71.1166Z" fill="#4D4F80"/>
<path opacity="0.42" d="M138.408 72.4003V71.8832L140.443 70.8117V66.9358L140.835 66.707V71.1166L138.408 72.4003Z" fill="#C4C7E8"/>
</g>
<g opacity="0.7">
<path opacity="0.7" d="M140.835 53.2871L138.408 54.5722V50.2735L140.835 48.8789V53.2871Z" fill="#4D4F80"/>
<path opacity="0.42" d="M138.408 54.5722V54.0537L140.443 52.9835V49.1062L140.835 48.8789V53.2871L138.408 54.5722Z" fill="#C4C7E8"/>
</g>
<path d="M47.3789 125.934L65.1102 115.57L82.9053 125.891L65.0645 136.191L47.3789 125.934Z" fill="#E7EDFC"/>
<path style="mix-blend-mode:multiply" opacity="0.65" d="M65.0645 135.213L69.0915 133.914L82.9053 125.895L79.6199 124.033L66.3176 130.726L65.0645 135.213Z" fill="url(#paint48_linear_1302_1829)"/>
<path d="M47.3789 114.684L65.1102 104.32L82.9053 114.639L65.0645 124.941L47.3789 114.684Z" fill="#E7EDFC"/>
<path style="mix-blend-mode:multiply" opacity="0.65" d="M65.0645 123.914L69.0915 122.614L82.9053 114.595L79.6199 112.734L66.3176 119.427L65.0645 123.914Z" fill="url(#paint49_linear_1302_1829)"/>
<path d="M51.3139 137.023H78.2969V110.792H51.3139V137.023Z" fill="#4D4F80"/>
<path d="M65.0645 113.563V122.381L47.3789 112.123V103.305L65.0645 113.563ZM47.3789 114.63V123.447L65.0645 133.705V124.888L47.3789 114.63ZM47.3789 125.925V134.742L65.0645 145V136.183L47.3789 125.925Z" fill="#C4C7E8"/>
<path d="M65.0645 113.563L82.9052 103.264V112.08L65.0645 122.381V113.563ZM65.0645 133.704L82.9052 123.404V114.586L65.0645 124.887V133.704ZM65.0645 144.999L82.9052 134.699V125.886L65.0645 136.187V144.999Z" fill="#DCE6F4"/>
<path d="M65.0645 113.563L82.9052 103.264V112.08L65.0645 122.381V113.563Z" fill="#8FA4F7"/>
<path d="M65.7578 143.799V136.582L82.2124 127.083V134.299L65.7578 143.799ZM65.7578 132.504V125.287L82.2124 115.788V123.004L65.7578 132.504ZM65.7578 121.181V113.965L82.2124 104.465V111.68L65.7578 121.181Z" stroke="#7D83AF" stroke-miterlimit="10"/>
<path d="M47.3789 103.307L65.1102 92.9434L82.9053 103.262L65.0645 113.564L47.3789 103.307Z" fill="#E7EDFC"/>
<path d="M48.219 114.149L51.4115 116.103L65.0645 123.915L78.2975 116.274L81.806 113.959L82.9053 114.595L65.0645 124.896L47.3789 114.64L48.219 114.149Z" fill="#E7EDFC"/>
<path style="mix-blend-mode:multiply" opacity="0.65" d="M65.0645 123.914L69.0915 122.614L82.9053 114.595L79.6199 112.734L66.3176 119.427L65.0645 123.914Z" fill="url(#paint50_linear_1302_1829)"/>
<path d="M48.219 125.4L51.4115 127.353L65.0645 135.165L78.2975 127.524L81.806 125.209L82.9053 125.847L65.0645 136.146L47.3789 125.891L48.219 125.4Z" fill="#E7EDFC"/>
<path d="M48.219 125.4L51.4115 127.353L65.0645 135.165L78.2975 127.524L81.806 125.209L82.9053 125.847L65.0645 136.146L47.3789 125.891L48.219 125.4Z" fill="#E7EDFC"/>
<path style="mix-blend-mode:multiply" opacity="0.65" d="M65.0645 135.164L69.0915 133.865L82.9053 125.846L79.6199 123.984L66.3176 130.677L65.0645 135.164Z" fill="url(#paint51_linear_1302_1829)"/>
<path d="M47.3789 103.307L65.1102 92.9434L82.9053 103.262L65.0645 113.564L47.3789 103.307Z" fill="#8FA4F7"/>
<path d="M53.0918 101.828H76.2294V103.076C76.2294 103.106 76.2294 103.138 76.2294 103.169C76.2294 106.889 71.0491 109.906 64.6613 109.906C58.2735 109.906 53.0918 106.889 53.0918 103.169C53.0918 103.138 53.0918 103.106 53.0918 103.076V101.828Z" fill="url(#paint52_linear_1302_1829)"/>
<path d="M64.6599 108.611C71.0488 108.611 76.228 105.595 76.228 101.874C76.228 98.153 71.0488 95.1367 64.6599 95.1367C58.271 95.1367 53.0918 98.153 53.0918 101.874C53.0918 105.595 58.271 108.611 64.6599 108.611Z" fill="#4D4F80"/>
<path style="mix-blend-mode:color-dodge" d="M64.661 108.582C70.9794 108.582 76.1127 105.631 76.2236 101.967C76.2236 102.007 76.2236 102.046 76.2236 102.087C76.2236 105.807 71.0432 108.823 64.6554 108.823C58.2677 108.823 53.0859 105.807 53.0859 102.087C53.0859 102.046 53.0859 102.007 53.0859 101.967C53.2079 105.631 58.3411 108.582 64.661 108.582Z" fill="url(#paint53_radial_1302_1829)"/>
<path d="M64.6586 107.219C69.5669 107.219 73.5458 104.902 73.5458 102.044C73.5458 99.186 69.5669 96.8691 64.6586 96.8691C59.7504 96.8691 55.7715 99.186 55.7715 102.044C55.7715 104.902 59.7504 107.219 64.6586 107.219Z" fill="#4D4F80"/>
<path opacity="0.7" d="M64.6606 100.49C60.847 100.49 57.606 101.891 56.3432 103.854C55.9821 103.319 55.7842 102.69 55.7734 102.044C55.7734 99.1855 59.7519 96.8691 64.6606 96.8691C69.5692 96.8691 73.5463 99.1855 73.5463 102.044C73.5356 102.69 73.3376 103.319 72.9765 103.854C71.7151 101.891 68.4727 100.49 64.6606 100.49Z" fill="url(#paint54_linear_1302_1829)"/>
<path opacity="0.5" d="M57.3672 105.001V73.3945H71.7189L72.3316 105.092L71.7577 105.454C68.2755 107.646 63.9144 108.02 60.1604 106.333C60.0579 106.287 59.9553 106.239 59.8527 106.194L57.3672 105.001Z" fill="url(#paint55_linear_1302_1829)"/>
<path d="M60.0126 93.1463C60.2277 93.1463 60.4021 92.9719 60.4021 92.7567C60.4021 92.5416 60.2277 92.3672 60.0126 92.3672C59.7974 92.3672 59.623 92.5416 59.623 92.7567C59.623 92.9719 59.7974 93.1463 60.0126 93.1463Z" fill="#627BFD"/>
<path d="M60.0127 91.7773C60.3174 91.7773 60.5644 91.5303 60.5644 91.2256C60.5644 90.9208 60.3174 90.6738 60.0127 90.6738C59.708 90.6738 59.4609 90.9208 59.4609 91.2256C59.4609 91.5303 59.708 91.7773 60.0127 91.7773Z" fill="#627BFD"/>
<path d="M60.0121 94.2977C60.1698 94.2977 60.2977 94.1698 60.2977 94.0121C60.2977 93.8544 60.1698 93.7266 60.0121 93.7266C59.8544 93.7266 59.7266 93.8544 59.7266 94.0121C59.7266 94.1698 59.8544 94.2977 60.0121 94.2977Z" fill="#627BFD"/>
<path d="M60.0131 95.4167C60.0904 95.4167 60.1531 95.3541 60.1531 95.2767C60.1531 95.1994 60.0904 95.1367 60.0131 95.1367C59.9357 95.1367 59.873 95.1994 59.873 95.2767C59.873 95.3541 59.9357 95.4167 60.0131 95.4167Z" fill="#627BFD"/>
<path d="M61.8667 82.37C62.0573 82.37 62.2118 82.2155 62.2118 82.0249C62.2118 81.8342 62.0573 81.6797 61.8667 81.6797C61.676 81.6797 61.5215 81.8342 61.5215 82.0249C61.5215 82.2155 61.676 82.37 61.8667 82.37Z" fill="#627BFD"/>
<path d="M61.8669 81.1595C62.1363 81.1595 62.3548 80.941 62.3548 80.6716C62.3548 80.4021 62.1363 80.1836 61.8669 80.1836C61.5974 80.1836 61.3789 80.4021 61.3789 80.6716C61.3789 80.941 61.5974 81.1595 61.8669 81.1595Z" fill="#627BFD"/>
<path d="M61.8675 83.3874C62.0069 83.3874 62.1198 83.2744 62.1198 83.1351C62.1198 82.9958 62.0069 82.8828 61.8675 82.8828C61.7282 82.8828 61.6152 82.9958 61.6152 83.1351C61.6152 83.2744 61.7282 83.3874 61.8675 83.3874Z" fill="#627BFD"/>
<path d="M61.8675 84.3757C61.9356 84.3757 61.9909 84.3204 61.9909 84.2523C61.9909 84.1841 61.9356 84.1289 61.8675 84.1289C61.7994 84.1289 61.7441 84.1841 61.7441 84.2523C61.7441 84.3204 61.7994 84.3757 61.8675 84.3757Z" fill="#627BFD"/>
<path d="M67.5502 93.6845C67.7409 93.6845 67.8954 93.5299 67.8954 93.3393C67.8954 93.1487 67.7409 92.9941 67.5502 92.9941C67.3596 92.9941 67.2051 93.1487 67.2051 93.3393C67.2051 93.5299 67.3596 93.6845 67.5502 93.6845Z" fill="white"/>
<path d="M67.5505 92.4739C67.8199 92.4739 68.0384 92.2555 68.0384 91.986C68.0384 91.7165 67.8199 91.498 67.5505 91.498C67.281 91.498 67.0625 91.7165 67.0625 91.986C67.0625 92.2555 67.281 92.4739 67.5505 92.4739Z" fill="white"/>
<path d="M67.5511 94.6999C67.6905 94.6999 67.8034 94.587 67.8034 94.4476C67.8034 94.3083 67.6905 94.1953 67.5511 94.1953C67.4118 94.1953 67.2988 94.3083 67.2988 94.4476C67.2988 94.587 67.4118 94.6999 67.5511 94.6999Z" fill="white"/>
<path d="M67.5511 95.6901C67.6192 95.6901 67.6745 95.6349 67.6745 95.5667C67.6745 95.4986 67.6192 95.4434 67.5511 95.4434C67.483 95.4434 67.4277 95.4986 67.4277 95.5667C67.4277 95.6349 67.483 95.6901 67.5511 95.6901Z" fill="white"/>
<path d="M65.9838 73.3954C66.1745 73.3954 66.329 73.2409 66.329 73.0502C66.329 72.8596 66.1745 72.7051 65.9838 72.7051C65.7932 72.7051 65.6387 72.8596 65.6387 73.0502C65.6387 73.2409 65.7932 73.3954 65.9838 73.3954Z" fill="white"/>
<path d="M65.984 72.1869C66.2535 72.1869 66.472 71.9684 66.472 71.6989C66.472 71.4294 66.2535 71.2109 65.984 71.2109C65.7146 71.2109 65.4961 71.4294 65.4961 71.6989C65.4961 71.9684 65.7146 72.1869 65.984 72.1869Z" fill="white"/>
<path d="M65.9828 74.4128C66.1221 74.4128 66.2351 74.2998 66.2351 74.1605C66.2351 74.0212 66.1221 73.9082 65.9828 73.9082C65.8434 73.9082 65.7305 74.0212 65.7305 74.1605C65.7305 74.2998 65.8434 74.4128 65.9828 74.4128Z" fill="white"/>
<path d="M65.9827 75.401C66.0509 75.401 66.1061 75.3458 66.1061 75.2777C66.1061 75.2095 66.0509 75.1543 65.9827 75.1543C65.9146 75.1543 65.8594 75.2095 65.8594 75.2777C65.8594 75.3458 65.9146 75.401 65.9827 75.401Z" fill="white"/>
<path d="M69.2372 116.704C69.5234 116.2 69.5109 115.652 69.2093 115.481C68.9077 115.31 68.4313 115.58 68.1451 116.084C67.8589 116.588 67.8714 117.135 68.173 117.306C68.4746 117.477 68.951 117.208 69.2372 116.704Z" fill="#4D4F80"/>
<path d="M72.5771 114.774C72.8633 114.27 72.8508 113.723 72.5492 113.551C72.2477 113.38 71.7712 113.65 71.485 114.154C71.1988 114.658 71.2113 115.205 71.5129 115.377C71.8145 115.548 72.2909 115.278 72.5771 114.774Z" fill="#4D4F80"/>
<path d="M75.9814 112.975C76.2676 112.471 76.2551 111.924 75.9535 111.753C75.6519 111.581 75.1755 111.851 74.8893 112.355C74.6031 112.859 74.6155 113.406 74.9171 113.578C75.2187 113.749 75.6952 113.479 75.9814 112.975Z" fill="#4D4F80"/>
<g style="mix-blend-mode:multiply" opacity="0.55">
<path d="M68.9918 116.563C69.1487 116.287 69.1415 115.987 68.9757 115.893C68.81 115.798 68.5484 115.946 68.3915 116.222C68.2346 116.499 68.2418 116.799 68.4076 116.893C68.5734 116.987 68.8349 116.84 68.9918 116.563Z" fill="#4D4F80"/>
</g>
<g style="mix-blend-mode:multiply" opacity="0.55">
<path d="M72.3082 114.647C72.4651 114.371 72.458 114.071 72.2922 113.977C72.1264 113.882 71.8648 114.03 71.7079 114.306C71.551 114.583 71.5582 114.883 71.724 114.977C71.8898 115.071 72.1514 114.924 72.3082 114.647Z" fill="#4D4F80"/>
</g>
<g style="mix-blend-mode:multiply" opacity="0.55">
<path d="M75.736 112.837C75.8928 112.56 75.8856 112.26 75.7198 112.166C75.5541 112.072 75.2925 112.22 75.1357 112.496C74.9788 112.772 74.9859 113.072 75.1517 113.167C75.3175 113.261 75.5791 113.113 75.736 112.837Z" fill="#4D4F80"/>
</g>
<path d="M69.2372 127.719C69.5234 127.215 69.511 126.668 69.2094 126.497C68.9078 126.326 68.4313 126.595 68.1451 127.099C67.8589 127.603 67.8715 128.151 68.1731 128.322C68.4746 128.493 68.9511 128.223 69.2372 127.719Z" fill="#4D4F80"/>
<path d="M72.5791 125.79C72.8652 125.286 72.8527 124.738 72.5511 124.567C72.2496 124.396 71.7731 124.666 71.4869 125.169C71.2008 125.673 71.2132 126.221 71.5148 126.392C71.8164 126.563 72.2929 126.294 72.5791 125.79Z" fill="#4D4F80"/>
<path d="M73.3334 121.314C73.6174 120.81 73.6031 120.263 73.3013 120.093C72.9996 119.923 72.5248 120.194 72.2408 120.698C71.9568 121.203 71.9712 121.749 72.2729 121.919C72.5747 122.089 73.0495 121.818 73.3334 121.314Z" fill="#4D4F80"/>
<g style="mix-blend-mode:multiply" opacity="0.55">
<path d="M68.9918 127.579C69.1487 127.303 69.1415 127.002 68.9757 126.908C68.81 126.814 68.5484 126.962 68.3915 127.238C68.2346 127.514 68.2418 127.815 68.4076 127.909C68.5734 128.003 68.8349 127.855 68.9918 127.579Z" fill="#4D4F80"/>
</g>
<g style="mix-blend-mode:multiply" opacity="0.55">
<path d="M72.3102 125.665C72.4671 125.389 72.4598 125.088 72.2941 124.994C72.1283 124.9 71.8668 125.048 71.7099 125.324C71.553 125.6 71.5601 125.901 71.7259 125.995C71.8917 126.089 72.1533 125.941 72.3102 125.665Z" fill="#4D4F80"/>
</g>
<g style="mix-blend-mode:multiply" opacity="0.55">
<path d="M75.736 123.85C75.8929 123.574 75.8857 123.274 75.7199 123.18C75.5541 123.086 75.2925 123.233 75.1357 123.509C74.9788 123.786 74.986 124.086 75.1517 124.18C75.3175 124.274 75.5791 124.127 75.736 123.85Z" fill="#4D4F80"/>
</g>
<path d="M69.2373 138.835C69.5234 138.331 69.5109 137.783 69.2093 137.612C68.9077 137.441 68.4313 137.71 68.1451 138.214C67.8589 138.718 67.8714 139.266 68.173 139.437C68.4746 139.608 68.9511 139.339 69.2373 138.835Z" fill="#4D4F80"/>
<path d="M72.5791 136.907C72.8653 136.403 72.8527 135.855 72.5511 135.684C72.2496 135.513 71.7731 135.783 71.4869 136.287C71.2008 136.791 71.2132 137.338 71.5148 137.509C71.8164 137.681 72.2929 137.411 72.5791 136.907Z" fill="#4D4F80"/>
<path d="M75.9834 135.108C76.2696 134.604 76.257 134.057 75.9554 133.885C75.6539 133.714 75.1774 133.984 74.8912 134.488C74.6051 134.992 74.6175 135.539 74.9191 135.71C75.2207 135.882 75.6972 135.612 75.9834 135.108Z" fill="#4D4F80"/>
<g style="mix-blend-mode:multiply" opacity="0.55">
<path d="M68.9918 138.696C69.1487 138.42 69.1414 138.12 68.9757 138.025C68.8099 137.931 68.5484 138.079 68.3915 138.355C68.2346 138.632 68.2418 138.932 68.4075 139.026C68.5733 139.12 68.8349 138.972 68.9918 138.696Z" fill="#4D4F80"/>
</g>
<g style="mix-blend-mode:multiply" opacity="0.55">
<path d="M72.3102 136.78C72.4671 136.504 72.4599 136.203 72.2941 136.109C72.1283 136.015 71.8668 136.163 71.7099 136.439C71.553 136.715 71.5602 137.016 71.726 137.11C71.8917 137.204 72.1533 137.056 72.3102 136.78Z" fill="#4D4F80"/>
</g>
<g style="mix-blend-mode:multiply" opacity="0.55">
<path d="M75.736 134.969C75.8929 134.693 75.8856 134.393 75.7199 134.299C75.5541 134.205 75.2925 134.352 75.1357 134.629C74.9788 134.905 74.9859 135.205 75.1517 135.299C75.3175 135.393 75.5791 135.246 75.736 134.969Z" fill="#4D4F80"/>
</g>
<path d="M80.6573 135.915L77.8516 137.562V132.9L80.6573 131.332V135.915Z" fill="#4D4F80"/>
<path d="M80.6582 131.332V135.915" stroke="#F2F7FC" stroke-width="2" stroke-miterlimit="10"/>
</g>
<defs>
<linearGradient id="paint0_linear_1302_1829" x1="9.59135" y1="61.0808" x2="123.056" y2="97.0882" gradientUnits="userSpaceOnUse">
<stop offset="0.27" stop-color="#627BFD" stop-opacity="0"/>
<stop offset="0.34" stop-color="#627BFD" stop-opacity="0.05"/>
<stop offset="0.47" stop-color="#627BFD" stop-opacity="0.19"/>
<stop offset="0.64" stop-color="#627BFD" stop-opacity="0.41"/>
<stop offset="0.84" stop-color="#627BFD" stop-opacity="0.71"/>
<stop offset="1" stop-color="#627BFD" stop-opacity="0.96"/>
</linearGradient>
<linearGradient id="paint1_linear_1302_1829" x1="84.5389" y1="128.457" x2="84.5389" y2="103.238" gradientUnits="userSpaceOnUse">
<stop stop-color="#A3A9D3"/>
<stop offset="0.33" stop-color="#AEB4DA"/>
<stop offset="0.92" stop-color="#CDD1ED"/>
<stop offset="0.98" stop-color="#D0D4EF"/>
</linearGradient>
<linearGradient id="paint2_linear_1302_1829" x1="84.5389" y1="128.457" x2="84.5389" y2="103.238" gradientUnits="userSpaceOnUse">
<stop stop-color="#627BFD" stop-opacity="0.96"/>
<stop offset="0.15" stop-color="#627BFD" stop-opacity="0.84"/>
<stop offset="0.48" stop-color="#627BFD" stop-opacity="0.53"/>
<stop offset="0.95" stop-color="#627BFD" stop-opacity="0.05"/>
<stop offset="1" stop-color="#627BFD" stop-opacity="0"/>
</linearGradient>
<radialGradient id="paint3_radial_1302_1829" cx="0" cy="0" r="1" gradientUnits="userSpaceOnUse" gradientTransform="translate(99.8456 106.548) scale(24.5807)">
<stop stop-color="white"/>
<stop offset="0.02" stop-color="#F7F7F7"/>
<stop offset="0.13" stop-color="#BEBEBE"/>
<stop offset="0.25" stop-color="#8B8B8B"/>
<stop offset="0.37" stop-color="#606060"/>
<stop offset="0.49" stop-color="#3E3E3E"/>
<stop offset="0.62" stop-color="#232323"/>
<stop offset="0.74" stop-color="#0F0F0F"/>
<stop offset="0.87" stop-color="#040404"/>
<stop offset="1"/>
</radialGradient>
<linearGradient id="paint4_linear_1302_1829" x1="36172.5" y1="11283.2" x2="23657.8" y2="9297.6" gradientUnits="userSpaceOnUse">
<stop stop-color="#627BFD" stop-opacity="0.96"/>
<stop offset="0.15" stop-color="#627BFD" stop-opacity="0.84"/>
<stop offset="0.48" stop-color="#627BFD" stop-opacity="0.53"/>
<stop offset="0.95" stop-color="#627BFD" stop-opacity="0.05"/>
<stop offset="1" stop-color="#627BFD" stop-opacity="0"/>
</linearGradient>
<linearGradient id="paint5_linear_1302_1829" x1="115.706" y1="89.9984" x2="115.706" y2="20.2806" gradientUnits="userSpaceOnUse">
<stop offset="0.02" stop-color="#D0D4EF"/>
<stop offset="0.38" stop-color="#AFB5D7"/>
<stop offset="0.78" stop-color="#9099C2"/>
<stop offset="1" stop-color="#858EBA"/>
</linearGradient>
<linearGradient id="paint6_linear_1302_1829" x1="174892" y1="283902" x2="181415" y2="283902" gradientUnits="userSpaceOnUse">
<stop stop-color="#D5D8EF"/>
<stop offset="0.41" stop-color="#D9DBEF"/>
<stop offset="0.8" stop-color="#E4E5EF"/>
<stop offset="1" stop-color="#EDEDEF"/>
</linearGradient>
<linearGradient id="paint7_linear_1302_1829" x1="128.297" y1="102.047" x2="128.297" y2="32.3247" gradientUnits="userSpaceOnUse">
<stop stop-color="#627BFD" stop-opacity="0.96"/>
<stop offset="0.34" stop-color="#627BFD" stop-opacity="0.59"/>
<stop offset="0.66" stop-color="#627BFD" stop-opacity="0.27"/>
<stop offset="0.89" stop-color="#627BFD" stop-opacity="0.08"/>
<stop offset="1" stop-color="#627BFD" stop-opacity="0"/>
</linearGradient>
<radialGradient id="paint8_radial_1302_1829" cx="0" cy="0" r="1" gradientUnits="userSpaceOnUse" gradientTransform="translate(166071 64660.3) scale(2339.1 1396.77)">
<stop stop-color="white"/>
<stop offset="0.02" stop-color="#F7F7F7"/>
<stop offset="0.13" stop-color="#BEBEBE"/>
<stop offset="0.25" stop-color="#8B8B8B"/>
<stop offset="0.37" stop-color="#606060"/>
<stop offset="0.49" stop-color="#3E3E3E"/>
<stop offset="0.62" stop-color="#232323"/>
<stop offset="0.74" stop-color="#0F0F0F"/>
<stop offset="0.87" stop-color="#040404"/>
<stop offset="1"/>
</radialGradient>
<linearGradient id="paint9_linear_1302_1829" x1="124.415" y1="74.1732" x2="124.415" y2="42.0001" gradientUnits="userSpaceOnUse">
<stop stop-color="white"/>
<stop offset="1" stop-color="#627BFD"/>
</linearGradient>
<linearGradient id="paint10_linear_1302_1829" x1="97.4688" y1="86.8464" x2="118.433" y2="86.8464" gradientUnits="userSpaceOnUse">
<stop offset="0.02" stop-color="#D0D4EF"/>
<stop offset="0.08" stop-color="#CDD1ED"/>
<stop offset="0.67" stop-color="#AEB4DA"/>
<stop offset="1" stop-color="#A3A9D3"/>
</linearGradient>
<linearGradient id="paint11_linear_1302_1829" x1="15635.6" y1="7843.38" x2="15635.6" y2="4346.24" gradientUnits="userSpaceOnUse">
<stop offset="0.02" stop-color="#D0D4EF"/>
<stop offset="0.08" stop-color="#CDD1ED"/>
<stop offset="0.67" stop-color="#AEB4DA"/>
<stop offset="1" stop-color="#A3A9D3"/>
</linearGradient>
<linearGradient id="paint12_linear_1302_1829" x1="38813.4" y1="6308.66" x2="28581.8" y2="2076.55" gradientUnits="userSpaceOnUse">
<stop stop-color="#627BFD" stop-opacity="0.96"/>
<stop offset="0.15" stop-color="#627BFD" stop-opacity="0.84"/>
<stop offset="0.48" stop-color="#627BFD" stop-opacity="0.53"/>
<stop offset="0.95" stop-color="#627BFD" stop-opacity="0.05"/>
<stop offset="1" stop-color="#627BFD" stop-opacity="0"/>
</linearGradient>
<linearGradient id="paint13_linear_1302_1829" x1="157230" y1="85142.4" x2="174590" y2="79284.2" gradientUnits="userSpaceOnUse">
<stop offset="0.02" stop-color="#D0D4EF"/>
<stop offset="0.08" stop-color="#CDD1ED"/>
<stop offset="0.67" stop-color="#AEB4DA"/>
<stop offset="1" stop-color="#A3A9D3"/>
</linearGradient>
<linearGradient id="paint14_linear_1302_1829" x1="47.863" y1="97.9001" x2="131.93" y2="79.0557" gradientUnits="userSpaceOnUse">
<stop stop-color="#627BFD" stop-opacity="0"/>
<stop offset="0.04" stop-color="#627BFD" stop-opacity="0.16"/>
<stop offset="0.09" stop-color="#627BFD" stop-opacity="0.33"/>
<stop offset="0.14" stop-color="#627BFD" stop-opacity="0.48"/>
<stop offset="0.2" stop-color="#627BFD" stop-opacity="0.61"/>
<stop offset="0.26" stop-color="#627BFD" stop-opacity="0.72"/>
<stop offset="0.33" stop-color="#627BFD" stop-opacity="0.81"/>
<stop offset="0.41" stop-color="#627BFD" stop-opacity="0.88"/>
<stop offset="0.51" stop-color="#627BFD" stop-opacity="0.92"/>
<stop offset="0.65" stop-color="#627BFD" stop-opacity="0.95"/>
<stop offset="1" stop-color="#627BFD" stop-opacity="0.96"/>
</linearGradient>
<linearGradient id="paint15_linear_1302_1829" x1="115.394" y1="89.4823" x2="185.187" y2="68.5849" gradientUnits="userSpaceOnUse">
<stop stop-color="#D5D8EF"/>
<stop offset="0.32" stop-color="#D9DCF0"/>
<stop offset="0.62" stop-color="#E4E6F5"/>
<stop offset="0.91" stop-color="#F7F8FC"/>
<stop offset="1" stop-color="white"/>
</linearGradient>
<radialGradient id="paint16_radial_1302_1829" cx="0" cy="0" r="1" gradientUnits="userSpaceOnUse" gradientTransform="translate(45022.4 14085.3) scale(8976.52 3076.17)">
<stop stop-color="white"/>
<stop offset="0.02" stop-color="#F7F7F7"/>
<stop offset="0.13" stop-color="#BEBEBE"/>
<stop offset="0.25" stop-color="#8B8B8B"/>
<stop offset="0.37" stop-color="#606060"/>
<stop offset="0.49" stop-color="#3E3E3E"/>
<stop offset="0.62" stop-color="#232323"/>
<stop offset="0.74" stop-color="#0F0F0F"/>
<stop offset="0.87" stop-color="#040404"/>
<stop offset="1"/>
</radialGradient>
<linearGradient id="paint17_linear_1302_1829" x1="94.1626" y1="68.359" x2="102.976" y2="68.359" gradientUnits="userSpaceOnUse">
<stop stop-color="#343754"/>
<stop offset="0.24" stop-color="#C4C7E8"/>
<stop offset="0.32" stop-color="#9A9DC3"/>
<stop offset="0.41" stop-color="#797BA6"/>
<stop offset="0.48" stop-color="#616391"/>
<stop offset="0.55" stop-color="#525484"/>
<stop offset="0.61" stop-color="#4D4F80"/>
<stop offset="0.81" stop-color="#343754"/>
</linearGradient>
<linearGradient id="paint18_linear_1302_1829" x1="94.1197" y1="74.0716" x2="103.076" y2="74.0716" gradientUnits="userSpaceOnUse">
<stop offset="0.01" stop-color="#C4C7E8"/>
<stop offset="0.07" stop-color="#CED1EC"/>
<stop offset="0.16" stop-color="#E9EAF6"/>
<stop offset="0.22" stop-color="white"/>
<stop offset="0.26" stop-color="#F5F6FB"/>
<stop offset="0.32" stop-color="#DBDDF1"/>
<stop offset="0.36" stop-color="#C4C7E8"/>
<stop offset="0.41" stop-color="#9A9DC3"/>
<stop offset="0.47" stop-color="#797BA6"/>
<stop offset="0.52" stop-color="#616391"/>
<stop offset="0.57" stop-color="#525484"/>
<stop offset="0.61" stop-color="#4D4F80"/>
<stop offset="0.63" stop-color="#535585"/>
<stop offset="0.66" stop-color="#636593"/>
<stop offset="0.69" stop-color="#7D80AA"/>
<stop offset="0.72" stop-color="#A2A5CA"/>
<stop offset="0.74" stop-color="#C4C7E8"/>
<stop offset="1" stop-color="#AFB4D3"/>
</linearGradient>
<linearGradient id="paint19_linear_1302_1829" x1="130889" y1="71147" x2="131694" y2="70779.5" gradientUnits="userSpaceOnUse">
<stop stop-color="#343754"/>
<stop offset="0.24" stop-color="#C4C7E8"/>
<stop offset="0.32" stop-color="#9A9DC3"/>
<stop offset="0.41" stop-color="#797BA6"/>
<stop offset="0.48" stop-color="#616391"/>
<stop offset="0.55" stop-color="#525484"/>
<stop offset="0.61" stop-color="#4D4F80"/>
<stop offset="0.81" stop-color="#343754"/>
</linearGradient>
<linearGradient id="paint20_linear_1302_1829" x1="33.9075" y1="-78.8756" x2="33.9077" y2="-78.8757" gradientUnits="userSpaceOnUse">
<stop offset="0.04" stop-color="#9F19AB"/>
<stop offset="0.24" stop-color="#AE25B1"/>
<stop offset="0.65" stop-color="#D744BF"/>
<stop offset="1" stop-color="#FF63CE"/>
</linearGradient>
<linearGradient id="paint21_linear_1302_1829" x1="73361.8" y1="18549.6" x2="73901.3" y2="18303.3" gradientUnits="userSpaceOnUse">
<stop offset="0.01" stop-color="#C4C7E8"/>
<stop offset="0.07" stop-color="#CED1EC"/>
<stop offset="0.16" stop-color="#E9EAF6"/>
<stop offset="0.22" stop-color="white"/>
<stop offset="0.26" stop-color="#F5F6FB"/>
<stop offset="0.32" stop-color="#DBDDF1"/>
<stop offset="0.36" stop-color="#C4C7E8"/>
<stop offset="0.41" stop-color="#9A9DC3"/>
<stop offset="0.47" stop-color="#797BA6"/>
<stop offset="0.52" stop-color="#616391"/>
<stop offset="0.57" stop-color="#525484"/>
<stop offset="0.61" stop-color="#4D4F80"/>
<stop offset="0.63" stop-color="#535585"/>
<stop offset="0.66" stop-color="#636593"/>
<stop offset="0.69" stop-color="#7D80AA"/>
<stop offset="0.72" stop-color="#A2A5CA"/>
<stop offset="0.74" stop-color="#C4C7E8"/>
<stop offset="1" stop-color="#AFB4D3"/>
</linearGradient>
<linearGradient id="paint22_linear_1302_1829" x1="44.8667" y1="-98.5938" x2="44.8669" y2="-98.5939" gradientUnits="userSpaceOnUse">
<stop offset="0.04" stop-color="#9F19AB"/>
<stop offset="0.24" stop-color="#AE25B1"/>
<stop offset="0.65" stop-color="#D744BF"/>
<stop offset="1" stop-color="#FF63CE"/>
</linearGradient>
<linearGradient id="paint23_linear_1302_1829" x1="22728.8" y1="36045" x2="23522" y2="36650.1" gradientUnits="userSpaceOnUse">
<stop stop-color="#343754"/>
<stop offset="0.24" stop-color="#C4C7E8"/>
<stop offset="0.32" stop-color="#9A9DC3"/>
<stop offset="0.41" stop-color="#797BA6"/>
<stop offset="0.48" stop-color="#616391"/>
<stop offset="0.55" stop-color="#525484"/>
<stop offset="0.61" stop-color="#4D4F80"/>
<stop offset="0.81" stop-color="#343754"/>
</linearGradient>
<linearGradient id="paint24_linear_1302_1829" x1="187.702" y1="743.047" x2="187.702" y2="743.047" gradientUnits="userSpaceOnUse">
<stop offset="0.04" stop-color="#9F19AB"/>
<stop offset="0.24" stop-color="#AE25B1"/>
<stop offset="0.65" stop-color="#D744BF"/>
<stop offset="1" stop-color="#FF63CE"/>
</linearGradient>
<linearGradient id="paint25_linear_1302_1829" x1="13387.7" y1="19590.2" x2="13837.6" y2="19933.4" gradientUnits="userSpaceOnUse">
<stop offset="0.01" stop-color="#C4C7E8"/>
<stop offset="0.07" stop-color="#CED1EC"/>
<stop offset="0.16" stop-color="#E9EAF6"/>
<stop offset="0.22" stop-color="white"/>
<stop offset="0.26" stop-color="#F5F6FB"/>
<stop offset="0.32" stop-color="#DBDDF1"/>
<stop offset="0.36" stop-color="#C4C7E8"/>
<stop offset="0.41" stop-color="#9A9DC3"/>
<stop offset="0.47" stop-color="#797BA6"/>
<stop offset="0.52" stop-color="#616391"/>
<stop offset="0.57" stop-color="#525484"/>
<stop offset="0.61" stop-color="#4D4F80"/>
<stop offset="0.63" stop-color="#535585"/>
<stop offset="0.66" stop-color="#636593"/>
<stop offset="0.69" stop-color="#7D80AA"/>
<stop offset="0.72" stop-color="#A2A5CA"/>
<stop offset="0.74" stop-color="#C4C7E8"/>
<stop offset="1" stop-color="#AFB4D3"/>
</linearGradient>
<linearGradient id="paint26_linear_1302_1829" x1="192.485" y1="758.278" x2="192.485" y2="758.278" gradientUnits="userSpaceOnUse">
<stop offset="0.04" stop-color="#9F19AB"/>
<stop offset="0.24" stop-color="#AE25B1"/>
<stop offset="0.65" stop-color="#D744BF"/>
<stop offset="1" stop-color="#FF63CE"/>
</linearGradient>
<radialGradient id="paint27_radial_1302_1829" cx="0" cy="0" r="1" gradientUnits="userSpaceOnUse" gradientTransform="translate(96.8533 50.3483) scale(16.9883)">
<stop stop-color="#7D83AF"/>
<stop offset="1" stop-color="#4D4F80"/>
</radialGradient>
<linearGradient id="paint28_linear_1302_1829" x1="84.3833" y1="46.8065" x2="112.875" y2="46.8065" gradientUnits="userSpaceOnUse">
<stop offset="0.03" stop-color="#4D4F80"/>
<stop offset="0.2" stop-color="#5B5E8E"/>
<stop offset="0.5" stop-color="#7D83AF"/>
<stop offset="0.87" stop-color="#4D4F80"/>
</linearGradient>
<linearGradient id="paint29_linear_1302_1829" x1="102.09" y1="54.1738" x2="110.137" y2="54.1738" gradientUnits="userSpaceOnUse">
<stop offset="0.02" stop-color="white" stop-opacity="0"/>
<stop offset="0.47" stop-color="white"/>
<stop offset="0.51" stop-color="white" stop-opacity="0.97"/>
<stop offset="0.58" stop-color="white" stop-opacity="0.9"/>
<stop offset="0.66" stop-color="white" stop-opacity="0.78"/>
<stop offset="0.75" stop-color="white" stop-opacity="0.61"/>
<stop offset="0.85" stop-color="white" stop-opacity="0.39"/>
<stop offset="0.95" stop-color="white" stop-opacity="0.13"/>
<stop offset="1" stop-color="white" stop-opacity="0"/>
</linearGradient>
<linearGradient id="paint30_linear_1302_1829" x1="86.1172" y1="53.0371" x2="94.1629" y2="53.0371" gradientUnits="userSpaceOnUse">
<stop stop-color="#627BFD" stop-opacity="0"/>
<stop offset="0.02" stop-color="#627BFD" stop-opacity="0.05"/>
<stop offset="0.28" stop-color="#627BFD" stop-opacity="0.53"/>
<stop offset="0.45" stop-color="#627BFD" stop-opacity="0.84"/>
<stop offset="0.53" stop-color="#627BFD" stop-opacity="0.96"/>
<stop offset="0.99" stop-color="#627BFD" stop-opacity="0"/>
</linearGradient>
<linearGradient id="paint31_linear_1302_1829" x1="123.968" y1="500.041" x2="123.968" y2="500.041" gradientUnits="userSpaceOnUse">
<stop offset="0.06" stop-color="#838FC7"/>
<stop offset="0.26" stop-color="#8590C8"/>
<stop offset="0.36" stop-color="#8D94CB"/>
<stop offset="0.44" stop-color="#9A9ACF"/>
<stop offset="0.49" stop-color="#A9A1D5"/>
<stop offset="0.59" stop-color="#ADA5D7"/>
<stop offset="0.7" stop-color="#B9B3DD"/>
<stop offset="0.81" stop-color="#CDC8E7"/>
<stop offset="0.92" stop-color="#E9E7F4"/>
<stop offset="1" stop-color="white"/>
</linearGradient>
<linearGradient id="paint32_linear_1302_1829" x1="107.476" y1="22.4499" x2="90.1232" y2="49.67" gradientUnits="userSpaceOnUse">
<stop offset="0.04" stop-color="#4D4F80"/>
<stop offset="0.38" stop-color="#5B5E8E"/>
<stop offset="1" stop-color="#7D83AF"/>
</linearGradient>
<radialGradient id="paint33_radial_1302_1829" cx="0" cy="0" r="1" gradientUnits="userSpaceOnUse" gradientTransform="translate(164162 33056.6) scale(2227.03 652.229)">
<stop stop-color="white"/>
<stop offset="0.02" stop-color="#F7F7F7"/>
<stop offset="0.13" stop-color="#BEBEBE"/>
<stop offset="0.25" stop-color="#8B8B8B"/>
<stop offset="0.37" stop-color="#606060"/>
<stop offset="0.49" stop-color="#3E3E3E"/>
<stop offset="0.62" stop-color="#232323"/>
<stop offset="0.74" stop-color="#0F0F0F"/>
<stop offset="0.87" stop-color="#040404"/>
<stop offset="1"/>
</radialGradient>
<linearGradient id="paint34_linear_1302_1829" x1="89.4442" y1="24.5651" x2="107.878" y2="24.5651" gradientUnits="userSpaceOnUse">
<stop offset="0.01" stop-color="#C4C7E8"/>
<stop offset="0.07" stop-color="#CED1EC"/>
<stop offset="0.16" stop-color="#E9EAF6"/>
<stop offset="0.22" stop-color="white"/>
<stop offset="0.26" stop-color="#F5F6FB"/>
<stop offset="0.32" stop-color="#DBDDF1"/>
<stop offset="0.36" stop-color="#C4C7E8"/>
<stop offset="0.41" stop-color="#9A9DC3"/>
<stop offset="0.47" stop-color="#797BA6"/>
<stop offset="0.52" stop-color="#616391"/>
<stop offset="0.57" stop-color="#525484"/>
<stop offset="0.61" stop-color="#4D4F80"/>
<stop offset="0.66" stop-color="#535585"/>
<stop offset="0.71" stop-color="#636593"/>
<stop offset="0.78" stop-color="#7D80AA"/>
<stop offset="0.85" stop-color="#A2A5CA"/>
<stop offset="0.9" stop-color="#C4C7E8"/>
<stop offset="1" stop-color="#AFB4D3"/>
</linearGradient>
<linearGradient id="paint35_linear_1302_1829" x1="98.7195" y1="18.5378" x2="98.7195" y2="-1.19663" gradientUnits="userSpaceOnUse">
<stop stop-color="white"/>
<stop offset="1"/>
</linearGradient>
<linearGradient id="paint36_linear_1302_1829" x1="12426.8" y1="269.661" x2="13773.6" y2="1604.97" gradientUnits="userSpaceOnUse">
<stop offset="0.06" stop-color="#838FC7"/>
<stop offset="0.26" stop-color="#8590C8"/>
<stop offset="0.36" stop-color="#8D94CB"/>
<stop offset="0.44" stop-color="#9A9ACF"/>
<stop offset="0.49" stop-color="#A9A1D5"/>
<stop offset="0.59" stop-color="#ADA5D7"/>
<stop offset="0.7" stop-color="#B9B3DD"/>
<stop offset="0.81" stop-color="#CDC8E7"/>
<stop offset="0.92" stop-color="#E9E7F4"/>
<stop offset="1" stop-color="white"/>
</linearGradient>
<linearGradient id="paint37_linear_1302_1829" x1="118123" y1="32751.3" x2="121241" y2="32751.3" gradientUnits="userSpaceOnUse">
<stop offset="0.01" stop-color="#C4C7E8"/>
<stop offset="0.07" stop-color="#CED1EC"/>
<stop offset="0.16" stop-color="#E9EAF6"/>
<stop offset="0.22" stop-color="white"/>
<stop offset="0.26" stop-color="#F5F6FB"/>
<stop offset="0.32" stop-color="#DBDDF1"/>
<stop offset="0.36" stop-color="#C4C7E8"/>
<stop offset="0.41" stop-color="#9A9DC3"/>
<stop offset="0.47" stop-color="#797BA6"/>
<stop offset="0.52" stop-color="#616391"/>
<stop offset="0.57" stop-color="#525484"/>
<stop offset="0.61" stop-color="#4D4F80"/>
<stop offset="0.66" stop-color="#535585"/>
<stop offset="0.71" stop-color="#636593"/>
<stop offset="0.78" stop-color="#7D80AA"/>
<stop offset="0.85" stop-color="#A2A5CA"/>
<stop offset="0.9" stop-color="#C4C7E8"/>
<stop offset="1" stop-color="#AFB4D3"/>
</linearGradient>
<linearGradient id="paint38_linear_1302_1829" x1="90.4269" y1="1.31333" x2="107.013" y2="10.8894" gradientUnits="userSpaceOnUse">
<stop stop-color="#4D4F80"/>
<stop offset="0.09" stop-color="#535686"/>
<stop offset="0.21" stop-color="#666896"/>
<stop offset="0.35" stop-color="#8386B0"/>
<stop offset="0.5" stop-color="#ADAFD4"/>
<stop offset="0.58" stop-color="#C4C7E8"/>
<stop offset="0.78" stop-color="#D4D0EC"/>
<stop offset="1" stop-color="#EBDEF3"/>
</linearGradient>
<radialGradient id="paint39_radial_1302_1829" cx="0" cy="0" r="1" gradientUnits="userSpaceOnUse" gradientTransform="translate(119152 23122.5) scale(1169.75 352.309)">
<stop stop-color="white"/>
<stop offset="0.02" stop-color="#F7F7F7"/>
<stop offset="0.13" stop-color="#BEBEBE"/>
<stop offset="0.25" stop-color="#8B8B8B"/>
<stop offset="0.37" stop-color="#606060"/>
<stop offset="0.49" stop-color="#3E3E3E"/>
<stop offset="0.62" stop-color="#232323"/>
<stop offset="0.74" stop-color="#0F0F0F"/>
<stop offset="0.87" stop-color="#040404"/>
<stop offset="1"/>
</radialGradient>
<linearGradient id="paint40_linear_1302_1829" x1="106.507" y1="6.10144" x2="86.545" y2="6.10144" gradientUnits="userSpaceOnUse">
<stop offset="0.01" stop-color="#C4C7E8"/>
<stop offset="0.07" stop-color="#CED1EC"/>
<stop offset="0.16" stop-color="#E9EAF6"/>
<stop offset="0.22" stop-color="white"/>
<stop offset="0.26" stop-color="#F5F6FB"/>
<stop offset="0.32" stop-color="#DBDDF1"/>
<stop offset="0.36" stop-color="#C4C7E8"/>
<stop offset="0.41" stop-color="#9A9DC3"/>
<stop offset="0.47" stop-color="#797BA6"/>
<stop offset="0.52" stop-color="#616391"/>
<stop offset="0.57" stop-color="#525484"/>
<stop offset="0.61" stop-color="#4D4F80"/>
<stop offset="0.67" stop-color="#585A89"/>
<stop offset="0.78" stop-color="#7577A3"/>
<stop offset="0.91" stop-color="#A3A6CB"/>
<stop offset="1" stop-color="#C4C7E8"/>
</linearGradient>
<linearGradient id="paint41_linear_1302_1829" x1="92.7878" y1="1.60198" x2="97.4844" y2="6.47181" gradientUnits="userSpaceOnUse">
<stop stop-color="#627BFD"/>
<stop offset="1"/>
</linearGradient>
<radialGradient id="paint42_radial_1302_1829" cx="0" cy="0" r="1" gradientUnits="userSpaceOnUse" gradientTransform="translate(94.1204 15.4312) scale(3.98037 17.6629)">
<stop stop-color="#C4C7E8"/>
<stop offset="0.09" stop-color="#9FA2BD"/>
<stop offset="0.22" stop-color="#76778B"/>
<stop offset="0.34" stop-color="#515360"/>
<stop offset="0.47" stop-color="#34353E"/>
<stop offset="0.6" stop-color="#1D1E23"/>
<stop offset="0.73" stop-color="#0D0D0F"/>
<stop offset="0.86" stop-color="#030304"/>
<stop offset="1"/>
</radialGradient>
<radialGradient id="paint43_radial_1302_1829" cx="0" cy="0" r="1" gradientUnits="userSpaceOnUse" gradientTransform="translate(100.92 82.4532) scale(4.76622)">
<stop stop-color="#2AF6FF"/>
<stop offset="1" stop-color="#138BBD"/>
</radialGradient>
<radialGradient id="paint44_radial_1302_1829" cx="0" cy="0" r="1" gradientUnits="userSpaceOnUse" gradientTransform="translate(104.133 87.3537) scale(7.52443)">
<stop stop-color="#F49587"/>
<stop offset="0.12" stop-color="#BD7368"/>
<stop offset="0.24" stop-color="#8B554D"/>
<stop offset="0.36" stop-color="#603B35"/>
<stop offset="0.48" stop-color="#3E2622"/>
<stop offset="0.61" stop-color="#231513"/>
<stop offset="0.74" stop-color="#0F0908"/>
<stop offset="0.86" stop-color="#040202"/>
<stop offset="1"/>
</radialGradient>
<radialGradient id="paint45_radial_1302_1829" cx="0" cy="0" r="1" gradientUnits="userSpaceOnUse" gradientTransform="translate(24215.5 10601.9) scale(97.4083)">
<stop stop-color="#F49587"/>
<stop offset="0.12" stop-color="#BD7368"/>
<stop offset="0.24" stop-color="#8B554D"/>
<stop offset="0.36" stop-color="#603B35"/>
<stop offset="0.48" stop-color="#3E2622"/>
<stop offset="0.61" stop-color="#231513"/>
<stop offset="0.74" stop-color="#0F0908"/>
<stop offset="0.86" stop-color="#040202"/>
<stop offset="1"/>
</radialGradient>
<linearGradient id="paint46_linear_1302_1829" x1="91.2253" y1="84.255" x2="101.557" y2="84.255" gradientUnits="userSpaceOnUse">
<stop stop-color="#627BFD" stop-opacity="0"/>
<stop offset="0.05" stop-color="#627BFD" stop-opacity="0.05"/>
<stop offset="0.52" stop-color="#627BFD" stop-opacity="0.53"/>
<stop offset="0.85" stop-color="#627BFD" stop-opacity="0.84"/>
<stop offset="1" stop-color="#627BFD" stop-opacity="0.96"/>
</linearGradient>
<radialGradient id="paint47_radial_1302_1829" cx="0" cy="0" r="1" gradientUnits="userSpaceOnUse" gradientTransform="translate(97.3427 80.8881) scale(2.90832)">
<stop stop-color="#F7EAD2"/>
<stop offset="1" stop-color="#FF7F0B"/>
</radialGradient>
<linearGradient id="paint48_linear_1302_1829" x1="82.9053" y1="129.624" x2="65.0631" y2="129.624" gradientUnits="userSpaceOnUse">
<stop stop-color="#627BFD" stop-opacity="0.2"/>
<stop offset="0.1" stop-color="#627BFD" stop-opacity="0.23"/>
<stop offset="0.26" stop-color="#627BFD" stop-opacity="0.31"/>
<stop offset="0.46" stop-color="#627BFD" stop-opacity="0.45"/>
<stop offset="0.68" stop-color="#627BFD" stop-opacity="0.64"/>
<stop offset="0.93" stop-color="#627BFD" stop-opacity="0.88"/>
<stop offset="1" stop-color="#627BFD" stop-opacity="0.96"/>
</linearGradient>
<linearGradient id="paint49_linear_1302_1829" x1="99830.8" y1="49756.9" x2="102127" y2="49756.9" gradientUnits="userSpaceOnUse">
<stop stop-color="#627BFD" stop-opacity="0.2"/>
<stop offset="0.1" stop-color="#627BFD" stop-opacity="0.23"/>
<stop offset="0.26" stop-color="#627BFD" stop-opacity="0.31"/>
<stop offset="0.46" stop-color="#627BFD" stop-opacity="0.45"/>
<stop offset="0.68" stop-color="#627BFD" stop-opacity="0.64"/>
<stop offset="0.93" stop-color="#627BFD" stop-opacity="0.88"/>
<stop offset="1" stop-color="#627BFD" stop-opacity="0.96"/>
</linearGradient>
<linearGradient id="paint50_linear_1302_1829" x1="99830.8" y1="49757" x2="102127" y2="49757" gradientUnits="userSpaceOnUse">
<stop stop-color="#627BFD" stop-opacity="0.2"/>
<stop offset="0.1" stop-color="#627BFD" stop-opacity="0.23"/>
<stop offset="0.26" stop-color="#627BFD" stop-opacity="0.31"/>
<stop offset="0.46" stop-color="#627BFD" stop-opacity="0.45"/>
<stop offset="0.68" stop-color="#627BFD" stop-opacity="0.64"/>
<stop offset="0.93" stop-color="#627BFD" stop-opacity="0.88"/>
<stop offset="1" stop-color="#627BFD" stop-opacity="0.96"/>
</linearGradient>
<linearGradient id="paint51_linear_1302_1829" x1="99830.8" y1="50675.6" x2="102127" y2="50675.6" gradientUnits="userSpaceOnUse">
<stop stop-color="#627BFD" stop-opacity="0.2"/>
<stop offset="0.1" stop-color="#627BFD" stop-opacity="0.23"/>
<stop offset="0.26" stop-color="#627BFD" stop-opacity="0.31"/>
<stop offset="0.46" stop-color="#627BFD" stop-opacity="0.45"/>
<stop offset="0.68" stop-color="#627BFD" stop-opacity="0.64"/>
<stop offset="0.93" stop-color="#627BFD" stop-opacity="0.88"/>
<stop offset="1" stop-color="#627BFD" stop-opacity="0.96"/>
</linearGradient>
<linearGradient id="paint52_linear_1302_1829" x1="-136646" y1="35244.2" x2="-140446" y2="35244.2" gradientUnits="userSpaceOnUse">
<stop offset="0.01" stop-color="#C4C7E8"/>
<stop offset="0.07" stop-color="#CED1EC"/>
<stop offset="0.16" stop-color="#E9EAF6"/>
<stop offset="0.22" stop-color="white"/>
<stop offset="0.26" stop-color="#F5F6FB"/>
<stop offset="0.32" stop-color="#DBDDF1"/>
<stop offset="0.36" stop-color="#C4C7E8"/>
<stop offset="0.41" stop-color="#9A9DC3"/>
<stop offset="0.47" stop-color="#797BA6"/>
<stop offset="0.52" stop-color="#616391"/>
<stop offset="0.57" stop-color="#525484"/>
<stop offset="0.61" stop-color="#4D4F80"/>
<stop offset="0.66" stop-color="#535585"/>
<stop offset="0.71" stop-color="#636593"/>
<stop offset="0.78" stop-color="#7D80AA"/>
<stop offset="0.85" stop-color="#A2A5CA"/>
<stop offset="0.9" stop-color="#C4C7E8"/>
<stop offset="1" stop-color="#AFB4D3"/>
</linearGradient>
<radialGradient id="paint53_radial_1302_1829" cx="0" cy="0" r="1" gradientUnits="userSpaceOnUse" gradientTransform="translate(-136678 30020.6) rotate(180) scale(1424.12 422.005)">
<stop stop-color="white"/>
<stop offset="1"/>
</radialGradient>
<linearGradient id="paint54_linear_1302_1829" x1="55.9162" y1="100.361" x2="73.7875" y2="100.361" gradientUnits="userSpaceOnUse">
<stop stop-color="#7D83AF"/>
<stop offset="0.08" stop-color="#7881BE"/>
<stop offset="0.24" stop-color="#6A7DE7"/>
<stop offset="0.32" stop-color="#627BFD"/>
<stop offset="0.61" stop-color="#4D4F80"/>
<stop offset="0.83" stop-color="#7D83AF"/>
<stop offset="0.99" stop-color="#4D4F80"/>
</linearGradient>
<linearGradient id="paint55_linear_1302_1829" x1="64.8501" y1="107.389" x2="64.8501" y2="73.3959" gradientUnits="userSpaceOnUse">
<stop stop-color="#627BFD"/>
<stop offset="0.04" stop-color="#627BFD" stop-opacity="0.95"/>
<stop offset="0.25" stop-color="#627BFD" stop-opacity="0.66"/>
<stop offset="0.44" stop-color="#627BFD" stop-opacity="0.43"/>
<stop offset="0.62" stop-color="#627BFD" stop-opacity="0.24"/>
<stop offset="0.78" stop-color="#627BFD" stop-opacity="0.11"/>
<stop offset="0.91" stop-color="#627BFD" stop-opacity="0.03"/>
<stop offset="1" stop-color="#627BFD" stop-opacity="0"/>
</linearGradient>
<clipPath id="clip0_1302_1829">
<rect width="147.307" height="145" fill="white"/>
</clipPath>
</defs>
</svg>
