<svg width="168" height="132" viewBox="0 0 168 132" fill="none" xmlns="http://www.w3.org/2000/svg">
<g clip-path="url(#clip0_1281_2457)">
<path d="M16.8203 77.1642L89.9952 35.0762L144.457 66.5206L130.879 74.5621L166.928 95.3062" stroke="url(#paint0_linear_1281_2457)" stroke-width="10" stroke-linecap="round" stroke-linejoin="round"/>
<path style="mix-blend-mode:multiply" opacity="0.75" d="M60.6376 132.001L37.3927 124.795L37.3262 112.098L73.8804 124.355L60.6376 132.001Z" fill="url(#paint1_linear_1281_2457)"/>
<path style="mix-blend-mode:multiply" opacity="0.6" d="M57.2594 115.263L0.0817457 97.2023L0 81.6055L73.5268 105.87L57.2594 115.263Z" fill="url(#paint2_linear_1281_2457)"/>
<path style="mix-blend-mode:multiply" opacity="0.6" d="M78.402 103.194L21.2243 85.1339L21.1426 69.5371L94.6681 93.8031L78.402 103.194Z" fill="url(#paint3_linear_1281_2457)"/>
<path style="mix-blend-mode:multiply" opacity="0.6" d="M99.1715 90.7235L41.9952 72.6632L41.9121 57.0664L115.439 81.331L99.1715 90.7235Z" fill="url(#paint4_linear_1281_2457)"/>
<path d="M116.148 81.2824L99.7832 91.3842V19.5685L116.148 10.1387V81.2824Z" fill="#DCE6F4"/>
<path d="M83.4199 81.935L99.7843 91.3842V19.5685L83.4199 10.1387V81.935Z" fill="url(#paint5_linear_1281_2457)"/>
<path d="M116.149 10.1388L99.7843 0.708984L83.4199 10.1388L99.7843 19.5687L116.149 10.1388Z" fill="#F3F7FF"/>
<path d="M116.149 10.1388L99.7843 0.708984L83.4199 10.1388L99.7843 19.5687L116.149 10.1388Z" fill="#F3F7FF"/>
<path opacity="0.6" d="M83.4199 13.2383L99.7843 23.1254L116.149 13.7606" stroke="#7D83AF" stroke-width="0.75" stroke-miterlimit="10"/>
<path d="M116.264 9.42986L99.8996 0L83.5352 9.42986L99.8996 18.8597L116.264 9.42986Z" fill="#8FA4F7"/>
<path d="M99.9004 18.8595V21.4477L116.265 12.0414V9.42969L99.9004 18.8595Z" fill="#8FA4F7"/>
<g style="mix-blend-mode:multiply">
<path d="M99.9004 18.8595V21.4477L116.265 12.0414V9.42969L99.9004 18.8595Z" fill="#DCE6F4"/>
</g>
<path d="M99.8996 18.8595V21.4477L83.5352 12.0414V9.42969L99.8996 18.8595Z" fill="#8FA4F7"/>
<path style="mix-blend-mode:multiply" d="M99.8996 18.8595V21.4477L83.5352 12.0414V9.42969L99.8996 18.8595Z" fill="url(#paint6_linear_1281_2457)"/>
<path d="M99.9474 29.8877V34.5209L88.0098 27.6279V23.0391L99.9474 29.8877ZM88.0098 34.3837L99.9474 41.2795V36.6435L88.0098 29.7949V34.3837ZM88.0098 41.1617L99.9474 48.0547V43.4215L88.0098 36.5687V41.1617Z" fill="url(#paint7_linear_1281_2457)"/>
<g style="mix-blend-mode:multiply" opacity="0.42">
<g style="mix-blend-mode:multiply" opacity="0.42">
<path d="M88.0098 37.1035L99.9474 43.9535V43.4242L88.0098 36.5742V37.1035Z" fill="#4D4F80"/>
</g>
<g style="mix-blend-mode:multiply" opacity="0.42">
<path d="M88.0098 23.0391V23.5683L99.9474 30.4183V29.8891L88.0098 23.0391Z" fill="#4D4F80"/>
</g>
<g style="mix-blend-mode:multiply" opacity="0.42">
<path d="M88.0098 30.3242L99.9474 37.1742V36.6449L88.0098 29.7949V30.3242Z" fill="#4D4F80"/>
</g>
</g>
<path d="M99.9238 48.0839V43.4965L111.861 36.6035V41.2353L99.9238 48.0839ZM111.861 34.4781V29.8463L99.9238 36.7393V41.3281L111.861 34.4781ZM111.861 27.7015V23.0684L99.9238 29.9613V34.5502L111.861 27.7015Z" fill="url(#paint8_linear_1281_2457)"/>
<path d="M88.0098 23.0391V27.6293L99.9239 34.55" stroke="white" stroke-width="1.74" stroke-miterlimit="10"/>
<path d="M88.0098 29.7812V34.3701L99.9239 41.2922" stroke="white" stroke-width="1.74" stroke-miterlimit="10"/>
<path d="M88.0098 36.5879V41.1767L99.9239 48.0988" stroke="white" stroke-width="1.74" stroke-miterlimit="10"/>
<path d="M111.885 23.0391V27.6293L99.9707 34.55" stroke="white" stroke-width="1.74" stroke-miterlimit="10"/>
<path d="M111.885 29.7812V34.3701L99.9707 41.2922" stroke="white" stroke-width="1.74" stroke-miterlimit="10"/>
<path d="M111.885 36.5879V41.1767L99.9707 48.0988" stroke="white" stroke-width="1.74" stroke-miterlimit="10"/>
<path style="mix-blend-mode:multiply" opacity="0.5" d="M105.644 111.752L91.2919 108.703C91.2919 108.703 83.7519 106.974 79.3972 105.356C75.0425 103.738 64.1855 98.3245 64.1855 98.3245C64.1855 98.3245 72.7619 94.1374 73.0529 94.3286C73.3438 94.5198 82.0588 97.0207 85.948 98.9646C89.8371 100.908 109.47 108.514 109.47 108.514L105.644 111.752Z" fill="url(#paint9_linear_1281_2457)"/>
<path d="M94.8325 93.8352L78.4668 103.283V47.9689L94.8325 38.5391V93.8352Z" fill="#DCE6F4"/>
<path style="mix-blend-mode:multiply" opacity="0.6" d="M97.7581 107.873L90.6075 56.8652C90.5929 56.7774 90.5446 56.6987 90.4728 56.6461C90.4011 56.5935 90.3115 56.571 90.2234 56.5834C90.1353 56.5959 90.0555 56.6424 90.0012 56.7129C89.9469 56.7834 89.9223 56.8724 89.9327 56.9608L91.163 65.7339L83.2185 69.1714L81.9923 60.4204C81.9875 60.375 81.9736 60.3309 81.9514 60.2909C81.9292 60.251 81.8993 60.2158 81.8632 60.1877C81.8272 60.1595 81.7859 60.1389 81.7417 60.1271C81.6976 60.1152 81.6514 60.1124 81.6062 60.1187C81.5609 60.125 81.5174 60.1404 81.4782 60.1639C81.439 60.1874 81.4048 60.2185 81.3779 60.2555C81.351 60.2924 81.3317 60.3344 81.3214 60.3789C81.311 60.4234 81.3097 60.4696 81.3176 60.5146L88.4682 111.525C88.4787 111.6 88.5136 111.669 88.5675 111.722C88.6214 111.774 88.6913 111.808 88.7661 111.816C88.7946 111.82 88.8235 111.82 88.852 111.816C88.9415 111.804 89.0223 111.757 89.0769 111.685C89.1314 111.613 89.1552 111.522 89.143 111.433L87.8586 102.276L95.8032 98.8396L97.0833 107.972C97.0936 108.046 97.1285 108.115 97.1825 108.168C97.2364 108.221 97.3064 108.254 97.3813 108.262C97.4098 108.267 97.4386 108.267 97.4671 108.262C97.512 108.256 97.5551 108.241 97.5941 108.218C97.6331 108.196 97.6672 108.165 97.6942 108.129C97.7213 108.093 97.7409 108.051 97.7519 108.007C97.7628 107.964 97.765 107.918 97.7581 107.873ZM93.4865 82.3047L94.5395 89.8254L86.5963 93.2615L85.5475 85.7408L93.4865 82.3047ZM85.4436 85.0411L84.4488 77.9417L92.3934 74.5057L93.3882 81.6051L85.4436 85.0411ZM91.2628 66.4336L92.2964 73.806L84.3518 77.2434L83.3182 69.8697L91.2628 66.4336ZM87.7644 101.572L86.6975 93.9611L94.6421 90.5251L95.7089 98.1357L87.7644 101.572Z" fill="url(#paint10_linear_1281_2457)"/>
<path style="mix-blend-mode:multiply" opacity="0.2" d="M85.9445 98.9657L78.4668 83.7402V103.282L85.9445 98.9657Z" fill="url(#paint11_linear_1281_2457)"/>
<path d="M62.1016 93.8352L78.466 103.283V47.9689L62.1016 38.5391V93.8352Z" fill="url(#paint12_linear_1281_2457)"/>
<path d="M94.8317 38.5373L78.4659 29.1074L62.1016 38.5373L78.4659 47.9671L94.8317 38.5373Z" fill="#F3F7FF"/>
<path d="M94.8317 38.5373L78.4659 29.1074L62.1016 38.5373L78.4659 47.9671L94.8317 38.5373Z" fill="#F3F7FF"/>
<path opacity="0.6" d="M62.1016 41.6367L78.4659 51.5238L94.8317 42.1591" stroke="#7D83AF" stroke-width="0.75" stroke-miterlimit="10"/>
<path d="M73.7076 106.102L57.3418 115.551V81.4885L73.7076 72.0586V106.102Z" fill="#DCE6F4"/>
<path d="M40.9766 106.102L57.341 115.551V81.4885L40.9766 72.0586V106.102Z" fill="url(#paint13_linear_1281_2457)"/>
<path d="M73.7067 72.0588L57.341 62.6289L40.9766 72.0588L57.341 81.4886L73.7067 72.0588Z" fill="#F3F7FF"/>
<path d="M73.7067 72.0588L57.341 62.6289L40.9766 72.0588L57.341 81.4886L73.7067 72.0588Z" fill="#F3F7FF"/>
<path opacity="0.6" d="M40.9766 77.7578L57.341 87.6449L73.7067 78.2802" stroke="#7D83AF" stroke-width="0.75" stroke-miterlimit="10"/>
<path d="M73.9735 124.287L60.8027 131.89V116.643L73.9735 109.053V124.287Z" fill="#F9923E"/>
<path d="M47.6328 124.287L60.8036 131.89V116.643L47.6328 109.053V124.287Z" fill="#FF7F0B"/>
<path d="M73.9743 109.053L60.8036 101.465L47.6328 109.053L60.8036 116.643L73.9743 109.053Z" fill="#F3F7FF"/>
<path d="M73.9743 109.053L60.8036 101.465L47.6328 109.053L60.8036 116.643L73.9743 109.053Z" fill="#FFA766"/>
<path d="M47.6328 111.547L60.8036 119.504L73.9743 111.967" stroke="white" stroke-miterlimit="10"/>
<path d="M81.7148 60.2676L94.6875 110.113" stroke="#7D83AF" stroke-width="4" stroke-linecap="round" stroke-linejoin="round"/>
<path d="M89.8652 55.7441L102.836 105.591" stroke="#7D83AF" stroke-width="4" stroke-linecap="round" stroke-linejoin="round"/>
<path d="M73.8825 72.176L57.5181 62.7461L41.1523 72.176L57.5181 81.6058L73.8825 72.176Z" fill="#8FA4F7"/>
<path d="M57.5176 81.6076V84.1958L73.882 74.7894V72.1777L57.5176 81.6076Z" fill="#8FA4F7"/>
<g style="mix-blend-mode:multiply">
<path d="M57.5176 81.6076V84.1958L73.882 74.7894V72.1777L57.5176 81.6076Z" fill="#DCE6F4"/>
</g>
<path d="M57.5181 81.6076V84.1958L41.1523 74.7894V72.1777L57.5181 81.6076Z" fill="#8FA4F7"/>
<path style="mix-blend-mode:multiply" d="M57.5181 81.6076V84.1958L41.1523 74.7894V72.1777L57.5181 81.6076Z" fill="url(#paint14_linear_1281_2457)"/>
<path d="M83.9102 69.3321L92.0168 64.6504" stroke="#7D83AF" stroke-width="4" stroke-miterlimit="10"/>
<path d="M92.2949 100.912L100.403 96.2305" stroke="#7D83AF" stroke-width="4" stroke-miterlimit="10"/>
<path d="M87.9629 84.8326L96.0696 80.1523" stroke="#7D83AF" stroke-width="4" stroke-miterlimit="10"/>
<path d="M85.9453 77.233L94.052 72.5527" stroke="#7D83AF" stroke-width="4" stroke-miterlimit="10"/>
<path d="M89.9648 92.9161L98.0729 88.2344" stroke="#7D83AF" stroke-width="4" stroke-miterlimit="10"/>
<path d="M62.0269 92.1504L59.5801 93.4445V89.1133L62.0269 87.707V92.1504Z" fill="#4D4F80"/>
<path opacity="0.42" d="M59.5801 93.4445V92.9235L61.6306 91.8442V87.9384L62.0269 87.707V92.1504L59.5801 93.4445Z" fill="#C4C7E8"/>
<path style="mix-blend-mode:multiply" opacity="0.5" d="M78.5976 44.3042L62.1016 38.5376L73.2606 32.1074L78.574 33.892L78.5976 44.3042Z" fill="url(#paint15_linear_1281_2457)"/>
<g style="mix-blend-mode:multiply">
<path d="M69.5977 38.02L78.598 32.834L87.5997 38.02L78.598 43.2171L69.5977 38.02Z" fill="#4D4F80"/>
</g>
<path d="M71.4961 37.9702L78.5747 33.8926L85.652 37.9702L78.5747 42.0575L71.4961 37.9702Z" fill="#627BFD"/>
<path opacity="0.5" d="M71.3086 40.3129V7.20312H85.6515V40.3129L78.2113 42.103L71.3086 40.3129Z" fill="url(#paint16_linear_1281_2457)"/>
<path d="M73.9538 26.9447C74.1688 26.9447 74.3431 26.7704 74.3431 26.5553C74.3431 26.3403 74.1688 26.166 73.9538 26.166C73.7388 26.166 73.5645 26.3403 73.5645 26.5553C73.5645 26.7704 73.7388 26.9447 73.9538 26.9447Z" fill="#627BFD"/>
<path d="M73.9538 25.5775C74.2583 25.5775 74.5052 25.3306 74.5052 25.026C74.5052 24.7215 74.2583 24.4746 73.9538 24.4746C73.6492 24.4746 73.4023 24.7215 73.4023 25.026C73.4023 25.3306 73.6492 25.5775 73.9538 25.5775Z" fill="#627BFD"/>
<path d="M73.9534 28.0943C74.111 28.0943 74.2388 27.9665 74.2388 27.8089C74.2388 27.6512 74.111 27.5234 73.9534 27.5234C73.7958 27.5234 73.668 27.6512 73.668 27.8089C73.668 27.9665 73.7958 28.0943 73.9534 28.0943Z" fill="#627BFD"/>
<path d="M73.9524 29.2154C74.0297 29.2154 74.0924 29.1528 74.0924 29.0755C74.0924 28.9982 74.0297 28.9355 73.9524 28.9355C73.8752 28.9355 73.8125 28.9982 73.8125 29.0755C73.8125 29.1528 73.8752 29.2154 73.9524 29.2154Z" fill="#627BFD"/>
<path d="M75.8059 16.1744C75.9965 16.1744 76.1509 16.0199 76.1509 15.8294C76.1509 15.6388 75.9965 15.4844 75.8059 15.4844C75.6154 15.4844 75.4609 15.6388 75.4609 15.8294C75.4609 16.0199 75.6154 16.1744 75.8059 16.1744Z" fill="#627BFD"/>
<path d="M75.808 14.9656C76.0774 14.9656 76.2957 14.7473 76.2957 14.4779C76.2957 14.2086 76.0774 13.9902 75.808 13.9902C75.5387 13.9902 75.3203 14.2086 75.3203 14.4779C75.3203 14.7473 75.5387 14.9656 75.808 14.9656Z" fill="#627BFD"/>
<path d="M75.8068 17.1899C75.9461 17.1899 76.059 17.077 76.059 16.9377C76.059 16.7984 75.9461 16.6855 75.8068 16.6855C75.6676 16.6855 75.5547 16.7984 75.5547 16.9377C75.5547 17.077 75.6676 17.1899 75.8068 17.1899Z" fill="#627BFD"/>
<path d="M75.8089 18.1783C75.877 18.1783 75.9322 18.1231 75.9322 18.055C75.9322 17.9868 75.877 17.9316 75.8089 17.9316C75.7408 17.9316 75.6855 17.9868 75.6855 18.055C75.6855 18.1231 75.7408 18.1783 75.8089 18.1783Z" fill="#627BFD"/>
<path d="M81.4876 27.481C81.6781 27.481 81.8326 27.3265 81.8326 27.136C81.8326 26.9455 81.6781 26.791 81.4876 26.791C81.297 26.791 81.1426 26.9455 81.1426 27.136C81.1426 27.3265 81.297 27.481 81.4876 27.481Z" fill="white"/>
<path d="M81.4858 26.2742C81.7551 26.2742 81.9735 26.0559 81.9735 25.7865C81.9735 25.5172 81.7551 25.2988 81.4858 25.2988C81.2164 25.2988 80.998 25.5172 80.998 25.7865C80.998 26.0559 81.2164 26.2742 81.4858 26.2742Z" fill="white"/>
<path d="M81.4865 28.4965C81.6258 28.4965 81.7387 28.3836 81.7387 28.2444C81.7387 28.1051 81.6258 27.9922 81.4865 27.9922C81.3473 27.9922 81.2344 28.1051 81.2344 28.2444C81.2344 28.3836 81.3473 28.4965 81.4865 28.4965Z" fill="white"/>
<path d="M81.4866 29.4869C81.5547 29.4869 81.6099 29.4316 81.6099 29.3635C81.6099 29.2954 81.5547 29.2402 81.4866 29.2402C81.4185 29.2402 81.3633 29.2954 81.3633 29.3635C81.3633 29.4316 81.4185 29.4869 81.4866 29.4869Z" fill="white"/>
<path d="M79.9212 7.20561C80.1117 7.20561 80.2662 7.05115 80.2662 6.86062C80.2662 6.67008 80.1117 6.51562 79.9212 6.51562C79.7306 6.51562 79.5762 6.67008 79.5762 6.86062C79.5762 7.05115 79.7306 7.20561 79.9212 7.20561Z" fill="white"/>
<path d="M79.9193 5.99494C80.1887 5.99494 80.407 5.77659 80.407 5.50724C80.407 5.23788 80.1887 5.01953 79.9193 5.01953C79.65 5.01953 79.4316 5.23788 79.4316 5.50724C79.4316 5.77659 79.65 5.99494 79.9193 5.99494Z" fill="white"/>
<path d="M79.9221 8.22113C80.0614 8.22113 80.1743 8.10823 80.1743 7.96896C80.1743 7.8297 80.0614 7.7168 79.9221 7.7168C79.7828 7.7168 79.6699 7.8297 79.6699 7.96896C79.6699 8.10823 79.7828 8.22113 79.9221 8.22113Z" fill="white"/>
<path d="M79.9202 9.20951C79.9883 9.20951 80.0435 9.1543 80.0435 9.0862C80.0435 9.0181 79.9883 8.96289 79.9202 8.96289C79.8521 8.96289 79.7969 9.0181 79.7969 9.0862C79.7969 9.1543 79.8521 9.20951 79.9202 9.20951Z" fill="white"/>
<path d="M78.5977 43.2166V44.3043L87.5994 39.1543V38.0195L78.5977 43.2166Z" fill="#C4C7E8"/>
<path style="mix-blend-mode:multiply" d="M78.598 43.2166V44.3043L69.5977 39.1543V38.0195L78.598 43.2166Z" fill="url(#paint17_linear_1281_2457)"/>
<path d="M94.0669 96.2305C93.9907 96.3566 93.4988 96.6129 92.9419 96.739C92.3849 96.865 89.6166 97.9388 88.1992 98.7992C88.1992 98.7992 90.2456 99.3423 93.7634 99.2412C93.7634 99.2412 95.5342 99.3687 96.0648 98.8117L95.6616 96.9648L94.0669 96.2305Z" fill="#383C66"/>
<path d="M108.477 108.352C108.419 108.49 107.967 108.809 107.432 109.01C106.897 109.211 104.299 110.649 103.014 111.693C103.014 111.693 105.114 111.955 108.585 111.376C108.585 111.376 110.357 111.261 110.809 110.638L110.156 108.863L108.477 108.352Z" fill="#383C66"/>
<path d="M102.73 78.9336C102.73 78.9336 96.2939 81.494 95.8422 82.917C95.3905 84.3399 93.9219 96.2318 93.9219 96.2318C94.0835 96.6153 94.3488 96.9461 94.688 97.1872C95.0272 97.4282 95.4269 97.57 95.8422 97.5966L99.7216 87.1276C99.7216 87.1276 104.085 84.2831 104.987 84.4535L108.092 109.433C108.092 109.433 109.339 110.058 110.238 109.433C110.238 109.433 112.039 85.4774 111.874 85.4774C111.709 85.4774 102.73 78.9336 102.73 78.9336Z" fill="#8FA4F7"/>
<path d="M111.43 61.8636C111.43 61.8636 111.249 61.0157 111.612 60.5321C111.975 60.0486 113.518 58.6866 113.551 58.0812C113.585 57.4757 111.674 53.9952 110.642 53.8137C109.609 53.6322 107.828 54.9637 107.373 55.5082C106.919 56.0527 107.071 55.9017 107.071 55.9017L105.824 55.8712L106.46 56.9907C106.46 56.9907 106.183 58.2377 106.338 58.8681C106.493 59.4985 106.218 59.9876 106.701 60.4116C107.185 60.8356 108.418 61.8636 108.418 61.8636H111.43Z" fill="#FFA8A7"/>
<path d="M107.613 61.4297H111.656C111.656 61.4297 111.541 62.527 112.06 63.4526C112.58 64.3781 114.371 65.4158 115.007 66.6877C115.643 67.9597 119.294 74.9912 119.58 76.1467C119.865 77.3022 118.903 79.8779 118.218 81.4047C117.596 82.7903 115.668 85.7123 115.668 85.7123L114.444 83.6216C114.444 83.6216 115.927 78.8027 115.869 78.1086C115.811 77.4145 114.444 74.89 114.444 74.89C114.444 74.89 113.27 85.1734 113.097 85.9243C112.924 86.6753 112.229 88.3518 112.229 88.3518C112.229 88.3518 109.165 87.138 107.954 85.6361C106.743 84.1342 105.702 81.765 104.662 81.3036C103.621 80.8422 101.427 79.1076 101.427 79.1076C101.427 79.1076 103.448 74.66 103.621 72.8727C103.794 71.0854 103.853 69.5793 103.853 69.5793C103.853 69.5793 99.4618 70.4467 97.2672 70.1003C95.0725 69.7539 89.9876 67.3847 89.9876 67.3847C89.9876 67.3847 89.7563 65.9991 90.5655 65.1886C90.5655 65.1886 97.8117 66.8069 99.9662 65.9396C102.121 65.0722 105.586 63.2821 106.453 63.0521C107.321 62.8221 108.299 63.2821 107.954 62.3594L107.613 61.4297Z" fill="#627BFD"/>
<path d="M118.019 76.4537C118.172 77.3766 118.68 78.2033 119.434 78.7578C119.918 77.9579 120.097 77.0094 119.937 76.0879C119.852 75.6154 119.375 74.036 118.727 74.0831C117.922 74.1413 117.939 75.9494 118.019 76.4537Z" fill="#4D4F80"/>
<path d="M97.1504 68.5442C96.776 68.6091 96.4101 68.7165 96.06 68.8643C95.7275 69.0028 95.3672 69.2051 95.291 69.557C95.5958 69.927 96.053 70.1307 96.5006 70.2997C97.1362 70.5596 97.8057 70.7276 98.4888 70.7985C99.1012 70.847 99.8356 70.7985 100.406 70.5519C101.099 70.2429 100.83 69.8785 100.345 69.4656C99.9092 69.0933 99.3985 68.8185 98.8475 68.6595C98.2965 68.5006 97.7179 68.4613 97.1504 68.5442Z" fill="#4D4F80"/>
<path d="M107.706 54.7523C107.706 54.7523 109.461 55.7222 110.46 55.8718C110.46 55.8718 110.49 56.3568 110.066 57.1188C109.642 57.8809 109.218 59.0253 108.765 59.2068C108.312 59.3883 107.887 59.1458 107.706 58.6928C107.524 58.2397 107.524 57.4458 106.459 56.9969C105.393 56.548 105.58 59.3523 105.823 59.8123C106.065 60.2723 108.933 60.4773 109.303 60.2958C109.673 60.1143 109.939 57.8185 110.302 57.5594C110.665 57.3003 111.542 57.1922 111.572 57.8365C111.603 58.4808 110.634 59.3841 110.241 59.0835C109.848 58.7828 111.572 60.8999 111.572 60.8999C111.572 60.8999 113.752 59.2054 114.356 58.2064C114.96 57.2075 112.149 53.7229 110.611 53.3003C109.073 52.8777 107.706 54.7523 107.706 54.7523Z" fill="#4D4F80"/>
<path d="M90.7036 65.2685C90.069 64.9175 89.4247 64.5868 88.7708 64.2765C88.685 64.2286 88.591 64.1971 88.4937 64.1836C88.3673 64.1824 88.2427 64.2138 88.1321 64.2751C87.1123 64.7642 86.6565 66.2148 86.8408 67.3232L87.7663 66.8757C87.8162 66.8507 87.6984 66.5792 87.7275 66.5321C87.7566 66.485 87.7566 66.4379 87.7801 66.3935C87.8314 66.2965 87.9603 66.2744 88.0711 66.2688C88.322 66.2552 88.5736 66.2617 88.8235 66.2882C88.904 66.2883 88.9822 66.3156 89.0452 66.3658C89.0905 66.4189 89.1163 66.4859 89.1186 66.5556C89.1477 66.9048 88.9287 67.2221 88.7209 67.5033C88.6741 67.5821 88.6046 67.6449 88.5214 67.6835C88.4421 67.7015 88.3597 67.7015 88.2804 67.6835C88.0969 67.663 87.9112 67.6816 87.7355 67.7379C87.5598 67.7943 87.3979 67.8871 87.2606 68.0104C87.5963 68.2599 88.0082 68.3853 88.426 68.3653C88.8438 68.3454 89.2418 68.1813 89.5522 67.901C89.8695 67.5989 90.0871 67.1666 90.4916 67.0004C90.5252 66.468 90.6782 65.9499 90.9392 65.4846C90.7531 65.3762 90.5809 65.2454 90.4265 65.0953L90.2283 65.3835" fill="#FFA8A7"/>
<path d="M112.98 88.8548L112.849 88.5957C113.145 88.276 113.365 87.8926 113.49 87.4748C112.869 88.1025 112.152 88.6264 111.365 89.0266L110.473 88.2743L112.525 86.1891C112.638 86.0727 112.759 85.894 112.663 85.7637C112.63 85.7298 112.589 85.7039 112.543 85.688C112.498 85.6722 112.45 85.6668 112.403 85.6723C112.17 85.6755 111.94 85.7312 111.732 85.8353C111.524 85.9394 111.341 86.0893 111.199 86.2736C111.074 86.0477 111.231 85.7734 111.401 85.5808C111.782 85.1478 112.256 84.8055 112.786 84.5791C113.406 84.3172 114.125 84.1981 114.588 83.709C114.47 83.8337 115.336 84.7952 115.397 84.956C115.484 85.1647 115.518 85.3923 115.493 85.6174C115.469 85.8425 115.388 86.0578 115.258 86.2431C114.601 87.1977 113.837 88.0739 112.98 88.8548Z" fill="#FFA8A7"/>
</g>
<defs>
<linearGradient id="paint0_linear_1281_2457" x1="16.1276" y1="65.1905" x2="167.62" y2="65.1905" gradientUnits="userSpaceOnUse">
<stop stop-color="#627BFD" stop-opacity="0"/>
<stop offset="0.02" stop-color="#627BFD" stop-opacity="0.05"/>
<stop offset="0.27" stop-color="#627BFD" stop-opacity="0.53"/>
<stop offset="0.43" stop-color="#627BFD" stop-opacity="0.84"/>
<stop offset="0.51" stop-color="#627BFD" stop-opacity="0.96"/>
<stop offset="0.99" stop-color="#627BFD" stop-opacity="0"/>
</linearGradient>
<linearGradient id="paint1_linear_1281_2457" x1="37.3262" y1="122.048" x2="73.8804" y2="122.048" gradientUnits="userSpaceOnUse">
<stop stop-color="#627BFD" stop-opacity="0"/>
<stop offset="0.05" stop-color="#627BFD" stop-opacity="0.05"/>
<stop offset="0.52" stop-color="#627BFD" stop-opacity="0.53"/>
<stop offset="0.85" stop-color="#627BFD" stop-opacity="0.84"/>
<stop offset="1" stop-color="#627BFD" stop-opacity="0.96"/>
</linearGradient>
<linearGradient id="paint2_linear_1281_2457" x1="0" y1="23993.3" x2="39019.2" y2="23993.3" gradientUnits="userSpaceOnUse">
<stop stop-color="#627BFD" stop-opacity="0"/>
<stop offset="0.05" stop-color="#627BFD" stop-opacity="0.05"/>
<stop offset="0.52" stop-color="#627BFD" stop-opacity="0.53"/>
<stop offset="0.85" stop-color="#627BFD" stop-opacity="0.84"/>
<stop offset="1" stop-color="#627BFD" stop-opacity="0.96"/>
</linearGradient>
<linearGradient id="paint3_linear_1281_2457" x1="11240.4" y1="21049.7" x2="50258.2" y2="21049.7" gradientUnits="userSpaceOnUse">
<stop stop-color="#627BFD" stop-opacity="0"/>
<stop offset="0.05" stop-color="#627BFD" stop-opacity="0.05"/>
<stop offset="0.52" stop-color="#627BFD" stop-opacity="0.53"/>
<stop offset="0.85" stop-color="#627BFD" stop-opacity="0.84"/>
<stop offset="1" stop-color="#627BFD" stop-opacity="0.96"/>
</linearGradient>
<linearGradient id="paint4_linear_1281_2457" x1="22285.2" y1="18007.7" x2="61303.7" y2="18007.7" gradientUnits="userSpaceOnUse">
<stop stop-color="#627BFD" stop-opacity="0"/>
<stop offset="0.05" stop-color="#627BFD" stop-opacity="0.05"/>
<stop offset="0.52" stop-color="#627BFD" stop-opacity="0.53"/>
<stop offset="0.85" stop-color="#627BFD" stop-opacity="0.84"/>
<stop offset="1" stop-color="#627BFD" stop-opacity="0.96"/>
</linearGradient>
<linearGradient id="paint5_linear_1281_2457" x1="71.9007" y1="89.9004" x2="112.056" y2="10.1248" gradientUnits="userSpaceOnUse">
<stop offset="0.02" stop-color="#D7DDF4"/>
<stop offset="0.18" stop-color="#CDD3ED"/>
<stop offset="0.7" stop-color="#AEB4DA"/>
<stop offset="1" stop-color="#A3A9D3"/>
</linearGradient>
<linearGradient id="paint6_linear_1281_2457" x1="9949.81" y1="1348.6" x2="11882.6" y2="1348.6" gradientUnits="userSpaceOnUse">
<stop offset="0.02" stop-color="#D7DDF4"/>
<stop offset="0.18" stop-color="#CDD3ED"/>
<stop offset="0.7" stop-color="#AEB4DA"/>
<stop offset="1" stop-color="#A3A9D3"/>
</linearGradient>
<linearGradient id="paint7_linear_1281_2457" x1="93.9786" y1="48.0547" x2="93.9786" y2="23.0391" gradientUnits="userSpaceOnUse">
<stop offset="0.12" stop-color="#FF7F0B" stop-opacity="0.4"/>
<stop offset="0.14" stop-color="#F67F1A" stop-opacity="0.4"/>
<stop offset="0.31" stop-color="#A67D94" stop-opacity="0.4"/>
<stop offset="0.44" stop-color="#757BE0" stop-opacity="0.4"/>
<stop offset="0.51" stop-color="#627BFD" stop-opacity="0.4"/>
<stop offset="0.54" stop-color="#627BFD" stop-opacity="0.45"/>
<stop offset="0.7" stop-color="#617BFE" stop-opacity="0.68"/>
<stop offset="0.83" stop-color="#607AFF" stop-opacity="0.85"/>
<stop offset="0.94" stop-color="#5F7AFF" stop-opacity="0.96"/>
<stop offset="1" stop-color="#5F7AFF"/>
</linearGradient>
<linearGradient id="paint8_linear_1281_2457" x1="105.893" y1="48.0839" x2="105.893" y2="23.0684" gradientUnits="userSpaceOnUse">
<stop offset="0.01" stop-color="#627BFD" stop-opacity="0.4"/>
<stop offset="0.03" stop-color="#627AFB" stop-opacity="0.41"/>
<stop offset="0.64" stop-color="#535BA1" stop-opacity="0.84"/>
<stop offset="1" stop-color="#4D4F80"/>
</linearGradient>
<linearGradient id="paint9_linear_1281_2457" x1="64.1855" y1="103.037" x2="109.464" y2="103.037" gradientUnits="userSpaceOnUse">
<stop stop-color="#627BFD" stop-opacity="0"/>
<stop offset="0.13" stop-color="#627BFD" stop-opacity="0.02"/>
<stop offset="0.26" stop-color="#627BFD" stop-opacity="0.06"/>
<stop offset="0.39" stop-color="#627BFD" stop-opacity="0.14"/>
<stop offset="0.51" stop-color="#627BFD" stop-opacity="0.25"/>
<stop offset="0.64" stop-color="#627BFD" stop-opacity="0.4"/>
<stop offset="0.77" stop-color="#627BFD" stop-opacity="0.57"/>
<stop offset="0.9" stop-color="#627BFD" stop-opacity="0.78"/>
<stop offset="1" stop-color="#627BFD" stop-opacity="0.96"/>
</linearGradient>
<linearGradient id="paint10_linear_1281_2457" x1="105020" y1="89574.6" x2="103921" y2="67607.8" gradientUnits="userSpaceOnUse">
<stop stop-color="#627BFD" stop-opacity="0"/>
<stop offset="0.13" stop-color="#627BFD" stop-opacity="0.02"/>
<stop offset="0.26" stop-color="#627BFD" stop-opacity="0.06"/>
<stop offset="0.39" stop-color="#627BFD" stop-opacity="0.14"/>
<stop offset="0.51" stop-color="#627BFD" stop-opacity="0.25"/>
<stop offset="0.64" stop-color="#627BFD" stop-opacity="0.4"/>
<stop offset="0.77" stop-color="#627BFD" stop-opacity="0.57"/>
<stop offset="0.9" stop-color="#627BFD" stop-opacity="0.78"/>
<stop offset="1" stop-color="#627BFD" stop-opacity="0.96"/>
</linearGradient>
<linearGradient id="paint11_linear_1281_2457" x1="4515.04" y1="14650.7" x2="4515.04" y2="11894.6" gradientUnits="userSpaceOnUse">
<stop stop-color="#627BFD" stop-opacity="0"/>
<stop offset="0.13" stop-color="#627BFD" stop-opacity="0.02"/>
<stop offset="0.26" stop-color="#627BFD" stop-opacity="0.06"/>
<stop offset="0.39" stop-color="#627BFD" stop-opacity="0.14"/>
<stop offset="0.51" stop-color="#627BFD" stop-opacity="0.25"/>
<stop offset="0.64" stop-color="#627BFD" stop-opacity="0.4"/>
<stop offset="0.77" stop-color="#627BFD" stop-opacity="0.57"/>
<stop offset="0.9" stop-color="#627BFD" stop-opacity="0.78"/>
<stop offset="1" stop-color="#627BFD" stop-opacity="0.96"/>
</linearGradient>
<linearGradient id="paint12_linear_1281_2457" x1="6562.36" y1="47330.2" x2="21064.9" y2="40047.9" gradientUnits="userSpaceOnUse">
<stop offset="0.02" stop-color="#D7DDF4"/>
<stop offset="0.18" stop-color="#CDD3ED"/>
<stop offset="0.7" stop-color="#AEB4DA"/>
<stop offset="1" stop-color="#A3A9D3"/>
</linearGradient>
<linearGradient id="paint13_linear_1281_2457" x1="4723.48" y1="35451.4" x2="11992.1" y2="30018.2" gradientUnits="userSpaceOnUse">
<stop offset="0.02" stop-color="#D7DDF4"/>
<stop offset="0.18" stop-color="#CDD3ED"/>
<stop offset="0.7" stop-color="#AEB4DA"/>
<stop offset="1" stop-color="#A3A9D3"/>
</linearGradient>
<linearGradient id="paint14_linear_1281_2457" x1="4901.95" y1="6854.07" x2="6835.08" y2="6854.07" gradientUnits="userSpaceOnUse">
<stop offset="0.02" stop-color="#D7DDF4"/>
<stop offset="0.18" stop-color="#CDD3ED"/>
<stop offset="0.7" stop-color="#AEB4DA"/>
<stop offset="1" stop-color="#A3A9D3"/>
</linearGradient>
<linearGradient id="paint15_linear_1281_2457" x1="7455.95" y1="3395.36" x2="9419.97" y2="3395.36" gradientUnits="userSpaceOnUse">
<stop stop-color="#627BFD" stop-opacity="0"/>
<stop offset="0.13" stop-color="#627BFD" stop-opacity="0.02"/>
<stop offset="0.26" stop-color="#627BFD" stop-opacity="0.06"/>
<stop offset="0.39" stop-color="#627BFD" stop-opacity="0.14"/>
<stop offset="0.51" stop-color="#627BFD" stop-opacity="0.25"/>
<stop offset="0.64" stop-color="#627BFD" stop-opacity="0.4"/>
<stop offset="0.77" stop-color="#627BFD" stop-opacity="0.57"/>
<stop offset="0.9" stop-color="#627BFD" stop-opacity="0.78"/>
<stop offset="1" stop-color="#627BFD" stop-opacity="0.96"/>
</linearGradient>
<linearGradient id="paint16_linear_1281_2457" x1="78.4801" y1="42.103" x2="78.4801" y2="7.20451" gradientUnits="userSpaceOnUse">
<stop stop-color="#627BFD"/>
<stop offset="0.04" stop-color="#627BFD" stop-opacity="0.95"/>
<stop offset="0.25" stop-color="#627BFD" stop-opacity="0.66"/>
<stop offset="0.44" stop-color="#627BFD" stop-opacity="0.43"/>
<stop offset="0.62" stop-color="#627BFD" stop-opacity="0.24"/>
<stop offset="0.78" stop-color="#627BFD" stop-opacity="0.11"/>
<stop offset="0.91" stop-color="#627BFD" stop-opacity="0.03"/>
<stop offset="1" stop-color="#627BFD" stop-opacity="0"/>
</linearGradient>
<linearGradient id="paint17_linear_1281_2457" x1="69.5977" y1="41.1619" x2="78.598" y2="41.1619" gradientUnits="userSpaceOnUse">
<stop offset="0.02" stop-color="#D0D4EF"/>
<stop offset="0.38" stop-color="#AFB5D7"/>
<stop offset="0.78" stop-color="#9099C2"/>
<stop offset="1" stop-color="#858EBA"/>
</linearGradient>
<clipPath id="clip0_1281_2457">
<rect width="167.622" height="132" fill="white"/>
</clipPath>
</defs>
</svg>
