<svg width="298" height="229" viewBox="0 0 298 229" fill="none" xmlns="http://www.w3.org/2000/svg">
<path opacity="0.2" fill-rule="evenodd" clip-rule="evenodd" d="M89.7537 86.0173C86.0832 120.631 74.5819 163.091 55.4949 190.782C31.6359 225.396 56.7183 255.855 83.6361 190.782C110.554 125.708 110.522 83.4541 110.522 83.4541C111.657 83.361 109.354 83.5499 110.522 83.4541C149.953 80.2154 209.985 74.289 262.271 81.4021C336.908 91.5556 280.625 73.5564 220.672 69.4027C187.942 67.1352 150.013 66.6337 110.554 69.4027C108.515 23.4049 104.13 -32.3618 67.7302 23.2511C59.5732 35.0967 41.669 63.3106 35.3067 81.4021C20.3184 81.4021 -21.5876 91.5556 13.8948 108.632C17.9732 110.785 27.8432 111.632 39.589 95.0168C52.1302 91.0941 64.0595 89.2481 89.7537 86.0173ZM46.0126 79.0948C54.0675 77.2488 74.0926 73.2797 89.7539 72.1721C92.0989 36.5585 86.6338 -11.9162 46.0126 79.0948ZM28.5775 98.0168C26.3344 98.3245 20.4409 99.4936 14.8127 101.709C17.7697 104.017 24.6622 106.509 28.5775 98.0168Z" fill="#ADB0C3"/>
</svg>
