<?xml version="1.0" encoding="utf-8"?><svg viewBox="0 0 65 64" xmlns="http://www.w3.org/2000/svg" xmlns:xlink="http://www.w3.org/1999/xlink"><style>:root>svg{display:none}:root>svg:target{display:block}</style><svg viewBox="0 0 20 20" id="arrow-left" xmlns="http://www.w3.org/2000/svg"><path d="M8.75 3.75l.894.87-4.738 4.755H17.5v1.25H4.906l4.738 4.733-.894.892L2.5 10l6.25-6.25z"/></svg><svg viewBox="0 0 20 20" id="arrow-right" xmlns="http://www.w3.org/2000/svg"><path d="M11.25 3.75l-.894.87 4.738 4.755H2.5v1.25h12.594l-4.738 4.733.894.892L17.5 10l-6.25-6.25z"/></svg><svg viewBox="0 0 28 28" id="arrow-top" xmlns="http://www.w3.org/2000/svg"><path d="M5.637 12.328l1.165 1.196 6.364-6.341v16.856h1.673V7.183l6.335 6.34 1.194-1.195-8.366-8.366-8.365 8.366z"/></svg><svg viewBox="0 0 22 2" id="breadcrumbs-line" xmlns="http://www.w3.org/2000/svg"><path d="M1 1h20"/></svg><svg viewBox="0 0 24 24" id="file" xmlns="http://www.w3.org/2000/svg"><path d="M2 12.5C2 9.46 4.46 7 7.5 7H18c2.21 0 4 1.79 4 4s-1.79 4-4 4H9.5a2.5 2.5 0 010-5H17v2H9.41c-.55 0-.55 1 0 1H18c1.1 0 2-.9 2-2s-.9-2-2-2H7.5C5.57 9 4 10.57 4 12.5S5.57 16 7.5 16H17v2H7.5C4.46 18 2 15.54 2 12.5z"/></svg><svg viewBox="0 0 16 16" id="file-dwnld" xmlns="http://www.w3.org/2000/svg"><path d="M12 8.667v4A1.334 1.334 0 0110.667 14H3.333A1.334 1.334 0 012 12.667V5.333A1.333 1.333 0 013.333 4h4M10 2h4v4M6.664 9.333L13.997 2"/></svg><svg viewBox="0 0 65 64" id="hamburger-menu" xmlns="http://www.w3.org/2000/svg"><path d="M3.545 23.704h57.909v2.37H3.544v-2.37zM3.545 36.74h57.909v2.371H3.544v-2.37z"/></svg><svg viewBox="0 0 65 64" id="hamburger-menu-close" xmlns="http://www.w3.org/2000/svg"><path d="M9.444 15l47.437 33.215-1.36 1.942L8.085 16.94 9.445 15z"/><path d="M8.27 49l47.436-33.215 1.36 1.942L9.63 50.942 8.27 49z"/></svg><svg viewBox="0 0 16 16.003" id="inst" xmlns="http://www.w3.org/2000/svg"><g><path d="M15.96 4.7a5.848 5.848 0 00-.372-1.941A4.1 4.1 0 0013.246.422 5.863 5.863 0 0011.305.05C10.451.009 10.176 0 8.003 0s-2.445.009-3.3.047a5.849 5.849 0 00-1.939.372 3.9 3.9 0 00-1.419.925A3.94 3.94 0 00.422 2.76 5.863 5.863 0 00.051 4.7C.01 5.558 0 5.83 0 8s.01 2.448.051 3.3a5.847 5.847 0 00.372 1.941 4.1 4.1 0 002.338 2.343 5.863 5.863 0 001.941.372C5.551 15.994 5.828 16 8 16s2.445-.009 3.3-.047a5.846 5.846 0 001.941-.372 4.093 4.093 0 002.342-2.341 5.867 5.867 0 00.368-1.94c.037-.853.047-1.125.047-3.3s-.001-2.442-.038-3.3zm-1.441 6.534a4.386 4.386 0 01-.275 1.485 2.655 2.655 0 01-1.519 1.519 4.4 4.4 0 01-1.485.275c-.844.038-1.1.047-3.232.047s-2.392-.009-3.233-.047a4.384 4.384 0 01-1.485-.275 2.463 2.463 0 01-.919-.6 2.488 2.488 0 01-.6-.919 4.4 4.4 0 01-.275-1.485c-.038-.844-.047-1.1-.047-3.233s.009-2.392.047-3.232a4.384 4.384 0 01.275-1.485 2.432 2.432 0 01.6-.919 2.484 2.484 0 01.919-.6A4.4 4.4 0 014.777 1.5c.844-.037 1.1-.047 3.232-.047s2.392.009 3.233.047a4.386 4.386 0 011.485.275 2.461 2.461 0 01.919.6 2.487 2.487 0 01.6.919 4.4 4.4 0 01.275 1.485c.037.844.047 1.1.047 3.232s-.017 2.384-.05 3.228zm0 0"/><path d="M8.003 3.892a4.111 4.111 0 104.111 4.111 4.112 4.112 0 00-4.111-4.111zm0 6.778a2.667 2.667 0 112.667-2.667 2.667 2.667 0 01-2.667 2.667zm0 0"/><path d="M13.237 3.729a.96.96 0 11-.96-.96.96.96 0 01.96.96zm0 0"/></g></svg><svg viewBox="0 0 15 15" id="marker" xmlns="http://www.w3.org/2000/svg"><path d="M7.502 1.25c-2.625 0-5 2.013-5 5.126 0 2.075 1.669 4.531 5 7.375 3.331-2.844 5-5.3 5-7.375 0-3.113-2.375-5.125-5-5.125zm0 6.25c-.688 0-1.25-.562-1.25-1.25 0-.687.562-1.25 1.25-1.25.687 0 1.25.563 1.25 1.25 0 .688-.563 1.25-1.25 1.25z"/></svg><svg viewBox="0 0 19 16" id="ok" xmlns="http://www.w3.org/2000/svg"><path d="M6.243 16L0 9.487l2.714-2.69 3.529 3.68L16.286 0 19 2.832 6.243 16z"/></svg><svg viewBox="0 0 30 30" id="search" xmlns="http://www.w3.org/2000/svg"><path d="M17.814 2.813c-5.167 0-9.375 4.207-9.375 9.374 0 2.245.788 4.304 2.11 5.918l-7.47 7.471 1.347 1.348 7.47-7.47a9.302 9.302 0 005.918 2.108c5.168 0 9.375-4.207 9.375-9.375 0-5.167-4.207-9.374-9.375-9.374zm0 1.874c4.153 0 7.5 3.348 7.5 7.5 0 4.153-3.347 7.5-7.5 7.5a7.486 7.486 0 01-7.5-7.5c0-4.152 3.348-7.5 7.5-7.5z"/></svg><svg viewBox="0 0 20 20" id="shevron" xmlns="http://www.w3.org/2000/svg"><path d="M9.81 13.806L3.173 6.84a.625.625 0 010-.863l.007-.007a.575.575 0 01.834 0l6.25 6.56 6.247-6.56a.574.574 0 01.834 0l.008.007a.625.625 0 010 .863l-6.638 6.966a.625.625 0 01-.905 0z"/></svg><svg viewBox="0 0 26 26" id="tel" xmlns="http://www.w3.org/2000/svg"><path d="M21.124 23.563h-.138C5.021 22.643 2.754 9.172 2.436 5.061a2.437 2.437 0 012.438-2.625h4.282a1.625 1.625 0 011.511 1.024L11.904 6.5a1.625 1.625 0 01-.358 1.755l-1.73 1.747a7.605 7.605 0 006.158 6.175l1.763-1.747a1.626 1.626 0 011.763-.333l3.064 1.227a1.624 1.624 0 01.999 1.511v4.29a2.437 2.437 0 01-2.438 2.438zm-16.25-19.5a.813.813 0 00-.812.877c.374 4.81 2.77 16.185 17.014 16.997a.812.812 0 00.86-.762v-4.34l-3.062-1.227-2.332 2.316-.39-.049c-7.069-.886-8.028-7.954-8.028-8.027l-.048-.39 2.307-2.332-1.219-3.064h-4.29z"/></svg><svg viewBox="0 0 12 14" id="vector" xmlns="http://www.w3.org/2000/svg"><path d="M6.001.334C3.201.334.668 2.481.668 5.801c0 2.213 1.78 4.833 5.333 7.866 3.554-3.033 5.334-5.653 5.334-7.866C11.335 2.48 8.8.334 6 .334zm0 6.667c-.733 0-1.333-.6-1.333-1.334 0-.733.6-1.333 1.333-1.333.734 0 1.334.6 1.334 1.333 0 .734-.6 1.334-1.334 1.334z"/></svg></svg>