<svg width="26" height="26" viewBox="0 0 26 26" fill="none" xmlns="http://www.w3.org/2000/svg">
<path d="M21.1244 23.5625H20.9862C5.02061 22.6444 2.75373 9.17313 2.43686 5.06188C2.38733 4.41736 2.59585 3.77956 3.01655 3.28878C3.43724 2.79799 4.03566 2.49441 4.68017 2.44481C4.74463 2.43994 4.80936 2.4375 4.87436 2.4375H9.15623C9.48169 2.43719 9.79974 2.5346 10.0692 2.71713C10.3386 2.89966 10.5471 3.15889 10.6675 3.46125L11.9025 6.5C12.0214 6.79538 12.0509 7.11919 11.9873 7.4312C11.9238 7.74321 11.77 8.02967 11.545 8.255L9.81436 10.0019C10.0836 11.5386 10.8189 12.9553 11.9206 14.0599C13.0223 15.1645 14.4371 15.9036 15.9731 16.1769L17.7362 14.43C17.965 14.2075 18.2541 14.0573 18.5677 13.998C18.8812 13.9388 19.2052 13.9732 19.4994 14.0969L22.5625 15.3238C22.8603 15.448 23.1144 15.658 23.2923 15.9272C23.4703 16.1963 23.5641 16.5123 23.5619 16.835V21.125C23.5619 21.7715 23.3051 22.3915 22.8479 22.8486C22.3908 23.3057 21.7708 23.5625 21.1244 23.5625ZM4.87436 4.0625C4.76766 4.06218 4.66194 4.08288 4.56324 4.12341C4.46454 4.16395 4.37479 4.22353 4.29912 4.29875C4.22344 4.37397 4.16333 4.46336 4.1222 4.56182C4.08107 4.66027 4.05974 4.76586 4.05942 4.87256C4.05942 4.89531 4.06023 4.91779 4.06186 4.94C4.43561 9.75 6.83248 21.125 21.0756 21.9375C21.2907 21.9504 21.502 21.8773 21.6632 21.7344C21.8244 21.5915 21.9223 21.3904 21.9352 21.1754L21.9369 21.125V16.835L18.8737 15.6081L16.5419 17.9237L16.1519 17.875C9.08311 16.9894 8.12436 9.92063 8.12436 9.8475L8.07561 9.4575L10.3831 7.12563L9.16436 4.0625H4.87436Z" fill="#2D3040"/>
</svg>
