<svg width="331" height="270" viewBox="0 0 331 270" fill="none" xmlns="http://www.w3.org/2000/svg">
<g clip-path="url(#clip0_2_422)">
<path d="M115.488 169.595L98.0458 179.858V106.936L115.488 96.6979V169.595Z" fill="white" stroke="#4A63CE" stroke-width="1.26488" stroke-linecap="round" stroke-linejoin="round"/>
<path d="M113.436 115.857L100.102 123.702V114.071L113.436 106.246V115.857Z" fill="white" stroke="#FF7F0B" stroke-width="0.758925" stroke-linecap="round" stroke-linejoin="round"/>
<path d="M113.436 127.862L100.102 135.707V126.076L113.436 118.252V127.862Z" fill="white" stroke="#FF7F0B" stroke-width="0.758925" stroke-linecap="round" stroke-linejoin="round"/>
<path d="M76.4662 167.404L98.0424 179.86V106.938L76.4662 94.5063V167.404Z" fill="white" stroke="#4A63CE" stroke-width="1.26488" stroke-linecap="round" stroke-linejoin="round"/>
<path d="M115.485 96.7012L93.9113 84.2725L76.4662 94.5079L98.0424 106.939L115.485 96.7012Z" fill="white" stroke="#4A63CE" stroke-width="0.50595" stroke-linecap="round" stroke-linejoin="round"/>
<path d="M115.485 96.7012L93.9113 84.2725L76.4662 94.5079L98.0424 106.939L115.485 96.7012Z" fill="white" stroke="#4A63CE" stroke-width="1.26488" stroke-linecap="round" stroke-linejoin="round"/>
<path d="M80.5649 94.4919L93.9194 86.6548L111.385 96.7181L98.0303 104.555L80.5649 94.4919Z" fill="white" stroke="#4A63CE" stroke-width="0.50595" stroke-linecap="round" stroke-linejoin="round"/>
<path d="M80.2416 94.4919L93.5987 86.6548L111.064 96.7181L97.707 104.555L80.2416 94.4919Z" fill="white" stroke="#4A63CE" stroke-width="0.50595" stroke-linecap="round" stroke-linejoin="round"/>
<path d="M80.2416 92.4297L93.5987 84.5925L111.064 94.6558L97.707 102.496L80.2416 92.4297Z" fill="white" stroke="#4A63CE" stroke-width="0.50595" stroke-linecap="round" stroke-linejoin="round"/>
<path d="M97.7097 102.495V104.554L111.067 96.7168V94.655L97.7097 102.495Z" fill="white" stroke="#4A63CE" stroke-width="0.50595" stroke-linecap="round" stroke-linejoin="round"/>
<path d="M80.2416 92.4279V94.4896L97.707 104.553V102.494L80.2416 92.4279Z" fill="white" stroke="#4A63CE" stroke-width="0.50595" stroke-linecap="round" stroke-linejoin="round"/>
<path d="M92.5386 170.855C93.7936 170.142 93.8463 167.866 92.6562 165.77C91.4661 163.674 89.484 162.553 88.229 163.266C86.974 163.978 86.9213 166.255 88.1114 168.351C89.3015 170.447 91.2836 171.568 92.5386 170.855Z" fill="#4A63CE" stroke="#4A63CE" stroke-width="0.50595" stroke-linecap="round" stroke-linejoin="round"/>
<path d="M91.5692 169.139C92.2568 168.749 92.2852 167.501 91.6326 166.351C90.9799 165.202 89.8934 164.587 89.2058 164.977C88.5181 165.368 88.4897 166.616 89.1424 167.765C89.795 168.915 90.8815 169.53 91.5692 169.139Z" fill="white" stroke="#4A63CE" stroke-width="0.50595" stroke-linecap="round" stroke-linejoin="round"/>
<path d="M3.4393 2.65707L323.852 192.512C324.716 193.011 325.432 193.727 325.931 194.59C326.429 195.453 326.691 196.432 326.691 197.429C326.691 198.426 326.429 199.405 325.931 200.268C325.432 201.131 324.716 201.847 323.852 202.345L226.485 258.562C223.286 260.408 219.669 261.409 215.976 261.468C212.283 261.527 208.636 260.644 205.379 258.901L195.857 253.801" stroke="#FF7F0B" stroke-width="4" stroke-linecap="round" stroke-linejoin="round"/>
<path d="M129.659 241.447L148.465 252.304L175.068 236.946L156.322 226.053L129.659 241.447Z" fill="white" stroke="#4A63CE" stroke-width="0.50595" stroke-linecap="round" stroke-linejoin="round"/>
<path d="M149.565 220.288C150.764 219.592 152.714 219.592 153.921 220.288L202.968 245.188C204.172 245.884 203.272 249.906 202.075 250.602L170.645 268.866C169.446 269.562 167.501 269.56 166.294 268.866L118.156 241.072C116.951 240.376 116.615 237.277 117.812 236.582" fill="white"/>
<path d="M167.596 269.511V267.08L114.387 236.361V238.792" fill="white"/>
<path d="M167.596 269.511V267.08L114.387 236.361V238.792" stroke="#4A63CE" stroke-width="0.50595" stroke-linecap="round" stroke-linejoin="round"/>
<path d="M149.565 220.288C150.764 219.592 152.714 219.592 153.921 220.288L202.968 245.188C204.172 245.884 203.272 249.906 202.075 250.602L170.645 268.866C169.446 269.562 167.501 269.56 166.294 268.866L118.156 241.072C116.951 240.376 116.615 237.277 117.812 236.582" stroke="#4A63CE" stroke-width="0.50595" stroke-linecap="round" stroke-linejoin="round"/>
<path d="M202.048 245.884C203.252 246.58 203.26 247.711 202.063 248.414L170.634 266.679C169.435 267.375 167.489 267.372 166.283 266.679L118.144 238.874C116.94 238.179 116.927 237.051 118.124 236.345L149.553 218.08C150.752 217.384 152.703 217.384 153.91 218.08L202.048 245.884Z" fill="white" stroke="#4A63CE" stroke-width="1.0119" stroke-linecap="round" stroke-linejoin="round"/>
<path d="M196.195 246.729L152.408 221.46C151.998 221.225 151.534 221.101 151.062 221.101C150.59 221.101 150.126 221.225 149.716 221.46L134.613 230.119C134.51 230.178 134.425 230.264 134.366 230.367C134.306 230.47 134.275 230.587 134.275 230.706C134.275 230.825 134.306 230.942 134.366 231.045C134.425 231.148 134.51 231.233 134.613 231.293L178.401 256.562C178.81 256.797 179.274 256.921 179.747 256.921C180.219 256.921 180.683 256.797 181.092 256.562L196.195 247.903C196.298 247.844 196.384 247.758 196.443 247.655C196.502 247.552 196.534 247.435 196.534 247.316C196.534 247.197 196.502 247.08 196.443 246.977C196.384 246.874 196.298 246.789 196.195 246.729V246.729Z" fill="white" stroke="#4A63CE" stroke-width="0.50595" stroke-linecap="round" stroke-linejoin="round"/>
<path d="M213.88 207.538V207.497C213.88 207.482 213.88 207.469 213.88 207.457C213.88 207.444 213.88 207.429 213.88 207.414V207.371V207.328V207.285C213.88 207.269 213.88 207.254 213.868 207.239C213.855 207.224 213.868 207.209 213.868 207.194L213.853 207.148C213.85 207.133 213.845 207.117 213.84 207.102L213.825 207.059C213.82 207.045 213.814 207.03 213.807 207.016L213.792 206.976C213.792 206.961 213.779 206.948 213.774 206.933C213.769 206.918 213.774 206.905 213.754 206.89L213.734 206.847L213.706 206.794C213.691 206.766 213.676 206.738 213.658 206.71L213.602 206.622L213.547 206.541L213.509 206.493C213.499 206.478 213.488 206.465 213.476 206.452L213.443 206.414L213.41 206.376L213.374 206.341C213.364 206.328 213.352 206.316 213.339 206.306L213.301 206.27L213.266 206.237L213.225 206.207L213.19 206.177L213.152 206.151L213.114 206.126L213.079 206.103L161.049 176.088L161.021 176.073L160.988 176.055L160.953 176.04L160.918 176.024L160.885 176.012H160.849H160.816H160.778H160.743H160.622H160.571C160.551 176.015 160.532 176.02 160.513 176.027C160.489 176.036 160.466 176.047 160.445 176.06L159.164 176.804C159.186 176.791 159.209 176.78 159.233 176.771L159.293 176.756C159.309 176.754 159.326 176.754 159.342 176.756H159.463H159.501H159.536H159.569L159.605 176.768H159.64L159.673 176.783L159.708 176.799L159.744 176.816L159.769 176.831L211.75 206.842L211.788 206.865L211.824 206.89L211.862 206.915L211.897 206.943L211.938 206.976L211.976 207.009L212.011 207.044L212.049 207.08L212.082 207.115L212.115 207.153L212.148 207.191L212.18 207.229L212.218 207.28L212.274 207.361L212.332 207.449L212.378 207.533C212.388 207.55 212.397 207.567 212.406 207.586L212.426 207.629L212.446 207.672C212.446 207.687 212.446 207.699 212.464 207.715L212.481 207.755L212.497 207.798L212.512 207.841L212.527 207.887C212.53 207.902 212.534 207.917 212.54 207.932C212.54 207.947 212.54 207.963 212.54 207.978C212.538 207.993 212.538 208.008 212.54 208.023V208.066V208.109V208.152C212.538 208.167 212.538 208.181 212.54 208.195C212.538 208.209 212.538 208.222 212.54 208.236C212.538 208.249 212.538 208.263 212.54 208.276V208.324C212.541 208.338 212.541 208.351 212.54 208.365C212.541 208.378 212.541 208.392 212.54 208.405C212.54 208.418 212.54 208.433 212.54 208.446V208.489L205.145 247.116V247.146C205.146 247.161 205.146 247.176 205.145 247.191C205.142 247.207 205.137 247.223 205.13 247.237C205.124 247.253 205.118 247.269 205.11 247.285L205.079 247.343C205.042 247.401 204.992 247.45 204.933 247.485L206.213 246.741C206.272 246.707 206.322 246.658 206.357 246.599C206.369 246.581 206.38 246.561 206.39 246.541C206.398 246.526 206.404 246.51 206.41 246.493L206.425 246.448C206.425 246.433 206.425 246.417 206.438 246.402C206.439 246.392 206.439 246.382 206.438 246.372L213.88 207.753V207.712C213.88 207.697 213.88 207.684 213.88 207.669C213.882 207.656 213.882 207.642 213.88 207.629C213.88 207.616 213.88 207.601 213.88 207.588C213.882 207.571 213.882 207.554 213.88 207.538V207.538Z" fill="white" stroke="#4A63CE" stroke-width="0.50595" stroke-linecap="round" stroke-linejoin="round"/>
<path d="M211.748 206.844C212.284 207.155 212.687 207.952 212.583 208.498L205.143 247.117C205.065 247.535 204.713 247.664 204.301 247.426L152.324 217.418C151.788 217.107 151.386 216.312 151.487 215.763L158.929 177.147C159.008 176.727 159.36 176.598 159.767 176.833L211.748 206.844Z" fill="white" stroke="#4A63CE" stroke-width="1.0119" stroke-linecap="round" stroke-linejoin="round"/>
<path d="M154.663 215.896C154.627 215.847 154.597 215.793 154.574 215.737L161.354 180.621L209.419 208.365C209.456 208.413 209.485 208.467 209.505 208.524L202.716 243.64L154.663 215.896Z" fill="white" stroke="#4A63CE" stroke-width="0.490772" stroke-linecap="round" stroke-linejoin="round"/>
<path d="M162.395 248.95C163.035 249.319 163.037 249.909 162.395 250.28L153.191 255.633C152.836 255.815 152.442 255.909 152.043 255.909C151.644 255.909 151.25 255.815 150.894 255.633L134.704 246.382C134.064 246.013 134.061 245.421 134.704 245.051L143.915 239.696C144.27 239.514 144.663 239.419 145.062 239.419C145.461 239.419 145.854 239.514 146.209 239.696L162.395 248.95Z" fill="white" stroke="#4A63CE" stroke-width="1.0119" stroke-linecap="round" stroke-linejoin="round"/>
<path d="M161.247 161.03L116.341 187.139C113.575 188.756 110.426 189.601 107.222 189.586C104.018 189.57 100.877 188.695 98.127 187.051L77.3325 174.624L90.3733 167.035" stroke="#4A63CE" stroke-width="1.26488" stroke-linecap="round" stroke-linejoin="round"/>
<path d="M79.4042 185.825L61.9591 196.088V123.166L79.4042 112.928V185.825Z" fill="white" stroke="#4A63CE" stroke-width="1.26488" stroke-linecap="round" stroke-linejoin="round"/>
<path d="M77.3467 132.087L64.0149 139.929V130.301L77.3467 122.476V132.087Z" fill="white" stroke="#FF7F0B" stroke-width="0.758925" stroke-linecap="round" stroke-linejoin="round"/>
<path d="M77.3467 144.092L64.0149 151.934V142.306L77.3467 134.482V144.092Z" fill="white" stroke="#FF7F0B" stroke-width="0.758925" stroke-linecap="round" stroke-linejoin="round"/>
<path d="M40.3794 183.634L61.9531 196.09V123.168L40.3794 110.736V183.634Z" fill="white" stroke="#4A63CE" stroke-width="1.26488" stroke-linecap="round" stroke-linejoin="round"/>
<path d="M79.3983 112.93L57.8246 100.499L40.3794 110.737L61.9531 123.168L79.3983 112.93Z" fill="white" stroke="#4A63CE" stroke-width="0.50595" stroke-linecap="round" stroke-linejoin="round"/>
<path d="M79.3983 112.93L57.8246 100.499L40.3794 110.737L61.9531 123.168L79.3983 112.93Z" fill="white" stroke="#4A63CE" stroke-width="1.26488" stroke-linecap="round" stroke-linejoin="round"/>
<path d="M44.4911 110.718L57.8456 102.878L75.3135 112.942L61.9565 120.781L44.4911 110.718Z" fill="white" stroke="#4A63CE" stroke-width="0.50595" stroke-linecap="round" stroke-linejoin="round"/>
<path d="M44.1678 110.718L57.5224 102.878L74.9878 112.942L61.6332 120.781L44.1678 110.718Z" fill="white" stroke="#4A63CE" stroke-width="0.50595" stroke-linecap="round" stroke-linejoin="round"/>
<path d="M44.1678 108.656L57.5224 100.819L74.9878 110.883L61.6332 118.722L44.1678 108.656Z" fill="white" stroke="#4A63CE" stroke-width="0.50595" stroke-linecap="round" stroke-linejoin="round"/>
<path d="M61.6358 118.725V120.784L74.9904 112.944V110.885L61.6358 118.725Z" fill="white" stroke="#4A63CE" stroke-width="0.50595" stroke-linecap="round" stroke-linejoin="round"/>
<path d="M44.1678 108.658V110.72L61.6332 120.783V118.724L44.1678 108.658Z" fill="white" stroke="#4A63CE" stroke-width="0.50595" stroke-linecap="round" stroke-linejoin="round"/>
<path d="M56.4518 187.085C57.7069 186.372 57.7595 184.096 56.5695 182C55.3794 179.904 53.3972 178.783 52.1422 179.496C50.8872 180.208 50.8346 182.485 52.0246 184.581C53.2147 186.677 55.1968 187.798 56.4518 187.085Z" fill="#4A63CE" stroke="#4A63CE" stroke-width="0.50595" stroke-linecap="round" stroke-linejoin="round"/>
<path d="M55.4824 185.369C56.1701 184.979 56.1984 183.731 55.5458 182.581C54.8932 181.432 53.8067 180.817 53.119 181.207C52.4314 181.598 52.403 182.846 53.0556 183.995C53.7082 185.145 54.7948 185.76 55.4824 185.369Z" fill="white" stroke="#4A63CE" stroke-width="0.50595" stroke-linecap="round" stroke-linejoin="round"/>
<path d="M170.648 167.184L80.1998 218.333C77.4615 219.881 74.3637 220.68 71.2185 220.649C68.0733 220.618 64.9916 219.759 62.2841 218.159L41.0671 205.611C40.5127 205.283 40.0538 204.815 39.7359 204.255C39.4179 203.694 39.252 203.061 39.2546 202.416C39.2571 201.772 39.4281 201.14 39.7504 200.582C40.0728 200.024 40.5354 199.56 41.0923 199.236L45.7446 196.539C46.6422 196.018 47.3872 195.269 47.9053 194.37C48.4233 193.47 48.6962 192.45 48.6968 191.412V188.593C48.6962 187.768 48.9273 186.959 49.3638 186.258C49.8002 185.557 50.4246 184.993 51.1658 184.629L53.9232 183.273" stroke="#4A63CE" stroke-width="1.26488" stroke-linecap="round" stroke-linejoin="round"/>
<path d="M267.365 130.479V208.97C267.366 209.977 267.102 210.967 266.599 211.839C266.096 212.712 265.373 213.437 264.501 213.941C263.629 214.445 262.64 214.711 261.633 214.711C260.625 214.712 259.636 214.447 258.764 213.944L154.988 154.494C151.45 152.458 148.511 149.525 146.468 145.99C144.425 142.456 143.35 138.445 143.351 134.363V55.3358C143.352 54.3297 143.618 53.3415 144.122 52.4706C144.625 51.5996 145.349 50.8766 146.221 50.3741C147.093 49.8716 148.081 49.6074 149.087 49.608C150.093 49.6086 151.082 49.874 151.953 50.3775L255.796 110.398C259.314 112.44 262.234 115.369 264.264 118.893C266.294 122.417 267.364 126.412 267.365 130.479Z" fill="white" stroke="#4A63CE" stroke-width="1.26488" stroke-linecap="round" stroke-linejoin="round"/>
<path d="M263.659 133.373V211.866C263.66 212.873 263.396 213.862 262.893 214.734C262.39 215.607 261.666 216.331 260.794 216.835C259.922 217.339 258.933 217.604 257.926 217.605C256.92 217.605 255.93 217.34 255.058 216.837L151.29 157.401C147.752 155.363 144.814 152.43 142.771 148.895C140.728 145.36 139.652 141.349 139.654 137.266V58.2292C139.654 57.2212 139.919 56.231 140.424 55.3584C140.929 54.4858 141.654 53.7616 142.528 53.2588C143.402 52.756 144.393 52.4924 145.401 52.4946C146.409 52.4967 147.398 52.7645 148.27 53.2709L252.114 113.292C255.627 115.336 258.543 118.266 260.569 121.79C262.595 125.314 263.66 129.308 263.659 133.373V133.373Z" fill="white" stroke="#4A63CE" stroke-width="1.51785" stroke-linecap="round" stroke-linejoin="round"/>
<path d="M257.906 214.236C258.533 214.232 259.133 213.981 259.575 213.537C260.018 213.093 260.267 212.493 260.269 211.866V133.373C260.264 129.9 259.351 126.488 257.62 123.477C255.89 120.465 253.402 117.959 250.403 116.206L146.559 56.1877C146.201 55.973 145.792 55.8585 145.375 55.8563C144.746 55.8569 144.143 56.1071 143.698 56.552C143.253 56.9969 143.003 57.6 143.002 58.2292V137.266C143.009 140.755 143.932 144.18 145.68 147.199C147.428 150.218 149.938 152.725 152.959 154.468L256.727 213.91C257.084 214.122 257.491 214.234 257.906 214.236Z" fill="white" stroke="#4A63CE" stroke-width="0.50595" stroke-linecap="round" stroke-linejoin="round"/>
<path d="M257.906 214.236C258.533 214.232 259.133 213.981 259.575 213.537C260.018 213.093 260.267 212.493 260.269 211.866V133.373C260.264 129.9 259.351 126.488 257.62 123.477C255.89 120.465 253.402 117.959 250.403 116.206L146.559 56.1877C146.201 55.973 145.792 55.8585 145.375 55.8563C144.746 55.8569 144.143 56.1071 143.698 56.552C143.253 56.9969 143.003 57.6 143.002 58.2292V137.266C143.009 140.755 143.932 144.18 145.68 147.199C147.428 150.218 149.938 152.725 152.959 154.468L256.727 213.91C257.084 214.122 257.491 214.234 257.906 214.236Z" fill="white" stroke="#4A63CE" stroke-width="0.50595" stroke-linecap="round" stroke-linejoin="round"/>
<path opacity="0.24" d="M253.112 199.462L204.108 171.822V162.035L253.112 189.675V199.462Z" fill="#4A63CE" stroke="#4A63CE" stroke-width="0.50595" stroke-linecap="round" stroke-linejoin="round"/>
<path d="M200.025 141.4L151.019 113.758V67.9391L200.025 95.5791V141.4Z" fill="white" stroke="#FF7F0B" stroke-width="1.26488" stroke-linecap="round" stroke-linejoin="round"/>
<path opacity="0.24" d="M253.112 205.53L204.108 177.89V174.622L253.112 202.264V205.53Z" fill="#4A63CE" stroke="#4A63CE" stroke-width="0.50595" stroke-linecap="round" stroke-linejoin="round"/>
<path d="M184.735 128.221L153.462 110.584V108.499L184.735 126.137V128.221Z" fill="#FF7F0B"/>
<path d="M252.342 179.932L247.525 145.401L237.247 171.333L252.342 179.932Z" fill="#4A63CE"/>
<path d="M237.536 170.933L234.417 148.565L227.756 165.363L237.536 170.933Z" fill="#FF7F0B"/>
<path d="M227.752 165.513L224.633 143.145L220.094 153.496L215.197 148.369L195.755 147.708L227.752 165.513Z" fill="#4A63CE"/>
<path d="M253.11 133.008V180.263L190.041 144.341" stroke="#4A63CE" stroke-width="0.50595" stroke-linecap="round" stroke-linejoin="round"/>
<path d="M197.23 118.723L194.667 109.097L190.03 106.471L183.888 98.591L176.248 95.6033L167.412 100.82L162.496 88.6491L156.567 84.2701L153.708 74.6722" stroke="white" stroke-width="0.50595" stroke-linecap="round" stroke-linejoin="round"/>
<path d="M176.794 97.1353C177.222 96.8924 177.24 96.1164 176.834 95.4021C176.428 94.6877 175.753 94.3054 175.325 94.5483C174.897 94.7911 174.88 95.5671 175.285 96.2815C175.691 96.9958 176.366 97.3781 176.794 97.1353Z" fill="white"/>
<path d="M163.308 90.1532C163.736 89.9104 163.754 89.1344 163.348 88.42C162.943 87.7056 162.267 87.3234 161.839 87.5662C161.412 87.8091 161.394 88.585 161.8 89.2994C162.205 90.0138 162.881 90.3961 163.308 90.1532Z" fill="white"/>
<path d="M168.144 102.045C168.572 101.802 168.59 101.026 168.184 100.312C167.778 99.5977 167.103 99.2155 166.675 99.4583C166.248 99.7011 166.23 100.477 166.635 101.192C167.041 101.906 167.717 102.288 168.144 102.045Z" fill="white"/>
<path d="M157.49 85.5276C157.918 85.2848 157.936 84.5088 157.53 83.7944C157.124 83.08 156.449 82.6978 156.021 82.9406C155.593 83.1835 155.576 83.9595 155.981 84.6738C156.387 85.3882 157.062 85.7705 157.49 85.5276Z" fill="white"/>
<path d="M184.565 99.9248C184.993 99.682 185.01 98.906 184.605 98.1916C184.199 97.4772 183.524 97.095 183.096 97.3378C182.668 97.5807 182.65 98.3566 183.056 99.071C183.462 99.7854 184.137 100.168 184.565 99.9248Z" fill="white"/>
<path d="M169.173 97.9097C169.856 97.522 169.884 96.2829 169.236 95.142C168.588 94.0012 167.51 93.3907 166.827 93.7784C166.144 94.1662 166.116 95.4053 166.763 96.5461C167.411 97.6869 168.49 98.2974 169.173 97.9097Z" fill="#FF7F0B"/>
<path d="M181.637 112.029C182.32 111.641 182.348 110.402 181.7 109.261C181.053 108.12 179.974 107.51 179.291 107.898C178.608 108.285 178.58 109.525 179.228 110.665C179.876 111.806 180.954 112.417 181.637 112.029Z" fill="#FF7F0B"/>
<path d="M189.498 113.063C190.181 112.676 190.209 111.436 189.562 110.296C188.914 109.155 187.835 108.544 187.152 108.932C186.469 109.32 186.441 110.559 187.089 111.7C187.737 112.841 188.815 113.451 189.498 113.063Z" fill="#FF7F0B"/>
<path d="M190.771 107.621C191.199 107.378 191.217 106.602 190.811 105.888C190.405 105.174 189.73 104.791 189.302 105.034C188.874 105.277 188.857 106.053 189.262 106.767C189.668 107.482 190.343 107.864 190.771 107.621Z" fill="white"/>
<path d="M195.297 110.411C195.724 110.168 195.742 109.392 195.336 108.678C194.931 107.963 194.255 107.581 193.828 107.824C193.4 108.067 193.382 108.843 193.788 109.557C194.193 110.271 194.869 110.654 195.297 110.411Z" fill="white"/>
<path d="M153.708 90.4173L168.216 95.8285L180.64 110.185L188.406 110.891L197.23 126.729" stroke="#FF7F0B" stroke-width="1.26488" stroke-linecap="round" stroke-linejoin="round"/>
</g>
<defs>
<clipPath id="clip0_2_422">
<rect width="331" height="269.765" fill="white"/>
</clipPath>
</defs>
</svg>
