<svg width="155" height="149" viewBox="0 0 155 149" fill="none" xmlns="http://www.w3.org/2000/svg">
<g clip-path="url(#clip0_1281_2386)">
<path opacity="0.4" d="M99.2308 148.909L9.70543 121.958L25.1551 106.891L65.2184 117.735L73.7022 121.013L79.7986 113.262L0 89.8929L16.265 75.3184L90.8653 101.679L136.966 130.104L140.225 138.657L91.8545 120.456L89.6565 127.376C89.6565 127.376 94.4458 148.167 94.5028 144.991C94.5599 141.815 99.2308 148.909 99.2308 148.909Z" fill="url(#paint0_linear_1281_2386)"/>
<path d="M136.354 129.645C137.604 130.598 148.198 139.588 148.198 139.588C148.198 139.588 142.512 139.337 140.226 138.657C137.939 137.977 129.768 134.652 129.768 134.652L132.891 128.975L136.354 129.645Z" fill="#383C66"/>
<path d="M127.446 24.2776L131.779 42.266L145.491 58.8817C145.491 58.8817 142.193 61.7239 141.945 64.1071L123.089 47.9889L116.998 25.5448L122.157 17.9974C125.562 17.6696 126.937 22.1866 127.446 24.2776Z" fill="#DCE6F4"/>
<path opacity="0.42" d="M127.446 24.2776L131.779 42.266L145.491 58.8817C145.491 58.8817 142.193 61.7239 141.945 64.1071L123.089 47.9889L116.998 25.5448L122.157 17.9974C125.562 17.6696 126.937 22.1866 127.446 24.2776Z" fill="#8FA4F7"/>
<path d="M128.48 65.3897C128.527 60.8043 127.364 57.8167 127.364 57.8167C127.364 57.8167 105.766 54.0793 103.171 65.2615C102.551 67.8881 102.495 70.6165 103.007 73.2664L99.6777 97.8885L87.9668 120.676L91.5303 123.295L110.59 98.8706L117.706 80.3406C121.371 88.223 126.027 98.8706 126.027 98.8706L131.183 131.981C135.874 131.411 136.966 130.103 136.966 130.103L138.775 93.122L128.48 65.3897Z" fill="#8FA4F7"/>
<path opacity="0.3" d="M128.686 61.6361C129.167 63.1281 129.158 64.7351 128.66 66.2216C128.415 66.9428 124.542 68.1587 123.778 68.5022C122.059 69.2748 120.323 70.0117 118.554 70.6673C116.801 71.3282 115.012 71.8879 113.195 72.3436C111.627 72.7313 109.917 72.6287 109.362 74.4261C107.43 80.7358 105.794 87.1262 104.455 93.5975C104.197 94.8433 103.488 96.1845 102.395 96.8374C102.174 96.9906 101.911 97.0727 101.642 97.0725C101.226 97.0412 100.914 96.6848 100.687 96.3342C99.6894 94.7791 99.4243 92.842 99.554 90.9947C99.6837 89.1474 100.171 87.3472 100.545 85.5327C101.083 82.9282 101.391 80.2815 101.465 77.6232C101.522 75.5849 101.446 73.5181 101.923 71.5368C102.007 71.1905 102.118 70.8241 102.381 70.5875C102.643 70.3509 102.951 70.2782 103.277 70.2055C107.643 69.2078 112.341 69.2947 116.331 67.2593C120.158 65.3079 123.18 61.4808 127.449 61.0161C128.05 60.9505 128.901 61.0717 128.686 61.6361Z" fill="#4A63CE"/>
<path opacity="0.3" d="M117.244 80.8154C118.099 79.333 118.984 77.8692 119.9 76.4238C119.9 76.4238 126.069 89.1325 129.76 96.0642C131.117 98.6113 133.171 124.751 134.054 133.643C132.571 133.419 130.118 132.543 128.637 132.319C128.332 132.273 128.014 132.22 127.769 132.034C127.329 131.702 127.27 131.073 127.245 130.521C126.66 118.272 122.873 106.432 120.82 94.3366C120.038 89.7283 119.465 84.949 117.156 80.8867C117.458 81.0406 116.959 80.6643 117.244 80.8154Z" fill="#4A63CE"/>
<path d="M100.718 45.26C100.928 42.6387 101.298 40.0858 100.763 37.5244C100.234 34.9714 100.1 32.3527 100.363 29.7589C100.721 25.9717 102.97 25.8933 105.379 23.617C108.869 20.3186 114.138 20.5695 118.493 18.5526C119.348 18.1535 120.238 17.7358 121.185 17.676C121.697 17.6469 122.209 17.7229 122.689 17.8995C123.17 18.076 123.61 18.3492 123.981 18.7022C125.909 20.5552 126.037 25.0167 126.546 27.5325C127.295 31.2138 127.875 34.9245 128.287 38.6647C129.128 46.2775 129.261 53.9518 128.686 61.5892L128.988 60.6826C129.262 61.7388 127.651 63.12 126.796 63.7985C119.954 69.2406 110.924 71.8647 102.225 70.9439L103.327 70.6318C102.028 69.8649 101.662 68.8743 101.442 67.3819C100.369 60.0587 100.127 52.6377 100.718 45.26Z" fill="#DCE6F4"/>
<path opacity="0.3" d="M109.571 34.1613C108.4 39.8272 108.419 45.6627 108.442 51.4469C108.456 55.1016 108.473 58.7791 109.154 62.3697C109.439 63.8407 109.831 65.3102 110.58 66.6116C110.979 67.3086 111.508 67.9785 112.247 68.2893C112.987 68.6 113.815 68.5131 114.612 68.3933C119.44 67.6621 124.263 65.7848 127.583 62.2014C128.153 61.5871 128.806 61.1096 129.318 60.4468C129.415 60.3032 129.535 60.1761 129.673 60.0705C129.742 60.0183 129.824 59.9853 129.911 59.9748C129.997 59.9643 130.084 59.9766 130.164 60.0106C130.35 60.1076 130.412 60.337 130.45 60.5409C130.551 60.9357 130.581 61.3457 130.536 61.751C130.452 62.267 130.152 62.7232 129.807 63.118C129.462 63.5128 129.07 63.8634 128.749 64.2754C128.592 64.4749 128.464 64.7914 128.659 64.9539C124.91 68.5415 119.87 70.3575 114.903 71.8641C110.105 73.3209 104.984 74.6921 100.144 73.3807C99.4802 73.2011 98.7975 72.9531 98.3442 72.4328C97.9665 72.0052 97.7911 71.4351 97.6458 70.8792C96.633 67.0056 96.5646 62.9455 97.4462 59.0399C98.0163 56.527 98.9828 54.0668 99.0298 51.4854C99.0483 50.4876 98.9272 49.4899 99.0184 48.4921C99.1096 47.4943 99.4089 46.5493 99.7653 45.6243C101.382 41.4208 104.154 37.7846 106.892 34.1998C107.3 33.6667 107.803 33.0823 108.474 33.0723C109.146 33.0624 109.653 34.1128 109.045 34.4065C109.023 33.9646 109.595 34.6018 109.571 34.1613Z" fill="#8FA4F7"/>
<path opacity="0.42" d="M121.618 22.8611C121.657 23.5838 121.557 24.3563 121.104 24.9208C120.603 25.5423 119.778 25.7917 118.996 25.9499C115.742 26.6031 112.368 26.2731 109.303 25.002C108.2 24.543 107.022 23.8004 106.841 22.6188C106.727 21.8776 107.051 21.1221 107.543 20.5563C108.034 19.9904 108.683 19.5856 109.323 19.2007C110.463 18.5151 111.662 17.8594 112.976 17.6328C114.687 17.3477 116.423 17.8081 118.093 18.2714C120.498 18.9384 121.481 20.3282 121.618 22.8611Z" fill="#8FA4F7"/>
<path d="M111.509 8.23242C110.811 9.23019 111.039 16.3985 109.941 19.7552C109.447 21.2576 108.524 21.6167 108.524 21.6167C107.455 22.4249 107.812 23.246 109.077 23.6765C111.432 24.4761 114.903 25.337 118.099 24.9037C118.622 24.8337 119.12 24.633 119.546 24.32C119.972 24.0071 120.312 23.592 120.535 23.113C120.758 22.634 120.857 22.1065 120.822 21.5792C120.788 21.052 120.621 20.5418 120.338 20.0959L119.42 18.6534L119.022 9.28009L111.509 8.23242Z" fill="#FFA8A7"/>
<path d="M119.648 23.1134C118.845 23.6707 117.782 23.6836 116.824 23.4968C114.828 23.1077 113.077 21.9688 111.45 20.7558C110.944 20.3781 110.427 19.969 110.167 19.396C109.908 18.823 109.979 18.0405 110.504 17.6855C112.642 18.8501 114.958 20.0503 117.38 19.788C117.914 19.7295 118.443 19.6013 118.979 19.6055C121.046 19.6355 121.104 22.1028 119.648 23.1134Z" fill="#F28F8F"/>
<path d="M88.2145 69.1444C90.3254 68.034 92.8783 69.0603 95.0563 70.0438C97.2343 71.0273 99.8612 71.9467 101.878 70.6738C102.501 70.2804 102.991 69.7131 103.456 69.143C106.203 65.7691 106.982 63.8805 108.597 59.8424C108.481 59.362 108.694 59.7739 109.158 59.6C109.392 59.5197 109.647 59.5243 109.879 59.6132C110.11 59.702 110.303 59.8694 110.423 60.0861C110.696 60.6092 110.476 61.2421 110.247 61.7851C108.365 66.2437 107.431 68.5856 104.598 72.5083C103.5 74.0292 102.175 75.6071 100.322 75.9491C99.4023 76.1188 98.4572 75.9563 97.5364 75.7924L92.5476 74.91C91.7508 74.7675 90.9384 74.625 90.2242 74.2444C88.8487 73.5146 88.0391 72.0379 87.516 70.5698C87.335 70.0666 87.2309 69.3881 87.6814 69.0959C88.2002 68.7581 87.6643 69.4338 88.2145 69.1444Z" fill="#F9B7B7"/>
<path d="M101.9 57.8105C101.997 58.0956 102.266 58.3009 102.537 58.4477C103.263 58.8292 104.084 58.9919 104.9 58.916C105.717 58.8401 106.494 58.5289 107.137 58.0201C108.051 59.368 109.396 60.3656 110.951 60.8494C111.483 61.0134 112.181 61.0576 112.475 60.5843C112.566 60.4418 112.617 60.2465 112.775 60.1809C112.934 60.1154 113.116 60.2223 113.249 60.3377C114.482 61.4239 114.326 63.6859 112.964 64.5953C113.153 65.0301 113.169 65.5204 113.011 65.9671C112.852 66.4137 112.529 66.7834 112.108 67.0014C111.858 67.1211 111.58 67.181 111.342 67.3235C111.178 67.4233 111.038 67.5573 110.883 67.6699C109.662 68.5565 107.951 67.878 106.666 67.0855C106.356 66.8736 106.021 66.7003 105.669 66.5695C105.363 66.4851 105.051 66.4297 104.735 66.4042C102.452 66.1227 100.266 65.3146 98.3492 64.0437C97.6978 63.609 101.449 58.2367 101.9 57.8105Z" fill="#FFA8A7"/>
<path d="M106.529 63.5264L107.527 63.8714C107.686 63.1803 107.902 62.5034 108.171 61.8473C108.25 62.2526 108.243 62.6697 108.152 63.0723C108.061 63.4749 107.888 63.8542 107.643 64.1864C108.183 64.2491 108.662 64.7408 109.191 64.614C109.53 64.5342 109.761 64.2206 109.919 63.9112C110.241 63.2941 110.418 62.6116 110.436 61.9157C110.617 62.3919 110.606 62.9197 110.406 63.3881C110.756 63.5563 111.093 63.1316 111.215 62.7638C111.497 61.8989 111.528 60.9715 111.303 60.0898C111.272 59.9209 111.196 59.7634 111.083 59.6337C110.91 59.4938 110.697 59.4111 110.475 59.3971L109.178 59.1818C105.959 58.6502 107.777 61.6207 106.529 63.5264Z" fill="#F9B7B7"/>
<path d="M117.529 19.1783C117.405 19.1551 117.276 19.1812 117.171 19.251C116.47 19.5872 115.708 19.7786 114.931 19.8139C114.153 19.8492 113.377 19.7275 112.648 19.4563C112.33 19.3365 112.001 19.1712 111.851 18.8619C111.755 18.6094 111.727 18.3362 111.769 18.0694L111.837 17.1229C111.861 16.7851 111.904 16.4102 112.158 16.1836C112.342 16.0475 112.56 15.9634 112.788 15.9399C113.988 15.7156 115.208 15.6153 116.428 15.6405C116.743 15.6476 117.077 15.669 117.332 15.8515C117.654 16.0824 117.954 16.1964 118.21 16.4986C118.104 16.424 118.015 16.3266 117.951 16.2135L118.41 18.8548C118.425 18.9011 118.425 18.951 118.41 18.9973C118.382 19.0376 118.341 19.0672 118.294 19.0814C117.877 19.2523 117.439 19.3677 116.991 19.4249C117.101 19.4064 117.459 19.0814 117.529 19.1783Z" fill="#FF7F0B"/>
<path d="M94.5617 141.814L98.7153 145.426L102.028 147.707C102.151 147.795 102.243 147.919 102.29 148.063C102.338 148.206 102.339 148.361 102.292 148.505C102.246 148.649 102.156 148.774 102.034 148.863C101.911 148.952 101.764 149 101.613 149C99.6175 148.958 96.9464 148.827 96.3562 148.42C95.7148 147.978 93.4584 147.023 92.0045 146.424C91.6527 146.28 91.366 146.012 91.1989 145.67C91.0318 145.328 90.9959 144.937 91.098 144.571L91.6297 142.658L94.5617 141.814Z" fill="#383C66"/>
<path d="M99.0641 145.795C99.1065 145.822 99.1429 145.858 99.1713 145.9C99.1997 145.942 99.2195 145.989 99.2294 146.038C99.2423 146.239 98.9786 146.323 98.7776 146.323C97.2695 146.342 95.8399 145.689 94.5015 144.989C93.5336 144.482 92.5572 143.92 91.8873 143.058C91.4882 142.545 91.2302 141.766 91.6593 141.278C91.8802 141.025 92.2294 140.927 92.563 140.893C94.0311 140.742 97.9024 144.805 99.0641 145.795Z" fill="#FFA8A7"/>
<path d="M149.886 59.3545C150.808 59.4485 151.975 59.001 152.309 58.0887C153.131 58.2441 153.307 59.3915 152.791 60.1456C152.275 60.8996 151.365 61.2944 150.497 61.4954L154.833 63.8843C154.511 64.4545 153.733 64.664 153.154 64.5072C152.575 64.3504 152.156 63.9243 151.753 63.5095L154.319 65.6119L152.494 67.8298C150.646 67.2047 148.85 66.434 147.123 65.5249C147.566 66.1729 148.195 66.6702 148.928 66.9503C148.747 67.5846 147.8 67.4564 147.277 67.1513L142.726 64.4915C140.711 63.3142 138.504 60.1741 142.028 58.4294C144.682 57.1109 147.528 59.1193 149.886 59.3545Z" fill="#FFA8A7"/>
<path d="M89.0047 68.7065C89.5748 68.1464 90.4101 67.9026 91.2126 67.9083C92.0151 67.914 92.7991 68.1506 93.5474 68.4385C95.3224 69.1194 96.9671 70.1006 98.4094 71.3392C98.7411 72.4431 98.6647 73.6295 98.1941 74.6817C97.9846 75.1478 97.6425 75.6168 97.1408 75.7109C96.8669 75.741 96.5896 75.7113 96.3283 75.6239C95.2992 75.3616 92.3871 74.3524 91.5176 75.3388C91.5903 74.0232 90.9389 72.7902 90.3046 71.6328L89.1814 69.5845C89.0033 69.2596 88.8208 68.9047 88.8778 68.5398L89.0204 68.7621" fill="#FF7F0B"/>
<path d="M110.156 58.9665C110.307 59.0863 110.468 59.283 110.367 59.4469C110.326 59.4957 110.275 59.5341 110.217 59.5589C110.158 59.5837 110.095 59.5942 110.032 59.5894C109.836 59.6016 109.639 59.593 109.445 59.5638C109.147 59.5153 108.862 59.4013 108.567 59.33C108.274 59.2419 107.962 59.2499 107.674 59.3528C107.551 59.4069 107.442 59.4874 107.354 59.5887C107.265 59.69 107.201 59.8095 107.164 59.9387C107.125 60.0712 106.721 59.5581 106.701 59.511C106.61 59.2551 106.61 58.9759 106.701 58.7199C106.808 58.3679 107.001 58.0785 107.362 57.9645C108.299 57.6637 109.474 58.4263 110.156 58.9665Z" fill="#FFA8A7"/>
<path d="M117.406 80.842C117.609 80.3539 117.841 79.878 118.099 79.4166C118.357 78.9555 118.639 78.5082 118.944 78.0767C119.248 77.6442 119.575 77.2284 119.923 76.831C120.099 76.6324 120.278 76.4381 120.459 76.248C120.646 76.0613 120.833 75.876 121.03 75.6992C120.943 75.799 120.856 75.8988 120.767 75.9957L120.511 76.295C120.34 76.4945 120.171 76.6955 120.006 76.9008C119.68 77.3113 119.36 77.729 119.06 78.158C118.759 78.5871 118.471 79.026 118.194 79.4722C117.918 79.9183 117.66 80.3802 117.406 80.842Z" fill="#4A63CE"/>
<path style="mix-blend-mode:multiply" opacity="0.4" d="M100.186 51.6953C99.4231 45.4693 101.394 39.075 105.136 34.0919C105.706 33.3221 107.063 31.0757 108.168 31.2411C109.683 31.4677 109.238 33.7882 109.113 34.7618C108.482 39.5699 106.599 44.1279 103.652 47.9794C103.246 48.5082 100.14 51.2905 100.186 51.6953Z" fill="url(#paint1_linear_1281_2386)"/>
<path d="M104.635 26.0503C100.929 25.6141 100.237 27.8434 95.5021 35.2554C90.767 42.6674 83.1013 51.7542 83.9864 54.3555C84.8716 56.9569 85.9905 59.6722 90.2011 61.233C90.5212 61.3625 90.8705 61.4027 91.2116 61.3492C91.5528 61.2957 91.873 61.1506 92.1382 60.9294C93.4699 61.9666 94.9144 62.8503 96.4443 63.5635C97.9951 64.2833 99.8823 64.805 101.352 63.9327C102.643 63.1658 103.176 61.5323 103.171 60.0285C103.158 55.865 99.9806 52.474 96.9888 49.5762L96.7379 49.3368C100.089 45.722 108.983 35.9096 109.306 33.2385C109.702 29.9444 109.491 26.6204 104.635 26.0503Z" fill="#DCE6F4"/>
<path d="M84.3299 118.401L80.2305 127.971L83.2423 129.7L92.0968 117.734L84.3299 118.401Z" fill="#FFA8A7"/>
<path d="M83.7068 128.807C83.4217 129.302 83.4573 129.915 83.5058 130.485L83.7339 133.107C83.8066 133.954 83.8835 134.818 84.1928 135.603C84.7359 136.987 85.8263 137.612 86.817 138.605C88.1925 139.983 84.8927 139.603 84.18 139.318C81.2822 138.177 79.5817 135.163 77.7401 132.821C77.3325 132.301 76.9006 131.713 76.949 131.053C77.0046 130.298 77.6617 129.746 78.2604 129.286L80.3529 127.689" fill="#383C66"/>
<path d="M83.6161 130.133C83.7843 132.495 83.9724 134.931 85.05 137.039C84.4385 137.07 83.8727 136.725 83.3937 136.343C82.3815 135.523 81.5642 134.487 81.0009 133.312C80.4376 132.136 80.1425 130.851 80.1367 129.547C80.1367 128.793 80.2493 128.012 80.6598 127.379C81.0704 126.746 81.8401 126.305 82.5784 126.459C83.3167 126.612 83.7957 127.329 83.9311 128.041C84.0751 128.805 83.5591 129.326 83.6161 130.133Z" fill="#FFA8A7"/>
<path d="M91.5299 123.295C91.8349 124.357 94.5603 141.813 94.5603 141.813L91.5228 142.853L85.2383 124.401L91.5299 123.295Z" fill="#FFA8A7"/>
<path d="M80.5103 82.6776C79.772 83.8179 77.6054 91.5036 76.753 94.3928C75.9006 97.2821 71.0059 120.762 71.0059 120.762C71.0059 120.762 79.0664 124.172 82.0469 124.538C85.0273 124.905 99.5662 122.27 102.346 118.174C102.346 118.174 98.3176 109.138 98.1865 102.992C98.0553 96.8459 94.1028 85.6623 92.7159 81.7539C92.7159 81.7539 92.2441 83.8578 88.1546 84.8128C84.3902 85.6979 80.6942 83.6881 80.5103 82.6776Z" fill="#FF7F0B"/>
<path opacity="0.2" d="M78.8553 97.0573C80.4446 98.5069 82.5741 99.1654 84.5568 100.001C86.5154 100.828 88.3815 101.859 90.1244 103.077C90.7288 103.504 91.3374 103.966 91.6923 104.616C92.1328 105.434 92.0986 106.415 92.0544 107.343C91.909 110.31 91.7664 113.275 91.6268 116.24C91.5569 117.651 91.4842 119.091 91.8662 120.454C92.2482 121.816 93.1348 123.113 94.4618 123.602C91.363 124.942 88.1902 126.3 84.8191 126.523C83.5862 126.604 82.1679 126.442 81.4424 125.441C80.8223 124.586 80.9335 123.415 81.0732 122.366L82.4102 112.285L78.5531 124.781C78.3122 125.561 77.7763 126.524 76.9852 126.336C76.4692 126.215 75.9333 125.623 75.5342 125.968C75.1365 125.591 75.212 124.949 75.3161 124.41C77.859 111.381 80.4199 98.3558 82.9989 85.3335C82.071 84.8731 81.0034 84.3571 80.0398 83.9637C79.7334 83.8383 79.377 83.7172 79.0834 83.8711C78.8211 84.0136 78.7042 84.3129 78.6102 84.5937C77.8191 86.9371 77.0266 89.2875 76.4721 91.7007C75.929 94.0854 75.6297 96.5185 75.1892 98.9259C74.6547 101.852 73.9149 104.739 73.111 107.605C72.2748 110.591 71.3687 113.557 70.3928 116.502C69.0629 120.522 67.5848 124.697 68.2006 128.885C68.4001 130.233 68.8335 131.58 69.693 132.638C70.8418 134.053 72.605 134.791 74.2955 135.476C76.4336 136.344 78.6073 137.22 80.9007 137.483C82.4231 137.656 83.9625 137.555 85.4933 137.595C86.6821 137.625 87.8808 137.738 89.0568 137.557C90.5477 137.323 91.9275 136.617 93.1747 135.769C97.9455 132.531 101.074 126.992 101.385 121.23C101.713 115.145 99.0886 109.239 99.0387 103.144C99.0259 101.61 99.1114 99.8853 98.0609 98.7664C97.3639 98.0252 96.1395 97.368 96.4346 96.3945C94.3127 96.6223 92.2376 97.1702 90.2798 98.0194C89.7495 98.2503 89.2221 98.5055 88.6534 98.6166C85.4762 99.241 82.8877 95.3383 79.6564 95.5492C79.0463 95.5877 78.3735 95.8443 78.1526 96.413C77.9317 96.9817 78.3108 97.3352 78.8553 97.0573Z" fill="#4A63CE"/>
<path d="M104.954 88.3972L88.6445 97.8133C88.6445 97.8133 93.049 97.0692 93.726 101.361C94.4031 105.653 91.588 119.128 95.2255 120.954C98.8631 122.78 100.994 121.55 100.994 121.55L118.811 111.262C118.811 111.262 112.94 113.755 111.458 109.915C109.975 106.075 111.458 93.8721 110.439 91.7383C109.419 89.6045 108.449 88.0294 104.954 88.3972Z" fill="#DCE6F4"/>
<path d="M82.1543 62.9414C82.1543 62.9414 81.8992 69.1333 81.8094 69.4982C81.7196 69.8631 79.868 70.2109 79.3477 70.6385C78.8275 71.0661 82.016 76.0862 83.6438 76.8317C85.2716 77.5772 90.3175 75.7 90.6767 73.1927C91.0059 70.8836 89.2513 69.0819 88.5671 68.4533C88.1138 68.3564 87.3812 68.4434 87.1759 68.4149L87.0334 66.0202C84.8297 65.3047 82.1543 62.9414 82.1543 62.9414Z" fill="#F9B7B7"/>
<path d="M80.9307 69.9721C79.5438 70.183 77.9545 70.9185 77.7336 71.6825C77.477 72.5677 76.9154 76.7441 78.107 79.9241C79.2986 83.1042 80.0085 83.8896 80.6941 85.2608C80.6941 85.2608 88.1161 86.4865 92.9652 83.4989C92.9652 83.4989 92.6288 83.0485 92.8141 81.2355C93.3215 76.2908 92.6716 72.1828 88.9014 68.4369C88.4486 68.3915 87.9928 68.3843 87.5388 68.4156C87.5388 68.4156 88.9214 69.6443 89.6056 71.2108C90.2342 72.6475 89.7581 74.1471 88.5494 74.6802C86.7933 75.4556 85.509 74.9852 84.0252 73.383C83.016 72.2869 82.5357 70.8772 80.9307 69.9721Z" fill="#FF7F0B"/>
<path d="M89.2914 69.0332C89.7561 69.3596 90.064 69.9711 89.8772 70.507C90.1999 70.5575 90.5019 70.6981 90.7483 70.9125C90.9947 71.1269 91.1757 71.4064 91.2704 71.719C91.365 72.0317 91.3696 72.3646 91.2835 72.6797C91.1975 72.9948 91.0242 73.2793 90.7838 73.5003C91.2584 74.3185 91.3539 75.4231 90.7838 76.1743C90.2136 76.9255 88.8766 77.0296 88.3606 76.2356C88.3806 77.2462 87.2303 78.0259 86.2454 77.8036C85.2604 77.5812 84.5819 76.5691 84.5349 75.56C84.3924 75.7809 84.0602 75.7254 83.8222 75.6142C83.2259 75.3216 82.7307 74.8572 82.4005 74.2808C82.0703 73.7044 81.9201 73.0424 81.9692 72.38C81.5127 72.3484 81.0817 72.1576 80.7514 71.8409C80.4211 71.5241 80.2125 71.1015 80.1618 70.6467C80.1455 70.5481 80.1652 70.4469 80.2174 70.3617C80.2777 70.2982 80.3549 70.2532 80.4398 70.2319C81.9873 69.6843 83.5691 69.2387 85.1749 68.8978C86.5205 68.6013 88.0641 68.1737 89.2914 69.0332Z" fill="white"/>
<path d="M87.5566 67.2011L87.4426 65.2626L85.8747 64.7466L82.1174 62.9492C82.1174 62.9492 82.0775 64.3361 82.106 64.9918C82.106 64.9918 82.4994 67.1184 85.286 68.4355C85.7749 68.6693 87.3998 68.407 87.5566 67.2011Z" fill="#F28F8F"/>
<path d="M77.8453 71.4194C76.4627 72.0423 72.2336 90.9756 72.3889 92.3012C72.5443 93.6268 84.2595 99.4766 88.0567 101.19C88.0567 101.19 91.0657 100.885 89.961 99.2101C89.676 98.7825 75.9923 90.5024 75.9923 90.5024C75.9923 90.5024 81.1436 78.0859 81.2306 75.8309C81.3175 73.576 80.7901 70.0938 77.8453 71.4194Z" fill="#F9B7B7"/>
<path d="M85.5175 50.7895C85.5175 50.7895 85.0499 48.5901 82.346 48.6742C77.2716 48.831 72.4909 61.4285 73.979 66.8749C73.979 66.8749 75.832 68.3944 77.7905 68.4628L78.5217 66.4473L78.6015 68.4044C78.6015 68.4044 80.684 68.9845 81.7801 68.4471C82.8762 67.9098 81.4437 68.4086 81.4437 68.4086L85.5175 50.7895Z" fill="#4D4F80"/>
<path d="M95.2309 58.2275C95.6585 54.3119 93.7043 50.7442 89.7688 49.926C88.1875 49.5923 86.5414 49.7637 85.0628 50.4162C83.5843 51.0687 82.3481 52.1692 81.5289 53.5623C80.7098 54.9554 80.3489 56.5707 80.4975 58.1799C80.646 59.7892 81.2964 61.3111 82.3568 62.5307C82.3568 62.5307 82.344 63.9817 82.5122 64.3338C83.4572 66.3023 86.8282 68.2992 88.0256 68.637C89.0632 68.9307 90.2221 68.1994 91.6304 66.8482C94.5652 64.033 95.0556 60.1703 95.2309 58.2275Z" fill="#F9B7B7"/>
<path d="M95.4764 55.0478C94.997 53.5736 94.081 52.2798 92.8498 51.338C91.6185 50.3962 90.1301 49.8507 88.5818 49.7738C86.9383 49.6983 85.3132 50.1455 83.9397 51.0514C82.5663 51.9572 81.5152 53.275 80.9375 54.8154C80.4611 56.1113 80.3421 57.5115 80.5929 58.8693C80.8437 60.227 81.455 61.4922 82.3629 62.5324C82.3487 62.2573 81.1627 58.8122 83.3493 58.7025C83.5702 59.1586 83.7284 60.3017 83.5859 60.899C83.5859 60.899 86.964 54.6273 86.9754 53.6053C88.6008 54.7793 90.5318 55.4566 92.5344 55.5552C93.947 55.6279 94.9918 55.3656 95.4764 55.0478Z" fill="#4D4F80"/>
<path d="M86.9688 53.6058C86.9688 53.6058 87.1883 56.2399 86.2305 58.4521C86.2305 58.4521 88.2488 59.5382 90.4225 59.9145C92.5962 60.2908 94.6203 60.5916 96.325 59.3786C97.1247 58.3466 97.7162 51.8853 92.0489 50.7949L86.9688 53.6058Z" fill="#4D4F80"/>
<path d="M82.3561 62.5392C82.3561 62.5392 82.0711 62.8656 81.3384 62.7074C79.9615 62.4123 79.0393 59.4618 80.5944 58.0378C81.5651 57.147 83.0175 57.9338 83.3425 58.7092L82.3561 62.5392Z" fill="#F9B7B7"/>
<path d="M123.469 10.0551C123.484 4.3536 121.42 2.19272 117.228 1.57126C112.766 0.909878 110.007 3.37009 109.34 7.87572C108.948 10.5113 110.233 16.9825 110.431 17.3445C111.542 19.38 115.211 21.2914 116.492 21.5765C117.601 21.8245 118.773 20.9736 120.184 19.4484C123.11 16.2712 123.399 12.1319 123.469 10.0551Z" fill="#FFA8A7"/>
<path d="M119.133 21.7122C118.993 21.7655 118.845 21.7949 118.696 21.7992L116.843 21.9531C116.643 21.9688 115.618 21.7678 115.327 21.6153C114.432 21.1468 113.558 20.6394 112.703 20.093C111.884 19.567 111.063 18.9869 110.535 18.1687C109.868 17.1296 109.756 15.8411 109.66 14.6053C109.731 14.6366 109.714 14.5212 109.649 14.5625L109.747 14.705C110.249 14.1705 110.475 13.4222 110.511 12.691C110.547 11.9598 110.411 11.23 110.27 10.5101C110.202 10.1552 110.128 9.78746 109.901 9.50524C109.592 9.11753 109.203 9.17455 108.792 9.25437C108.74 7.8038 108.825 6.35158 109.046 4.91694C109.28 3.47873 109.747 2.05764 110.594 0.873148C110.949 0.712402 111.318 0.581726 111.696 0.482559C115.139 -0.250087 119.95 -0.0305672 122.601 1.45611C124.52 2.5337 123.585 5.47711 123.709 7.12343C123.686 6.99657 123.397 7.93449 123.29 7.92308C122.777 6.4977 123.043 5.19061 121.864 4.23132C122.047 4.87189 122.058 5.54898 121.898 6.1955C120.021 6.61029 116.91 6.45493 115.012 6.12709C114.879 6.11498 114.751 6.06831 114.642 5.99168C114.535 5.88279 114.463 5.74419 114.437 5.594C114.325 5.18477 114.244 4.76791 114.194 4.34679L113.32 4.10876C112.74 5.1835 111.718 6.05156 111.495 7.2446C111.433 7.70339 111.433 8.16843 111.495 8.62722L111.971 14.3615C112.113 14.487 113.037 15.2994 113.226 15.3265C113.419 14.8633 115.258 14.1791 115.759 14.1862L119.773 14.2746C120.723 14.2959 120.725 14.4442 121.411 15.1526C121.592 15.3408 121.796 15.5802 122.054 15.536C122.198 15.4991 122.323 15.407 122.4 15.2795C122.705 14.8518 123.05 14.0622 123.087 13.5362C123.087 13.5362 123.24 13.7771 122.538 16.7134C122.328 17.6 122.062 18.5122 121.457 19.195C121.348 19.2078 119.276 21.6481 119.133 21.7122Z" fill="#4D4F80"/>
<path d="M107.998 12.5266C108.16 13.2792 108.56 13.9597 109.139 14.4666C109.369 14.6735 109.653 14.8109 109.958 14.8628C110.056 14.8803 110.157 14.8631 110.243 14.8144C110.376 14.7231 110.395 14.5379 110.4 14.3768C110.44 13.1709 111.084 10.3615 109.973 9.45066C107.946 7.78439 107.712 11.3364 107.998 12.5266Z" fill="#FFA8A7"/>
<path d="M80.28 84.142C80.595 84.0865 81.0184 84.2761 81.2849 84.3488C82.2656 84.6153 86.6757 85.4092 90.1223 83.9211C91.2056 83.455 92.2604 82.8193 92.8833 81.8145C93.1683 82.3561 93.3109 82.7324 92.9574 83.2284C92.6277 83.6438 92.2364 84.0062 91.7971 84.3032C90.2916 85.1852 88.6232 85.7534 86.8923 85.9739C85.1615 86.1944 83.4039 86.0625 81.7254 85.586C81.2906 85.462 80.2415 85.2838 79.9222 84.9873C79.6999 84.7806 79.7512 84.3616 80.1446 84.1748C80.1881 84.1581 80.2337 84.1471 80.28 84.142Z" fill="#627BFD"/>
<path style="mix-blend-mode:multiply" opacity="0.4" d="M80.3893 83.7783C80.3138 83.9422 80.2382 84.1489 80.3494 84.2914C80.5247 84.5138 80.9609 84.3342 81.122 84.5679C80.4435 86.3867 79.3659 88.0245 78.2969 89.6452C78.6518 87.8594 79.1802 86.1126 79.8748 84.4297C79.9377 84.3033 79.975 84.1657 79.9845 84.0249C79.9647 83.8308 79.8982 83.6445 79.7907 83.4818C78.8143 81.6459 79.0224 79.4251 79.3631 77.374C79.6253 75.7994 79.9503 74.2358 80.338 72.6831C80.7257 71.1323 81.3942 73.5811 81.4783 73.9759C82.1767 77.2754 81.7954 80.7121 80.3908 83.7783H80.3893Z" fill="url(#paint2_linear_1281_2386)"/>
<path d="M119.648 23.1134C118.845 23.6707 117.782 23.6836 116.824 23.4968C114.828 23.1077 113.077 21.9688 111.45 20.7558C110.944 20.3781 110.427 19.969 110.167 19.396C109.908 18.823 109.979 18.0405 110.504 17.6855C112.642 18.8501 114.958 20.0503 117.38 19.788C117.914 19.7295 118.443 19.6013 118.979 19.6055C121.046 19.6355 121.104 22.1028 119.648 23.1134Z" fill="#F28F8F"/>
<path d="M79.5365 70.7188C80.6069 70.7188 81.9596 73.5125 81.6746 75.7832C81.3895 78.0538 76.8468 89.1304 76.8468 89.1304C76.8468 89.1304 75.8105 88.3864 74.9068 88.1198C73.6767 87.7578 72.964 88.1312 72.6348 88.7042C72.6348 88.7042 72.8414 87.9046 72.9669 85.7694C73.1707 82.2644 73.5043 76.3405 74.9325 73.1947C75.9174 71.0324 77.6307 70.7188 79.5365 70.7188Z" fill="#FF7F0B"/>
<path d="M78.0325 87.1422L76.4775 89.7935C76.4775 89.7935 73.7692 87.9946 72.6289 88.7045L72.961 85.7696C72.961 85.7696 75.9501 84.3485 78.0325 87.1422Z" fill="white"/>
<path d="M99.8881 72.4589C99.9004 72.7752 99.8727 73.0918 99.8054 73.4011C99.6839 74.0308 99.4877 74.6437 99.221 75.227C99.0785 75.5576 98.8789 75.8969 98.5568 76.0665C98.0468 75.8921 97.5134 75.796 96.9746 75.7814C98.2959 74.6326 98.7236 72.5715 97.9724 70.9922C99.0942 71.1903 99.8068 71.1404 99.8881 72.4589Z" fill="white"/>
<path d="M96.5762 103.746V107.787C96.5756 107.911 96.6073 108.033 96.668 108.14C96.7288 108.248 96.8165 108.338 96.9227 108.402C97.0288 108.465 97.1497 108.5 97.2734 108.503C97.397 108.506 97.5193 108.476 97.6281 108.417L100.848 106.695C101.079 106.572 101.272 106.388 101.407 106.164C101.541 105.94 101.612 105.683 101.612 105.421V101.423C101.613 101.3 101.581 101.178 101.521 101.071C101.461 100.964 101.374 100.874 101.268 100.81C101.163 100.746 101.043 100.711 100.92 100.707C100.797 100.704 100.675 100.732 100.566 100.79L97.353 102.465C97.1188 102.587 96.9225 102.771 96.7856 102.997C96.6486 103.223 96.5762 103.482 96.5762 103.746Z" fill="white" stroke="#4D4F80" stroke-miterlimit="10"/>
<path opacity="0.3" d="M103.729 101.694V103.313L108.763 100.621V99.0684L103.729 101.694Z" fill="#4A63CE"/>
<path opacity="0.3" d="M101.363 92.8303L102.221 93.6784L107.427 90.8946L106.398 89.8926L101.363 92.8303Z" fill="#4A63CE"/>
<path opacity="0.3" d="M103.729 109.514V111.135L108.763 108.441V106.889L103.729 109.514Z" fill="#4A63CE"/>
<path opacity="0.3" d="M103.729 111.635V113.256L108.763 110.563V109.01L103.729 111.635Z" fill="#4A63CE"/>
<path d="M96.5762 112.776V116.817C96.5756 116.941 96.6073 117.063 96.668 117.17C96.7288 117.278 96.8165 117.368 96.9227 117.432C97.0288 117.495 97.1497 117.53 97.2734 117.533C97.397 117.536 97.5193 117.506 97.6281 117.447L100.848 115.725C101.079 115.602 101.272 115.418 101.406 115.194C101.541 114.969 101.612 114.713 101.612 114.451V110.46C101.613 110.337 101.581 110.216 101.521 110.108C101.461 110.001 101.374 109.911 101.268 109.847C101.163 109.783 101.043 109.748 100.92 109.744C100.797 109.741 100.675 109.769 100.566 109.827L97.353 111.502C97.1199 111.624 96.9243 111.806 96.7874 112.031C96.6505 112.256 96.5775 112.513 96.5762 112.776Z" fill="white" stroke="#4D4F80" stroke-miterlimit="10"/>
<path d="M98.1152 106.267L99.1002 103.1L101.364 107.799" stroke="#4D4F80" stroke-width="3" stroke-linecap="round" stroke-linejoin="round"/>
<path d="M98.1152 115.736L99.1002 112.568L101.364 117.268" stroke="#4D4F80" stroke-width="3" stroke-linecap="round" stroke-linejoin="round"/>
<path d="M93.7816 95.9952C93.7171 96.0303 93.6639 96.083 93.6284 96.1473C93.5928 96.2116 93.5763 96.2847 93.5808 96.358C93.5853 96.4313 93.6106 96.5018 93.6537 96.5612C93.6968 96.6207 93.756 96.6666 93.8243 96.6936C94.537 96.9787 95.5134 97.4775 95.7101 98.0691C96.0294 99.0298 95.6232 99.6113 96.3216 99.637C96.8176 99.6584 98.7918 98.5466 99.8851 97.9023C100.196 97.7281 100.438 97.4534 100.571 97.1234C100.705 96.7933 100.722 96.4276 100.621 96.0863C100.578 95.9488 100.508 95.8211 100.417 95.7101C99.9221 95.1285 98.3499 94.0509 97.623 94.1422C97.1056 94.2049 94.9447 95.358 93.7816 95.9952Z" fill="white" stroke="#4D4F80" stroke-miterlimit="10"/>
<path d="M86.6795 99.8829C86.6481 100.047 87.9395 100.989 88.0978 101.046C88.9601 101.353 89.9508 101.675 90.8644 101.673C91.1403 101.68 91.416 101.653 91.6855 101.593C91.8934 101.536 92.0968 101.463 92.2941 101.375C92.7272 101.218 93.1378 101.005 93.5157 100.741C93.7309 100.576 93.2562 100.819 93.5157 100.741C93.7751 100.663 93.3589 99.3698 92.6889 99.0376C92.6034 99.2942 92.4723 99.3014 92.2071 99.3513C92.0738 99.3747 91.9366 99.3629 91.8091 99.3172C91.6816 99.2714 91.5683 99.1933 91.4802 99.0904C91.4211 99.0268 91.3859 98.9447 91.3804 98.8581C91.3918 98.7847 91.421 98.7153 91.4655 98.6559C91.51 98.5965 91.5684 98.549 91.6356 98.5174C91.9819 98.3007 92.3853 98.1782 92.7117 97.9316C93.0381 97.685 94.78 96.9723 94.6146 96.5988C94.4963 96.3323 94.2155 96.1855 93.9547 96.0586C93.5826 96.8611 91.9263 97.1832 91.0754 97.4241C90.7062 97.5296 89.2623 98.6343 89.1312 98.2794C88.7934 98.5872 88.6294 98.1853 88.3201 98.5217C87.988 98.8838 87.6644 99.2771 87.539 99.7518C87.4136 100.226 86.5983 99.9699 86.6795 99.8829Z" fill="#F9B7B7"/>
</g>
<defs>
<linearGradient id="paint0_linear_1281_2386" x1="0" y1="112.115" x2="140.225" y2="112.115" gradientUnits="userSpaceOnUse">
<stop stop-color="#627BFD" stop-opacity="0"/>
<stop offset="0.09" stop-color="#627BFD" stop-opacity="0.02"/>
<stop offset="0.22" stop-color="#627BFD" stop-opacity="0.09"/>
<stop offset="0.37" stop-color="#627BFD" stop-opacity="0.21"/>
<stop offset="0.54" stop-color="#627BFD" stop-opacity="0.37"/>
<stop offset="0.72" stop-color="#627BFD" stop-opacity="0.57"/>
<stop offset="0.9" stop-color="#627BFD" stop-opacity="0.82"/>
<stop offset="1" stop-color="#627BFD" stop-opacity="0.96"/>
</linearGradient>
<linearGradient id="paint1_linear_1281_2386" x1="100.023" y1="41.4639" x2="109.271" y2="41.4639" gradientUnits="userSpaceOnUse">
<stop stop-color="#627BFD" stop-opacity="0"/>
<stop offset="0.05" stop-color="#627BFD" stop-opacity="0.05"/>
<stop offset="0.52" stop-color="#627BFD" stop-opacity="0.53"/>
<stop offset="0.85" stop-color="#627BFD" stop-opacity="0.84"/>
<stop offset="1" stop-color="#627BFD" stop-opacity="0.96"/>
</linearGradient>
<linearGradient id="paint2_linear_1281_2386" x1="3212.18" y1="72610.6" x2="3299.17" y2="72610.6" gradientUnits="userSpaceOnUse">
<stop stop-color="#627BFD" stop-opacity="0"/>
<stop offset="0.05" stop-color="#627BFD" stop-opacity="0.05"/>
<stop offset="0.52" stop-color="#627BFD" stop-opacity="0.53"/>
<stop offset="0.85" stop-color="#627BFD" stop-opacity="0.84"/>
<stop offset="1" stop-color="#627BFD" stop-opacity="0.96"/>
</linearGradient>
<clipPath id="clip0_1281_2386">
<rect width="154.838" height="148.917" fill="white" transform="translate(0 0.0839844)"/>
</clipPath>
</defs>
</svg>
