<svg width="20" height="20" viewBox="0 0 20 20" fill="none" xmlns="http://www.w3.org/2000/svg">
<path d="M9.81012 13.8061L3.17262 6.8399C3.06181 6.72367 3 6.56924 3 6.40865C3 6.24806 3.06181 6.09364 3.17262 5.9774L3.18012 5.9699C3.23384 5.91336 3.29849 5.86834 3.37016 5.83757C3.44183 5.8068 3.519 5.79094 3.59699 5.79094C3.67499 5.79094 3.75216 5.8068 3.82383 5.83757C3.89549 5.86834 3.96015 5.91336 4.01387 5.9699L10.2639 12.5299L16.5114 5.9699C16.5651 5.91336 16.6297 5.86834 16.7014 5.83757C16.7731 5.8068 16.8503 5.79094 16.9282 5.79094C17.0062 5.79094 17.0834 5.8068 17.1551 5.83757C17.2267 5.86834 17.2914 5.91336 17.3451 5.9699L17.3526 5.9774C17.4634 6.09364 17.5252 6.24806 17.5252 6.40865C17.5252 6.56924 17.4634 6.72367 17.3526 6.8399L10.7151 13.8061C10.6567 13.8674 10.5865 13.9162 10.5088 13.9495C10.431 13.9828 10.3472 14 10.2626 14C10.178 14 10.0943 13.9828 10.0165 13.9495C9.93869 13.9162 9.86849 13.8674 9.81012 13.8061Z" fill="#EF7D00"/>
</svg>
