<svg width="631" height="529" viewBox="0 0 631 529" fill="none" xmlns="http://www.w3.org/2000/svg">
<g clip-path="url(#clip0_1_268)">
<path d="M182.59 180.066L344.648 263.92" stroke="#627BFD" stroke-width="3" stroke-linecap="round" stroke-linejoin="round"/>
<path d="M588.289 226.15C590.387 226.15 592.087 224.626 592.087 222.747C592.087 220.867 590.387 219.344 588.289 219.344C586.192 219.344 584.492 220.867 584.492 222.747C584.492 224.626 586.192 226.15 588.289 226.15Z" fill="#627BFD"/>
<path d="M458.305 289.716L588.291 222.457" stroke="#627BFD" stroke-width="3" stroke-miterlimit="10"/>
<path style="mix-blend-mode:multiply" opacity="0.75" d="M343.174 443.507L0.988925 348.425L0 180.914L538.123 342.633L343.174 443.507Z" fill="url(#paint0_linear_1_268)"/>
<path d="M222.974 261L171.074 287.853V246.257L222.974 219.453V261Z" fill="#DCE6F4"/>
<path d="M119.176 261L171.075 287.853V246.257L119.176 219.453V261Z" fill="url(#paint1_linear_1_268)"/>
<path d="M222.975 219.451L171.075 192.652L119.176 219.451L171.075 246.255L222.975 219.451Z" fill="#F3F7FF"/>
<path d="M222.975 219.451L171.075 192.652L119.176 219.451L171.075 246.255L222.975 219.451Z" fill="#F3F7FF"/>
<path opacity="0.7" d="M139.238 219.461L171.075 203.023L202.912 219.461L171.075 235.884L139.238 219.461Z" fill="#4D4F80"/>
<path opacity="0.6" d="M119.176 228.266L171.075 256.362L222.975 229.749" stroke="#7D83AF" stroke-width="0.58" stroke-miterlimit="10"/>
<path d="M201.916 262.27C203.94 259.077 203.851 255.608 201.717 254.522C199.584 253.437 196.215 255.145 194.191 258.339C192.168 261.532 192.257 265.001 194.39 266.087C196.523 267.172 199.893 265.464 201.916 262.27Z" fill="#4D4F80"/>
<g style="mix-blend-mode:multiply" opacity="0.55">
<path d="M200.17 261.383C201.28 259.631 201.231 257.728 200.061 257.132C198.891 256.537 197.042 257.474 195.932 259.226C194.822 260.978 194.871 262.881 196.041 263.477C197.211 264.072 199.06 263.135 200.17 261.383Z" fill="#4D4F80"/>
</g>
<path d="M198.168 260.41L245.106 284.251" stroke="#627BFD" stroke-width="3" stroke-linecap="round" stroke-linejoin="round"/>
<path style="mix-blend-mode:multiply" opacity="0.75" d="M595.745 331.791L534.065 314.653L533.891 284.461L630.882 313.61L595.745 331.791Z" fill="url(#paint2_linear_1_268)"/>
<path d="M630.884 313.765L595.539 332.054V303.727L630.884 285.473V313.765Z" fill="#F9923E"/>
<path d="M560.195 313.765L595.54 332.054V303.727L560.195 285.473V313.765Z" fill="#FF7F0B"/>
<path d="M630.884 285.465L595.54 267.211L560.195 285.465L595.54 303.72L630.884 285.465Z" fill="#F3F7FF"/>
<path d="M630.884 285.465L595.54 267.211L560.195 285.465L595.54 303.72L630.884 285.465Z" fill="#FFA766"/>
<path d="M560.195 291.469L595.54 310.605L630.884 292.477" stroke="white" stroke-width="0.84" stroke-miterlimit="10"/>
<path d="M580.253 314.708C582.386 313.623 582.475 310.154 580.451 306.96C578.428 303.767 575.058 302.058 572.925 303.144C570.792 304.229 570.703 307.698 572.726 310.892C574.75 314.085 578.119 315.794 580.253 314.708Z" fill="#4D4F80"/>
<g style="mix-blend-mode:multiply" opacity="0.55">
<path d="M578.6 312.098C579.77 311.502 579.819 309.599 578.709 307.847C577.599 306.096 575.75 305.158 574.58 305.754C573.41 306.349 573.361 308.252 574.471 310.004C575.581 311.756 577.43 312.694 578.6 312.098Z" fill="#4D4F80"/>
</g>
<path d="M576.471 309.168L568.762 313.634C565.548 315.497 561.821 316.525 557.995 316.604C554.169 316.682 550.393 315.809 547.088 314.08L512.257 295.855C509.107 294.21 505.528 293.34 501.882 293.332C498.237 293.324 494.653 294.179 491.495 295.811L467.902 308.023" stroke="#627BFD" stroke-width="3" stroke-linecap="round" stroke-linejoin="round"/>
<path style="mix-blend-mode:multiply" opacity="0.75" d="M517.532 271.895L480.254 261.539L480.145 243.289L538.77 260.907L517.532 271.895Z" fill="url(#paint3_linear_1_268)"/>
<path d="M204.633 324.473L43.75 407.763" stroke="#627BFD" stroke-width="3" stroke-linecap="round" stroke-linejoin="round"/>
<path d="M43.7465 411.166C45.8436 411.166 47.5437 409.642 47.5437 407.762C47.5437 405.883 45.8436 404.359 43.7465 404.359C41.6493 404.359 39.9492 405.883 39.9492 407.762C39.9492 409.642 41.6493 411.166 43.7465 411.166Z" fill="#627BFD"/>
<path d="M23.5043 267.216C25.6015 267.216 27.3015 265.693 27.3015 263.813C27.3015 261.934 25.6015 260.41 23.5043 260.41C21.4071 260.41 19.707 261.934 19.707 263.813C19.707 265.693 21.4071 267.216 23.5043 267.216Z" fill="#627BFD"/>
<path d="M185.775 315.624L163.467 304.107C160.145 302.388 156.376 301.483 152.54 301.483C148.703 301.483 144.935 302.388 141.612 304.107L133.116 308.514C129.811 310.223 126.066 311.128 122.25 311.139C118.435 311.15 114.683 310.267 111.365 308.578L23.5312 263.848" stroke="#627BFD" stroke-width="3" stroke-linecap="round" stroke-linejoin="round"/>
<path d="M154.027 318.935L345.841 418.183L537.648 318.935L344.42 218.957L154.027 318.935Z" fill="#F3F7FF"/>
<path style="mix-blend-mode:multiply" opacity="0.75" d="M140.205 404.049L52.0108 375.267L51.8359 346.27L173.949 386.588L140.205 404.049Z" fill="url(#paint4_linear_1_268)"/>
<path style="mix-blend-mode:multiply" opacity="0.75" d="M516.606 416.889L453.167 396.186L453.047 375.332L540.881 404.329L516.606 416.889Z" fill="url(#paint5_linear_1_268)"/>
<path d="M228.064 452.754L176.164 479.607V457.954L228.064 431.102V452.754Z" fill="#DCE6F4"/>
<path d="M124.266 452.754L176.165 479.607V457.954L124.266 431.102V452.754Z" fill="url(#paint6_linear_1_268)"/>
<path d="M228.065 431.1L176.165 404.301L124.266 431.1L176.165 457.952L228.065 431.1Z" fill="#F3F7FF"/>
<path d="M228.065 431.1L176.165 404.301L124.266 431.1L176.165 457.952L228.065 431.1Z" fill="#F3F7FF"/>
<path opacity="0.7" d="M144.328 431.111L176.165 414.668L208.002 431.111L176.165 447.583L144.328 431.111Z" fill="#4D4F80"/>
<path opacity="0.6" d="M124.266 441.211L176.165 468.064L228.065 441.446" stroke="#7D83AF" stroke-width="0.58" stroke-miterlimit="10"/>
<path style="mix-blend-mode:multiply" opacity="0.75" d="M480.518 267.743L389.428 242.433L389.16 197.84L532.418 240.89L480.518 267.743Z" fill="url(#paint7_linear_1_268)"/>
<path d="M530.583 239.516L478.684 266.369V224.773L530.583 197.969V239.516Z" fill="#DCE6F4"/>
<path d="M426.793 239.516L478.687 266.369V224.773L426.793 197.969V239.516Z" fill="url(#paint8_linear_1_268)"/>
<path d="M530.586 197.967L478.687 171.168L426.793 197.967L478.687 224.771L530.586 197.967Z" fill="#F3F7FF"/>
<path d="M530.586 197.967L478.687 171.168L426.793 197.967L478.687 224.771L530.586 197.967Z" fill="#F3F7FF"/>
<path opacity="0.7" d="M446.848 197.978L478.685 181.535L510.527 197.978L478.685 214.401L446.848 197.978Z" fill="#4D4F80"/>
<path opacity="0.6" d="M426.793 206.777L478.687 234.874L530.586 208.261" stroke="#7D83AF" stroke-width="0.58" stroke-miterlimit="10"/>
<path style="mix-blend-mode:multiply" opacity="0.75" d="M55.8825 368.41L18.6093 358.054L18.5 339.805L77.1253 357.423L55.8825 368.41Z" fill="url(#paint9_linear_1_268)"/>
<path d="M77.1247 357.518L55.7617 368.574V351.451L77.1247 340.414V357.518Z" fill="#F9923E"/>
<path d="M34.3906 357.518L55.7591 368.574V351.451L34.3906 340.414V357.518Z" fill="#FF7F0B"/>
<path d="M77.122 340.414L55.7591 329.387L34.3906 340.414L55.7591 351.451L77.122 340.414Z" fill="#F3F7FF"/>
<path d="M77.122 340.414L55.7591 329.387L34.3906 340.414L55.7591 351.451L77.122 340.414Z" fill="#FFA766"/>
<path d="M34.3906 344.043L55.7591 355.609L77.122 344.655" stroke="white" stroke-width="0.51" stroke-miterlimit="10"/>
<path d="M538.769 261.002L517.406 272.054V254.93L538.769 243.898V261.002Z" fill="#8FA4F7"/>
<g style="mix-blend-mode:multiply">
<path d="M538.769 261.002L517.406 272.054V254.93L538.769 243.898V261.002Z" fill="#DCE6F4"/>
</g>
<path d="M496.047 261.002L517.41 272.054V254.93L496.047 243.898V261.002Z" fill="#8FA4F7"/>
<path style="mix-blend-mode:multiply" d="M496.047 261.002L517.41 272.054V254.93L496.047 243.898V261.002Z" fill="url(#paint10_linear_1_268)"/>
<path d="M538.773 243.899L517.41 232.867L496.047 243.899L517.41 254.931L538.773 243.899Z" fill="#F3F7FF"/>
<path d="M538.773 243.899L517.41 232.867L496.047 243.899L517.41 254.931L538.773 243.899Z" fill="#8FA4F7"/>
<path d="M496.047 247.52L517.41 259.09L538.773 248.132" stroke="white" stroke-width="0.51" stroke-miterlimit="10"/>
<path d="M173.955 386.234L141.293 403.132V376.95L173.955 360.086V386.234Z" fill="#8FA4F7"/>
<g style="mix-blend-mode:multiply">
<path d="M173.955 386.234L141.293 403.132V376.95L173.955 360.086V386.234Z" fill="#DCE6F4"/>
</g>
<path d="M94.75 379.23L141.29 403.135V376.953L94.75 353.082V379.23Z" fill="#8FA4F7"/>
<path style="mix-blend-mode:multiply" d="M94.75 379.23L141.29 403.135V376.953L94.75 353.082V379.23Z" fill="url(#paint11_linear_1_268)"/>
<path d="M173.949 360.087L141.287 343.219L108.625 360.087L141.287 376.951L173.949 360.087Z" fill="#F3F7FF"/>
<path d="M173.951 360.089L127.412 336.219L94.75 353.082L141.29 376.953L173.951 360.089Z" fill="#8FA4F7"/>
<path d="M94.75 359.152L141.29 383.312L173.951 366.561" stroke="white" stroke-width="0.36" stroke-miterlimit="10"/>
<path d="M310.861 218.902L278.199 235.804V209.623L310.861 192.754V218.902Z" fill="#8FA4F7"/>
<g style="mix-blend-mode:multiply">
<path d="M310.861 218.902L278.199 235.804V209.623L310.861 192.754V218.902Z" fill="#DCE6F4"/>
</g>
<path d="M231.66 211.898L278.2 235.803V209.621L231.66 185.75V211.898Z" fill="#8FA4F7"/>
<path style="mix-blend-mode:multiply" d="M231.66 211.898L278.2 235.803V209.621L231.66 185.75V211.898Z" fill="url(#paint12_linear_1_268)"/>
<path d="M310.859 192.754L278.197 175.891L245.535 192.754L278.197 209.623L310.859 192.754Z" fill="#F3F7FF"/>
<path d="M310.862 192.753L264.322 168.887L231.66 185.75L278.2 209.621L310.862 192.753Z" fill="#8FA4F7"/>
<path d="M231.66 191.824L278.2 215.984L310.862 199.233" stroke="white" stroke-width="0.36" stroke-miterlimit="10"/>
<path d="M540.881 403.925L517.07 416.239V397.158L540.881 384.867V403.925Z" fill="#8FA4F7"/>
<g style="mix-blend-mode:multiply">
<path d="M540.881 403.925L517.07 416.239V397.158L540.881 384.867V403.925Z" fill="#DCE6F4"/>
</g>
<path d="M483.152 398.823L517.071 416.245V397.163L483.152 379.766V398.823Z" fill="#8FA4F7"/>
<path style="mix-blend-mode:multiply" d="M483.152 398.823L517.071 416.245V397.163L483.152 379.766V398.823Z" fill="url(#paint13_linear_1_268)"/>
<path d="M540.882 384.87L517.071 372.574L493.266 384.87L517.071 397.16L540.882 384.87Z" fill="#F3F7FF"/>
<path d="M540.882 384.871L506.958 367.469L483.152 379.764L517.071 397.161L540.882 384.871Z" fill="#8FA4F7"/>
<path d="M483.152 384.191L517.071 401.8L540.882 389.592" stroke="white" stroke-width="0.27" stroke-miterlimit="10"/>
<path d="M407.016 460.323L439.677 477.221V451.044L407.016 434.176V460.323Z" fill="#FF7F0B"/>
<path d="M486.215 453.32L439.676 477.22V451.043L486.215 427.172V453.32Z" fill="#F9923E"/>
<path d="M407.016 434.176L439.677 417.312L472.339 434.176L439.677 451.045L407.016 434.176Z" fill="#F3F7FF"/>
<path d="M407.016 434.179L453.555 410.309L486.217 427.177L439.677 451.048L407.016 434.179Z" fill="#FFA766"/>
<path d="M486.217 433.246L439.677 457.406L407.016 440.655" stroke="white" stroke-width="0.36" stroke-miterlimit="10"/>
<path d="M345.841 443.917V418.186L154.027 318.938V344.674L345.841 443.917Z" fill="url(#paint14_linear_1_268)"/>
<path d="M345.84 443.917V418.186L537.648 318.938V344.674L345.84 443.917Z" fill="#DCE6F4"/>
<path style="mix-blend-mode:multiply" opacity="0.8" d="M380.573 381.999L241.441 364.166L154.027 318.936L269.726 258.18L303.131 325.816L419.77 355.984L416.415 361.125L330.892 350.945L380.573 381.999Z" fill="url(#paint15_linear_1_268)"/>
<path d="M217.026 368.622C219.159 367.537 219.248 364.068 217.225 360.874C215.202 357.681 211.832 355.972 209.699 357.058C207.565 358.143 207.476 361.612 209.5 364.806C211.523 367.999 214.893 369.708 217.026 368.622Z" fill="#4D4F80"/>
<g style="mix-blend-mode:multiply" opacity="0.55">
<path d="M215.373 366.012C216.544 365.417 216.592 363.513 215.482 361.762C214.372 360.01 212.524 359.072 211.353 359.668C210.183 360.263 210.134 362.166 211.244 363.918C212.354 365.67 214.203 366.608 215.373 366.012Z" fill="#4D4F80"/>
</g>
<path d="M269.417 395.958C271.55 394.873 271.639 391.404 269.616 388.21C267.592 385.017 264.223 383.308 262.089 384.394C259.956 385.479 259.867 388.948 261.89 392.142C263.914 395.335 267.284 397.044 269.417 395.958Z" fill="#4D4F80"/>
<g style="mix-blend-mode:multiply" opacity="0.55">
<path d="M267.76 393.352C268.93 392.756 268.979 390.853 267.869 389.101C266.759 387.349 264.91 386.412 263.74 387.008C262.57 387.603 262.521 389.506 263.631 391.258C264.741 393.01 266.59 393.947 267.76 393.352Z" fill="#4D4F80"/>
</g>
<path d="M400.092 406.157C402.116 402.963 402.027 399.494 399.893 398.409C397.76 397.323 394.39 399.032 392.367 402.225C390.343 405.419 390.432 408.888 392.566 409.974C394.699 411.059 398.069 409.35 400.092 406.157Z" fill="#4D4F80"/>
<g style="mix-blend-mode:multiply" opacity="0.55">
<path d="M398.349 405.27C399.46 403.518 399.411 401.615 398.24 401.019C397.07 400.424 395.222 401.361 394.112 403.113C393.001 404.865 393.05 406.768 394.221 407.364C395.391 407.959 397.239 407.022 398.349 405.27Z" fill="#4D4F80"/>
</g>
<path d="M431.674 391.106C433.698 387.913 433.609 384.444 431.475 383.358C429.342 382.273 425.972 383.981 423.949 387.175C421.926 390.368 422.015 393.837 424.148 394.923C426.281 396.008 429.651 394.3 431.674 391.106Z" fill="#4D4F80"/>
<g style="mix-blend-mode:multiply" opacity="0.55">
<path d="M429.932 390.219C431.042 388.467 430.993 386.564 429.822 385.968C428.652 385.373 426.804 386.31 425.694 388.062C424.584 389.814 424.632 391.717 425.803 392.313C426.973 392.908 428.822 391.971 429.932 390.219Z" fill="#4D4F80"/>
</g>
<path d="M512.127 348.43C514.151 345.237 514.062 341.768 511.928 340.682C509.795 339.597 506.426 341.305 504.402 344.499C502.379 347.692 502.468 351.161 504.601 352.247C506.734 353.333 510.104 351.624 512.127 348.43Z" fill="#4D4F80"/>
<g style="mix-blend-mode:multiply" opacity="0.55">
<path d="M510.385 347.543C511.495 345.791 511.446 343.888 510.276 343.293C509.105 342.697 507.257 343.634 506.147 345.386C505.037 347.138 505.085 349.041 506.256 349.637C507.426 350.232 509.275 349.295 510.385 347.543Z" fill="#4D4F80"/>
</g>
<path d="M299.659 412.396C301.792 411.31 301.881 407.841 299.858 404.648C297.834 401.454 294.465 399.745 292.331 400.831C290.198 401.917 290.109 405.386 292.133 408.579C294.156 411.773 297.526 413.481 299.659 412.396Z" fill="#4D4F80"/>
<g style="mix-blend-mode:multiply" opacity="0.55">
<path d="M298.006 409.786C299.176 409.19 299.225 407.287 298.115 405.535C297.005 403.783 295.157 402.846 293.986 403.441C292.816 404.037 292.767 405.94 293.877 407.692C294.987 409.444 296.836 410.381 298.006 409.786Z" fill="#4D4F80"/>
</g>
<path d="M429.561 466.79C431.694 465.705 431.784 462.236 429.76 459.042C427.737 455.849 424.367 454.14 422.234 455.226C420.1 456.311 420.011 459.78 422.035 462.974C424.058 466.167 427.428 467.876 429.561 466.79Z" fill="#4D4F80"/>
<g style="mix-blend-mode:multiply" opacity="0.55">
<path d="M427.905 464.18C429.075 463.584 429.124 461.681 428.014 459.929C426.903 458.178 425.055 457.24 423.885 457.836C422.714 458.431 422.666 460.334 423.776 462.086C424.886 463.838 426.734 464.776 427.905 464.18Z" fill="#4D4F80"/>
</g>
<path opacity="0.65" d="M444.487 248.598L254.712 348.331L251.969 39.9262L439.078 -67L444.487 248.598Z" fill="url(#paint16_linear_1_268)"/>
<path d="M245.707 219.468V337.915C245.707 339.433 246.152 340.924 246.998 342.239C247.844 343.554 249.061 344.646 250.527 345.406C251.993 346.166 253.656 346.567 255.349 346.569C257.043 346.571 258.707 346.174 260.175 345.417L434.914 255.727C440.877 252.655 445.83 248.229 449.274 242.895C452.719 237.561 454.533 231.507 454.534 225.344V106.068C454.533 104.548 454.085 103.054 453.235 101.738C452.385 100.422 451.163 99.3303 449.693 98.5719C448.222 97.8134 446.555 97.4154 444.858 97.418C443.162 97.4205 441.496 97.8235 440.028 98.5863L265.191 189.173C259.268 192.252 254.351 196.671 250.932 201.987C247.513 207.304 245.711 213.331 245.707 219.468Z" fill="url(#paint17_linear_1_268)"/>
<path d="M251.969 223.831V342.298C251.969 343.815 252.414 345.305 253.26 346.619C254.106 347.933 255.322 349.025 256.787 349.785C258.252 350.545 259.914 350.946 261.607 350.949C263.3 350.951 264.963 350.555 266.431 349.8L441.176 260.09C447.137 257.018 452.09 252.592 455.534 247.258C458.977 241.923 460.791 235.869 460.79 229.707V110.431C460.791 108.91 460.344 107.416 459.494 106.099C458.645 104.782 457.423 103.689 455.952 102.931C454.481 102.172 452.813 101.774 451.115 101.777C449.418 101.781 447.752 102.185 446.284 102.949L271.447 193.536C265.525 196.616 260.61 201.035 257.192 206.351C253.773 211.667 251.972 217.695 251.969 223.831Z" fill="white"/>
<path d="M261.635 345.859C260.583 345.853 259.575 345.477 258.829 344.811C258.084 344.145 257.661 343.242 257.652 342.299V223.831C257.663 218.588 259.204 213.438 262.123 208.893C265.041 204.348 269.236 200.566 274.289 197.924L449.127 107.337C449.731 107.018 450.42 106.849 451.121 106.848C452.181 106.849 453.196 107.226 453.946 107.897C454.695 108.568 455.118 109.478 455.121 110.427V229.707C455.109 234.971 453.553 240.14 450.609 244.695C447.665 249.25 443.436 253.031 438.347 255.659L263.613 345.349C263.017 345.675 262.334 345.85 261.635 345.859Z" fill="#4D4F80"/>
<path d="M269.727 323.562L332.832 291.553V276.785L269.727 308.794V323.562Z" fill="#C4C7E8"/>
<path d="M269.727 332.726L332.832 300.712V295.781L269.727 327.795V332.726Z" fill="#C4C7E8"/>
<path d="M327.93 260.917C330.855 256.301 330.726 251.287 327.643 249.718C324.56 248.149 319.69 250.619 316.765 255.235C313.84 259.852 313.968 264.866 317.051 266.435C320.134 268.004 325.005 265.534 327.93 260.917Z" fill="#FF7F0B"/>
<path d="M344.039 209.57C346.964 204.954 346.836 199.939 343.753 198.37C340.669 196.801 335.799 199.272 332.874 203.888C329.949 208.504 330.078 213.518 333.161 215.087C336.244 216.656 341.114 214.186 344.039 209.57Z" fill="white"/>
<path d="M442.237 146.666C444.135 143.67 444.053 140.417 442.053 139.399C440.054 138.382 436.894 139.986 434.996 142.982C433.098 145.977 433.179 149.231 435.179 150.249C437.178 151.266 440.338 149.662 442.237 146.666Z" fill="#627BFD"/>
<path d="M442.24 163.987C444.139 160.991 444.057 157.737 442.057 156.72C440.058 155.702 436.898 157.306 435 160.302C433.101 163.298 433.183 166.551 435.183 167.569C437.182 168.587 440.342 166.983 442.24 163.987Z" fill="#627BFD"/>
<path d="M442.244 181.448C444.143 178.452 444.061 175.198 442.061 174.181C440.062 173.163 436.902 174.767 435.004 177.763C433.105 180.759 433.187 184.012 435.187 185.03C437.186 186.047 440.346 184.444 442.244 181.448Z" fill="#627BFD"/>
<path opacity="0.7" d="M295.237 228.699C292.04 245.68 276.709 260.306 257.996 264.229" stroke="white" stroke-miterlimit="10" stroke-dasharray="5 5"/>
<path d="M334.143 213.871C328.461 226.416 320.353 238.305 308.901 247.129C297.449 255.952 282.386 261.466 267.328 260.447L268.377 261.427" stroke="white" stroke-miterlimit="10" stroke-dasharray="5 5"/>
<path d="M329.43 256.17C332.396 256.811 335.505 256.17 338.423 255.347C347.443 252.899 356.071 248.982 363.19 243.444C370.309 237.906 375.877 230.62 378.357 222.457L378.903 223.833" stroke="white" stroke-miterlimit="10" stroke-dasharray="5 5"/>
<path d="M338.074 213.707C337.183 213.707 336.478 214.481 336.369 215.274C336.335 216.078 336.523 216.876 336.915 217.6L338.909 222.315C337.953 221.453 336.32 221.463 335.129 222.051C333.982 222.711 333.059 223.641 332.462 224.739C332.118 225.282 330.883 226.286 330.911 226.908C330.938 227.53 338.166 233.998 341.838 236.011C345.541 237.954 349.455 239.553 353.519 240.785C353.962 240.932 353.071 234.978 352.826 234.419C352.203 233.009 351.05 232.123 349.902 231.046C346.55 227.886 343.692 224.333 341.406 220.484C340.1 218.306 338.986 216.04 338.074 213.707Z" fill="#FFA8A7"/>
<path d="M429.831 212.848C430.279 216.344 435.065 230.759 434.065 235.92C433.065 241.081 417.057 250.35 417.057 250.35L414.871 241.537L421.646 235.587C422.27 235.038 422.742 234.365 423.022 233.622C423.302 232.88 423.382 232.088 423.258 231.313L421.286 219.184L429.831 212.848Z" fill="#FFA8A7"/>
<path d="M421.439 230.442L414.856 203.858C413.971 193.992 424.051 194.854 426.389 198.32C428.728 201.787 433.492 224.497 433.694 226.529C434.574 231.661 434.711 234.168 434.203 236.279C433.694 238.389 428.089 244.397 417.057 250.351L414.872 241.537L421.439 230.442Z" fill="white"/>
<path d="M419.606 355.972C419.606 355.972 420.306 356.593 421.01 360.08C421.322 361.607 421.507 363.561 419.612 364.11C417.716 364.658 410.995 361.172 407.198 358.018C404.674 355.932 401.789 351.496 401.789 351.496C401.789 351.496 412.848 352.231 414.765 353.499C416.325 354.405 417.941 355.23 419.606 355.972V355.972Z" fill="#383C66"/>
<path d="M394.199 370.309C394.199 370.309 394.336 372.268 394.467 373.825C394.598 375.382 395.216 377.865 394.658 379.015C394.101 380.166 387.129 380.822 380.573 381.997C374.104 383.158 363.942 383.163 363.461 381.968C363.461 381.968 364.887 380.871 371.536 377.287C379.131 373.188 386.528 369.051 386.528 369.051L394.199 370.309Z" fill="#383C66"/>
<path d="M421.478 322.377C422.177 310.218 421.948 301.179 421.948 301.179C421.948 301.179 419.309 297.81 419.762 287.018C420.249 275.365 421.057 260.768 421.287 257.859L379.129 266.262C379.129 266.262 381.784 311.438 382.243 317.358C382.702 323.277 383.221 331.474 383.882 339.074C384.746 348.681 385.669 369.951 385.669 369.951C388.252 371.326 391.291 371.846 394.258 371.42C394.258 371.42 397.908 344.891 398.514 338.08C399.339 328.889 401.12 306.252 401.12 306.252C401.12 306.252 397.908 309.337 398.935 299.7C399.842 291.112 400.978 285.99 401.12 281.774L401.962 281.373C401.962 281.373 402.819 298.021 403.278 303.96C403.737 309.9 404.715 315.556 406.497 326.548C408.037 336.087 412.058 355.727 412.058 355.727C416.517 358.048 419.746 355.957 419.746 355.957C419.746 355.957 421.014 330.71 421.478 322.377Z" fill="#627BFD"/>
<path d="M401.141 281.803C401.141 281.803 410.609 277.308 415.346 273.254C415.346 273.254 410.948 279.228 405.173 281.877C405.173 281.877 403.119 302.584 403.129 302.173L401.944 281.774L401.141 281.803Z" fill="#AACAF9"/>
<path d="M415.317 196.135C412.11 196.272 409.722 197.016 409.307 196.164C408.995 195.508 408.575 191.669 408.575 191.669C408.946 190.832 409.263 189.936 409.263 189.936C413.296 187.713 416.71 179.413 416.71 179.413C417.144 175.681 415.907 171.947 413.269 169.032C410.632 166.118 406.811 164.261 402.647 163.871C394.489 163.112 388.49 168.244 386.89 175.295C386.026 178.776 385.25 185.686 387.185 191.894C388.217 195.219 389.108 196.169 390.681 196.62C392.471 196.879 394.284 196.987 396.096 196.943C396.096 196.943 396.533 199.102 396.828 200.488C397.123 201.874 397.008 202.603 393.932 204.302C390.856 206.001 398.587 209.497 403.636 209.155C408.684 208.812 414.377 206.08 415.934 203.147C417.677 199.886 417.524 196.042 415.317 196.135Z" fill="#FFA8A7"/>
<path d="M415.314 196.138C412.107 196.275 409.719 197.019 409.304 196.167C408.993 195.511 408.572 191.672 408.572 191.672C408.944 190.835 409.261 189.939 409.261 189.939C410.681 189.152 411.956 188.172 413.042 187.035L402.382 190.184L399.268 189.621L398 188.969L397.175 187.657C397.175 187.838 396.689 192.01 395.651 193.425C394.613 194.84 391.952 196.486 390.504 196.564C390.564 196.564 390.619 196.608 390.679 196.623C392.468 196.882 394.281 196.99 396.093 196.946C396.093 196.946 396.53 199.105 396.825 200.491C397.098 201.74 397.006 202.45 394.711 203.85L399.044 206.827L411.987 206.631C412.342 206.435 412.686 206.235 413.009 206.019L416.866 200.697C417.473 198.234 416.975 196.064 415.314 196.138Z" fill="#F28F8F"/>
<path d="M416.722 179.416C417.156 175.683 415.918 171.949 413.281 169.035C410.644 166.12 406.823 164.264 402.658 163.874C400.123 163.604 397.555 163.98 395.247 164.956C392.939 165.933 390.984 167.472 389.605 169.397C389.992 170.073 390.49 170.694 391.081 171.238C391.081 171.238 390.37 173.04 391.627 174.318C392.54 175.239 392.594 176.189 392.605 177.746C392.605 179.083 394.496 183.382 394.496 183.382C394.496 183.382 395.473 180.801 395.921 180.317C396.79 178.618 400.265 178.113 401.298 180.552C402.139 182.559 401.697 184.376 400.981 186.32C400.874 186.663 400.678 186.98 400.411 187.244C400.143 187.508 399.81 187.712 399.439 187.841C399.067 187.969 398.668 188.018 398.271 187.983C397.875 187.949 397.493 187.832 397.156 187.642C397.189 188.572 400.205 192.632 400.205 192.632C403.005 193.308 405.985 193.042 408.581 191.882C409.668 191.422 416.192 183.965 416.722 179.416Z" fill="#8C7267"/>
<path d="M391.079 171.237C391.079 171.237 386.981 171.58 383.25 167.746C379.518 163.912 398.827 163.858 402.657 163.872C407.055 163.872 415.911 163.799 414.857 171.134L391.079 171.237Z" fill="#8C7267"/>
<path d="M355.998 233.195L352.026 231.574C349.704 232.465 347.803 236.064 348.54 239.805L353.37 241.578L355.998 233.195Z" fill="#F5FBFB"/>
<path d="M421.951 242.273C426.595 227.451 429.305 206.822 425.71 202.121C421.782 197.009 422.306 196.842 419.7 196.181C416.253 195.315 410.691 196.539 410.691 196.539C411.581 198.527 409.325 200.946 403.293 202.655C397.261 204.364 396.736 202.165 396.736 202.165C396.736 202.165 387.896 205.774 385.017 207.551C381.394 209.818 379.793 216.365 379.302 227.456C378.755 240.275 372.472 315.236 372.948 318.532C372.948 318.532 387.699 320.27 394.223 320.27C397.36 320.283 400.494 320.087 403.599 319.682L406.134 302.77L409.811 318.439C417.4 316.353 423.039 312.382 426.628 306.07C426.481 294.891 419.924 248.746 421.951 242.273Z" fill="#DCE6F4"/>
<path d="M408.925 194.303L410.625 193.016C411.275 193.422 412.559 196.331 412.559 196.331C412.559 196.331 413.105 199.499 408.833 201.873C404.56 204.248 399.451 205.507 394.19 203.245C394.19 203.245 394.539 198.186 394.19 198.725C393.933 199.112 396.528 199.033 396.528 199.033C396.528 199.033 397.867 200.581 402.964 199.033C408.062 197.486 409.024 195.288 409.024 195.288L408.925 194.303Z" fill="white"/>
<path d="M385.994 206.83C381.377 207.32 380.442 210.008 379.131 216.81C377.355 226.025 375.482 234.844 373.739 236.856C371.996 238.869 366.133 236.004 355.463 232.449C355.463 232.449 350.545 234.173 351.021 241.591C351.021 241.591 354.698 244.838 368.242 250.366C380.891 255.532 383.999 251.159 387.365 246.199C392.053 239.344 394.014 230.843 394.686 225.065C395.02 222.196 396.161 214.934 395.074 212.863C395.096 212.848 388.119 206.6 385.994 206.83Z" fill="white"/>
<path d="M348.223 221.707H346.179C345.086 223.176 344.808 225.027 344.578 226.79C344.442 227.339 344.494 227.912 344.726 228.435C345.272 229.414 346.819 229.488 347.742 230.203C347.567 230.07 347.742 229.757 347.84 229.654C347.605 229.723 347.491 228.347 347.452 227.999C347.384 227.293 347.368 226.583 347.403 225.874C347.469 224.459 347.744 223.057 348.223 221.707Z" fill="#FFA8A7"/>
<path d="M386.169 179.758L383.137 183.675L387.371 187.034L386.169 179.758Z" fill="#FFA8A7"/>
<path d="M302.742 225.882C305.667 221.266 305.539 216.252 302.456 214.683C299.373 213.114 294.502 215.584 291.577 220.2C288.652 224.816 288.781 229.831 291.864 231.4C294.947 232.969 299.817 230.498 302.742 225.882Z" fill="#FF7F0B"/>
<path d="M418.909 248.355V252.689C418.909 252.689 412.714 259.833 396.355 256.445V251.416C396.355 251.416 407.113 257.052 418.909 248.355Z" fill="white"/>
<path d="M264.516 389.883L236.46 404.475C233.417 406.058 229.953 406.876 226.434 406.841C222.916 406.807 219.473 405.921 216.469 404.279L200.034 395.293C197.036 393.656 193.601 392.773 190.09 392.735C186.58 392.697 183.122 393.506 180.081 395.078L147.025 412.182C146.386 412.514 145.855 412.991 145.485 413.565C145.116 414.139 144.922 414.79 144.922 415.453C144.922 416.115 145.116 416.766 145.485 417.34C145.855 417.914 146.386 418.391 147.025 418.724V418.724" stroke="#627BFD" stroke-width="3" stroke-linecap="round" stroke-linejoin="round"/>
<path d="M590.141 477.72C592.238 477.72 593.938 476.197 593.938 474.317C593.938 472.438 592.238 470.914 590.141 470.914C588.044 470.914 586.344 472.438 586.344 474.317C586.344 476.197 588.044 477.72 590.141 477.72Z" fill="#627BFD"/>
<path d="M184.137 184.314C186.234 184.314 187.934 182.79 187.934 180.911C187.934 179.031 186.234 177.508 184.137 177.508C182.04 177.508 180.34 179.031 180.34 180.911C180.34 182.79 182.04 184.314 184.137 184.314Z" fill="#627BFD"/>
<path d="M396.355 404.301L420.696 416.542C421.525 416.959 422.216 417.564 422.699 418.298C423.182 419.031 423.439 419.866 423.445 420.718C423.452 421.57 423.206 422.407 422.733 423.146C422.261 423.885 421.579 424.499 420.756 424.925L377.123 447.503C376.306 447.927 375.628 448.535 375.157 449.268C374.686 450.001 374.438 450.832 374.438 451.677C374.438 452.523 374.686 453.354 375.157 454.087C375.628 454.819 376.306 455.428 377.123 455.852L398.858 467.153C401.118 468.325 403.683 468.942 406.294 468.942C408.905 468.942 411.47 468.325 413.73 467.153L425.865 460.881" stroke="#627BFD" stroke-width="3" stroke-linecap="round" stroke-linejoin="round"/>
<path d="M427.359 390.098L589.423 473.946" stroke="#627BFD" stroke-width="3" stroke-linecap="round" stroke-linejoin="round"/>
<path d="M507.926 346.582L599.956 394.225" stroke="#627BFD" stroke-width="3" stroke-linecap="round" stroke-linejoin="round"/>
<path d="M599.957 397.63C602.055 397.63 603.755 396.107 603.755 394.227C603.755 392.348 602.055 390.824 599.957 390.824C597.86 390.824 596.16 392.348 596.16 394.227C596.16 396.107 597.86 397.63 599.957 397.63Z" fill="#627BFD"/>
<path d="M295.958 407.758L246.604 433.308C245.737 433.758 245.017 434.405 244.518 435.184C244.019 435.963 243.758 436.846 243.762 437.745C243.766 438.643 244.034 439.524 244.54 440.3C245.046 441.075 245.771 441.717 246.643 442.161L288.91 463.618" stroke="#627BFD" stroke-width="3" stroke-linecap="round" stroke-linejoin="round"/>
<path style="mix-blend-mode:multiply" opacity="0.75" d="M301.443 528.091L226.203 507.187L225.984 470.355L344.306 505.914L301.443 528.091Z" fill="url(#paint18_linear_1_268)"/>
<path d="M343.919 505.232L301.051 527.413V493.059L343.919 470.922V505.232Z" fill="#DCE6F4"/>
<path d="M258.188 505.232L301.05 527.413V493.059L258.188 470.922V505.232Z" fill="url(#paint19_linear_1_268)"/>
<path d="M343.918 470.921L301.05 448.789L258.188 470.921L301.05 493.059L343.918 470.921Z" fill="#F3F7FF"/>
<path d="M343.918 470.921L301.05 448.789L258.188 470.921L301.05 493.059L343.918 470.921Z" fill="#F3F7FF"/>
<path opacity="0.7" d="M274.758 470.926L301.049 457.348L327.346 470.926L301.049 484.489L274.758 470.926Z" fill="#4D4F80"/>
<path opacity="0.6" d="M258.188 478.191L301.05 501.401L343.918 479.42" stroke="#7D83AF" stroke-width="0.48" stroke-miterlimit="10"/>
<path d="M159.299 386.704C161.323 383.51 161.234 380.041 159.1 378.956C156.967 377.87 153.597 379.579 151.574 382.772C149.551 385.966 149.64 389.435 151.773 390.52C153.906 391.606 157.276 389.897 159.299 386.704Z" fill="#4D4F80"/>
<g style="mix-blend-mode:multiply" opacity="0.55">
<path d="M157.557 385.817C158.667 384.065 158.618 382.162 157.448 381.566C156.277 380.97 154.429 381.908 153.319 383.66C152.209 385.412 152.257 387.315 153.428 387.91C154.598 388.506 156.447 387.568 157.557 385.817Z" fill="#4D4F80"/>
</g>
<path d="M69.4165 356.464C70.6666 354.491 70.6122 352.349 69.295 351.678C67.9777 351.008 65.8965 352.064 64.6464 354.037C63.3963 356.01 63.4506 358.153 64.7679 358.823C66.0851 359.494 68.1663 358.437 69.4165 356.464Z" fill="#4D4F80"/>
<g style="mix-blend-mode:multiply" opacity="0.55">
<path d="M68.3425 355.918C69.0279 354.836 68.9985 353.662 68.2769 353.295C67.5553 352.927 66.4148 353.506 65.7293 354.588C65.0439 355.67 65.0732 356.845 65.7948 357.212C66.5164 357.579 67.657 357 68.3425 355.918Z" fill="#4D4F80"/>
</g>
<path d="M212.806 363.145L170.08 385.551C168.07 386.605 165.784 387.164 163.455 387.17C161.126 387.176 158.837 386.629 156.82 385.585L155.766 385.042" stroke="#627BFD" stroke-width="3" stroke-linecap="round" stroke-linejoin="round"/>
</g>
<defs>
<linearGradient id="paint0_linear_1_268" x1="0" y1="312.21" x2="538.123" y2="312.21" gradientUnits="userSpaceOnUse">
<stop stop-color="#627BFD" stop-opacity="0"/>
<stop offset="0.09" stop-color="#627BFD" stop-opacity="0.03"/>
<stop offset="0.22" stop-color="#627BFD" stop-opacity="0.1"/>
<stop offset="0.38" stop-color="#627BFD" stop-opacity="0.23"/>
<stop offset="0.56" stop-color="#627BFD" stop-opacity="0.41"/>
<stop offset="0.75" stop-color="#627BFD" stop-opacity="0.63"/>
<stop offset="0.96" stop-color="#627BFD" stop-opacity="0.9"/>
<stop offset="1" stop-color="#627BFD" stop-opacity="0.96"/>
</linearGradient>
<linearGradient id="paint1_linear_1_268" x1="131.578" y1="277.771" x2="154.671" y2="226.578" gradientUnits="userSpaceOnUse">
<stop offset="0.02" stop-color="#D7DDF4"/>
<stop offset="0.18" stop-color="#CDD3ED"/>
<stop offset="0.7" stop-color="#AEB4DA"/>
<stop offset="1" stop-color="#A3A9D3"/>
</linearGradient>
<linearGradient id="paint2_linear_1_268" x1="533.891" y1="308.126" x2="630.882" y2="308.126" gradientUnits="userSpaceOnUse">
<stop stop-color="#627BFD" stop-opacity="0"/>
<stop offset="0.05" stop-color="#627BFD" stop-opacity="0.05"/>
<stop offset="0.52" stop-color="#627BFD" stop-opacity="0.53"/>
<stop offset="0.85" stop-color="#627BFD" stop-opacity="0.84"/>
<stop offset="1" stop-color="#627BFD" stop-opacity="0.96"/>
</linearGradient>
<linearGradient id="paint3_linear_1_268" x1="52000" y1="19206" x2="58290.5" y2="19206" gradientUnits="userSpaceOnUse">
<stop stop-color="#627BFD" stop-opacity="0"/>
<stop offset="0.05" stop-color="#627BFD" stop-opacity="0.05"/>
<stop offset="0.52" stop-color="#627BFD" stop-opacity="0.53"/>
<stop offset="0.85" stop-color="#627BFD" stop-opacity="0.84"/>
<stop offset="1" stop-color="#627BFD" stop-opacity="0.96"/>
</linearGradient>
<linearGradient id="paint4_linear_1_268" x1="11637.9" y1="52521.1" x2="38930.2" y2="52521.1" gradientUnits="userSpaceOnUse">
<stop stop-color="#627BFD" stop-opacity="0"/>
<stop offset="0.05" stop-color="#627BFD" stop-opacity="0.05"/>
<stop offset="0.52" stop-color="#627BFD" stop-opacity="0.53"/>
<stop offset="0.85" stop-color="#627BFD" stop-opacity="0.84"/>
<stop offset="1" stop-color="#627BFD" stop-opacity="0.96"/>
</linearGradient>
<linearGradient id="paint5_linear_1_268" x1="73285" y1="39679.2" x2="87405.2" y2="39679.2" gradientUnits="userSpaceOnUse">
<stop stop-color="#627BFD" stop-opacity="0"/>
<stop offset="0.05" stop-color="#627BFD" stop-opacity="0.05"/>
<stop offset="0.52" stop-color="#627BFD" stop-opacity="0.53"/>
<stop offset="0.85" stop-color="#627BFD" stop-opacity="0.84"/>
<stop offset="1" stop-color="#627BFD" stop-opacity="0.96"/>
</linearGradient>
<linearGradient id="paint6_linear_1_268" x1="13675.7" y1="53508.6" x2="14986.7" y2="50721" gradientUnits="userSpaceOnUse">
<stop offset="0.02" stop-color="#D7DDF4"/>
<stop offset="0.18" stop-color="#CDD3ED"/>
<stop offset="0.7" stop-color="#AEB4DA"/>
<stop offset="1" stop-color="#A3A9D3"/>
</linearGradient>
<linearGradient id="paint7_linear_1_268" x1="102427" y1="42996.1" x2="139989" y2="42996.1" gradientUnits="userSpaceOnUse">
<stop stop-color="#627BFD" stop-opacity="0"/>
<stop offset="0.05" stop-color="#627BFD" stop-opacity="0.05"/>
<stop offset="0.52" stop-color="#627BFD" stop-opacity="0.53"/>
<stop offset="0.85" stop-color="#627BFD" stop-opacity="0.84"/>
<stop offset="1" stop-color="#627BFD" stop-opacity="0.96"/>
</linearGradient>
<linearGradient id="paint8_linear_1_268" x1="42141.2" y1="45357.7" x2="46105.9" y2="39381.7" gradientUnits="userSpaceOnUse">
<stop offset="0.02" stop-color="#D7DDF4"/>
<stop offset="0.18" stop-color="#CDD3ED"/>
<stop offset="0.7" stop-color="#AEB4DA"/>
<stop offset="1" stop-color="#A3A9D3"/>
</linearGradient>
<linearGradient id="paint9_linear_1_268" x1="2003.55" y1="24941" x2="8294.04" y2="24941" gradientUnits="userSpaceOnUse">
<stop stop-color="#627BFD" stop-opacity="0"/>
<stop offset="0.05" stop-color="#627BFD" stop-opacity="0.05"/>
<stop offset="0.52" stop-color="#627BFD" stop-opacity="0.53"/>
<stop offset="0.85" stop-color="#627BFD" stop-opacity="0.84"/>
<stop offset="1" stop-color="#627BFD" stop-opacity="0.96"/>
</linearGradient>
<linearGradient id="paint10_linear_1_268" x1="19891.5" y1="18930" x2="20726.8" y2="18930" gradientUnits="userSpaceOnUse">
<stop offset="0.02" stop-color="#D7DDF4"/>
<stop offset="0.18" stop-color="#CDD3ED"/>
<stop offset="0.7" stop-color="#AEB4DA"/>
<stop offset="1" stop-color="#A3A9D3"/>
</linearGradient>
<linearGradient id="paint11_linear_1_268" x1="9402.67" y1="47444.6" x2="11105.8" y2="44298.3" gradientUnits="userSpaceOnUse">
<stop offset="0.02" stop-color="#D7DDF4"/>
<stop offset="0.18" stop-color="#CDD3ED"/>
<stop offset="0.7" stop-color="#AEB4DA"/>
<stop offset="1" stop-color="#A3A9D3"/>
</linearGradient>
<linearGradient id="paint12_linear_1_268" x1="21201.5" y1="30172.3" x2="22904.6" y2="27026.5" gradientUnits="userSpaceOnUse">
<stop offset="0.02" stop-color="#D7DDF4"/>
<stop offset="0.18" stop-color="#CDD3ED"/>
<stop offset="0.7" stop-color="#AEB4DA"/>
<stop offset="1" stop-color="#A3A9D3"/>
</linearGradient>
<linearGradient id="paint13_linear_1_268" x1="31134.3" y1="35868.4" x2="32039" y2="34197.3" gradientUnits="userSpaceOnUse">
<stop offset="0.02" stop-color="#D7DDF4"/>
<stop offset="0.18" stop-color="#CDD3ED"/>
<stop offset="0.7" stop-color="#AEB4DA"/>
<stop offset="1" stop-color="#A3A9D3"/>
</linearGradient>
<linearGradient id="paint14_linear_1_268" x1="54228.1" y1="114775" x2="121568" y2="114775" gradientUnits="userSpaceOnUse">
<stop offset="0.02" stop-color="#D7DDF4"/>
<stop offset="0.18" stop-color="#CDD3ED"/>
<stop offset="0.7" stop-color="#AEB4DA"/>
<stop offset="1" stop-color="#A3A9D3"/>
</linearGradient>
<linearGradient id="paint15_linear_1_268" x1="154.027" y1="320.087" x2="419.77" y2="320.087" gradientUnits="userSpaceOnUse">
<stop stop-color="#627BFD" stop-opacity="0"/>
<stop offset="0.13" stop-color="#627BFD" stop-opacity="0.02"/>
<stop offset="0.26" stop-color="#627BFD" stop-opacity="0.06"/>
<stop offset="0.39" stop-color="#627BFD" stop-opacity="0.14"/>
<stop offset="0.51" stop-color="#627BFD" stop-opacity="0.25"/>
<stop offset="0.64" stop-color="#627BFD" stop-opacity="0.4"/>
<stop offset="0.77" stop-color="#627BFD" stop-opacity="0.57"/>
<stop offset="0.9" stop-color="#627BFD" stop-opacity="0.78"/>
<stop offset="1" stop-color="#627BFD" stop-opacity="0.96"/>
</linearGradient>
<linearGradient id="paint16_linear_1_268" x1="396.363" y1="332.373" x2="308.358" y2="-92.2538" gradientUnits="userSpaceOnUse">
<stop stop-color="#627BFD"/>
<stop offset="0.07" stop-color="#627BFD" stop-opacity="0.98"/>
<stop offset="0.16" stop-color="#627BFD" stop-opacity="0.92"/>
<stop offset="0.25" stop-color="#627BFD" stop-opacity="0.82"/>
<stop offset="0.36" stop-color="#627BFD" stop-opacity="0.68"/>
<stop offset="0.46" stop-color="#627BFD" stop-opacity="0.5"/>
<stop offset="0.57" stop-color="#627BFD" stop-opacity="0.29"/>
<stop offset="0.69" stop-color="#627BFD" stop-opacity="0.03"/>
<stop offset="0.7" stop-color="#627BFD" stop-opacity="0"/>
</linearGradient>
<linearGradient id="paint17_linear_1_268" x1="825560" y1="228397" x2="905376" y2="228397" gradientUnits="userSpaceOnUse">
<stop offset="0.02" stop-color="#D7DDF4"/>
<stop offset="0.18" stop-color="#CDD3ED"/>
<stop offset="0.7" stop-color="#AEB4DA"/>
<stop offset="1" stop-color="#A3A9D3"/>
</linearGradient>
<linearGradient id="paint18_linear_1_268" x1="49164.9" y1="67234.2" x2="74788.6" y2="67234.2" gradientUnits="userSpaceOnUse">
<stop stop-color="#627BFD" stop-opacity="0"/>
<stop offset="0.05" stop-color="#627BFD" stop-opacity="0.05"/>
<stop offset="0.52" stop-color="#627BFD" stop-opacity="0.53"/>
<stop offset="0.85" stop-color="#627BFD" stop-opacity="0.84"/>
<stop offset="1" stop-color="#627BFD" stop-opacity="0.96"/>
</linearGradient>
<linearGradient id="paint19_linear_1_268" x1="21316.6" y1="68087.9" x2="24021.3" y2="64011.1" gradientUnits="userSpaceOnUse">
<stop offset="0.02" stop-color="#D7DDF4"/>
<stop offset="0.18" stop-color="#CDD3ED"/>
<stop offset="0.7" stop-color="#AEB4DA"/>
<stop offset="1" stop-color="#A3A9D3"/>
</linearGradient>
<clipPath id="clip0_1_268">
<rect width="631" height="528.094" fill="white"/>
</clipPath>
</defs>
</svg>
