<svg width="433" height="514" viewBox="0 0 433 514" fill="none" xmlns="http://www.w3.org/2000/svg">
<path d="M102.976 454.053L80.7269 442.325C76.4826 440.087 71.7161 438.943 66.8843 439.002C62.0525 439.061 57.3174 440.322 53.1327 442.663L5.6916 469.198C4.56932 469.825 3.63721 470.727 2.98915 471.814C2.3411 472.9 2 474.133 2 475.388C2 476.643 2.3411 477.876 2.98915 478.963C3.63721 480.049 4.56932 480.952 5.6916 481.579L132.205 552.338C136.361 554.663 141.06 555.922 145.859 555.996C150.658 556.071 155.397 554.959 159.628 552.765L172 546.348" stroke="#627BFD" stroke-width="3" stroke-miterlimit="10"/>
<g style="mix-blend-mode:multiply">
<path d="M79 466.396L246.487 369L414 466.396L246.487 564L79 466.396Z" fill="#4D4F80"/>
</g>
<path d="M115 464.41L245.513 389L376 464.41L245.513 540L115 464.41Z" fill="#627BFD"/>
<path opacity="0.5" d="M115 476.515V0H380V476.515L242.534 540L115 476.515Z" fill="url(#paint0_linear_2_4)"/>
<path style="mix-blend-mode:multiply" d="M246 562.752V583L79 487.125V466L246 562.752Z" fill="url(#paint1_linear_2_4)"/>
<g clip-path="url(#clip0_2_4)">
<path d="M197.099 167.765L237.858 226.803L294.803 93.3776C295.592 91.6064 293.914 91.016 293.026 92.7871L239.141 189.216L198.974 165.109C197.987 164.617 196.507 166.88 197.099 167.765Z" fill="#EF7D00"/>
</g>
<path d="M78.7341 407.131L57.3711 418.187V401.064L78.7341 390.027V407.131Z" fill="#F9923E"/>
<path d="M432.734 513.131L411.371 524.187V507.064L432.734 496.027V513.131Z" fill="#F9923E"/>
<path d="M36 407.131L57.3684 418.187V401.064L36 390.027V407.131Z" fill="#FF7F0B"/>
<path d="M390 513.131L411.368 524.187V507.064L390 496.027V513.131Z" fill="#FF7F0B"/>
<path d="M78.7314 390.027L57.3684 379L36 390.027L57.3684 401.064L78.7314 390.027Z" fill="#FFA766"/>
<path d="M432.731 496.027L411.368 485L390 496.027L411.368 507.064L432.731 496.027Z" fill="#FFA766"/>
<path d="M36 393.656L57.3684 405.222L78.7314 394.268" stroke="white" stroke-width="0.51" stroke-miterlimit="10"/>
<path d="M390 499.656L411.368 511.222L432.731 500.268" stroke="white" stroke-width="0.51" stroke-miterlimit="10"/>
<path d="M71.0258 406.078C72.276 404.105 72.2216 401.962 70.9044 401.292C69.5871 400.621 67.5059 401.677 66.2558 403.65C65.0056 405.623 65.06 407.766 66.3773 408.436C67.6945 409.107 69.7757 408.051 71.0258 406.078Z" fill="#4D4F80"/>
<path d="M425.026 512.078C426.276 510.105 426.222 507.962 424.904 507.292C423.587 506.621 421.506 507.677 420.256 509.65C419.006 511.623 419.06 513.766 420.377 514.436C421.694 515.107 423.776 514.051 425.026 512.078Z" fill="#4D4F80"/>
<g style="mix-blend-mode:multiply" opacity="0.55">
<path d="M69.9518 405.531C70.6372 404.45 70.6079 403.275 69.8863 402.908C69.1647 402.541 68.0241 403.12 67.3387 404.201C66.6533 405.283 66.6826 406.458 67.4042 406.825C68.1258 407.192 69.2664 406.613 69.9518 405.531Z" fill="#4D4F80"/>
</g>
<g style="mix-blend-mode:multiply" opacity="0.55">
<path d="M423.952 511.531C424.637 510.45 424.608 509.275 423.886 508.908C423.165 508.541 422.024 509.12 421.339 510.201C420.653 511.283 420.683 512.458 421.404 512.825C422.126 513.192 423.266 512.613 423.952 511.531Z" fill="#4D4F80"/>
</g>
<defs>
<linearGradient id="paint0_linear_2_4" x1="247.5" y1="540" x2="247.5" y2="0.0214354" gradientUnits="userSpaceOnUse">
<stop stop-color="#627BFD"/>
<stop offset="0.04" stop-color="#627BFD" stop-opacity="0.95"/>
<stop offset="0.25" stop-color="#627BFD" stop-opacity="0.66"/>
<stop offset="0.44" stop-color="#627BFD" stop-opacity="0.43"/>
<stop offset="0.62" stop-color="#627BFD" stop-opacity="0.24"/>
<stop offset="0.78" stop-color="#627BFD" stop-opacity="0.11"/>
<stop offset="0.91" stop-color="#627BFD" stop-opacity="0.03"/>
<stop offset="1" stop-color="#627BFD" stop-opacity="0"/>
</linearGradient>
<linearGradient id="paint1_linear_2_4" x1="79" y1="524.5" x2="246" y2="524.5" gradientUnits="userSpaceOnUse">
<stop offset="0.02" stop-color="#D0D4EF"/>
<stop offset="0.38" stop-color="#AFB5D7"/>
<stop offset="0.78" stop-color="#9099C2"/>
<stop offset="1" stop-color="#858EBA"/>
</linearGradient>
<clipPath id="clip0_2_4">
<rect width="98" height="135" fill="white" transform="translate(197 92)"/>
</clipPath>
</defs>
</svg>
