<svg width="300" height="72" viewBox="0 0 300 72" fill="none" xmlns="http://www.w3.org/2000/svg">
<g clip-path="url(#clip0_995_610)">
<path fill-rule="evenodd" clip-rule="evenodd" d="M52.8661 0H18.2145V18.2144H1.51467e-06L0 52.8661H18.2145V71.0804H52.8661V52.8661H71.0804V18.2144H52.8661V0Z" fill="#FF8432"/>
<path fill-rule="evenodd" clip-rule="evenodd" d="M52.8661 0H18.2144V18.2144H1.51467e-06L0 52.8661H18.2144V71.0804H52.8661V52.8661H71.0804V18.2144H52.8661V0Z" fill="url(#paint0_linear_995_610)"/>
<mask id="mask0_995_610" style="mask-type:alpha" maskUnits="userSpaceOnUse" x="0" y="0" width="72" height="72">
<path fill-rule="evenodd" clip-rule="evenodd" d="M52.8661 0H18.2144V18.2144H1.51467e-06L0 52.8661H18.2144V71.0804H52.8661V52.8661H71.0804V18.2144H52.8661V0Z" fill="url(#paint1_linear_995_610)"/>
</mask>
<g mask="url(#mask0_995_610)">
<path fill-rule="evenodd" clip-rule="evenodd" d="M34.8097 29.689C33.7439 43.0287 30.4046 59.392 24.8627 70.0637C17.9354 83.4036 25.2179 95.1421 33.0334 70.0637C40.8489 44.9851 40.8397 28.7011 40.8397 28.7011C41.1692 28.6653 40.5007 28.7381 40.8397 28.7011C52.2884 27.453 69.7183 25.1691 84.8993 27.9103C106.57 31.8233 90.2286 24.8867 72.8214 23.2859C63.3183 22.4121 52.3056 22.2188 40.8489 23.2859C40.2568 5.55899 38.9838 -15.9327 28.4152 5.49971C26.0469 10.0648 20.8484 20.9381 19.0012 27.9103C14.6494 27.9103 2.48213 31.8233 12.7843 38.4042C13.9684 39.2343 16.8342 39.5603 20.2445 33.1573C23.8858 31.6455 27.3494 30.9341 34.8097 29.689ZM22.1096 27.0211C24.4483 26.3097 30.2625 24.7801 34.8097 24.3532C35.4906 10.6282 33.9038 -8.0533 22.1096 27.0211ZM17.0474 34.3134C16.3961 34.432 14.6849 34.8826 13.0508 35.7363C13.9094 36.6256 15.9106 37.5861 17.0474 34.3134Z" fill="white"/>
</g>
<path d="M119.87 53.2999H108.992L98.431 35.2679V53.2999H88.7695V17.7227H98.431V34.9516L108.602 17.7227H119.164L108.189 34.7082L119.87 53.2999Z" fill="black"/>
<path d="M156.807 35.4618C156.807 41.448 155.339 45.9986 152.402 49.1135C149.466 52.2283 145.167 53.7858 139.505 53.7858C133.925 53.7858 129.642 52.2202 126.657 49.0891C123.688 45.9581 122.203 41.3994 122.203 35.4131C122.203 29.4917 123.68 24.9735 126.632 21.8587C129.601 18.7277 133.908 17.1621 139.554 17.1621C145.216 17.1621 149.507 18.7114 152.427 21.81C155.347 24.9086 156.807 29.4592 156.807 35.4618ZM132.327 35.4618C132.327 42.3403 134.72 45.7796 139.505 45.7796C141.939 45.7796 143.74 44.9441 144.907 43.2732C146.092 41.6022 146.684 38.9984 146.684 35.4618C146.684 31.9089 146.084 29.2889 144.883 27.6017C143.699 25.8983 141.922 25.0465 139.554 25.0465C134.736 25.0465 132.327 28.5183 132.327 35.4618Z" fill="black"/>
<path d="M178.735 53.2999L171.459 27.6755H171.24C171.581 32.0395 171.752 35.4302 171.752 37.8474V53.2999H163.234V17.7227H176.034L183.457 42.982H183.651L190.927 17.7227H203.752V53.2999H194.918V37.7014C194.918 36.8902 194.926 35.9899 194.942 35.0002C194.974 34.0106 195.088 31.5853 195.283 27.7242H195.064L187.885 53.2999H178.735Z" fill="black"/>
<path d="M227.113 53.2999H217.5V25.5827H208.812V17.7227H235.775V25.5827H227.113V53.2999Z" fill="black"/>
<path d="M261.982 53.2999H240.859V17.7227H261.982V25.4367H250.472V31.0337H261.13V38.7477H250.472V45.4641H261.982V53.2999Z" fill="black"/>
<path d="M299.311 53.2999H288.433L277.872 35.2679V53.2999H268.211V17.7227H277.872V34.9516L288.044 17.7227H298.605L287.63 34.7082L299.311 53.2999Z" fill="black"/>
<path d="M91.3283 68.5263L89.9597 64.0681H89.9247C89.974 64.975 89.999 65.58 89.999 65.8832V68.5263H88.9219V62.8438H90.5626L91.9069 67.1892H91.9304L93.3569 62.8438H94.9969V68.5263H93.874V65.8365C93.874 65.7096 93.8754 65.5632 93.8776 65.3974C93.8826 65.2315 93.9012 64.791 93.9319 64.0758H93.8969L92.4319 68.5263H91.3283Z" fill="black"/>
<path d="M99.7025 68.5263H96.4297V62.8438H99.7025V63.831H97.6347V65.0787H99.559V66.0659H97.6347V67.5312H99.7025V68.5263Z" fill="black"/>
<path d="M100.215 67.5234H100.654C101.03 66.772 101.326 66.0218 101.544 65.273C101.762 64.5215 101.924 63.7118 102.03 62.8438H105.342V67.5234H106.1V70.182H104.938V68.5263H101.377V70.182H100.215V67.5234ZM102.986 63.8465C102.903 64.4399 102.765 65.0683 102.571 65.7316C102.378 66.395 102.162 66.9923 101.921 67.5234H104.141V63.8465H102.986Z" fill="black"/>
<path d="M106.98 62.8438H108.065V65.5878L108.05 66.3224L108.01 67.158H108.034L110.658 62.8438H112.1V68.5263H111.027V65.7977C111.027 65.4323 111.05 64.8908 111.097 64.173H111.065L108.43 68.5263H106.98V62.8438Z" fill="black"/>
<path d="M118.028 67.57H118.876V70.182H117.713V68.5263H113.531V62.8438H114.736V67.5234H116.827V62.8438H118.028V67.57Z" fill="black"/>
<path d="M119.75 62.8438H120.834V65.5878L120.819 66.3224L120.78 67.158H120.804L123.427 62.8438H124.869V68.5263H123.796V65.7977C123.796 65.4323 123.819 64.8908 123.866 64.173H123.835L121.2 68.5263H119.75V62.8438Z" fill="black"/>
<path d="M130.96 68.5263H129.76V66.0737H127.509V68.5263H126.305V62.8438H127.509V65.0709H129.76V62.8438H130.96V68.5263Z" fill="black"/>
<path d="M134.811 63.7645C134.357 63.7645 134.007 63.9356 133.757 64.2776C133.509 64.617 133.385 65.0912 133.385 65.7001C133.385 66.9672 133.86 67.6008 134.811 67.6008C135.21 67.6008 135.693 67.501 136.261 67.3015V68.3121C135.795 68.5064 135.273 68.6036 134.698 68.6036C133.872 68.6036 133.24 68.3535 132.802 67.8534C132.364 67.3507 132.145 66.6304 132.145 65.6924C132.145 65.1016 132.252 64.5846 132.467 64.1416C132.682 63.6959 132.99 63.3551 133.392 63.1193C133.797 62.8809 134.27 62.7617 134.811 62.7617C135.363 62.7617 135.917 62.8951 136.475 63.1621L136.086 64.1416C135.873 64.0405 135.66 63.9524 135.445 63.8772C135.23 63.8021 135.018 63.7645 134.811 63.7645Z" fill="black"/>
<path d="M142.106 68.5263H140.738L138.678 65.6461V68.5263H137.473V62.8438H138.678V65.5956L140.715 62.8438H141.997L139.926 65.5723L142.106 68.5263Z" fill="black"/>
<path d="M142.824 62.8438H143.909V65.5878L143.893 66.3224L143.854 67.158H143.877L146.501 62.8438H147.943V68.5263H146.87V65.7977C146.87 65.4323 146.894 64.8908 146.94 64.173H146.909L144.274 68.5263H142.824V62.8438Z" fill="black"/>
<path d="M152.648 68.5263H149.375V62.8438H152.648V63.831H150.58V65.0787H152.504V66.0659H150.58V67.5312H152.648V68.5263Z" fill="black"/>
<path d="M155.906 62.8438H156.991V65.5878L156.975 66.3224L156.936 67.158H156.96L159.583 62.8438H161.025V68.5263H159.952V65.7977C159.952 65.4323 159.976 64.8908 160.022 64.173H159.991L157.356 68.5263H155.906V62.8438Z" fill="black"/>
<path d="M167.113 68.5263H165.913V66.0737H163.662V68.5263H162.457V62.8438H163.662V65.0709H165.913V62.8438H167.113V68.5263Z" fill="black"/>
<path d="M171.802 66.8001H171.857C172.274 66.8001 172.6 66.6913 172.836 66.4736C173.075 66.2534 173.194 65.9528 173.194 65.5719C173.194 65.2195 173.083 64.937 172.863 64.7246C172.643 64.5095 172.342 64.4019 171.962 64.4019H171.802V66.8001ZM170.717 68.6036V67.729H170.632C170.15 67.729 169.728 67.6448 169.365 67.4764C169.002 67.3054 168.716 67.0501 168.506 66.7107C168.299 66.3713 168.195 65.9942 168.195 65.5797C168.195 65.178 168.287 64.8166 168.471 64.4952C168.657 64.1714 168.926 63.9187 169.276 63.7373C169.625 63.5534 170.037 63.4614 170.512 63.4614H170.717V62.7617H171.802V63.4614H172.008C172.48 63.4614 172.89 63.5534 173.24 63.7373C173.59 63.9187 173.858 64.1714 174.045 64.4952C174.232 64.8166 174.325 65.178 174.325 65.5797C174.325 65.9942 174.22 66.3713 174.01 66.7107C173.802 67.0501 173.517 67.3054 173.155 67.4764C172.792 67.6448 172.37 67.729 171.887 67.729H171.802V68.6036H170.717ZM170.717 64.4019H170.558C170.177 64.4019 169.877 64.5082 169.657 64.7206C169.437 64.9331 169.326 65.2169 169.326 65.5719C169.326 65.945 169.443 66.243 169.676 66.4659C169.91 66.6887 170.238 66.8001 170.663 66.8001H170.717V64.4019Z" fill="black"/>
<path d="M180.558 65.6768C180.558 66.6174 180.326 67.3403 179.859 67.8456C179.393 68.3509 178.724 68.6035 177.853 68.6035C176.983 68.6035 176.314 68.3509 175.848 67.8456C175.381 67.3403 175.148 66.6148 175.148 65.669C175.148 64.7233 175.381 64.0016 175.848 63.504C176.317 63.004 176.988 62.7539 177.861 62.7539C178.734 62.7539 179.402 63.0053 179.863 63.508C180.327 64.0107 180.558 64.7336 180.558 65.6768ZM176.411 65.6768C176.411 66.3116 176.532 66.7897 176.773 67.111C177.014 67.4323 177.374 67.593 177.853 67.593C178.815 67.593 179.296 66.9543 179.296 65.6768C179.296 64.3968 178.817 63.7567 177.861 63.7567C177.382 63.7567 177.021 63.9187 176.777 64.2425C176.533 64.5639 176.411 65.042 176.411 65.6768Z" fill="black"/>
<path d="M182.943 65.5178H183.34C183.71 65.5178 183.988 65.4453 184.171 65.3002C184.355 65.1525 184.448 64.9388 184.448 64.6589C184.448 64.3765 184.37 64.1678 184.214 64.0331C184.061 63.8984 183.82 63.831 183.491 63.831H182.943V65.5178ZM185.664 64.6161C185.664 65.2276 185.472 65.6953 185.089 66.0193C184.708 66.3431 184.165 66.5051 183.46 66.5051H182.943V68.5263H181.738V62.8438H183.553C184.243 62.8438 184.766 62.9928 185.124 63.2908C185.484 63.5861 185.664 64.0279 185.664 64.6161Z" fill="black"/>
<path d="M189.14 68.5263L187.772 64.0681H187.737C187.787 64.975 187.811 65.58 187.811 65.8832V68.5263H186.734V62.8438H188.374L189.719 67.1892H189.742L191.169 62.8438H192.809V68.5263H191.686V65.8365C191.686 65.7096 191.687 65.5632 191.69 65.3974C191.695 65.2315 191.713 64.791 191.744 64.0758H191.709L190.244 68.5263H189.14Z" fill="black"/>
<path d="M197.725 68.5262L197.313 67.1735H195.241L194.829 68.5262H193.531L195.536 62.8203H197.01L199.023 68.5262H197.725ZM197.025 66.163C196.644 64.9373 196.429 64.2442 196.38 64.0835C196.333 63.9229 196.3 63.796 196.279 63.7027C196.193 64.0343 195.948 64.8545 195.544 66.163H197.025Z" fill="black"/>
<path d="M204.239 67.57H205.086V70.182H203.924V68.5263H199.742V62.8438H200.947V67.5234H203.038V62.8438H204.239V67.57Z" fill="black"/>
<path d="M205.961 62.8438H207.046V65.5878L207.03 66.3224L206.991 67.158H207.015L209.638 62.8438H211.08V68.5263H210.007V65.7977C210.007 65.4323 210.031 64.8908 210.077 64.173H210.046L207.411 68.5263H205.961V62.8438Z" fill="black"/>
<path d="M217.672 65.6768C217.672 66.6174 217.439 67.3403 216.972 67.8456C216.506 68.3509 215.837 68.6035 214.967 68.6035C214.096 68.6035 213.427 68.3509 212.962 67.8456C212.495 67.3403 212.262 66.6148 212.262 65.669C212.262 64.7233 212.495 64.0016 212.962 63.504C213.43 63.004 214.102 62.7539 214.975 62.7539C215.848 62.7539 216.515 63.0053 216.977 63.508C217.44 64.0107 217.672 64.7336 217.672 65.6768ZM213.525 65.6768C213.525 66.3116 213.645 66.7897 213.887 67.111C214.127 67.4323 214.487 67.593 214.967 67.593C215.928 67.593 216.409 66.9543 216.409 65.6768C216.409 64.3968 215.931 63.7567 214.975 63.7567C214.495 63.7567 214.134 63.9187 213.89 64.2425C213.647 64.5639 213.525 65.042 213.525 65.6768Z" fill="black"/>
<path d="M223.504 68.5263H222.303V66.0737H220.053V68.5263H218.848V62.8438H220.053V65.0709H222.303V62.8438H223.504V68.5263Z" fill="black"/>
<path d="M229.598 68.5263H228.396V66.0737H226.146V68.5263H224.941V62.8438H226.146V65.0709H228.396V62.8438H229.598V68.5263Z" fill="black"/>
<path d="M234.922 66.75C234.922 67.3408 234.725 67.7851 234.331 68.0831C233.939 68.3785 233.359 68.5263 232.589 68.5263H231.035V62.8438H232.24V65.0242H232.629C233.357 65.0242 233.92 65.1758 234.319 65.479C234.721 65.7795 234.922 66.2033 234.922 66.75ZM232.24 67.539H232.555C232.952 67.539 233.242 67.4742 233.425 67.3446C233.609 67.2125 233.702 67.0143 233.702 66.75C233.702 66.4857 233.612 66.2965 233.433 66.1825C233.257 66.0685 232.946 66.0115 232.5 66.0115H232.24V67.539ZM236.814 68.5263H235.614V62.8438H236.814V68.5263Z" fill="black"/>
<path d="M241.523 68.5263H238.25V62.8438H241.523V63.831H239.455V65.0787H241.379V66.0659H239.455V67.5312H241.523V68.5263Z" fill="black"/>
<path d="M246.974 68.5263H245.769V63.8465H244.227V62.8438H248.517V63.8465H246.974V68.5263Z" fill="black"/>
<path d="M252.663 68.5263H249.391V62.8438H252.663V63.831H250.595V65.0787H252.519V66.0659H250.595V67.5312H252.663V68.5263Z" fill="black"/>
<path d="M258.446 68.5263H257.07L255.749 66.3768L254.427 68.5263H253.137L255.022 65.5956L253.257 62.8438H254.587L255.811 64.8882L257.012 62.8438H258.31L256.526 65.6617L258.446 68.5263Z" fill="black"/>
<path d="M263.82 68.5263H262.619V66.0737H260.368V68.5263H259.164V62.8438H260.368V65.0709H262.619V62.8438H263.82V68.5263Z" fill="black"/>
<path d="M270.415 65.6768C270.415 66.6174 270.181 67.3403 269.715 67.8456C269.248 68.3509 268.58 68.6035 267.709 68.6035C266.838 68.6035 266.17 68.3509 265.704 67.8456C265.237 67.3403 265.004 66.6148 265.004 65.669C265.004 64.7233 265.237 64.0016 265.704 63.504C266.172 63.004 266.844 62.7539 267.717 62.7539C268.59 62.7539 269.257 63.0053 269.719 63.508C270.182 64.0107 270.415 64.7336 270.415 65.6768ZM266.267 65.6768C266.267 66.3116 266.387 66.7897 266.629 67.111C266.87 67.4323 267.23 67.593 267.709 67.593C268.67 67.593 269.151 66.9543 269.151 65.6768C269.151 64.3968 268.673 63.7567 267.717 63.7567C267.237 63.7567 266.876 63.9187 266.632 64.2425C266.389 64.5639 266.267 65.042 266.267 65.6768Z" fill="black"/>
<path d="M276.087 68.5263H274.887V63.8465H273.495L273.433 64.3674C273.272 65.6915 273.13 66.6217 273.005 67.158C272.884 67.6918 272.705 68.0676 272.469 68.2853C272.233 68.5029 271.915 68.6091 271.513 68.604C271.295 68.604 271.103 68.5755 270.938 68.5185V67.5312C271.088 67.583 271.229 67.609 271.361 67.609C271.499 67.609 271.608 67.5468 271.688 67.4224C271.768 67.2954 271.843 67.0622 271.913 66.7228C271.986 66.3808 272.08 65.8223 272.197 65.0475C272.316 64.2702 272.418 63.5356 272.5 62.8438H276.087V68.5263Z" fill="black"/>
<path d="M282.68 65.6768C282.68 66.6174 282.447 67.3403 281.98 67.8456C281.515 68.3509 280.846 68.6035 279.975 68.6035C279.105 68.6035 278.436 68.3509 277.97 67.8456C277.503 67.3403 277.27 66.6148 277.27 65.669C277.27 64.7233 277.503 64.0016 277.97 63.504C278.438 63.004 279.11 62.7539 279.983 62.7539C280.856 62.7539 281.523 63.0053 281.985 63.508C282.448 64.0107 282.68 64.7336 282.68 65.6768ZM278.533 65.6768C278.533 66.3116 278.654 66.7897 278.895 67.111C279.135 67.4323 279.496 67.593 279.975 67.593C280.937 67.593 281.417 66.9543 281.417 65.6768C281.417 64.3968 280.939 63.7567 279.983 63.7567C279.503 63.7567 279.142 63.9187 278.898 64.2425C278.655 64.5639 278.533 65.042 278.533 65.6768Z" fill="black"/>
<path d="M287.451 62.8438V63.8387H285.064V68.5263H283.859V62.8438H287.451Z" fill="black"/>
<path d="M288.328 62.8438H289.413V65.5878L289.397 66.3224L289.358 67.158H289.382L292.005 62.8438H293.447V68.5263H292.375V65.7977C292.375 65.4323 292.398 64.8908 292.445 64.173H292.413L289.778 68.5263H288.328V62.8438Z" fill="black"/>
<path d="M294.883 62.8438H295.967V65.5878L295.951 66.3224L295.913 67.158H295.936L298.559 62.8438H300.001V68.5263H298.929V65.7977C298.929 65.4323 298.952 64.8908 298.999 64.173H298.968L296.332 68.5263H294.883V62.8438Z" fill="black"/>
</g>
<defs>
<linearGradient id="paint0_linear_995_610" x1="0" y1="71.0804" x2="71.0804" y2="7.6294e-06" gradientUnits="userSpaceOnUse">
<stop stop-color="#FF2A00"/>
<stop offset="1" stop-color="#FFD500"/>
</linearGradient>
<linearGradient id="paint1_linear_995_610" x1="0" y1="71.0804" x2="71.0804" y2="7.6294e-06" gradientUnits="userSpaceOnUse">
<stop stop-color="#FF2A00"/>
<stop offset="1" stop-color="#FFD500"/>
</linearGradient>
<clipPath id="clip0_995_610">
<rect width="300" height="71.4286" fill="white"/>
</clipPath>
</defs>
</svg>
