<svg width="793" height="880" viewBox="0 0 793 880" fill="none" xmlns="http://www.w3.org/2000/svg">
<path opacity="0.3" fill-rule="evenodd" clip-rule="evenodd" d="M189.924 330.547C179.295 463.561 145.987 626.724 90.7116 733.134C21.6168 866.15 94.2546 983.198 172.208 733.134C250.161 483.069 250.069 320.697 250.069 320.697C253.356 320.339 246.687 321.065 250.069 320.697C364.26 308.251 538.11 285.478 689.528 312.812C905.677 351.829 742.684 282.662 569.061 266.7C474.275 257.987 364.432 256.059 250.161 266.7C244.255 89.9402 231.558 -124.36 126.145 89.3491C102.522 134.869 50.6723 243.29 32.2471 312.812C-11.1585 312.812 -132.517 351.829 -29.7611 417.449C-17.9502 425.726 10.633 428.977 44.6486 365.13C80.9675 350.056 115.515 342.962 189.924 330.547ZM63.2512 303.945C86.578 296.851 144.57 281.599 189.925 277.342C196.716 140.487 180.889 -45.7917 63.2512 303.945ZM12.7597 376.658C6.26362 377.841 -10.8037 382.334 -27.1029 390.846C-18.5394 399.714 1.42114 409.291 12.7597 376.658Z" fill="#373F6A"/>
</svg>
