<svg width="176" height="133" viewBox="0 0 176 133" fill="none" xmlns="http://www.w3.org/2000/svg">
<g clip-path="url(#clip0_1844_16899)">
<path d="M1.28906 24.8226L36.2295 4.26811C39.3109 2.59944 42.7631 1.73417 46.2672 1.75223C49.7714 1.77029 53.2144 2.67109 56.2784 4.37143L146.014 54.0731C150.438 56.524 155.446 57.7253 160.501 57.5485C165.556 57.3717 170.467 55.8234 174.71 53.0694" stroke="#FF7F0B" stroke-width="2.58299" stroke-linecap="round" stroke-linejoin="round"/>
<path d="M124.734 115.629C125.814 116.452 134.954 124.209 134.954 124.209C134.954 124.209 130.048 123.993 128.075 123.406C126.616 122.972 122.377 121.289 120.27 120.443C120.117 120.382 119.979 120.288 119.865 120.169C119.75 120.05 119.662 119.908 119.607 119.753C119.551 119.597 119.53 119.432 119.543 119.267C119.556 119.103 119.604 118.943 119.684 118.799L121.746 115.051L124.734 115.629Z" fill="white" stroke="#4A63CE" stroke-width="0.614998" stroke-linecap="round" stroke-linejoin="round"/>
<path d="M117.047 24.7036L120.786 40.2249L132.619 54.563C132.619 54.563 129.773 57.0156 129.559 59.0721L113.287 45.1634L108.031 25.7959L112.484 19.2843C115.421 19.0001 116.613 22.898 117.047 24.7036Z" fill="white" stroke="#4A63CE" stroke-width="0.245999" stroke-linecap="round" stroke-linejoin="round"/>
<path d="M117.047 24.7036L120.786 40.2249L132.619 54.563C132.619 54.563 129.773 57.0156 129.559 59.0721L113.287 45.1634L108.031 25.7959L112.484 19.2843C115.421 19.0001 116.613 22.898 117.047 24.7036Z" fill="white" stroke="#4A63CE" stroke-width="0.368998" stroke-linecap="round" stroke-linejoin="round"/>
<path d="M117.937 60.1714C117.977 56.2158 116.974 53.6365 116.974 53.6365C116.974 53.6365 98.3355 50.4126 96.0981 60.0607C95.5618 62.3272 95.5132 64.6817 95.9555 66.9684L93.0834 88.2227L82.9766 107.88L86.0516 110.141L102.499 89.0689L108.639 73.0851C111.803 79.887 115.82 89.0689 115.82 89.0689L120.269 117.64C124.317 117.148 125.259 116.021 125.259 116.021L126.82 84.1083L117.937 60.1714Z" fill="white"/>
<path d="M117.937 60.1714C117.977 56.2158 116.974 53.6365 116.974 53.6365C116.974 53.6365 98.3355 50.4126 96.0981 60.0607C95.5618 62.3272 95.5132 64.6817 95.9555 66.9684L93.0834 88.2227L82.9766 107.88L86.0516 110.141L102.499 89.0689L108.639 73.0851C111.803 79.887 115.82 89.0689 115.82 89.0689L120.269 117.64C124.317 117.148 125.259 116.021 125.259 116.021L126.82 84.1083L117.937 60.1714Z" stroke="#4A63CE" stroke-width="0.614998" stroke-linecap="round" stroke-linejoin="round"/>
<path d="M93.9818 42.8152C94.1626 40.552 94.4824 38.3491 94.0199 36.1388C93.5643 33.9362 93.4481 31.6768 93.6755 29.439C93.9843 26.1709 95.9252 26.1021 98.0039 24.1378C101.015 21.2928 105.562 21.508 109.32 19.7676C110.058 19.4244 110.825 19.0628 111.643 19.0111C112.085 18.9859 112.526 19.0514 112.941 19.2038C113.356 19.3561 113.735 19.592 114.055 19.8967C115.72 21.4957 115.83 25.3456 116.269 27.5166C116.915 30.694 117.416 33.8961 117.772 37.1228C118.496 43.6873 118.879 49.5372 118.376 56.1226C118.612 57.034 117.223 58.2258 116.485 58.8113C110.581 63.5087 102.789 65.7731 95.2819 64.9773L96.2401 64.7092C95.1195 64.0474 94.8034 63.1938 94.614 61.906C93.6856 55.5865 93.4735 49.1823 93.9818 42.8152Z" fill="white"/>
<path d="M112.006 23.4781C112.04 24.1017 111.953 24.7684 111.561 25.2554C111.13 25.7917 110.418 26.007 109.742 26.1447C106.935 26.7071 104.024 26.4224 101.378 25.3268C100.426 24.9295 99.4104 24.2887 99.2542 23.269C99.1558 22.6306 99.435 21.9775 99.8593 21.4904C100.284 21.0033 100.843 20.6516 101.396 20.3195C102.38 19.7291 103.414 19.162 104.548 18.9665C106.024 18.7205 107.522 19.1178 108.964 19.5163C111.039 20.0931 111.887 21.2887 112.006 23.4781Z" fill="white" stroke="#4A63CE" stroke-width="0.491998" stroke-linecap="round" stroke-linejoin="round"/>
<path d="M93.9818 42.8152C94.1626 40.552 94.4824 38.3491 94.0199 36.1388C93.5643 33.9362 93.4481 31.6768 93.6755 29.439C93.9843 26.1709 95.9252 26.1021 98.0039 24.1378C101.015 21.2928 105.562 21.508 109.32 19.7676C110.058 19.4244 110.825 19.0628 111.643 19.0111C112.085 18.9859 112.526 19.0514 112.941 19.2038C113.356 19.3561 113.735 19.592 114.055 19.8967C115.72 21.4957 115.83 25.3456 116.269 27.5166C116.915 30.694 117.416 33.8961 117.772 37.1228C118.496 43.6873 118.879 49.5372 118.376 56.1226C118.612 57.034 117.223 58.2258 116.485 58.8113C110.581 63.5087 102.789 65.7731 95.2819 64.9773L96.2401 64.7092C95.1195 64.0474 94.8034 63.1938 94.614 61.906C93.6856 55.5865 93.4735 49.1823 93.9818 42.8152V42.8152Z" stroke="#4A63CE" stroke-width="0.491998" stroke-linecap="round" stroke-linejoin="round"/>
<path d="M103.291 10.8594C102.688 11.7204 102.885 17.9048 101.932 20.8014C101.505 22.0978 100.709 22.4078 100.709 22.4078C99.7867 23.1052 100.094 23.8137 101.186 24.1851C103.218 24.8752 106.213 25.6181 108.971 25.2442C109.423 25.1838 109.853 25.0106 110.22 24.7405C110.587 24.4705 110.881 24.1122 111.073 23.6989C111.266 23.2856 111.351 22.8304 111.321 22.3754C111.292 21.9204 111.148 21.4802 110.903 21.0954L110.111 19.8506L109.767 11.7634L103.291 10.8594Z" fill="white"/>
<g style="mix-blend-mode:multiply" opacity="0.71">
<path d="M110.314 23.6975C109.623 24.1784 108.704 24.1895 107.878 24.0284C106.156 23.6926 104.644 22.7098 103.241 21.6631C102.804 21.3384 102.358 20.9841 102.134 20.4897C101.91 19.9952 101.971 19.3199 102.424 19.0137C104.269 20.0173 106.268 21.053 108.358 20.8267C108.819 20.7775 109.275 20.6656 109.739 20.6705C111.521 20.6914 111.572 22.8254 110.314 23.6975Z" fill="#C4C7E8"/>
</g>
<path d="M103.291 10.8594C102.688 11.7204 102.885 17.9048 101.932 20.8014C101.505 22.0978 100.709 22.4078 100.709 22.4078C99.7867 23.1052 100.094 23.8137 101.186 24.1851C103.218 24.8752 106.213 25.6181 108.971 25.2442C109.423 25.1838 109.853 25.0106 110.22 24.7405C110.587 24.4705 110.881 24.1122 111.073 23.6989C111.266 23.2856 111.351 22.8304 111.321 22.3754C111.292 21.9204 111.148 21.4802 110.903 21.0954L110.111 19.8506L109.767 11.7634L103.291 10.8594Z" stroke="#4A63CE" stroke-width="0.245999" stroke-linecap="round" stroke-linejoin="round"/>
<path d="M83.1893 63.4179C85.0109 62.4598 87.2138 63.3454 89.0933 64.1941C90.9727 65.0428 93.2396 65.8361 94.9813 64.7377C95.5175 64.3995 95.9407 63.9087 96.3416 63.4167C98.7131 60.5065 99.3846 58.8768 100.778 55.391C100.677 54.9765 100.862 55.3319 101.262 55.1819C101.464 55.1127 101.685 55.1168 101.884 55.1934C102.084 55.2701 102.251 55.4144 102.355 55.6013C102.589 56.0527 102.399 56.5988 102.201 57.0675C100.578 60.9149 99.7721 62.9358 97.3269 66.322C96.3798 67.6344 95.2359 68.9947 93.6369 69.2899C92.8435 69.4363 92.028 69.2899 91.2335 69.1559L86.9285 68.3933C86.2409 68.2703 85.5411 68.1473 84.9236 67.8189C83.7367 67.1891 83.038 65.9148 82.5866 64.6492C82.4304 64.2137 82.3406 63.6283 82.7293 63.3761C83.177 63.0846 82.7158 63.6676 83.1893 63.4179Z" fill="white" stroke="#FF7F0B" stroke-width="0.491998" stroke-linecap="round" stroke-linejoin="round"/>
<path d="M108.494 20.3052C108.387 20.285 108.276 20.308 108.186 20.3692C107.58 20.6587 106.923 20.8235 106.252 20.8539C105.582 20.8844 104.912 20.7797 104.283 20.5463C104.009 20.4417 103.725 20.3003 103.595 20.0321C103.512 19.8143 103.488 19.5785 103.524 19.3483L103.583 18.5328C103.604 18.24 103.641 17.9178 103.861 17.721C104.02 17.6038 104.207 17.5311 104.403 17.5107C105.439 17.3169 106.493 17.2308 107.546 17.2536C107.817 17.2536 108.105 17.277 108.325 17.4344C108.603 17.6337 108.861 17.732 109.082 17.994C108.991 17.9291 108.915 17.8452 108.859 17.748L109.255 20.0272C109.269 20.067 109.269 20.1104 109.255 20.1502C109.231 20.1855 109.196 20.2112 109.155 20.2228C108.795 20.37 108.417 20.4701 108.031 20.5204C108.127 20.4983 108.435 20.2179 108.494 20.3052Z" fill="white" stroke="#4A63CE" stroke-width="0.245999" stroke-linecap="round" stroke-linejoin="round"/>
<path d="M136.416 54.9702C137.212 55.0514 138.22 54.6652 138.507 53.878C139.217 54.0121 139.368 55.0022 138.924 55.6529C138.48 56.3035 137.231 56.4376 136.484 56.611L140.629 58.8828C140.738 58.9437 140.822 59.0407 140.867 59.1571C140.912 59.2734 140.915 59.4018 140.875 59.52C140.795 59.7525 140.651 59.9763 140.394 59.9062C139.902 59.7709 136.05 58.1842 135.703 57.8312L140.579 60.6503C140.008 61.7192 140.226 61.8705 139.001 61.8705C136.725 61.6319 135.846 60.9689 134.258 59.8816C134.627 60.4339 136.255 61.3268 136.895 61.5728C136.738 62.1202 134.842 61.5458 134.391 61.2826C133.082 60.5175 131.541 60.1633 130.231 59.3982C128.492 58.3822 126.588 55.6738 129.628 54.167C131.922 53.0342 134.378 54.7624 136.416 54.9702Z" fill="white" stroke="#4A63CE" stroke-width="0.368998" stroke-linecap="round" stroke-linejoin="round"/>
<path d="M83.8756 63.0393C84.3676 62.5559 85.0884 62.3455 85.7809 62.3517C86.4734 62.3578 87.1499 62.5596 87.7969 62.808C89.3281 63.3958 90.7468 64.2425 91.9912 65.3111C92.2775 66.2636 92.2116 67.2874 91.8054 68.1954C91.6246 68.5976 91.3294 69.0035 90.8965 69.0835C90.6602 69.1093 90.4211 69.0841 90.1954 69.0097C89.3073 68.7821 86.7944 67.9125 86.0441 68.7637C86.1081 67.6296 85.5447 66.5657 84.9986 65.5657L84.0282 63.7982C83.8744 63.519 83.717 63.2127 83.7674 62.8978L83.8904 63.0897" fill="white"/>
<path d="M83.8756 63.0393C84.3676 62.5559 85.0884 62.3455 85.7809 62.3517C86.4734 62.3578 87.1499 62.5596 87.7969 62.808C89.3281 63.3958 90.7468 64.2425 91.9912 65.3111C92.2775 66.2636 92.2116 67.2874 91.8054 68.1954C91.6246 68.5976 91.3294 69.0035 90.8965 69.0835C90.6602 69.1093 90.4211 69.0841 90.1954 69.0097C89.3073 68.7821 86.7944 67.9125 86.0441 68.7637C86.1081 67.6296 85.5447 66.5657 84.9986 65.5657L84.0282 63.7982C83.8744 63.519 83.717 63.2127 83.7674 62.8978L83.8904 63.0897" stroke="#FF7F0B" stroke-width="0.491998" stroke-linecap="round" stroke-linejoin="round"/>
<path d="M104.796 55.8171C104.681 55.7162 104.527 55.6227 104.387 55.6805C104.247 55.7383 104.206 55.9032 104.129 56.0286C103.874 56.437 103.268 56.3976 102.813 56.2586C101.934 55.985 101.127 55.519 100.451 54.8946C100.554 54.9023 100.655 54.9187 100.755 54.9438C101.01 55.0053 101.256 55.1024 101.514 55.1443C101.681 55.1692 101.851 55.1771 102.019 55.1676C102.074 55.1714 102.129 55.1622 102.179 55.1409C102.229 55.1195 102.273 55.0865 102.309 55.0446C102.396 54.9032 102.257 54.7334 102.126 54.6301C101.539 54.164 100.528 53.5059 99.7219 53.7593C99.6589 53.7791 99.5989 53.8072 99.5435 53.8429L99.5214 53.8109C98.9664 54.2499 98.296 54.5184 97.5915 54.5838C96.8869 54.6493 96.1785 54.509 95.5522 54.1799C95.3185 54.0569 95.086 53.8811 95.0024 53.6289C94.6137 53.9979 91.3763 58.6325 91.9409 59.0064C93.5953 60.103 95.4815 60.8007 97.4513 61.0445C97.7241 61.0663 97.9942 61.1137 98.2582 61.186C98.5624 61.299 98.8515 61.4489 99.1192 61.6325C100.226 62.3164 101.702 62.9006 102.759 62.1356C102.892 62.0384 103.012 61.9228 103.154 61.8379C103.359 61.7149 103.599 61.662 103.815 61.5587C104.179 61.3708 104.457 61.0518 104.594 60.6663C104.731 60.2808 104.717 59.8576 104.553 59.4825C105.727 58.7063 105.86 56.7531 104.796 55.8171Z" fill="white" stroke="#4A63CE" stroke-width="0.491998" stroke-linecap="round" stroke-linejoin="round"/>
<path d="M108.383 73.5096C109.169 71.8666 110.226 70.3673 111.509 69.0742" stroke="#4A63CE" stroke-width="0.491998" stroke-linecap="round" stroke-linejoin="round"/>
<g style="mix-blend-mode:multiply" opacity="0.71">
<path d="M93.5233 48.361C92.864 42.9884 94.5651 37.4719 97.7938 33.1706C98.292 32.5076 99.4568 30.5679 100.41 30.7106C101.718 30.9074 101.334 32.9086 101.226 33.7487C100.68 37.8964 99.0555 41.8283 96.5134 45.1507C96.1628 45.612 93.4802 48.0117 93.5233 48.361Z" fill="#C4C7E8"/>
</g>
<path d="M97.3706 26.2228C94.1727 25.8464 93.5761 27.7713 89.4901 34.1661C85.404 40.5608 78.7891 48.4033 79.5529 50.6542C80.3168 52.9051 81.2823 55.2421 84.9169 56.5889C85.1932 56.7004 85.4944 56.7351 85.7887 56.6892C86.083 56.6432 86.3594 56.5185 86.5885 56.3281C87.7378 57.2227 88.9843 57.9847 90.3043 58.5999C91.6413 59.2149 93.2698 59.6725 94.538 58.9185C95.6536 58.2568 96.1124 56.8472 96.1087 55.5508C96.0964 51.9567 93.3547 49.0318 90.773 46.5312L90.5565 46.3234C93.4494 43.2041 101.123 34.7368 101.401 32.4318C101.743 29.5893 101.561 26.7172 97.3706 26.2228Z" fill="white"/>
<path d="M97.3706 26.2228C94.1727 25.8464 93.5761 27.7713 89.4901 34.1661C85.404 40.5608 78.7891 48.4033 79.5529 50.6542C80.3168 52.9051 81.2823 55.2421 84.9169 56.5889C85.1932 56.7004 85.4944 56.7351 85.7887 56.6892C86.083 56.6432 86.3594 56.5185 86.5885 56.3281C87.7378 57.2227 88.9843 57.9847 90.3043 58.5999C91.6413 59.2149 93.2698 59.6725 94.538 58.9185C95.6536 58.2568 96.1124 56.8472 96.1087 55.5508C96.0964 51.9567 93.3547 49.0318 90.773 46.5312L90.5565 46.3234C93.4494 43.2041 101.123 34.7368 101.401 32.4318C101.743 29.5893 101.561 26.7172 97.3706 26.2228Z" stroke="#4A63CE" stroke-width="0.368998" stroke-linecap="round" stroke-linejoin="round"/>
<path d="M79.311 114.903C79.065 115.329 79.0958 115.858 79.1388 116.35L79.3344 118.614C79.3971 119.343 79.4574 120.09 79.7305 120.766C80.1991 121.961 81.1413 122.501 81.9949 123.357C83.1818 124.546 80.3344 124.218 79.7206 123.972C77.2188 122.988 75.7514 120.386 74.1623 118.365C73.8105 117.917 73.439 117.41 73.4796 116.84C73.5276 116.188 74.0946 115.712 74.6112 115.315L76.4168 113.938" fill="white"/>
<path d="M79.311 114.903C79.065 115.329 79.0958 115.858 79.1388 116.35L79.3344 118.614C79.3971 119.343 79.4574 120.09 79.7305 120.766C80.1991 121.961 81.1413 122.501 81.9949 123.357C83.1818 124.546 80.3344 124.218 79.7206 123.972C77.2188 122.988 75.7514 120.386 74.1623 118.365C73.8105 117.917 73.439 117.41 73.4796 116.84C73.5276 116.188 74.0946 115.712 74.6112 115.315L76.4168 113.938" stroke="#FF7F0B" stroke-width="0.491998" stroke-linecap="round" stroke-linejoin="round"/>
<path d="M79.4522 114.935L86.5468 105.348L79.8446 105.923L76.3071 114.181L76.4117 114.241C76.2819 114.661 76.2197 115.1 76.2272 115.541C76.2311 116.666 76.4854 117.777 76.9715 118.792C77.4575 119.808 78.1633 120.702 79.0377 121.411C79.451 121.741 79.9393 122.04 80.467 122.012C79.5371 120.192 79.3747 118.092 79.2296 116.054C79.2001 115.619 79.3563 115.284 79.4522 114.935Z" fill="white" stroke="#FF7F0B" stroke-width="0.491998" stroke-linecap="round" stroke-linejoin="round"/>
<path d="M76.5441 75.0973C75.907 76.0813 74.0374 82.7134 73.3019 85.2054C72.5663 87.6974 68.3438 107.96 68.3438 107.96C68.3438 107.96 75.2981 110.902 77.8701 111.219C80.442 111.535 92.9879 109.263 95.3864 105.727C95.3864 105.727 91.9105 97.9297 91.7973 92.6272C91.6841 87.3247 88.2734 77.6766 87.0766 74.3027C87.0766 74.3027 86.6694 76.1182 83.1406 76.9435C79.8922 77.7024 76.7028 75.9694 76.5441 75.0973Z" fill="white"/>
<path d="M76.5441 75.0973C75.907 76.0813 74.0374 82.7134 73.3019 85.2054C72.5663 87.6974 68.3438 107.96 68.3438 107.96C68.3438 107.96 75.2981 110.902 77.8701 111.219C80.442 111.535 92.9879 109.263 95.3864 105.727C95.3864 105.727 91.9105 97.9297 91.7973 92.6272C91.6841 87.3247 88.2734 77.6766 87.0766 74.3027C87.0766 74.3027 86.6694 76.1182 83.1406 76.9435C79.8922 77.7024 76.7028 75.9694 76.5441 75.0973Z" stroke="#FF7F0B" stroke-width="0.368998" stroke-linecap="round" stroke-linejoin="round"/>
<path d="M97.6378 80.0303L83.5703 88.1569C83.5703 88.1569 87.3722 87.5136 87.9565 91.2171C88.5407 94.9207 86.1115 106.549 89.2492 108.125C92.3869 109.7 94.2208 108.642 94.2208 108.642L109.596 99.7644C109.596 99.7644 104.529 101.916 103.249 98.602C101.969 95.2884 103.249 84.7584 102.37 82.9184C101.49 81.0783 100.654 79.713 97.6378 80.0303Z" fill="white"/>
<path d="M97.6378 80.0303L83.5703 88.1569C83.5703 88.1569 87.3722 87.5136 87.9565 91.2171C88.5407 94.9207 86.1115 106.549 89.2492 108.125C92.3869 109.7 94.2208 108.642 94.2208 108.642L109.596 99.7644C109.596 99.7644 104.529 101.916 103.249 98.602C101.969 95.2884 103.249 84.7584 102.37 82.9184C101.49 81.0783 100.654 79.713 97.6378 80.0303Z" stroke="#4A63CE" stroke-width="0.614998" stroke-linecap="round" stroke-linejoin="round"/>
<path d="M77.9693 58.0664C77.9693 58.0664 77.7504 63.4083 77.6717 63.7244C77.593 64.0405 75.9964 64.3394 75.5487 64.7084C75.101 65.0774 77.85 69.4094 79.2547 70.0527C80.6593 70.696 85.0135 69.0761 85.3235 66.9125C85.6076 64.9199 84.0935 63.3665 83.5043 62.824C83.112 62.7392 82.4797 62.8154 82.3026 62.7896L82.1796 60.7232C80.2781 60.1057 77.9693 58.0664 77.9693 58.0664Z" fill="white" stroke="#FF7F0B" stroke-width="0.368998" stroke-linecap="round" stroke-linejoin="round"/>
<path d="M76.9042 64.1353C75.7074 64.3161 74.336 64.9508 74.1454 65.6051C73.924 66.369 73.4393 69.9729 74.4676 72.717C75.4959 75.4611 76.1084 76.1401 76.7013 77.3233C76.7013 77.3233 83.1046 78.3799 87.2891 75.8018C87.2891 75.8018 86.9988 75.4131 87.1661 73.8486C87.6027 69.5817 87.0431 66.0369 83.7897 62.8044C83.3986 62.7652 83.0048 62.759 82.6126 62.786C82.6126 62.786 83.8057 63.8475 84.3961 65.1992C84.9386 66.4378 84.5277 67.733 83.4859 68.1918C81.9694 68.8609 80.8611 68.455 79.5807 67.0725C78.7037 66.1328 78.2892 64.9151 76.9042 64.1353Z" fill="white"/>
<path d="M84.1231 63.3204C84.5241 63.6008 84.7898 64.1285 84.6287 64.591C84.9058 64.6351 85.165 64.7562 85.3767 64.9404C85.5885 65.1245 85.7443 65.3644 85.8265 65.6328C85.9086 65.9011 85.9138 66.1872 85.8414 66.4583C85.769 66.7295 85.622 66.9749 85.4171 67.1666C85.8267 67.8714 85.9091 68.8246 85.4171 69.4728C84.9251 70.121 83.7713 70.2108 83.3261 69.5269C83.3433 70.3978 82.3507 71.0706 81.502 70.8799C80.6533 70.6893 80.0654 69.8148 80.026 68.9439C79.903 69.1346 79.6164 69.0866 79.411 68.9919C78.8964 68.739 78.4692 68.3381 78.1843 67.8405C77.8993 67.343 77.7697 66.7716 77.812 66.1998C77.4189 66.1721 77.0479 66.0076 76.7634 65.7348C76.4789 65.462 76.299 65.0982 76.2548 64.7066C76.2406 64.6213 76.2581 64.5338 76.304 64.4606C76.3554 64.4056 76.4217 64.3667 76.4947 64.3487C77.8305 63.8764 79.1959 63.4922 80.582 63.1986C81.7271 62.9465 83.0653 62.5775 84.1231 63.3204Z" fill="white" stroke="#FF7F0B" stroke-width="0.368998" stroke-linecap="round" stroke-linejoin="round"/>
<path d="M76.9042 64.1353C75.7074 64.3161 74.336 64.9508 74.1454 65.6051C73.924 66.369 73.4393 69.9729 74.4676 72.717C75.4959 75.4611 76.1084 76.1401 76.7013 77.3233C76.7013 77.3233 83.1046 78.3799 87.2891 75.8018C87.2891 75.8018 86.9988 75.4131 87.1661 73.8486C87.6027 69.5817 87.0431 66.0369 83.7897 62.8044C83.3986 62.7652 83.0048 62.759 82.6126 62.786C82.6126 62.786 83.8057 63.8475 84.3961 65.1992C84.9386 66.4378 84.5277 67.733 83.4859 68.1918C81.9694 68.8609 80.8611 68.455 79.5807 67.0725C78.7037 66.1328 78.2892 64.9151 76.9042 64.1353Z" stroke="#FF7F0B" stroke-width="0.368998" stroke-linecap="round" stroke-linejoin="round"/>
<path d="M80.8746 47.5793C80.8746 47.5793 80.4711 45.6814 78.1378 45.754C73.759 45.8905 69.6336 56.76 70.9178 61.461C70.9178 61.461 72.5167 62.771 74.2068 62.83L74.8377 61.0908L74.9066 62.7796C74.9066 62.7796 76.7037 63.2802 77.6495 62.8165C78.5954 62.3528 77.3592 62.7845 77.3592 62.7845L80.8746 47.5793Z" fill="#FF7F0B" stroke="#FF7F0B" stroke-width="0.245999" stroke-linecap="round" stroke-linejoin="round"/>
<path d="M89.244 53.9979C89.613 50.6191 87.9267 47.5404 84.5307 46.8356C83.166 46.5468 81.745 46.6942 80.4687 47.257C79.1923 47.8198 78.1251 48.7696 77.4181 49.9721C76.711 51.1745 76.3997 52.5688 76.5283 53.9578C76.6569 55.3468 77.2189 56.6603 78.1347 57.7125C78.1347 57.7125 78.1237 58.9646 78.2688 59.2672C79.0843 60.967 81.9932 62.689 83.0264 62.9817C83.9219 63.2351 84.9218 62.6041 86.1383 61.4369C88.6696 59.0076 89.0928 55.6744 89.244 53.9979Z" fill="white" stroke="#FF7F0B" stroke-width="0.368998" stroke-linecap="round" stroke-linejoin="round"/>
<path d="M89.4542 51.2534C89.0407 49.9813 88.2505 48.865 87.1882 48.0522C86.1259 47.2395 84.8418 46.7687 83.5059 46.7024C82.0872 46.6373 80.6844 47.0235 79.499 47.8057C78.3136 48.5878 77.4065 49.7255 76.9082 51.0553C76.4969 52.1738 76.394 53.3822 76.6104 54.5541C76.8269 55.726 77.3545 56.818 78.1382 57.7158C78.1259 57.4771 77.1025 54.5042 78.9894 54.4095C79.18 54.8031 79.3165 55.7908 79.1935 56.3049C79.1935 56.3049 82.1086 50.893 82.1185 50.0111C83.521 51.0241 85.1873 51.6086 86.9154 51.6937C88.1344 51.754 89.036 51.5276 89.4542 51.2534Z" fill="#FF7F0B" stroke="#FF7F0B" stroke-width="0.245999" stroke-linecap="round" stroke-linejoin="round"/>
<path d="M82.1203 50.0095C82.1203 50.0095 82.3097 52.2826 81.4844 54.1915C81.4844 54.1915 83.2248 55.13 85.1006 55.4547C86.9763 55.7794 88.7229 56.039 90.194 54.9922C90.884 54.1005 91.3944 48.5262 86.504 47.584L82.1203 50.0095Z" fill="#FF7F0B" stroke="#FF7F0B" stroke-width="0.245999" stroke-linecap="round" stroke-linejoin="round"/>
<path d="M78.1343 57.7112C78.1343 57.7112 77.8883 57.9917 77.2561 57.8551C76.0679 57.6018 75.2721 55.0544 76.614 53.8257C77.4517 53.0569 78.6423 53.961 78.9277 54.6289L78.1343 57.7112Z" fill="white"/>
<path d="M90.2192 131.829C89.6657 131.446 87.7186 130.622 86.464 130.107C86.1606 129.982 85.9134 129.751 85.7692 129.456C85.625 129.161 85.5939 128.824 85.6817 128.508L86.1405 126.857L88.6682 126.119L92.2548 129.237L95.1133 131.205" fill="white"/>
<path d="M90.2192 131.829C89.6657 131.446 87.7186 130.622 86.464 130.107C86.1606 129.982 85.9134 129.751 85.7692 129.456C85.625 129.161 85.5939 128.824 85.6817 128.508L86.1405 126.857L88.6682 126.119L92.2548 129.237L95.1133 131.205" stroke="#FF7F0B" stroke-width="0.491998" stroke-linecap="round" stroke-linejoin="round"/>
<path d="M92.5584 129.561C91.877 128.982 90.1218 127.185 88.6692 126.127C88.6692 126.127 86.3174 111.064 86.0542 110.148L80.625 111.105L86.048 127.024L86.2092 126.969C86.2552 127.05 86.307 127.127 86.3642 127.201C86.9423 127.939 87.7848 128.431 88.62 128.868C89.7725 129.473 91.0062 130.035 92.31 130.019C92.4834 130.019 92.7122 129.946 92.7011 129.773C92.6832 129.686 92.632 129.61 92.5584 129.561Z" fill="white" stroke="#FF7F0B" stroke-width="0.491998" stroke-linecap="round" stroke-linejoin="round"/>
<path d="M113.608 12.4332C113.621 7.51322 111.84 5.64855 108.222 5.11104C104.373 4.54155 101.991 6.66329 101.415 10.5513C101.077 12.8256 102.187 18.4097 102.357 18.7222C103.316 20.4786 106.482 22.128 107.587 22.374C108.546 22.588 109.555 21.855 110.773 20.5376C113.298 17.7923 113.548 14.2216 113.608 12.4332Z" fill="white" stroke="#4A63CE" stroke-width="0.245999" stroke-linecap="round" stroke-linejoin="round"/>
<path d="M76.3433 76.3601C76.6151 76.3134 76.9804 76.4758 77.2043 76.5385C78.0505 76.7685 81.8561 77.4536 84.8364 76.1695C85.7712 75.7685 86.6814 75.2187 87.2189 74.3516C87.4649 74.819 87.5879 75.1449 87.2829 75.5717C86.9989 75.9301 86.6616 76.2429 86.2829 76.4991C84.9835 77.2603 83.5436 77.7507 82.0498 77.9409C80.556 78.1312 79.0392 78.0173 77.5905 77.6061C77.2154 77.4991 76.3113 77.3454 76.0346 77.0895C75.8439 76.9112 75.887 76.5508 76.2265 76.3884C76.264 76.374 76.3033 76.3645 76.3433 76.3601Z" fill="#FF7F0B" stroke="#FF7F0B" stroke-width="0.245999" stroke-linecap="round" stroke-linejoin="round"/>
<path d="M93.2641 66.2786C93.2748 66.5515 93.2508 66.8247 93.1928 67.0916C93.0877 67.6348 92.9189 68.1637 92.6897 68.6673C92.5593 68.9526 92.3945 69.2466 92.1153 69.3917C91.6754 69.2406 91.215 69.1577 90.75 69.1457C91.8902 68.1531 92.2592 66.3758 91.611 65.0117C92.579 65.1839 93.194 65.1409 93.2641 66.2786Z" fill="white" stroke="#FF7F0B" stroke-width="0.491998" stroke-linecap="round" stroke-linejoin="round"/>
<path d="M90.4062 93.2739V96.7609C90.4063 96.8673 90.434 96.9718 90.4865 97.0643C90.539 97.1568 90.6147 97.2341 90.706 97.2886C90.7973 97.3431 90.9013 97.373 91.0076 97.3754C91.1139 97.3778 91.2191 97.3525 91.3128 97.3021L94.0913 95.8162C94.2913 95.7109 94.4589 95.5532 94.5761 95.3599C94.6933 95.1666 94.7558 94.9451 94.7567 94.7191V91.2751C94.7574 91.1687 94.7305 91.064 94.6786 90.9712C94.6267 90.8783 94.5516 90.8005 94.4606 90.7453C94.3696 90.6902 94.2659 90.6596 94.1596 90.6565C94.0532 90.6534 93.9479 90.678 93.8539 90.7278L91.0815 92.1742C90.8792 92.2783 90.7093 92.4358 90.5903 92.6297C90.4712 92.8236 90.4076 93.0464 90.4062 93.2739Z" fill="white" stroke="#4A63CE" stroke-width="0.245999" stroke-linecap="round" stroke-linejoin="round"/>
<path d="M96.5781 91.5039V92.9012L100.922 90.5777V89.2383L96.5781 91.5039Z" fill="white" stroke="#4A63CE" stroke-width="0.245999" stroke-linecap="round" stroke-linejoin="round"/>
<path d="M94.5312 83.8553L95.2717 84.5884L99.7649 82.185L98.8756 81.3203L94.5312 83.8553Z" fill="white" stroke="#4A63CE" stroke-width="0.245999" stroke-linecap="round" stroke-linejoin="round"/>
<path d="M96.5781 98.2559V99.6544L100.922 97.3297V95.9902L96.5781 98.2559Z" fill="white" stroke="#4A63CE" stroke-width="0.245999" stroke-linecap="round" stroke-linejoin="round"/>
<path d="M96.5781 100.084V101.483L100.922 99.1591V97.8184L96.5781 100.084Z" fill="white" stroke="#4A63CE" stroke-width="0.245999" stroke-linecap="round" stroke-linejoin="round"/>
<path d="M90.4063 101.068V104.56C90.4058 104.666 90.4331 104.772 90.4855 104.865C90.5379 104.958 90.6137 105.035 90.7053 105.09C90.7968 105.145 90.9011 105.175 91.0079 105.177C91.1146 105.18 91.2201 105.154 91.314 105.103L94.0925 103.618C94.2918 103.511 94.4584 103.353 94.5745 103.159C94.6906 102.965 94.7519 102.744 94.7518 102.518V99.0739C94.7525 98.9676 94.7256 98.8628 94.6737 98.77C94.6217 98.6771 94.5466 98.5993 94.4557 98.5442C94.3647 98.489 94.261 98.4584 94.1547 98.4553C94.0483 98.4523 93.943 98.4768 93.849 98.5266L91.0766 99.9718C90.876 100.077 90.7076 100.234 90.5895 100.427C90.4714 100.62 90.408 100.841 90.4063 101.068Z" fill="white" stroke="#4A63CE" stroke-width="0.245999" stroke-linecap="round" stroke-linejoin="round"/>
<path d="M91.7344 95.4498L92.5843 92.7168L94.5363 96.7721" stroke="#4A63CE" stroke-width="0.983996" stroke-linecap="round" stroke-linejoin="round"/>
<path d="M91.7344 103.624L92.5843 100.891L94.5363 104.946" stroke="#4A63CE" stroke-width="0.983996" stroke-linecap="round" stroke-linejoin="round"/>
<path d="M87.9998 86.5887C87.9446 86.6194 87.8993 86.6652 87.869 86.7206C87.8387 86.7761 87.8248 86.839 87.8288 86.902C87.8328 86.9651 87.8545 87.0257 87.8916 87.0769C87.9286 87.1281 87.9793 87.1678 88.038 87.1914C88.653 87.4374 89.4943 87.8666 89.664 88.3771C89.9408 89.2061 89.589 89.7079 90.1917 89.7301C90.6197 89.7473 92.3233 88.7891 93.2741 88.2319C93.5401 88.0811 93.7473 87.8445 93.8616 87.5608C93.976 87.2771 93.9909 86.9631 93.9038 86.6698C93.8666 86.5509 93.8069 86.4403 93.7279 86.3439C93.3011 85.842 91.9457 84.9134 91.3171 84.9909C90.8657 85.0425 89.0011 86.0376 87.9998 86.5887Z" fill="white" stroke="#4A63CE" stroke-width="0.245999" stroke-linecap="round" stroke-linejoin="round"/>
<path d="M86.155 88.77C86.4551 88.5818 86.802 88.476 87.0836 88.2633C87.3653 88.0505 88.8696 87.4355 88.7257 87.1132V87.1058C88.69 87.0346 88.6382 86.9727 88.5745 86.9249C88.5107 86.8771 88.4368 86.8448 88.3584 86.8305C88.2801 86.8162 88.1995 86.8203 88.1229 86.8424C88.0464 86.8646 87.9761 86.9042 87.9176 86.9582C87.3837 87.4293 86.2878 87.652 85.674 87.8254C85.3555 87.9164 83.7958 88.6728 83.7061 88.6642C80.8119 86.786 72.6496 81.8488 72.6496 81.8488C72.6496 81.8488 77.0948 71.1343 77.1699 69.1885C77.2449 67.2426 76.7923 64.2365 74.2511 65.3817C73.058 65.9192 69.4086 82.2572 69.5427 83.4011C69.6767 84.545 83.1722 91.0603 83.3346 91.0308C84.0209 91.2681 84.7811 91.492 85.4908 91.492C85.7289 91.497 85.9667 91.4735 86.1993 91.4219C86.3788 91.373 86.5544 91.3105 86.7245 91.2349C87.0983 91.099 87.4527 90.9146 87.7786 90.6864C87.7957 90.6799 87.81 90.6678 87.8192 90.6519C87.8278 90.6421 87.8302 90.6371 87.8265 90.6359C87.9299 90.4071 87.5805 89.476 87.0664 89.2165C86.9914 89.4379 86.8782 89.4453 86.6494 89.4883C86.5342 89.5085 86.4157 89.4982 86.3057 89.4585C86.1957 89.4188 86.0979 89.3511 86.0221 89.262C85.9714 89.207 85.941 89.1362 85.936 89.0615C85.946 88.9988 85.9712 88.9394 86.0093 88.8886C86.0475 88.8378 86.0975 88.7971 86.155 88.77Z" fill="white" stroke="#FF7F0B" stroke-width="0.491998" stroke-linecap="round" stroke-linejoin="round"/>
<path d="M109.876 22.4873C109.755 22.5339 109.627 22.5592 109.497 22.5623L107.898 22.6952C107.726 22.7087 106.842 22.5353 106.591 22.4049C105.818 21.999 105.064 21.5607 104.326 21.09C103.619 20.6374 102.911 20.1368 102.457 19.4295C101.88 18.5329 101.783 17.4209 101.7 16.3545C101.763 16.3816 101.747 16.282 101.691 16.3176L101.775 16.4406C102.208 15.9781 102.404 15.3336 102.435 14.7014C102.465 14.0692 102.349 13.4407 102.227 12.8195C102.168 12.5145 102.104 12.1959 101.908 11.9585C101.641 11.624 101.306 11.6732 100.951 11.742C100.905 10.4926 100.975 9.24162 101.162 8.00532C101.363 6.76549 101.767 5.53795 102.497 4.51583C102.804 4.37712 103.122 4.26438 103.448 4.17881C106.42 3.54659 110.571 3.73601 112.859 5.0189C114.516 5.94877 113.709 8.48871 113.816 9.90936C113.795 9.80112 113.545 10.6092 113.454 10.5994C113.01 9.36939 113.24 8.24148 112.224 7.4137C112.381 7.96689 112.392 8.55134 112.255 9.10986C110.634 9.46656 107.95 9.33249 106.312 9.04959C106.197 9.03914 106.087 8.99887 105.992 8.93274C105.9 8.83877 105.838 8.71917 105.815 8.58957C105.719 8.23647 105.649 7.87674 105.606 7.51333L104.852 7.30423C104.351 8.23164 103.47 8.98194 103.276 10.0164C103.221 10.4124 103.218 10.8141 103.27 11.2107L103.691 16.143C103.814 16.2524 104.611 16.9535 104.774 16.9757C104.94 16.5759 106.527 15.9855 106.96 15.9917L110.424 16.0679C111.243 16.0864 111.245 16.2143 111.837 16.8256C111.993 16.988 112.17 17.1946 112.392 17.1565C112.516 17.1246 112.624 17.0452 112.69 16.9351C112.954 16.5661 113.253 15.8847 113.283 15.4308C113.283 15.4308 113.415 15.6387 112.81 18.1725C112.628 18.9375 112.399 19.7247 111.876 20.3139C111.786 20.3237 109.998 22.4319 109.876 22.4873Z" fill="#4A63CE"/>
<path d="M100.274 14.5616C100.413 15.2113 100.758 15.7987 101.258 16.2368C101.457 16.4151 101.702 16.5332 101.965 16.5775C102.049 16.5926 102.136 16.5778 102.211 16.5357C102.327 16.4582 102.341 16.2971 102.346 16.1581C102.381 15.1187 102.937 12.6932 101.977 11.9072C100.228 10.4657 100.027 13.5407 100.274 14.5616Z" fill="white" stroke="#4A63CE" stroke-width="0.245999" stroke-linecap="round" stroke-linejoin="round"/>
<path d="M75.6978 64.7754C76.6215 64.7754 77.7888 67.185 77.5428 69.1456C77.2968 71.1062 73.3768 80.662 73.3768 80.662C73.3768 80.662 72.4826 80.0199 71.7028 79.7912C70.6413 79.4775 70.0263 79.801 69.7422 80.2942C69.7422 80.2942 69.9205 79.6054 70.0288 77.7629C70.2047 74.7371 70.4925 69.6265 71.7249 66.9107C72.5798 65.0448 74.0582 64.7754 75.6978 64.7754Z" fill="white" stroke="#FF7F0B" stroke-width="0.491998" stroke-linecap="round" stroke-linejoin="round"/>
<path d="M74.2821 78.8261L73.0632 81.2356C73.0632 81.2356 70.7262 79.6834 69.7422 80.2959L70.0374 77.7646C70.0374 77.7646 72.4851 76.4165 74.2821 78.8261Z" fill="white" stroke="#FF7F0B" stroke-width="0.491998" stroke-linecap="round" stroke-linejoin="round"/>
<path d="M99.7489 58.8249L99.8719 58.8654C100.01 58.2692 100.196 57.685 100.428 57.1188C100.512 57.557 100.482 58.0096 100.339 58.4325C100.306 58.5373 100.294 58.6477 100.303 58.7573C100.313 58.8669 100.344 58.9736 100.395 59.071C100.446 59.1685 100.516 59.2549 100.6 59.3252C100.685 59.3954 100.783 59.4482 100.888 59.4804C100.999 59.5223 101.12 59.5358 101.238 59.5197C101.356 59.5036 101.468 59.4584 101.564 59.3882C101.668 59.3137 101.754 59.2186 101.819 59.109C102.17 58.5245 102.365 57.8594 102.384 57.1779C102.538 57.5895 102.529 58.045 102.357 58.4497C102.658 58.5936 102.949 58.2271 103.054 57.9097C103.298 57.1634 103.324 56.3631 103.13 55.6023C103.103 55.4566 103.038 55.3207 102.941 55.2087C102.791 55.0884 102.607 55.0171 102.416 55.0045L101.296 54.82C98.8572 54.4165 99.7637 56.339 99.2975 57.927C99.2427 58.106 99.259 58.2992 99.3431 58.4665C99.4272 58.6337 99.5726 58.7621 99.7489 58.8249Z" fill="white" stroke="#FF7F0B" stroke-width="0.491998" stroke-linecap="round" stroke-linejoin="round"/>
</g>
<defs>
<clipPath id="clip0_1844_16899">
<rect width="176" height="131.616" fill="white" transform="translate(0 0.460938)"/>
</clipPath>
</defs>
</svg>
