<svg width="1680" height="1049" viewBox="0 0 1680 1049" fill="none" xmlns="http://www.w3.org/2000/svg">
<mask id="mask0_2_480" style="mask-type:alpha" maskUnits="userSpaceOnUse" x="0" y="0" width="1680" height="1049">
<rect width="1680" height="1049" fill="#C4C4C4"/>
</mask>
<g mask="url(#mask0_2_480)">
<path opacity="0.1" d="M1797.08 -72C1806.65 -77.5228 1822.16 -77.5228 1831.72 -71.9999L2340.52 221.756C2350.09 227.279 2350.09 236.233 2340.52 241.756L1404.04 782.433C1394.48 787.956 1378.97 787.956 1369.4 782.433L860.602 488.677C851.036 483.154 851.036 474.2 860.602 468.677L1797.08 -72Z" fill="#F9F9FF"/>
<path opacity="0.1" d="M1227.27 57C1236.84 51.4772 1252.35 51.4772 1261.91 57L1317.99 89.3774C1327.56 94.9002 1327.56 103.855 1317.99 109.377L1235.32 157.107C1225.76 162.629 1210.25 162.629 1200.68 157.107L1144.6 124.729C1135.04 119.206 1135.04 110.252 1144.6 104.729L1227.27 57Z" fill="#F9F9FF"/>
<path opacity="0.1" d="M982.101 64.0001C991.667 58.4772 1007.18 58.4772 1016.74 64L1035.15 74.6267C1044.71 80.1495 1044.71 89.1038 1035.15 94.6267L1021.65 102.421C1012.08 107.944 996.573 107.944 987.008 102.421L968.602 91.7941C959.036 86.2713 959.036 77.317 968.602 71.7941L982.101 64.0001Z" fill="#F9F9FF"/>
<path opacity="0.1" d="M865.484 959C875.05 953.477 890.559 953.477 900.125 959L927.758 974.954C937.323 980.476 937.323 989.431 927.758 994.954L881.873 1021.45C872.307 1026.97 856.798 1026.97 847.232 1021.45L819.6 1005.49C810.034 999.969 810.034 991.014 819.6 985.492L865.484 959Z" fill="#F9F9FF"/>
<path opacity="0.1" d="M412.484 49.0001C422.05 43.4772 437.559 43.4772 447.125 49L474.758 64.9536C484.323 70.4764 484.323 79.4307 474.758 84.9536L428.873 111.445C419.307 116.968 403.798 116.968 394.232 111.445L366.6 95.4916C357.034 89.9687 357.034 81.0144 366.6 75.4916L412.484 49.0001Z" fill="#F9F9FF"/>
<path opacity="0.1" d="M617.117 136.346C626.683 130.823 642.192 130.823 651.758 136.346L1095.87 392.756C1105.44 398.279 1105.44 407.233 1095.87 412.756L1.07812 1044.84C-8.48773 1050.36 -23.997 1050.36 -33.5629 1044.84L-477.678 788.426C-487.244 782.903 -487.244 773.949 -477.678 768.426L617.117 136.346Z" fill="#F9F9FF"/>
</g>
</svg>
