<svg width="141" height="117" viewBox="0 0 141 117" fill="none" xmlns="http://www.w3.org/2000/svg">
<g clip-path="url(#clip0_1281_2106)">
<path d="M79.6992 65.7285V106.177L141.002 70.7844V30.3359L79.6992 65.7285Z" fill="url(#paint0_linear_1281_2106)"/>
<path d="M27.1543 35.3926V75.841L79.6989 106.178V65.7293L27.1543 35.3926Z" fill="url(#paint1_linear_1281_2106)"/>
<path d="M31.7812 41.627V74.9512L75.0713 99.9433V66.6206L31.7812 41.627Z" fill="url(#paint2_linear_1281_2106)"/>
<path d="M75.0713 99.9433V98.5861L33.2176 74.4233V42.4561L31.7812 41.627V74.9512L75.0713 99.9433Z" fill="#F3F8FF"/>
<g style="mix-blend-mode:multiply" opacity="0.42">
<path d="M31.7812 41.627V42.9841L73.6334 67.1485V99.1141L75.0713 99.9433V66.6206L31.7812 41.627Z" fill="#4D4F80"/>
</g>
<path d="M88.4566 0L141.001 30.3367L79.6989 65.7293L27.1543 35.3926L88.4566 0Z" fill="#DCE6F4"/>
<path d="M87.8175 4.78125L132.719 30.705L87.3843 57.2358L42.4824 31.3121L87.8175 4.78125Z" fill="#4D4F80"/>
<path d="M96.6264 46.0905L114.018 36.0518C118.986 33.1869 119.518 28.8531 115.221 26.3717L95.204 14.8143C90.9059 12.3299 83.4029 12.6404 78.434 15.51L61.0428 25.5487C56.0739 28.4136 55.5413 32.7475 59.8394 35.2288L79.8563 46.7846C84.1575 49.266 91.6637 48.9554 96.6264 46.0905Z" stroke="#627BFD" stroke-width="5.3" stroke-miterlimit="10"/>
<path d="M63.7751 27.388L81.6212 17.0853C84.8339 15.2297 89.6957 15.0294 92.4736 16.635L112.064 27.9439C114.846 29.5511 114.497 32.3554 111.287 34.211L93.4426 44.5137C90.2298 46.3677 85.3681 46.5696 82.5886 44.964L63.0003 33.6535C60.2146 32.048 60.564 29.2421 63.7751 27.388Z" stroke="white" stroke-width="5.3" stroke-miterlimit="10"/>
<path d="M69.8792 27.9266L82.5562 20.6083C85.2642 19.0446 89.362 18.8738 91.7067 20.2294L105.837 28.3877C108.183 29.7418 107.888 32.1067 105.18 33.6672L92.5033 40.9855C89.7953 42.5491 85.6974 42.7184 83.3527 41.3644L69.2224 33.2061C66.8762 31.8552 67.1712 29.4903 69.8792 27.9266Z" stroke="#627BFD" stroke-width="5.3" stroke-miterlimit="10"/>
<path d="M76.3243 28.2926L83.1907 24.3283C85.5602 22.9603 89.1456 22.8128 91.1968 23.9976L99.3101 28.6808C101.363 29.8656 101.105 31.9416 98.7356 33.3034L91.8692 37.2677C89.4996 38.6357 85.9143 38.7848 83.863 37.6L75.7575 32.9152C73.697 31.7305 73.9547 29.6622 76.3243 28.2926Z" stroke="white" stroke-width="5.3" stroke-miterlimit="10"/>
<path d="M81.5177 29.4539L85.2025 27.3281C86.4726 26.5936 88.395 26.5145 89.4959 27.1495L93.8437 29.6619C94.9446 30.2985 94.8064 31.4088 93.5331 32.1464L89.8499 34.2737C88.5798 35.0066 86.6559 35.0874 85.5565 34.4507L81.2087 31.9383C80.1047 31.2986 80.2475 30.1883 81.5177 29.4539Z" stroke="#627BFD" stroke-width="5.3" stroke-miterlimit="10"/>
<path d="M85.8844 30.4321L86.8937 29.8482C87.0726 29.749 87.2722 29.693 87.4765 29.6847C87.6809 29.6763 87.8844 29.7158 88.0708 29.8001L89.2617 30.488C89.5645 30.6635 89.5257 30.9662 89.1779 31.1681L88.1686 31.7504C87.9899 31.8502 87.7904 31.9067 87.586 31.9154C87.3815 31.924 87.178 31.8845 86.9916 31.8001L85.799 31.1107C85.4978 30.9368 85.5413 30.6324 85.8844 30.4321Z" stroke="white" stroke-width="5.3" stroke-miterlimit="10"/>
<path d="M86.6973 73.9099V86.0543L107.73 73.9099V61.7656L86.6973 73.9099Z" fill="url(#paint3_linear_1281_2106)"/>
<path d="M91.3867 83.4627V68.7051" stroke="#F2F7FC" stroke-width="2.1" stroke-miterlimit="10"/>
<path d="M96.5957 80.1873V65.4297" stroke="#F2F7FC" stroke-width="2.1" stroke-miterlimit="10"/>
<path d="M101.875 77.4045V62.6484" stroke="#F2F7FC" stroke-width="2.1" stroke-miterlimit="10"/>
<path d="M106.629 62.4023V73.2718L86.6973 84.7794V86.0543L107.73 73.9099V61.7656L106.629 62.4023Z" fill="url(#paint4_linear_1281_2106)"/>
<path d="M113.432 58.7424V70.8867L134.466 58.7424V46.5996L113.432 58.7424Z" fill="url(#paint5_linear_1281_2106)"/>
<path d="M118.123 68.2932V53.5371" stroke="#F2F7FC" stroke-width="2.1" stroke-miterlimit="10"/>
<path d="M123.332 65.0178V50.2617" stroke="#F2F7FC" stroke-width="2.1" stroke-miterlimit="10"/>
<path d="M128.611 62.2366V47.4805" stroke="#F2F7FC" stroke-width="2.1" stroke-miterlimit="10"/>
<path d="M133.365 47.2347V58.1057L113.432 69.6134V70.8867L134.466 58.7424V46.5996L133.365 47.2347Z" fill="url(#paint6_linear_1281_2106)"/>
<path d="M106.629 73.2734L107.73 73.9116L86.6973 86.056V84.7811L106.629 73.2734Z" fill="#F3F8FF"/>
<path d="M133.572 58.0039L134.673 58.6405L113.639 70.7849V69.5116L133.572 58.0039Z" fill="#F3F8FF"/>
<path d="M79.6992 65.7296L81.5905 64.5806L83.4865 63.4424L87.2815 61.1676L94.8994 56.6645C97.4351 55.1583 99.9879 53.6816 102.533 52.1894L110.187 47.7499L117.857 43.3417C120.423 41.8836 122.981 40.4099 125.55 38.9674L133.258 34.6196L137.126 32.4706L139.061 31.3961L141 30.334L139.11 31.483L137.213 32.6212L133.418 34.896L125.809 39.3991C123.273 40.9053 120.719 42.382 118.176 43.8742L110.52 48.3121L102.85 52.7204C100.286 54.1801 97.7255 55.6521 95.1572 57.0946L87.4492 61.4424L83.5812 63.5914L81.6464 64.666L79.6992 65.7296Z" fill="white"/>
<path d="M62.3387 65.4393C58.1074 62.8881 54.4769 64.7002 54.2301 69.489C53.9832 74.2777 57.2145 80.2265 61.4458 82.7793C65.6772 85.332 69.3076 83.5184 69.5545 78.7296C69.8014 73.9408 66.57 67.9921 62.3387 65.4393ZM67.0094 77.1955C66.8448 80.3927 64.4194 81.6038 61.5933 79.8988C58.7673 78.1939 56.6105 74.2203 56.7797 71.0232C56.949 67.826 59.3697 66.6148 62.1958 68.3197C65.0219 70.0247 67.174 73.9983 67.0094 77.197V77.1955Z" fill="#4D4F80"/>
<path d="M61.8941 74.1507L58.3336 62.0918L51.5898 65.2517L53.4268 73.2734L61.8941 74.1507Z" fill="white"/>
<path d="M61.8809 74.1094L67.019 85.3003L70.4243 80.9214L61.8809 74.1094Z" fill="#FF7F0B"/>
<path d="M61.1191 73.7393L51.498 73.2734L60.925 83.9364L67.0197 85.3013L61.8815 74.1104L61.1191 73.7393Z" fill="#627BFD"/>
<path d="M36.2168 51.918V54.036L51.4962 63.0328V60.9148L36.2168 51.918Z" fill="white"/>
<path d="M36.2168 55.3574V57.4754L51.4962 66.4722V64.3558L36.2168 55.3574Z" fill="white"/>
<path d="M36.2168 58.9043V61.0223L51.4962 70.0191V67.9011L36.2168 58.9043Z" fill="white"/>
<path d="M46.5884 79.6863C46.8919 79.514 46.9045 78.9632 46.6166 78.4561C46.3286 77.949 45.8492 77.6777 45.5457 77.85C45.2421 78.0224 45.2295 78.5732 45.5175 79.0803C45.8054 79.5874 46.2849 79.8587 46.5884 79.6863Z" fill="#4D4F80"/>
<path d="M41.6353 77.1532C41.9388 76.9809 41.9514 76.4301 41.6635 75.923C41.3755 75.4159 40.896 75.1445 40.5925 75.3169C40.289 75.4892 40.2764 76.04 40.5644 76.5471C40.8523 77.0542 41.3318 77.3256 41.6353 77.1532Z" fill="#4D4F80"/>
<path d="M36.7916 74.6181C37.0951 74.4457 37.1077 73.8949 36.8198 73.3878C36.5318 72.8807 36.0523 72.6093 35.7488 72.7817C35.4453 72.954 35.4327 73.5049 35.7206 74.012C36.0086 74.5191 36.4881 74.7904 36.7916 74.6181Z" fill="#4D4F80"/>
<path d="M61.399 87.7802C61.7025 87.6078 61.7151 87.057 61.4272 86.5499C61.1392 86.0428 60.6597 85.7714 60.3562 85.9438C60.0527 86.1161 60.0401 86.667 60.3281 87.1741C60.616 87.6812 61.0955 87.9525 61.399 87.7802Z" fill="#4D4F80"/>
<path d="M56.4478 85.247C56.7513 85.0746 56.7639 84.5238 56.4759 84.0167C56.188 83.5096 55.7085 83.2382 55.405 83.4106C55.1015 83.5829 55.0889 84.1337 55.3768 84.6408C55.6648 85.1479 56.1443 85.4193 56.4478 85.247Z" fill="#4D4F80"/>
<path d="M48.274 84.4905C48.5777 84.3195 48.5922 83.7696 48.3065 83.2622C48.0208 82.7549 47.5429 82.4822 47.2393 82.6532C46.9356 82.8243 46.9211 83.3742 47.2069 83.8816C47.4926 84.3889 47.9704 84.6615 48.274 84.4905Z" fill="#4D4F80"/>
<path d="M61.2092 86.8027L55.0431 90.4813C54.3205 90.9127 53.7223 91.5242 53.3069 92.2561C52.8916 92.988 52.6733 93.8152 52.6735 94.6567V97.607C52.674 98.4538 52.4533 99.286 52.0333 100.021C51.6134 100.757 51.0087 101.37 50.2791 101.8L24.9688 116.719" stroke="url(#paint7_linear_1281_2106)" stroke-width="4.21" stroke-miterlimit="10"/>
<path d="M55.9728 84.2695L49.8067 87.9481C49.0839 88.3793 48.4853 88.9908 48.0697 89.7227C47.6541 90.4546 47.4356 91.2818 47.4356 92.1235V95.0738C47.4362 95.9205 47.2158 96.7526 46.7961 97.4879C46.3764 98.2232 45.7721 98.8362 45.0428 99.2663L19.7324 114.185" stroke="url(#paint8_linear_1281_2106)" stroke-width="4.21" stroke-miterlimit="10"/>
<path d="M51.4962 81.7363L45.3301 85.4149C44.6073 85.8461 44.0088 86.4575 43.5932 87.1894C43.1775 87.9213 42.959 88.7486 42.959 89.5902V92.5405C42.9596 93.3872 42.7392 94.2193 42.3195 94.9546C41.8998 95.6899 41.2955 96.303 40.5662 96.733L15.2559 111.652" stroke="url(#paint9_linear_1281_2106)" stroke-width="4.21" stroke-miterlimit="10"/>
<path d="M46.2545 78.7109L40.0884 82.3895C39.366 82.8211 38.7679 83.4327 38.3526 84.1646C37.9373 84.8964 37.7189 85.7235 37.7188 86.5649V89.5152C37.7191 90.3618 37.4985 91.1938 37.0789 91.9291C36.6592 92.6644 36.0551 93.2774 35.326 93.7077L10.0156 108.627" stroke="url(#paint10_linear_1281_2106)" stroke-width="4.21" stroke-miterlimit="10"/>
<path d="M41.1779 76.0781L35.0118 79.7583C34.289 80.1894 33.6904 80.8009 33.2748 81.5328C32.8592 82.2647 32.6407 83.092 32.6407 83.9337V86.884C32.6415 87.7307 32.4211 88.5628 32.0014 89.2982C31.5817 90.0335 30.9773 90.6465 30.2479 91.0765L4.9375 105.997" stroke="url(#paint11_linear_1281_2106)" stroke-width="4.21" stroke-miterlimit="10"/>
<path d="M36.401 73.6445L30.2349 77.3231C29.5122 77.7543 28.9139 78.3659 28.4985 79.0978C28.0832 79.8297 27.865 80.657 27.8653 81.4985V84.4488C27.8656 85.2954 27.645 86.1274 27.2254 86.8627C26.8057 87.5979 26.2015 88.211 25.4725 88.6413L0.162109 103.56" stroke="url(#paint12_linear_1281_2106)" stroke-width="4.21" stroke-miterlimit="10"/>
</g>
<defs>
<linearGradient id="paint0_linear_1281_2106" x1="110.35" y1="106.177" x2="110.35" y2="30.3359" gradientUnits="userSpaceOnUse">
<stop stop-color="#D5D8EF"/>
<stop offset="0.41" stop-color="#D9DBEF"/>
<stop offset="0.8" stop-color="#E4E5EF"/>
<stop offset="1" stop-color="#EDEDEF"/>
</linearGradient>
<linearGradient id="paint1_linear_1281_2106" x1="44.6697" y1="85.9543" x2="62.1835" y2="55.6176" gradientUnits="userSpaceOnUse">
<stop offset="0.02" stop-color="#D7DDF4"/>
<stop offset="0.18" stop-color="#CDD3ED"/>
<stop offset="0.7" stop-color="#AEB4DA"/>
<stop offset="1" stop-color="#A3A9D3"/>
</linearGradient>
<linearGradient id="paint2_linear_1281_2106" x1="53.4255" y1="99.9433" x2="53.4255" y2="41.627" gradientUnits="userSpaceOnUse">
<stop offset="0.12" stop-color="#FF7F0B" stop-opacity="0.4"/>
<stop offset="0.14" stop-color="#F67F1A" stop-opacity="0.4"/>
<stop offset="0.31" stop-color="#A67D94" stop-opacity="0.4"/>
<stop offset="0.44" stop-color="#757BE0" stop-opacity="0.4"/>
<stop offset="0.51" stop-color="#627BFD" stop-opacity="0.4"/>
<stop offset="0.54" stop-color="#627BFD" stop-opacity="0.45"/>
<stop offset="0.7" stop-color="#617BFE" stop-opacity="0.68"/>
<stop offset="0.83" stop-color="#607AFF" stop-opacity="0.85"/>
<stop offset="0.94" stop-color="#5F7AFF" stop-opacity="0.96"/>
<stop offset="1" stop-color="#5F7AFF"/>
</linearGradient>
<linearGradient id="paint3_linear_1281_2106" x1="413.378" y1="922.825" x2="413.378" y2="898.538" gradientUnits="userSpaceOnUse">
<stop offset="0.01" stop-color="#627BFD" stop-opacity="0.4"/>
<stop offset="0.05" stop-color="#6178F4" stop-opacity="0.44"/>
<stop offset="0.36" stop-color="#5661B4" stop-opacity="0.75"/>
<stop offset="0.67" stop-color="#4F548D" stop-opacity="0.94"/>
<stop offset="1" stop-color="#4D4F80"/>
</linearGradient>
<linearGradient id="paint4_linear_1281_2106" x1="11829.7" y1="11622.9" x2="14678.6" y2="11622.9" gradientUnits="userSpaceOnUse">
<stop offset="0.02" stop-color="#D7DDF4"/>
<stop offset="0.18" stop-color="#CDD3ED"/>
<stop offset="0.7" stop-color="#AEB4DA"/>
<stop offset="1" stop-color="#A3A9D3"/>
</linearGradient>
<linearGradient id="paint5_linear_1281_2106" x1="59731.1" y1="142013" x2="59731.1" y2="138215" gradientUnits="userSpaceOnUse">
<stop offset="0.01" stop-color="#627BFD" stop-opacity="0.4"/>
<stop offset="0.05" stop-color="#6178F4" stop-opacity="0.44"/>
<stop offset="0.36" stop-color="#5661B4" stop-opacity="0.75"/>
<stop offset="0.67" stop-color="#4F548D" stop-opacity="0.94"/>
<stop offset="1" stop-color="#4D4F80"/>
</linearGradient>
<linearGradient id="paint6_linear_1281_2106" x1="15478.7" y1="9234.4" x2="18328" y2="9234.4" gradientUnits="userSpaceOnUse">
<stop offset="0.02" stop-color="#D7DDF4"/>
<stop offset="0.18" stop-color="#CDD3ED"/>
<stop offset="0.7" stop-color="#AEB4DA"/>
<stop offset="1" stop-color="#A3A9D3"/>
</linearGradient>
<linearGradient id="paint7_linear_1281_2106" x1="24.8088" y1="101.758" x2="61.3769" y2="101.758" gradientUnits="userSpaceOnUse">
<stop stop-color="#627BFD" stop-opacity="0"/>
<stop offset="0.1" stop-color="#627BFD" stop-opacity="0.18"/>
<stop offset="0.23" stop-color="#627BFD" stop-opacity="0.38"/>
<stop offset="0.36" stop-color="#627BFD" stop-opacity="0.56"/>
<stop offset="0.49" stop-color="#627BFD" stop-opacity="0.71"/>
<stop offset="0.61" stop-color="#627BFD" stop-opacity="0.82"/>
<stop offset="0.74" stop-color="#627BFD" stop-opacity="0.9"/>
<stop offset="0.87" stop-color="#627BFD" stop-opacity="0.94"/>
<stop offset="1" stop-color="#627BFD" stop-opacity="0.96"/>
</linearGradient>
<linearGradient id="paint8_linear_1281_2106" x1="78376.9" y1="180413" x2="86911.5" y2="180413" gradientUnits="userSpaceOnUse">
<stop stop-color="#627BFD" stop-opacity="0"/>
<stop offset="0.1" stop-color="#627BFD" stop-opacity="0.18"/>
<stop offset="0.23" stop-color="#627BFD" stop-opacity="0.38"/>
<stop offset="0.36" stop-color="#627BFD" stop-opacity="0.56"/>
<stop offset="0.49" stop-color="#627BFD" stop-opacity="0.71"/>
<stop offset="0.61" stop-color="#627BFD" stop-opacity="0.82"/>
<stop offset="0.74" stop-color="#627BFD" stop-opacity="0.9"/>
<stop offset="0.87" stop-color="#627BFD" stop-opacity="0.94"/>
<stop offset="1" stop-color="#627BFD" stop-opacity="0.96"/>
</linearGradient>
<linearGradient id="paint9_linear_1281_2106" x1="15.0944" y1="96.6912" x2="51.6624" y2="96.6912" gradientUnits="userSpaceOnUse">
<stop stop-color="#FF7F0B" stop-opacity="0"/>
<stop offset="0.1" stop-color="#FF7F0B" stop-opacity="0.19"/>
<stop offset="0.23" stop-color="#FF7F0B" stop-opacity="0.39"/>
<stop offset="0.36" stop-color="#FF7F0B" stop-opacity="0.56"/>
<stop offset="0.49" stop-color="#FF7F0B" stop-opacity="0.71"/>
<stop offset="0.62" stop-color="#FF7F0B" stop-opacity="0.82"/>
<stop offset="0.74" stop-color="#FF7F0B" stop-opacity="0.9"/>
<stop offset="0.87" stop-color="#FF7F0B" stop-opacity="0.94"/>
<stop offset="1" stop-color="#FF7F0B" stop-opacity="0.96"/>
</linearGradient>
<linearGradient id="paint10_linear_1281_2106" x1="76096.7" y1="179337" x2="84630.9" y2="179337" gradientUnits="userSpaceOnUse">
<stop stop-color="#FF7F0B" stop-opacity="0"/>
<stop offset="0.1" stop-color="#FF7F0B" stop-opacity="0.19"/>
<stop offset="0.23" stop-color="#FF7F0B" stop-opacity="0.39"/>
<stop offset="0.36" stop-color="#FF7F0B" stop-opacity="0.56"/>
<stop offset="0.49" stop-color="#FF7F0B" stop-opacity="0.71"/>
<stop offset="0.62" stop-color="#FF7F0B" stop-opacity="0.82"/>
<stop offset="0.74" stop-color="#FF7F0B" stop-opacity="0.9"/>
<stop offset="0.87" stop-color="#FF7F0B" stop-opacity="0.94"/>
<stop offset="1" stop-color="#FF7F0B" stop-opacity="0.96"/>
</linearGradient>
<linearGradient id="paint11_linear_1281_2106" x1="74909.2" y1="178846" x2="83443.8" y2="178846" gradientUnits="userSpaceOnUse">
<stop stop-color="#627BFD" stop-opacity="0"/>
<stop offset="0.1" stop-color="#627BFD" stop-opacity="0.18"/>
<stop offset="0.23" stop-color="#627BFD" stop-opacity="0.38"/>
<stop offset="0.36" stop-color="#627BFD" stop-opacity="0.56"/>
<stop offset="0.49" stop-color="#627BFD" stop-opacity="0.71"/>
<stop offset="0.61" stop-color="#627BFD" stop-opacity="0.82"/>
<stop offset="0.74" stop-color="#627BFD" stop-opacity="0.9"/>
<stop offset="0.87" stop-color="#627BFD" stop-opacity="0.94"/>
<stop offset="1" stop-color="#627BFD" stop-opacity="0.96"/>
</linearGradient>
<linearGradient id="paint12_linear_1281_2106" x1="73786.8" y1="178355" x2="82321.1" y2="178355" gradientUnits="userSpaceOnUse">
<stop stop-color="#627BFD" stop-opacity="0"/>
<stop offset="0.1" stop-color="#627BFD" stop-opacity="0.18"/>
<stop offset="0.23" stop-color="#627BFD" stop-opacity="0.38"/>
<stop offset="0.36" stop-color="#627BFD" stop-opacity="0.56"/>
<stop offset="0.49" stop-color="#627BFD" stop-opacity="0.71"/>
<stop offset="0.61" stop-color="#627BFD" stop-opacity="0.82"/>
<stop offset="0.74" stop-color="#627BFD" stop-opacity="0.9"/>
<stop offset="0.87" stop-color="#627BFD" stop-opacity="0.94"/>
<stop offset="1" stop-color="#627BFD" stop-opacity="0.96"/>
</linearGradient>
<clipPath id="clip0_1281_2106">
<rect width="141" height="116.994" fill="white"/>
</clipPath>
</defs>
</svg>
