<svg width="243" height="135" viewBox="0 0 243 135" fill="none" xmlns="http://www.w3.org/2000/svg">
<path d="M1.625 51.0435L29.4251 35.2239C35.1293 31.7558 41.6195 29.7904 48.2894 29.5111C54.9592 29.2319 61.5911 30.648 67.5652 33.6271L240.601 133.351" stroke="#FF7F0B" stroke-width="3.27463" stroke-linecap="round" stroke-linejoin="round"/>
<path d="M205.863 73.708C208.392 75.1675 208.406 77.5424 205.892 79.002L139.904 117.351C137.39 118.812 133.302 118.806 130.772 117.351L34.5683 62.4744C32.0375 61.0133 32.0141 58.6447 34.5277 57.1851L100.516 18.8361C103.03 17.375 107.128 17.375 109.659 18.8361L205.863 73.708Z" fill="white" stroke="#4A63CE" stroke-width="0.935609" stroke-linecap="round" stroke-linejoin="round"/>
<g style="mix-blend-mode:multiply" opacity="0.71">
<path d="M127.077 35.9054L90.0724 25.2285L42.3828 52.9428L105.426 71.7408L127.077 35.9054Z" fill="#C4C7E8"/>
</g>
<path d="M91.5625 64.4519L110.03 75.1147L136.157 60.0311L117.749 49.334L91.5625 64.4519Z" fill="white" stroke="#4A63CE" stroke-width="0.31187" stroke-linecap="round" stroke-linejoin="round"/>
<path d="M111.108 43.6704C112.282 42.9875 114.2 42.9875 115.384 43.6704L163.549 68.1257C164.733 68.8087 163.847 72.7585 162.671 73.4415L131.807 91.374C130.631 92.0586 128.72 92.0555 127.536 91.374L80.2612 64.0808C79.0777 63.3978 78.6302 60.4584 79.8059 59.7754" fill="white"/>
<path d="M128.813 92.0135V89.6261L76.5625 59.459V61.8463" fill="white"/>
<path d="M128.813 92.0135V89.6261L76.5625 59.459V61.8463" stroke="#4A63CE" stroke-width="0.31187" stroke-linecap="round" stroke-linejoin="round"/>
<path d="M111.108 43.6704C112.282 42.9875 114.2 42.9875 115.384 43.6704L163.549 68.1257C164.733 68.8087 163.847 72.7585 162.671 73.4415L131.807 91.374C130.631 92.0586 128.72 92.0555 127.536 91.374L80.2612 64.0808C79.0777 63.3978 78.6302 60.4584 79.8059 59.7754" stroke="#4A63CE" stroke-width="0.31187" stroke-linecap="round" stroke-linejoin="round"/>
<path d="M162.657 68.8079C163.841 69.4924 163.847 70.6027 162.671 71.2857L131.807 89.2182C130.631 89.9027 128.72 89.8996 127.536 89.2182L80.2613 61.9296C79.0778 61.2466 79.0669 60.1395 80.2426 59.4565L111.108 41.524C112.283 40.841 114.201 40.841 115.384 41.524L162.657 68.8079Z" fill="white" stroke="#4A63CE" stroke-width="0.935609" stroke-linecap="round" stroke-linejoin="round"/>
<path d="M156.91 69.6398L113.909 44.8259C113.506 44.5932 113.049 44.4707 112.584 44.4707C112.119 44.4707 111.661 44.5932 111.258 44.8259L96.4274 53.3305C96.326 53.3887 96.2418 53.4726 96.1832 53.5738C96.1246 53.675 96.0938 53.7898 96.0938 53.9067C96.0938 54.0236 96.1246 54.1385 96.1832 54.2396C96.2418 54.3408 96.326 54.4247 96.4274 54.4829L139.436 79.2921C139.838 79.5234 140.294 79.645 140.757 79.645C141.221 79.645 141.677 79.5234 142.079 79.2921L156.908 70.789C157.009 70.7308 157.093 70.6471 157.151 70.5463C157.209 70.4455 157.24 70.3312 157.24 70.2148C157.24 70.0985 157.21 69.9841 157.152 69.8832C157.094 69.7822 157.01 69.6983 156.91 69.6398Z" fill="white" stroke="#4A63CE" stroke-width="0.31187" stroke-linecap="round" stroke-linejoin="round"/>
<path d="M174.263 31.1534C174.264 31.1264 174.264 31.0993 174.263 31.0723V31.0318C174.264 31.0178 174.264 31.0037 174.263 30.9897C174.263 30.9756 174.263 30.9616 174.263 30.9476L174.254 30.9039C174.254 30.8883 174.254 30.8743 174.243 30.8587C174.24 30.844 174.236 30.8294 174.232 30.815L174.19 30.7729C174.187 30.7579 174.182 30.7433 174.176 30.7293L174.162 30.6856L174.146 30.6435C174.146 30.631 174.135 30.617 174.129 30.603C174.124 30.5897 174.118 30.5767 174.112 30.564L174.093 30.5219C174.093 30.5063 174.079 30.4922 174.073 30.4798L174.045 30.4252L174 30.3441C173.981 30.3145 173.964 30.2848 173.944 30.2568C173.923 30.2287 173.908 30.2038 173.889 30.1788L173.852 30.1289L173.82 30.0899L173.788 30.0525L173.755 30.0151L173.721 29.9808C173.71 29.9683 173.697 29.9574 173.685 29.9449L173.649 29.9106L173.611 29.8794L173.574 29.8482L173.538 29.8202L173.501 29.7937L173.465 29.7703L173.429 29.7484H173.421L122.376 0.276743L122.349 0.26271L122.315 0.243998L122.281 0.228404L122.247 0.21437L122.214 0.201895L122.179 0.190981L122.145 0.181625L122.111 0.173828H122.073H122.038H121.955H121.907L121.849 0.18942C121.825 0.198101 121.802 0.209069 121.78 0.222168L120.523 0.951942C120.545 0.939337 120.568 0.928892 120.592 0.920755C120.611 0.913205 120.63 0.90797 120.65 0.905163H120.698H120.781H120.818H120.854H120.888L120.923 0.914519L120.957 0.925433L120.99 0.937908L121.024 0.951942L121.058 0.969094L121.093 0.986247L121.119 1.00184L172.164 30.4735L172.2 30.4954C172.213 30.5028 172.225 30.5111 172.236 30.5203L172.274 30.5453L172.309 30.5733L172.347 30.6045L172.384 30.6373L172.422 30.6716C172.433 30.6825 172.445 30.6934 172.456 30.7059L172.49 30.7417L172.523 30.7776L172.556 30.815L172.587 30.854L172.624 30.9039C172.643 30.9289 172.662 30.9554 172.679 30.9819C172.696 31.0084 172.718 31.0396 172.735 31.0692L172.78 31.1503L172.808 31.2049L172.829 31.247L172.847 31.2891C172.854 31.3022 172.86 31.3157 172.865 31.3296C172.865 31.3421 172.875 31.3561 172.882 31.3702L172.897 31.4123L172.913 31.4544L172.927 31.498L172.939 31.5432C172.944 31.5581 172.948 31.5732 172.95 31.5885C172.955 31.6028 172.958 31.6174 172.961 31.6321L172.971 31.6758C172.97 31.6898 172.97 31.7039 172.971 31.7179V31.76V31.8005C172.971 31.814 172.971 31.8276 172.971 31.8411C172.971 31.8546 172.971 31.8681 172.971 31.8816C172.971 31.8946 172.971 31.9076 172.971 31.9206C172.971 31.9341 172.971 31.9476 172.971 31.9611C172.971 31.9752 172.971 31.9877 172.971 32.0001V32.0422C172.971 32.0563 172.971 32.0687 172.971 32.0828V32.0937L165.662 70.017C165.662 70.028 165.662 70.0389 165.662 70.0482C165.662 70.0576 165.654 70.0779 165.651 70.0919C165.648 70.1059 165.64 70.1215 165.635 70.1356C165.63 70.1521 165.623 70.1682 165.615 70.1839C165.606 70.2038 165.596 70.2231 165.584 70.2416C165.548 70.2992 165.499 70.3473 165.44 70.3819L166.697 69.6506C166.755 69.6161 166.804 69.5686 166.841 69.5118C166.852 69.4931 166.863 69.4744 166.872 69.4541C166.88 69.4384 166.886 69.4223 166.892 69.4058L166.906 69.3621C166.911 69.3478 166.914 69.3332 166.917 69.3185V69.2873L174.226 31.3639V31.353C174.226 31.339 174.226 31.3249 174.226 31.3125C174.227 31.2984 174.227 31.2844 174.226 31.2704C174.227 31.2574 174.227 31.2444 174.226 31.2314C174.226 31.2173 174.226 31.2049 174.226 31.1908C174.239 31.1794 174.252 31.1669 174.263 31.1534Z" fill="white" stroke="#4A63CE" stroke-width="0.31187" stroke-linecap="round" stroke-linejoin="round"/>
<path d="M172.169 30.4711C172.696 30.7829 173.091 31.5626 172.991 32.0959L165.682 70.0193C165.606 70.4309 165.26 70.5572 164.854 70.3311L113.814 40.8594C113.287 40.5476 112.892 39.7679 112.992 39.2346L120.301 1.3019C120.377 0.89023 120.723 0.763923 121.124 0.990029L172.169 30.4711Z" fill="white" stroke="#4A63CE" stroke-width="0.935609" stroke-linecap="round" stroke-linejoin="round"/>
<path d="M115.269 39.4774C115.232 39.4296 115.202 39.3772 115.18 39.3214L122.041 3.74023L170.73 31.8522C170.767 31.8995 170.797 31.952 170.819 32.0081L163.958 67.5862L115.269 39.4774Z" fill="white" stroke="#4A63CE" stroke-width="0.31187" stroke-linecap="round" stroke-linejoin="round"/>
<path d="M115.269 39.4774C115.232 39.4296 115.202 39.3772 115.18 39.3214L122.041 3.74023L170.73 31.8522C170.767 31.8995 170.797 31.952 170.819 32.0081L163.958 67.5862L115.269 39.4774Z" fill="white" stroke="#4A63CE" stroke-width="0.31187" stroke-linecap="round" stroke-linejoin="round"/>
<g style="mix-blend-mode:multiply">
<path d="M120.786 29.953C120.765 29.9246 120.748 29.8937 120.734 29.861L124.68 9.39453L152.685 25.5634C152.707 25.5918 152.725 25.6233 152.737 25.657L148.793 46.1219L120.786 29.953Z" stroke="#4A63CE" stroke-width="0.276005" stroke-linecap="round" stroke-linejoin="round"/>
</g>
<path d="M119.797 35.7101C119.786 35.6992 120.748 29.8953 120.733 29.861L124.678 9.39453L152.684 25.5634C152.705 25.5918 152.723 25.6233 152.735 25.657L147.803 51.8805L119.797 35.7101Z" stroke="#4A63CE" stroke-width="0.779674" stroke-linecap="round" stroke-linejoin="round"/>
<path d="M113.876 46.5534C114.032 46.6455 114.032 46.7983 113.876 46.8934L112.911 47.4563C112.819 47.5025 112.719 47.5265 112.617 47.5265C112.515 47.5265 112.414 47.5025 112.323 47.4563L110.64 46.4848C110.475 46.3882 110.473 46.2369 110.64 46.1418L111.601 45.5851C111.692 45.5382 111.794 45.5137 111.897 45.5137C112 45.5137 112.102 45.5382 112.193 45.5851L113.876 46.5534Z" fill="white" stroke="#4A63CE" stroke-width="0.31187" stroke-linecap="round" stroke-linejoin="round"/>
<path d="M116.835 48.2644C116.871 48.2764 116.902 48.2995 116.924 48.3302C116.946 48.361 116.958 48.398 116.958 48.4359C116.958 48.4738 116.946 48.5108 116.924 48.5416C116.902 48.5724 116.871 48.5954 116.835 48.6074L115.871 49.1735C115.779 49.2204 115.678 49.2449 115.575 49.2449C115.472 49.2449 115.37 49.2204 115.278 49.1735L113.601 48.2036C113.435 48.1085 113.435 47.9572 113.601 47.8621L114.561 47.3038C114.653 47.2569 114.754 47.2324 114.857 47.2324C114.959 47.2324 115.061 47.2569 115.152 47.3038L116.835 48.2644Z" fill="white" stroke="#4A63CE" stroke-width="0.31187" stroke-linecap="round" stroke-linejoin="round"/>
<path d="M119.806 49.9757C119.961 50.0677 119.961 50.2205 119.806 50.3156L118.84 50.8739C118.749 50.92 118.648 50.9441 118.546 50.9441C118.444 50.9441 118.344 50.92 118.252 50.8739L116.57 49.9024C116.405 49.8057 116.403 49.6545 116.57 49.5593L117.53 49.0011C117.622 48.9542 117.724 48.9297 117.827 48.9297C117.93 48.9297 118.031 48.9542 118.123 49.0011L119.806 49.9757Z" fill="white" stroke="#4A63CE" stroke-width="0.31187" stroke-linecap="round" stroke-linejoin="round"/>
<path d="M122.764 51.6863C122.8 51.6983 122.831 51.7213 122.853 51.7521C122.875 51.7829 122.887 51.8199 122.887 51.8578C122.887 51.8957 122.875 51.9327 122.853 51.9635C122.831 51.9942 122.8 52.0173 122.764 52.0293L121.8 52.5876C121.709 52.6345 121.607 52.659 121.505 52.659C121.402 52.659 121.3 52.6345 121.209 52.5876L119.53 51.6176C119.366 51.5225 119.364 51.3713 119.53 51.2761L120.49 50.7179C120.582 50.671 120.683 50.6465 120.786 50.6465C120.889 50.6465 120.991 50.671 121.083 50.7179L122.764 51.6863Z" fill="white" stroke="#4A63CE" stroke-width="0.31187" stroke-linecap="round" stroke-linejoin="round"/>
<path d="M125.719 53.3976C125.755 53.4095 125.786 53.4324 125.807 53.4629C125.829 53.4934 125.841 53.53 125.841 53.5675C125.841 53.6051 125.829 53.6417 125.807 53.6722C125.786 53.7027 125.755 53.7255 125.719 53.7375L124.754 54.2958C124.663 54.3419 124.562 54.366 124.46 54.366C124.358 54.366 124.257 54.3419 124.166 54.2958L122.483 53.3243C122.318 53.2276 122.318 53.0763 122.483 52.9812L123.442 52.423C123.534 52.376 123.636 52.3516 123.739 52.3516C123.842 52.3516 123.943 52.376 124.035 52.423L125.719 53.3976Z" fill="white" stroke="#4A63CE" stroke-width="0.31187" stroke-linecap="round" stroke-linejoin="round"/>
<path d="M128.686 55.1062C128.722 55.1182 128.753 55.1413 128.775 55.172C128.797 55.2028 128.809 55.2398 128.809 55.2777C128.809 55.3156 128.797 55.3526 128.775 55.3834C128.753 55.4142 128.722 55.4372 128.686 55.4492L127.722 56.0075C127.63 56.0544 127.529 56.0789 127.426 56.0789C127.324 56.0789 127.222 56.0544 127.131 56.0075L125.452 55.0376C125.288 54.9424 125.286 54.7912 125.452 54.6961L126.412 54.1378C126.504 54.0909 126.605 54.0664 126.708 54.0664C126.811 54.0664 126.913 54.0909 127.005 54.1378L128.686 55.1062Z" fill="white" stroke="#4A63CE" stroke-width="0.31187" stroke-linecap="round" stroke-linejoin="round"/>
<path d="M131.651 56.8136C131.817 56.9087 131.818 57.0615 131.651 57.1566L130.691 57.7164C130.599 57.7634 130.497 57.7879 130.394 57.7879C130.291 57.7879 130.19 57.7634 130.098 57.7164L128.42 56.7481C128.384 56.7361 128.353 56.713 128.331 56.6822C128.309 56.6515 128.297 56.6145 128.297 56.5766C128.297 56.5386 128.309 56.5017 128.331 56.4709C128.353 56.4401 128.384 56.4171 128.42 56.405L129.381 55.8468C129.472 55.7999 129.574 55.7754 129.676 55.7754C129.779 55.7754 129.88 55.7999 129.972 55.8468L131.651 56.8136Z" fill="white" stroke="#4A63CE" stroke-width="0.31187" stroke-linecap="round" stroke-linejoin="round"/>
<path d="M134.611 58.5284C134.647 58.5405 134.678 58.5635 134.7 58.5943C134.722 58.6251 134.734 58.662 134.734 58.6999C134.734 58.7379 134.722 58.7748 134.7 58.8056C134.678 58.8364 134.647 58.8594 134.611 58.8715L133.647 59.4282C133.556 59.4751 133.454 59.4996 133.351 59.4996C133.248 59.4996 133.146 59.4751 133.055 59.4282L131.372 58.4567C131.337 58.4447 131.306 58.4219 131.284 58.3914C131.262 58.3609 131.25 58.3243 131.25 58.2867C131.25 58.2492 131.262 58.2126 131.284 58.1821C131.306 58.1516 131.337 58.1287 131.372 58.1168L132.333 57.5585C132.424 57.5123 132.525 57.4883 132.627 57.4883C132.729 57.4883 132.829 57.5123 132.921 57.5585L134.611 58.5284Z" fill="white" stroke="#4A63CE" stroke-width="0.31187" stroke-linecap="round" stroke-linejoin="round"/>
<path d="M137.567 60.2429C137.603 60.2549 137.634 60.2779 137.656 60.3087C137.678 60.3395 137.69 60.3765 137.69 60.4144C137.69 60.4523 137.678 60.4893 137.656 60.5201C137.634 60.5508 137.603 60.5739 137.567 60.5859L136.605 61.1364C136.513 61.1833 136.412 61.2078 136.309 61.2078C136.206 61.2078 136.104 61.1833 136.012 61.1364L134.334 60.168C134.298 60.156 134.267 60.1329 134.245 60.1022C134.223 60.0714 134.211 60.0344 134.211 59.9965C134.211 59.9586 134.223 59.9216 134.245 59.8908C134.267 59.86 134.298 59.837 134.334 59.825L135.295 59.2667C135.386 59.2198 135.488 59.1953 135.59 59.1953C135.693 59.1953 135.795 59.2198 135.886 59.2667L137.567 60.2429Z" fill="white" stroke="#4A63CE" stroke-width="0.31187" stroke-linecap="round" stroke-linejoin="round"/>
<path d="M146.465 65.3687C146.63 65.4638 146.632 65.6166 146.465 65.7117L145.501 66.27C145.41 66.3169 145.308 66.3414 145.205 66.3414C145.102 66.3414 145.001 66.3169 144.909 66.27L143.226 65.2985C143.07 65.2049 143.07 65.0537 143.226 64.9585L144.185 64.4003C144.276 64.3541 144.377 64.3301 144.479 64.3301C144.581 64.3301 144.682 64.3541 144.773 64.4003L146.465 65.3687Z" fill="white" stroke="#4A63CE" stroke-width="0.31187" stroke-linecap="round" stroke-linejoin="round"/>
<path d="M150.111 67.4737C150.276 67.5689 150.278 67.7201 150.111 67.8168L149.152 68.3735C149.06 68.4204 148.959 68.4449 148.856 68.4449C148.753 68.4449 148.651 68.4204 148.559 68.3735L146.202 67.0137C146.166 67.0017 146.134 66.9787 146.112 66.9479C146.09 66.9171 146.078 66.8801 146.078 66.8422C146.078 66.8043 146.09 66.7673 146.112 66.7365C146.134 66.7058 146.166 66.6827 146.202 66.6707L147.162 66.1124C147.254 66.0655 147.355 66.041 147.458 66.041C147.561 66.041 147.663 66.0655 147.755 66.1124L150.111 67.4737Z" fill="white" stroke="#4A63CE" stroke-width="0.31187" stroke-linecap="round" stroke-linejoin="round"/>
<path d="M153.761 69.5839C153.926 69.679 153.928 69.8318 153.761 69.9269L152.802 70.4852C152.71 70.5321 152.609 70.5566 152.506 70.5566C152.403 70.5566 152.301 70.5321 152.21 70.4852L149.833 69.1129C149.797 69.101 149.767 69.0781 149.745 69.0476C149.723 69.0171 149.711 68.9805 149.711 68.943C149.711 68.9054 149.723 68.8688 149.745 68.8383C149.767 68.8078 149.797 68.785 149.833 68.773L150.794 68.2148C150.885 68.1686 150.985 68.1445 151.088 68.1445C151.19 68.1445 151.29 68.1686 151.382 68.2148L153.761 69.5839Z" fill="white" stroke="#4A63CE" stroke-width="0.31187" stroke-linecap="round" stroke-linejoin="round"/>
<path d="M111.697 47.8198C111.732 47.8318 111.763 47.8547 111.785 47.8852C111.807 47.9156 111.819 47.9523 111.819 47.9898C111.819 48.0274 111.807 48.064 111.785 48.0945C111.763 48.125 111.732 48.1478 111.697 48.1598L110.028 49.1281C109.937 49.1743 109.837 49.1983 109.735 49.1983C109.633 49.1983 109.533 49.1743 109.442 49.1281L107.764 48.1598C107.728 48.1477 107.697 48.1247 107.675 48.0939C107.653 48.0631 107.641 48.0262 107.641 47.9882C107.641 47.9503 107.653 47.9134 107.675 47.8826C107.697 47.8518 107.728 47.8288 107.764 47.8167L109.431 46.8468C109.523 46.7999 109.624 46.7754 109.727 46.7754C109.83 46.7754 109.932 46.7999 110.024 46.8468L111.697 47.8198Z" fill="white" stroke="#4A63CE" stroke-width="0.31187" stroke-linecap="round" stroke-linejoin="round"/>
<path d="M114.664 49.5316C114.7 49.5436 114.731 49.5666 114.753 49.5974C114.776 49.6282 114.787 49.6652 114.787 49.7031C114.787 49.741 114.776 49.778 114.753 49.8088C114.731 49.8396 114.7 49.8626 114.664 49.8746L112.997 50.843C112.905 50.8899 112.804 50.9144 112.701 50.9144C112.598 50.9144 112.496 50.8899 112.404 50.843L110.733 49.8746C110.697 49.8626 110.666 49.8396 110.643 49.8088C110.621 49.778 110.609 49.741 110.609 49.7031C110.609 49.6652 110.621 49.6282 110.643 49.5974C110.666 49.5666 110.697 49.5436 110.733 49.5316L112.4 48.5617C112.491 48.5147 112.593 48.4902 112.696 48.4902C112.799 48.4902 112.901 48.5147 112.992 48.5617L114.664 49.5316Z" fill="white" stroke="#4A63CE" stroke-width="0.31187" stroke-linecap="round" stroke-linejoin="round"/>
<path d="M107.133 48.5245L110.252 50.3318C110.417 50.427 110.419 50.5782 110.252 50.6749L108.583 51.6432C108.492 51.6902 108.39 51.7147 108.288 51.7147C108.185 51.7147 108.084 51.6902 107.992 51.6432L104.873 49.836C104.837 49.8239 104.806 49.8009 104.784 49.7701C104.762 49.7393 104.75 49.7024 104.75 49.6644C104.75 49.6265 104.762 49.5895 104.784 49.5588C104.806 49.528 104.837 49.5049 104.873 49.4929L106.54 48.5245C106.632 48.4776 106.734 48.4531 106.837 48.4531C106.94 48.4531 107.041 48.4776 107.133 48.5245Z" fill="white" stroke="#4A63CE" stroke-width="0.31187" stroke-linecap="round" stroke-linejoin="round"/>
<path d="M117.621 51.2417C117.657 51.2537 117.688 51.2765 117.71 51.307C117.732 51.3375 117.743 51.3741 117.743 51.4117C117.743 51.4492 117.732 51.4858 117.71 51.5163C117.688 51.5468 117.657 51.5697 117.621 51.5816L115.953 52.55C115.862 52.5961 115.762 52.6202 115.66 52.6202C115.558 52.6202 115.457 52.5961 115.366 52.55L113.687 51.5816C113.522 51.4865 113.52 51.3337 113.687 51.2386L115.356 50.2687C115.447 50.2217 115.548 50.1973 115.651 50.1973C115.754 50.1973 115.855 50.2217 115.947 50.2687L117.621 51.2417Z" fill="white" stroke="#4A63CE" stroke-width="0.31187" stroke-linecap="round" stroke-linejoin="round"/>
<path d="M114.739 52.915C114.775 52.927 114.806 52.9499 114.828 52.9804C114.85 53.0108 114.861 53.0475 114.861 53.085C114.861 53.1226 114.85 53.1592 114.828 53.1897C114.806 53.2202 114.775 53.243 114.739 53.255L113.068 54.2264C112.977 54.2726 112.876 54.2967 112.774 54.2967C112.672 54.2967 112.572 54.2726 112.481 54.2264L109.35 52.4254C109.314 52.4134 109.283 52.3903 109.261 52.3596C109.238 52.3288 109.227 52.2918 109.227 52.2539C109.227 52.216 109.238 52.179 109.261 52.1482C109.283 52.1174 109.314 52.0944 109.35 52.0823L111.017 51.1124C111.109 51.0655 111.21 51.041 111.313 51.041C111.416 51.041 111.518 51.0655 111.61 51.1124L114.739 52.915Z" fill="white" stroke="#4A63CE" stroke-width="0.31187" stroke-linecap="round" stroke-linejoin="round"/>
<path d="M108.885 52.8824C108.92 52.8944 108.952 52.9175 108.974 52.9483C108.996 52.979 109.008 53.016 109.008 53.0539C109.008 53.0919 108.996 53.1288 108.974 53.1596C108.952 53.1904 108.92 53.2134 108.885 53.2255L107.218 54.1938C107.126 54.2415 107.024 54.2664 106.921 54.2664C106.818 54.2664 106.717 54.2415 106.625 54.1938L101.991 51.5117C101.955 51.4997 101.923 51.4767 101.901 51.4459C101.879 51.4151 101.867 51.3781 101.867 51.3402C101.867 51.3023 101.879 51.2653 101.901 51.2345C101.923 51.2038 101.955 51.1807 101.991 51.1687L103.658 50.2003C103.749 50.1534 103.851 50.1289 103.954 50.1289C104.057 50.1289 104.158 50.1534 104.25 50.2003L108.885 52.8824Z" fill="white" stroke="#4A63CE" stroke-width="0.31187" stroke-linecap="round" stroke-linejoin="round"/>
<path d="M103.042 52.8487C103.198 52.9423 103.198 53.0936 103.042 53.1887L100.667 54.5687C100.576 54.6149 100.476 54.6389 100.374 54.6389C100.272 54.6389 100.172 54.6149 100.081 54.5687L98.3969 53.5972C98.3609 53.5852 98.3297 53.5622 98.3075 53.5314C98.2854 53.5006 98.2734 53.4636 98.2734 53.4257C98.2734 53.3878 98.2854 53.3508 98.3075 53.32C98.3297 53.2893 98.3609 53.2662 98.3969 53.2542L100.772 51.8742C100.863 51.8272 100.965 51.8027 101.068 51.8027C101.171 51.8027 101.273 51.8272 101.364 51.8742L103.042 52.8487Z" fill="white" stroke="#4A63CE" stroke-width="0.31187" stroke-linecap="round" stroke-linejoin="round"/>
<path d="M105.995 54.5573C106.161 54.6525 106.162 54.8053 105.995 54.9004L103.62 56.2804C103.529 56.3274 103.427 56.3519 103.324 56.3519C103.221 56.3519 103.12 56.3274 103.028 56.2804L101.35 55.3121C101.314 55.3 101.283 55.277 101.261 55.2462C101.238 55.2154 101.227 55.1785 101.227 55.1406C101.227 55.1026 101.238 55.0657 101.261 55.0349C101.283 55.0041 101.314 54.9811 101.35 54.969L103.723 53.589C103.815 53.5421 103.917 53.5176 104.02 53.5176C104.123 53.5176 104.224 53.5421 104.316 53.589L105.995 54.5573Z" fill="white" stroke="#4A63CE" stroke-width="0.31187" stroke-linecap="round" stroke-linejoin="round"/>
<path d="M111.853 54.5956C112.009 54.6876 112.009 54.8405 111.853 54.9356L110.186 55.9055C110.095 55.952 109.994 55.9763 109.892 55.9763C109.79 55.9763 109.689 55.952 109.598 55.9055L107.92 54.9434C107.884 54.9313 107.853 54.9083 107.831 54.8775C107.809 54.8467 107.797 54.8098 107.797 54.7718C107.797 54.7339 107.809 54.697 107.831 54.6662C107.853 54.6354 107.884 54.6124 107.92 54.6003L109.587 53.632C109.679 53.585 109.781 53.5605 109.884 53.5605C109.987 53.5605 110.088 53.585 110.18 53.632L111.853 54.5956Z" fill="white" stroke="#4A63CE" stroke-width="0.31187" stroke-linecap="round" stroke-linejoin="round"/>
<path d="M108.964 56.2714C109.12 56.365 109.12 56.5162 108.964 56.6114L106.589 57.9914C106.498 58.0383 106.396 58.0628 106.294 58.0628C106.191 58.0628 106.09 58.0383 105.998 57.9914L104.319 57.023C104.283 57.011 104.252 56.9879 104.229 56.9572C104.207 56.9264 104.195 56.8894 104.195 56.8515C104.195 56.8136 104.207 56.7766 104.229 56.7458C104.252 56.715 104.283 56.692 104.319 56.68L106.694 55.2999C106.785 55.253 106.887 55.2285 106.99 55.2285C107.093 55.2285 107.195 55.253 107.286 55.2999L108.964 56.2714Z" fill="white" stroke="#4A63CE" stroke-width="0.31187" stroke-linecap="round" stroke-linejoin="round"/>
<path d="M120.578 52.9511C120.614 52.9631 120.645 52.9862 120.667 53.017C120.69 53.0477 120.701 53.0847 120.701 53.1226C120.701 53.1606 120.69 53.1975 120.667 53.2283C120.645 53.2591 120.614 53.2821 120.578 53.2942L118.911 54.2625C118.819 54.3095 118.718 54.3339 118.615 54.3339C118.512 54.3339 118.41 54.3095 118.319 54.2625L116.647 53.2942C116.611 53.2821 116.58 53.2591 116.558 53.2283C116.535 53.1975 116.523 53.1606 116.523 53.1226C116.523 53.0847 116.535 53.0477 116.558 53.017C116.58 52.9862 116.611 52.9631 116.647 52.9511L118.308 51.9796C118.399 51.9327 118.501 51.9082 118.604 51.9082C118.707 51.9082 118.808 51.9327 118.9 51.9796L120.578 52.9511Z" fill="white" stroke="#4A63CE" stroke-width="0.31187" stroke-linecap="round" stroke-linejoin="round"/>
<path d="M117.697 54.63C117.733 54.642 117.764 54.6651 117.786 54.6959C117.808 54.7266 117.82 54.7636 117.82 54.8015C117.82 54.8395 117.808 54.8764 117.786 54.9072C117.764 54.938 117.733 54.961 117.697 54.9731L116.027 55.9383C115.935 55.9852 115.833 56.0097 115.73 56.0097C115.627 56.0097 115.526 55.9852 115.434 55.9383L113.756 54.9699C113.72 54.9579 113.689 54.9349 113.667 54.9041C113.645 54.8733 113.633 54.8363 113.633 54.7984C113.633 54.7605 113.645 54.7235 113.667 54.6927C113.689 54.662 113.72 54.6389 113.756 54.6269L115.423 53.6585C115.515 53.6108 115.616 53.5859 115.719 53.5859C115.823 53.5859 115.924 53.6108 116.016 53.6585L117.697 54.63Z" fill="white" stroke="#4A63CE" stroke-width="0.31187" stroke-linecap="round" stroke-linejoin="round"/>
<path d="M114.821 56.3034C114.857 56.3155 114.889 56.3385 114.911 56.3693C114.933 56.4001 114.945 56.437 114.945 56.475C114.945 56.5129 114.933 56.5498 114.911 56.5806C114.889 56.6114 114.857 56.6345 114.821 56.6465L113.154 57.6148C113.063 57.6625 112.961 57.6874 112.858 57.6874C112.755 57.6874 112.653 57.6625 112.562 57.6148L110.89 56.6465C110.725 56.5514 110.723 56.3986 110.89 56.3034L112.557 55.3351C112.649 55.2882 112.75 55.2637 112.853 55.2637C112.955 55.2637 113.057 55.2882 113.148 55.3351L114.821 56.3034Z" fill="white" stroke="#4A63CE" stroke-width="0.31187" stroke-linecap="round" stroke-linejoin="round"/>
<path d="M111.925 57.9812C111.961 57.9932 111.992 58.0162 112.014 58.047C112.037 58.0778 112.048 58.1148 112.048 58.1527C112.048 58.1906 112.037 58.2276 112.014 58.2584C111.992 58.2891 111.961 58.3122 111.925 58.3242L109.55 59.7043C109.458 59.7512 109.357 59.7757 109.254 59.7757C109.151 59.7757 109.049 59.7512 108.958 59.7043L107.28 58.7359C107.244 58.7239 107.212 58.7008 107.19 58.67C107.168 58.6393 107.156 58.6023 107.156 58.5644C107.156 58.5264 107.168 58.4895 107.19 58.4587C107.212 58.4279 107.244 58.4049 107.28 58.3928L109.655 57.0128C109.746 56.9659 109.847 56.9414 109.95 56.9414C110.053 56.9414 110.154 56.9659 110.246 57.0128L111.925 57.9812Z" fill="white" stroke="#4A63CE" stroke-width="0.31187" stroke-linecap="round" stroke-linejoin="round"/>
<path d="M123.551 54.6636C123.587 54.6756 123.618 54.6984 123.639 54.7289C123.661 54.7594 123.673 54.796 123.673 54.8335C123.673 54.8711 123.661 54.9077 123.639 54.9382C123.618 54.9687 123.587 54.9915 123.551 55.0035L121.884 55.9719C121.793 56.018 121.692 56.0421 121.59 56.0421C121.488 56.0421 121.387 56.018 121.296 55.9719L119.617 55.0035C119.451 54.9084 119.45 54.7556 119.617 54.6605L121.285 53.6905C121.377 53.6436 121.478 53.6191 121.581 53.6191C121.684 53.6191 121.785 53.6436 121.876 53.6905L123.551 54.6636Z" fill="white" stroke="#4A63CE" stroke-width="0.31187" stroke-linecap="round" stroke-linejoin="round"/>
<path d="M126.516 56.3734C126.681 56.4685 126.682 56.6213 126.516 56.7164L124.849 57.6848C124.757 57.7317 124.656 57.7562 124.553 57.7562C124.45 57.7562 124.349 57.7317 124.258 57.6848L122.584 56.7164C122.548 56.7044 122.517 56.6814 122.495 56.6506C122.473 56.6198 122.461 56.5828 122.461 56.5449C122.461 56.507 122.473 56.47 122.495 56.4392C122.517 56.4085 122.548 56.3854 122.584 56.3734L124.245 55.4113C124.337 55.3643 124.438 55.3398 124.541 55.3398C124.644 55.3398 124.746 55.3643 124.838 55.4113L126.516 56.3734Z" fill="white" stroke="#4A63CE" stroke-width="0.31187" stroke-linecap="round" stroke-linejoin="round"/>
<path d="M120.668 56.3452C120.704 56.3572 120.735 56.38 120.757 56.4105C120.779 56.441 120.79 56.4776 120.79 56.5152C120.79 56.5527 120.779 56.5893 120.757 56.6198C120.735 56.6503 120.704 56.6732 120.668 56.6851L118.995 57.6473C118.904 57.6938 118.804 57.718 118.702 57.718C118.6 57.718 118.499 57.6938 118.409 57.6473L116.726 56.6758C116.561 56.5807 116.559 56.4278 116.726 56.3327L118.395 55.3644C118.486 55.3175 118.587 55.293 118.69 55.293C118.793 55.293 118.894 55.3175 118.986 55.3644L120.668 56.3452Z" fill="white" stroke="#4A63CE" stroke-width="0.31187" stroke-linecap="round" stroke-linejoin="round"/>
<path d="M123.626 58.0488C123.662 58.0608 123.694 58.0838 123.716 58.1146C123.738 58.1454 123.75 58.1824 123.75 58.2203C123.75 58.2582 123.738 58.2952 123.716 58.326C123.694 58.3567 123.662 58.3798 123.626 58.3918L121.956 59.3602C121.865 59.4071 121.763 59.4316 121.66 59.4316C121.557 59.4316 121.456 59.4071 121.364 59.3602L119.686 58.3918C119.65 58.3798 119.619 58.3567 119.597 58.326C119.574 58.2952 119.563 58.2582 119.562 58.2203C119.563 58.1824 119.574 58.1454 119.597 58.1146C119.619 58.0838 119.65 58.0608 119.686 58.0488L121.353 57.0804C121.444 57.0327 121.546 57.0078 121.649 57.0078C121.752 57.0078 121.854 57.0327 121.945 57.0804L123.626 58.0488Z" fill="white" stroke="#4A63CE" stroke-width="0.31187" stroke-linecap="round" stroke-linejoin="round"/>
<path d="M129.475 58.0804C129.511 58.0924 129.542 58.1155 129.564 58.1463C129.586 58.177 129.598 58.214 129.598 58.2519C129.598 58.2899 129.586 58.3268 129.564 58.3576C129.542 58.3884 129.511 58.4114 129.475 58.4235L127.808 59.3918C127.716 59.4387 127.615 59.4632 127.512 59.4632C127.409 59.4632 127.307 59.4387 127.215 59.3918L125.545 58.4235C125.509 58.4114 125.478 58.3884 125.456 58.3576C125.434 58.3268 125.422 58.2899 125.422 58.2519C125.422 58.214 125.434 58.177 125.456 58.1463C125.478 58.1155 125.509 58.0924 125.545 58.0804L127.212 57.1105C127.304 57.0635 127.406 57.0391 127.509 57.0391C127.612 57.0391 127.713 57.0635 127.805 57.1105L129.475 58.0804Z" fill="white" stroke="#4A63CE" stroke-width="0.31187" stroke-linecap="round" stroke-linejoin="round"/>
<path d="M126.587 59.7585C126.623 59.7705 126.654 59.7936 126.676 59.8244C126.698 59.8552 126.71 59.8921 126.71 59.93C126.71 59.968 126.698 60.0049 126.676 60.0357C126.654 60.0665 126.623 60.0895 126.587 60.1016L124.918 61.0699C124.827 61.1169 124.725 61.1413 124.622 61.1413C124.519 61.1413 124.418 61.1169 124.326 61.0699L122.648 60.1016C122.483 60.0064 122.481 59.8536 122.648 59.7585L124.316 58.7902C124.408 58.7432 124.509 58.7188 124.612 58.7188C124.715 58.7188 124.816 58.7432 124.907 58.7902L126.587 59.7585Z" fill="white" stroke="#4A63CE" stroke-width="0.31187" stroke-linecap="round" stroke-linejoin="round"/>
<path d="M117.775 58.0175C117.81 58.0295 117.841 58.0523 117.863 58.0828C117.885 58.1133 117.897 58.1499 117.897 58.1875C117.897 58.225 117.885 58.2616 117.863 58.2921C117.841 58.3226 117.81 58.3455 117.775 58.3574L116.106 59.3274C116.016 59.3739 115.915 59.3981 115.813 59.3981C115.711 59.3981 115.611 59.3739 115.52 59.3274L113.842 58.3574C113.806 58.3454 113.775 58.3224 113.753 58.2916C113.731 58.2608 113.719 58.2238 113.719 58.1859C113.719 58.148 113.731 58.111 113.753 58.0802C113.775 58.0495 113.806 58.0264 113.842 58.0144L115.509 57.046C115.601 56.9991 115.702 56.9746 115.805 56.9746C115.908 56.9746 116.01 56.9991 116.102 57.046L117.775 58.0175Z" fill="white" stroke="#4A63CE" stroke-width="0.31187" stroke-linecap="round" stroke-linejoin="round"/>
<path d="M120.734 59.7273C120.77 59.7393 120.802 59.7623 120.824 59.7931C120.846 59.8239 120.858 59.8609 120.858 59.8988C120.858 59.9367 120.846 59.9737 120.824 60.0045C120.802 60.0352 120.77 60.0583 120.734 60.0703L119.067 61.0387C118.976 61.0864 118.874 61.1113 118.771 61.1113C118.668 61.1113 118.566 61.0864 118.475 61.0387L116.803 60.0703C116.767 60.0583 116.736 60.0352 116.714 60.0045C116.692 59.9737 116.68 59.9367 116.68 59.8988C116.68 59.8609 116.692 59.8239 116.714 59.7931C116.736 59.7623 116.767 59.7393 116.803 59.7273L118.47 58.7589C118.562 58.712 118.663 58.6875 118.766 58.6875C118.869 58.6875 118.971 58.712 119.063 58.7589L120.734 59.7273Z" fill="white" stroke="#4A63CE" stroke-width="0.31187" stroke-linecap="round" stroke-linejoin="round"/>
<path d="M123.701 61.4343C123.866 61.5294 123.868 61.6822 123.701 61.7774L122.032 62.7473C121.941 62.7942 121.84 62.8187 121.737 62.8187C121.634 62.8187 121.533 62.7942 121.441 62.7473L119.773 61.7774C119.608 61.6822 119.606 61.5294 119.773 61.4343L121.44 60.466C121.532 60.419 121.633 60.3945 121.736 60.3945C121.839 60.3945 121.941 60.419 122.032 60.466L123.701 61.4343Z" fill="white" stroke="#4A63CE" stroke-width="0.31187" stroke-linecap="round" stroke-linejoin="round"/>
<path d="M132.433 59.7927C132.598 59.8878 132.6 60.0406 132.433 60.1357L130.764 61.1041C130.673 61.151 130.572 61.1755 130.469 61.1755C130.366 61.1755 130.265 61.151 130.173 61.1041L128.489 60.1326C128.454 60.1206 128.423 60.0978 128.401 60.0673C128.379 60.0368 128.367 60.0002 128.367 59.9626C128.367 59.9251 128.379 59.8885 128.401 59.858C128.423 59.8275 128.454 59.8046 128.489 59.7927L130.156 58.8228C130.247 58.7762 130.348 58.752 130.45 58.752C130.552 58.752 130.653 58.7762 130.744 58.8228L132.433 59.7927Z" fill="white" stroke="#4A63CE" stroke-width="0.31187" stroke-linecap="round" stroke-linejoin="round"/>
<path d="M129.55 61.4718C129.715 61.5669 129.716 61.7197 129.55 61.8148L127.88 62.7832C127.788 62.8301 127.687 62.8546 127.584 62.8546C127.481 62.8546 127.38 62.8301 127.289 62.7832L125.609 61.8055C125.453 61.7135 125.453 61.5606 125.609 61.4655L127.276 60.4972C127.367 60.4503 127.468 60.4258 127.57 60.4258C127.672 60.4258 127.773 60.4503 127.864 60.4972L129.55 61.4718Z" fill="white" stroke="#4A63CE" stroke-width="0.31187" stroke-linecap="round" stroke-linejoin="round"/>
<path d="M126.659 63.1452C126.695 63.1573 126.726 63.1803 126.748 63.2111C126.771 63.2419 126.782 63.2788 126.782 63.3168C126.782 63.3547 126.771 63.3916 126.748 63.4224C126.726 63.4532 126.695 63.4762 126.659 63.4883L124.994 64.4535C124.902 64.5012 124.8 64.5261 124.697 64.5261C124.594 64.5261 124.493 64.5012 124.401 64.4535L122.719 63.482C122.563 63.39 122.563 63.2372 122.719 63.1421L124.385 62.1737C124.477 62.1276 124.577 62.1035 124.679 62.1035C124.782 62.1035 124.882 62.1276 124.973 62.1737L126.659 63.1452Z" fill="white" stroke="#4A63CE" stroke-width="0.31187" stroke-linecap="round" stroke-linejoin="round"/>
<path d="M123.785 64.8235C123.821 64.8356 123.852 64.8586 123.874 64.8894C123.896 64.9202 123.908 64.9572 123.908 64.9951C123.908 65.033 123.896 65.07 123.874 65.1007C123.852 65.1315 123.821 65.1546 123.785 65.1666L121.41 66.5466C121.318 66.5935 121.217 66.618 121.114 66.618C121.012 66.618 120.91 66.5935 120.819 66.5466L110.25 60.4449C110.084 60.3498 110.083 60.197 110.25 60.1018L112.624 58.7218C112.716 58.6749 112.818 58.6504 112.921 58.6504C113.024 58.6504 113.125 58.6749 113.217 58.7218L123.785 64.8235Z" fill="white" stroke="#4A63CE" stroke-width="0.31187" stroke-linecap="round" stroke-linejoin="round"/>
<path d="M135.397 61.5032C135.433 61.5153 135.464 61.5383 135.486 61.5691C135.508 61.5999 135.52 61.6368 135.52 61.6748C135.52 61.7127 135.508 61.7497 135.486 61.7804C135.464 61.8112 135.433 61.8343 135.397 61.8463L133.73 62.8147C133.638 62.8616 133.537 62.8861 133.434 62.8861C133.331 62.8861 133.229 62.8616 133.137 62.8147L131.467 61.8463C131.431 61.8343 131.4 61.8112 131.378 61.7804C131.356 61.7497 131.344 61.7127 131.344 61.6748C131.344 61.6368 131.356 61.5999 131.378 61.5691C131.4 61.5383 131.431 61.5153 131.467 61.5032L133.134 60.5349C133.226 60.4876 133.327 60.4629 133.43 60.4629C133.534 60.4629 133.635 60.4876 133.727 60.5349L135.397 61.5032Z" fill="white" stroke="#4A63CE" stroke-width="0.31187" stroke-linecap="round" stroke-linejoin="round"/>
<path d="M132.513 63.1777C132.549 63.1897 132.581 63.2127 132.603 63.2435C132.625 63.2743 132.637 63.3113 132.637 63.3492C132.637 63.3871 132.625 63.4241 132.603 63.4549C132.581 63.4856 132.549 63.5087 132.513 63.5207L130.845 64.4891C130.753 64.5368 130.652 64.5617 130.549 64.5617C130.446 64.5617 130.344 64.5368 130.252 64.4891L128.578 63.5176C128.412 63.4225 128.411 63.2697 128.578 63.1745L130.245 62.2062C130.336 62.1592 130.438 62.1348 130.541 62.1348C130.644 62.1348 130.745 62.1592 130.837 62.2062L132.513 63.1777Z" fill="white" stroke="#4A63CE" stroke-width="0.31187" stroke-linecap="round" stroke-linejoin="round"/>
<path d="M129.624 64.8562C129.66 64.8682 129.692 64.8912 129.714 64.922C129.736 64.9528 129.748 64.9898 129.748 65.0277C129.748 65.0656 129.736 65.1026 129.714 65.1334C129.692 65.1641 129.66 65.1872 129.624 65.1992L127.959 66.1707C127.867 66.2176 127.766 66.2421 127.663 66.2421C127.56 66.2421 127.458 66.2176 127.366 66.1707L125.695 65.1992C125.53 65.1041 125.528 64.9513 125.695 64.8562L127.363 63.8878C127.455 63.8409 127.556 63.8164 127.659 63.8164C127.762 63.8164 127.863 63.8409 127.954 63.8878L129.624 64.8562Z" fill="white" stroke="#4A63CE" stroke-width="0.31187" stroke-linecap="round" stroke-linejoin="round"/>
<path d="M126.738 66.532C126.903 66.6286 126.904 66.7799 126.738 66.875L124.363 68.255C124.271 68.302 124.169 68.3265 124.066 68.3265C123.963 68.3265 123.862 68.302 123.77 68.255L122.092 67.2867C122.056 67.2746 122.025 67.2516 122.003 67.2208C121.981 67.1901 121.969 67.1531 121.969 67.1152C121.969 67.0772 121.981 67.0403 122.003 67.0095C122.025 66.9787 122.056 66.9557 122.092 66.9436L124.466 65.5636C124.557 65.5167 124.659 65.4922 124.762 65.4922C124.865 65.4922 124.966 65.5167 125.058 65.5636L126.738 66.532Z" fill="white" stroke="#4A63CE" stroke-width="0.31187" stroke-linecap="round" stroke-linejoin="round"/>
<path d="M123.718 71.8166C124.342 72.1784 124.35 72.7522 123.726 73.1218L114.682 78.3784C114.333 78.5567 113.946 78.6497 113.555 78.6497C113.163 78.6497 112.776 78.5567 112.427 78.3784L96.5342 69.2874C95.9105 68.924 95.9027 68.3518 96.5264 67.9806L105.571 62.7256C105.919 62.5465 106.306 62.4531 106.698 62.4531C107.09 62.4531 107.477 62.5465 107.825 62.7256L123.718 71.8166Z" fill="white" stroke="#4A63CE" stroke-width="0.31187" stroke-linecap="round" stroke-linejoin="round"/>
<path d="M144.292 66.6399C144.328 66.652 144.359 66.675 144.381 66.7058C144.403 66.7366 144.415 66.7735 144.415 66.8114C144.415 66.8494 144.403 66.8863 144.381 66.9171C144.359 66.9479 144.328 66.9709 144.292 66.983L142.625 67.9513C142.533 67.9983 142.432 68.0227 142.329 68.0227C142.226 68.0227 142.124 67.9983 142.032 67.9513L140.359 66.9783C140.203 66.8863 140.203 66.7335 140.359 66.6384L142.026 65.6684C142.117 65.6219 142.217 65.5977 142.319 65.5977C142.421 65.5977 142.522 65.6219 142.612 65.6684L144.292 66.6399Z" fill="white" stroke="#4A63CE" stroke-width="0.31187" stroke-linecap="round" stroke-linejoin="round"/>
<path d="M141.405 68.314C141.441 68.326 141.472 68.349 141.494 68.3798C141.516 68.4106 141.528 68.4476 141.528 68.4855C141.528 68.5234 141.516 68.5604 141.494 68.5911C141.472 68.6219 141.441 68.645 141.405 68.657L139.733 69.6254C139.641 69.6723 139.54 69.6968 139.437 69.6968C139.334 69.6968 139.232 69.6723 139.141 69.6254L137.458 68.6539C137.422 68.6419 137.392 68.6191 137.37 68.5886C137.348 68.5581 137.336 68.5215 137.336 68.4839C137.336 68.4464 137.348 68.4098 137.37 68.3793C137.392 68.3488 137.422 68.3259 137.458 68.314L139.127 67.3456C139.217 67.2994 139.318 67.2754 139.42 67.2754C139.522 67.2754 139.622 67.2994 139.713 67.3456L141.405 68.314Z" fill="white" stroke="#4A63CE" stroke-width="0.31187" stroke-linecap="round" stroke-linejoin="round"/>
<path d="M138.519 69.9898C138.684 70.0849 138.686 70.2377 138.519 70.3328L136.85 71.3027C136.759 71.3496 136.658 71.3741 136.555 71.3741C136.452 71.3741 136.351 71.3496 136.259 71.3027L134.575 70.3297C134.54 70.3177 134.509 70.2949 134.487 70.2644C134.465 70.2339 134.453 70.1973 134.453 70.1597C134.453 70.1222 134.465 70.0856 134.487 70.0551C134.509 70.0246 134.54 70.0017 134.575 69.9898L136.242 69.0214C136.333 68.9752 136.434 68.9512 136.536 68.9512C136.638 68.9512 136.739 68.9752 136.83 69.0214L138.519 69.9898Z" fill="white" stroke="#4A63CE" stroke-width="0.31187" stroke-linecap="round" stroke-linejoin="round"/>
<path d="M134.353 73.0317C134.388 73.0445 134.419 73.0678 134.44 73.0985C134.462 73.1292 134.474 73.1658 134.474 73.2033C134.474 73.2407 134.462 73.2773 134.44 73.308C134.419 73.3387 134.388 73.362 134.353 73.3748L133.807 73.7022C133.716 73.7492 133.615 73.7737 133.512 73.7737C133.409 73.7737 133.308 73.7492 133.216 73.7022L131.311 72.6107C131.275 72.5987 131.244 72.5756 131.222 72.5449C131.199 72.5141 131.188 72.4771 131.188 72.4392C131.188 72.4013 131.199 72.3643 131.222 72.3335C131.244 72.3027 131.275 72.2797 131.311 72.2676L131.863 71.9464C131.955 71.8995 132.056 71.875 132.159 71.875C132.262 71.875 132.364 71.8995 132.456 71.9464L134.353 73.0317Z" fill="white" stroke="#4A63CE" stroke-width="0.31187" stroke-linecap="round" stroke-linejoin="round"/>
<path d="M147.928 68.737C147.964 68.7491 147.995 68.7721 148.018 68.8029C148.04 68.8337 148.052 68.8706 148.052 68.9086C148.052 68.9465 148.04 68.9835 148.018 69.0142C147.995 69.045 147.964 69.068 147.928 69.0801L146.261 70.05C146.17 70.0969 146.068 70.1214 145.965 70.1214C145.862 70.1214 145.76 70.0969 145.669 70.05L143.319 68.6887C143.283 68.6767 143.252 68.6536 143.229 68.6228C143.207 68.5921 143.195 68.5551 143.195 68.5172C143.195 68.4792 143.207 68.4423 143.229 68.4115C143.252 68.3807 143.283 68.3577 143.319 68.3456L144.986 67.3773C145.077 67.3296 145.179 67.3047 145.282 67.3047C145.385 67.3047 145.487 67.3296 145.578 67.3773L147.928 68.737Z" fill="white" stroke="#4A63CE" stroke-width="0.31187" stroke-linecap="round" stroke-linejoin="round"/>
<path d="M144.308 69.9835C144.343 69.9954 144.374 70.018 144.395 70.0483C144.417 70.0785 144.429 70.1147 144.429 70.1519C144.429 70.1891 144.417 70.2253 144.395 70.2555C144.374 70.2858 144.343 70.3084 144.308 70.3203L142.636 71.2918C142.545 71.3379 142.444 71.362 142.342 71.362C142.24 71.362 142.139 71.3379 142.048 71.2918L140.366 70.3203C140.33 70.3083 140.298 70.2852 140.276 70.2544C140.254 70.2237 140.242 70.1867 140.242 70.1488C140.242 70.1109 140.254 70.0739 140.276 70.0431C140.298 70.0123 140.33 69.9893 140.366 69.9772L142.037 69.0058C142.128 68.9596 142.229 68.9355 142.331 68.9355C142.433 68.9355 142.534 68.9596 142.625 69.0058L144.308 69.9835Z" fill="white" stroke="#4A63CE" stroke-width="0.31187" stroke-linecap="round" stroke-linejoin="round"/>
<path d="M151.581 70.8479C151.617 70.86 151.648 70.883 151.67 70.9138C151.693 70.9446 151.704 70.9815 151.704 71.0195C151.704 71.0574 151.693 71.0943 151.67 71.1251C151.648 71.1559 151.617 71.1789 151.581 71.191L149.914 72.1593C149.822 72.2063 149.721 72.2308 149.618 72.2308C149.515 72.2308 149.413 72.2063 149.322 72.1593L146.945 70.7871C146.789 70.6951 146.789 70.5423 146.945 70.4472L148.618 69.4804C148.709 69.4342 148.81 69.4102 148.912 69.4102C149.014 69.4102 149.115 69.4342 149.206 69.4804L151.581 70.8479Z" fill="white" stroke="#4A63CE" stroke-width="0.31187" stroke-linecap="round" stroke-linejoin="round"/>
<path d="M145.634 70.7476L148.703 72.5252C148.868 72.6203 148.87 72.7732 148.703 72.8683L147.034 73.8366C146.943 73.8836 146.842 73.908 146.739 73.908C146.636 73.908 146.535 73.8836 146.443 73.8366L143.375 72.059C143.209 71.9639 143.208 71.8126 143.375 71.7175L145.048 70.7444C145.139 70.6988 145.239 70.6752 145.341 70.6758C145.443 70.6763 145.543 70.7009 145.634 70.7476Z" fill="white" stroke="#4A63CE" stroke-width="0.31187" stroke-linecap="round" stroke-linejoin="round"/>
<path d="M145.81 74.2023C145.975 74.2974 145.977 74.4502 145.81 74.5454L144.143 75.5137C144.052 75.5614 143.95 75.5863 143.847 75.5863C143.745 75.5863 143.643 75.5614 143.552 75.5137L137.545 72.041C137.509 72.029 137.478 72.006 137.456 71.9752C137.434 71.9444 137.422 71.9074 137.422 71.8695C137.422 71.8316 137.434 71.7946 137.456 71.7638C137.478 71.7331 137.509 71.71 137.545 71.698L139.212 70.7296C139.304 70.6827 139.406 70.6582 139.509 70.6582C139.612 70.6582 139.713 70.6827 139.805 70.7296L145.81 74.2023Z" fill="white" stroke="#4A63CE" stroke-width="0.31187" stroke-linecap="round" stroke-linejoin="round"/>
<path d="M139.426 73.8645C139.582 73.9565 139.582 74.1093 139.426 74.2044L138.879 74.5163C138.788 74.5628 138.687 74.5871 138.585 74.5871C138.483 74.5871 138.382 74.5628 138.291 74.5163L136.382 73.4138C136.217 73.3187 136.216 73.1659 136.382 73.0708L136.931 72.7589C137.023 72.712 137.124 72.6875 137.227 72.6875C137.33 72.6875 137.431 72.712 137.522 72.7589L139.426 73.8645Z" fill="white" stroke="#4A63CE" stroke-width="0.31187" stroke-linecap="round" stroke-linejoin="round"/>
<path d="M137.611 74.9218C137.646 74.9345 137.676 74.9576 137.697 74.988C137.719 75.0184 137.73 75.0546 137.73 75.0917C137.73 75.1289 137.719 75.1651 137.697 75.1955C137.676 75.2259 137.646 75.249 137.611 75.2617L137.057 75.5829C136.967 75.6291 136.866 75.6531 136.764 75.6531C136.662 75.6531 136.562 75.6291 136.471 75.5829L134.561 74.4805C134.525 74.4684 134.494 74.4454 134.472 74.4146C134.449 74.3838 134.438 74.3469 134.438 74.3089C134.438 74.271 134.449 74.2341 134.472 74.2033C134.494 74.1725 134.525 74.1495 134.561 74.1374L135.113 73.8162C135.205 73.7701 135.306 73.7461 135.409 73.7461C135.512 73.7461 135.614 73.7701 135.706 73.8162L137.611 74.9218Z" fill="white" stroke="#4A63CE" stroke-width="0.31187" stroke-linecap="round" stroke-linejoin="round"/>
<path d="M140.875 76.8004C140.91 76.8132 140.941 76.8365 140.962 76.8672C140.984 76.8979 140.995 76.9345 140.995 76.972C140.995 77.0094 140.984 77.046 140.962 77.0767C140.941 77.1074 140.91 77.1307 140.875 77.1435L140.321 77.4647C140.23 77.5116 140.129 77.5361 140.026 77.5361C139.923 77.5361 139.822 77.5116 139.73 77.4647L137.82 76.3623C137.664 76.2702 137.664 76.1174 137.82 76.0223L138.372 75.7011C138.463 75.6549 138.564 75.6309 138.666 75.6309C138.768 75.6309 138.869 75.6549 138.96 75.7011L140.875 76.8004Z" fill="white" stroke="#4A63CE" stroke-width="0.31187" stroke-linecap="round" stroke-linejoin="round"/>
<path d="M139.676 41.4876L128.5 34.4565L128.898 29.9297L140.095 36.7643L139.676 41.4876Z" fill="white" stroke="#4A63CE" stroke-width="0.276005" stroke-linecap="round" stroke-linejoin="round"/>
<path d="M130.605 31.397C129.992 31.4828 129.562 33.2885 129.562 33.2885L133.515 36.415C132.612 37.3428 133.078 39.5508 133.078 39.5508L130.95 38.1973C129.167 37.0683 125.384 34.143 125.36 33.0374C125.335 31.9319 128.667 26.6753 129.142 26.4336C129.618 26.1919 132.381 26.4336 132.381 26.4336L138.243 29.886C138.243 29.886 140.766 32.816 141.151 33.5972C141.536 34.3785 143.604 43.4024 143.392 44.43C143.18 45.4576 139.308 43.5428 137.527 42.4029L135.4 41.0384C135.4 41.0384 136.189 39.6054 135.537 37.6858L139.601 39.543C139.601 39.543 139.525 37.3444 138.991 36.5382" fill="white"/>
<path d="M130.605 31.397C129.992 31.4828 129.562 33.2885 129.562 33.2885L133.515 36.415C132.612 37.3428 133.078 39.5508 133.078 39.5508L130.95 38.1973C129.167 37.0683 125.384 34.143 125.36 33.0374C125.335 31.9319 128.667 26.6753 129.142 26.4336C129.618 26.1919 132.381 26.4336 132.381 26.4336L138.243 29.886C138.243 29.886 140.766 32.816 141.151 33.5972C141.536 34.3785 143.604 43.4024 143.392 44.43C143.18 45.4576 139.308 43.5428 137.527 42.4029L135.4 41.0384C135.4 41.0384 136.189 39.6054 135.537 37.6858L139.601 39.543C139.601 39.543 139.525 37.3444 138.991 36.5382" stroke="#4A63CE" stroke-width="0.276005" stroke-linecap="round" stroke-linejoin="round"/>
<path d="M133.797 28.7207L134.901 32.5676L136.679 30.0992L133.797 28.7207Z" fill="white" stroke="#4A63CE" stroke-width="0.276005" stroke-linecap="round" stroke-linejoin="round"/>
<path d="M138.66 25.7001C138.4 28.6286 136.878 30.2223 135.259 29.2555C133.64 28.2887 132.533 25.2011 132.786 22.3382C132.912 20.9036 133.116 19.1556 133.732 18.5084C134.348 17.8613 135.376 18.3073 136.188 18.7548C137.815 19.653 138.92 22.7654 138.66 25.7001Z" fill="white" stroke="#4A63CE" stroke-width="0.276005" stroke-linecap="round" stroke-linejoin="round"/>
<path d="M132.479 20.7016C132.432 20.6596 132.375 20.6315 132.313 20.6205C132.252 20.6094 132.188 20.6159 132.13 20.6393C132.066 20.6905 132.019 20.7594 131.994 20.8373C131.759 21.4205 131.874 22.2937 132.15 23.0578C132.272 23.3946 132.482 23.7767 132.716 23.7891C132.919 23.8016 133.011 23.5272 133.075 23.2792C133.175 22.9455 133.231 22.6 133.242 22.2516C133.246 21.9514 133.179 21.6544 133.047 21.3849C132.914 21.1155 132.72 20.8813 132.479 20.7016Z" fill="white" stroke="#4A63CE" stroke-width="0.276005" stroke-linecap="round" stroke-linejoin="round"/>
<path d="M139.206 24.5191C139.349 24.5858 139.465 24.7006 139.532 24.8435C139.578 24.9498 139.608 25.0622 139.621 25.1772C139.68 25.5114 139.664 25.8544 139.574 26.1816C139.485 26.5089 139.324 26.8123 139.103 27.0702C138.936 27.248 138.681 27.3665 138.469 27.1186C138.285 26.9049 138.247 26.5478 138.232 26.25C138.197 25.8729 138.206 25.4931 138.257 25.1179C138.363 24.5363 138.743 24.3071 139.206 24.5191Z" fill="white" stroke="#4A63CE" stroke-width="0.276005" stroke-linecap="round" stroke-linejoin="round"/>
<path d="M138.571 27.4034C138.526 27.1679 138.343 26.92 138.201 26.9699C138.122 26.998 138.081 27.1087 138.046 27.2054C137.983 27.3577 137.897 27.4993 137.79 27.6248C137.565 27.8821 137.107 27.7963 137.166 27.1866C137.199 26.8327 137.264 26.5114 137.026 26.1497C136.463 25.2889 135.385 24.9693 134.715 24.6901C134.588 24.624 134.448 24.5893 134.305 24.5888C134.035 24.6153 133.881 24.9365 133.768 25.2531C133.749 25.3306 133.711 25.4023 133.658 25.462C133.556 25.5493 133.388 25.462 133.275 25.3061C133.164 25.136 133.094 24.9421 133.071 24.74C133.062 24.549 133.031 24.3596 132.979 24.1755C132.911 23.9915 132.727 23.8403 132.649 23.9526C132.624 24.0009 132.609 24.0541 132.607 24.1085C132.474 25.3745 132.562 26.6537 132.865 27.8899C132.895 28.0411 132.943 28.1882 133.007 28.3281C133.088 28.4826 133.194 28.6231 133.319 28.7444C134.358 29.836 135.53 30.5704 136.656 30.8199C136.882 30.8774 137.116 30.8979 137.349 30.8807C137.468 30.8764 137.581 30.83 137.67 30.7498C137.758 30.6419 137.823 30.5165 137.86 30.3818C138.122 29.6395 138.328 28.8396 138.524 28.0427C138.589 27.836 138.605 27.6173 138.571 27.4034ZM136.212 27.4502C136.159 27.4735 136.102 27.4855 136.045 27.4855C135.987 27.4855 135.931 27.4735 135.878 27.4502C135.47 27.3165 135.097 27.0933 134.787 26.7968C134.302 26.354 134.431 25.5291 134.868 25.4932C135.066 25.4776 135.318 25.6491 135.519 25.7661C135.763 25.8986 136.128 26.0187 136.299 26.3758C136.378 26.5536 136.412 26.7479 136.399 26.9418C136.39 27.1601 136.338 27.3706 136.212 27.4502Z" fill="white" stroke="#4A63CE" stroke-width="0.276005" stroke-linecap="round" stroke-linejoin="round"/>
<path d="M132.711 23.791C132.921 23.3916 133.043 22.9519 133.068 22.5014C133.048 21.9784 132.992 21.4575 132.901 20.9421C132.901 20.9421 133.034 18.2787 133.099 17.5442C133.165 16.8098 138.053 19.0786 139.082 20.8547C139.082 20.8547 138.429 25.3768 138.367 26.091C138.33 26.5193 138.316 26.9493 138.325 27.379L138.036 27.2028C138.036 27.2028 138.192 24.7188 138.245 23.9688C138.298 23.2187 138.401 22.1428 138.212 21.675C138.024 21.2071 137.171 20.3402 137.171 20.3402C137.171 20.3402 137.16 20.9078 136.814 20.8703C136.814 20.8703 135.237 20.1717 135.025 19.7694C134.961 19.6652 134.923 19.5474 134.914 19.4256C134.906 19.3038 134.926 19.1817 134.974 19.0693C134.974 19.0693 133.919 18.4861 133.754 18.8307C133.589 19.1753 133.461 22.1396 133.361 22.8289C133.266 23.3111 133.073 23.7686 132.794 24.173L132.711 23.791Z" fill="white" stroke="#4A63CE" stroke-width="0.276005" stroke-linecap="round" stroke-linejoin="round"/>
<path d="M134.766 24.3809L135.584 25.4818L136.403 25.3788" fill="white"/>
<path d="M134.766 24.3809L135.584 25.4818L136.403 25.3788" stroke="#4A63CE" stroke-width="0.276005" stroke-linecap="round" stroke-linejoin="round"/>
<path d="M133.035 36.3101C133.035 36.3101 134.343 36.0186 134.75 36.4661C135.157 36.9136 136.052 37.4017 136.535 38.5041C137.019 39.6066 136.408 41.534 136.408 41.534C136.408 41.534 134.825 41.6478 134.271 41.0537C133.718 40.4596 132.567 38.8706 132.567 38.8706C132.424 38.4388 132.392 37.978 132.474 37.5307C132.556 37.0833 132.748 36.6636 133.035 36.3101Z" fill="white" stroke="#4A63CE" stroke-width="0.276005" stroke-linecap="round" stroke-linejoin="round"/>
<path d="M135.064 33.8664C135.05 34.0223 134.943 34.0956 134.824 34.0223C134.76 33.9741 134.709 33.9106 134.676 33.8376C134.643 33.7646 134.628 33.6844 134.634 33.6044C134.648 33.4485 134.756 33.3752 134.876 33.4485C134.94 33.4967 134.991 33.5603 135.024 33.6333C135.057 33.7063 135.071 33.7865 135.064 33.8664Z" fill="#4A63CE"/>
<path d="M137.354 24.3185C137.339 24.4744 137.232 24.5461 137.113 24.4744C137.049 24.4259 136.998 24.3621 136.965 24.2889C136.932 24.2156 136.917 24.1352 136.923 24.0549C136.937 23.899 137.045 23.8273 137.163 23.899C137.228 23.9472 137.279 24.0109 137.312 24.0843C137.346 24.1576 137.36 24.2382 137.354 24.3185Z" fill="#4A63CE"/>
<path d="M134.689 22.8341C134.675 22.99 134.568 23.0633 134.449 22.99C134.385 22.9415 134.334 22.8778 134.301 22.8045C134.268 22.7312 134.253 22.6508 134.259 22.5706C134.273 22.4146 134.381 22.3429 134.499 22.4146C134.564 22.4622 134.616 22.5258 134.65 22.5993C134.683 22.6728 134.697 22.7537 134.689 22.8341Z" fill="#4A63CE"/>
<path d="M134.979 34.8263C134.964 34.9822 134.857 35.0539 134.738 34.9822C134.674 34.9337 134.623 34.87 134.59 34.7967C134.557 34.7234 134.542 34.643 134.548 34.5627C134.562 34.4068 134.67 34.3351 134.79 34.4068C134.854 34.4554 134.905 34.5192 134.938 34.5925C134.971 34.6658 134.985 34.7462 134.979 34.8263Z" fill="#4A63CE"/>
<path d="M138.142 24.5047L136.289 23.4521L136.383 22.3887L138.237 23.4319L138.142 24.5047Z" fill="white" stroke="#4A63CE" stroke-width="0.276005" stroke-linecap="round" stroke-linejoin="round"/>
<path d="M135.362 22.9227L133.508 21.8764L133.601 20.8223L135.455 21.8608L135.362 22.9227Z" fill="white" stroke="#4A63CE" stroke-width="0.276005" stroke-linecap="round" stroke-linejoin="round"/>
<g style="mix-blend-mode:multiply">
<path d="M164.08 39.5473C165.766 38.59 165.836 35.5301 164.236 32.7128C162.636 29.8955 159.972 28.3876 158.287 29.3449C156.601 30.3021 156.531 33.362 158.131 36.1793C159.731 38.9966 162.394 40.5045 164.08 39.5473Z" fill="#4A63CE"/>
</g>
<path d="M158.937 32.7716C158.869 32.6974 158.825 32.6036 158.812 32.5034C158.816 32.3924 158.85 32.2844 158.911 32.1916C158.984 32.0306 159.082 31.8818 159.201 31.7503C159.325 31.6358 159.474 31.5508 159.636 31.5017C159.798 31.4525 159.969 31.4405 160.136 31.4665C160.474 31.5224 160.794 31.6559 161.072 31.8563C161.602 32.2187 162.045 32.6943 162.368 33.2488C162.692 33.8033 162.888 34.4227 162.943 35.0623C162.985 35.4284 162.931 35.799 162.787 36.1383C162.714 36.3068 162.599 36.4538 162.453 36.5651C162.307 36.6765 162.135 36.7486 161.953 36.7745C161.65 36.7779 161.355 36.6814 161.113 36.5C160.95 36.4045 160.811 36.2727 160.707 36.1149C160.656 36.0351 160.628 35.9434 160.623 35.849C160.619 35.7546 160.64 35.6608 160.684 35.5769C160.739 35.5021 160.809 35.4395 160.89 35.3929C160.97 35.3462 161.059 35.3165 161.152 35.3056C161.472 35.2386 161.804 35.2526 162.118 35.3461C162.105 34.7724 161.923 34.2153 161.596 33.744C161.268 33.2728 160.81 32.9081 160.277 32.6952C160.32 32.7789 160.343 32.8712 160.345 32.9651C160.347 33.0591 160.328 33.1523 160.289 33.2379C160.289 33.358 159.676 33.2176 159.612 33.2005C159.347 33.133 159.111 32.9828 158.937 32.7716Z" fill="white"/>
<path d="M155.403 39.0645L154.555 43.6115L164.998 49.4388L165.872 44.8434L155.403 39.0645Z" fill="white" stroke="#4A63CE" stroke-width="0.31187" stroke-linecap="round" stroke-linejoin="round"/>
<path d="M154.098 44.8594L153.25 49.408L163.693 55.2338L164.568 50.6384L154.098 44.8594Z" fill="white" stroke="#4A63CE" stroke-width="0.31187" stroke-linecap="round" stroke-linejoin="round"/>
<path d="M173.57 64.3848V79.0941C173.57 81.9243 177.509 84.2181 182.368 84.2181C187.227 84.2181 191.164 81.9243 191.164 79.0941V64.3848H173.57Z" fill="white"/>
<path d="M173.57 64.3848V79.0941C173.57 81.9243 177.509 84.2181 182.368 84.2181C187.227 84.2181 191.164 81.9243 191.164 79.0941V64.3848H173.57Z" stroke="#FF7F0B" stroke-width="0.779674" stroke-linecap="round" stroke-linejoin="round"/>
<path d="M182.367 69.5086C187.225 69.5086 191.163 67.2152 191.163 64.3861C191.163 61.5571 187.225 59.2637 182.367 59.2637C177.509 59.2637 173.57 61.5571 173.57 64.3861C173.57 67.2152 177.509 69.5086 182.367 69.5086Z" fill="white" stroke="#FF7F0B" stroke-width="0.779674" stroke-linecap="round" stroke-linejoin="round"/>
<path d="M182.362 68.4585C186.226 68.4585 189.358 66.635 189.358 64.3855C189.358 62.1361 186.226 60.3125 182.362 60.3125C178.499 60.3125 175.367 62.1361 175.367 64.3855C175.367 66.635 178.499 68.4585 182.362 68.4585Z" fill="white"/>
<path d="M182.245 72.0562C186.109 72.0562 189.24 70.2326 189.24 67.9832C189.24 65.7337 186.109 63.9102 182.245 63.9102C178.382 63.9102 175.25 65.7337 175.25 67.9832C175.25 70.2326 178.382 72.0562 182.245 72.0562Z" fill="white" stroke="#FF7F0B" stroke-width="0.31187" stroke-linecap="round" stroke-linejoin="round"/>
<path d="M182.362 68.4585C186.226 68.4585 189.358 66.635 189.358 64.3855C189.358 62.1361 186.226 60.3125 182.362 60.3125C178.499 60.3125 175.367 62.1361 175.367 64.3855C175.367 66.635 178.499 68.4585 182.362 68.4585Z" stroke="#FF7F0B" stroke-width="0.31187" stroke-linecap="round" stroke-linejoin="round"/>
<path d="M174.415 68.8337C173.567 68.7086 172.702 68.8081 171.905 69.1222C171.508 69.2809 171.148 69.5168 170.843 69.816C170.539 70.1153 170.297 70.472 170.132 70.8656C169.977 71.2964 169.898 71.7505 169.898 72.2082C169.861 72.8626 169.967 73.5171 170.21 74.1262C171.03 76.0208 173.392 76.6804 174.758 78.2304L174.584 78.0198" stroke="#FF7F0B" stroke-width="1.87122" stroke-linecap="round" stroke-linejoin="round"/>
</svg>
