<svg width="182" height="115" viewBox="0 0 182 115" fill="none" xmlns="http://www.w3.org/2000/svg">
<g clip-path="url(#clip0_1281_2316)">
<path style="mix-blend-mode:multiply" opacity="0.6" d="M47.6608 99.7173L0 84.6619L43.8636 62.2207L86.2642 77.4294L47.6608 99.7173Z" fill="url(#paint0_linear_1281_2316)"/>
<path style="mix-blend-mode:multiply" opacity="0.37" d="M113.228 101.539L100.96 96.0131L99.1181 98.7758L69.1562 87.7972L89.0518 75.916L113.912 88.071L113.228 101.539Z" fill="url(#paint1_linear_1281_2316)"/>
<path d="M53.9688 93.3166V96.0126L89.0503 75.9156L86.8324 72.9414L53.9688 93.3166Z" fill="#DCE6F4" stroke="#627BFD" stroke-miterlimit="10"/>
<path opacity="0.51" d="M53.9688 93.3166V96.0126L89.0503 75.9156L86.8324 72.9414L53.9688 93.3166Z" fill="#4D4F80"/>
<path d="M53.9688 93.3169L92.0202 71.5156L76.4894 75.2532L58.0838 86.9598L53.9688 93.3169Z" fill="#ADB3DB" stroke="#7D83AF" stroke-width="2" stroke-miterlimit="10"/>
<path d="M95.8613 50.7233L109.502 58.5987V14.8983L95.8613 7.03711V50.7233Z" fill="url(#paint2_linear_1281_2316)"/>
<path d="M121.79 7.85974L108.148 0L95.8613 7.03673L109.502 14.8979L121.79 7.85974Z" fill="#F3F7FF"/>
<path d="M121.79 7.85974L108.148 0L95.8613 7.03673L109.502 14.8979L121.79 7.85974Z" fill="#F3F7FF"/>
<path opacity="0.6" d="M95.8613 11.7891L109.502 20.0305L121.79 13.0463" stroke="#7D83AF" stroke-width="0.75" stroke-miterlimit="10"/>
<path d="M106.739 16.6713C108.135 19.444 109.001 22.8566 109.207 26.851C109.774 37.8723 105.185 50.6176 97.8066 60.7307V65.602L121.787 51.5456V7.85938L106.739 16.6713Z" fill="#DCE6F4"/>
<path opacity="0.5" d="M102.449 25.4155V29.5887L126.632 15.6572V11.2441L102.449 25.4155Z" fill="#ADB3DB"/>
<path opacity="0.5" d="M102.449 31.1518V35.3251L126.632 21.3935V16.9805L102.449 31.1518Z" fill="#858EBA"/>
<path opacity="0.5" d="M103.449 39.9345V44.1077L127.632 30.1748V25.7617L103.449 39.9345Z" fill="#858EBA"/>
<path opacity="0.5" d="M103.449 50.7065V54.8797L127.632 40.9482V36.5352L103.449 50.7065Z" fill="#ADB3DB"/>
<path opacity="0.51" d="M103.449 45.6772V49.8505L127.632 35.9189V31.5059L103.449 45.6772Z" fill="white"/>
<path d="M92.8031 8.81186C94.1994 11.5845 95.0635 14.9972 95.2693 18.9916C95.8369 30.0129 91.2479 42.7582 83.8691 52.8713V57.7426L107.85 43.6862V0L92.8031 8.81186Z" fill="#DCE6F4"/>
<path d="M92.8008 8.81188L106.738 16.6716L121.789 7.85974L107.852 0L92.8008 8.81188Z" fill="#F3F7FF"/>
<path d="M83.8691 52.8817C91.2478 42.7686 95.8383 30.0233 95.2693 19.002C95.0635 15.0076 94.1994 11.595 92.8031 8.82227L106.739 16.6721C108.135 19.4448 109.001 22.8574 109.207 26.8519C109.774 37.8731 105.185 50.6184 97.8064 60.7315L83.8691 52.8817Z" fill="url(#paint3_linear_1281_2316)"/>
<path d="M97.049 24.3204V24.248C97.049 23.7826 97.0305 23.3186 97.0064 22.8588C96.1252 5.74733 83.1529 -0.728906 68.0308 8.38522C52.9087 17.4993 41.3653 38.7699 42.2465 55.88V89.9781L97.0504 57.9801V25.1079C97.0518 24.8454 97.0518 24.5843 97.049 24.3204ZM68.8113 23.5201C76.549 18.8531 83.1884 22.1678 83.6396 30.9229C84.0909 39.678 78.1836 50.5602 70.4431 55.2272C62.7025 59.8943 56.0674 56.5795 55.6161 47.8244C55.1649 39.0693 61.0693 28.1899 68.8084 23.5229L68.8113 23.5201Z" fill="url(#paint4_linear_1281_2316)"/>
<path d="M74.0112 27.9529C81.7489 23.2859 88.3869 26.6006 88.8382 35.3571C89.2894 44.1137 83.3822 54.9944 75.6416 59.6615C67.9011 64.3285 61.2645 61.0137 60.8133 52.2572C60.362 43.5007 66.2721 32.6199 74.0112 27.9529Z" stroke="#4A63CE" stroke-width="12" stroke-miterlimit="10"/>
<path d="M108.822 30.582V56.6587L54.0176 88.6553V62.2211L81.9616 68.0574L108.822 30.582Z" fill="#DCE6F4"/>
<path d="M54.0174 96.3194V62.2213C53.1362 45.1112 64.6796 23.8463 79.8017 14.7265C87.6402 9.99845 94.9025 9.46208 100.201 12.4263L88.1396 5.93733L88.4888 6.07923C83.1903 3.11498 75.9279 3.65135 68.0894 8.3794C52.9673 17.4992 41.4239 38.7641 42.3051 55.8742V89.9723L54.0174 96.3194Z" fill="url(#paint5_linear_1281_2316)"/>
<path d="M53.9697 96.0127L47.3984 99.6836V57.9698L53.9697 54.3145V96.0127Z" fill="#DCE6F4"/>
<path d="M33.7578 91.8056L47.3985 99.6824V57.9686L33.7578 50.1074V91.8056Z" fill="url(#paint6_linear_1281_2316)"/>
<path d="M53.9698 54.3148L40.3291 46.4551L33.7578 50.109L47.3985 57.9701L53.9698 54.3148Z" fill="#F3F7FF"/>
<path d="M53.9698 54.3148L40.3291 46.4551L33.7578 50.109L47.3985 57.9701L53.9698 54.3148Z" fill="#F3F7FF"/>
<path opacity="0.6" d="M33.7578 54.8613L47.3985 63.1028L53.9698 59.5014" stroke="#7D83AF" stroke-width="0.75" stroke-miterlimit="10"/>
<path d="M56.6577 90.0686L53.9688 93.3166V54.3145L56.6577 90.0686Z" fill="url(#paint7_linear_1281_2316)"/>
<path d="M56.6583 90.0688L107.852 60.4873L100.455 62.7264L68.091 74.8956L54.0176 55.0781L56.6583 90.0688Z" fill="#DCE6F4"/>
<path d="M108.778 29.1945C107.897 12.0844 94.9244 5.60675 79.8023 14.7209C64.6802 23.835 53.1368 45.1055 54.018 62.2156C54.8992 79.3257 67.8729 85.8048 82.9936 76.6892C98.1143 67.5737 109.659 46.3046 108.778 29.1945ZM82.2117 61.5615C74.474 66.2285 67.8346 62.9138 67.3848 54.1586C66.935 45.4035 72.8408 34.5213 80.5813 29.8543C88.3219 25.1873 94.9584 28.502 95.4096 37.2571C95.8609 46.0122 89.9523 56.8944 82.2117 61.5615Z" fill="#DCE6F4" stroke="#627BFD" stroke-miterlimit="10"/>
<path d="M80.6161 17.5336C80.6161 17.5336 83.4313 15.8308 85.2718 16.1515V18.28C85.2718 18.28 83.972 21.9864 80.6161 23.9247C77.2602 25.8631 75.959 23.6566 75.959 23.6566V21.5281C77.7994 19.0846 80.6161 17.5336 80.6161 17.5336Z" fill="#4D4F80"/>
<path d="M64.778 36.183L66.722 35.0605V37.3125L68.6603 36.1858V38.4732L66.722 39.5502V41.795L64.778 42.9175V40.6726L62.834 41.795V39.5502L64.7439 38.4179L64.778 36.183Z" fill="#ADB3DB"/>
<path d="M96.5749 18.0775L98.5189 16.9551V19.207L100.457 18.0803V20.3677L98.5189 21.4447V23.6896L96.5749 24.812V22.5672L94.6309 23.6896V21.4447L96.5408 20.3138L96.5749 18.0775Z" fill="#ADB3DB"/>
<path d="M77.7793 26.5936V27.7387L84.4116 23.9174V22.707L77.7793 26.5936Z" fill="#627BFD"/>
<path d="M94.4707 96.4266V92.2207L113.223 103.178L115.314 107.52L114.514 108.255L94.4707 96.4266Z" fill="url(#paint8_linear_1281_2316)"/>
<path d="M94.4707 92.2216L113.512 81.2656L126.151 95.7251L113.223 103.179L94.4707 92.2216Z" fill="#DCE6F4"/>
<path d="M97.2988 92.2314L113.21 83.0762L123.947 95.3575L113.228 101.539L97.2988 92.2314Z" fill="url(#paint9_linear_1281_2316)"/>
<path d="M126.936 95.2714L130.381 98.5975L115.313 107.519L113.223 103.178L129.114 94.0156" fill="#DCE6F4"/>
<path d="M45.6171 81.0728L35.084 74.8945" stroke="#858EBA" stroke-width="2" stroke-miterlimit="10"/>
<path d="M45.6171 83.0806L35.084 76.9023" stroke="#858EBA" stroke-width="2" stroke-miterlimit="10"/>
<path d="M45.6171 85.1651L35.084 78.9883" stroke="#858EBA" stroke-width="2" stroke-miterlimit="10"/>
<path d="M45.6171 75.0044L35.084 68.8262" stroke="#858EBA" stroke-width="2" stroke-miterlimit="10"/>
<path d="M45.6171 77.0103L35.084 70.832" stroke="#858EBA" stroke-width="2" stroke-miterlimit="10"/>
<path d="M45.6171 79.0948L35.084 72.918" stroke="#858EBA" stroke-width="2" stroke-miterlimit="10"/>
<path d="M45.6171 87.1743L35.084 80.9961" stroke="#858EBA" stroke-width="2" stroke-miterlimit="10"/>
<path d="M45.6171 89.1529L35.084 82.9746" stroke="#858EBA" stroke-width="2" stroke-miterlimit="10"/>
<path d="M45.6171 91.1573L35.084 84.9805" stroke="#858EBA" stroke-width="2" stroke-miterlimit="10"/>
<path d="M45.6171 93.2427L35.084 87.0645" stroke="#858EBA" stroke-width="2" stroke-miterlimit="10"/>
<path d="M45.6171 95.2525L35.084 89.0742" stroke="#858EBA" stroke-width="2" stroke-miterlimit="10"/>
<path d="M79.7995 14.7266C75.9058 17.3616 72.462 20.5614 69.4183 24.0918C64.8793 29.4134 61.1895 35.404 58.4793 41.8519C58.0252 42.9227 57.6029 44.0068 57.2122 45.1041C57.0064 45.6476 56.8376 46.2053 56.6446 46.7573C56.4516 47.3093 56.2941 47.8655 56.1238 48.4232C54.8169 52.8901 54.018 57.5245 54.0081 62.227C53.783 59.8785 53.7892 57.5135 54.0266 55.1661L54.1216 54.285C54.15 53.9912 54.1926 53.6989 54.2366 53.4066C54.326 52.822 54.3983 52.2345 54.5133 51.6556C54.6282 51.0766 54.7218 50.4906 54.8595 49.9145C54.9971 49.3384 55.112 48.758 55.2696 48.189C55.5534 47.0406 55.8844 45.9054 56.2628 44.7835C56.6318 43.6596 57.039 42.5471 57.4761 41.4474C59.2406 37.0467 61.5233 32.872 64.2759 29.0115C65.6501 27.0833 67.1454 25.2444 68.7527 23.5058C69.15 23.0702 69.5715 22.6544 69.9788 22.2287C70.386 21.803 70.8301 21.4015 71.2558 20.9914C71.4673 20.7842 71.6914 20.5912 71.9114 20.394L72.5727 19.8037C72.7898 19.6036 73.0196 19.4191 73.2467 19.2361L73.9292 18.6685C75.7608 17.1771 77.7259 15.8575 79.7995 14.7266Z" fill="white"/>
<path d="M80.5801 29.8531L81.2456 29.4459C81.4712 29.3167 81.7011 29.1947 81.9295 29.0684C82.158 28.9421 82.3978 28.84 82.639 28.725C82.8803 28.6101 83.1186 28.5207 83.3585 28.4185C84.3337 28.0263 85.3567 27.7658 86.4007 27.6438C86.9261 27.5865 87.4554 27.5732 87.9829 27.604L88.3788 27.6452L88.5775 27.6665L88.7733 27.7005L89.1649 27.7701L89.5523 27.8694L89.7453 27.9205L89.9354 27.9843C90.0603 28.0283 90.188 28.0695 90.3129 28.1177C90.5603 28.218 90.8024 28.3312 91.038 28.4568C91.5127 28.7053 91.9578 29.0066 92.3647 29.3551L92.6641 29.6232C92.7649 29.7112 92.8514 29.8134 92.9479 29.907C93.1334 30.0996 93.3087 30.3019 93.473 30.5129C93.5595 30.6151 93.6305 30.7286 93.7099 30.8365C93.7894 30.9443 93.8689 31.0522 93.9341 31.1685C94.076 31.397 94.2179 31.6212 94.3314 31.8624C94.8171 32.8094 95.1718 33.8181 95.3858 34.8607C95.5988 35.8974 95.7086 36.9526 95.7135 38.0109C95.7224 39.0645 95.6536 40.1174 95.5078 41.161C95.2057 43.2416 94.6633 45.2801 93.8915 47.2357C93.1281 49.1885 92.1738 51.0612 91.0423 52.8264C89.9155 54.5907 88.6092 56.2336 87.1443 57.729C86.4064 58.4678 85.626 59.1629 84.8072 59.8107C84.4 60.1357 83.9757 60.4407 83.5472 60.7359C83.3286 60.8778 83.113 61.0196 82.8916 61.1615L82.2204 61.5603C83.9574 60.4232 85.5441 59.0716 86.9428 57.5375C87.6461 56.778 88.3092 55.9823 88.9294 55.1536C89.5466 54.3249 90.1369 53.4764 90.6705 52.5923C91.204 51.7083 91.7049 50.8044 92.1646 49.8806C92.6244 48.9569 93.0302 48.0076 93.3949 47.0427C94.1403 45.122 94.664 43.1224 94.9558 41.0829C95.2396 39.0524 95.2694 36.9679 94.8707 34.9686C94.6788 33.9696 94.3528 33.0011 93.9015 32.0894C93.4532 31.1815 92.8375 30.3665 92.0866 29.6871C91.71 29.351 91.2968 29.0583 90.8549 28.8144C90.6346 28.691 90.4083 28.5788 90.1767 28.4781C90.0589 28.4313 89.9397 28.3902 89.8219 28.3448L89.6431 28.2766L89.4615 28.2241L89.0954 28.1191L88.7222 28.0411L88.5363 28.0028L88.3476 27.9772L87.9687 27.9261C87.4589 27.8829 86.9464 27.88 86.4362 27.9177C85.4075 27.9957 84.3939 28.211 83.4223 28.5576C83.1811 28.6484 82.937 28.735 82.6972 28.8315C82.4574 28.928 82.219 29.0344 81.9877 29.1422C81.7564 29.2501 81.518 29.365 81.2867 29.4828L80.5801 29.8531Z" fill="white"/>
<path opacity="0.3" d="M113.227 101.539L119.199 105.218L129.047 99.3874L122.769 95.7832L113.227 101.539Z" fill="#4D4F80"/>
<path style="mix-blend-mode:multiply" opacity="0.37" d="M139.515 104.863L121.956 115.001L59.0312 91.952L59.9366 89.6319L60.795 87.7163L65.9005 79.9204L67.5168 79.2379L74.0895 63.3027L139.515 104.863Z" fill="url(#paint10_linear_1281_2316)"/>
<path d="M74.2344 63.6565L99.9208 48.6934L181.236 95.7397L155.355 110.491L74.2344 63.6565Z" fill="#F3F7FF"/>
<path d="M81.8858 62.0639L96.9356 53.296C97.8437 52.7672 98.8755 52.4878 99.9264 52.4863C100.977 52.4848 102.01 52.7612 102.919 53.2875L173.515 94.1329C173.793 94.2937 174.023 94.5249 174.183 94.8032C174.343 95.0815 174.427 95.397 174.426 95.7179C174.425 96.0389 174.339 96.3539 174.178 96.6312C174.016 96.9084 173.784 97.1382 173.505 97.2972L158.332 105.945C157.428 106.46 156.405 106.729 155.365 106.727C154.325 106.724 153.303 106.449 152.402 105.929L81.8915 65.2197C81.615 65.0597 81.3852 64.83 81.2254 64.5533C81.0655 64.2767 80.981 63.963 80.9805 63.6435C80.9799 63.324 81.0632 63.0099 81.2221 62.7327C81.381 62.4555 81.6099 62.2249 81.8858 62.0639Z" fill="#627BFD" stroke="#627BFD" stroke-miterlimit="10"/>
<path d="M82.5936 60.9297L97.6433 52.1632C98.5514 51.6343 99.5833 51.355 100.634 51.3535C101.685 51.352 102.718 51.6284 103.627 52.1547L174.223 92.9987C174.501 93.1593 174.731 93.3903 174.891 93.6685C175.051 93.9467 175.135 94.2621 175.134 94.583C175.133 94.9039 175.047 95.2188 174.885 95.496C174.724 95.7731 174.492 96.0028 174.213 96.1616L159.04 104.81C158.136 105.325 157.113 105.595 156.073 105.592C155.032 105.589 154.011 105.313 153.11 104.793L82.5993 64.0841C82.3231 63.924 82.0937 63.6943 81.934 63.4178C81.7743 63.1413 81.69 62.8278 81.6895 62.5085C81.6889 62.1892 81.7721 61.8754 81.9307 61.5984C82.0894 61.3213 82.318 61.0908 82.5936 60.9297Z" fill="#8FA4F7"/>
<path d="M155.354 110.492V114.493C155.354 114.493 161.205 116.054 169.969 110.492C178.733 104.93 181.23 99.8879 181.23 99.8879L181.161 95.7402L155.354 110.492Z" fill="#DCE6F4"/>
<path d="M155.353 114.491L73.9336 67.7401V63.6562L155.353 110.491V114.491Z" fill="url(#paint11_linear_1281_2316)"/>
<path d="M155.354 114.492C155.325 113.159 155.31 111.825 155.289 110.491V110.451L155.322 110.431L158.53 108.555L160.135 107.619L161.745 106.692L164.967 104.838L166.577 103.911L168.193 102.994C170.349 101.776 172.497 100.541 174.664 99.3377C176.831 98.1344 178.99 96.9254 181.166 95.7363C179.04 97.0106 176.906 98.2687 174.763 99.5108C172.626 100.767 170.474 101.991 168.328 103.23L166.718 104.158L165.101 105.075L161.87 106.909L160.254 107.826L158.632 108.733L155.387 110.545L155.421 110.488C155.398 111.825 155.386 113.159 155.354 114.492Z" fill="#858EBA"/>
<path style="mix-blend-mode:multiply" opacity="0.6" d="M98.5743 67.2451L82.5938 60.9306L95.4327 53.4512L100.202 55.0787L98.5743 67.2451Z" fill="url(#paint12_linear_1281_2316)"/>
<path d="M87.4336 60.7308L98.574 67.2425L110.244 60.8103L98.838 54.2148L87.4336 60.7308Z" fill="#FF7F0B"/>
<path d="M87.4336 59.6209L98.574 66.1326L110.244 59.6989L98.838 53.1035L87.4336 59.6209Z" fill="#FFA766"/>
<path d="M87.4336 59.6211V60.7322L98.5741 67.2439V66.1328L87.4336 59.6211Z" fill="#FF7F0B"/>
<path d="M110.244 59.6992V60.8117L98.5742 67.244V66.1329L110.244 59.6992Z" fill="#F9923E"/>
</g>
<defs>
<linearGradient id="paint0_linear_1281_2316" x1="0" y1="80.9683" x2="86.2642" y2="80.9683" gradientUnits="userSpaceOnUse">
<stop stop-color="#627BFD" stop-opacity="0"/>
<stop offset="0.05" stop-color="#627BFD" stop-opacity="0.05"/>
<stop offset="0.52" stop-color="#627BFD" stop-opacity="0.53"/>
<stop offset="0.85" stop-color="#627BFD" stop-opacity="0.84"/>
<stop offset="1" stop-color="#627BFD" stop-opacity="0.96"/>
</linearGradient>
<linearGradient id="paint1_linear_1281_2316" x1="69.1562" y1="88.7266" x2="113.912" y2="88.7266" gradientUnits="userSpaceOnUse">
<stop stop-color="#627BFD" stop-opacity="0"/>
<stop offset="0.09" stop-color="#627BFD" stop-opacity="0.05"/>
<stop offset="0.27" stop-color="#627BFD" stop-opacity="0.19"/>
<stop offset="0.5" stop-color="#627BFD" stop-opacity="0.41"/>
<stop offset="0.79" stop-color="#627BFD" stop-opacity="0.71"/>
<stop offset="1" stop-color="#627BFD" stop-opacity="0.96"/>
</linearGradient>
<linearGradient id="paint2_linear_1281_2316" x1="90.621" y1="56.7795" x2="115.203" y2="7.94099" gradientUnits="userSpaceOnUse">
<stop offset="0.02" stop-color="#D7DDF4"/>
<stop offset="0.18" stop-color="#CDD3ED"/>
<stop offset="0.7" stop-color="#AEB4DA"/>
<stop offset="1" stop-color="#A3A9D3"/>
</linearGradient>
<linearGradient id="paint3_linear_1281_2316" x1="106322" y1="131163" x2="106322" y2="112173" gradientUnits="userSpaceOnUse">
<stop offset="0.02" stop-color="#D7DDF4"/>
<stop offset="0.18" stop-color="#CDD3ED"/>
<stop offset="0.7" stop-color="#AEB4DA"/>
<stop offset="1" stop-color="#A3A9D3"/>
</linearGradient>
<linearGradient id="paint4_linear_1281_2316" x1="208590" y1="208370" x2="229795" y2="208370" gradientUnits="userSpaceOnUse">
<stop offset="0.02" stop-color="#D7DDF4"/>
<stop offset="0.18" stop-color="#CDD3ED"/>
<stop offset="0.7" stop-color="#AEB4DA"/>
<stop offset="1" stop-color="#A3A9D3"/>
</linearGradient>
<linearGradient id="paint5_linear_1281_2316" x1="42.2568" y1="50.2834" x2="100.201" y2="50.2834" gradientUnits="userSpaceOnUse">
<stop stop-color="#A3A9D3"/>
<stop offset="0.3" stop-color="#AEB4DA"/>
<stop offset="0.82" stop-color="#CDD3ED"/>
<stop offset="0.98" stop-color="#D7DDF4"/>
</linearGradient>
<linearGradient id="paint6_linear_1281_2316" x1="2826.69" y1="34215.7" x2="11427.4" y2="29513.8" gradientUnits="userSpaceOnUse">
<stop offset="0.02" stop-color="#D7DDF4"/>
<stop offset="0.18" stop-color="#CDD3ED"/>
<stop offset="0.7" stop-color="#AEB4DA"/>
<stop offset="1" stop-color="#A3A9D3"/>
</linearGradient>
<linearGradient id="paint7_linear_1281_2316" x1="1102.19" y1="25703.3" x2="1102.19" y2="14983.2" gradientUnits="userSpaceOnUse">
<stop offset="0.02" stop-color="#D7DDF4"/>
<stop offset="0.18" stop-color="#CDD3ED"/>
<stop offset="0.7" stop-color="#AEB4DA"/>
<stop offset="1" stop-color="#A3A9D3"/>
</linearGradient>
<linearGradient id="paint8_linear_1281_2316" x1="88550.3" y1="45975.3" x2="88550.3" y2="44163.4" gradientUnits="userSpaceOnUse">
<stop offset="0.02" stop-color="#D7DDF4"/>
<stop offset="0.18" stop-color="#CDD3ED"/>
<stop offset="0.7" stop-color="#AEB4DA"/>
<stop offset="1" stop-color="#A3A9D3"/>
</linearGradient>
<linearGradient id="paint9_linear_1281_2316" x1="20872.2" y1="13294.2" x2="20872.2" y2="10892.1" gradientUnits="userSpaceOnUse">
<stop offset="0.02" stop-color="#D7DDF4"/>
<stop offset="0.18" stop-color="#CDD3ED"/>
<stop offset="0.7" stop-color="#AEB4DA"/>
<stop offset="1" stop-color="#A3A9D3"/>
</linearGradient>
<linearGradient id="paint10_linear_1281_2316" x1="56365.1" y1="41961.3" x2="56365.1" y2="23126.2" gradientUnits="userSpaceOnUse">
<stop stop-color="#627BFD" stop-opacity="0"/>
<stop offset="0.09" stop-color="#627BFD" stop-opacity="0.05"/>
<stop offset="0.27" stop-color="#627BFD" stop-opacity="0.19"/>
<stop offset="0.5" stop-color="#627BFD" stop-opacity="0.41"/>
<stop offset="0.79" stop-color="#627BFD" stop-opacity="0.71"/>
<stop offset="1" stop-color="#627BFD" stop-opacity="0.96"/>
</linearGradient>
<linearGradient id="paint11_linear_1281_2316" x1="42496.9" y1="31974.3" x2="89214.8" y2="31974.3" gradientUnits="userSpaceOnUse">
<stop stop-color="#A3A9D3"/>
<stop offset="0.3" stop-color="#AEB4DA"/>
<stop offset="0.82" stop-color="#CDD3ED"/>
<stop offset="0.98" stop-color="#D7DDF4"/>
</linearGradient>
<linearGradient id="paint12_linear_1281_2316" x1="10331.6" y1="5919.87" x2="12516.6" y2="5919.87" gradientUnits="userSpaceOnUse">
<stop stop-color="#627BFD" stop-opacity="0"/>
<stop offset="0.05" stop-color="#627BFD" stop-opacity="0.05"/>
<stop offset="0.52" stop-color="#627BFD" stop-opacity="0.53"/>
<stop offset="0.85" stop-color="#627BFD" stop-opacity="0.84"/>
<stop offset="1" stop-color="#627BFD" stop-opacity="0.96"/>
</linearGradient>
<clipPath id="clip0_1281_2316">
<rect width="181.235" height="115" fill="white"/>
</clipPath>
</defs>
</svg>
