<svg width="124" height="145" viewBox="0 0 124 145" fill="none" xmlns="http://www.w3.org/2000/svg">
<g clip-path="url(#clip0_29_1360)">
<path d="M0.5625 109.001L28.5032 125.133L119.312 72.7046L91.3714 56.5723L0.5625 109.001ZM75.621 73.6956C75.621 69.3043 81.22 65.737 88.1276 65.737C95.0352 65.737 100.634 69.2999 100.634 73.6956C100.634 78.0914 95.0337 81.6543 88.1276 81.6543C81.2215 81.6543 75.621 78.0914 75.621 73.6956ZM48.1019 90.9683C48.1019 86.5769 53.7023 83.0097 60.6084 83.0097C67.5146 83.0097 73.115 86.5726 73.115 90.9683C73.115 95.3641 67.516 98.9269 60.6084 98.9269C53.7008 98.9269 48.096 95.3582 48.096 90.9625L48.1019 90.9683ZM19.2916 105.955C19.2916 101.563 24.8906 97.9945 31.7982 97.9945C38.7058 97.9945 44.3048 101.559 44.3048 105.955C44.3048 110.35 38.7058 113.913 31.7982 113.913C24.8906 113.913 19.2858 110.343 19.2858 105.949L19.2916 105.955Z" fill="#7D83AF"/>
<path d="M0.5625 106.792L28.5032 122.923L119.312 70.4903L91.3714 54.3594L0.5625 106.792ZM75.621 71.4871C75.621 67.0958 81.22 63.5285 88.1276 63.5285C95.0352 63.5285 100.634 67.0914 100.634 71.4871C100.634 75.8829 95.0337 79.4457 88.1276 79.4457C81.2215 79.4457 75.621 75.877 75.621 71.4813V71.4871ZM48.1019 88.7598C48.1019 84.3684 53.7023 80.7997 60.6084 80.7997C67.5146 80.7997 73.115 84.3641 73.115 88.7598C73.115 93.1555 67.516 96.7184 60.6084 96.7184C53.7008 96.7184 48.096 93.1424 48.096 88.7481L48.1019 88.7598ZM19.2858 103.733C19.2858 99.3415 24.8848 95.7742 31.7924 95.7742C38.7 95.7742 44.299 99.3371 44.299 103.733C44.299 108.129 38.7 111.691 31.7924 111.691C24.8848 111.691 19.2858 108.129 19.2858 103.733Z" fill="#DCE6F4"/>
<path d="M30.3778 100.072H33.6641V90.8255H30.3778V100.072Z" fill="url(#paint0_linear_29_1360)"/>
<path d="M28.8652 89.1072C28.8649 89.7039 29.0416 90.2874 29.3729 90.7837C29.7042 91.28 30.1753 91.6669 30.7266 91.8954C31.2778 92.124 31.8844 92.184 32.4697 92.0677C33.055 91.9515 33.5927 91.6643 34.0148 91.2424C34.4369 90.8206 34.7244 90.283 34.8409 89.6978C34.9574 89.1125 34.8977 88.5058 34.6694 87.9545C34.4411 87.4031 34.0544 86.9319 33.5583 86.6003C33.0621 86.2688 32.4788 86.0918 31.8821 86.0918C31.0822 86.0918 30.3151 86.4094 29.7494 86.9749C29.1836 87.5403 28.8656 88.3073 28.8652 89.1072Z" fill="url(#paint1_radial_29_1360)"/>
<path style="mix-blend-mode:color-dodge" d="M32.4425 90.1721C33.4797 90.1721 34.3205 89.3313 34.3205 88.2941C34.3205 87.2568 33.4797 86.416 32.4425 86.416C31.4053 86.416 30.5645 87.2568 30.5645 88.2941C30.5645 89.3313 31.4053 90.1721 32.4425 90.1721Z" fill="url(#paint2_radial_29_1360)"/>
<path d="M31.982 92.4405C33.8219 92.4405 35.3135 90.9489 35.3135 89.1089C35.3135 87.2689 33.8219 85.7773 31.982 85.7773C30.142 85.7773 28.6504 87.2689 28.6504 89.1089C28.6504 90.9489 30.142 92.4405 31.982 92.4405Z" fill="url(#paint3_radial_29_1360)"/>
<g style="mix-blend-mode:color-dodge" opacity="0.36">
<path d="M29.7365 87.1992C29.5436 87.7703 29.5173 88.3845 29.6608 88.97C29.8042 89.5555 30.1114 90.088 30.5465 90.5052C30.9815 90.9224 31.5265 91.2071 32.1174 91.326C32.7083 91.4448 33.3209 91.3929 33.8834 91.1764C33.3417 91.6572 32.6388 91.9165 31.9146 91.9025C31.1903 91.8886 30.4978 91.6024 29.975 91.101C29.4522 90.5996 29.1375 89.9198 29.0933 89.1967C29.0491 88.4737 29.2787 87.7606 29.7365 87.1992Z" fill="white"/>
</g>
<path d="M40.6759 64.6968V135.709C40.6759 138.009 39.7625 140.214 38.1365 141.84C36.5106 143.466 34.3054 144.379 32.0059 144.379C29.7065 144.379 27.5013 143.466 25.8753 141.84C24.2494 140.214 23.3359 138.009 23.3359 135.709V64.6968C23.3359 64.6968 29.134 62.6621 32.7686 62.6621C36.4031 62.6621 40.6759 64.6968 40.6759 64.6968Z" fill="url(#paint4_linear_29_1360)" fill-opacity="0.3" stroke="#525799" stroke-width="2.76" stroke-miterlimit="10"/>
<path style="mix-blend-mode:multiply" opacity="0.75" d="M33.3785 82.2718C36.7291 83.0856 40.2086 84.6987 41.7221 87.7961C42.3428 84.0722 40.393 80.1507 41.5377 76.5527C37.039 78.2393 32.1741 78.7055 27.4371 77.9038C26.1196 77.6798 24.9413 77.2598 23.7088 76.7914C20.3508 80.9441 31.5356 81.8238 33.3785 82.2718Z" fill="url(#paint5_linear_29_1360)"/>
<path d="M32.007 142.294C32.872 142.294 33.7285 142.123 34.5277 141.792C35.3269 141.461 36.053 140.976 36.6647 140.364C37.2764 139.753 37.7615 139.027 38.0925 138.227C38.4236 137.428 38.594 136.572 38.594 135.707V102.771H25.4199V135.707C25.4199 136.572 25.5903 137.428 25.9213 138.227C26.2523 139.027 26.7376 139.753 27.3492 140.364C27.9609 140.976 28.687 141.461 29.4862 141.792C30.2854 142.123 31.1419 142.294 32.007 142.294Z" fill="url(#paint6_radial_29_1360)"/>
<path d="M32.0055 107.85C35.6426 107.85 38.5911 105.974 38.5911 103.66C38.5911 101.345 35.6426 99.4688 32.0055 99.4688C28.3684 99.4688 25.4199 101.345 25.4199 103.66C25.4199 105.974 28.3684 107.85 32.0055 107.85Z" fill="#FF7F0B" stroke="#E06B0B" stroke-width="1.46" stroke-miterlimit="10"/>
<path d="M32.0066 63.9453C27.0077 63.9453 23.3234 66.5245 23.3234 69.7053C23.3234 72.8861 27.0077 75.4668 32.0066 75.4668C37.0054 75.4668 40.6897 72.8876 40.6897 69.7053C40.6897 66.523 37.0069 63.9453 32.0066 63.9453C37.4943 63.9453 42.8298 65.6623 44.5132 68.7919V71.9039C44.5132 76.2952 38.9142 79.8625 32.0066 79.8625C25.099 79.8625 19.5 76.2996 19.5 71.9039V69.0832C21.1863 65.9521 26.5203 63.9453 32.0066 63.9453Z" fill="#9FB1FF"/>
<path d="M20.9549 81.6328H32.9258V71.3102H20.9549V81.6328Z" fill="url(#paint7_linear_29_1360)"/>
<path style="mix-blend-mode:multiply" opacity="0.56" d="M39.1315 80.0352H43.2988V71.4091H39.1315V80.0352Z" fill="url(#paint8_linear_29_1360)"/>
<path d="M32.0066 63.9453C27.0077 63.9453 23.3234 66.5245 23.3234 69.7053C23.3234 72.8861 27.0077 75.4668 32.0066 75.4668C37.0054 75.4668 40.6897 72.8876 40.6897 69.7053C40.6897 66.523 37.0069 63.9453 32.0066 63.9453ZM32.0066 63.9453C37.4943 63.9453 42.8298 65.6623 44.5132 68.7919V71.9039C44.5132 76.2952 38.9142 79.8625 32.0066 79.8625C25.099 79.8625 19.5 76.2996 19.5 71.9039V69.0832C21.1863 65.9521 26.5203 63.9453 32.0066 63.9453Z" stroke="#525799" stroke-width="1.36" stroke-miterlimit="10"/>
<path d="M19.5 69.7047C19.5 74.096 25.1004 77.6633 32.0066 77.6633C38.9127 77.6633 44.5132 74.1004 44.5132 69.7047C44.5132 65.3089 38.9142 61.7461 32.0066 61.7461C25.099 61.7461 19.5 65.3089 19.5 69.7047ZM23.3234 69.7047C23.3234 66.5239 27.0077 63.9447 32.0066 63.9447C37.0054 63.9447 40.6897 66.5239 40.6897 69.7047C40.6897 72.8855 37.0069 75.4661 32.0066 75.4661C27.0063 75.4661 23.3234 72.8869 23.3234 69.7047Z" fill="#9FB1FF" stroke="#525799" stroke-width="1.36" stroke-miterlimit="10"/>
<path opacity="0.6" d="M19.5 69.7047C19.5 74.096 25.1004 77.6633 32.0066 77.6633C38.9127 77.6633 44.5132 74.1004 44.5132 69.7047C44.5132 65.3089 38.9142 61.7461 32.0066 61.7461C25.099 61.7461 19.5 65.3089 19.5 69.7047ZM23.3234 69.7047C23.3234 66.5239 27.0077 63.9447 32.0066 63.9447C37.0054 63.9447 40.6897 66.5239 40.6897 69.7047C40.6897 72.8855 37.0069 75.4661 32.0066 75.4661C27.0063 75.4661 23.3234 72.8869 23.3234 69.7047Z" fill="url(#paint9_linear_29_1360)"/>
<path d="M28.1845 136.689H30.127L30.127 82.2893H28.1845L28.1845 136.689Z" fill="url(#paint10_linear_29_1360)"/>
<path style="mix-blend-mode:multiply" opacity="0.56" d="M36.3895 135.375H39.5645L39.5645 80.9748H36.3895L36.3895 135.375Z" fill="url(#paint11_linear_29_1360)"/>
<path opacity="0.5" d="M23.4096 133.088H27.3574L27.3574 78.6878H23.4096L23.4096 133.088Z" fill="url(#paint12_linear_29_1360)"/>
<path d="M33.8985 113.78C34.192 113.78 34.4299 113.542 34.4299 113.248C34.4299 112.955 34.192 112.717 33.8985 112.717C33.6051 112.717 33.3672 112.955 33.3672 113.248C33.3672 113.542 33.6051 113.78 33.8985 113.78Z" fill="white"/>
<path d="M32.5392 118.856C32.8326 118.856 33.0705 118.618 33.0705 118.324C33.0705 118.031 32.8326 117.793 32.5392 117.793C32.2457 117.793 32.0078 118.031 32.0078 118.324C32.0078 118.618 32.2457 118.856 32.5392 118.856Z" fill="white"/>
<path d="M33.9337 124.502C34.2272 124.502 34.465 124.264 34.465 123.971C34.465 123.677 34.2272 123.439 33.9337 123.439C33.6402 123.439 33.4023 123.677 33.4023 123.971C33.4023 124.264 33.6402 124.502 33.9337 124.502Z" fill="white"/>
<path d="M31.5001 131.723C31.7936 131.723 32.0315 131.485 32.0315 131.192C32.0315 130.898 31.7936 130.66 31.5001 130.66C31.2066 130.66 30.9688 130.898 30.9688 131.192C30.9688 131.485 31.2066 131.723 31.5001 131.723Z" fill="white"/>
<path d="M32.0052 77.6617C30.6422 77.7418 29.2745 77.6498 27.9344 77.388C27.2616 77.2581 26.598 77.084 25.9481 76.8669C25.295 76.6477 24.659 76.3805 24.0452 76.0677C22.8288 75.4324 21.6826 74.6039 20.8248 73.5178C20.391 72.9777 20.0452 72.3726 19.8002 71.7246C19.5669 71.0774 19.4644 70.3903 19.4986 69.7031C19.5463 70.3751 19.7097 71.0337 19.9817 71.65C20.2612 72.2551 20.6259 72.817 21.0648 73.3187C21.5017 73.8192 21.9926 74.2699 22.5286 74.6624C23.065 75.0593 23.6335 75.4108 24.2281 75.7134C25.424 76.3209 26.6891 76.781 27.9959 77.0835C29.3129 77.3929 30.6545 77.5863 32.0052 77.6617Z" fill="white"/>
<path d="M90.3267 44.543H93.7988V31.7832H90.3267V44.543Z" fill="url(#paint13_linear_29_1360)"/>
<path d="M97.1452 32.3311V103.342C97.1452 105.642 96.2317 107.847 94.6058 109.473C92.9799 111.099 90.7746 112.012 88.4752 112.012C87.3367 112.012 86.2093 111.788 85.1575 111.352C84.1057 110.917 83.1501 110.278 82.3451 109.473C81.5401 108.668 80.9016 107.712 80.4661 106.66C80.0305 105.608 79.8064 104.481 79.8066 103.342V32.3311C79.8066 32.3311 85.6033 30.2949 89.2378 30.2949C92.8724 30.2949 97.1452 32.3311 97.1452 32.3311Z" fill="url(#paint14_linear_29_1360)" fill-opacity="0.3" stroke="#525799" stroke-width="2.76" stroke-miterlimit="10"/>
<path style="mix-blend-mode:multiply" opacity="0.75" d="M89.8475 49.9031C93.1981 50.7184 96.6775 52.3315 98.191 55.4289C98.8117 51.705 96.8619 47.7835 98.0066 44.1855C93.5077 45.8715 88.6431 46.3376 83.906 45.5366C82.5886 45.3127 81.4175 44.8911 80.1777 44.4227C76.8256 48.5754 88.006 49.4552 89.8475 49.9031Z" fill="url(#paint15_linear_29_1360)"/>
<path d="M88.4738 109.926C90.2207 109.926 91.8962 109.233 93.1315 107.997C94.3668 106.762 95.0608 105.086 95.0608 103.339V70.4043H81.8867V103.339C81.8867 105.086 82.5807 106.762 83.816 107.997C85.0513 109.233 86.7268 109.926 88.4738 109.926Z" fill="url(#paint16_radial_29_1360)"/>
<path d="M88.4762 75.4851C92.1133 75.4851 95.0618 73.6089 95.0618 71.2943C95.0618 68.9798 92.1133 67.1035 88.4762 67.1035C84.8391 67.1035 81.8906 68.9798 81.8906 71.2943C81.8906 73.6089 84.8391 75.4851 88.4762 75.4851Z" fill="#627BFD" stroke="#4B5FB2" stroke-width="1.46" stroke-miterlimit="10"/>
<path d="M88.4753 31.5781C83.4765 31.5781 79.7921 34.1573 79.7921 37.3396C79.7921 40.5219 83.4765 43.0996 88.4753 43.0996C93.4742 43.0996 97.1585 40.5204 97.1585 37.3396C97.1585 34.1588 93.4756 31.5781 88.4753 31.5781C93.9645 31.5781 99.2985 33.2966 100.982 36.4247V39.5382C100.982 43.9296 95.3829 47.4968 88.4753 47.4968C81.5677 47.4968 75.9688 43.9325 75.9688 39.5382V36.716C77.655 33.5879 82.9891 31.5781 88.4753 31.5781Z" fill="#9FB1FF"/>
<path d="M77.4256 49.2676H89.3965V38.945H77.4256V49.2676Z" fill="url(#paint17_linear_29_1360)"/>
<path style="mix-blend-mode:multiply" opacity="0.56" d="M95.6002 47.6699H99.7676V39.0438H95.6002V47.6699Z" fill="url(#paint18_linear_29_1360)"/>
<path d="M88.4753 31.5781C83.4765 31.5781 79.7921 34.1573 79.7921 37.3396C79.7921 40.5219 83.4765 43.0996 88.4753 43.0996C93.4742 43.0996 97.1585 40.5204 97.1585 37.3396C97.1585 34.1588 93.4756 31.5781 88.4753 31.5781ZM88.4753 31.5781C93.9645 31.5781 99.2986 33.2966 100.982 36.4247V39.5382C100.982 43.9296 95.3829 47.4968 88.4753 47.4968C81.5677 47.4968 75.9688 43.9325 75.9688 39.5382V36.716C77.655 33.5879 82.9891 31.5781 88.4753 31.5781Z" stroke="#525799" stroke-width="1.36" stroke-miterlimit="10"/>
<path d="M75.9746 37.3395C75.9746 41.7308 81.575 45.2981 88.4812 45.2981C95.3873 45.2981 100.988 41.7352 100.988 37.3395C100.988 32.9437 95.3888 29.3809 88.4812 29.3809C81.5736 29.3809 75.9746 32.9437 75.9746 37.3395ZM79.798 37.3395C79.798 34.1572 83.4824 31.578 88.4812 31.578C93.48 31.578 97.1643 34.1572 97.1643 37.3395C97.1643 40.5217 93.4815 43.0995 88.4812 43.0995C83.4809 43.0995 79.7907 40.5203 79.7907 37.3395H79.798Z" fill="#9FB1FF" stroke="#525799" stroke-width="1.36" stroke-miterlimit="10"/>
<path opacity="0.6" d="M75.9746 37.3395C75.9746 41.7308 81.575 45.2981 88.4812 45.2981C95.3873 45.2981 100.988 41.7352 100.988 37.3395C100.988 32.9437 95.3888 29.3809 88.4812 29.3809C81.5736 29.3809 75.9746 32.9437 75.9746 37.3395ZM79.798 37.3395C79.798 34.1572 83.4824 31.578 88.4812 31.578C93.48 31.578 97.1643 34.1572 97.1643 37.3395C97.1643 40.5217 93.4815 43.0995 88.4812 43.0995C83.4809 43.0995 79.7907 40.5203 79.7907 37.3395H79.798Z" fill="url(#paint19_linear_29_1360)"/>
<path d="M84.6533 104.324H86.5957V49.9241H84.6533V104.324Z" fill="url(#paint20_linear_29_1360)"/>
<path style="mix-blend-mode:multiply" opacity="0.56" d="M92.8563 103.01H96.0312V48.6097H92.8563V103.01Z" fill="url(#paint21_linear_29_1360)"/>
<path opacity="0.5" d="M79.8783 100.723H83.8262V46.3225H79.8783V100.723Z" fill="url(#paint22_linear_29_1360)"/>
<path d="M90.3673 81.4123C90.6608 81.4123 90.8987 81.1744 90.8987 80.881C90.8987 80.5875 90.6608 80.3496 90.3673 80.3496C90.0738 80.3496 89.8359 80.5875 89.8359 80.881C89.8359 81.1744 90.0738 81.4123 90.3673 81.4123Z" fill="white"/>
<path d="M89.0079 86.4885C89.3014 86.4885 89.5393 86.2506 89.5393 85.9571C89.5393 85.6637 89.3014 85.4258 89.0079 85.4258C88.7144 85.4258 88.4766 85.6637 88.4766 85.9571C88.4766 86.2506 88.7144 86.4885 89.0079 86.4885Z" fill="white"/>
<path d="M90.4025 92.135C90.6959 92.135 90.9338 91.8971 90.9338 91.6036C90.9338 91.3102 90.6959 91.0723 90.4025 91.0723C90.109 91.0723 89.8711 91.3102 89.8711 91.6036C89.8711 91.8971 90.109 92.135 90.4025 92.135Z" fill="white"/>
<path d="M87.9689 99.3557C88.2623 99.3557 88.5002 99.1178 88.5002 98.8243C88.5002 98.5309 88.2623 98.293 87.9689 98.293C87.6754 98.293 87.4375 98.5309 87.4375 98.8243C87.4375 99.1178 87.6754 99.3557 87.9689 99.3557Z" fill="white"/>
<path d="M88.5731 45.2613C87.21 45.3401 85.8424 45.2477 84.5023 44.9861C83.8292 44.8559 83.1652 44.6823 82.5145 44.4665C81.8616 44.2459 81.2257 43.9783 80.6115 43.6658C79.3951 43.0305 78.2475 42.202 77.3912 41.1159C76.9568 40.5762 76.611 39.971 76.3666 39.3228C76.1334 38.676 76.0309 37.9894 76.065 37.3027C76.1121 37.9747 76.2756 38.6335 76.5481 39.2496C76.8262 39.8547 77.1906 40.4162 77.6298 40.9168C78.0663 41.4177 78.5573 41.8683 79.0936 42.2606C79.629 42.6587 80.1976 43.0104 80.7931 43.3116C81.9888 43.9197 83.254 44.3803 84.5608 44.6831C85.8791 44.9912 87.2215 45.1846 88.5731 45.2613Z" fill="white"/>
<path d="M59.2041 84.4258H62.4902V75.1791H59.2041V84.4258Z" fill="url(#paint23_linear_29_1360)"/>
<path d="M57.6934 73.4602C57.6934 74.057 57.8703 74.6403 58.2019 75.1365C58.5335 75.6326 59.0047 76.0193 59.556 76.2476C60.1074 76.4759 60.714 76.5355 61.2993 76.419C61.8845 76.3025 62.4221 76.015 62.844 75.593C63.2658 75.1709 63.553 74.6332 63.6693 74.0479C63.7855 73.4626 63.7255 72.856 63.497 72.3047C63.2684 71.7535 62.8815 71.2824 62.3852 70.9511C61.8889 70.6198 61.3055 70.4431 60.7088 70.4434C60.3127 70.4434 59.9204 70.5214 59.5545 70.673C59.1885 70.8247 58.856 71.0469 58.576 71.3271C58.296 71.6072 58.0739 71.9398 57.9224 72.3058C57.771 72.6718 57.6932 73.0641 57.6934 73.4602Z" fill="url(#paint24_radial_29_1360)"/>
<path style="mix-blend-mode:color-dodge" d="M61.2687 74.5236C62.3059 74.5236 63.1467 73.6828 63.1467 72.6456C63.1467 71.6084 62.3059 70.7676 61.2687 70.7676C60.2314 70.7676 59.3906 71.6084 59.3906 72.6456C59.3906 73.6828 60.2314 74.5236 61.2687 74.5236Z" fill="url(#paint25_radial_29_1360)"/>
<path d="M60.8081 76.7921C62.6481 76.7921 64.1397 75.3005 64.1397 73.4605C64.1397 71.6205 62.6481 70.1289 60.8081 70.1289C58.9682 70.1289 57.4766 71.6205 57.4766 73.4605C57.4766 75.3005 58.9682 76.7921 60.8081 76.7921Z" fill="url(#paint26_radial_29_1360)"/>
<g style="mix-blend-mode:color-dodge" opacity="0.36">
<path d="M58.5647 71.5508C58.4533 71.8769 58.3964 72.2191 58.3963 72.5637C58.3951 73.0795 58.5197 73.5878 58.7594 74.0445C58.9991 74.5012 59.3466 74.8926 59.7717 75.1846C60.1969 75.4766 60.6868 75.6605 61.1991 75.7203C61.7114 75.7802 62.2306 75.7141 62.7116 75.5279C62.1699 76.0088 61.4669 76.268 60.7427 76.2541C60.0185 76.2401 59.326 75.954 58.8032 75.4526C58.2804 74.9512 57.9656 74.2713 57.9214 73.5483C57.8772 72.8253 58.1068 72.1121 58.5647 71.5508Z" fill="white"/>
</g>
<path d="M69.5041 49.0483V120.061C69.5041 122.36 68.5906 124.566 66.9647 126.192C65.3387 127.818 63.1335 128.731 60.8341 128.731C58.5346 128.731 56.3294 127.818 54.7035 126.192C53.0775 124.566 52.1641 122.36 52.1641 120.061V49.0483C52.1641 49.0483 57.9606 47.0137 61.5967 47.0137C65.2327 47.0137 69.5041 49.0483 69.5041 49.0483Z" fill="url(#paint27_linear_29_1360)" fill-opacity="0.3" stroke="#525799" stroke-width="2.76" stroke-miterlimit="10"/>
<path style="mix-blend-mode:multiply" opacity="0.75" d="M62.2055 66.6233C65.5561 67.4372 69.0356 69.0503 70.5491 72.1491C71.1683 68.4238 69.22 64.5023 70.3646 60.9043C65.8656 62.5916 61.0003 63.0583 56.2626 62.2568C54.9451 62.0314 53.7668 61.6113 52.5358 61.1429C49.1881 65.2956 60.3641 66.1754 62.2055 66.6233Z" fill="url(#paint28_linear_29_1360)"/>
<path d="M60.8331 126.647C62.5801 126.647 64.2556 125.953 65.4909 124.718C66.7262 123.483 67.4202 121.807 67.4202 120.06V87.125H54.2461V120.06C54.2461 121.807 54.9401 123.483 56.1754 124.718C57.4107 125.953 59.0861 126.647 60.8331 126.647Z" fill="url(#paint29_radial_29_1360)"/>
<path d="M60.8336 92.202C64.4707 92.202 67.4192 90.3257 67.4192 88.0111C67.4192 85.6966 64.4707 83.8203 60.8336 83.8203C57.1965 83.8203 54.248 85.6966 54.248 88.0111C54.248 90.3257 57.1965 92.202 60.8336 92.202Z" fill="#FF7F0B" stroke="#E06B0B" stroke-width="1.46" stroke-miterlimit="10"/>
<path d="M60.8347 48.2969C55.8344 48.2969 52.1515 50.8761 52.1515 54.0569C52.1515 57.2377 55.8344 59.8184 60.8347 59.8184C65.835 59.8184 69.5178 57.2392 69.5178 54.0569C69.5178 50.8746 65.8335 48.2969 60.8347 48.2969C66.3224 48.2969 71.6565 50.0139 73.3413 53.1435V56.2555C73.3413 60.6469 67.7423 64.2141 60.8347 64.2141C53.9271 64.2141 48.3281 60.6512 48.3281 56.2555V53.4348C50.0129 50.3067 55.3484 48.2969 60.8347 48.2969Z" fill="#9FB1FF"/>
<path d="M49.783 65.9863H61.7539V55.6637H49.783V65.9863Z" fill="url(#paint30_linear_29_1360)"/>
<path style="mix-blend-mode:multiply" opacity="0.56" d="M67.9595 64.3867H72.127V55.7606H67.9595V64.3867Z" fill="url(#paint31_linear_29_1360)"/>
<path d="M60.8347 48.2969C55.8344 48.2969 52.1515 50.8761 52.1515 54.0569C52.1515 57.2377 55.8344 59.8184 60.8347 59.8184C65.835 59.8184 69.5178 57.2392 69.5178 54.0569C69.5178 50.8746 65.8335 48.2969 60.8347 48.2969ZM60.8347 48.2969C66.3224 48.2969 71.6565 50.0139 73.3413 53.1435V56.2555C73.3413 60.6469 67.7423 64.2141 60.8347 64.2141C53.9271 64.2141 48.3281 60.6512 48.3281 56.2555V53.4348C50.0129 50.3067 55.3484 48.2969 60.8347 48.2969Z" stroke="#525799" stroke-width="1.36" stroke-miterlimit="10"/>
<path d="M48.3281 54.0582C48.3281 58.4495 53.9271 62.0183 60.8347 62.0183C67.7423 62.0183 73.3413 58.4539 73.3413 54.0582C73.3413 49.6624 67.7423 46.0996 60.8347 46.0996C53.9271 46.0996 48.3281 49.6639 48.3281 54.0582ZM52.1515 54.0582C52.1515 50.8774 55.8344 48.2982 60.8347 48.2982C65.835 48.2982 69.5178 50.8774 69.5178 54.0582C69.5178 57.239 65.8335 59.8197 60.8347 59.8197C55.8359 59.8197 52.1515 57.2405 52.1515 54.0582Z" fill="#9FB1FF" stroke="#525799" stroke-width="1.36" stroke-miterlimit="10"/>
<path opacity="0.6" d="M48.3281 54.0582C48.3281 58.4495 53.9271 62.0183 60.8347 62.0183C67.7423 62.0183 73.3413 58.4539 73.3413 54.0582C73.3413 49.6624 67.7423 46.0996 60.8347 46.0996C53.9271 46.0996 48.3281 49.6639 48.3281 54.0582ZM52.1515 54.0582C52.1515 50.8774 55.8344 48.2982 60.8347 48.2982C65.835 48.2982 69.5178 50.8774 69.5178 54.0582C69.5178 57.239 65.8335 59.8197 60.8347 59.8197C55.8359 59.8197 52.1515 57.2405 52.1515 54.0582Z" fill="url(#paint32_linear_29_1360)"/>
<path d="M57.0107 121.043H58.9531L58.9531 66.6428H57.0107L57.0107 121.043Z" fill="url(#paint33_linear_29_1360)"/>
<path style="mix-blend-mode:multiply" opacity="0.56" d="M65.2157 119.727H68.3906V65.3265H65.2157V119.727Z" fill="url(#paint34_linear_29_1360)"/>
<path opacity="0.5" d="M52.2378 117.441H56.1855L56.1855 63.0413H52.2378L52.2378 117.441Z" fill="url(#paint35_linear_29_1360)"/>
<path d="M62.7247 98.1311C63.0182 98.1311 63.2561 97.8932 63.2561 97.5997C63.2561 97.3063 63.0182 97.0684 62.7247 97.0684C62.4313 97.0684 62.1934 97.3063 62.1934 97.5997C62.1934 97.8932 62.4313 98.1311 62.7247 98.1311Z" fill="white"/>
<path d="M61.3653 103.209C61.6588 103.209 61.8967 102.971 61.8967 102.678C61.8967 102.384 61.6588 102.146 61.3653 102.146C61.0719 102.146 60.834 102.384 60.834 102.678C60.834 102.971 61.0719 103.209 61.3653 103.209Z" fill="white"/>
<path d="M62.7618 108.854C63.0553 108.854 63.2932 108.616 63.2932 108.322C63.2932 108.029 63.0553 107.791 62.7618 107.791C62.4684 107.791 62.2305 108.029 62.2305 108.322C62.2305 108.616 62.4684 108.854 62.7618 108.854Z" fill="white"/>
<path d="M60.3263 116.074C60.6197 116.074 60.8576 115.837 60.8576 115.543C60.8576 115.25 60.6197 115.012 60.3263 115.012C60.0328 115.012 59.7949 115.25 59.7949 115.543C59.7949 115.837 60.0328 116.074 60.3263 116.074Z" fill="white"/>
<path d="M59.2041 57.748H62.4902V48.5013H59.2041V57.748Z" fill="url(#paint36_linear_29_1360)"/>
<path d="M57.6934 46.7766C57.6934 47.3734 57.8703 47.9567 58.2019 48.4529C58.5335 48.949 59.0047 49.3357 59.556 49.564C60.1074 49.7923 60.714 49.8519 61.2993 49.7354C61.8845 49.6189 62.4221 49.3314 62.844 48.9094C63.2658 48.4873 63.553 47.9496 63.6693 47.3643C63.7855 46.779 63.7255 46.1724 63.497 45.6211C63.2684 45.0699 62.8815 44.5988 62.3852 44.2675C61.8889 43.9362 61.3055 43.7595 60.7088 43.7598C60.3127 43.7598 59.9204 43.8378 59.5545 43.9894C59.1885 44.1411 58.856 44.3633 58.576 44.6435C58.296 44.9237 58.0739 45.2563 57.9224 45.6223C57.771 45.9883 57.6932 46.3805 57.6934 46.7766Z" fill="url(#paint37_radial_29_1360)"/>
<path style="mix-blend-mode:color-dodge" d="M61.2687 47.8479C62.3059 47.8479 63.1467 47.007 63.1467 45.9698C63.1467 44.9326 62.3059 44.0918 61.2687 44.0918C60.2314 44.0918 59.3906 44.9326 59.3906 45.9698C59.3906 47.007 60.2314 47.8479 61.2687 47.8479Z" fill="url(#paint38_radial_29_1360)"/>
<path d="M60.8081 50.1143C62.6481 50.1143 64.1397 48.6227 64.1397 46.7827C64.1397 44.9428 62.6481 43.4512 60.8081 43.4512C58.9682 43.4512 57.4766 44.9428 57.4766 46.7827C57.4766 48.6227 58.9682 50.1143 60.8081 50.1143Z" fill="url(#paint39_radial_29_1360)"/>
<g style="mix-blend-mode:color-dodge" opacity="0.36">
<path d="M58.5647 44.873C58.4533 45.1991 58.3964 45.5414 58.3963 45.886C58.3951 46.4018 58.5197 46.9101 58.7594 47.3668C58.9991 47.8235 59.3466 48.2148 59.7717 48.5069C60.1969 48.7989 60.6868 48.9828 61.1991 49.0426C61.7114 49.1024 62.2306 49.0364 62.7116 48.8501C62.1699 49.331 61.4669 49.5903 60.7427 49.5763C60.0185 49.5624 59.326 49.2762 58.8032 48.7748C58.2804 48.2735 57.9656 47.5936 57.9214 46.8706C57.8772 46.1475 58.1068 45.4344 58.5647 44.873Z" fill="white"/>
</g>
<path d="M59.7281 33.0391H61.9414V26.8121H59.7281V33.0391Z" fill="url(#paint40_linear_29_1360)"/>
<path d="M58.709 25.6548C58.709 26.0566 58.8282 26.4494 59.0514 26.7836C59.2747 27.1177 59.592 27.3781 59.9632 27.5319C60.3345 27.6856 60.743 27.7259 61.1371 27.6475C61.5312 27.5691 61.8933 27.3756 62.1774 27.0914C62.4615 26.8073 62.6551 26.4453 62.7335 26.0512C62.8119 25.657 62.7716 25.2485 62.6178 24.8773C62.4641 24.506 62.2036 24.1887 61.8695 23.9654C61.5354 23.7422 61.1426 23.623 60.7408 23.623C60.2019 23.623 59.6851 23.8371 59.3041 24.2181C58.9231 24.5991 58.709 25.1159 58.709 25.6548Z" fill="url(#paint41_radial_29_1360)"/>
<path style="mix-blend-mode:color-dodge" d="M61.1182 26.3712C61.8167 26.3712 62.3829 25.805 62.3829 25.1065C62.3829 24.408 61.8167 23.8418 61.1182 23.8418C60.4197 23.8418 59.8535 24.408 59.8535 25.1065C59.8535 25.805 60.4197 26.3712 61.1182 26.3712Z" fill="url(#paint42_radial_29_1360)"/>
<path d="M60.8084 27.8981C62.0478 27.8981 63.0524 26.8935 63.0524 25.6541C63.0524 24.4148 62.0478 23.4102 60.8084 23.4102C59.5691 23.4102 58.5645 24.4148 58.5645 25.6541C58.5645 26.8935 59.5691 27.8981 60.8084 27.8981Z" fill="url(#paint43_radial_29_1360)"/>
<g style="mix-blend-mode:color-dodge" opacity="0.36">
<path d="M59.296 24.3691C59.1653 24.7538 59.1471 25.1678 59.2434 25.5625C59.3397 25.9572 59.5466 26.3163 59.8399 26.5975C60.1331 26.8787 60.5004 27.0704 60.8987 27.1502C61.2971 27.23 61.71 27.1945 62.0889 27.0479C61.7242 27.3725 61.2505 27.5478 60.7623 27.5387C60.2741 27.5296 59.8072 27.3368 59.4548 26.9988C59.1024 26.6609 58.8904 26.2025 58.861 25.7151C58.8315 25.2277 58.9869 24.7471 59.296 24.3691Z" fill="white"/>
</g>
<path d="M60.8707 62.0973C59.5076 62.1768 58.1399 62.0844 56.7999 61.8221C56.1267 61.692 55.4627 61.5184 54.812 61.3024C54.1594 61.082 53.5234 60.8149 52.9091 60.5032C51.6927 59.8679 50.5466 59.0394 49.6888 57.9518C49.2539 57.4125 48.908 56.8072 48.6641 56.1587C48.4312 55.5119 48.3292 54.8252 48.3641 54.1387C48.411 54.8107 48.5745 55.4695 48.8471 56.0855C49.1253 56.6906 49.4896 57.2522 49.9289 57.7527C50.3661 58.2534 50.8569 58.7045 51.3927 59.098C51.9289 59.4945 52.4974 59.8456 53.0921 60.1475C54.2884 60.7555 55.5541 61.216 56.8613 61.5191C58.1786 61.8269 59.5201 62.0204 60.8707 62.0973Z" fill="white"/>
<path d="M23.9502 109.93C26.0961 111.031 28.8231 111.687 31.7931 111.687C38.7007 111.687 44.2997 108.124 44.2997 103.728C44.2997 102.056 43.4873 100.508 42.104 99.224L51.1561 93.9544C53.4483 95.6377 56.8312 96.7034 60.6048 96.7034C67.5124 96.7034 73.1114 93.139 73.1114 88.7448C73.1114 86.5608 71.7281 84.5832 69.4915 83.1443L79.4452 77.2057C81.6951 78.5861 84.7529 79.4366 88.124 79.4366C95.0301 79.4366 100.631 75.8737 100.631 71.4779C100.631 69.5501 99.5532 67.7834 97.763 66.4059L104.245 62.584L119.308 70.4884L28.4996 122.917L14.3887 115.566L23.9502 109.93Z" fill="#DCE6F4"/>
<path style="mix-blend-mode:multiply" opacity="0.65" d="M36.0605 111.215L62.6414 107.143L73.2202 98.7422L42.3943 101.683L36.0605 111.215Z" fill="url(#paint44_linear_29_1360)"/>
<path style="mix-blend-mode:multiply" opacity="0.65" d="M66.0059 95.032L91.1083 91.6975L101.689 83.2969L72.3397 85.4999L66.0059 95.032Z" fill="url(#paint45_linear_29_1360)"/>
<path style="mix-blend-mode:multiply" opacity="0.65" d="M87.3359 79.6783L113.178 75.9734L123.756 67.5742L93.6697 70.1446L87.3359 79.6783Z" fill="url(#paint46_linear_29_1360)"/>
<path d="M28.5039 122.917V126.657L119.254 73.8769V70.4883L28.5039 122.917Z" fill="url(#paint47_linear_29_1360)"/>
<path style="mix-blend-mode:multiply" opacity="0.45" d="M28.5039 122.917V126.657L119.254 73.8769V70.4883L28.5039 122.917Z" fill="url(#paint48_linear_29_1360)"/>
<path d="M28.5032 122.916L0.5625 106.785V110.443L28.5032 126.656V122.916Z" fill="url(#paint49_linear_29_1360)"/>
<path d="M86.8739 35.1055H90.1602V25.8587H86.8739V35.1055Z" fill="url(#paint50_linear_29_1360)"/>
<path d="M85.3594 24.1385C85.3591 24.7352 85.5358 25.3186 85.8671 25.8149C86.1984 26.3112 86.6695 26.6981 87.2208 26.9267C87.772 27.1553 88.3786 27.2152 88.9639 27.099C89.5493 26.9827 90.0869 26.6955 90.509 26.2737C90.9311 25.8518 91.2185 25.3143 91.335 24.729C91.4516 24.1438 91.3919 23.5371 91.1636 22.9857C90.9353 22.4344 90.5487 21.9631 90.0525 21.6316C89.5563 21.3 88.973 21.123 88.3763 21.123C87.5764 21.123 86.8092 21.4407 86.2435 22.0061C85.6778 22.5716 85.3598 23.3386 85.3594 24.1385Z" fill="url(#paint51_radial_29_1360)"/>
<path style="mix-blend-mode:color-dodge" d="M88.9347 25.2033C89.9719 25.2033 90.8127 24.3625 90.8127 23.3253C90.8127 22.2881 89.9719 21.4473 88.9347 21.4473C87.8975 21.4473 87.0566 22.2881 87.0566 23.3253C87.0566 24.3625 87.8975 25.2033 88.9347 25.2033Z" fill="url(#paint52_radial_29_1360)"/>
<path d="M88.4761 27.4698C90.3161 27.4698 91.8077 25.9782 91.8077 24.1382C91.8077 22.2982 90.3161 20.8066 88.4761 20.8066C86.6361 20.8066 85.1445 22.2982 85.1445 24.1382C85.1445 25.9782 86.6361 27.4698 88.4761 27.4698Z" fill="url(#paint53_radial_29_1360)"/>
<g style="mix-blend-mode:color-dodge" opacity="0.36">
<path d="M86.2326 22.2285C86.0384 22.7997 86.0112 23.4144 86.1542 24.0005C86.2972 24.5866 86.6044 25.1197 87.0399 25.5373C87.4753 25.9549 88.0208 26.2396 88.6124 26.358C89.2039 26.4764 89.817 26.4235 90.3796 26.2056C89.8378 26.6865 89.1349 26.9457 88.4107 26.9318C87.6864 26.9178 86.994 26.6317 86.4712 26.1303C85.9484 25.6289 85.6336 24.949 85.5894 24.226C85.5452 23.503 85.7748 22.7899 86.2326 22.2285Z" fill="white"/>
</g>
<path d="M87.3961 9.62695H89.6094V3.40002H87.3961V9.62695Z" fill="url(#paint54_linear_29_1360)"/>
<path d="M86.377 2.24463C86.377 2.64646 86.4961 3.03928 86.7194 3.3734C86.9426 3.70751 87.2599 3.96793 87.6312 4.12171C88.0024 4.27549 88.4109 4.31571 88.8051 4.23732C89.1992 4.15892 89.5612 3.96541 89.8454 3.68127C90.1295 3.39713 90.323 3.03512 90.4014 2.641C90.4798 2.24688 90.4396 1.83837 90.2858 1.46711C90.132 1.09586 89.8716 0.778554 89.5375 0.555304C89.2033 0.332054 88.8105 0.212891 88.4087 0.212891C88.1419 0.212891 87.8777 0.265438 87.6312 0.367542C87.3847 0.469647 87.1607 0.619301 86.972 0.807965C86.7834 0.996628 86.6337 1.22061 86.5316 1.46711C86.4295 1.71362 86.377 1.97781 86.377 2.24463Z" fill="url(#paint55_radial_29_1360)"/>
<path style="mix-blend-mode:color-dodge" d="M88.7862 2.96106C89.4847 2.96106 90.0509 2.39483 90.0509 1.69635C90.0509 0.997871 89.4847 0.431641 88.7862 0.431641C88.0877 0.431641 87.5215 0.997871 87.5215 1.69635C87.5215 2.39483 88.0877 2.96106 88.7862 2.96106Z" fill="url(#paint56_radial_29_1360)"/>
<path d="M88.4764 4.48797C89.7157 4.48797 90.7204 3.4833 90.7204 2.24398C90.7204 1.00467 89.7157 0 88.4764 0C87.2371 0 86.2324 1.00467 86.2324 2.24398C86.2324 3.4833 87.2371 4.48797 88.4764 4.48797Z" fill="url(#paint57_radial_29_1360)"/>
<g style="mix-blend-mode:color-dodge" opacity="0.36">
<path d="M86.9639 0.959962C86.855 1.28174 86.8244 1.62485 86.8746 1.96083C86.9248 2.29681 87.0544 2.61597 87.2526 2.89187C87.4508 3.16776 87.7119 3.39246 88.0143 3.54728C88.3167 3.70211 88.6516 3.78262 88.9913 3.78214C89.2533 3.78126 89.5129 3.73163 89.7568 3.63577C89.3921 3.96041 88.9184 4.13566 88.4302 4.12658C87.942 4.11749 87.4752 3.92472 87.1228 3.58673C86.7704 3.24874 86.5584 2.79037 86.5289 2.30297C86.4995 1.81558 86.6548 1.33498 86.9639 0.957031V0.959962Z" fill="white"/>
</g>
<path d="M28.5032 122.917C26.1368 121.638 23.7825 120.339 21.4405 119.019C19.0984 117.698 16.7627 116.367 14.4333 115.024L10.9452 112.998C9.7873 112.316 8.62502 111.641 7.47009 110.949C5.15439 109.582 2.85186 108.193 0.5625 106.781C2.92895 108.058 5.28321 109.357 7.62526 110.679C8.79629 111.335 9.96732 111.997 11.1383 112.666L14.6354 114.674C16.9608 116.023 19.2819 117.38 21.5986 118.745C23.9152 120.11 26.2168 121.501 28.5032 122.917Z" fill="white"/>
<path opacity="0.7" d="M108.631 76.5131V79.9809L119.254 73.7656V70.377L108.631 76.5131Z" fill="url(#paint58_linear_29_1360)"/>
</g>
<defs>
<linearGradient id="paint0_linear_29_1360" x1="32.0217" y1="100.072" x2="32.0217" y2="90.8255" gradientUnits="userSpaceOnUse">
<stop stop-color="#FFBE88" stop-opacity="0"/>
<stop offset="0.09" stop-color="#FFBC85" stop-opacity="0.03"/>
<stop offset="0.22" stop-color="#FFB87B" stop-opacity="0.1"/>
<stop offset="0.37" stop-color="#FFB06C" stop-opacity="0.22"/>
<stop offset="0.53" stop-color="#FFA557" stop-opacity="0.39"/>
<stop offset="0.72" stop-color="#FF983C" stop-opacity="0.61"/>
<stop offset="0.91" stop-color="#FF871C" stop-opacity="0.87"/>
<stop offset="1" stop-color="#FF7F0B"/>
</linearGradient>
<radialGradient id="paint1_radial_29_1360" cx="0" cy="0" r="1" gradientUnits="userSpaceOnUse" gradientTransform="translate(31.392 88.7578) rotate(180) scale(3.93459)">
<stop stop-color="#2AF6FF"/>
<stop offset="1" stop-color="#138BBD"/>
</radialGradient>
<radialGradient id="paint2_radial_29_1360" cx="0" cy="0" r="1" gradientUnits="userSpaceOnUse" gradientTransform="translate(31.6246 88.2385) rotate(180) scale(2.45102)">
<stop stop-color="#F49587"/>
<stop offset="0.12" stop-color="#BD7368"/>
<stop offset="0.24" stop-color="#8B554D"/>
<stop offset="0.36" stop-color="#603B35"/>
<stop offset="0.48" stop-color="#3E2622"/>
<stop offset="0.61" stop-color="#231513"/>
<stop offset="0.74" stop-color="#0F0908"/>
<stop offset="0.86" stop-color="#040202"/>
<stop offset="1"/>
</radialGradient>
<radialGradient id="paint3_radial_29_1360" cx="0" cy="0" r="1" gradientUnits="userSpaceOnUse" gradientTransform="translate(33.1925 88.1238) rotate(180) scale(2.40207)">
<stop stop-color="#F7EAD2"/>
<stop offset="1" stop-color="#FF7F0B"/>
</radialGradient>
<linearGradient id="paint4_linear_29_1360" x1="32.0059" y1="144.379" x2="32.0059" y2="62.6621" gradientUnits="userSpaceOnUse">
<stop stop-color="#627BFD"/>
<stop offset="0.16" stop-color="#6D84FC"/>
<stop offset="0.46" stop-color="#8C9DF8"/>
<stop offset="0.84" stop-color="#BDC5F1"/>
<stop offset="0.98" stop-color="#D0D4EF"/>
</linearGradient>
<linearGradient id="paint5_linear_29_1360" x1="41.8495" y1="82.1751" x2="23.0867" y2="82.1751" gradientUnits="userSpaceOnUse">
<stop stop-color="#627BFD" stop-opacity="0"/>
<stop offset="0.05" stop-color="#627BFD" stop-opacity="0.05"/>
<stop offset="0.52" stop-color="#627BFD" stop-opacity="0.53"/>
<stop offset="0.85" stop-color="#627BFD" stop-opacity="0.84"/>
<stop offset="1" stop-color="#627BFD" stop-opacity="0.96"/>
</linearGradient>
<radialGradient id="paint6_radial_29_1360" cx="0" cy="0" r="1" gradientUnits="userSpaceOnUse" gradientTransform="translate(32.007 122.536) rotate(180) scale(14.7271)">
<stop stop-color="#FFBE88"/>
<stop offset="0.14" stop-color="#FFBB81"/>
<stop offset="0.35" stop-color="#FFB16E"/>
<stop offset="0.59" stop-color="#FFA250"/>
<stop offset="0.86" stop-color="#FF8C25"/>
<stop offset="1" stop-color="#FF7F0B"/>
</radialGradient>
<linearGradient id="paint7_linear_29_1360" x1="32.9258" y1="76.473" x2="20.9549" y2="76.473" gradientUnits="userSpaceOnUse">
<stop offset="0.02" stop-color="white" stop-opacity="0"/>
<stop offset="0.47" stop-color="white"/>
<stop offset="0.51" stop-color="white" stop-opacity="0.97"/>
<stop offset="0.58" stop-color="white" stop-opacity="0.9"/>
<stop offset="0.66" stop-color="white" stop-opacity="0.78"/>
<stop offset="0.75" stop-color="white" stop-opacity="0.61"/>
<stop offset="0.85" stop-color="white" stop-opacity="0.39"/>
<stop offset="0.95" stop-color="white" stop-opacity="0.13"/>
<stop offset="1" stop-color="white" stop-opacity="0"/>
</linearGradient>
<linearGradient id="paint8_linear_29_1360" x1="43.2988" y1="75.7214" x2="39.13" y2="75.7214" gradientUnits="userSpaceOnUse">
<stop offset="0.02" stop-color="#627BFD" stop-opacity="0"/>
<stop offset="0.47" stop-color="#627BFD"/>
<stop offset="0.51" stop-color="#627BFD" stop-opacity="0.97"/>
<stop offset="0.58" stop-color="#627BFD" stop-opacity="0.9"/>
<stop offset="0.66" stop-color="#627BFD" stop-opacity="0.78"/>
<stop offset="0.75" stop-color="#627BFD" stop-opacity="0.61"/>
<stop offset="0.85" stop-color="#627BFD" stop-opacity="0.39"/>
<stop offset="0.95" stop-color="#627BFD" stop-opacity="0.13"/>
<stop offset="1" stop-color="#627BFD" stop-opacity="0"/>
</linearGradient>
<linearGradient id="paint9_linear_29_1360" x1="-62644.7" y1="38512" x2="-66919" y2="38512" gradientUnits="userSpaceOnUse">
<stop offset="0.02" stop-color="white" stop-opacity="0"/>
<stop offset="0.47" stop-color="white"/>
<stop offset="0.51" stop-color="white" stop-opacity="0.97"/>
<stop offset="0.58" stop-color="white" stop-opacity="0.9"/>
<stop offset="0.66" stop-color="white" stop-opacity="0.78"/>
<stop offset="0.75" stop-color="white" stop-opacity="0.61"/>
<stop offset="0.85" stop-color="white" stop-opacity="0.39"/>
<stop offset="0.95" stop-color="white" stop-opacity="0.13"/>
<stop offset="1" stop-color="white" stop-opacity="0"/>
</linearGradient>
<linearGradient id="paint10_linear_29_1360" x1="-5446.9" y1="156388" x2="-5446.9" y2="136171" gradientUnits="userSpaceOnUse">
<stop offset="0.02" stop-color="white" stop-opacity="0"/>
<stop offset="0.47" stop-color="white"/>
<stop offset="0.51" stop-color="white" stop-opacity="0.97"/>
<stop offset="0.58" stop-color="white" stop-opacity="0.9"/>
<stop offset="0.66" stop-color="white" stop-opacity="0.78"/>
<stop offset="0.75" stop-color="white" stop-opacity="0.61"/>
<stop offset="0.85" stop-color="white" stop-opacity="0.39"/>
<stop offset="0.95" stop-color="white" stop-opacity="0.13"/>
<stop offset="1" stop-color="white" stop-opacity="0"/>
</linearGradient>
<linearGradient id="paint11_linear_29_1360" x1="-8460.06" y1="155898" x2="-8460.06" y2="135681" gradientUnits="userSpaceOnUse">
<stop offset="0.02" stop-color="#627BFD" stop-opacity="0"/>
<stop offset="0.47" stop-color="#627BFD"/>
<stop offset="0.51" stop-color="#627BFD" stop-opacity="0.97"/>
<stop offset="0.58" stop-color="#627BFD" stop-opacity="0.9"/>
<stop offset="0.66" stop-color="#627BFD" stop-opacity="0.78"/>
<stop offset="0.75" stop-color="#627BFD" stop-opacity="0.61"/>
<stop offset="0.85" stop-color="#627BFD" stop-opacity="0.39"/>
<stop offset="0.95" stop-color="#627BFD" stop-opacity="0.13"/>
<stop offset="1" stop-color="#627BFD" stop-opacity="0"/>
</linearGradient>
<linearGradient id="paint12_linear_29_1360" x1="-10744.6" y1="155046" x2="-10744.6" y2="134828" gradientUnits="userSpaceOnUse">
<stop offset="0.02" stop-color="white" stop-opacity="0"/>
<stop offset="0.47" stop-color="white"/>
<stop offset="0.51" stop-color="white" stop-opacity="0.97"/>
<stop offset="0.58" stop-color="white" stop-opacity="0.9"/>
<stop offset="0.66" stop-color="white" stop-opacity="0.78"/>
<stop offset="0.75" stop-color="white" stop-opacity="0.61"/>
<stop offset="0.85" stop-color="white" stop-opacity="0.39"/>
<stop offset="0.95" stop-color="white" stop-opacity="0.13"/>
<stop offset="1" stop-color="white" stop-opacity="0"/>
</linearGradient>
<linearGradient id="paint13_linear_29_1360" x1="-7983.91" y1="28661.5" x2="-7983.91" y2="27549.2" gradientUnits="userSpaceOnUse">
<stop offset="0.02" stop-color="white" stop-opacity="0"/>
<stop offset="0.47" stop-color="white"/>
<stop offset="0.51" stop-color="white" stop-opacity="0.97"/>
<stop offset="0.58" stop-color="white" stop-opacity="0.9"/>
<stop offset="0.66" stop-color="white" stop-opacity="0.78"/>
<stop offset="0.75" stop-color="white" stop-opacity="0.61"/>
<stop offset="0.85" stop-color="white" stop-opacity="0.39"/>
<stop offset="0.95" stop-color="white" stop-opacity="0.13"/>
<stop offset="1" stop-color="white" stop-opacity="0"/>
</linearGradient>
<linearGradient id="paint14_linear_29_1360" x1="38018.5" y1="221048" x2="38018.5" y2="175428" gradientUnits="userSpaceOnUse">
<stop stop-color="#627BFD"/>
<stop offset="0.16" stop-color="#6D84FC"/>
<stop offset="0.46" stop-color="#8C9DF8"/>
<stop offset="0.84" stop-color="#BDC5F1"/>
<stop offset="0.98" stop-color="#D0D4EF"/>
</linearGradient>
<linearGradient id="paint15_linear_29_1360" x1="39870.2" y1="25675.7" x2="42275.1" y2="25675.7" gradientUnits="userSpaceOnUse">
<stop stop-color="#627BFD" stop-opacity="0"/>
<stop offset="0.05" stop-color="#627BFD" stop-opacity="0.05"/>
<stop offset="0.52" stop-color="#627BFD" stop-opacity="0.53"/>
<stop offset="0.85" stop-color="#627BFD" stop-opacity="0.84"/>
<stop offset="1" stop-color="#627BFD" stop-opacity="0.96"/>
</linearGradient>
<radialGradient id="paint16_radial_29_1360" cx="0" cy="0" r="1" gradientUnits="userSpaceOnUse" gradientTransform="translate(88.4752 90.1698) rotate(180) scale(14.7271)">
<stop stop-color="#627BFD" stop-opacity="0.5"/>
<stop offset="0.14" stop-color="#627BFD" stop-opacity="0.53"/>
<stop offset="0.34" stop-color="#627BFD" stop-opacity="0.6"/>
<stop offset="0.58" stop-color="#627BFD" stop-opacity="0.72"/>
<stop offset="0.85" stop-color="#627BFD" stop-opacity="0.89"/>
<stop offset="1" stop-color="#627BFD"/>
</radialGradient>
<linearGradient id="paint17_linear_29_1360" x1="-26577.1" y1="23169.5" x2="-27556.1" y2="23169.5" gradientUnits="userSpaceOnUse">
<stop offset="0.02" stop-color="white" stop-opacity="0"/>
<stop offset="0.47" stop-color="white"/>
<stop offset="0.51" stop-color="white" stop-opacity="0.97"/>
<stop offset="0.58" stop-color="white" stop-opacity="0.9"/>
<stop offset="0.66" stop-color="white" stop-opacity="0.78"/>
<stop offset="0.75" stop-color="white" stop-opacity="0.61"/>
<stop offset="0.85" stop-color="white" stop-opacity="0.39"/>
<stop offset="0.95" stop-color="white" stop-opacity="0.13"/>
<stop offset="1" stop-color="white" stop-opacity="0"/>
</linearGradient>
<linearGradient id="paint18_linear_29_1360" x1="-9273.98" y1="19323.8" x2="-9392.66" y2="19323.8" gradientUnits="userSpaceOnUse">
<stop offset="0.02" stop-color="#627BFD" stop-opacity="0"/>
<stop offset="0.47" stop-color="#627BFD"/>
<stop offset="0.51" stop-color="#627BFD" stop-opacity="0.97"/>
<stop offset="0.58" stop-color="#627BFD" stop-opacity="0.9"/>
<stop offset="0.66" stop-color="#627BFD" stop-opacity="0.78"/>
<stop offset="0.75" stop-color="#627BFD" stop-opacity="0.61"/>
<stop offset="0.85" stop-color="#627BFD" stop-opacity="0.39"/>
<stop offset="0.95" stop-color="#627BFD" stop-opacity="0.13"/>
<stop offset="1" stop-color="#627BFD" stop-opacity="0"/>
</linearGradient>
<linearGradient id="paint19_linear_29_1360" x1="-53051.6" y1="34960.2" x2="-57325.9" y2="34960.2" gradientUnits="userSpaceOnUse">
<stop offset="0.02" stop-color="white" stop-opacity="0"/>
<stop offset="0.47" stop-color="white"/>
<stop offset="0.51" stop-color="white" stop-opacity="0.97"/>
<stop offset="0.58" stop-color="white" stop-opacity="0.9"/>
<stop offset="0.66" stop-color="white" stop-opacity="0.78"/>
<stop offset="0.75" stop-color="white" stop-opacity="0.61"/>
<stop offset="0.85" stop-color="white" stop-opacity="0.39"/>
<stop offset="0.95" stop-color="white" stop-opacity="0.13"/>
<stop offset="1" stop-color="white" stop-opacity="0"/>
</linearGradient>
<linearGradient id="paint20_linear_29_1360" x1="-4754.04" y1="144327" x2="-4754.04" y2="124109" gradientUnits="userSpaceOnUse">
<stop offset="0.02" stop-color="white" stop-opacity="0"/>
<stop offset="0.47" stop-color="white"/>
<stop offset="0.51" stop-color="white" stop-opacity="0.97"/>
<stop offset="0.58" stop-color="white" stop-opacity="0.9"/>
<stop offset="0.66" stop-color="white" stop-opacity="0.78"/>
<stop offset="0.75" stop-color="white" stop-opacity="0.61"/>
<stop offset="0.85" stop-color="white" stop-opacity="0.39"/>
<stop offset="0.95" stop-color="white" stop-opacity="0.13"/>
<stop offset="1" stop-color="white" stop-opacity="0"/>
</linearGradient>
<linearGradient id="paint21_linear_29_1360" x1="-7291.74" y1="143837" x2="-7291.74" y2="123620" gradientUnits="userSpaceOnUse">
<stop offset="0.02" stop-color="#627BFD" stop-opacity="0"/>
<stop offset="0.47" stop-color="#627BFD"/>
<stop offset="0.51" stop-color="#627BFD" stop-opacity="0.97"/>
<stop offset="0.58" stop-color="#627BFD" stop-opacity="0.9"/>
<stop offset="0.66" stop-color="#627BFD" stop-opacity="0.78"/>
<stop offset="0.75" stop-color="#627BFD" stop-opacity="0.61"/>
<stop offset="0.85" stop-color="#627BFD" stop-opacity="0.39"/>
<stop offset="0.95" stop-color="#627BFD" stop-opacity="0.13"/>
<stop offset="1" stop-color="#627BFD" stop-opacity="0"/>
</linearGradient>
<linearGradient id="paint22_linear_29_1360" x1="-9278.11" y1="142984" x2="-9278.11" y2="122767" gradientUnits="userSpaceOnUse">
<stop offset="0.02" stop-color="white" stop-opacity="0"/>
<stop offset="0.47" stop-color="white"/>
<stop offset="0.51" stop-color="white" stop-opacity="0.97"/>
<stop offset="0.58" stop-color="white" stop-opacity="0.9"/>
<stop offset="0.66" stop-color="white" stop-opacity="0.78"/>
<stop offset="0.75" stop-color="white" stop-opacity="0.61"/>
<stop offset="0.85" stop-color="white" stop-opacity="0.39"/>
<stop offset="0.95" stop-color="white" stop-opacity="0.13"/>
<stop offset="1" stop-color="white" stop-opacity="0"/>
</linearGradient>
<linearGradient id="paint23_linear_29_1360" x1="-8251.12" y1="23341.8" x2="-8251.12" y2="22757.6" gradientUnits="userSpaceOnUse">
<stop stop-color="#FFBE88" stop-opacity="0"/>
<stop offset="0.09" stop-color="#FFBC85" stop-opacity="0.03"/>
<stop offset="0.22" stop-color="#FFB87B" stop-opacity="0.1"/>
<stop offset="0.37" stop-color="#FFB06C" stop-opacity="0.22"/>
<stop offset="0.53" stop-color="#FFA557" stop-opacity="0.39"/>
<stop offset="0.72" stop-color="#FF983C" stop-opacity="0.61"/>
<stop offset="0.91" stop-color="#FF871C" stop-opacity="0.87"/>
<stop offset="1" stop-color="#FF7F0B"/>
</linearGradient>
<radialGradient id="paint24_radial_29_1360" cx="0" cy="0" r="1" gradientUnits="userSpaceOnUse" gradientTransform="translate(15570.3 4717.98) scale(197.785 197.786)">
<stop stop-color="#2AF6FF"/>
<stop offset="1" stop-color="#138BBD"/>
</radialGradient>
<radialGradient id="paint25_radial_29_1360" cx="0" cy="0" r="1" gradientUnits="userSpaceOnUse" gradientTransform="translate(9708.88 2947.68) scale(76.6989 76.6987)">
<stop stop-color="#F49587"/>
<stop offset="0.12" stop-color="#BD7368"/>
<stop offset="0.24" stop-color="#8B554D"/>
<stop offset="0.36" stop-color="#603B35"/>
<stop offset="0.48" stop-color="#3E2622"/>
<stop offset="0.61" stop-color="#231513"/>
<stop offset="0.74" stop-color="#0F0908"/>
<stop offset="0.86" stop-color="#040202"/>
<stop offset="1"/>
</radialGradient>
<radialGradient id="paint26_radial_29_1360" cx="0" cy="0" r="1" gradientUnits="userSpaceOnUse" gradientTransform="translate(15841.5 16292) scale(109.342)">
<stop stop-color="#F7EAD2"/>
<stop offset="1" stop-color="#FF7F0B"/>
</radialGradient>
<linearGradient id="paint27_linear_29_1360" x1="41268.5" y1="230398" x2="41268.5" y2="184779" gradientUnits="userSpaceOnUse">
<stop stop-color="#627BFD"/>
<stop offset="0.16" stop-color="#6D84FC"/>
<stop offset="0.46" stop-color="#8C9DF8"/>
<stop offset="0.84" stop-color="#BDC5F1"/>
<stop offset="0.98" stop-color="#D0D4EF"/>
</linearGradient>
<linearGradient id="paint28_linear_29_1360" x1="43381.4" y1="26980.1" x2="45785.9" y2="26980.1" gradientUnits="userSpaceOnUse">
<stop stop-color="#627BFD" stop-opacity="0"/>
<stop offset="0.05" stop-color="#627BFD" stop-opacity="0.05"/>
<stop offset="0.52" stop-color="#627BFD" stop-opacity="0.53"/>
<stop offset="0.85" stop-color="#627BFD" stop-opacity="0.84"/>
<stop offset="1" stop-color="#627BFD" stop-opacity="0.96"/>
</linearGradient>
<radialGradient id="paint29_radial_29_1360" cx="0" cy="0" r="1" gradientUnits="userSpaceOnUse" gradientTransform="translate(31368.3 105598) scale(1325.44 3976.33)">
<stop stop-color="#FFBE88"/>
<stop offset="0.14" stop-color="#FFBB81"/>
<stop offset="0.35" stop-color="#FFB16E"/>
<stop offset="0.59" stop-color="#FFA250"/>
<stop offset="0.86" stop-color="#FF8C25"/>
<stop offset="1" stop-color="#FF7F0B"/>
</radialGradient>
<linearGradient id="paint30_linear_29_1360" x1="-28809.9" y1="24365.2" x2="-29788.9" y2="24365.2" gradientUnits="userSpaceOnUse">
<stop offset="0.02" stop-color="white" stop-opacity="0"/>
<stop offset="0.47" stop-color="white"/>
<stop offset="0.51" stop-color="white" stop-opacity="0.97"/>
<stop offset="0.58" stop-color="white" stop-opacity="0.9"/>
<stop offset="0.66" stop-color="white" stop-opacity="0.78"/>
<stop offset="0.75" stop-color="white" stop-opacity="0.61"/>
<stop offset="0.85" stop-color="white" stop-opacity="0.39"/>
<stop offset="0.95" stop-color="white" stop-opacity="0.13"/>
<stop offset="1" stop-color="white" stop-opacity="0"/>
</linearGradient>
<linearGradient id="paint31_linear_29_1360" x1="-10033.5" y1="20325.8" x2="-10152.2" y2="20325.8" gradientUnits="userSpaceOnUse">
<stop offset="0.02" stop-color="#627BFD" stop-opacity="0"/>
<stop offset="0.47" stop-color="#627BFD"/>
<stop offset="0.51" stop-color="#627BFD" stop-opacity="0.97"/>
<stop offset="0.58" stop-color="#627BFD" stop-opacity="0.9"/>
<stop offset="0.66" stop-color="#627BFD" stop-opacity="0.78"/>
<stop offset="0.75" stop-color="#627BFD" stop-opacity="0.61"/>
<stop offset="0.85" stop-color="#627BFD" stop-opacity="0.39"/>
<stop offset="0.95" stop-color="#627BFD" stop-opacity="0.13"/>
<stop offset="1" stop-color="#627BFD" stop-opacity="0"/>
</linearGradient>
<linearGradient id="paint32_linear_29_1360" x1="-57747.4" y1="36798.2" x2="-62021.7" y2="36798.2" gradientUnits="userSpaceOnUse">
<stop offset="0.02" stop-color="white" stop-opacity="0"/>
<stop offset="0.47" stop-color="white"/>
<stop offset="0.51" stop-color="white" stop-opacity="0.97"/>
<stop offset="0.58" stop-color="white" stop-opacity="0.9"/>
<stop offset="0.66" stop-color="white" stop-opacity="0.78"/>
<stop offset="0.75" stop-color="white" stop-opacity="0.61"/>
<stop offset="0.85" stop-color="white" stop-opacity="0.39"/>
<stop offset="0.95" stop-color="white" stop-opacity="0.13"/>
<stop offset="1" stop-color="white" stop-opacity="0"/>
</linearGradient>
<linearGradient id="paint33_linear_29_1360" x1="-5093.19" y1="150557" x2="-5093.19" y2="130340" gradientUnits="userSpaceOnUse">
<stop offset="0.02" stop-color="white" stop-opacity="0"/>
<stop offset="0.47" stop-color="white"/>
<stop offset="0.51" stop-color="white" stop-opacity="0.97"/>
<stop offset="0.58" stop-color="white" stop-opacity="0.9"/>
<stop offset="0.66" stop-color="white" stop-opacity="0.78"/>
<stop offset="0.75" stop-color="white" stop-opacity="0.61"/>
<stop offset="0.85" stop-color="white" stop-opacity="0.39"/>
<stop offset="0.95" stop-color="white" stop-opacity="0.13"/>
<stop offset="1" stop-color="white" stop-opacity="0"/>
</linearGradient>
<linearGradient id="paint34_linear_29_1360" x1="-7863.63" y1="150067" x2="-7863.63" y2="129850" gradientUnits="userSpaceOnUse">
<stop offset="0.02" stop-color="#627BFD" stop-opacity="0"/>
<stop offset="0.47" stop-color="#627BFD"/>
<stop offset="0.51" stop-color="#627BFD" stop-opacity="0.97"/>
<stop offset="0.58" stop-color="#627BFD" stop-opacity="0.9"/>
<stop offset="0.66" stop-color="#627BFD" stop-opacity="0.78"/>
<stop offset="0.75" stop-color="#627BFD" stop-opacity="0.61"/>
<stop offset="0.85" stop-color="#627BFD" stop-opacity="0.39"/>
<stop offset="0.95" stop-color="#627BFD" stop-opacity="0.13"/>
<stop offset="1" stop-color="#627BFD" stop-opacity="0"/>
</linearGradient>
<linearGradient id="paint35_linear_29_1360" x1="-9995.76" y1="149215" x2="-9995.76" y2="128997" gradientUnits="userSpaceOnUse">
<stop offset="0.02" stop-color="white" stop-opacity="0"/>
<stop offset="0.47" stop-color="white"/>
<stop offset="0.51" stop-color="white" stop-opacity="0.97"/>
<stop offset="0.58" stop-color="white" stop-opacity="0.9"/>
<stop offset="0.66" stop-color="white" stop-opacity="0.78"/>
<stop offset="0.75" stop-color="white" stop-opacity="0.61"/>
<stop offset="0.85" stop-color="white" stop-opacity="0.39"/>
<stop offset="0.95" stop-color="white" stop-opacity="0.13"/>
<stop offset="1" stop-color="white" stop-opacity="0"/>
</linearGradient>
<linearGradient id="paint36_linear_29_1360" x1="-8251.12" y1="21629.9" x2="-8251.12" y2="21045.9" gradientUnits="userSpaceOnUse">
<stop stop-color="#FFBE88" stop-opacity="0"/>
<stop offset="0.09" stop-color="#FFBC85" stop-opacity="0.03"/>
<stop offset="0.22" stop-color="#FFB87B" stop-opacity="0.1"/>
<stop offset="0.37" stop-color="#FFB06C" stop-opacity="0.22"/>
<stop offset="0.53" stop-color="#FFA557" stop-opacity="0.39"/>
<stop offset="0.72" stop-color="#FF983C" stop-opacity="0.61"/>
<stop offset="0.91" stop-color="#FF871C" stop-opacity="0.87"/>
<stop offset="1" stop-color="#FF7F0B"/>
</linearGradient>
<radialGradient id="paint37_radial_29_1360" cx="0" cy="0" r="1" gradientUnits="userSpaceOnUse" gradientTransform="translate(15570.3 3344.87) scale(197.785 197.786)">
<stop stop-color="#2AF6FF"/>
<stop offset="1" stop-color="#138BBD"/>
</radialGradient>
<radialGradient id="paint38_radial_29_1360" cx="0" cy="0" r="1" gradientUnits="userSpaceOnUse" gradientTransform="translate(9708.88 2082.85) scale(76.6989)">
<stop stop-color="#F49587"/>
<stop offset="0.12" stop-color="#BD7368"/>
<stop offset="0.24" stop-color="#8B554D"/>
<stop offset="0.36" stop-color="#603B35"/>
<stop offset="0.48" stop-color="#3E2622"/>
<stop offset="0.61" stop-color="#231513"/>
<stop offset="0.74" stop-color="#0F0908"/>
<stop offset="0.86" stop-color="#040202"/>
<stop offset="1"/>
</radialGradient>
<radialGradient id="paint39_radial_29_1360" cx="0" cy="0" r="1" gradientUnits="userSpaceOnUse" gradientTransform="translate(15841.5 15050.9) scale(109.342)">
<stop stop-color="#F7EAD2"/>
<stop offset="1" stop-color="#FF7F0B"/>
</radialGradient>
<linearGradient id="paint40_linear_29_1360" x1="-5701.76" y1="13509" x2="-5701.76" y2="13244.1" gradientUnits="userSpaceOnUse">
<stop stop-color="#FFBE88" stop-opacity="0"/>
<stop offset="0.09" stop-color="#FFBC85" stop-opacity="0.03"/>
<stop offset="0.22" stop-color="#FFB87B" stop-opacity="0.1"/>
<stop offset="0.37" stop-color="#FFB06C" stop-opacity="0.22"/>
<stop offset="0.53" stop-color="#FFA557" stop-opacity="0.39"/>
<stop offset="0.72" stop-color="#FF983C" stop-opacity="0.61"/>
<stop offset="0.91" stop-color="#FF871C" stop-opacity="0.87"/>
<stop offset="1" stop-color="#FF7F0B"/>
</linearGradient>
<radialGradient id="paint41_radial_29_1360" cx="0" cy="0" r="1" gradientUnits="userSpaceOnUse" gradientTransform="translate(10514.5 1537.34) scale(89.7226 89.7211)">
<stop stop-color="#2AF6FF"/>
<stop offset="1" stop-color="#138BBD"/>
</radialGradient>
<radialGradient id="paint42_radial_29_1360" cx="0" cy="0" r="1" gradientUnits="userSpaceOnUse" gradientTransform="translate(6564.98 958.742) scale(34.7796)">
<stop stop-color="#F49587"/>
<stop offset="0.12" stop-color="#BD7368"/>
<stop offset="0.24" stop-color="#8B554D"/>
<stop offset="0.36" stop-color="#603B35"/>
<stop offset="0.48" stop-color="#3E2622"/>
<stop offset="0.61" stop-color="#231513"/>
<stop offset="0.74" stop-color="#0F0908"/>
<stop offset="0.86" stop-color="#040202"/>
<stop offset="1"/>
</radialGradient>
<radialGradient id="paint43_radial_29_1360" cx="0" cy="0" r="1" gradientUnits="userSpaceOnUse" gradientTransform="translate(10702 9493.78) scale(49.5921)">
<stop stop-color="#F7EAD2"/>
<stop offset="1" stop-color="#FF7F0B"/>
</radialGradient>
<linearGradient id="paint44_linear_29_1360" x1="-84808.9" y1="32950.6" x2="-94242.3" y2="32950.6" gradientUnits="userSpaceOnUse">
<stop stop-color="#627BFD" stop-opacity="0"/>
<stop offset="0.05" stop-color="#627BFD" stop-opacity="0.05"/>
<stop offset="0.52" stop-color="#627BFD" stop-opacity="0.53"/>
<stop offset="0.85" stop-color="#627BFD" stop-opacity="0.84"/>
<stop offset="1" stop-color="#627BFD" stop-opacity="0.96"/>
</linearGradient>
<linearGradient id="paint45_linear_29_1360" x1="-74513.3" y1="29707.4" x2="-83211.7" y2="29707.4" gradientUnits="userSpaceOnUse">
<stop stop-color="#627BFD" stop-opacity="0"/>
<stop offset="0.05" stop-color="#627BFD" stop-opacity="0.05"/>
<stop offset="0.52" stop-color="#627BFD" stop-opacity="0.53"/>
<stop offset="0.85" stop-color="#627BFD" stop-opacity="0.84"/>
<stop offset="1" stop-color="#627BFD" stop-opacity="0.96"/>
</linearGradient>
<linearGradient id="paint46_linear_29_1360" x1="-70591.9" y1="29346.9" x2="-79653.7" y2="29346.9" gradientUnits="userSpaceOnUse">
<stop stop-color="#627BFD" stop-opacity="0"/>
<stop offset="0.05" stop-color="#627BFD" stop-opacity="0.05"/>
<stop offset="0.52" stop-color="#627BFD" stop-opacity="0.53"/>
<stop offset="0.85" stop-color="#627BFD" stop-opacity="0.84"/>
<stop offset="1" stop-color="#627BFD" stop-opacity="0.96"/>
</linearGradient>
<linearGradient id="paint47_linear_29_1360" x1="119.254" y1="98.5725" x2="28.5039" y2="98.5725" gradientUnits="userSpaceOnUse">
<stop offset="0.02" stop-color="#D7DDF4"/>
<stop offset="0.18" stop-color="#CDD3ED"/>
<stop offset="0.7" stop-color="#AEB4DA"/>
<stop offset="1" stop-color="#A3A9D3"/>
</linearGradient>
<linearGradient id="paint48_linear_29_1360" x1="119.254" y1="98.5725" x2="28.5039" y2="98.5725" gradientUnits="userSpaceOnUse">
<stop stop-color="#627BFD" stop-opacity="0"/>
<stop offset="0.04" stop-color="#627BFD" stop-opacity="0.16"/>
<stop offset="0.09" stop-color="#627BFD" stop-opacity="0.33"/>
<stop offset="0.14" stop-color="#627BFD" stop-opacity="0.48"/>
<stop offset="0.2" stop-color="#627BFD" stop-opacity="0.61"/>
<stop offset="0.26" stop-color="#627BFD" stop-opacity="0.72"/>
<stop offset="0.33" stop-color="#627BFD" stop-opacity="0.81"/>
<stop offset="0.41" stop-color="#627BFD" stop-opacity="0.88"/>
<stop offset="0.51" stop-color="#627BFD" stop-opacity="0.92"/>
<stop offset="0.65" stop-color="#627BFD" stop-opacity="0.95"/>
<stop offset="1" stop-color="#627BFD" stop-opacity="0.96"/>
</linearGradient>
<linearGradient id="paint49_linear_29_1360" x1="72585.6" y1="54490" x2="77918.9" y2="54490" gradientUnits="userSpaceOnUse">
<stop offset="0.02" stop-color="#D7DDF4"/>
<stop offset="0.18" stop-color="#CDD3ED"/>
<stop offset="0.7" stop-color="#AEB4DA"/>
<stop offset="1" stop-color="#A3A9D3"/>
</linearGradient>
<linearGradient id="paint50_linear_29_1360" x1="88.5163" y1="35.1055" x2="88.5163" y2="25.8587" gradientUnits="userSpaceOnUse">
<stop stop-color="#627BFD" stop-opacity="0"/>
<stop offset="0.09" stop-color="#627BFD" stop-opacity="0.03"/>
<stop offset="0.22" stop-color="#627BFD" stop-opacity="0.1"/>
<stop offset="0.37" stop-color="#627BFD" stop-opacity="0.22"/>
<stop offset="0.54" stop-color="#627BFD" stop-opacity="0.39"/>
<stop offset="0.72" stop-color="#627BFD" stop-opacity="0.61"/>
<stop offset="0.91" stop-color="#627BFD" stop-opacity="0.87"/>
<stop offset="1" stop-color="#627BFD"/>
</linearGradient>
<radialGradient id="paint51_radial_29_1360" cx="0" cy="0" r="1" gradientUnits="userSpaceOnUse" gradientTransform="translate(14201.6 2179.38) scale(197.786 197.785)">
<stop stop-color="#2AF6FF"/>
<stop offset="1" stop-color="#138BBD"/>
</radialGradient>
<radialGradient id="paint52_radial_29_1360" cx="0" cy="0" r="1" gradientUnits="userSpaceOnUse" gradientTransform="translate(8867.27 1348.73) scale(76.6989 76.699)">
<stop stop-color="#F49587"/>
<stop offset="0.12" stop-color="#BD7368"/>
<stop offset="0.24" stop-color="#8B554D"/>
<stop offset="0.36" stop-color="#603B35"/>
<stop offset="0.48" stop-color="#3E2622"/>
<stop offset="0.61" stop-color="#231513"/>
<stop offset="0.74" stop-color="#0F0908"/>
<stop offset="0.86" stop-color="#040202"/>
<stop offset="1"/>
</radialGradient>
<radialGradient id="paint53_radial_29_1360" cx="0" cy="0" r="1" gradientUnits="userSpaceOnUse" gradientTransform="translate(89.6867 23.1546) rotate(180) scale(2.40207)">
<stop stop-color="#F2F7FC"/>
<stop offset="1" stop-color="#627BFD"/>
</radialGradient>
<linearGradient id="paint54_linear_29_1360" x1="-5311.1" y1="12489.7" x2="-5311.1" y2="12224.9" gradientUnits="userSpaceOnUse">
<stop stop-color="#627BFD" stop-opacity="0"/>
<stop offset="0.09" stop-color="#627BFD" stop-opacity="0.03"/>
<stop offset="0.22" stop-color="#627BFD" stop-opacity="0.1"/>
<stop offset="0.37" stop-color="#627BFD" stop-opacity="0.22"/>
<stop offset="0.54" stop-color="#627BFD" stop-opacity="0.39"/>
<stop offset="0.72" stop-color="#627BFD" stop-opacity="0.61"/>
<stop offset="0.91" stop-color="#627BFD" stop-opacity="0.87"/>
<stop offset="1" stop-color="#627BFD"/>
</linearGradient>
<radialGradient id="paint55_radial_29_1360" cx="0" cy="0" r="1" gradientUnits="userSpaceOnUse" gradientTransform="translate(9601.56 718.187) scale(89.7211 89.7214)">
<stop stop-color="#2AF6FF"/>
<stop offset="1" stop-color="#138BBD"/>
</radialGradient>
<radialGradient id="paint56_radial_29_1360" cx="0" cy="0" r="1" gradientUnits="userSpaceOnUse" gradientTransform="translate(6007.19 439.994) scale(34.7793 34.7795)">
<stop stop-color="#F49587"/>
<stop offset="0.12" stop-color="#BD7368"/>
<stop offset="0.24" stop-color="#8B554D"/>
<stop offset="0.36" stop-color="#603B35"/>
<stop offset="0.48" stop-color="#3E2622"/>
<stop offset="0.61" stop-color="#231513"/>
<stop offset="0.74" stop-color="#0F0908"/>
<stop offset="0.86" stop-color="#040202"/>
<stop offset="1"/>
</radialGradient>
<radialGradient id="paint57_radial_29_1360" cx="0" cy="0" r="1" gradientUnits="userSpaceOnUse" gradientTransform="translate(9881.4 8752.61) scale(49.5921)">
<stop stop-color="#F2F7FC"/>
<stop offset="1" stop-color="#627BFD"/>
</radialGradient>
<linearGradient id="paint58_linear_29_1360" x1="-20709.4" y1="23345.2" x2="-21480.3" y2="23345.2" gradientUnits="userSpaceOnUse">
<stop stop-color="#627BFD" stop-opacity="0"/>
<stop offset="0.05" stop-color="#627BFD" stop-opacity="0.05"/>
<stop offset="0.52" stop-color="#627BFD" stop-opacity="0.53"/>
<stop offset="0.85" stop-color="#627BFD" stop-opacity="0.84"/>
<stop offset="1" stop-color="#627BFD" stop-opacity="0.96"/>
</linearGradient>
<clipPath id="clip0_29_1360">
<rect width="123.194" height="144.581" fill="white" transform="translate(0.5625)"/>
</clipPath>
</defs>
</svg>
