<svg width="277" height="292" viewBox="0 0 277 292" fill="none" xmlns="http://www.w3.org/2000/svg">
<g clip-path="url(#clip0_29_1021)">
<path d="M80.1543 121.02L151.295 162.093" stroke="#627BFD" stroke-width="3" stroke-linecap="round" stroke-linejoin="round"/>
<path d="M258.251 143.594C259.172 143.594 259.918 142.847 259.918 141.927C259.918 141.006 259.172 140.26 258.251 140.26C257.33 140.26 256.584 141.006 256.584 141.927C256.584 142.847 257.33 143.594 258.251 143.594Z" fill="#627BFD"/>
<path d="M201.189 174.731L258.252 141.785" stroke="#627BFD" stroke-width="3" stroke-miterlimit="10"/>
<path style="mix-blend-mode:multiply" opacity="0.75" d="M150.648 250.061L0.434124 203.487L0 121.436L236.228 200.65L150.648 250.061Z" fill="url(#paint0_linear_29_1021)"/>
<path d="M97.8827 160.664L75.0996 173.817V153.442L97.8827 140.312V160.664Z" fill="#DCE6F4"/>
<path d="M52.3164 160.664L75.0995 173.817V153.442L52.3164 140.312V160.664Z" fill="url(#paint1_linear_29_1021)"/>
<path d="M97.8827 140.312L75.0995 127.186L52.3164 140.312L75.0995 153.442L97.8827 140.312Z" fill="#F3F7FF"/>
<path d="M97.8827 140.312L75.0995 127.186L52.3164 140.312L75.0995 153.442L97.8827 140.312Z" fill="#F3F7FF"/>
<path opacity="0.7" d="M61.123 140.317L75.099 132.266L89.0749 140.317L75.099 148.362L61.123 140.317Z" fill="#4D4F80"/>
<path opacity="0.6" d="M52.3164 144.629L75.0995 158.391L97.8827 145.356" stroke="#7D83AF" stroke-width="0.58" stroke-miterlimit="10"/>
<path d="M88.6383 161.287C89.5266 159.723 89.4875 158.023 88.551 157.492C87.6145 156.96 86.1353 157.797 85.247 159.361C84.3587 160.925 84.3978 162.624 85.3343 163.156C86.2708 163.688 87.75 162.851 88.6383 161.287Z" fill="#4D4F80"/>
<g style="mix-blend-mode:multiply" opacity="0.55">
<path d="M87.8717 160.852C88.359 159.994 88.3376 159.062 87.8238 158.77C87.3101 158.478 86.4985 158.938 86.0112 159.796C85.5239 160.654 85.5454 161.586 86.0591 161.878C86.5729 162.17 87.3844 161.71 87.8717 160.852Z" fill="#4D4F80"/>
</g>
<path d="M86.9922 160.375L107.597 172.053" stroke="#627BFD" stroke-width="3" stroke-linecap="round" stroke-linejoin="round"/>
<path style="mix-blend-mode:multiply" opacity="0.75" d="M261.524 195.34L234.448 186.945L234.371 172.156L276.949 186.434L261.524 195.34Z" fill="url(#paint2_linear_29_1021)"/>
<path d="M276.949 186.509L261.434 195.467V181.592L276.949 172.65V186.509Z" fill="#F9923E"/>
<path d="M245.918 186.509L261.434 195.467V181.592L245.918 172.65V186.509Z" fill="#FF7F0B"/>
<path d="M276.949 172.649L261.434 163.707L245.918 172.649L261.434 181.59L276.949 172.649Z" fill="#F3F7FF"/>
<path d="M276.949 172.649L261.434 163.707L245.918 172.649L261.434 181.59L276.949 172.649Z" fill="#FFA766"/>
<path d="M245.918 175.588L261.434 184.961L276.949 176.082" stroke="white" stroke-width="0.84" stroke-miterlimit="10"/>
<path d="M254.723 186.971C255.659 186.44 255.698 184.74 254.81 183.176C253.922 181.612 252.443 180.775 251.506 181.307C250.57 181.838 250.531 183.538 251.419 185.102C252.307 186.666 253.786 187.503 254.723 186.971Z" fill="#4D4F80"/>
<g style="mix-blend-mode:multiply" opacity="0.55">
<path d="M253.998 185.693C254.511 185.401 254.533 184.469 254.045 183.611C253.558 182.753 252.747 182.293 252.233 182.585C251.719 182.877 251.698 183.809 252.185 184.667C252.672 185.525 253.484 185.984 253.998 185.693Z" fill="#4D4F80"/>
</g>
<path d="M253.062 184.259L249.678 186.446C248.268 187.359 246.631 187.863 244.952 187.901C243.272 187.94 241.615 187.512 240.164 186.665L224.873 177.738C223.49 176.932 221.919 176.506 220.319 176.502C218.719 176.498 217.146 176.917 215.759 177.716L205.402 183.698" stroke="#627BFD" stroke-width="3" stroke-linecap="round" stroke-linejoin="round"/>
<path style="mix-blend-mode:multiply" opacity="0.75" d="M227.19 166L210.825 160.927L210.777 151.988L236.513 160.618L227.19 166Z" fill="url(#paint3_linear_29_1021)"/>
<path d="M89.8306 191.754L19.2051 232.552" stroke="#627BFD" stroke-width="3" stroke-linecap="round" stroke-linejoin="round"/>
<path d="M19.2041 234.219C20.1247 234.219 20.871 233.472 20.871 232.552C20.871 231.631 20.1247 230.885 19.2041 230.885C18.2834 230.885 17.5371 231.631 17.5371 232.552C17.5371 233.472 18.2834 234.219 19.2041 234.219Z" fill="#627BFD"/>
<path d="M10.3173 163.709C11.238 163.709 11.9843 162.963 11.9843 162.042C11.9843 161.121 11.238 160.375 10.3173 160.375C9.39671 160.375 8.65039 161.121 8.65039 162.042C8.65039 162.963 9.39671 163.709 10.3173 163.709Z" fill="#627BFD"/>
<path d="M81.5528 187.42L71.7599 181.779C70.3014 180.937 68.647 180.494 66.9629 180.494C65.2788 180.494 63.6244 180.937 62.166 181.779L58.4363 183.937C56.9856 184.774 55.3412 185.218 53.6663 185.223C51.9914 185.229 50.3442 184.796 48.888 183.969L10.3301 162.059" stroke="#627BFD" stroke-width="3" stroke-linecap="round" stroke-linejoin="round"/>
<path d="M67.6152 189.042L151.819 237.657L236.019 189.042L151.195 140.07L67.6152 189.042Z" fill="#F3F7FF"/>
<path style="mix-blend-mode:multiply" opacity="0.75" d="M61.5488 230.734L22.8326 216.635L22.7559 202.432L76.3618 222.181L61.5488 230.734Z" fill="url(#paint4_linear_29_1021)"/>
<path style="mix-blend-mode:multiply" opacity="0.75" d="M226.782 237.022L198.934 226.881L198.881 216.666L237.439 230.87L226.782 237.022Z" fill="url(#paint5_linear_29_1021)"/>
<path d="M100.117 254.59L77.334 267.744V257.138L100.117 243.984V254.59Z" fill="#DCE6F4"/>
<path d="M54.5508 254.59L77.3339 267.744V257.138L54.5508 243.984V254.59Z" fill="url(#paint6_linear_29_1021)"/>
<path d="M100.117 243.984L77.3339 230.857L54.5508 243.984L77.3339 257.138L100.117 243.984Z" fill="#F3F7FF"/>
<path d="M100.117 243.984L77.3339 230.857L54.5508 243.984L77.3339 257.138L100.117 243.984Z" fill="#F3F7FF"/>
<path opacity="0.7" d="M63.3574 243.99L77.3333 235.936L91.3093 243.99L77.3333 252.058L63.3574 243.99Z" fill="#4D4F80"/>
<path opacity="0.6" d="M54.5508 248.936L77.3339 262.089L100.117 249.051" stroke="#7D83AF" stroke-width="0.58" stroke-miterlimit="10"/>
<path style="mix-blend-mode:multiply" opacity="0.75" d="M210.941 163.967L170.953 151.569L170.836 129.727L233.724 150.814L210.941 163.967Z" fill="url(#paint7_linear_29_1021)"/>
<path d="M232.918 150.14L210.135 163.293V142.918L232.918 129.789V150.14Z" fill="#DCE6F4"/>
<path d="M187.355 150.14L210.136 163.293V142.918L187.355 129.789V150.14Z" fill="url(#paint8_linear_29_1021)"/>
<path d="M232.919 129.789L210.136 116.662L187.355 129.789L210.136 142.918L232.919 129.789Z" fill="#F3F7FF"/>
<path d="M232.919 129.789L210.136 116.662L187.355 129.789L210.136 142.918L232.919 129.789Z" fill="#F3F7FF"/>
<path opacity="0.7" d="M196.16 129.794L210.136 121.74L224.114 129.794L210.136 137.839L196.16 129.794Z" fill="#4D4F80"/>
<path opacity="0.6" d="M187.355 134.104L210.136 147.866L232.919 134.83" stroke="#7D83AF" stroke-width="0.58" stroke-miterlimit="10"/>
<path style="mix-blend-mode:multiply" opacity="0.75" d="M24.5315 213.278L8.16906 208.205L8.12109 199.266L33.8567 207.895L24.5315 213.278Z" fill="url(#paint9_linear_29_1021)"/>
<path d="M33.8566 207.94L24.4785 213.356V204.969L33.8566 199.562V207.94Z" fill="#F9923E"/>
<path d="M15.0977 207.94L24.4781 213.356V204.969L15.0977 199.562V207.94Z" fill="#FF7F0B"/>
<path d="M33.8561 199.563L24.4781 194.162L15.0977 199.563L24.4781 204.97L33.8561 199.563Z" fill="#F3F7FF"/>
<path d="M33.8561 199.563L24.4781 194.162L15.0977 199.563L24.4781 204.97L33.8561 199.563Z" fill="#FFA766"/>
<path d="M15.0977 201.34L24.4781 207.005L33.8561 201.64" stroke="white" stroke-width="0.51" stroke-miterlimit="10"/>
<path d="M236.513 160.665L227.135 166.078V157.691L236.513 152.287V160.665Z" fill="#8FA4F7"/>
<g style="mix-blend-mode:multiply">
<path d="M236.513 160.665L227.135 166.078V157.691L236.513 152.287V160.665Z" fill="#DCE6F4"/>
</g>
<path d="M217.758 160.665L227.136 166.078V157.691L217.758 152.287V160.665Z" fill="#8FA4F7"/>
<path style="mix-blend-mode:multiply" d="M217.758 160.665L227.136 166.078V157.691L217.758 152.287V160.665Z" fill="url(#paint10_linear_29_1021)"/>
<path d="M236.514 152.287L227.136 146.883L217.758 152.287L227.136 157.69L236.514 152.287Z" fill="#F3F7FF"/>
<path d="M236.514 152.287L227.136 146.883L217.758 152.287L227.136 157.69L236.514 152.287Z" fill="#8FA4F7"/>
<path d="M217.758 154.061L227.136 159.728L236.514 154.36" stroke="white" stroke-width="0.51" stroke-miterlimit="10"/>
<path d="M76.3635 222.007L62.0254 230.284V217.46L76.3635 209.199V222.007Z" fill="#8FA4F7"/>
<g style="mix-blend-mode:multiply">
<path d="M76.3635 222.007L62.0254 230.284V217.46L76.3635 209.199V222.007Z" fill="#DCE6F4"/>
</g>
<path d="M41.5938 218.575L62.024 230.285V217.46L41.5938 205.768V218.575Z" fill="#8FA4F7"/>
<path style="mix-blend-mode:multiply" d="M41.5938 218.575L62.024 230.285V217.46L41.5938 205.768V218.575Z" fill="url(#paint11_linear_29_1021)"/>
<path d="M76.3617 209.2L62.0236 200.938L47.6855 209.2L62.0236 217.461L76.3617 209.2Z" fill="#F3F7FF"/>
<path d="M76.3621 209.2L55.9318 197.508L41.5938 205.768L62.024 217.461L76.3621 209.2Z" fill="#8FA4F7"/>
<path d="M41.5938 208.742L62.024 220.576L76.3621 212.371" stroke="white" stroke-width="0.36" stroke-miterlimit="10"/>
<path d="M136.463 140.042L122.125 148.322V135.497L136.463 127.234V140.042Z" fill="#8FA4F7"/>
<g style="mix-blend-mode:multiply">
<path d="M136.463 140.042L122.125 148.322V135.497L136.463 127.234V140.042Z" fill="#DCE6F4"/>
</g>
<path d="M101.695 136.613L122.126 148.322V135.497L101.695 123.805V136.613Z" fill="#8FA4F7"/>
<path style="mix-blend-mode:multiply" d="M101.695 136.613L122.126 148.322V135.497L101.695 123.805V136.613Z" fill="url(#paint12_linear_29_1021)"/>
<path d="M136.463 127.235L122.125 118.975L107.787 127.235L122.125 135.498L136.463 127.235Z" fill="#F3F7FF"/>
<path d="M136.464 127.235L116.033 115.545L101.695 123.805L122.126 135.498L136.464 127.235Z" fill="#8FA4F7"/>
<path d="M101.695 126.779L122.126 138.613L136.464 130.408" stroke="white" stroke-width="0.36" stroke-miterlimit="10"/>
<path d="M237.439 230.673L226.986 236.705V227.358L237.439 221.338V230.673Z" fill="#8FA4F7"/>
<g style="mix-blend-mode:multiply">
<path d="M237.439 230.673L226.986 236.705V227.358L237.439 221.338V230.673Z" fill="#DCE6F4"/>
</g>
<path d="M212.098 228.173L226.987 236.707V227.36L212.098 218.838V228.173Z" fill="#8FA4F7"/>
<path style="mix-blend-mode:multiply" d="M212.098 228.173L226.987 236.707V227.36L212.098 218.838V228.173Z" fill="url(#paint13_linear_29_1021)"/>
<path d="M237.44 221.339L226.987 215.316L216.537 221.339L226.987 227.359L237.44 221.339Z" fill="#F3F7FF"/>
<path d="M237.44 221.339L222.548 212.814L212.098 218.837L226.987 227.359L237.44 221.339Z" fill="#8FA4F7"/>
<path d="M212.098 221.006L226.987 229.631L237.44 223.651" stroke="white" stroke-width="0.27" stroke-miterlimit="10"/>
<path d="M178.674 258.298L193.012 266.575V253.753L178.674 245.49V258.298Z" fill="#FF7F0B"/>
<path d="M213.442 254.868L193.012 266.575V253.753L213.442 242.061V254.868Z" fill="#F9923E"/>
<path d="M178.674 245.491L193.012 237.23L207.35 245.491L193.012 253.754L178.674 245.491Z" fill="#F3F7FF"/>
<path d="M178.674 245.491L199.104 233.799L213.442 242.062L193.012 253.754L178.674 245.491Z" fill="#FFA766"/>
<path d="M213.442 245.035L193.012 256.869L178.674 248.664" stroke="white" stroke-width="0.36" stroke-miterlimit="10"/>
<path d="M151.819 250.262V237.658L67.6152 189.043V201.649L151.819 250.262Z" fill="url(#paint14_linear_29_1021)"/>
<path d="M151.818 250.262V237.658L236.019 189.043V201.649L151.818 250.262Z" fill="#DCE6F4"/>
<path style="mix-blend-mode:multiply" opacity="0.8" d="M167.066 219.933L105.988 211.198L67.6152 189.043L118.405 159.283L133.07 192.413L184.272 207.19L182.8 209.709L145.256 204.722L167.066 219.933Z" fill="url(#paint15_linear_29_1021)"/>
<path d="M95.2717 213.38C96.2082 212.848 96.2473 211.149 95.359 209.584C94.4708 208.02 92.9915 207.183 92.055 207.715C91.1185 208.247 91.0795 209.946 91.9677 211.51C92.856 213.074 94.3352 213.911 95.2717 213.38Z" fill="#4D4F80"/>
<g style="mix-blend-mode:multiply" opacity="0.55">
<path d="M94.5464 212.101C95.0602 211.809 95.0817 210.877 94.5944 210.019C94.1071 209.161 93.2955 208.702 92.7818 208.993C92.268 209.285 92.2466 210.217 92.7339 211.075C93.2212 211.933 94.0327 212.393 94.5464 212.101Z" fill="#4D4F80"/>
</g>
<path d="M118.27 226.77C119.206 226.238 119.245 224.539 118.357 222.975C117.469 221.411 115.99 220.574 115.053 221.105C114.117 221.637 114.077 223.336 114.966 224.901C115.854 226.465 117.333 227.302 118.27 226.77Z" fill="#4D4F80"/>
<g style="mix-blend-mode:multiply" opacity="0.55">
<path d="M117.543 225.493C118.056 225.202 118.078 224.27 117.59 223.411C117.103 222.553 116.292 222.094 115.778 222.386C115.264 222.678 115.243 223.61 115.73 224.468C116.217 225.326 117.029 225.785 117.543 225.493Z" fill="#4D4F80"/>
</g>
<path d="M175.634 231.765C176.523 230.201 176.484 228.502 175.547 227.97C174.611 227.438 173.131 228.275 172.243 229.839C171.355 231.404 171.394 233.103 172.33 233.635C173.267 234.167 174.746 233.33 175.634 231.765Z" fill="#4D4F80"/>
<g style="mix-blend-mode:multiply" opacity="0.55">
<path d="M174.87 231.331C175.357 230.473 175.336 229.54 174.822 229.249C174.308 228.957 173.497 229.416 173.009 230.274C172.522 231.132 172.543 232.065 173.057 232.356C173.571 232.648 174.382 232.189 174.87 231.331Z" fill="#4D4F80"/>
</g>
<path d="M189.5 224.394C190.388 222.83 190.349 221.131 189.412 220.599C188.476 220.067 186.997 220.904 186.108 222.468C185.22 224.033 185.259 225.732 186.196 226.264C187.132 226.795 188.611 225.958 189.5 224.394Z" fill="#4D4F80"/>
<g style="mix-blend-mode:multiply" opacity="0.55">
<path d="M188.733 223.96C189.22 223.101 189.199 222.169 188.685 221.878C188.171 221.586 187.36 222.045 186.873 222.903C186.385 223.761 186.407 224.694 186.92 224.985C187.434 225.277 188.246 224.818 188.733 223.96Z" fill="#4D4F80"/>
</g>
<path d="M224.816 203.49C225.704 201.926 225.665 200.227 224.729 199.695C223.792 199.163 222.313 200 221.425 201.564C220.536 203.128 220.576 204.828 221.512 205.359C222.449 205.891 223.928 205.054 224.816 203.49Z" fill="#4D4F80"/>
<g style="mix-blend-mode:multiply" opacity="0.55">
<path d="M224.051 203.055C224.539 202.197 224.517 201.265 224.003 200.973C223.49 200.682 222.678 201.141 222.191 201.999C221.704 202.857 221.725 203.789 222.239 204.081C222.753 204.373 223.564 203.913 224.051 203.055Z" fill="#4D4F80"/>
</g>
<path d="M131.545 234.821C132.482 234.289 132.521 232.59 131.632 231.026C130.744 229.461 129.265 228.624 128.328 229.156C127.392 229.688 127.353 231.387 128.241 232.952C129.129 234.516 130.609 235.353 131.545 234.821Z" fill="#4D4F80"/>
<g style="mix-blend-mode:multiply" opacity="0.55">
<path d="M130.82 233.542C131.334 233.251 131.355 232.318 130.868 231.46C130.381 230.602 129.569 230.143 129.055 230.435C128.542 230.726 128.52 231.659 129.007 232.517C129.495 233.375 130.306 233.834 130.82 233.542Z" fill="#4D4F80"/>
</g>
<path d="M188.571 261.466C189.507 260.934 189.546 259.235 188.658 257.67C187.77 256.106 186.29 255.269 185.354 255.801C184.417 256.333 184.378 258.032 185.267 259.596C186.155 261.16 187.634 261.997 188.571 261.466Z" fill="#4D4F80"/>
<g style="mix-blend-mode:multiply" opacity="0.55">
<path d="M187.843 260.187C188.357 259.895 188.378 258.963 187.891 258.105C187.404 257.247 186.592 256.787 186.079 257.079C185.565 257.371 185.543 258.303 186.031 259.161C186.518 260.019 187.33 260.479 187.843 260.187Z" fill="#4D4F80"/>
</g>
<path opacity="0.65" d="M195.124 154.589L111.815 203.441L110.611 52.3755L192.75 0L195.124 154.589Z" fill="url(#paint16_linear_29_1021)"/>
<path d="M107.861 140.321V198.34C107.861 199.083 108.057 199.813 108.428 200.457C108.799 201.101 109.334 201.636 109.977 202.009C110.621 202.381 111.351 202.578 112.094 202.578C112.838 202.579 113.568 202.385 114.213 202.014L190.921 158.081C193.538 156.577 195.712 154.409 197.225 151.796C198.737 149.183 199.533 146.218 199.534 143.199V84.7743C199.533 84.0295 199.336 83.298 198.963 82.6534C198.59 82.0088 198.054 81.4738 197.408 81.1023C196.763 80.7308 196.031 80.5359 195.286 80.5371C194.541 80.5384 193.81 80.7357 193.165 81.1094L116.414 125.481C113.814 126.99 111.656 129.154 110.155 131.758C108.654 134.362 107.863 137.315 107.861 140.321Z" fill="url(#paint17_linear_29_1021)"/>
<path d="M110.611 142.457V200.486C110.611 201.229 110.807 201.959 111.178 202.603C111.549 203.246 112.083 203.781 112.726 204.153C113.37 204.525 114.099 204.722 114.842 204.723C115.585 204.724 116.316 204.53 116.96 204.16L193.671 160.218C196.288 158.713 198.462 156.545 199.973 153.932C201.485 151.319 202.281 148.354 202.281 145.335V86.9108C202.281 86.1657 202.085 85.4338 201.712 84.7888C201.339 84.1437 200.803 83.6084 200.157 83.2368C199.511 82.8651 198.779 82.6703 198.034 82.6719C197.289 82.6735 196.557 82.8715 195.913 83.2459L119.162 127.618C116.562 129.126 114.405 131.291 112.904 133.895C111.404 136.499 110.613 139.452 110.611 142.457Z" fill="white"/>
<path d="M114.854 202.231C114.392 202.228 113.949 202.044 113.622 201.717C113.295 201.391 113.109 200.949 113.105 200.487V142.458C113.11 139.89 113.787 137.367 115.068 135.141C116.349 132.915 118.19 131.062 120.409 129.768L197.16 85.3961C197.425 85.2398 197.728 85.1571 198.036 85.1562C198.501 85.1569 198.946 85.3417 199.275 85.6703C199.604 85.9989 199.79 86.4445 199.791 86.9095V145.336C199.786 147.915 199.103 150.447 197.811 152.678C196.518 154.909 194.662 156.761 192.428 158.048L115.722 201.981C115.46 202.141 115.16 202.227 114.854 202.231Z" fill="#4D4F80"/>
<path d="M118.406 191.309L146.109 175.63V168.396L118.406 184.075V191.309Z" fill="#C4C7E8"/>
<path d="M118.406 195.798L146.109 180.116V177.701L118.406 193.382V195.798Z" fill="#C4C7E8"/>
<path d="M143.957 160.623C145.241 158.362 145.184 155.905 143.831 155.137C142.477 154.368 140.339 155.578 139.055 157.839C137.771 160.101 137.828 162.557 139.181 163.325C140.535 164.094 142.673 162.884 143.957 160.623Z" fill="#FF7F0B"/>
<path d="M151.029 135.472C152.313 133.211 152.257 130.755 150.903 129.987C149.55 129.218 147.412 130.428 146.128 132.689C144.844 134.95 144.9 137.406 146.253 138.175C147.607 138.943 149.745 137.733 151.029 135.472Z" fill="white"/>
<path d="M194.135 104.659C194.968 103.192 194.932 101.598 194.054 101.1C193.177 100.601 191.789 101.387 190.956 102.855C190.123 104.322 190.159 105.916 191.037 106.414C191.914 106.913 193.301 106.127 194.135 104.659Z" fill="#627BFD"/>
<path d="M194.137 113.144C194.97 111.676 194.934 110.083 194.056 109.584C193.178 109.086 191.791 109.871 190.958 111.339C190.125 112.806 190.161 114.4 191.039 114.899C191.916 115.397 193.303 114.611 194.137 113.144Z" fill="#627BFD"/>
<path d="M194.139 121.697C194.972 120.229 194.936 118.635 194.058 118.137C193.18 117.639 191.793 118.424 190.96 119.892C190.127 121.359 190.163 122.953 191.04 123.451C191.918 123.95 193.305 123.164 194.139 121.697Z" fill="#627BFD"/>
<path opacity="0.7" d="M129.604 144.842C128.201 153.16 121.471 160.324 113.256 162.245" stroke="white" stroke-miterlimit="10" stroke-dasharray="5 5"/>
<path d="M146.685 137.578C144.19 143.723 140.631 149.547 135.604 153.869C130.576 158.191 123.964 160.891 117.354 160.392L117.814 160.872" stroke="white" stroke-miterlimit="10" stroke-dasharray="5 5"/>
<path d="M144.615 158.299C145.918 158.613 147.282 158.299 148.563 157.896C152.523 156.696 156.31 154.778 159.435 152.065C162.561 149.352 165.005 145.783 166.094 141.785L166.334 142.459" stroke="white" stroke-miterlimit="10" stroke-dasharray="5 5"/>
<path d="M148.41 137.498C148.019 137.498 147.71 137.877 147.662 138.266C147.647 138.659 147.729 139.051 147.902 139.405L148.777 141.715C148.357 141.292 147.64 141.297 147.117 141.585C146.614 141.908 146.209 142.364 145.947 142.902C145.796 143.168 145.254 143.66 145.266 143.964C145.278 144.269 148.451 147.437 150.063 148.423C151.688 149.375 153.406 150.158 155.191 150.762C155.385 150.834 154.994 147.917 154.886 147.644C154.613 146.953 154.107 146.519 153.603 145.991C152.131 144.443 150.877 142.703 149.873 140.818C149.3 139.751 148.811 138.641 148.41 137.498Z" fill="#FFA8A7"/>
<path d="M188.69 137.078C188.887 138.791 190.988 145.852 190.549 148.38C190.11 150.908 183.082 155.448 183.082 155.448L182.123 151.131L185.097 148.217C185.371 147.948 185.578 147.618 185.701 147.254C185.824 146.89 185.859 146.503 185.805 146.123L184.939 140.182L188.69 137.078Z" fill="#FFA8A7"/>
<path d="M185.006 145.696L182.116 132.675C181.727 127.842 186.152 128.264 187.179 129.962C188.206 131.66 190.297 142.784 190.386 143.78C190.772 146.293 190.832 147.521 190.609 148.555C190.386 149.589 187.925 152.532 183.082 155.448L182.123 151.131L185.006 145.696Z" fill="white"/>
<path d="M184.2 207.184C184.2 207.184 184.507 207.489 184.817 209.197C184.953 209.945 185.035 210.902 184.203 211.171C183.37 211.439 180.42 209.732 178.753 208.187C177.645 207.165 176.379 204.992 176.379 204.992C176.379 204.992 181.233 205.352 182.075 205.973C182.76 206.417 183.47 206.821 184.2 207.184Z" fill="#383C66"/>
<path d="M173.048 214.206C173.048 214.206 173.108 215.166 173.166 215.928C173.224 216.691 173.495 217.907 173.25 218.471C173.005 219.034 169.945 219.356 167.067 219.931C164.227 220.5 159.766 220.502 159.555 219.917C159.555 219.917 160.181 219.38 163.1 217.624C166.433 215.617 169.681 213.59 169.681 213.59L173.048 214.206Z" fill="#383C66"/>
<path d="M185.022 190.727C185.329 184.772 185.228 180.344 185.228 180.344C185.228 180.344 184.07 178.694 184.269 173.408C184.483 167.7 184.838 160.55 184.938 159.125L166.432 163.241C166.432 163.241 167.597 185.369 167.799 188.269C168 191.169 168.228 195.184 168.518 198.906C168.897 203.612 169.303 214.031 169.303 214.031C170.437 214.704 171.771 214.959 173.073 214.75C173.073 214.75 174.675 201.756 174.941 198.419C175.304 193.917 176.085 182.829 176.085 182.829C176.085 182.829 174.675 184.34 175.126 179.62C175.524 175.413 176.023 172.904 176.085 170.839L176.455 170.642C176.455 170.642 176.831 178.797 177.033 181.707C177.234 184.616 177.664 187.386 178.446 192.771C179.122 197.443 180.887 207.063 180.887 207.063C182.844 208.2 184.262 207.176 184.262 207.176C184.262 207.176 184.818 194.81 185.022 190.727Z" fill="#627BFD"/>
<path d="M176.096 170.854C176.096 170.854 180.252 168.652 182.332 166.666C182.332 166.666 180.401 169.592 177.866 170.89C177.866 170.89 176.964 181.033 176.969 180.831L176.448 170.839L176.096 170.854Z" fill="#AACAF9"/>
<path d="M182.318 128.891C180.91 128.958 179.862 129.323 179.679 128.905C179.543 128.584 179.358 126.703 179.358 126.703C179.521 126.293 179.66 125.854 179.66 125.854C181.43 124.765 182.929 120.7 182.929 120.7C183.12 118.872 182.577 117.043 181.419 115.615C180.261 114.188 178.584 113.278 176.756 113.087C173.175 112.715 170.541 115.229 169.839 118.683C169.46 120.388 169.119 123.772 169.968 126.814C170.421 128.442 170.812 128.908 171.503 129.128C172.289 129.255 173.084 129.308 173.88 129.287C173.88 129.287 174.072 130.344 174.201 131.023C174.331 131.702 174.281 132.059 172.93 132.891C171.58 133.724 174.974 135.436 177.19 135.268C179.406 135.1 181.905 133.762 182.589 132.325C183.354 130.728 183.287 128.845 182.318 128.891Z" fill="#FFA8A7"/>
<path d="M182.317 128.892C180.909 128.96 179.861 129.324 179.679 128.907C179.542 128.585 179.358 126.705 179.358 126.705C179.521 126.295 179.66 125.856 179.66 125.856C180.283 125.47 180.843 124.991 181.32 124.434L176.64 125.976L175.273 125.7L174.716 125.381L174.354 124.738C174.354 124.827 174.141 126.87 173.685 127.564C173.229 128.257 172.061 129.063 171.426 129.101C171.452 129.101 171.476 129.123 171.502 129.13C172.288 129.257 173.084 129.31 173.879 129.288C173.879 129.288 174.071 130.346 174.201 131.025C174.321 131.636 174.28 131.984 173.273 132.67L175.175 134.128L180.857 134.032C181.012 133.936 181.164 133.838 181.305 133.732L182.998 131.125C183.265 129.919 183.046 128.856 182.317 128.892Z" fill="#F28F8F"/>
<path d="M182.935 120.701C183.126 118.873 182.582 117.044 181.424 115.616C180.267 114.189 178.589 113.28 176.761 113.088C175.649 112.956 174.521 113.14 173.508 113.619C172.495 114.097 171.636 114.851 171.031 115.794C171.201 116.125 171.419 116.429 171.679 116.696C171.679 116.696 171.367 117.578 171.919 118.204C172.319 118.655 172.343 119.121 172.348 119.883C172.348 120.538 173.178 122.644 173.178 122.644C173.178 122.644 173.607 121.38 173.804 121.143C174.185 120.31 175.711 120.063 176.164 121.258C176.533 122.241 176.339 123.131 176.025 124.083C175.978 124.251 175.892 124.406 175.775 124.536C175.657 124.665 175.511 124.765 175.348 124.828C175.185 124.891 175.009 124.915 174.835 124.898C174.661 124.881 174.494 124.824 174.346 124.731C174.36 125.186 175.684 127.175 175.684 127.175C176.914 127.506 178.222 127.376 179.361 126.808C179.839 126.582 182.702 122.929 182.935 120.701Z" fill="#8C7267"/>
<path d="M171.677 116.696C171.677 116.696 169.878 116.864 168.24 114.986C166.602 113.108 175.078 113.081 176.76 113.088C178.69 113.088 182.578 113.053 182.115 116.645L171.677 116.696Z" fill="#8C7267"/>
<path d="M156.278 147.044L154.535 146.25C153.515 146.687 152.681 148.449 153.004 150.282L155.125 151.15L156.278 147.044Z" fill="#F5FBFB"/>
<path d="M185.23 151.491C187.269 144.23 188.459 134.126 186.88 131.823C185.156 129.319 185.386 129.237 184.242 128.914C182.729 128.489 180.287 129.089 180.287 129.089C180.678 130.063 179.687 131.247 177.039 132.084C174.392 132.922 174.161 131.845 174.161 131.845C174.161 131.845 170.28 133.612 169.016 134.483C167.426 135.593 166.724 138.8 166.508 144.233C166.268 150.512 163.51 187.23 163.718 188.844C163.718 188.844 170.194 189.696 173.058 189.696C174.435 189.702 175.811 189.606 177.174 189.408L178.287 181.124L179.901 188.799C183.232 187.777 185.708 185.832 187.283 182.74C187.219 177.265 184.34 154.661 185.23 151.491Z" fill="#DCE6F4"/>
<path d="M179.512 127.994L180.258 127.363C180.543 127.562 181.107 128.987 181.107 128.987C181.107 128.987 181.347 130.539 179.471 131.702C177.595 132.865 175.353 133.482 173.043 132.374C173.043 132.374 173.197 129.896 173.043 130.16C172.93 130.349 174.07 130.311 174.07 130.311C174.07 130.311 174.657 131.069 176.895 130.311C179.133 129.553 179.555 128.476 179.555 128.476L179.512 127.994Z" fill="white"/>
<path d="M169.445 134.13C167.418 134.37 167.008 135.687 166.432 139.018C165.653 143.532 164.83 147.852 164.065 148.837C163.3 149.823 160.726 148.42 156.042 146.679C156.042 146.679 153.884 147.523 154.092 151.157C154.092 151.157 155.707 152.747 161.652 155.455C167.205 157.985 168.57 155.843 170.047 153.414C172.105 150.056 172.966 145.892 173.261 143.062C173.407 141.656 173.909 138.099 173.431 137.085C173.441 137.078 170.378 134.017 169.445 134.13Z" fill="white"/>
<path d="M152.865 141.418H151.968C151.488 142.138 151.366 143.044 151.265 143.908C151.205 144.177 151.228 144.457 151.33 144.713C151.57 145.193 152.249 145.229 152.654 145.579C152.577 145.515 152.654 145.361 152.697 145.311C152.594 145.344 152.544 144.67 152.527 144.5C152.497 144.154 152.49 143.806 152.505 143.459C152.534 142.766 152.655 142.079 152.865 141.418Z" fill="#FFA8A7"/>
<path d="M169.523 120.869L168.191 122.788L170.05 124.433L169.523 120.869Z" fill="#FFA8A7"/>
<path d="M132.9 143.462C134.184 141.201 134.128 138.745 132.774 137.977C131.421 137.208 129.283 138.418 127.999 140.679C126.715 142.94 126.771 145.396 128.124 146.165C129.478 146.934 131.616 145.724 132.9 143.462Z" fill="#FF7F0B"/>
<path d="M183.895 154.471V156.593C183.895 156.593 181.175 160.093 173.994 158.433V155.97C173.994 155.97 178.717 158.73 183.895 154.471Z" fill="white"/>
<path d="M116.119 223.795L103.803 230.942C102.467 231.718 100.947 232.118 99.402 232.102C97.8573 232.085 96.3459 231.651 95.0272 230.846L87.8126 226.445C86.4964 225.643 84.9886 225.21 83.4474 225.192C81.9063 225.173 80.3885 225.57 79.0534 226.34L64.5426 234.718C64.2617 234.88 64.0286 235.114 63.8665 235.395C63.7045 235.676 63.6191 235.995 63.6191 236.32C63.6191 236.644 63.7045 236.963 63.8665 237.244C64.0286 237.526 64.2617 237.759 64.5426 237.922V237.922" stroke="#627BFD" stroke-width="3" stroke-linecap="round" stroke-linejoin="round"/>
<path d="M259.063 266.82C259.984 266.82 260.73 266.074 260.73 265.153C260.73 264.233 259.984 263.486 259.063 263.486C258.143 263.486 257.396 264.233 257.396 265.153C257.396 266.074 258.143 266.82 259.063 266.82Z" fill="#627BFD"/>
<path d="M80.8329 123.101C81.7536 123.101 82.4999 122.355 82.4999 121.435C82.4999 120.514 81.7536 119.768 80.8329 119.768C79.9123 119.768 79.166 120.514 79.166 121.435C79.166 122.355 79.9123 123.101 80.8329 123.101Z" fill="#627BFD"/>
<path d="M173.995 230.857L184.68 236.854C185.044 237.058 185.347 237.354 185.559 237.714C185.771 238.073 185.884 238.482 185.887 238.899C185.89 239.316 185.782 239.727 185.574 240.089C185.367 240.45 185.067 240.751 184.706 240.96L165.552 252.019C165.193 252.227 164.896 252.525 164.689 252.884C164.482 253.243 164.373 253.65 164.373 254.064C164.373 254.478 164.482 254.885 164.689 255.244C164.896 255.603 165.193 255.901 165.552 256.109L175.093 261.644C176.085 262.218 177.211 262.52 178.358 262.52C179.504 262.52 180.63 262.218 181.622 261.644L186.949 258.572" stroke="#627BFD" stroke-width="3" stroke-linecap="round" stroke-linejoin="round"/>
<path d="M187.605 223.9L258.749 264.972" stroke="#627BFD" stroke-width="3" stroke-linecap="round" stroke-linejoin="round"/>
<path d="M222.973 202.584L263.373 225.921" stroke="#627BFD" stroke-width="3" stroke-linecap="round" stroke-linejoin="round"/>
<path d="M263.372 227.59C264.293 227.59 265.039 226.843 265.039 225.923C265.039 225.002 264.293 224.256 263.372 224.256C262.451 224.256 261.705 225.002 261.705 225.923C261.705 226.843 262.451 227.59 263.372 227.59Z" fill="#627BFD"/>
<path d="M129.921 232.551L108.256 245.066C107.875 245.286 107.559 245.603 107.34 245.985C107.121 246.366 107.006 246.799 107.008 247.239C107.01 247.679 107.127 248.111 107.349 248.491C107.572 248.871 107.89 249.185 108.273 249.402L126.827 259.913" stroke="#627BFD" stroke-width="3" stroke-linecap="round" stroke-linejoin="round"/>
<path style="mix-blend-mode:multiply" opacity="0.75" d="M132.328 291.493L99.2991 281.254L99.2031 263.213L151.145 280.631L132.328 291.493Z" fill="url(#paint18_linear_29_1021)"/>
<path d="M150.975 280.296L132.156 291.161V274.334L150.975 263.49V280.296Z" fill="#DCE6F4"/>
<path d="M113.34 280.296L132.156 291.161V274.334L113.34 263.49V280.296Z" fill="url(#paint19_linear_29_1021)"/>
<path d="M150.974 263.49L132.156 252.648L113.34 263.49L132.156 274.333L150.974 263.49Z" fill="#F3F7FF"/>
<path d="M150.974 263.49L132.156 252.648L113.34 263.49L132.156 274.333L150.974 263.49Z" fill="#F3F7FF"/>
<path opacity="0.7" d="M120.615 263.491L132.157 256.84L143.701 263.491L132.157 270.135L120.615 263.491Z" fill="#4D4F80"/>
<path opacity="0.6" d="M113.34 267.051L132.156 278.42L150.974 267.653" stroke="#7D83AF" stroke-width="0.48" stroke-miterlimit="10"/>
<path d="M69.9293 222.238C70.8176 220.674 70.7785 218.974 69.842 218.443C68.9055 217.911 67.4263 218.748 66.538 220.312C65.6498 221.876 65.6889 223.576 66.6253 224.107C67.5618 224.639 69.0411 223.802 69.9293 222.238Z" fill="#4D4F80"/>
<g style="mix-blend-mode:multiply" opacity="0.55">
<path d="M69.1647 221.803C69.652 220.945 69.6305 220.013 69.1168 219.721C68.6031 219.43 67.7915 219.889 67.3042 220.747C66.8169 221.605 66.8384 222.537 67.3521 222.829C67.8658 223.121 68.6774 222.662 69.1647 221.803Z" fill="#4D4F80"/>
</g>
<path d="M30.4724 207.425C31.0212 206.459 30.9974 205.409 30.4191 205.081C29.8409 204.753 28.9272 205.27 28.3784 206.236C27.8297 207.203 27.8535 208.253 28.4318 208.581C29.01 208.909 29.9237 208.392 30.4724 207.425Z" fill="#4D4F80"/>
<g style="mix-blend-mode:multiply" opacity="0.55">
<path d="M30.0005 207.157C30.3014 206.627 30.2885 206.052 29.9717 205.872C29.655 205.692 29.1543 205.976 28.8534 206.505C28.5525 207.035 28.5654 207.611 28.8822 207.791C29.1989 207.97 29.6996 207.687 30.0005 207.157Z" fill="#4D4F80"/>
</g>
<path d="M93.419 210.697L74.6629 221.673C73.7804 222.189 72.777 222.462 71.7546 222.465C70.7322 222.468 69.7272 222.201 68.8418 221.689L68.3789 221.423" stroke="#627BFD" stroke-width="3" stroke-linecap="round" stroke-linejoin="round"/>
</g>
<defs>
<linearGradient id="paint0_linear_29_1021" x1="0" y1="185.748" x2="236.228" y2="185.748" gradientUnits="userSpaceOnUse">
<stop stop-color="#627BFD" stop-opacity="0"/>
<stop offset="0.09" stop-color="#627BFD" stop-opacity="0.03"/>
<stop offset="0.22" stop-color="#627BFD" stop-opacity="0.1"/>
<stop offset="0.38" stop-color="#627BFD" stop-opacity="0.23"/>
<stop offset="0.56" stop-color="#627BFD" stop-opacity="0.41"/>
<stop offset="0.75" stop-color="#627BFD" stop-opacity="0.63"/>
<stop offset="0.96" stop-color="#627BFD" stop-opacity="0.9"/>
<stop offset="1" stop-color="#627BFD" stop-opacity="0.96"/>
</linearGradient>
<linearGradient id="paint1_linear_29_1021" x1="57.7609" y1="168.878" x2="69.8804" y2="144.8" gradientUnits="userSpaceOnUse">
<stop offset="0.02" stop-color="#D7DDF4"/>
<stop offset="0.18" stop-color="#CDD3ED"/>
<stop offset="0.7" stop-color="#AEB4DA"/>
<stop offset="1" stop-color="#A3A9D3"/>
</linearGradient>
<linearGradient id="paint2_linear_29_1021" x1="234.371" y1="183.748" x2="276.949" y2="183.748" gradientUnits="userSpaceOnUse">
<stop stop-color="#627BFD" stop-opacity="0"/>
<stop offset="0.05" stop-color="#627BFD" stop-opacity="0.05"/>
<stop offset="0.52" stop-color="#627BFD" stop-opacity="0.53"/>
<stop offset="0.85" stop-color="#627BFD" stop-opacity="0.84"/>
<stop offset="1" stop-color="#627BFD" stop-opacity="0.96"/>
</linearGradient>
<linearGradient id="paint3_linear_29_1021" x1="22827.3" y1="9440.45" x2="25588.7" y2="9440.45" gradientUnits="userSpaceOnUse">
<stop stop-color="#627BFD" stop-opacity="0"/>
<stop offset="0.05" stop-color="#627BFD" stop-opacity="0.05"/>
<stop offset="0.52" stop-color="#627BFD" stop-opacity="0.53"/>
<stop offset="0.85" stop-color="#627BFD" stop-opacity="0.84"/>
<stop offset="1" stop-color="#627BFD" stop-opacity="0.96"/>
</linearGradient>
<linearGradient id="paint4_linear_29_1021" x1="5108.89" y1="25759.1" x2="17089.8" y2="25759.1" gradientUnits="userSpaceOnUse">
<stop stop-color="#627BFD" stop-opacity="0"/>
<stop offset="0.05" stop-color="#627BFD" stop-opacity="0.05"/>
<stop offset="0.52" stop-color="#627BFD" stop-opacity="0.53"/>
<stop offset="0.85" stop-color="#627BFD" stop-opacity="0.84"/>
<stop offset="1" stop-color="#627BFD" stop-opacity="0.96"/>
</linearGradient>
<linearGradient id="paint5_linear_29_1021" x1="32171.1" y1="19468.8" x2="38369.7" y2="19468.8" gradientUnits="userSpaceOnUse">
<stop stop-color="#627BFD" stop-opacity="0"/>
<stop offset="0.05" stop-color="#627BFD" stop-opacity="0.05"/>
<stop offset="0.52" stop-color="#627BFD" stop-opacity="0.53"/>
<stop offset="0.85" stop-color="#627BFD" stop-opacity="0.84"/>
<stop offset="1" stop-color="#627BFD" stop-opacity="0.96"/>
</linearGradient>
<linearGradient id="paint6_linear_29_1021" x1="6003.46" y1="26242.8" x2="6689.54" y2="24935.4" gradientUnits="userSpaceOnUse">
<stop offset="0.02" stop-color="#D7DDF4"/>
<stop offset="0.18" stop-color="#CDD3ED"/>
<stop offset="0.7" stop-color="#AEB4DA"/>
<stop offset="1" stop-color="#A3A9D3"/>
</linearGradient>
<linearGradient id="paint7_linear_29_1021" x1="44964.1" y1="21093.6" x2="61453.4" y2="21093.6" gradientUnits="userSpaceOnUse">
<stop stop-color="#627BFD" stop-opacity="0"/>
<stop offset="0.05" stop-color="#627BFD" stop-opacity="0.05"/>
<stop offset="0.52" stop-color="#627BFD" stop-opacity="0.53"/>
<stop offset="0.85" stop-color="#627BFD" stop-opacity="0.84"/>
<stop offset="1" stop-color="#627BFD" stop-opacity="0.96"/>
</linearGradient>
<linearGradient id="paint8_linear_29_1021" x1="18499.4" y1="22250.3" x2="20515.4" y2="19527.1" gradientUnits="userSpaceOnUse">
<stop offset="0.02" stop-color="#D7DDF4"/>
<stop offset="0.18" stop-color="#CDD3ED"/>
<stop offset="0.7" stop-color="#AEB4DA"/>
<stop offset="1" stop-color="#A3A9D3"/>
</linearGradient>
<linearGradient id="paint9_linear_29_1021" x1="879.53" y1="12249.6" x2="3640.97" y2="12249.6" gradientUnits="userSpaceOnUse">
<stop stop-color="#627BFD" stop-opacity="0"/>
<stop offset="0.05" stop-color="#627BFD" stop-opacity="0.05"/>
<stop offset="0.52" stop-color="#627BFD" stop-opacity="0.53"/>
<stop offset="0.85" stop-color="#627BFD" stop-opacity="0.84"/>
<stop offset="1" stop-color="#627BFD" stop-opacity="0.96"/>
</linearGradient>
<linearGradient id="paint10_linear_29_1021" x1="8732.08" y1="9305.26" x2="9098.76" y2="9305.26" gradientUnits="userSpaceOnUse">
<stop offset="0.02" stop-color="#D7DDF4"/>
<stop offset="0.18" stop-color="#CDD3ED"/>
<stop offset="0.7" stop-color="#AEB4DA"/>
<stop offset="1" stop-color="#A3A9D3"/>
</linearGradient>
<linearGradient id="paint11_linear_29_1021" x1="4127.64" y1="23272.6" x2="5009.52" y2="21812.5" gradientUnits="userSpaceOnUse">
<stop offset="0.02" stop-color="#D7DDF4"/>
<stop offset="0.18" stop-color="#CDD3ED"/>
<stop offset="0.7" stop-color="#AEB4DA"/>
<stop offset="1" stop-color="#A3A9D3"/>
</linearGradient>
<linearGradient id="paint12_linear_29_1021" x1="9307.15" y1="14812.1" x2="10189" y2="13352.3" gradientUnits="userSpaceOnUse">
<stop offset="0.02" stop-color="#D7DDF4"/>
<stop offset="0.18" stop-color="#CDD3ED"/>
<stop offset="0.7" stop-color="#AEB4DA"/>
<stop offset="1" stop-color="#A3A9D3"/>
</linearGradient>
<linearGradient id="paint13_linear_29_1021" x1="13667.5" y1="17602.2" x2="14136" y2="16826.7" gradientUnits="userSpaceOnUse">
<stop offset="0.02" stop-color="#D7DDF4"/>
<stop offset="0.18" stop-color="#CDD3ED"/>
<stop offset="0.7" stop-color="#AEB4DA"/>
<stop offset="1" stop-color="#A3A9D3"/>
</linearGradient>
<linearGradient id="paint14_linear_29_1021" x1="23805.4" y1="56253.1" x2="53366.6" y2="56253.1" gradientUnits="userSpaceOnUse">
<stop offset="0.02" stop-color="#D7DDF4"/>
<stop offset="0.18" stop-color="#CDD3ED"/>
<stop offset="0.7" stop-color="#AEB4DA"/>
<stop offset="1" stop-color="#A3A9D3"/>
</linearGradient>
<linearGradient id="paint15_linear_29_1021" x1="67.6152" y1="189.607" x2="184.272" y2="189.607" gradientUnits="userSpaceOnUse">
<stop stop-color="#627BFD" stop-opacity="0"/>
<stop offset="0.13" stop-color="#627BFD" stop-opacity="0.02"/>
<stop offset="0.26" stop-color="#627BFD" stop-opacity="0.06"/>
<stop offset="0.39" stop-color="#627BFD" stop-opacity="0.14"/>
<stop offset="0.51" stop-color="#627BFD" stop-opacity="0.25"/>
<stop offset="0.64" stop-color="#627BFD" stop-opacity="0.4"/>
<stop offset="0.77" stop-color="#627BFD" stop-opacity="0.57"/>
<stop offset="0.9" stop-color="#627BFD" stop-opacity="0.78"/>
<stop offset="1" stop-color="#627BFD" stop-opacity="0.96"/>
</linearGradient>
<linearGradient id="paint16_linear_29_1021" x1="173.998" y1="195.624" x2="126.379" y2="-10.2919" gradientUnits="userSpaceOnUse">
<stop stop-color="#627BFD"/>
<stop offset="0.07" stop-color="#627BFD" stop-opacity="0.98"/>
<stop offset="0.16" stop-color="#627BFD" stop-opacity="0.92"/>
<stop offset="0.25" stop-color="#627BFD" stop-opacity="0.82"/>
<stop offset="0.36" stop-color="#627BFD" stop-opacity="0.68"/>
<stop offset="0.46" stop-color="#627BFD" stop-opacity="0.5"/>
<stop offset="0.57" stop-color="#627BFD" stop-opacity="0.29"/>
<stop offset="0.69" stop-color="#627BFD" stop-opacity="0.03"/>
<stop offset="0.7" stop-color="#627BFD" stop-opacity="0"/>
</linearGradient>
<linearGradient id="paint17_linear_29_1021" x1="362409" y1="111908" x2="397447" y2="111908" gradientUnits="userSpaceOnUse">
<stop offset="0.02" stop-color="#D7DDF4"/>
<stop offset="0.18" stop-color="#CDD3ED"/>
<stop offset="0.7" stop-color="#AEB4DA"/>
<stop offset="1" stop-color="#A3A9D3"/>
</linearGradient>
<linearGradient id="paint18_linear_29_1021" x1="21582.7" y1="32966.1" x2="32831.1" y2="32966.1" gradientUnits="userSpaceOnUse">
<stop stop-color="#627BFD" stop-opacity="0"/>
<stop offset="0.05" stop-color="#627BFD" stop-opacity="0.05"/>
<stop offset="0.52" stop-color="#627BFD" stop-opacity="0.53"/>
<stop offset="0.85" stop-color="#627BFD" stop-opacity="0.84"/>
<stop offset="1" stop-color="#627BFD" stop-opacity="0.96"/>
</linearGradient>
<linearGradient id="paint19_linear_29_1021" x1="9357.66" y1="33384.3" x2="10732.9" y2="31526.5" gradientUnits="userSpaceOnUse">
<stop offset="0.02" stop-color="#D7DDF4"/>
<stop offset="0.18" stop-color="#CDD3ED"/>
<stop offset="0.7" stop-color="#AEB4DA"/>
<stop offset="1" stop-color="#A3A9D3"/>
</linearGradient>
<clipPath id="clip0_29_1021">
<rect width="277" height="291.494" fill="white"/>
</clipPath>
</defs>
</svg>
