<svg width="197" height="126" viewBox="0 0 197 126" fill="none" xmlns="http://www.w3.org/2000/svg">
<g clip-path="url(#clip0_29_2437)">
<path style="mix-blend-mode:multiply" opacity="0.6" d="M51.8066 109.178L0 92.8132L47.6791 68.4199L93.7679 84.9515L51.8066 109.178Z" fill="url(#paint0_linear_29_2437)"/>
<path style="mix-blend-mode:multiply" opacity="0.37" d="M123.078 111.158L109.742 105.152L107.74 108.155L75.1719 96.2213L96.798 83.3066L123.821 96.5189L123.078 111.158Z" fill="url(#paint1_linear_29_2437)"/>
<path d="M58.6641 102.222V105.152L96.7971 83.3071L94.3863 80.0742L58.6641 102.222Z" fill="#DCE6F4" stroke="#627BFD" stroke-miterlimit="10"/>
<path opacity="0.51" d="M58.6641 102.222V105.152L96.7971 83.3071L94.3863 80.0742L58.6641 102.222Z" fill="#4D4F80"/>
<path d="M58.6641 102.221L100.025 78.5234L83.1437 82.5862L63.1371 95.3111L58.6641 102.221Z" fill="#ADB3DB" stroke="#7D83AF" stroke-width="2" stroke-miterlimit="10"/>
<path d="M104.199 55.9218L119.026 64.4822V16.9805L104.199 8.43555V55.9218Z" fill="url(#paint2_linear_29_2437)"/>
<path d="M132.384 9.33053L117.555 0.787109L104.199 8.43593L119.026 16.9809L132.384 9.33053Z" fill="#F3F7FF"/>
<path d="M132.384 9.33053L117.555 0.787109L104.199 8.43593L119.026 16.9809L132.384 9.33053Z" fill="#F3F7FF"/>
<path opacity="0.6" d="M104.199 13.6015L119.026 22.5598L132.384 14.9681" stroke="#7D83AF" stroke-width="0.75" stroke-miterlimit="10"/>
<path d="M116.024 18.9085C117.542 21.9223 118.483 25.6318 118.706 29.9737C119.323 41.9537 114.335 55.8076 106.314 66.8004V72.0955L132.381 56.8163V9.33008L116.024 18.9085Z" fill="#DCE6F4"/>
<path opacity="0.5" d="M111.361 28.4138V32.9501L137.647 17.8067V13.0098L111.361 28.4138Z" fill="#ADB3DB"/>
<path opacity="0.5" d="M111.361 34.6483V39.1845L137.647 24.0411V19.2442L111.361 34.6483Z" fill="#858EBA"/>
<path opacity="0.5" d="M112.447 44.1966V48.7329L138.733 33.5879V28.791L112.447 44.1966Z" fill="#858EBA"/>
<path opacity="0.5" d="M112.447 55.9041V60.4403L138.733 45.2969V40.5L112.447 55.9041Z" fill="#ADB3DB"/>
<path opacity="0.51" d="M112.447 50.4373V54.9735L138.733 39.8301V35.0332L112.447 50.4373Z" fill="white"/>
<path d="M100.875 10.3655C102.393 13.3793 103.332 17.0888 103.556 21.4307C104.173 33.4106 99.1846 47.2646 91.1641 58.2574V63.5525L117.231 48.2733V0.787109L100.875 10.3655Z" fill="#DCE6F4"/>
<path d="M100.873 10.3655L116.023 18.9089L132.383 9.33053L117.233 0.787109L100.873 10.3655Z" fill="#F3F7FF"/>
<path d="M91.1641 58.2689C99.1846 47.2761 104.174 33.4221 103.556 21.4422C103.332 17.1003 102.393 13.3908 100.875 10.377L116.023 18.9096C117.541 21.9235 118.482 25.633 118.705 29.9749C119.322 41.9548 114.334 55.8087 106.314 66.8015L91.1641 58.2689Z" fill="url(#paint3_linear_29_2437)"/>
<path d="M105.49 27.222V27.1433C105.49 26.6374 105.47 26.133 105.444 25.6333C104.486 7.03331 90.3852 -0.0062561 73.9477 9.90066C57.5102 19.8076 44.9627 42.9283 45.9205 61.5267V98.5909L105.492 63.8095V28.078C105.493 27.7927 105.493 27.5088 105.49 27.222ZM74.796 26.352C83.2068 21.2791 90.4237 24.8821 90.9142 34.3988C91.4047 43.9155 84.9837 55.7442 76.5698 60.8172C68.1559 65.8902 60.9436 62.2871 60.4531 52.7705C59.9626 43.2538 66.3806 31.4281 74.7929 26.3551L74.796 26.352Z" fill="url(#paint4_linear_29_2437)"/>
<path d="M80.4485 31.172C88.8592 26.099 96.0747 29.7021 96.5651 39.2203C97.0556 48.7386 90.6346 60.5658 82.2207 65.6388C73.8068 70.7118 66.593 67.1087 66.1025 57.5904C65.612 48.0722 72.0362 36.245 80.4485 31.172Z" stroke="#4A63CE" stroke-width="12" stroke-miterlimit="10"/>
<path d="M118.288 34.0293V62.3742L58.7168 97.1541V68.4205L89.0915 74.7644L118.288 34.0293Z" fill="#DCE6F4"/>
<path d="M58.7161 105.485V68.4205C57.7582 49.8221 70.3057 26.7075 86.7432 16.7944C95.2635 11.6551 103.158 11.072 108.917 14.2941L95.8064 7.2407L96.1859 7.39494C90.4266 4.17284 82.5324 4.75586 74.0122 9.89518C57.5747 19.8083 45.0271 42.9229 45.985 61.5213V98.5854L58.7161 105.485Z" fill="url(#paint5_linear_29_2437)"/>
<path d="M58.6644 105.152L51.5215 109.142V63.7994L58.6644 59.8262V105.152Z" fill="#DCE6F4"/>
<path d="M36.6934 100.579L51.5206 109.141V63.7989L36.6934 55.2539V100.579Z" fill="url(#paint6_linear_29_2437)"/>
<path d="M58.6635 59.8266L43.8363 51.2832L36.6934 55.2549L51.5206 63.7999L58.6635 59.8266Z" fill="#F3F7FF"/>
<path d="M58.6635 59.8266L43.8363 51.2832L36.6934 55.2549L51.5206 63.7999L58.6635 59.8266Z" fill="#F3F7FF"/>
<path opacity="0.6" d="M36.6934 60.4199L51.5206 69.3783L58.6635 65.4636" stroke="#7D83AF" stroke-width="0.75" stroke-miterlimit="10"/>
<path d="M61.5869 98.6903L58.6641 102.221V59.8262L61.5869 98.6903Z" fill="url(#paint7_linear_29_2437)"/>
<path d="M61.5872 98.6906L117.234 66.5359L109.194 68.9699L74.0144 82.1976L58.7168 60.6562L61.5872 98.6906Z" fill="#DCE6F4"/>
<path d="M118.241 32.5216C117.283 13.9232 103.182 6.88211 86.7446 16.789C70.3071 26.6959 57.7596 49.8167 58.7174 68.4151C59.6752 87.0135 73.7775 94.0562 90.2135 84.1477C106.649 74.2393 119.198 51.12 118.241 32.5216ZM89.3636 67.704C80.9528 72.777 73.7359 69.174 73.2469 59.6573C72.758 50.1406 79.1775 38.3118 87.5914 33.2388C96.0052 28.1658 103.219 31.7689 103.71 41.2856C104.2 50.8023 97.7774 62.631 89.3636 67.704Z" fill="#DCE6F4" stroke="#627BFD" stroke-miterlimit="10"/>
<path d="M87.6286 19.8448C87.6286 19.8448 90.6887 17.994 92.6892 18.3425V20.6562C92.6892 20.6562 91.2764 24.6849 87.6286 26.7919C83.9808 28.8988 82.5664 26.5004 82.5664 26.5004V24.1868C84.5669 21.5307 87.6286 19.8448 87.6286 19.8448Z" fill="#4D4F80"/>
<path d="M70.4119 40.1185L72.525 38.8984V41.3462L74.632 40.1216V42.6079L72.525 43.7786V46.2187L70.4119 47.4388V44.9987L68.2988 46.2187V43.7786L70.3749 42.5478L70.4119 40.1185Z" fill="#ADB3DB"/>
<path d="M104.974 20.4368L107.088 19.2168V21.6646L109.194 20.4399V22.9263L107.088 24.097V26.5371L104.974 27.7571V25.317L102.861 26.5371V24.097L104.937 22.8677L104.974 20.4368Z" fill="#ADB3DB"/>
<path d="M84.5449 29.6934V30.9381L91.7542 26.7844V25.4688L84.5449 29.6934Z" fill="#627BFD"/>
<path d="M102.688 105.601V101.029L123.07 112.94L125.344 117.66L124.474 118.459L102.688 105.601Z" fill="url(#paint8_linear_29_2437)"/>
<path d="M102.688 101.03L123.385 89.1211L137.123 104.838L123.07 112.941L102.688 101.03Z" fill="#DCE6F4"/>
<path d="M105.762 101.041L123.057 91.0898L134.728 104.439L123.077 111.158L105.762 101.041Z" fill="url(#paint9_linear_29_2437)"/>
<path d="M137.976 104.345L141.721 107.961L125.342 117.658L123.07 112.94L140.344 102.98" fill="#DCE6F4"/>
<path d="M49.586 88.9129L38.1367 82.1973" stroke="#858EBA" stroke-width="2" stroke-miterlimit="10"/>
<path d="M49.586 91.0946L38.1367 84.3789" stroke="#858EBA" stroke-width="2" stroke-miterlimit="10"/>
<path d="M49.586 93.3606L38.1367 86.6465" stroke="#858EBA" stroke-width="2" stroke-miterlimit="10"/>
<path d="M49.586 82.3153L38.1367 75.5996" stroke="#858EBA" stroke-width="2" stroke-miterlimit="10"/>
<path d="M49.586 84.4969L38.1367 77.7812" stroke="#858EBA" stroke-width="2" stroke-miterlimit="10"/>
<path d="M49.586 86.7629L38.1367 80.0488" stroke="#858EBA" stroke-width="2" stroke-miterlimit="10"/>
<path d="M49.586 95.5438L38.1367 88.8281" stroke="#858EBA" stroke-width="2" stroke-miterlimit="10"/>
<path d="M49.586 97.6942L38.1367 90.9785" stroke="#858EBA" stroke-width="2" stroke-miterlimit="10"/>
<path d="M49.586 99.8743L38.1367 93.1602" stroke="#858EBA" stroke-width="2" stroke-miterlimit="10"/>
<path d="M49.586 102.141L38.1367 95.4258" stroke="#858EBA" stroke-width="2" stroke-miterlimit="10"/>
<path d="M49.586 104.325L38.1367 97.6094" stroke="#858EBA" stroke-width="2" stroke-miterlimit="10"/>
<path d="M86.7409 16.7949C82.5085 19.6592 78.7651 23.1373 75.4566 26.9748C70.5229 32.7592 66.5121 39.271 63.5661 46.2797C63.0726 47.4437 62.6134 48.6221 62.1888 49.8149C61.9651 50.4056 61.7816 51.0118 61.5718 51.6118C61.362 52.2118 61.1908 52.8165 61.0057 53.4226C59.5851 58.2781 58.7168 63.3156 58.706 68.4272C58.4613 65.8744 58.468 63.3037 58.7261 60.7521L58.8294 59.7943C58.8602 59.475 58.9065 59.1573 58.9543 58.8396C59.0515 58.2041 59.1302 57.5655 59.2551 56.9362C59.38 56.3069 59.4818 55.6699 59.6314 55.0437C59.781 54.4175 59.906 53.7866 60.0772 53.1681C60.3857 51.9198 60.7456 50.6859 61.1569 49.4663C61.5579 48.2447 62.0006 47.0355 62.4756 45.8401C64.3936 41.0566 66.8749 36.5187 69.8669 32.3224C71.3606 30.2265 72.986 28.2276 74.7332 26.3378C75.1651 25.8643 75.6232 25.4124 76.0659 24.9497C76.5085 24.487 76.9913 24.0505 77.454 23.6047C77.6838 23.3795 77.9275 23.1697 78.1666 22.9553L78.8854 22.3137C79.1214 22.0962 79.3713 21.8957 79.618 21.6967L80.3599 21.0797C82.3508 19.4586 84.4869 18.0243 86.7409 16.7949Z" fill="white"/>
<path d="M87.5898 33.2377L88.3132 32.795C88.5585 32.6546 88.8084 32.522 89.0567 32.3847C89.305 32.2474 89.5657 32.1364 89.8279 32.0115C90.0901 31.8865 90.3492 31.7893 90.6099 31.6783C91.6699 31.252 92.782 30.9688 93.9168 30.8361C94.4879 30.7739 95.0632 30.7595 95.6366 30.7929L96.067 30.8377L96.2829 30.8608L96.4957 30.8978L96.9214 30.9734L97.3426 31.0814L97.5523 31.1369L97.759 31.2063C97.8947 31.2541 98.0335 31.2989 98.1693 31.3513C98.4382 31.4603 98.7013 31.5834 98.9574 31.7199C99.4734 31.99 99.9572 32.3175 100.4 32.6963L100.725 32.9878C100.835 33.0834 100.929 33.1945 101.033 33.2963C101.235 33.5056 101.426 33.7255 101.604 33.9549C101.698 34.0659 101.775 34.1893 101.862 34.3066C101.948 34.4238 102.035 34.541 102.106 34.6675C102.26 34.9158 102.414 35.1595 102.537 35.4217C103.065 36.4511 103.451 37.5476 103.683 38.6809C103.915 39.8077 104.034 40.9546 104.04 42.105C104.049 43.2503 103.975 44.3948 103.816 45.5291C103.488 47.7907 102.898 50.0065 102.059 52.1322C101.229 54.255 100.192 56.2905 98.9621 58.2093C97.7373 60.127 96.3173 61.9128 94.725 63.5384C93.923 64.3414 93.0747 65.0969 92.1847 65.8011C91.742 66.1543 91.2808 66.4859 90.815 66.8067C90.5775 66.961 90.3431 67.1152 90.1024 67.2694L89.3729 67.7029C91.261 66.4669 92.9856 64.9977 94.506 63.3302C95.2705 62.5046 95.9913 61.6397 96.6654 60.7389C97.3364 59.8381 97.978 58.9158 98.558 57.9548C99.1379 56.9939 99.6823 56.0114 100.182 55.0073C100.682 54.0032 101.123 52.9713 101.519 51.9224C102.33 49.8347 102.899 47.6612 103.216 45.4443C103.524 43.2371 103.557 40.9713 103.124 38.7981C102.915 37.7122 102.561 36.6595 102.07 35.6685C101.583 34.6816 100.913 33.7957 100.097 33.0572C99.6879 32.6919 99.2388 32.3737 98.7584 32.1086C98.519 31.9745 98.2729 31.8525 98.0212 31.7431C97.8932 31.6922 97.7636 31.6475 97.6356 31.5981L97.4412 31.524L97.2438 31.467L96.8459 31.3528L96.4402 31.268L96.2382 31.2264L96.033 31.1986L95.6212 31.1431C95.067 31.096 94.51 31.093 93.9553 31.1338C92.8372 31.2187 91.7355 31.4527 90.6793 31.8295C90.4171 31.9282 90.1518 32.0223 89.8911 32.1271C89.6304 32.232 89.3713 32.3477 89.1199 32.4649C88.8685 32.5821 88.6094 32.7071 88.358 32.8351L87.5898 33.2377Z" fill="white"/>
<path opacity="0.3" d="M123.076 111.158L129.568 115.158L140.273 108.82L133.449 104.902L123.076 111.158Z" fill="#4D4F80"/>
<path style="mix-blend-mode:multiply" opacity="0.37" d="M151.65 114.771L132.564 125.79L64.166 100.737L65.1501 98.2152L66.0832 96.1329L71.6328 87.6589L73.3896 86.917L80.5341 69.5957L151.65 114.771Z" fill="url(#paint10_linear_29_2437)"/>
<path d="M80.6914 69.9815L108.612 53.7168L197 104.855L168.868 120.89L80.6914 69.9815Z" fill="#F3F7FF"/>
<path d="M89.0095 68.2505L105.368 58.72C106.355 58.1451 107.477 57.8415 108.619 57.8399C109.762 57.8382 110.884 58.1386 111.873 58.7107L188.609 103.109C188.911 103.284 189.162 103.535 189.335 103.838C189.509 104.14 189.6 104.483 189.599 104.832C189.598 105.181 189.505 105.523 189.329 105.825C189.154 106.126 188.901 106.376 188.598 106.549L172.105 115.948C171.123 116.508 170.011 116.801 168.88 116.798C167.75 116.795 166.639 116.496 165.66 115.931L89.0157 71.6809C88.7151 71.507 88.4654 71.2572 88.2916 70.9565C88.1178 70.6558 88.026 70.3148 88.0254 69.9675C88.0248 69.6202 88.1153 69.2788 88.288 68.9775C88.4608 68.6762 88.7095 68.4255 89.0095 68.2505Z" fill="#627BFD" stroke="#627BFD" stroke-miterlimit="10"/>
<path d="M89.7777 67.0166L106.137 57.4875C107.124 56.9127 108.245 56.6091 109.388 56.6074C110.53 56.6058 111.652 56.9062 112.641 57.4783L189.377 101.875C189.679 102.05 189.93 102.301 190.104 102.603C190.278 102.906 190.369 103.248 190.367 103.597C190.366 103.946 190.273 104.288 190.098 104.59C189.922 104.891 189.67 105.14 189.367 105.313L172.874 114.714C171.891 115.274 170.779 115.567 169.648 115.563C168.517 115.56 167.407 115.261 166.428 114.696L89.7839 70.4453C89.4836 70.2713 89.2343 70.0216 89.0607 69.7211C88.8872 69.4206 88.7955 69.0798 88.7949 68.7327C88.7943 68.3857 88.8847 68.0446 89.0572 67.7434C89.2297 67.4423 89.4781 67.1917 89.7777 67.0166Z" fill="#8FA4F7"/>
<path d="M168.867 120.89V125.24C168.867 125.24 175.228 126.937 184.754 120.89C194.28 114.844 196.995 109.364 196.995 109.364L196.919 104.855L168.867 120.89Z" fill="#DCE6F4"/>
<path d="M168.867 125.237L80.3652 74.4195V69.9805L168.867 120.889V125.237Z" fill="url(#paint11_linear_29_2437)"/>
<path d="M168.868 125.239C168.835 123.789 168.82 122.339 168.797 120.89V120.846L168.832 120.825L172.32 118.786L174.064 117.768L175.815 116.761L179.316 114.745L181.067 113.737L182.824 112.741C185.166 111.416 187.502 110.074 189.857 108.766C192.212 107.458 194.56 106.144 196.924 104.852C194.614 106.237 192.294 107.604 189.965 108.954C187.642 110.319 185.302 111.651 182.97 112.997L181.219 114.006L179.463 115.002L175.951 116.997L174.194 117.993L172.431 118.978L168.903 120.948L168.94 120.886C168.916 122.339 168.902 123.789 168.868 125.239Z" fill="#858EBA"/>
<path style="mix-blend-mode:multiply" opacity="0.6" d="M107.148 73.8805L89.7773 67.0168L103.733 58.8867L108.917 60.6559L107.148 73.8805Z" fill="url(#paint12_linear_29_2437)"/>
<path d="M95.0391 66.8015L107.149 73.8796L119.833 66.8879L107.435 59.7188L95.0391 66.8015Z" fill="#FF7F0B"/>
<path d="M95.0391 65.5941L107.149 72.6722L119.833 65.6789L107.435 58.5098L95.0391 65.5941Z" fill="#FFA766"/>
<path d="M95.0391 65.5938V66.8015L107.149 73.8796V72.6719L95.0391 65.5938Z" fill="#FF7F0B"/>
<path d="M119.833 65.6797V66.8889L107.148 73.8807V72.673L119.833 65.6797Z" fill="#F9923E"/>
</g>
<defs>
<linearGradient id="paint0_linear_29_2437" x1="0" y1="88.7983" x2="93.7679" y2="88.7983" gradientUnits="userSpaceOnUse">
<stop stop-color="#627BFD" stop-opacity="0"/>
<stop offset="0.05" stop-color="#627BFD" stop-opacity="0.05"/>
<stop offset="0.52" stop-color="#627BFD" stop-opacity="0.53"/>
<stop offset="0.85" stop-color="#627BFD" stop-opacity="0.84"/>
<stop offset="1" stop-color="#627BFD" stop-opacity="0.96"/>
</linearGradient>
<linearGradient id="paint1_linear_29_2437" x1="75.1719" y1="97.2315" x2="123.821" y2="97.2315" gradientUnits="userSpaceOnUse">
<stop stop-color="#627BFD" stop-opacity="0"/>
<stop offset="0.09" stop-color="#627BFD" stop-opacity="0.05"/>
<stop offset="0.27" stop-color="#627BFD" stop-opacity="0.19"/>
<stop offset="0.5" stop-color="#627BFD" stop-opacity="0.41"/>
<stop offset="0.79" stop-color="#627BFD" stop-opacity="0.71"/>
<stop offset="1" stop-color="#627BFD" stop-opacity="0.96"/>
</linearGradient>
<linearGradient id="paint2_linear_29_2437" x1="98.5031" y1="62.5048" x2="125.224" y2="9.41806" gradientUnits="userSpaceOnUse">
<stop offset="0.02" stop-color="#D7DDF4"/>
<stop offset="0.18" stop-color="#CDD3ED"/>
<stop offset="0.7" stop-color="#AEB4DA"/>
<stop offset="1" stop-color="#A3A9D3"/>
</linearGradient>
<linearGradient id="paint3_linear_29_2437" x1="115570" y1="142573" x2="115570" y2="121931" gradientUnits="userSpaceOnUse">
<stop offset="0.02" stop-color="#D7DDF4"/>
<stop offset="0.18" stop-color="#CDD3ED"/>
<stop offset="0.7" stop-color="#AEB4DA"/>
<stop offset="1" stop-color="#A3A9D3"/>
</linearGradient>
<linearGradient id="paint4_linear_29_2437" x1="226735" y1="226496" x2="249783" y2="226496" gradientUnits="userSpaceOnUse">
<stop offset="0.02" stop-color="#D7DDF4"/>
<stop offset="0.18" stop-color="#CDD3ED"/>
<stop offset="0.7" stop-color="#AEB4DA"/>
<stop offset="1" stop-color="#A3A9D3"/>
</linearGradient>
<linearGradient id="paint5_linear_29_2437" x1="45.9325" y1="55.4442" x2="108.917" y2="55.4442" gradientUnits="userSpaceOnUse">
<stop stop-color="#A3A9D3"/>
<stop offset="0.3" stop-color="#AEB4DA"/>
<stop offset="0.82" stop-color="#CDD3ED"/>
<stop offset="0.98" stop-color="#D7DDF4"/>
</linearGradient>
<linearGradient id="paint6_linear_29_2437" x1="3072.57" y1="37192.7" x2="12421.4" y2="32081.9" gradientUnits="userSpaceOnUse">
<stop offset="0.02" stop-color="#D7DDF4"/>
<stop offset="0.18" stop-color="#CDD3ED"/>
<stop offset="0.7" stop-color="#AEB4DA"/>
<stop offset="1" stop-color="#A3A9D3"/>
</linearGradient>
<linearGradient id="paint7_linear_29_2437" x1="1198.06" y1="27939.9" x2="1198.06" y2="16287.3" gradientUnits="userSpaceOnUse">
<stop offset="0.02" stop-color="#D7DDF4"/>
<stop offset="0.18" stop-color="#CDD3ED"/>
<stop offset="0.7" stop-color="#AEB4DA"/>
<stop offset="1" stop-color="#A3A9D3"/>
</linearGradient>
<linearGradient id="paint8_linear_29_2437" x1="96252.8" y1="49975.2" x2="96252.8" y2="48005.7" gradientUnits="userSpaceOnUse">
<stop offset="0.02" stop-color="#D7DDF4"/>
<stop offset="0.18" stop-color="#CDD3ED"/>
<stop offset="0.7" stop-color="#AEB4DA"/>
<stop offset="1" stop-color="#A3A9D3"/>
</linearGradient>
<linearGradient id="paint9_linear_29_2437" x1="22687.8" y1="14451.4" x2="22687.8" y2="11840.3" gradientUnits="userSpaceOnUse">
<stop offset="0.02" stop-color="#D7DDF4"/>
<stop offset="0.18" stop-color="#CDD3ED"/>
<stop offset="0.7" stop-color="#AEB4DA"/>
<stop offset="1" stop-color="#A3A9D3"/>
</linearGradient>
<linearGradient id="paint10_linear_29_2437" x1="61268" y1="45612" x2="61268" y2="25138.6" gradientUnits="userSpaceOnUse">
<stop stop-color="#627BFD" stop-opacity="0"/>
<stop offset="0.09" stop-color="#627BFD" stop-opacity="0.05"/>
<stop offset="0.27" stop-color="#627BFD" stop-opacity="0.19"/>
<stop offset="0.5" stop-color="#627BFD" stop-opacity="0.41"/>
<stop offset="0.79" stop-color="#627BFD" stop-opacity="0.71"/>
<stop offset="1" stop-color="#627BFD" stop-opacity="0.96"/>
</linearGradient>
<linearGradient id="paint11_linear_29_2437" x1="46193.5" y1="34756.4" x2="96975.1" y2="34756.4" gradientUnits="userSpaceOnUse">
<stop stop-color="#A3A9D3"/>
<stop offset="0.3" stop-color="#AEB4DA"/>
<stop offset="0.82" stop-color="#CDD3ED"/>
<stop offset="0.98" stop-color="#D7DDF4"/>
</linearGradient>
<linearGradient id="paint12_linear_29_2437" x1="11230.3" y1="6435.6" x2="13605.4" y2="6435.6" gradientUnits="userSpaceOnUse">
<stop stop-color="#627BFD" stop-opacity="0"/>
<stop offset="0.05" stop-color="#627BFD" stop-opacity="0.05"/>
<stop offset="0.52" stop-color="#627BFD" stop-opacity="0.53"/>
<stop offset="0.85" stop-color="#627BFD" stop-opacity="0.84"/>
<stop offset="1" stop-color="#627BFD" stop-opacity="0.96"/>
</linearGradient>
<clipPath id="clip0_29_2437">
<rect width="197" height="125.003" fill="white" transform="translate(0 0.787109)"/>
</clipPath>
</defs>
</svg>
