<svg width="222" height="168" viewBox="0 0 222 168" fill="none" xmlns="http://www.w3.org/2000/svg">
<g clip-path="url(#clip0_2_511)">
<path d="M58.4694 91.7692L45.2007 99.5745V44.1039L58.4694 36.3159V91.7692Z" fill="white" stroke="#4A63CE" stroke-width="0.962197" stroke-linecap="round" stroke-linejoin="round"/>
<path d="M56.907 50.8872L46.7635 56.8548V49.5305L56.907 43.5764V50.8872Z" fill="white" stroke="#FF7F0B" stroke-width="0.577318" stroke-linecap="round" stroke-linejoin="round"/>
<path d="M56.907 60.0214L46.7635 65.989V58.6628L56.907 52.7107V60.0214Z" fill="white" stroke="#FF7F0B" stroke-width="0.577318" stroke-linecap="round" stroke-linejoin="round"/>
<path d="M28.7898 90.0992L45.2029 99.5749V44.1043L28.7898 34.6459V90.0992Z" fill="white" stroke="#4A63CE" stroke-width="0.962197" stroke-linecap="round" stroke-linejoin="round"/>
<path d="M58.4716 36.316L42.0604 26.8595L28.7898 34.6456L45.2029 44.104L58.4716 36.316Z" fill="white" stroke="#4A63CE" stroke-width="0.384879" stroke-linecap="round" stroke-linejoin="round"/>
<path d="M58.4716 36.316L42.0604 26.8595L28.7898 34.6456L45.2029 44.104L58.4716 36.316Z" fill="white" stroke="#4A63CE" stroke-width="0.962197" stroke-linecap="round" stroke-linejoin="round"/>
<path d="M31.9073 34.6343L42.0662 28.6725L55.3522 36.3277L45.1934 42.2895L31.9073 34.6343Z" fill="white" stroke="#4A63CE" stroke-width="0.384879" stroke-linecap="round" stroke-linejoin="round"/>
<path d="M31.6608 34.6343L41.8216 28.6725L55.1076 36.3277L44.9468 42.2895L31.6608 34.6343Z" fill="white" stroke="#4A63CE" stroke-width="0.384879" stroke-linecap="round" stroke-linejoin="round"/>
<path d="M31.6608 33.0673L41.8216 27.1036L55.1076 34.7608L44.9468 40.7226L31.6608 33.0673Z" fill="white" stroke="#4A63CE" stroke-width="0.384879" stroke-linecap="round" stroke-linejoin="round"/>
<path d="M44.9502 40.7247V42.2911L55.111 36.3294V34.7629L44.9502 40.7247Z" fill="white" stroke="#4A63CE" stroke-width="0.384879" stroke-linecap="round" stroke-linejoin="round"/>
<path d="M31.6608 33.0684V34.6348L44.9468 42.2901V40.7236L31.6608 33.0684Z" fill="white" stroke="#4A63CE" stroke-width="0.384879" stroke-linecap="round" stroke-linejoin="round"/>
<path d="M41.0061 92.7261C41.9608 92.1839 42.0009 90.4521 41.0956 88.8578C40.1903 87.2636 38.6825 86.4107 37.7278 86.9528C36.7731 87.4949 36.733 89.2268 37.6383 90.821C38.5436 92.4153 40.0514 93.2682 41.0061 92.7261Z" fill="#4A63CE" stroke="#4A63CE" stroke-width="0.384879" stroke-linecap="round" stroke-linejoin="round"/>
<path d="M40.2711 91.4222C40.7942 91.1252 40.8158 90.1756 40.3194 89.3013C39.8229 88.427 38.9964 87.9591 38.4733 88.2561C37.9502 88.5531 37.9286 89.5027 38.4251 90.377C38.9215 91.2513 39.748 91.7192 40.2711 91.4222Z" fill="white" stroke="#4A63CE" stroke-width="0.384879" stroke-linecap="round" stroke-linejoin="round"/>
<path d="M64.1208 21.2357L216.973 109.198C217.63 109.577 218.175 110.122 218.554 110.778C218.934 111.435 219.133 112.18 219.133 112.938C219.133 113.696 218.934 114.441 218.554 115.097C218.175 115.754 217.63 116.299 216.973 116.678L142.906 159.442C140.472 160.847 137.721 161.608 134.911 161.653C132.102 161.698 129.327 161.026 126.85 159.7L119.607 155.82" stroke="#FF7F0B" stroke-width="4.04123" stroke-linecap="round" stroke-linejoin="round"/>
<path d="M69.2466 146.422L83.5525 154.681L103.789 142.999L89.5297 134.712L69.2466 146.422Z" fill="white" stroke="#4A63CE" stroke-width="0.384879" stroke-linecap="round" stroke-linejoin="round"/>
<path d="M84.3858 130.326C85.2979 129.797 86.7816 129.797 87.6996 130.326L125.01 149.268C125.926 149.797 125.241 152.857 124.33 153.386L100.422 167.28C99.5096 167.809 98.0297 167.807 97.1118 167.28L60.4925 146.137C59.5765 145.607 59.3205 143.25 60.2308 142.721" fill="white"/>
<path d="M98.1076 167.774V165.925L57.6337 142.555V144.404" fill="white"/>
<path d="M98.1076 167.774V165.925L57.6337 142.555V144.404" stroke="#4A63CE" stroke-width="0.384879" stroke-linecap="round" stroke-linejoin="round"/>
<path d="M84.3858 130.326C85.2979 129.797 86.7816 129.797 87.6996 130.326L125.01 149.268C125.926 149.797 125.241 152.857 124.33 153.386L100.422 167.28C99.5096 167.809 98.0297 167.807 97.1118 167.28L60.4925 146.137C59.5765 145.607 59.3205 143.25 60.2308 142.721" stroke="#4A63CE" stroke-width="0.384879" stroke-linecap="round" stroke-linejoin="round"/>
<path d="M124.321 149.8C125.237 150.329 125.243 151.189 124.333 151.724L100.424 165.618C99.512 166.147 98.0322 166.146 97.1142 165.618L60.4949 144.467C59.5789 143.938 59.5693 143.08 60.4795 142.543L84.3882 128.649C85.3004 128.119 86.7841 128.119 87.702 128.649L124.321 149.8Z" fill="white" stroke="#4A63CE" stroke-width="0.769757" stroke-linecap="round" stroke-linejoin="round"/>
<path d="M119.865 150.442L86.5555 131.219C86.2439 131.04 85.891 130.946 85.5317 130.946C85.1725 130.946 84.8195 131.04 84.508 131.219L73.0193 137.806C72.941 137.851 72.876 137.916 72.8308 137.995C72.7856 138.073 72.7618 138.162 72.7618 138.252C72.7618 138.343 72.7856 138.432 72.8308 138.51C72.876 138.589 72.941 138.654 73.0193 138.699L106.329 157.922C106.64 158.1 106.993 158.195 107.352 158.195C107.712 158.195 108.065 158.1 108.376 157.922L119.865 151.335C119.943 151.289 120.008 151.224 120.053 151.146C120.099 151.067 120.122 150.979 120.122 150.888C120.122 150.798 120.099 150.709 120.053 150.63C120.008 150.552 119.943 150.487 119.865 150.442V150.442Z" fill="white" stroke="#4A63CE" stroke-width="0.384879" stroke-linecap="round" stroke-linejoin="round"/>
<path d="M133.313 120.63V120.599C133.313 120.588 133.313 120.578 133.313 120.568C133.313 120.559 133.313 120.547 133.313 120.536V120.503V120.47V120.438C133.313 120.426 133.313 120.415 133.303 120.403C133.293 120.391 133.303 120.38 133.303 120.368L133.291 120.334C133.289 120.322 133.286 120.31 133.282 120.299L133.27 120.266C133.267 120.255 133.262 120.244 133.257 120.234L133.245 120.203C133.245 120.191 133.236 120.182 133.232 120.17C133.228 120.159 133.232 120.149 133.216 120.137L133.201 120.105L133.18 120.064C133.168 120.043 133.157 120.022 133.143 120.001L133.101 119.933L133.059 119.872L133.03 119.835C133.022 119.824 133.014 119.814 133.005 119.804L132.98 119.776L132.955 119.747L132.928 119.72C132.92 119.71 132.911 119.701 132.901 119.693L132.872 119.666L132.845 119.641L132.814 119.618L132.787 119.595L132.758 119.575L132.729 119.556L132.702 119.539L93.1235 96.706L93.1023 96.6944L93.0773 96.681L93.0504 96.6694L93.0234 96.6579L92.9984 96.6483H92.9715H92.9465H92.9176H92.8906H92.7983H92.7598C92.7446 96.6503 92.7298 96.6542 92.7155 96.6598C92.6975 96.6666 92.6801 96.6749 92.6636 96.6848L91.6898 97.2506C91.7063 97.2407 91.7237 97.2323 91.7418 97.2256L91.788 97.214C91.8001 97.213 91.8124 97.213 91.8245 97.214H91.9169H91.9458H91.9727H91.9977L92.0247 97.2236H92.0516L92.0766 97.2352L92.1036 97.2467L92.1305 97.2602L92.1498 97.2718L131.692 120.101L131.721 120.118L131.748 120.137L131.777 120.157L131.804 120.178L131.835 120.203L131.863 120.228L131.89 120.255L131.919 120.282L131.944 120.309L131.969 120.338L131.994 120.366L132.019 120.395L132.048 120.434L132.091 120.495L132.135 120.563L132.169 120.626C132.177 120.639 132.184 120.653 132.191 120.667L132.206 120.699L132.221 120.732C132.221 120.744 132.221 120.753 132.235 120.765L132.248 120.796L132.26 120.828L132.271 120.861L132.283 120.896C132.285 120.907 132.288 120.919 132.293 120.93C132.293 120.942 132.293 120.953 132.293 120.965C132.292 120.976 132.292 120.988 132.293 121V121.032V121.065V121.098C132.292 121.109 132.292 121.119 132.293 121.13C132.292 121.141 132.292 121.151 132.293 121.161C132.292 121.171 132.292 121.182 132.293 121.192V121.229C132.294 121.239 132.294 121.249 132.293 121.259C132.294 121.27 132.294 121.28 132.293 121.29C132.293 121.3 132.293 121.311 132.293 121.321V121.354L126.668 150.737V150.76C126.668 150.772 126.668 150.783 126.668 150.795C126.665 150.807 126.662 150.819 126.656 150.83C126.652 150.842 126.647 150.854 126.641 150.866L126.618 150.91C126.589 150.955 126.551 150.992 126.506 151.018L127.48 150.452C127.525 150.426 127.562 150.389 127.589 150.345C127.599 150.331 127.607 150.316 127.614 150.3C127.62 150.289 127.625 150.276 127.63 150.264L127.641 150.229C127.641 150.218 127.641 150.206 127.651 150.194C127.652 150.187 127.652 150.179 127.651 150.171L133.313 120.794V120.763C133.313 120.751 133.313 120.742 133.313 120.73C133.313 120.72 133.313 120.71 133.313 120.699C133.313 120.69 133.313 120.678 133.313 120.669C133.314 120.656 133.314 120.643 133.313 120.63V120.63Z" fill="white" stroke="#4A63CE" stroke-width="0.384879" stroke-linecap="round" stroke-linejoin="round"/>
<path d="M131.697 120.1C132.105 120.337 132.411 120.943 132.332 121.359L126.673 150.737C126.613 151.054 126.346 151.152 126.032 150.972L86.4933 128.144C86.0853 127.908 85.7794 127.303 85.8563 126.886L91.5179 97.51C91.5776 97.1906 91.845 97.0924 92.1549 97.2714L131.697 120.1Z" fill="white" stroke="#4A63CE" stroke-width="0.769757" stroke-linecap="round" stroke-linejoin="round"/>
<path d="M88.2778 126.988C88.2503 126.951 88.2276 126.91 88.2104 126.867L93.3678 100.154L129.931 121.259C129.959 121.296 129.981 121.337 129.997 121.38L124.832 148.093L88.2778 126.988Z" fill="white" stroke="#4A63CE" stroke-width="0.373332" stroke-linecap="round" stroke-linejoin="round"/>
<path d="M94.1603 152.129C94.6471 152.41 94.6491 152.859 94.1603 153.142L87.1593 157.214C86.8887 157.351 86.5893 157.423 86.2856 157.423C85.9819 157.423 85.6826 157.351 85.412 157.214L73.0959 150.176C72.609 149.895 72.6071 149.445 73.0959 149.164L80.1026 145.09C80.3726 144.951 80.6718 144.879 80.9753 144.879C81.2788 144.879 81.5779 144.951 81.848 145.09L94.1603 152.129Z" fill="white" stroke="#4A63CE" stroke-width="0.769757" stroke-linecap="round" stroke-linejoin="round"/>
<path d="M93.2879 85.2518L59.128 105.113C57.024 106.344 54.6282 106.986 52.191 106.974C49.7537 106.963 47.3644 106.297 45.2724 105.046L29.4539 95.5935L39.3741 89.8203" stroke="#4A63CE" stroke-width="0.962197" stroke-linecap="round" stroke-linejoin="round"/>
<path d="M31.0137 104.113L17.7431 111.921V56.448L31.0137 48.66V104.113Z" fill="white" stroke="#4A63CE" stroke-width="0.962197" stroke-linecap="round" stroke-linejoin="round"/>
<path d="M29.4593 63.2328L19.3177 69.2003V61.8741L29.4593 55.922V63.2328Z" fill="white" stroke="#FF7F0B" stroke-width="0.577318" stroke-linecap="round" stroke-linejoin="round"/>
<path d="M29.4593 72.3656L19.3177 78.3331V71.0069L29.4593 65.0548V72.3656Z" fill="white" stroke="#FF7F0B" stroke-width="0.577318" stroke-linecap="round" stroke-linejoin="round"/>
<path d="M1.34009 102.445L17.7513 111.921V56.448L1.34009 46.9915V102.445Z" fill="white" stroke="#4A63CE" stroke-width="0.962197" stroke-linecap="round" stroke-linejoin="round"/>
<path d="M31.0219 48.6596L14.6107 39.2051L1.34009 46.9912L17.7513 56.4476L31.0219 48.6596Z" fill="white" stroke="#4A63CE" stroke-width="0.384879" stroke-linecap="round" stroke-linejoin="round"/>
<path d="M31.0219 48.6596L14.6107 39.2051L1.34009 46.9912L17.7513 56.4476L31.0219 48.6596Z" fill="white" stroke="#4A63CE" stroke-width="0.962197" stroke-linecap="round" stroke-linejoin="round"/>
<path d="M4.45764 46.9798L14.6184 41.018L27.9045 48.6733L17.7437 54.635L4.45764 46.9798Z" fill="white" stroke="#4A63CE" stroke-width="0.384879" stroke-linecap="round" stroke-linejoin="round"/>
<path d="M4.20715 46.9798L14.366 41.018L27.652 48.6733L17.4932 54.635L4.20715 46.9798Z" fill="white" stroke="#4A63CE" stroke-width="0.384879" stroke-linecap="round" stroke-linejoin="round"/>
<path d="M4.20715 45.411L14.366 39.4492L27.652 47.1045L17.4932 53.0682L4.20715 45.411Z" fill="white" stroke="#4A63CE" stroke-width="0.384879" stroke-linecap="round" stroke-linejoin="round"/>
<path d="M17.4965 53.0679V54.6343L27.6554 48.6725V47.1042L17.4965 53.0679Z" fill="white" stroke="#4A63CE" stroke-width="0.384879" stroke-linecap="round" stroke-linejoin="round"/>
<path d="M4.20715 45.4111V46.9795L17.4932 54.6347V53.0682L4.20715 45.4111Z" fill="white" stroke="#4A63CE" stroke-width="0.384879" stroke-linecap="round" stroke-linejoin="round"/>
<path d="M13.5604 105.07C14.5151 104.528 14.5552 102.796 13.6499 101.202C12.7446 99.6077 11.2367 98.7548 10.282 99.2969C9.32734 99.8391 9.28729 101.571 10.1926 103.165C11.0979 104.759 12.6057 105.612 13.5604 105.07Z" fill="#4A63CE" stroke="#4A63CE" stroke-width="0.384879" stroke-linecap="round" stroke-linejoin="round"/>
<path d="M12.8175 103.766C13.3406 103.469 13.3622 102.52 12.8657 101.645C12.3692 100.771 11.5427 100.303 11.0196 100.6C10.4965 100.897 10.4749 101.847 10.9714 102.721C11.4678 103.595 12.2944 104.063 12.8175 103.766Z" fill="white" stroke="#4A63CE" stroke-width="0.384879" stroke-linecap="round" stroke-linejoin="round"/>
<path d="M100.433 89.9323L31.6284 128.842C29.5454 130.019 27.1889 130.627 24.7963 130.603C22.4037 130.58 20.0595 129.927 17.9998 128.709L1.85993 119.164C1.43823 118.914 1.08914 118.558 0.847283 118.132C0.605431 117.706 0.479217 117.224 0.481162 116.734C0.483107 116.243 0.613143 115.762 0.858371 115.338C1.1036 114.914 1.4555 114.561 1.87917 114.314L5.41814 112.263C6.10097 111.866 6.66773 111.297 7.0618 110.612C7.45588 109.928 7.66349 109.152 7.6639 108.362V106.218C7.66347 105.59 7.83926 104.975 8.17128 104.442C8.50331 103.909 8.97826 103.479 9.54211 103.203L11.6397 102.171" stroke="#4A63CE" stroke-width="0.962197" stroke-linecap="round" stroke-linejoin="round"/>
<path d="M174.011 62.0119V121.72C174.011 122.486 173.81 123.239 173.428 123.903C173.045 124.567 172.495 125.118 171.832 125.501C171.169 125.885 170.416 126.087 169.65 126.087C168.884 126.088 168.131 125.886 167.468 125.503L88.5251 80.2802C85.8336 78.731 83.5981 76.4996 82.044 73.8109C80.4898 71.1223 79.672 68.0714 79.6729 64.9659V4.84976C79.6735 4.08441 79.8756 3.33271 80.2587 2.67018C80.6419 2.00765 81.1927 1.45763 81.8557 1.0754C82.5188 0.693162 83.2708 0.492168 84.0361 0.492615C84.8015 0.493063 85.5532 0.694935 86.2159 1.07795L165.21 46.7361C167.886 48.2889 170.107 50.5172 171.652 53.198C173.196 55.8788 174.01 58.9181 174.011 62.0119Z" fill="white" stroke="#4A63CE" stroke-width="0.962197" stroke-linecap="round" stroke-linejoin="round"/>
<path d="M171.177 64.213V123.923C171.178 124.689 170.977 125.442 170.594 126.105C170.212 126.769 169.661 127.32 168.998 127.703C168.335 128.086 167.582 128.288 166.816 128.288C166.05 128.289 165.298 128.087 164.635 127.705L85.6979 82.4909C83.0063 80.9412 80.7709 78.7095 79.2167 76.0205C77.6626 73.3315 76.8448 70.2804 76.8456 67.1747V7.05083C76.8457 6.28402 77.0478 5.53075 77.4317 4.86695C77.8156 4.20315 78.3677 3.65226 79.0323 3.2698C79.697 2.88733 80.4506 2.6868 81.2175 2.68843C81.9843 2.69005 82.7371 2.89376 83.4001 3.27902L162.395 48.9372C165.067 50.4922 167.285 52.7214 168.826 55.402C170.368 58.0827 171.178 61.1209 171.177 64.213V64.213Z" fill="white" stroke="#4A63CE" stroke-width="1.15464" stroke-linecap="round" stroke-linejoin="round"/>
<path d="M166.806 125.724C167.283 125.721 167.739 125.53 168.076 125.193C168.413 124.855 168.602 124.398 168.604 123.921V64.2112C168.6 61.569 167.906 58.9738 166.589 56.683C165.272 54.3922 163.38 52.4856 161.099 51.1523L82.1043 5.49602C81.8321 5.3327 81.521 5.24562 81.2036 5.24393C80.7251 5.24444 80.2662 5.43478 79.9278 5.77319C79.5894 6.11159 79.3991 6.57043 79.3986 7.04901V67.1728C79.4036 69.8265 80.1061 72.4322 81.4354 74.7289C82.7648 77.0256 84.6744 78.9326 86.973 80.2587L165.91 125.476C166.181 125.637 166.491 125.723 166.806 125.724Z" fill="white" stroke="#4A63CE" stroke-width="0.384879" stroke-linecap="round" stroke-linejoin="round"/>
<path d="M166.806 125.724C167.283 125.721 167.739 125.53 168.076 125.193C168.413 124.855 168.602 124.398 168.604 123.921V64.2112C168.6 61.569 167.906 58.9738 166.589 56.683C165.272 54.3922 163.38 52.4856 161.099 51.1523L82.1043 5.49602C81.8321 5.3327 81.521 5.24562 81.2036 5.24393C80.7251 5.24444 80.2662 5.43478 79.9278 5.77319C79.5894 6.11159 79.3991 6.57043 79.3986 7.04901V67.1728C79.4036 69.8265 80.1061 72.4322 81.4354 74.7289C82.7648 77.0256 84.6744 78.9326 86.973 80.2587L165.91 125.476C166.181 125.637 166.491 125.723 166.806 125.724Z" fill="white" stroke="#4A63CE" stroke-width="0.384879" stroke-linecap="round" stroke-linejoin="round"/>
<path opacity="0.24" d="M163.153 114.487L125.876 93.4614V86.016L163.153 107.044V114.487Z" fill="#4A63CE" stroke="#4A63CE" stroke-width="0.384879" stroke-linecap="round" stroke-linejoin="round"/>
<path opacity="0.24" d="M163.153 119.104L125.876 98.0781V95.5937L163.153 116.62V119.104Z" fill="#4A63CE" stroke="#4A63CE" stroke-width="0.384879" stroke-linecap="round" stroke-linejoin="round"/>
<path d="M120.65 53.0679L118.7 45.7475L115.173 43.7481L110.5 37.7536L104.689 35.4809L97.9668 39.449L94.2277 30.1927L89.7169 26.8596L87.5424 19.5585" stroke="white" stroke-width="0.384879" stroke-linecap="round" stroke-linejoin="round"/>
<path d="M105.095 36.6477C105.421 36.463 105.434 35.8727 105.125 35.3293C104.817 34.7858 104.303 34.4951 103.978 34.6798C103.652 34.8645 103.639 35.4548 103.947 35.9982C104.256 36.5417 104.77 36.8325 105.095 36.6477Z" fill="white"/>
<path d="M94.8398 31.333C95.1651 31.1483 95.1787 30.558 94.8701 30.0146C94.5615 29.4712 94.0477 29.1804 93.7223 29.3651C93.397 29.5498 93.3835 30.1401 93.692 30.6836C94.0006 31.227 94.5145 31.5178 94.8398 31.333Z" fill="white"/>
<path d="M98.5261 40.3806C98.8514 40.1958 98.8649 39.6056 98.5564 39.0621C98.2478 38.5187 97.7339 38.2279 97.4086 38.4126C97.0832 38.5974 97.0697 39.1877 97.3783 39.7311C97.6869 40.2745 98.2007 40.5653 98.5261 40.3806Z" fill="white"/>
<path d="M90.4259 27.8154C90.7513 27.6307 90.7648 27.0404 90.4562 26.497C90.1477 25.9535 89.6338 25.6628 89.3085 25.8475C88.9831 26.0322 88.9696 26.6225 89.2782 27.1659C89.5868 27.7094 90.1006 28.0002 90.4259 27.8154Z" fill="white"/>
<path d="M111.012 38.7699C111.338 38.5851 111.351 37.9948 111.042 37.4514C110.734 36.908 110.22 36.6172 109.895 36.8019C109.569 36.9867 109.556 37.577 109.864 38.1204C110.173 38.6638 110.687 38.9546 111.012 38.7699Z" fill="white"/>
<path d="M99.306 37.2343C99.8254 36.9394 99.8469 35.9968 99.3541 35.1289C98.8613 34.2611 98.0408 33.7967 97.5214 34.0916C97.002 34.3866 96.9804 35.3292 97.4732 36.197C97.966 37.0648 98.7866 37.5293 99.306 37.2343Z" fill="#FF7F0B"/>
<path d="M108.798 47.9764C109.317 47.6814 109.339 46.7388 108.846 45.871C108.353 45.0032 107.533 44.5388 107.013 44.8337C106.494 45.1286 106.472 46.0712 106.965 46.9391C107.458 47.8069 108.278 48.2713 108.798 47.9764Z" fill="#FF7F0B"/>
<path d="M114.778 48.7622C115.298 48.4673 115.319 47.5247 114.827 46.6569C114.334 45.789 113.513 45.3246 112.994 45.6196C112.475 45.9145 112.453 46.8571 112.946 47.7249C113.439 48.5928 114.259 49.0572 114.778 48.7622Z" fill="#FF7F0B"/>
<path d="M115.736 44.6248C116.062 44.4401 116.075 43.8498 115.767 43.3064C115.458 42.7629 114.944 42.4721 114.619 42.6569C114.294 42.8416 114.28 43.4319 114.589 43.9753C114.897 44.5188 115.411 44.8096 115.736 44.6248Z" fill="white"/>
<path d="M119.18 46.7455C119.505 46.5608 119.519 45.9705 119.21 45.4271C118.902 44.8836 118.388 44.5928 118.062 44.7776C117.737 44.9623 117.724 45.5526 118.032 46.096C118.341 46.6395 118.855 46.9302 119.18 46.7455Z" fill="white"/>
<path d="M123.301 40.2413C124.205 39.728 124.242 38.0877 123.385 36.5776C122.527 35.0674 121.099 34.2593 120.196 34.7726C119.292 35.2858 119.254 36.9261 120.112 38.4363C120.969 39.9464 122.397 40.7545 123.301 40.2413Z" fill="#4A63CE"/>
<path d="M123.301 48.9725C124.205 48.4592 124.242 46.8189 123.385 45.3088C122.527 43.7986 121.099 42.9905 120.196 43.5037C119.292 44.017 119.254 45.6573 120.112 47.1674C120.969 48.6776 122.397 49.4857 123.301 48.9725Z" fill="#4A63CE"/>
<path d="M123.023 58.4935C123.928 57.9842 123.971 56.3465 123.12 54.8356C122.269 53.3247 120.846 52.5128 119.942 53.0221C119.038 53.5314 118.994 55.1691 119.845 56.68C120.696 58.1909 122.119 59.0028 123.023 58.4935Z" fill="#4A63CE"/>
<path d="M180.241 82.6951L141.376 60.6973V55.3109L180.241 77.3106V82.6951Z" fill="#4A63CE" stroke="#4A63CE" stroke-width="0.962197" stroke-linecap="round" stroke-linejoin="round"/>
<path d="M180.241 106.611L141.376 84.6137V60.12L180.241 82.1178V106.611Z" fill="white" stroke="#4A63CE" stroke-width="0.962197" stroke-linecap="round" stroke-linejoin="round"/>
<path d="M115.95 85.4409L87.9997 69.6224V16.7112L115.95 32.5316V85.4409Z" fill="#FF7F0B"/>
<path d="M112.539 42.0184L90.994 29.8235V24.1985L112.539 36.3915V42.0184Z" fill="white"/>
<path d="M112.539 58.5408L90.994 46.3459V44.4677L112.539 56.6626V58.5408Z" fill="white"/>
<path d="M112.539 61.8461L90.994 49.6512V47.773L112.539 59.9679V61.8461Z" fill="white"/>
<path d="M112.539 64.9058L90.994 52.7109V50.8327L112.539 63.0276V64.9058Z" fill="white"/>
<path d="M145.353 60.603C145.631 60.4451 145.643 59.9401 145.379 59.4753C145.115 59.0104 144.675 58.7616 144.397 58.9196C144.119 59.0775 144.107 59.5825 144.371 60.0473C144.635 60.5122 145.075 60.761 145.353 60.603Z" fill="white"/>
<path d="M147.707 61.9566C147.985 61.7986 147.997 61.2937 147.733 60.8289C147.469 60.364 147.029 60.1152 146.751 60.2731C146.473 60.4311 146.461 60.936 146.725 61.4009C146.989 61.8658 147.429 62.1146 147.707 61.9566Z" fill="white"/>
<path d="M150.049 63.1181C150.327 62.9601 150.339 62.4552 150.075 61.9903C149.811 61.5254 149.371 61.2767 149.093 61.4346C148.815 61.5926 148.803 62.0975 149.067 62.5624C149.331 63.0272 149.771 63.276 150.049 63.1181Z" fill="white"/>
<path d="M175.597 87.7103L146.025 70.9719V69.4305L175.597 86.1669V87.7103Z" fill="#DCE6F4"/>
</g>
<defs>
<clipPath id="clip0_2_511">
<rect width="221.151" height="167.967" fill="white"/>
</clipPath>
</defs>
</svg>
