<svg width="146" height="81" viewBox="0 0 146 81" fill="none" xmlns="http://www.w3.org/2000/svg">
<g clip-path="url(#clip0_2_588)">
<path d="M0.974854 30.6224L17.6529 21.1318C21.075 19.0512 24.9687 17.872 28.9701 17.7045C32.9715 17.537 36.9501 18.3865 40.5342 20.1738L144.343 80.0007" stroke="#FF7F0B" stroke-width="1.96454" stroke-linecap="round" stroke-linejoin="round"/>
<path d="M123.503 44.2194C125.021 45.095 125.029 46.5198 123.521 47.3954L83.9329 70.4021C82.4249 71.2786 79.972 71.2749 78.4546 70.4021L20.7392 37.4801C19.2209 36.6035 19.2068 35.1825 20.7149 34.3069L60.3032 11.3002C61.8112 10.4237 64.2697 10.4237 65.788 11.3002L123.503 44.2194Z" fill="white" stroke="#4A63CE" stroke-width="0.561298" stroke-linecap="round" stroke-linejoin="round"/>
<g style="mix-blend-mode:multiply" opacity="0.71">
<path d="M76.2343 21.5405L54.034 15.1352L25.4237 31.7618L63.2449 43.0392L76.2343 21.5405Z" fill="#C4C7E8"/>
</g>
<path d="M54.9331 38.6666L66.0122 45.0635L81.6864 36.0144L70.6429 29.5969L54.9331 38.6666Z" fill="white" stroke="#4A63CE" stroke-width="0.187099" stroke-linecap="round" stroke-linejoin="round"/>
<path d="M66.659 26.1991C67.3634 25.7893 68.5141 25.7893 69.2241 26.1991L98.1198 40.8705C98.8298 41.2802 98.2984 43.6498 97.5931 44.0596L79.0768 54.8178C78.3714 55.2285 77.2245 55.2266 76.5145 54.8178L48.153 38.4438C47.443 38.0341 47.1745 36.2706 47.8799 35.8609" fill="white"/>
<path d="M77.2829 55.2014V53.7691L45.9363 35.671V37.1033" fill="white"/>
<path d="M77.2829 55.2014V53.7691L45.9363 35.671V37.1033" stroke="#4A63CE" stroke-width="0.187099" stroke-linecap="round" stroke-linejoin="round"/>
<path d="M66.659 26.1991C67.3634 25.7893 68.5141 25.7893 69.2241 26.1991L98.1198 40.8705C98.8298 41.2802 98.2984 43.6498 97.5931 44.0596L79.0768 54.8178C78.3714 55.2285 77.2245 55.2266 76.5145 54.8178L48.153 38.4438C47.443 38.0341 47.1745 36.2706 47.8799 35.8609" stroke="#4A63CE" stroke-width="0.187099" stroke-linecap="round" stroke-linejoin="round"/>
<path d="M97.5811 41.2799C98.2912 41.6906 98.2949 42.3567 97.5895 42.7664L79.0733 53.5246C78.3679 53.9353 77.221 53.9335 76.511 53.5246L48.1495 37.1535C47.4395 36.7437 47.4329 36.0795 48.1383 35.6698L66.6555 24.9116C67.3599 24.5018 68.5106 24.5018 69.2206 24.9116L97.5811 41.2799Z" fill="white" stroke="#4A63CE" stroke-width="0.561298" stroke-linecap="round" stroke-linejoin="round"/>
<path d="M94.1365 41.7788L68.3393 26.8922C68.0975 26.7526 67.8233 26.6791 67.5441 26.6791C67.2649 26.6791 66.9907 26.7526 66.7489 26.8922L57.8514 31.9944C57.7906 32.0293 57.7401 32.0796 57.7049 32.1403C57.6698 32.201 57.6512 32.2699 57.6512 32.3401C57.6512 32.4102 57.6698 32.4791 57.7049 32.5398C57.7401 32.6005 57.7906 32.6508 57.8514 32.6857L83.6534 47.5695C83.8946 47.7082 84.1679 47.7812 84.4462 47.7812C84.7244 47.7812 84.9978 47.7082 85.239 47.5695L94.1356 42.4682C94.196 42.4333 94.2462 42.3831 94.2812 42.3226C94.3161 42.2621 94.3345 42.1936 94.3346 42.1238C94.3347 42.0539 94.3165 41.9853 94.2817 41.9248C94.2469 41.8642 94.1969 41.8139 94.1365 41.7788V41.7788Z" fill="white" stroke="#4A63CE" stroke-width="0.187099" stroke-linecap="round" stroke-linejoin="round"/>
<path d="M104.541 18.6898C104.542 18.6736 104.542 18.6574 104.541 18.6412V18.6168C104.542 18.6084 104.542 18.6 104.541 18.5916C104.541 18.5832 104.541 18.5747 104.541 18.5663L104.535 18.5401C104.535 18.5308 104.535 18.5224 104.529 18.513C104.527 18.5042 104.525 18.4954 104.522 18.4868L104.497 18.4615C104.495 18.4526 104.492 18.4438 104.489 18.4354L104.48 18.4092L104.471 18.3839C104.471 18.3764 104.464 18.368 104.461 18.3596C104.458 18.3516 104.454 18.3438 104.45 18.3362L104.439 18.3109C104.439 18.3016 104.431 18.2932 104.427 18.2857L104.41 18.2529L104.383 18.2043C104.372 18.1865 104.361 18.1687 104.349 18.1519C104.337 18.1351 104.328 18.1201 104.317 18.1051L104.294 18.0752L104.275 18.0518L104.256 18.0294L104.236 18.0069L104.216 17.9863C104.209 17.9788 104.202 17.9723 104.194 17.9648L104.173 17.9442L104.15 17.9255L104.128 17.9068L104.106 17.89L104.084 17.8741L104.062 17.86L104.041 17.8469H104.036L73.4125 0.166051L73.3965 0.157632L73.376 0.146406L73.3554 0.137051L73.3348 0.128631L73.3152 0.121147L73.2946 0.1146L73.274 0.108987L73.2534 0.104309H73.231H73.2094H73.1599H73.1309L73.0963 0.113663C73.0819 0.118871 73.0682 0.125451 73.0551 0.133309L72.3011 0.571121C72.3142 0.563559 72.328 0.557293 72.3422 0.552411C72.3534 0.547882 72.365 0.544741 72.3769 0.543057H72.4059H72.4554H72.4779H72.4994H72.52L72.5406 0.54867L72.5612 0.555217L72.5808 0.562702L72.6014 0.571121L72.622 0.581411L72.6425 0.591702L72.6584 0.601057L103.282 18.2819L103.303 18.295C103.311 18.2995 103.318 18.3045 103.325 18.31L103.347 18.325L103.369 18.3418L103.391 18.3605L103.414 18.3802L103.436 18.4007C103.443 18.4073 103.45 18.4138 103.457 18.4213L103.477 18.4428L103.497 18.4644L103.517 18.4868L103.535 18.5102L103.558 18.5401C103.569 18.5551 103.58 18.571 103.591 18.5869C103.601 18.6028 103.614 18.6215 103.624 18.6393L103.651 18.6879L103.668 18.7207L103.68 18.7459L103.692 18.7712C103.696 18.7791 103.699 18.7872 103.702 18.7955C103.702 18.803 103.708 18.8114 103.712 18.8198L103.722 18.8451L103.731 18.8704L103.739 18.8966L103.747 18.9237C103.75 18.9326 103.752 18.9416 103.753 18.9508C103.756 18.9594 103.758 18.9681 103.76 18.977L103.766 19.0032C103.765 19.0116 103.765 19.02 103.766 19.0285V19.0537V19.078C103.766 19.0861 103.766 19.0943 103.766 19.1024C103.766 19.1105 103.766 19.1186 103.766 19.1267C103.766 19.1345 103.766 19.1423 103.766 19.1501C103.766 19.1582 103.766 19.1663 103.766 19.1744C103.766 19.1828 103.766 19.1903 103.766 19.1978V19.223C103.766 19.2315 103.766 19.2389 103.766 19.2474V19.2539L99.3809 42.0052C99.3809 42.0117 99.3809 42.0183 99.3809 42.0239C99.3809 42.0295 99.3762 42.0417 99.3743 42.0501C99.3725 42.0585 99.3678 42.0679 99.365 42.0763C99.3615 42.0862 99.3574 42.0959 99.3528 42.1053C99.3474 42.1172 99.3411 42.1288 99.3341 42.1399C99.3126 42.1744 99.2831 42.2033 99.2481 42.2241L100.002 41.7853C100.037 41.7646 100.066 41.7361 100.088 41.7021C100.095 41.6909 100.101 41.6796 100.107 41.6675C100.111 41.658 100.116 41.6484 100.119 41.6385L100.127 41.6123C100.13 41.6037 100.132 41.5949 100.134 41.5861V41.5674L104.519 18.8161V18.8096C104.519 18.8011 104.519 18.7927 104.519 18.7852C104.519 18.7768 104.519 18.7684 104.519 18.76C104.519 18.7522 104.519 18.7444 104.519 18.7366C104.519 18.7282 104.519 18.7207 104.519 18.7123C104.527 18.7054 104.534 18.6979 104.541 18.6898V18.6898Z" fill="white" stroke="#4A63CE" stroke-width="0.187099" stroke-linecap="round" stroke-linejoin="round"/>
<path d="M103.289 18.2805C103.605 18.4676 103.842 18.9353 103.782 19.2553L99.397 42.0065C99.3512 42.2535 99.1435 42.3293 98.9003 42.1936L68.2796 24.5128C67.9634 24.3257 67.7267 23.8579 67.7866 23.538L72.1713 0.781108C72.2171 0.534137 72.4248 0.458362 72.6652 0.594009L103.289 18.2805Z" fill="white" stroke="#4A63CE" stroke-width="0.561298" stroke-linecap="round" stroke-linejoin="round"/>
<path d="M69.1531 23.6836C69.1313 23.6549 69.1133 23.6235 69.0998 23.59L73.216 2.2439L102.426 19.109C102.448 19.1374 102.466 19.1689 102.479 19.2026L98.363 40.5469L69.1531 23.6836Z" fill="white" stroke="#4A63CE" stroke-width="0.187099" stroke-linecap="round" stroke-linejoin="round"/>
<path d="M69.1531 23.6836C69.1313 23.6549 69.1133 23.6235 69.0998 23.59L73.216 2.2439L102.426 19.109C102.448 19.1374 102.466 19.1689 102.479 19.2026L98.363 40.5469L69.1531 23.6836Z" fill="white" stroke="#4A63CE" stroke-width="0.187099" stroke-linecap="round" stroke-linejoin="round"/>
<g style="mix-blend-mode:multiply">
<path d="M72.4589 17.9697C72.4463 17.9527 72.4359 17.9341 72.428 17.9145L74.7948 5.63611L91.5963 15.3363C91.6094 15.3533 91.6198 15.3722 91.6272 15.3924L89.2613 27.6699L72.4589 17.9697Z" stroke="#4A63CE" stroke-width="0.165583" stroke-linecap="round" stroke-linejoin="round"/>
</g>
<path d="M71.8717 21.4235C71.8651 21.417 72.4424 17.9351 72.433 17.9145L74.7998 5.63611L91.6013 15.3363C91.6144 15.3533 91.6248 15.3722 91.6322 15.3924L88.6732 31.1246L71.8717 21.4235Z" stroke="#4A63CE" stroke-width="0.467748" stroke-linecap="round" stroke-linejoin="round"/>
<path d="M68.3194 27.9288C68.413 27.984 68.413 28.0757 68.3194 28.1327L67.7403 28.4704C67.6857 28.4981 67.6253 28.5126 67.564 28.5126C67.5027 28.5126 67.4423 28.4981 67.3876 28.4704L66.3783 27.8876C66.2791 27.8296 66.2782 27.7389 66.3783 27.6818L66.9545 27.3478C67.0095 27.3197 67.0705 27.305 67.1323 27.305C67.1941 27.305 67.255 27.3197 67.31 27.3478L68.3194 27.9288Z" fill="white" stroke="#4A63CE" stroke-width="0.187099" stroke-linecap="round" stroke-linejoin="round"/>
<path d="M70.0944 28.9552C70.116 28.9624 70.1348 28.9762 70.1481 28.9947C70.1613 29.0131 70.1685 29.0353 70.1685 29.0581C70.1685 29.0808 70.1613 29.103 70.1481 29.1215C70.1348 29.1399 70.116 29.1538 70.0944 29.161L69.5163 29.5006C69.4613 29.5287 69.4003 29.5434 69.3385 29.5434C69.2767 29.5434 69.2158 29.5287 69.1608 29.5006L68.1542 28.9187C68.055 28.8616 68.055 28.7709 68.1542 28.7138L68.7305 28.3789C68.7853 28.3507 68.8461 28.3361 68.9077 28.3361C68.9694 28.3361 69.0302 28.3507 69.085 28.3789L70.0944 28.9552Z" fill="white" stroke="#4A63CE" stroke-width="0.187099" stroke-linecap="round" stroke-linejoin="round"/>
<path d="M71.877 29.9818C71.9705 30.037 71.9705 30.1287 71.877 30.1858L71.2979 30.5207C71.2432 30.5484 71.1828 30.5628 71.1215 30.5628C71.0603 30.5628 70.9999 30.5484 70.9452 30.5207L69.9358 29.9379C69.8366 29.8799 69.8357 29.7891 69.9358 29.7321L70.5121 29.3972C70.5671 29.369 70.628 29.3543 70.6898 29.3543C70.7516 29.3543 70.8125 29.369 70.8676 29.3972L71.877 29.9818Z" fill="white" stroke="#4A63CE" stroke-width="0.187099" stroke-linecap="round" stroke-linejoin="round"/>
<path d="M73.6467 31.0081C73.6683 31.0153 73.6871 31.0291 73.7004 31.0476C73.7137 31.066 73.7208 31.0882 73.7208 31.111C73.7208 31.1337 73.7137 31.1559 73.7004 31.1744C73.6871 31.1928 73.6683 31.2067 73.6467 31.2139L73.0686 31.5488C73.0138 31.5769 72.953 31.5916 72.8913 31.5916C72.8297 31.5916 72.7689 31.5769 72.7141 31.5488L71.7065 30.9669C71.6083 30.9098 71.6074 30.8191 71.7065 30.762L72.2828 30.4271C72.3378 30.399 72.3987 30.3843 72.4605 30.3843C72.5223 30.3843 72.5833 30.399 72.6383 30.4271L73.6467 31.0081Z" fill="white" stroke="#4A63CE" stroke-width="0.187099" stroke-linecap="round" stroke-linejoin="round"/>
<path d="M75.4243 32.0346C75.4457 32.0418 75.4643 32.0555 75.4774 32.0738C75.4906 32.0921 75.4976 32.1141 75.4976 32.1366C75.4976 32.1591 75.4906 32.1811 75.4774 32.1994C75.4643 32.2177 75.4457 32.2314 75.4243 32.2386L74.8453 32.5735C74.7906 32.6012 74.7302 32.6156 74.6689 32.6156C74.6077 32.6156 74.5472 32.6012 74.4926 32.5735L73.4832 31.9907C73.384 31.9327 73.384 31.8419 73.4832 31.7849L74.0585 31.45C74.1135 31.4218 74.1745 31.4071 74.2363 31.4071C74.2981 31.4071 74.359 31.4218 74.414 31.45L75.4243 32.0346Z" fill="white" stroke="#4A63CE" stroke-width="0.187099" stroke-linecap="round" stroke-linejoin="round"/>
<path d="M77.2043 33.0598C77.2259 33.067 77.2446 33.0809 77.2579 33.0993C77.2712 33.1178 77.2784 33.14 77.2784 33.1627C77.2784 33.1855 77.2712 33.2077 77.2579 33.2261C77.2446 33.2446 77.2259 33.2584 77.2043 33.2656L76.6262 33.6005C76.5713 33.6287 76.5105 33.6434 76.4489 33.6434C76.3872 33.6434 76.3265 33.6287 76.2716 33.6005L75.2641 33.0187C75.1659 32.9616 75.1649 32.8709 75.2641 32.8138L75.8403 32.4789C75.8954 32.4507 75.9563 32.436 76.0181 32.436C76.0799 32.436 76.1408 32.4507 76.1958 32.4789L77.2043 33.0598Z" fill="white" stroke="#4A63CE" stroke-width="0.187099" stroke-linecap="round" stroke-linejoin="round"/>
<path d="M78.9788 34.084C79.0779 34.1411 79.0789 34.2328 78.9788 34.2898L78.4025 34.6257C78.3475 34.6538 78.2866 34.6685 78.2248 34.6685C78.163 34.6685 78.102 34.6538 78.047 34.6257L77.0404 34.0447C77.0189 34.0375 77.0001 34.0237 76.9868 34.0052C76.9735 33.9868 76.9664 33.9646 76.9664 33.9418C76.9664 33.9191 76.9735 33.8969 76.9868 33.8784C77.0001 33.86 77.0189 33.8461 77.0404 33.8389L77.6167 33.504C77.6716 33.4759 77.7323 33.4612 77.794 33.4612C77.8556 33.4612 77.9164 33.4759 77.9713 33.504L78.9788 34.084Z" fill="white" stroke="#4A63CE" stroke-width="0.187099" stroke-linecap="round" stroke-linejoin="round"/>
<path d="M80.759 35.1128C80.7806 35.1201 80.7993 35.1339 80.8126 35.1524C80.8259 35.1708 80.8331 35.193 80.8331 35.2157C80.8331 35.2385 80.8259 35.2607 80.8126 35.2791C80.7993 35.2976 80.7806 35.3114 80.759 35.3186L80.1809 35.6526C80.1258 35.6808 80.0649 35.6955 80.0031 35.6955C79.9413 35.6955 79.8804 35.6808 79.8254 35.6526L78.816 35.0698C78.7946 35.0626 78.776 35.0489 78.7629 35.0306C78.7498 35.0123 78.7427 34.9904 78.7427 34.9678C78.7427 34.9453 78.7498 34.9233 78.7629 34.9051C78.776 34.8868 78.7946 34.873 78.816 34.8659L79.3922 34.531C79.4469 34.5033 79.5073 34.4888 79.5686 34.4888C79.6298 34.4888 79.6903 34.5033 79.7449 34.531L80.759 35.1128Z" fill="white" stroke="#4A63CE" stroke-width="0.187099" stroke-linecap="round" stroke-linejoin="round"/>
<path d="M82.5323 36.1413C82.5539 36.1486 82.5727 36.1624 82.586 36.1808C82.5992 36.1993 82.6064 36.2215 82.6064 36.2442C82.6064 36.267 82.5992 36.2892 82.586 36.3076C82.5727 36.3261 82.5539 36.3399 82.5323 36.3471L81.9551 36.6774C81.9001 36.7055 81.8392 36.7202 81.7774 36.7202C81.7156 36.7202 81.6547 36.7055 81.5996 36.6774L80.593 36.0964C80.5715 36.0892 80.5527 36.0754 80.5394 36.0569C80.5261 36.0385 80.519 36.0163 80.519 35.9935C80.519 35.9708 80.5261 35.9486 80.5394 35.9301C80.5527 35.9117 80.5715 35.8978 80.593 35.8906L81.1693 35.5557C81.2242 35.5276 81.2849 35.5129 81.3466 35.5129C81.4082 35.5129 81.469 35.5276 81.5239 35.5557L82.5323 36.1413Z" fill="white" stroke="#4A63CE" stroke-width="0.187099" stroke-linecap="round" stroke-linejoin="round"/>
<path d="M87.8709 39.2165C87.9701 39.2735 87.971 39.3652 87.8709 39.4223L87.2928 39.7572C87.2378 39.7853 87.1768 39.8 87.115 39.8C87.0532 39.8 86.9923 39.7853 86.9373 39.7572L85.9279 39.1744C85.8343 39.1182 85.8343 39.0275 85.9279 38.9704L86.5032 38.6355C86.5579 38.6078 86.6183 38.5934 86.6796 38.5934C86.7408 38.5934 86.8012 38.6078 86.8559 38.6355L87.8709 39.2165Z" fill="white" stroke="#4A63CE" stroke-width="0.187099" stroke-linecap="round" stroke-linejoin="round"/>
<path d="M90.0534 40.4794C90.1526 40.5365 90.1535 40.6272 90.0534 40.6852L89.4781 41.0192C89.423 41.0473 89.3621 41.062 89.3003 41.062C89.2385 41.062 89.1776 41.0473 89.1226 41.0192L87.7081 40.2034C87.6865 40.1962 87.6678 40.1824 87.6545 40.1639C87.6412 40.1455 87.634 40.1233 87.634 40.1005C87.634 40.0778 87.6412 40.0556 87.6545 40.0371C87.6678 40.0187 87.6865 40.0049 87.7081 39.9976L88.2844 39.6627C88.3394 39.6346 88.4003 39.6199 88.4621 39.6199C88.5239 39.6199 88.5848 39.6346 88.6399 39.6627L90.0534 40.4794Z" fill="white" stroke="#4A63CE" stroke-width="0.187099" stroke-linecap="round" stroke-linejoin="round"/>
<path d="M92.2452 41.7453C92.3444 41.8024 92.3453 41.8941 92.2452 41.9511L91.6699 42.2861C91.6149 42.3142 91.554 42.3289 91.4922 42.3289C91.4304 42.3289 91.3694 42.3142 91.3144 42.2861L89.8887 41.4628C89.8674 41.4556 89.8488 41.4419 89.8357 41.4236C89.8225 41.4053 89.8154 41.3834 89.8154 41.3608C89.8154 41.3383 89.8225 41.3164 89.8357 41.2981C89.8488 41.2798 89.8674 41.2661 89.8887 41.2589L90.465 40.924C90.5196 40.8963 90.58 40.8818 90.6413 40.8818C90.7026 40.8818 90.763 40.8963 90.8177 40.924L92.2452 41.7453Z" fill="white" stroke="#4A63CE" stroke-width="0.187099" stroke-linecap="round" stroke-linejoin="round"/>
<path d="M67.0094 28.6883C67.0307 28.6955 67.0493 28.7092 67.0624 28.7275C67.0756 28.7458 67.0827 28.7677 67.0827 28.7903C67.0827 28.8128 67.0756 28.8348 67.0624 28.8531C67.0493 28.8714 67.0307 28.8851 67.0094 28.8922L66.0084 29.4732C65.9539 29.5009 65.8936 29.5153 65.8325 29.5153C65.7714 29.5153 65.7111 29.5009 65.6567 29.4732L64.6501 28.8922C64.6285 28.885 64.6097 28.8712 64.5964 28.8527C64.5831 28.8343 64.576 28.8121 64.576 28.7893C64.576 28.7666 64.5831 28.7444 64.5964 28.7259C64.6097 28.7075 64.6285 28.6937 64.6501 28.6864L65.6501 28.1046C65.7051 28.0764 65.766 28.0617 65.8278 28.0617C65.8897 28.0617 65.9506 28.0764 66.0056 28.1046L67.0094 28.6883Z" fill="white" stroke="#4A63CE" stroke-width="0.187099" stroke-linecap="round" stroke-linejoin="round"/>
<path d="M68.7897 29.7154C68.8113 29.7226 68.83 29.7364 68.8433 29.7549C68.8566 29.7733 68.8638 29.7955 68.8638 29.8183C68.8638 29.841 68.8566 29.8632 68.8433 29.8817C68.83 29.9001 68.8113 29.9139 68.7897 29.9212L67.7896 30.5021C67.7346 30.5303 67.6737 30.545 67.6119 30.545C67.5501 30.545 67.4892 30.5303 67.4342 30.5021L66.4313 29.9212C66.4097 29.9139 66.391 29.9001 66.3777 29.8817C66.3644 29.8632 66.3572 29.841 66.3572 29.8183C66.3572 29.7955 66.3644 29.7733 66.3777 29.7549C66.391 29.7364 66.4097 29.7226 66.4313 29.7154L67.4314 29.1335C67.4864 29.1053 67.5473 29.0906 67.6091 29.0906C67.6709 29.0906 67.7318 29.1053 67.7868 29.1335L68.7897 29.7154Z" fill="white" stroke="#4A63CE" stroke-width="0.187099" stroke-linecap="round" stroke-linejoin="round"/>
<path d="M64.2732 29.1112L66.1442 30.1954C66.2434 30.2525 66.2443 30.3433 66.1442 30.4013L65.1432 30.9822C65.0884 31.0104 65.0276 31.025 64.966 31.025C64.9043 31.025 64.8435 31.0104 64.7887 30.9822L62.9177 29.898C62.8961 29.8907 62.8774 29.8769 62.8641 29.8584C62.8508 29.84 62.8436 29.8178 62.8436 29.7951C62.8436 29.7723 62.8508 29.7501 62.8641 29.7317C62.8774 29.7132 62.8961 29.6994 62.9177 29.6922L63.9177 29.1112C63.9728 29.083 64.0337 29.0684 64.0955 29.0684C64.1573 29.0684 64.2182 29.083 64.2732 29.1112Z" fill="white" stroke="#4A63CE" stroke-width="0.187099" stroke-linecap="round" stroke-linejoin="round"/>
<path d="M70.5636 30.7415C70.585 30.7486 70.6036 30.7623 70.6167 30.7806C70.6299 30.7989 70.6369 30.8209 70.6369 30.8434C70.6369 30.866 70.6299 30.8879 70.6167 30.9062C70.6036 30.9245 70.585 30.9382 70.5636 30.9454L69.5627 31.5263C69.5082 31.554 69.4479 31.5685 69.3868 31.5685C69.3257 31.5685 69.2654 31.554 69.2109 31.5263L68.2034 30.9454C68.1042 30.8883 68.1033 30.7966 68.2034 30.7396L69.2044 30.1577C69.2592 30.1296 69.32 30.1149 69.3816 30.1149C69.4433 30.1149 69.5041 30.1296 69.5589 30.1577L70.5636 30.7415Z" fill="white" stroke="#4A63CE" stroke-width="0.187099" stroke-linecap="round" stroke-linejoin="round"/>
<path d="M68.8347 31.7453C68.8561 31.7524 68.8746 31.7661 68.8878 31.7844C68.9009 31.8027 68.908 31.8247 68.908 31.8472C68.908 31.8698 68.9009 31.8917 68.8878 31.91C68.8746 31.9283 68.8561 31.942 68.8347 31.9492L67.8319 32.532C67.7774 32.5597 67.7171 32.5741 67.656 32.5741C67.5949 32.5741 67.5346 32.5597 67.4801 32.532L65.6017 31.4515C65.5801 31.4443 65.5613 31.4305 65.548 31.412C65.5347 31.3935 65.5276 31.3714 65.5276 31.3486C65.5276 31.3258 65.5347 31.3037 65.548 31.2852C65.5613 31.2667 65.5801 31.2529 65.6017 31.2457L66.6017 30.6638C66.6567 30.6357 66.7176 30.621 66.7794 30.621C66.8413 30.621 66.9022 30.6357 66.9572 30.6638L68.8347 31.7453Z" fill="white" stroke="#4A63CE" stroke-width="0.187099" stroke-linecap="round" stroke-linejoin="round"/>
<path d="M65.326 31.7257C65.3476 31.7329 65.3663 31.7467 65.3796 31.7652C65.3929 31.7837 65.4001 31.8058 65.4001 31.8286C65.4001 31.8513 65.3929 31.8735 65.3796 31.892C65.3663 31.9105 65.3476 31.9243 65.326 31.9315L64.3259 32.5124C64.2711 32.5411 64.2101 32.556 64.1482 32.556C64.0863 32.556 64.0253 32.5411 63.9704 32.5124L61.1902 30.9034C61.1686 30.8962 61.1498 30.8823 61.1365 30.8639C61.1232 30.8454 61.1161 30.8232 61.1161 30.8005C61.1161 30.7777 61.1232 30.7556 61.1365 30.7371C61.1498 30.7186 61.1686 30.7048 61.1902 30.6976L62.1902 30.1166C62.2452 30.0885 62.3061 30.0738 62.3679 30.0738C62.4298 30.0738 62.4907 30.0885 62.5457 30.1166L65.326 31.7257Z" fill="white" stroke="#4A63CE" stroke-width="0.187099" stroke-linecap="round" stroke-linejoin="round"/>
<path d="M61.8151 31.7054C61.9087 31.7615 61.9087 31.8523 61.8151 31.9093L60.3904 32.7373C60.3359 32.765 60.2756 32.7794 60.2145 32.7794C60.1534 32.7794 60.0931 32.765 60.0386 32.7373L59.0283 32.1544C59.0067 32.1472 58.988 32.1334 58.9747 32.1149C58.9614 32.0965 58.9542 32.0743 58.9542 32.0515C58.9542 32.0288 58.9614 32.0066 58.9747 31.9882C58.988 31.9697 59.0067 31.9559 59.0283 31.9486L60.4531 31.1207C60.5081 31.0926 60.569 31.0779 60.6308 31.0779C60.6926 31.0779 60.7535 31.0926 60.8085 31.1207L61.8151 31.7054Z" fill="white" stroke="#4A63CE" stroke-width="0.187099" stroke-linecap="round" stroke-linejoin="round"/>
<path d="M63.5866 32.7304C63.6858 32.7875 63.6867 32.8792 63.5866 32.9362L62.1619 33.7641C62.1068 33.7923 62.0459 33.807 61.9841 33.807C61.9223 33.807 61.8614 33.7923 61.8064 33.7641L60.7998 33.1832C60.7782 33.176 60.7594 33.1622 60.7462 33.1437C60.7329 33.1252 60.7257 33.103 60.7257 33.0803C60.7257 33.0575 60.7329 33.0354 60.7462 33.0169C60.7594 32.9984 60.7782 32.9846 60.7998 32.9774L62.2236 32.1495C62.2786 32.1213 62.3395 32.1066 62.4014 32.1066C62.4632 32.1066 62.5241 32.1213 62.5791 32.1495L63.5866 32.7304Z" fill="white" stroke="#4A63CE" stroke-width="0.187099" stroke-linecap="round" stroke-linejoin="round"/>
<path d="M67.107 32.7534C67.2005 32.8086 67.2005 32.9003 67.107 32.9574L66.1069 33.5392C66.0523 33.5672 65.9919 33.5817 65.9306 33.5817C65.8693 33.5817 65.8088 33.5672 65.7542 33.5392L64.7477 32.962C64.7261 32.9548 64.7073 32.941 64.694 32.9225C64.6807 32.9041 64.6736 32.8819 64.6736 32.8591C64.6736 32.8364 64.6807 32.8142 64.694 32.7957C64.7073 32.7773 64.7261 32.7635 64.7477 32.7562L65.7477 32.1753C65.8027 32.1471 65.8636 32.1324 65.9254 32.1324C65.9872 32.1324 66.0482 32.1471 66.1032 32.1753L67.107 32.7534Z" fill="white" stroke="#4A63CE" stroke-width="0.187099" stroke-linecap="round" stroke-linejoin="round"/>
<path d="M65.3727 33.7588C65.4662 33.8149 65.4662 33.9057 65.3727 33.9627L63.9479 34.7906C63.8931 34.8188 63.8323 34.8335 63.7707 34.8335C63.709 34.8335 63.6482 34.8188 63.5934 34.7906L62.5858 34.2097C62.5643 34.2025 62.5455 34.1886 62.5322 34.1702C62.5189 34.1517 62.5118 34.1295 62.5118 34.1068C62.5118 34.084 62.5189 34.0619 62.5322 34.0434C62.5455 34.0249 62.5643 34.0111 62.5858 34.0039L64.0106 33.176C64.0656 33.1478 64.1265 33.1331 64.1884 33.1331C64.2502 33.1331 64.3111 33.1478 64.3661 33.176L65.3727 33.7588Z" fill="white" stroke="#4A63CE" stroke-width="0.187099" stroke-linecap="round" stroke-linejoin="round"/>
<path d="M72.3423 31.7668C72.3639 31.7741 72.3826 31.7879 72.3959 31.8063C72.4092 31.8248 72.4164 31.847 72.4164 31.8697C72.4164 31.8925 72.4092 31.9147 72.3959 31.9331C72.3826 31.9516 72.3639 31.9654 72.3423 31.9726L71.3423 32.5536C71.2872 32.5817 71.2263 32.5964 71.1645 32.5964C71.1027 32.5964 71.0418 32.5817 70.9868 32.5536L69.9839 31.9726C69.9623 31.9654 69.9436 31.9516 69.9303 31.9331C69.917 31.9147 69.9099 31.8925 69.9099 31.8697C69.9099 31.847 69.917 31.8248 69.9303 31.8063C69.9436 31.7879 69.9623 31.7741 69.9839 31.7668L70.9802 31.184C71.0352 31.1559 71.0962 31.1412 71.158 31.1412C71.2198 31.1412 71.2807 31.1559 71.3357 31.184L72.3423 31.7668Z" fill="white" stroke="#4A63CE" stroke-width="0.187099" stroke-linecap="round" stroke-linejoin="round"/>
<path d="M70.6107 32.774C70.6323 32.7812 70.651 32.7951 70.6643 32.8135C70.6776 32.832 70.6847 32.8542 70.6847 32.8769C70.6847 32.8997 70.6776 32.9218 70.6643 32.9403C70.651 32.9588 70.6323 32.9726 70.6107 32.9798L69.6088 33.5589C69.5537 33.5871 69.4928 33.6017 69.431 33.6017C69.3692 33.6017 69.3083 33.5871 69.2533 33.5589L68.2467 32.9779C68.2251 32.9707 68.2063 32.9569 68.193 32.9384C68.1798 32.92 68.1726 32.8978 68.1726 32.875C68.1726 32.8523 68.1798 32.8301 68.193 32.8116C68.2063 32.7932 68.2251 32.7794 68.2467 32.7721L69.2467 32.1912C69.3016 32.1626 69.3626 32.1476 69.4245 32.1476C69.4864 32.1476 69.5473 32.1626 69.6022 32.1912L70.6107 32.774Z" fill="white" stroke="#4A63CE" stroke-width="0.187099" stroke-linecap="round" stroke-linejoin="round"/>
<path d="M68.8831 33.778C68.9046 33.7852 68.9234 33.799 68.9367 33.8175C68.95 33.8359 68.9571 33.8581 68.9571 33.8809C68.9571 33.9036 68.95 33.9258 68.9367 33.9443C68.9234 33.9627 68.9046 33.9765 68.8831 33.9838L67.883 34.5647C67.8281 34.5933 67.7672 34.6083 67.7053 34.6083C67.6434 34.6083 67.5824 34.5933 67.5275 34.5647L66.5247 33.9838C66.4255 33.9267 66.4246 33.835 66.5247 33.778L67.5247 33.197C67.5796 33.1689 67.6403 33.1542 67.702 33.1542C67.7637 33.1542 67.8244 33.1689 67.8793 33.197L68.8831 33.778Z" fill="white" stroke="#4A63CE" stroke-width="0.187099" stroke-linecap="round" stroke-linejoin="round"/>
<path d="M67.149 34.7844C67.1706 34.7916 67.1893 34.8055 67.2026 34.8239C67.2159 34.8424 67.2231 34.8646 67.2231 34.8873C67.2231 34.9101 67.2159 34.9323 67.2026 34.9507C67.1893 34.9692 67.1706 34.983 67.149 34.9902L65.7242 35.8182C65.6692 35.8463 65.6083 35.861 65.5465 35.861C65.4847 35.861 65.4238 35.8463 65.3687 35.8182L64.3622 35.2372C64.3406 35.23 64.3218 35.2162 64.3085 35.1977C64.2952 35.1792 64.2881 35.1571 64.2881 35.1343C64.2881 35.1115 64.2952 35.0894 64.3085 35.0709C64.3218 35.0524 64.3406 35.0386 64.3622 35.0314L65.7869 34.2035C65.8418 34.1753 65.9025 34.1606 65.9642 34.1606C66.0258 34.1606 66.0866 34.1753 66.1415 34.2035L67.149 34.7844Z" fill="white" stroke="#4A63CE" stroke-width="0.187099" stroke-linecap="round" stroke-linejoin="round"/>
<path d="M74.126 32.7943C74.1474 32.8014 74.1659 32.8151 74.1791 32.8334C74.1922 32.8517 74.1993 32.8737 74.1993 32.8962C74.1993 32.9187 74.1922 32.9407 74.1791 32.959C74.1659 32.9773 74.1474 32.991 74.126 32.9982L73.126 33.5791C73.0713 33.6068 73.0109 33.6213 72.9496 33.6213C72.8884 33.6213 72.828 33.6068 72.7733 33.5791L71.7658 32.9982C71.6666 32.9411 71.6657 32.8494 71.7658 32.7924L72.7667 32.2105C72.8216 32.1823 72.8824 32.1677 72.944 32.1677C73.0057 32.1677 73.0664 32.1823 73.1213 32.2105L74.126 32.7943Z" fill="white" stroke="#4A63CE" stroke-width="0.187099" stroke-linecap="round" stroke-linejoin="round"/>
<path d="M75.9047 33.8199C76.0039 33.877 76.0048 33.9687 75.9047 34.0257L74.9047 34.6067C74.8498 34.6348 74.7891 34.6495 74.7274 34.6495C74.6658 34.6495 74.605 34.6348 74.5501 34.6067L73.5464 34.0257C73.5248 34.0185 73.506 34.0047 73.4927 33.9862C73.4794 33.9678 73.4723 33.9456 73.4723 33.9228C73.4723 33.9001 73.4794 33.8779 73.4927 33.8594C73.506 33.841 73.5248 33.8272 73.5464 33.8199L74.5427 33.2427C74.5977 33.2146 74.6586 33.1999 74.7204 33.1999C74.7822 33.1999 74.8431 33.2146 74.8982 33.2427L75.9047 33.8199Z" fill="white" stroke="#4A63CE" stroke-width="0.187099" stroke-linecap="round" stroke-linejoin="round"/>
<path d="M72.3935 33.8031C72.4148 33.8103 72.4334 33.824 72.4465 33.8423C72.4597 33.8606 72.4667 33.8826 72.4667 33.9051C72.4667 33.9276 72.4597 33.9496 72.4465 33.9679C72.4334 33.9862 72.4148 33.9999 72.3935 34.0071L71.3897 34.5843C71.3352 34.6122 71.275 34.6267 71.2138 34.6267C71.1526 34.6267 71.0923 34.6122 71.0379 34.5843L70.0285 34.0015C69.9294 33.9444 69.9284 33.8527 70.0285 33.7957L71.0295 33.2147C71.0844 33.1866 71.1451 33.1719 71.2068 33.1719C71.2684 33.1719 71.3292 33.1866 71.3841 33.2147L72.3935 33.8031Z" fill="white" stroke="#4A63CE" stroke-width="0.187099" stroke-linecap="round" stroke-linejoin="round"/>
<path d="M74.1633 34.8251C74.1849 34.8323 74.2036 34.8462 74.2169 34.8646C74.2302 34.8831 74.2374 34.9053 74.2374 34.928C74.2374 34.9508 74.2302 34.9729 74.2169 34.9914C74.2036 35.0099 74.1849 35.0237 74.1633 35.0309L73.1614 35.6119C73.1064 35.64 73.0454 35.6547 72.9836 35.6547C72.9218 35.6547 72.8609 35.64 72.8059 35.6119L71.7993 35.0309C71.7777 35.0237 71.759 35.0099 71.7457 34.9914C71.7324 34.9729 71.7252 34.9508 71.7252 34.928C71.7252 34.9053 71.7324 34.8831 71.7457 34.8646C71.759 34.8462 71.7777 34.8323 71.7993 34.8251L72.7993 34.2442C72.8542 34.2156 72.9152 34.2006 72.9771 34.2006C73.039 34.2006 73.0999 34.2156 73.1548 34.2442L74.1633 34.8251Z" fill="white" stroke="#4A63CE" stroke-width="0.187099" stroke-linecap="round" stroke-linejoin="round"/>
<path d="M77.6752 34.8441C77.6968 34.8513 77.7156 34.8651 77.7289 34.8836C77.7422 34.9021 77.7493 34.9242 77.7493 34.947C77.7493 34.9697 77.7422 34.9919 77.7289 35.0104C77.7156 35.0289 77.6968 35.0427 77.6752 35.0499L76.6752 35.6308C76.6202 35.659 76.5592 35.6737 76.4974 35.6737C76.4356 35.6737 76.3747 35.659 76.3197 35.6308L75.3178 35.0499C75.2962 35.0427 75.2774 35.0289 75.2642 35.0104C75.2509 34.9919 75.2437 34.9697 75.2437 34.947C75.2437 34.9242 75.2509 34.9021 75.2642 34.8836C75.2774 34.8651 75.2962 34.8513 75.3178 34.8441L76.3178 34.2622C76.3728 34.234 76.4338 34.2194 76.4956 34.2194C76.5574 34.2194 76.6183 34.234 76.6733 34.2622L77.6752 34.8441Z" fill="white" stroke="#4A63CE" stroke-width="0.187099" stroke-linecap="round" stroke-linejoin="round"/>
<path d="M75.9393 35.8507C75.9609 35.8579 75.9796 35.8718 75.9929 35.8902C76.0062 35.9087 76.0134 35.9309 76.0134 35.9536C76.0134 35.9764 76.0062 35.9985 75.9929 36.017C75.9796 36.0355 75.9609 36.0493 75.9393 36.0565L74.9383 36.6375C74.8833 36.6656 74.8224 36.6803 74.7606 36.6803C74.6988 36.6803 74.6379 36.6656 74.5828 36.6375L73.5762 36.0565C73.4771 35.9995 73.4762 35.9078 73.5762 35.8507L74.5772 35.2698C74.6321 35.2416 74.6928 35.2269 74.7545 35.2269C74.8162 35.2269 74.8769 35.2416 74.9318 35.2698L75.9393 35.8507Z" fill="white" stroke="#4A63CE" stroke-width="0.187099" stroke-linecap="round" stroke-linejoin="round"/>
<path d="M70.6596 34.8063C70.681 34.8135 70.6996 34.8272 70.7127 34.8455C70.7259 34.8638 70.7329 34.8858 70.7329 34.9083C70.7329 34.9308 70.7259 34.9528 70.7127 34.9711C70.6996 34.9894 70.681 35.0031 70.6596 35.0103L69.6587 35.5921C69.6042 35.6201 69.544 35.6346 69.4828 35.6346C69.4216 35.6346 69.3613 35.6201 69.3069 35.5921L68.3003 35.0103C68.2787 35.003 68.26 34.9892 68.2467 34.9708C68.2334 34.9523 68.2263 34.9301 68.2263 34.9074C68.2263 34.8846 68.2334 34.8624 68.2467 34.844C68.26 34.8255 68.2787 34.8117 68.3003 34.8045L69.3004 34.2235C69.3554 34.1953 69.4163 34.1807 69.4781 34.1807C69.5399 34.1807 69.6008 34.1953 69.6559 34.2235L70.6596 34.8063Z" fill="white" stroke="#4A63CE" stroke-width="0.187099" stroke-linecap="round" stroke-linejoin="round"/>
<path d="M72.435 35.8322C72.4566 35.8394 72.4754 35.8532 72.4886 35.8717C72.5019 35.8901 72.5091 35.9123 72.5091 35.9351C72.5091 35.9578 72.5019 35.98 72.4886 35.9985C72.4754 36.0169 72.4566 36.0307 72.435 36.038L71.435 36.6189C71.3801 36.6475 71.3191 36.6625 71.2572 36.6625C71.1953 36.6625 71.1344 36.6475 71.0795 36.6189L70.0766 36.038C70.0551 36.0307 70.0363 36.0169 70.023 35.9985C70.0097 35.98 70.0026 35.9578 70.0026 35.9351C70.0026 35.9123 70.0097 35.8901 70.023 35.8717C70.0363 35.8532 70.0551 35.8394 70.0766 35.8322L71.0767 35.2512C71.1317 35.2231 71.1926 35.2084 71.2544 35.2084C71.3162 35.2084 71.3771 35.2231 71.4322 35.2512L72.435 35.8322Z" fill="white" stroke="#4A63CE" stroke-width="0.187099" stroke-linecap="round" stroke-linejoin="round"/>
<path d="M74.2102 36.8562C74.3093 36.9132 74.3103 37.0049 74.2102 37.062L73.2092 37.6438C73.1543 37.672 73.0936 37.6867 73.0319 37.6867C72.9703 37.6867 72.9095 37.672 72.8546 37.6438L71.8537 37.062C71.7545 37.0049 71.7536 36.9132 71.8537 36.8562L72.8537 36.2752C72.9087 36.247 72.9696 36.2324 73.0314 36.2324C73.0933 36.2324 73.1542 36.247 73.2092 36.2752L74.2102 36.8562Z" fill="white" stroke="#4A63CE" stroke-width="0.187099" stroke-linecap="round" stroke-linejoin="round"/>
<path d="M79.4494 35.8713C79.5486 35.9284 79.5495 36.02 79.4494 36.0771L78.4484 36.6581C78.3936 36.6862 78.3328 36.7009 78.2712 36.7009C78.2095 36.7009 78.1487 36.6862 78.0939 36.6581L77.0835 36.0752C77.0622 36.0681 77.0436 36.0544 77.0305 36.0361C77.0173 36.0178 77.0103 35.9958 77.0103 35.9733C77.0103 35.9507 77.0173 35.9288 77.0305 35.9105C77.0436 35.8922 77.0622 35.8785 77.0835 35.8713L78.0836 35.2894C78.1382 35.2615 78.1986 35.2469 78.2599 35.2469C78.3212 35.2469 78.3817 35.2615 78.4363 35.2894L79.4494 35.8713Z" fill="white" stroke="#4A63CE" stroke-width="0.187099" stroke-linecap="round" stroke-linejoin="round"/>
<path d="M77.7218 36.8785C77.8209 36.9356 77.8219 37.0272 77.7218 37.0843L76.7198 37.6652C76.665 37.6934 76.6042 37.7081 76.5426 37.7081C76.4809 37.7081 76.4201 37.6934 76.3653 37.6652L75.3578 37.0787C75.2642 37.0235 75.2642 36.9318 75.3578 36.8747L76.3578 36.2938C76.4123 36.2657 76.4728 36.251 76.5341 36.251C76.5955 36.251 76.656 36.2657 76.7105 36.2938L77.7218 36.8785Z" fill="white" stroke="#4A63CE" stroke-width="0.187099" stroke-linecap="round" stroke-linejoin="round"/>
<path d="M75.9845 37.8826C76.0061 37.8898 76.0249 37.9036 76.0381 37.9221C76.0514 37.9406 76.0586 37.9627 76.0586 37.9855C76.0586 38.0082 76.0514 38.0304 76.0381 38.0489C76.0249 38.0673 76.0061 38.0812 75.9845 38.0884L74.9854 38.6675C74.9305 38.6961 74.8696 38.711 74.8077 38.711C74.7458 38.711 74.6848 38.6961 74.6299 38.6675L73.6205 38.0846C73.527 38.0295 73.527 37.9378 73.6205 37.8807L74.6206 37.2998C74.6752 37.2721 74.7356 37.2576 74.7969 37.2576C74.8582 37.2576 74.9186 37.2721 74.9732 37.2998L75.9845 37.8826Z" fill="white" stroke="#4A63CE" stroke-width="0.187099" stroke-linecap="round" stroke-linejoin="round"/>
<path d="M74.2641 38.8895C74.2857 38.8968 74.3044 38.9106 74.3177 38.9291C74.331 38.9475 74.3382 38.9697 74.3382 38.9924C74.3382 39.0152 74.331 39.0374 74.3177 39.0558C74.3044 39.0743 74.2857 39.0881 74.2641 39.0953L72.8393 39.9233C72.7845 39.9514 72.7237 39.9661 72.6621 39.9661C72.6004 39.9661 72.5396 39.9514 72.4848 39.9233L66.144 36.2627C66.0448 36.2056 66.0439 36.1139 66.144 36.0569L67.5688 35.2289C67.6238 35.2008 67.6847 35.1861 67.7465 35.1861C67.8083 35.1861 67.8692 35.2008 67.9243 35.2289L74.2641 38.8895Z" fill="white" stroke="#4A63CE" stroke-width="0.187099" stroke-linecap="round" stroke-linejoin="round"/>
<path d="M81.2279 36.8976C81.2495 36.9048 81.2682 36.9186 81.2815 36.9371C81.2948 36.9556 81.302 36.9777 81.302 37.0005C81.302 37.0232 81.2948 37.0454 81.2815 37.0639C81.2682 37.0823 81.2495 37.0962 81.2279 37.1034L80.2279 37.6843C80.1728 37.7125 80.1119 37.7272 80.0501 37.7272C79.9883 37.7272 79.9274 37.7125 79.8724 37.6843L78.8705 37.1034C78.8489 37.0962 78.8301 37.0823 78.8168 37.0639C78.8035 37.0454 78.7964 37.0232 78.7964 37.0005C78.7964 36.9777 78.8035 36.9556 78.8168 36.9371C78.8301 36.9186 78.8489 36.9048 78.8705 36.8976L79.8705 36.3166C79.9254 36.2882 79.9864 36.2734 80.0482 36.2734C80.1101 36.2734 80.171 36.2882 80.226 36.3166L81.2279 36.8976Z" fill="white" stroke="#4A63CE" stroke-width="0.187099" stroke-linecap="round" stroke-linejoin="round"/>
<path d="M79.4999 37.9021C79.5215 37.9093 79.5402 37.9231 79.5535 37.9416C79.5668 37.9601 79.5739 37.9822 79.5739 38.005C79.5739 38.0277 79.5668 38.0499 79.5535 38.0684C79.5402 38.0869 79.5215 38.1007 79.4999 38.1079L78.4989 38.6888C78.444 38.7174 78.383 38.7324 78.3212 38.7324C78.2593 38.7324 78.1983 38.7174 78.1434 38.6888L77.1387 38.106C77.0395 38.049 77.0386 37.9573 77.1387 37.9002L78.1387 37.3193C78.1938 37.2911 78.2547 37.2764 78.3165 37.2764C78.3783 37.2764 78.4392 37.2911 78.4942 37.3193L79.4999 37.9021Z" fill="white" stroke="#4A63CE" stroke-width="0.187099" stroke-linecap="round" stroke-linejoin="round"/>
<path d="M77.7637 38.909C77.7853 38.9162 77.8041 38.93 77.8173 38.9485C77.8306 38.967 77.8378 38.9891 77.8378 39.0119C77.8378 39.0347 77.8306 39.0568 77.8173 39.0753C77.8041 39.0938 77.7853 39.1076 77.7637 39.1148L76.7646 39.6976C76.7096 39.7258 76.6487 39.7405 76.5869 39.7405C76.5251 39.7405 76.4641 39.7258 76.4091 39.6976L75.4063 39.1148C75.3071 39.0577 75.3062 38.9661 75.4063 38.909L76.4072 38.3281C76.4621 38.2999 76.5229 38.2852 76.5845 38.2852C76.6462 38.2852 76.7069 38.2999 76.7618 38.3281L77.7637 38.909Z" fill="white" stroke="#4A63CE" stroke-width="0.187099" stroke-linecap="round" stroke-linejoin="round"/>
<path d="M76.0306 39.9144C76.1298 39.9724 76.1307 40.0632 76.0306 40.1203L74.6058 40.9482C74.5508 40.9763 74.4899 40.991 74.4281 40.991C74.3663 40.991 74.3054 40.9763 74.2503 40.9482L73.2438 40.3672C73.2222 40.36 73.2034 40.3462 73.1901 40.3277C73.1768 40.3092 73.1697 40.2871 73.1697 40.2643C73.1697 40.2416 73.1768 40.2194 73.1901 40.2009C73.2034 40.1825 73.2222 40.1686 73.2438 40.1614L74.6676 39.3335C74.7226 39.3053 74.7835 39.2906 74.8453 39.2906C74.9071 39.2906 74.968 39.3053 75.0231 39.3335L76.0306 39.9144Z" fill="white" stroke="#4A63CE" stroke-width="0.187099" stroke-linecap="round" stroke-linejoin="round"/>
<path d="M74.2282 43.0848C74.6024 43.3018 74.607 43.6461 74.2328 43.8678L68.807 47.0213C68.5976 47.1283 68.3658 47.1841 68.1306 47.1841C67.8954 47.1841 67.6636 47.1283 67.4542 47.0213L57.9197 41.5674C57.5455 41.3494 57.5408 41.0061 57.915 40.7834L63.3409 37.6308C63.5501 37.5234 63.782 37.4673 64.0172 37.4673C64.2525 37.4673 64.4843 37.5234 64.6936 37.6308L74.2282 43.0848Z" fill="white" stroke="#4A63CE" stroke-width="0.187099" stroke-linecap="round" stroke-linejoin="round"/>
<path d="M86.5646 39.9792C86.5861 39.9864 86.6049 40.0002 86.6182 40.0187C86.6315 40.0371 86.6386 40.0593 86.6386 40.0821C86.6386 40.1048 86.6315 40.127 86.6182 40.1455C86.6049 40.1639 86.5861 40.1778 86.5646 40.185L85.5645 40.7659C85.5095 40.7941 85.4486 40.8088 85.3868 40.8088C85.325 40.8088 85.264 40.7941 85.209 40.7659L84.2052 40.1822C84.1117 40.127 84.1117 40.0353 84.2052 39.9782L85.2053 39.3964C85.2597 39.3684 85.32 39.3539 85.3812 39.3539C85.4423 39.3539 85.5026 39.3684 85.557 39.3964L86.5646 39.9792Z" fill="white" stroke="#4A63CE" stroke-width="0.187099" stroke-linecap="round" stroke-linejoin="round"/>
<path d="M84.834 40.9835C84.8555 40.9907 84.8743 41.0045 84.8876 41.023C84.9009 41.0415 84.908 41.0636 84.908 41.0864C84.908 41.1091 84.9009 41.1313 84.8876 41.1498C84.8743 41.1682 84.8555 41.1821 84.834 41.1893L83.8311 41.7702C83.7761 41.7984 83.7152 41.8131 83.6534 41.8131C83.5916 41.8131 83.5307 41.7984 83.4756 41.7702L82.4662 41.1874C82.4449 41.1802 82.4263 41.1665 82.4132 41.1482C82.4 41.1299 82.3929 41.108 82.3929 41.0854C82.3929 41.0629 82.4 41.0409 82.4132 41.0227C82.4263 41.0044 82.4449 40.9907 82.4662 40.9835L83.4672 40.4025C83.5217 40.3748 83.582 40.3604 83.6431 40.3604C83.7042 40.3604 83.7645 40.3748 83.819 40.4025L84.834 40.9835Z" fill="white" stroke="#4A63CE" stroke-width="0.187099" stroke-linecap="round" stroke-linejoin="round"/>
<path d="M83.1046 41.9888C83.2037 42.0459 83.2047 42.1375 83.1046 42.1946L82.1036 42.7765C82.0487 42.8046 81.988 42.8193 81.9263 42.8193C81.8646 42.8193 81.8039 42.8046 81.749 42.7765L80.7387 42.1927C80.7173 42.1855 80.6988 42.1718 80.6856 42.1536C80.6725 42.1353 80.6654 42.1133 80.6654 42.0908C80.6654 42.0682 80.6725 42.0463 80.6856 42.028C80.6988 42.0097 80.7173 41.996 80.7387 41.9888L81.7387 41.4079C81.7934 41.3802 81.8538 41.3657 81.9151 41.3657C81.9764 41.3657 82.0368 41.3802 82.0914 41.4079L83.1046 41.9888Z" fill="white" stroke="#4A63CE" stroke-width="0.187099" stroke-linecap="round" stroke-linejoin="round"/>
<path d="M80.6028 43.8137C80.624 43.8214 80.6422 43.8354 80.6552 43.8538C80.6681 43.8722 80.675 43.8941 80.675 43.9166C80.675 43.9391 80.6681 43.961 80.6552 43.9794C80.6422 43.9979 80.624 44.0119 80.6028 44.0195L80.2754 44.216C80.2206 44.2441 80.1598 44.2588 80.0981 44.2588C80.0365 44.2588 79.9757 44.2441 79.9209 44.216L78.7777 43.5611C78.7561 43.5539 78.7373 43.5401 78.7241 43.5216C78.7108 43.5031 78.7036 43.481 78.7036 43.4582C78.7036 43.4355 78.7108 43.4133 78.7241 43.3948C78.7373 43.3764 78.7561 43.3625 78.7777 43.3553L79.1089 43.1626C79.1639 43.1344 79.2248 43.1198 79.2866 43.1198C79.3484 43.1198 79.4093 43.1344 79.4643 43.1626L80.6028 43.8137Z" fill="white" stroke="#4A63CE" stroke-width="0.187099" stroke-linecap="round" stroke-linejoin="round"/>
<path d="M88.7459 41.2372C88.7675 41.2445 88.7863 41.2583 88.7996 41.2767C88.8129 41.2952 88.82 41.3174 88.82 41.3401C88.82 41.3629 88.8129 41.3851 88.7996 41.4035C88.7863 41.422 88.7675 41.4358 88.7459 41.443L87.7459 42.0249C87.6909 42.0531 87.63 42.0678 87.5682 42.0678C87.5064 42.0678 87.4454 42.0531 87.3904 42.0249L85.9806 41.2082C85.959 41.201 85.9403 41.1872 85.927 41.1687C85.9137 41.1503 85.9066 41.1281 85.9066 41.1053C85.9066 41.0826 85.9137 41.0604 85.927 41.0419C85.9403 41.0235 85.959 41.0096 85.9806 41.0024L86.9807 40.4215C87.0355 40.3929 87.0965 40.3779 87.1584 40.3779C87.2203 40.3779 87.2813 40.3929 87.3362 40.4215L88.7459 41.2372Z" fill="white" stroke="#4A63CE" stroke-width="0.187099" stroke-linecap="round" stroke-linejoin="round"/>
<path d="M86.5741 41.985C86.5952 41.9921 86.6136 42.0057 86.6266 42.0238C86.6396 42.0419 86.6466 42.0637 86.6466 42.086C86.6466 42.1083 86.6396 42.13 86.6266 42.1482C86.6136 42.1663 86.5952 42.1799 86.5741 42.187L85.5712 42.7698C85.5166 42.7975 85.4562 42.812 85.3949 42.812C85.3336 42.812 85.2732 42.7975 85.2185 42.7698L84.2091 42.187C84.1876 42.1798 84.1688 42.166 84.1555 42.1475C84.1422 42.129 84.1351 42.1069 84.1351 42.0841C84.1351 42.0614 84.1422 42.0392 84.1555 42.0207C84.1688 42.0023 84.1876 41.9884 84.2091 41.9812L85.212 41.3984C85.2666 41.3707 85.3271 41.3563 85.3883 41.3563C85.4496 41.3563 85.51 41.3707 85.5647 41.3984L86.5741 41.985Z" fill="white" stroke="#4A63CE" stroke-width="0.187099" stroke-linecap="round" stroke-linejoin="round"/>
<path d="M90.9393 42.5036C90.9609 42.5108 90.9796 42.5246 90.9929 42.5431C91.0062 42.5615 91.0133 42.5837 91.0133 42.6065C91.0133 42.6292 91.0062 42.6514 90.9929 42.6698C90.9796 42.6883 90.9609 42.7021 90.9393 42.7094L89.9392 43.2903C89.8842 43.3185 89.8233 43.3331 89.7615 43.3331C89.6997 43.3331 89.6388 43.3185 89.5837 43.2903L88.1581 42.4671C88.0645 42.4119 88.0645 42.3202 88.1581 42.2631L89.1618 41.6831C89.2165 41.6554 89.2769 41.641 89.3382 41.641C89.3995 41.641 89.4599 41.6554 89.5145 41.6831L90.9393 42.5036Z" fill="white" stroke="#4A63CE" stroke-width="0.187099" stroke-linecap="round" stroke-linejoin="round"/>
<path d="M87.3709 42.4433L89.212 43.5098C89.3111 43.5669 89.3121 43.6585 89.212 43.7156L88.211 44.2965C88.1562 44.3247 88.0954 44.3394 88.0337 44.3394C87.9721 44.3394 87.9113 44.3247 87.8565 44.2965L86.0154 43.2301C85.9162 43.173 85.9153 43.0823 86.0154 43.0252L87.0192 42.4415C87.0738 42.4141 87.1342 42.3999 87.1953 42.4003C87.2564 42.4006 87.3166 42.4154 87.3709 42.4433V42.4433Z" fill="white" stroke="#4A63CE" stroke-width="0.187099" stroke-linecap="round" stroke-linejoin="round"/>
<path d="M87.4788 44.5159C87.578 44.573 87.5789 44.6647 87.4788 44.7217L86.4787 45.3027C86.424 45.3313 86.3632 45.3462 86.3015 45.3462C86.2397 45.3462 86.1789 45.3313 86.1242 45.3027L82.5207 43.2193C82.4991 43.2121 82.4803 43.1983 82.467 43.1798C82.4537 43.1613 82.4466 43.1392 82.4466 43.1164C82.4466 43.0937 82.4537 43.0715 82.467 43.053C82.4803 43.0345 82.4991 43.0207 82.5207 43.0135L83.5207 42.4326C83.5757 42.4044 83.6366 42.3897 83.6985 42.3897C83.7603 42.3897 83.8212 42.4044 83.8762 42.4326L87.4788 44.5159Z" fill="white" stroke="#4A63CE" stroke-width="0.187099" stroke-linecap="round" stroke-linejoin="round"/>
<path d="M83.6496 44.3134C83.7431 44.3686 83.7431 44.4603 83.6496 44.5173L83.3212 44.7044C83.2666 44.7324 83.2062 44.7469 83.1449 44.7469C83.0836 44.7469 83.0231 44.7324 82.9685 44.7044L81.8235 44.043C81.7243 43.986 81.7234 43.8943 81.8235 43.8372L82.1528 43.6501C82.2076 43.622 82.2684 43.6073 82.3301 43.6073C82.3917 43.6073 82.4525 43.622 82.5073 43.6501L83.6496 44.3134Z" fill="white" stroke="#4A63CE" stroke-width="0.187099" stroke-linecap="round" stroke-linejoin="round"/>
<path d="M82.5547 44.9476C82.5756 44.9552 82.5937 44.9691 82.6064 44.9874C82.6192 45.0056 82.6261 45.0273 82.6261 45.0496C82.6261 45.0719 82.6192 45.0936 82.6064 45.1118C82.5937 45.1301 82.5756 45.144 82.5547 45.1516L82.2226 45.3443C82.1681 45.372 82.1078 45.3864 82.0467 45.3864C81.9856 45.3864 81.9253 45.372 81.8708 45.3443L80.7248 44.6829C80.7032 44.6757 80.6845 44.6618 80.6712 44.6434C80.6579 44.6249 80.6508 44.6027 80.6508 44.58C80.6508 44.5572 80.6579 44.5351 80.6712 44.5166C80.6845 44.4981 80.7032 44.4843 80.7248 44.4771L81.056 44.2844C81.1112 44.2567 81.172 44.2423 81.2337 44.2423C81.2954 44.2423 81.3563 44.2567 81.4115 44.2844L82.5547 44.9476Z" fill="white" stroke="#4A63CE" stroke-width="0.187099" stroke-linecap="round" stroke-linejoin="round"/>
<path d="M84.5154 46.0748C84.5365 46.0824 84.5548 46.0964 84.5677 46.1148C84.5806 46.1332 84.5875 46.1552 84.5875 46.1777C84.5875 46.2002 84.5806 46.2221 84.5677 46.2405C84.5548 46.2589 84.5365 46.2729 84.5154 46.2806L84.1833 46.4733C84.1284 46.5014 84.0676 46.5161 84.006 46.5161C83.9443 46.5161 83.8835 46.5014 83.8287 46.4733L82.6827 45.8119C82.5892 45.7567 82.5892 45.665 82.6827 45.608L83.0139 45.4152C83.0685 45.3875 83.1289 45.3731 83.1902 45.3731C83.2515 45.3731 83.3119 45.3875 83.3666 45.4152L84.5154 46.0748Z" fill="white" stroke="#4A63CE" stroke-width="0.187099" stroke-linecap="round" stroke-linejoin="round"/>
<path d="M83.7931 24.8896L77.0884 20.6714L77.3269 17.9557L84.0447 22.056L83.7931 24.8896Z" fill="white" stroke="#4A63CE" stroke-width="0.165583" stroke-linecap="round" stroke-linejoin="round"/>
<path d="M78.3517 18.8358C77.9841 18.8873 77.7259 19.9706 77.7259 19.9706L80.0974 21.8463C79.5557 22.4029 79.8354 23.7275 79.8354 23.7275L78.5585 22.9155C77.4892 22.2382 75.2197 20.4832 75.2047 19.82C75.1898 19.1567 77.1889 16.0031 77.4742 15.8581C77.7596 15.7131 79.4173 15.8581 79.4173 15.8581L82.9338 17.9293C82.9338 17.9293 84.4474 19.6871 84.6785 20.1558C84.9096 20.6245 86.15 26.0382 86.0228 26.6547C85.8956 27.2712 83.5727 26.1224 82.5044 25.4386L81.2284 24.62C81.2284 24.62 81.7018 23.7603 81.3107 22.6087L83.7486 23.7229C83.7486 23.7229 83.7028 22.4038 83.3828 21.9202" fill="white"/>
<path d="M78.3517 18.8358C77.9841 18.8873 77.7259 19.9706 77.7259 19.9706L80.0974 21.8463C79.5557 22.4029 79.8354 23.7275 79.8354 23.7275L78.5585 22.9155C77.4892 22.2382 75.2197 20.4832 75.2047 19.82C75.1898 19.1567 77.1889 16.0031 77.4742 15.8581C77.7596 15.7131 79.4173 15.8581 79.4173 15.8581L82.9338 17.9293C82.9338 17.9293 84.4474 19.6871 84.6785 20.1558C84.9096 20.6245 86.15 26.0382 86.0228 26.6547C85.8956 27.2712 83.5727 26.1224 82.5044 25.4386L81.2284 24.62C81.2284 24.62 81.7018 23.7603 81.3107 22.6087L83.7486 23.7229C83.7486 23.7229 83.7028 22.4038 83.3828 21.9202" stroke="#4A63CE" stroke-width="0.165583" stroke-linecap="round" stroke-linejoin="round"/>
<path d="M80.2653 17.2304L80.9276 19.5383L81.9941 18.0574L80.2653 17.2304Z" fill="white" stroke="#4A63CE" stroke-width="0.165583" stroke-linecap="round" stroke-linejoin="round"/>
<path d="M83.1862 15.4183C83.03 17.1752 82.1169 18.1313 81.1459 17.5513C80.1748 16.9712 79.5106 15.119 79.6622 13.4014C79.7379 12.5407 79.8605 11.492 80.23 11.1038C80.5995 10.7156 81.216 10.9831 81.7034 11.2516C82.6791 11.7905 83.3424 13.6577 83.1862 15.4183Z" fill="white" stroke="#4A63CE" stroke-width="0.165583" stroke-linecap="round" stroke-linejoin="round"/>
<path d="M79.4757 12.4196C79.4478 12.3944 79.4133 12.3775 79.3763 12.3709C79.3393 12.3643 79.3011 12.3682 79.2662 12.3822C79.228 12.413 79.1997 12.4543 79.1848 12.501C79.0435 12.8509 79.1127 13.3748 79.2783 13.8332C79.3513 14.0352 79.4776 14.2644 79.6179 14.2719C79.7395 14.2794 79.7947 14.1148 79.8331 13.966C79.8934 13.7658 79.927 13.5585 79.9332 13.3495C79.9359 13.1694 79.8958 12.9912 79.8163 12.8296C79.7368 12.6679 79.62 12.5274 79.4757 12.4196V12.4196Z" fill="white" stroke="#4A63CE" stroke-width="0.165583" stroke-linecap="round" stroke-linejoin="round"/>
<path d="M83.5122 14.7098C83.5981 14.7498 83.6673 14.8187 83.7077 14.9044C83.7351 14.9682 83.7531 15.0356 83.761 15.1046C83.7962 15.3051 83.7866 15.5109 83.7329 15.7072C83.6792 15.9036 83.5827 16.0856 83.4505 16.2403C83.3504 16.3469 83.1969 16.418 83.0697 16.2693C82.9593 16.1411 82.9369 15.9269 82.9275 15.7482C82.9069 15.522 82.912 15.2942 82.9425 15.0691C83.0061 14.7201 83.2344 14.5826 83.5122 14.7098Z" fill="white" stroke="#4A63CE" stroke-width="0.165583" stroke-linecap="round" stroke-linejoin="round"/>
<path d="M83.1327 16.4401C83.1056 16.2988 82.9961 16.1501 82.911 16.18C82.8633 16.1969 82.8389 16.2633 82.8174 16.3213C82.7798 16.4127 82.728 16.4976 82.664 16.5729C82.5293 16.7273 82.2543 16.6758 82.2898 16.3101C82.3094 16.0977 82.3487 15.905 82.2056 15.6879C81.8679 15.1716 81.2215 14.9798 80.8192 14.8123C80.7432 14.7727 80.6589 14.7518 80.5732 14.7515C80.4113 14.7674 80.3187 14.9601 80.2514 15.15C80.2397 15.1966 80.2169 15.2396 80.1849 15.2754C80.1241 15.3278 80.0231 15.2754 79.9557 15.1818C79.8888 15.0798 79.8468 14.9635 79.8332 14.8423C79.8278 14.7276 79.8093 14.614 79.778 14.5036C79.7368 14.3932 79.6264 14.3025 79.5797 14.3698C79.5647 14.3989 79.5561 14.4308 79.5544 14.4634C79.4752 15.2229 79.5277 15.9903 79.7097 16.732C79.7276 16.8226 79.7561 16.9109 79.7948 16.9948C79.8435 17.0875 79.9067 17.1718 79.9819 17.2446C80.605 17.8995 81.3085 18.3401 81.9839 18.4898C82.1195 18.5242 82.2597 18.5366 82.3993 18.5262C82.4707 18.5236 82.539 18.4958 82.592 18.4477C82.6451 18.3829 82.684 18.3077 82.7061 18.2269C82.8633 17.7816 82.9867 17.3017 83.1046 16.8236C83.1432 16.6996 83.1528 16.5684 83.1327 16.4401V16.4401ZM81.7173 16.4682C81.6858 16.4821 81.6517 16.4893 81.6172 16.4893C81.5827 16.4893 81.5486 16.4821 81.5171 16.4682C81.2723 16.388 81.0485 16.254 80.8622 16.0762C80.5713 15.8105 80.6489 15.3156 80.9109 15.2941C81.0297 15.2847 81.1812 15.3877 81.3019 15.4578C81.4479 15.5373 81.6668 15.6094 81.7697 15.8236C81.8168 15.9303 81.8373 16.0468 81.8295 16.1632C81.8239 16.2942 81.7931 16.4204 81.7173 16.4682Z" fill="white" stroke="#4A63CE" stroke-width="0.165583" stroke-linecap="round" stroke-linejoin="round"/>
<path d="M79.6162 14.2729C79.7422 14.0333 79.8152 13.7695 79.8304 13.4993C79.8183 13.1855 79.7849 12.873 79.7303 12.5638C79.7303 12.5638 79.8099 10.9659 79.8491 10.5253C79.8884 10.0847 82.8212 11.4458 83.4386 12.5114C83.4386 12.5114 83.0467 15.2243 83.0093 15.6528C82.9873 15.9097 82.9788 16.1676 82.984 16.4255L82.8109 16.3198C82.8109 16.3198 82.9045 14.8295 82.9363 14.3796C82.9681 13.9296 83.0298 13.2841 82.9166 13.0034C82.8034 12.7228 82.2917 12.2027 82.2917 12.2027C82.2917 12.2027 82.2852 12.5432 82.0775 12.5207C82.0775 12.5207 81.1317 12.1016 81.0045 11.8603C80.9663 11.7978 80.9436 11.727 80.9382 11.654C80.9328 11.5809 80.945 11.5076 80.9736 11.4402C80.9736 11.4402 80.3412 11.0904 80.2421 11.2971C80.1429 11.5038 80.0662 13.2822 80.0063 13.6957C79.9493 13.985 79.8334 14.2595 79.6658 14.5021L79.6162 14.2729Z" fill="white" stroke="#4A63CE" stroke-width="0.165583" stroke-linecap="round" stroke-linejoin="round"/>
<path d="M80.8459 14.6268L81.3371 15.2872L81.8282 15.2255" fill="white"/>
<path d="M80.8459 14.6268L81.3371 15.2872L81.8282 15.2255" stroke="#4A63CE" stroke-width="0.165583" stroke-linecap="round" stroke-linejoin="round"/>
<path d="M79.8083 21.7836C79.8083 21.7836 80.5932 21.6087 80.8374 21.8772C81.0815 22.1456 81.6185 22.4384 81.9085 23.0998C82.1985 23.7612 81.8318 24.9175 81.8318 24.9175C81.8318 24.9175 80.8823 24.9858 80.5502 24.6294C80.2181 24.273 79.5277 23.3197 79.5277 23.3197C79.442 23.0606 79.4229 22.7842 79.4719 22.5158C79.5209 22.2474 79.6366 21.9956 79.8083 21.7836V21.7836Z" fill="white" stroke="#4A63CE" stroke-width="0.165583" stroke-linecap="round" stroke-linejoin="round"/>
<path d="M81.0268 20.3174C81.0184 20.4109 80.9538 20.4549 80.8827 20.4109C80.8443 20.382 80.8137 20.3439 80.7938 20.3001C80.7738 20.2563 80.7652 20.2082 80.7686 20.1602C80.777 20.0666 80.8416 20.0227 80.9136 20.0666C80.952 20.0956 80.9825 20.1337 81.0023 20.1775C81.0221 20.2213 81.0305 20.2694 81.0268 20.3174V20.3174Z" fill="#4A63CE"/>
<path d="M82.403 14.5892C82.3946 14.6828 82.33 14.7258 82.2589 14.6828C82.2204 14.6537 82.1898 14.6155 82.1699 14.5715C82.1499 14.5275 82.1413 14.4793 82.1448 14.4312C82.1532 14.3376 82.2178 14.2946 82.2889 14.3376C82.3276 14.3665 82.3583 14.4047 82.3783 14.4487C82.3983 14.4927 82.4068 14.5411 82.403 14.5892V14.5892Z" fill="#4A63CE"/>
<path d="M80.8072 13.6988C80.7988 13.7924 80.7343 13.8363 80.6632 13.7924C80.6246 13.7633 80.594 13.725 80.5741 13.6811C80.5542 13.6371 80.5455 13.5888 80.549 13.5407C80.5575 13.4472 80.622 13.4041 80.6931 13.4472C80.7322 13.4757 80.7633 13.5139 80.7833 13.558C80.8033 13.6021 80.8115 13.6506 80.8072 13.6988Z" fill="#4A63CE"/>
<path d="M80.9732 20.8933C80.9648 20.9868 80.9002 21.0298 80.8291 20.9868C80.7906 20.9577 80.76 20.9195 80.74 20.8755C80.7201 20.8316 80.7115 20.7833 80.715 20.7352C80.7234 20.6416 80.788 20.5986 80.86 20.6416C80.8984 20.6707 80.9289 20.709 80.9487 20.753C80.9684 20.797 80.9769 20.8452 80.9732 20.8933V20.8933Z" fill="#4A63CE"/>
<path d="M82.8748 14.7011L81.7634 14.0696L81.8196 13.4316L82.9319 14.0575L82.8748 14.7011Z" fill="white" stroke="#4A63CE" stroke-width="0.165583" stroke-linecap="round" stroke-linejoin="round"/>
<path d="M81.2116 13.7519L80.0993 13.1242L80.1554 12.4918L81.2677 13.1148L81.2116 13.7519Z" fill="white" stroke="#4A63CE" stroke-width="0.165583" stroke-linecap="round" stroke-linejoin="round"/>
<g style="mix-blend-mode:multiply">
<path d="M98.4406 23.7255C99.4519 23.1512 99.4937 21.3155 98.5339 19.6254C97.5742 17.9352 95.9763 17.0306 94.965 17.6048C93.9536 18.1791 93.9118 20.0148 94.8716 21.705C95.8314 23.3952 97.4293 24.2998 98.4406 23.7255Z" fill="#4A63CE"/>
</g>
<path d="M95.3558 19.6606C95.3147 19.6161 95.2886 19.5599 95.281 19.4997C95.283 19.4331 95.3034 19.3683 95.3399 19.3126C95.3842 19.2161 95.4428 19.1268 95.5139 19.0479C95.5887 18.9792 95.678 18.9282 95.7752 18.8987C95.8723 18.8693 95.9749 18.8621 96.0752 18.8776C96.2779 18.9112 96.47 18.9913 96.6365 19.1115C96.9544 19.3289 97.2201 19.6143 97.4142 19.9469C97.6084 20.2795 97.7262 20.6512 97.7591 21.0349C97.784 21.2545 97.7518 21.4768 97.6656 21.6804C97.6217 21.7815 97.5527 21.8696 97.4651 21.9365C97.3775 22.0033 97.2742 22.0465 97.1651 22.0621C96.9835 22.0641 96.8063 22.0062 96.6609 21.8974C96.5631 21.8401 96.4799 21.761 96.4176 21.6663C96.3872 21.6185 96.3699 21.5635 96.3675 21.5068C96.365 21.4502 96.3775 21.3939 96.4036 21.3436C96.4368 21.2988 96.4788 21.2612 96.5271 21.2332C96.5753 21.2052 96.6288 21.1874 96.6842 21.1808C96.8766 21.1406 97.0759 21.149 97.2643 21.2051C97.2562 20.861 97.1471 20.5268 96.9507 20.244C96.7543 19.9613 96.4792 19.7425 96.1594 19.6148C96.1851 19.665 96.1992 19.7203 96.2004 19.7767C96.2017 19.8331 96.1903 19.889 96.1669 19.9404C96.1669 20.0124 95.7993 19.9282 95.7609 19.9179C95.602 19.8774 95.4601 19.7873 95.3558 19.6606V19.6606Z" fill="white"/>
<path d="M93.2328 23.4359L92.7239 26.1638L98.9889 29.6598L99.5137 26.9029L93.2328 23.4359Z" fill="white" stroke="#4A63CE" stroke-width="0.187099" stroke-linecap="round" stroke-linejoin="round"/>
<path d="M92.4471 26.9125L91.9382 29.6413L98.2032 33.1363L98.7281 30.3794L92.4471 26.9125Z" fill="white" stroke="#4A63CE" stroke-width="0.187099" stroke-linecap="round" stroke-linejoin="round"/>
<path d="M104.128 38.6263V47.4509C104.128 49.1488 106.492 50.5249 109.407 50.5249C112.322 50.5249 114.684 49.1488 114.684 47.4509V38.6263H104.128Z" fill="white"/>
<path d="M104.128 38.6263V47.4509C104.128 49.1488 106.492 50.5249 109.407 50.5249C112.322 50.5249 114.684 49.1488 114.684 47.4509V38.6263H104.128Z" stroke="#FF7F0B" stroke-width="0.467748" stroke-linecap="round" stroke-linejoin="round"/>
<path d="M109.406 41.7001C112.32 41.7001 114.683 40.3242 114.683 38.627C114.683 36.9298 112.32 35.5539 109.406 35.5539C106.491 35.5539 104.128 36.9298 104.128 38.627C104.128 40.3242 106.491 41.7001 109.406 41.7001Z" fill="white" stroke="#FF7F0B" stroke-width="0.467748" stroke-linecap="round" stroke-linejoin="round"/>
<path d="M109.404 41.0701C111.721 41.0701 113.6 39.9761 113.6 38.6266C113.6 37.2771 111.721 36.1831 109.404 36.1831C107.086 36.1831 105.207 37.2771 105.207 38.6266C105.207 39.9761 107.086 41.0701 109.404 41.0701Z" fill="white"/>
<path d="M109.329 43.2287C111.646 43.2287 113.525 42.1347 113.525 40.7852C113.525 39.4357 111.646 38.3417 109.329 38.3417C107.011 38.3417 105.132 39.4357 105.132 40.7852C105.132 42.1347 107.011 43.2287 109.329 43.2287Z" fill="white" stroke="#FF7F0B" stroke-width="0.187099" stroke-linecap="round" stroke-linejoin="round"/>
<path d="M109.404 41.0701C111.721 41.0701 113.6 39.9761 113.6 38.6266C113.6 37.2771 111.721 36.1831 109.404 36.1831C107.086 36.1831 105.207 37.2771 105.207 38.6266C105.207 39.9761 107.086 41.0701 109.404 41.0701Z" stroke="#FF7F0B" stroke-width="0.187099" stroke-linecap="round" stroke-linejoin="round"/>
<path d="M104.637 41.2953C104.129 41.2203 103.609 41.28 103.131 41.4684C102.893 41.5636 102.677 41.7051 102.494 41.8847C102.312 42.0642 102.167 42.2782 102.067 42.5143C101.975 42.7728 101.927 43.0452 101.927 43.3197C101.905 43.7123 101.969 44.105 102.114 44.4704C102.606 45.607 104.023 46.0028 104.843 46.9326L104.738 46.8063" stroke="#FF7F0B" stroke-width="1.1226" stroke-linecap="round" stroke-linejoin="round"/>
</g>
<defs>
<clipPath id="clip0_2_588">
<rect width="145.334" height="80.985" fill="white"/>
</clipPath>
</defs>
</svg>
