<svg width="840" height="593" viewBox="0 0 840 593" fill="none" xmlns="http://www.w3.org/2000/svg">
<mask id="mask0_2_4397" style="mask-type:alpha" maskUnits="userSpaceOnUse" x="0" y="0" width="840" height="593">
<rect width="840" height="593" fill="#C4C4C4"/>
</mask>
<g mask="url(#mask0_2_4397)">
<path style="mix-blend-mode:multiply" opacity="0.5" d="M207.055 297L122 284.635L183.057 248.378L207.055 297Z" fill="url(#paint0_linear_2_4397)"/>
<path d="M207.055 271.278L285 224.822L253.109 206.305L174.969 252.164L207.055 271.278Z" fill="#F3F7FF"/>
<path style="mix-blend-mode:multiply" opacity="0.75" d="M207.055 271.278L285 224.822L253.109 206.305L174.969 252.164L207.055 271.278Z" fill="url(#paint1_linear_2_4397)"/>
<path d="M207.055 271.278V296.873L174.969 277.695V252.164L207.055 271.278Z" fill="url(#paint2_linear_2_4397)"/>
<path style="mix-blend-mode:multiply" opacity="0.35" d="M207.055 271.278V296.873L174.969 277.695V252.164L207.055 271.278Z" fill="url(#paint3_linear_2_4397)"/>
<path style="mix-blend-mode:multiply" opacity="0.85" d="M199.627 259.132L180.651 255.548L174.969 252.164L191.012 242.749L199.627 259.132Z" fill="url(#paint4_linear_2_4397)"/>
<path d="M253.123 95.9831L246.695 91.4801C246.524 91.2752 246.335 91.0873 246.13 90.9185V90.9185C244.593 89.6541 242.29 89.6471 239.716 91.1975L198.925 115.425C194.294 118.212 190.539 124.961 190.539 130.527V248.004C190.539 253.556 194.304 255.795 198.925 253.008L240.684 227.869C245.315 225.083 249.07 218.334 249.07 212.768V98.4623L253.123 95.9831Z" fill="#C4C7E8"/>
<path opacity="0.6" d="M194.476 116.467L205.442 123.188L201.352 126.024L190.539 119.229L194.476 116.467Z" fill="white"/>
<path d="M198.285 258.592L192.032 252.825L198.025 251.303L198.285 258.592Z" fill="#C4C7E8"/>
<path d="M207.055 296.873L285 250.625V224.822L207.055 271.278V296.873Z" fill="url(#paint5_linear_2_4397)"/>
<path style="mix-blend-mode:multiply" opacity="0.35" d="M207.055 296.873L285 250.625V224.822L207.055 271.278V296.873Z" fill="url(#paint6_linear_2_4397)"/>
<g style="mix-blend-mode:multiply" opacity="0.65">
<path d="M213.476 287.404L278.829 248.565V240.467L213.476 279.405V287.404Z" fill="#4D4F80"/>
</g>
<path d="M246.065 232.884L204.306 258.023C199.675 260.814 195.92 258.571 195.92 253.019V135.542C195.92 129.987 199.685 123.227 204.306 120.44L246.065 95.3014C250.696 92.5113 254.451 94.754 254.451 100.306V217.783C254.451 223.335 250.696 230.098 246.065 232.884Z" fill="#DCE6F4"/>
<path d="M249.823 97.2968C249.999 97.2816 250.177 97.3136 250.337 97.3897C250.498 97.4658 250.637 97.5835 250.741 97.7312C251.131 98.2398 251.357 99.1863 251.357 100.324V217.783C251.357 222.162 248.156 227.929 244.511 230.126L202.752 255.265C202.093 255.704 201.337 255.967 200.555 256.028C200.38 256.045 200.204 256.016 200.043 255.943C199.883 255.87 199.743 255.756 199.637 255.611C199.244 255.103 199.021 254.156 199.021 253.019V135.542C199.021 131.163 202.222 125.395 205.867 123.199L247.626 98.0597C248.285 97.6189 249.04 97.3566 249.823 97.2968V97.2968ZM249.823 94.1182C248.488 94.1697 247.189 94.5839 246.058 95.319L204.299 120.458C199.668 123.245 195.917 129.994 195.917 135.56V253.019C195.917 256.95 197.799 259.221 200.544 259.221C201.88 259.172 203.179 258.759 204.31 258.023L246.068 232.884C250.7 230.098 254.454 223.349 254.454 217.783V100.306C254.454 96.375 252.572 94.1006 249.827 94.1006L249.823 94.1182Z" fill="#4D4F80"/>
<path d="M238.251 100.352L212.124 116.096V119.741C212.124 120.885 212.672 121.546 213.469 121.546C213.858 121.529 214.236 121.408 214.564 121.193L235.817 108.401C236.528 107.916 237.12 107.267 237.544 106.503C237.968 105.74 238.212 104.885 238.257 104.007V100.352H238.251Z" fill="#4D4F80"/>
<path d="M220.318 113.875L230.34 107.843" stroke="white" stroke-width="0.71" stroke-linecap="round" stroke-linejoin="round"/>
<path opacity="0.4" d="M235.618 224.055L205.771 242.021C204.481 242.798 203.437 242.173 203.437 240.626V210.747C203.48 209.907 203.713 209.088 204.119 208.358C204.524 207.627 205.09 207.005 205.771 206.541L235.618 188.579C236.909 187.802 237.953 188.423 237.953 189.97V219.859C237.908 220.698 237.674 221.515 237.269 222.243C236.863 222.972 236.298 223.592 235.618 224.055Z" fill="#627BFD"/>
<path d="M216.053 215.763L209.208 219.891C208.694 220.198 208.28 219.951 208.28 219.337V211.101C208.297 210.766 208.39 210.441 208.551 210.15C208.712 209.859 208.937 209.612 209.208 209.427L216.053 205.298C216.567 204.991 216.981 205.238 216.981 205.852V214.078C216.967 214.415 216.876 214.743 216.715 215.036C216.553 215.329 216.327 215.578 216.053 215.763Z" fill="white"/>
<path d="M219.955 206.259L227.835 201.519" stroke="#7D83AF" stroke-width="2" stroke-linecap="round" stroke-linejoin="round"/>
<path d="M219.955 209.624L232.661 201.978" stroke="#7D83AF" stroke-width="2" stroke-linecap="round" stroke-linejoin="round"/>
<path d="M208.266 224.8L216.981 219.552" stroke="white" stroke-width="2" stroke-linecap="round" stroke-linejoin="round"/>
<path d="M208.266 228.272L232.661 213.587" stroke="white" stroke-width="2" stroke-linecap="round" stroke-linejoin="round"/>
<path d="M208.266 232.097L232.661 217.415" stroke="white" stroke-width="2" stroke-linecap="round" stroke-linejoin="round"/>
<path d="M245.356 148.546L204.991 172.841C203.7 173.618 202.656 172.996 202.656 171.45V141.56C202.7 140.72 202.934 139.902 203.339 139.172C203.744 138.443 204.31 137.821 204.991 137.358L245.356 113.059C246.647 112.282 247.691 112.907 247.691 114.454V144.35C247.646 145.189 247.412 146.006 247.007 146.734C246.601 147.463 246.036 148.083 245.356 148.546Z" fill="white"/>
<g opacity="0.6">
<path opacity="0.6" d="M213.188 150.047L207.174 153.667C206.723 153.939 206.36 153.72 206.36 153.18V145.971C206.374 145.678 206.455 145.393 206.597 145.138C206.739 144.883 206.936 144.667 207.174 144.506L213.188 140.886C213.637 140.614 214.003 140.833 214.003 141.37V148.589C213.986 148.88 213.904 149.164 213.762 149.417C213.621 149.67 213.424 149.886 213.188 150.047V150.047Z" fill="#4D4F80"/>
</g>
<g opacity="0.6">
<path opacity="0.6" d="M222.923 144.188L216.916 147.808C216.468 148.076 216.101 147.861 216.101 147.321V140.112C216.117 139.819 216.199 139.535 216.341 139.28C216.482 139.026 216.679 138.809 216.916 138.647L222.93 135.027C223.378 134.758 223.745 134.974 223.745 135.514V142.726C223.727 143.019 223.644 143.303 223.501 143.557C223.359 143.811 223.161 144.027 222.923 144.188V144.188Z" fill="#4D4F80"/>
</g>
<g opacity="0.6">
<path opacity="0.6" d="M232.661 138.325L226.647 141.945C226.199 142.217 225.836 141.998 225.836 141.461V134.25C225.851 133.957 225.932 133.672 226.073 133.417C226.214 133.163 226.41 132.946 226.647 132.784L232.661 129.164C233.113 128.892 233.476 129.111 233.476 129.651V136.86C233.461 137.153 233.38 137.438 233.238 137.693C233.097 137.948 232.899 138.164 232.661 138.325V138.325Z" fill="#4D4F80"/>
</g>
<path d="M242.396 132.466L236.382 136.086C235.93 136.358 235.567 136.139 235.567 135.599V128.39C235.581 128.097 235.663 127.812 235.804 127.557C235.946 127.302 236.144 127.086 236.382 126.925L242.396 123.305C242.844 123.033 243.21 123.252 243.21 123.789V131C243.195 131.293 243.113 131.579 242.972 131.833C242.83 132.088 242.633 132.304 242.396 132.466Z" fill="#F77701"/>
<g opacity="0.6">
<path opacity="0.6" d="M207.907 158.364C207.925 158.313 207.952 158.265 207.986 158.223L212.435 155.536V160.904C212.419 160.955 212.394 161.003 212.36 161.045L207.89 163.736L207.907 158.364Z" fill="#4D4F80"/>
<path opacity="0.6" d="M210.905 158.315V160.081L209.454 160.95V159.184L210.905 158.311V158.315ZM213.551 153.123C213.423 153.129 213.297 153.169 213.188 153.24L207.174 156.86C206.937 157.021 206.74 157.238 206.598 157.493C206.457 157.747 206.375 158.033 206.36 158.326V165.541C206.36 165.922 206.541 166.141 206.808 166.141C206.938 166.137 207.064 166.098 207.174 166.028L213.188 162.408C213.426 162.246 213.623 162.028 213.764 161.773C213.906 161.518 213.988 161.233 214.003 160.939V153.731C214.003 153.349 213.818 153.127 213.551 153.127V153.123Z" fill="#4D4F80"/>
<path opacity="0.6" d="M217.642 152.505C217.66 152.454 217.687 152.406 217.72 152.364L222.191 149.673V155.045C222.172 155.096 222.145 155.143 222.112 155.186L217.642 157.877V152.505Z" fill="#4D4F80"/>
<path opacity="0.6" d="M220.643 152.473V154.239L219.189 155.115V153.349L220.643 152.477V152.473ZM223.289 147.289C223.159 147.293 223.033 147.333 222.923 147.405L216.916 151.004C216.677 151.165 216.478 151.382 216.335 151.638C216.192 151.893 216.11 152.179 216.094 152.473V159.685C216.094 160.067 216.279 160.286 216.543 160.286C216.673 160.282 216.8 160.242 216.909 160.169L222.923 156.549C223.16 156.388 223.358 156.171 223.499 155.916C223.641 155.662 223.722 155.376 223.738 155.083V147.882C223.738 147.501 223.556 147.282 223.289 147.282V147.289Z" fill="#4D4F80"/>
<path opacity="0.6" d="M227.38 146.646C227.396 146.594 227.421 146.546 227.455 146.505L231.925 143.814V149.185C231.907 149.237 231.88 149.285 231.846 149.327L227.38 152.014V146.646Z" fill="#4D4F80"/>
<path opacity="0.6" d="M230.378 146.593V148.359L228.927 149.231V147.465L230.378 146.59V146.593ZM233.024 141.405C232.895 141.411 232.769 141.452 232.661 141.525L226.647 145.145C226.41 145.307 226.213 145.524 226.072 145.778C225.931 146.033 225.85 146.318 225.836 146.611V153.819C225.836 154.2 226.017 154.423 226.284 154.423C226.413 154.417 226.538 154.377 226.647 154.306L232.661 150.686C232.899 150.525 233.096 150.308 233.237 150.054C233.379 149.799 233.461 149.514 233.476 149.221V142.009C233.476 141.627 233.294 141.408 233.027 141.408L233.024 141.405Z" fill="#4D4F80"/>
<path opacity="0.6" d="M237.111 140.783C237.129 140.732 237.156 140.684 237.19 140.642L241.66 137.954V143.326C241.641 143.376 241.614 143.423 241.581 143.464L237.111 146.155V140.783Z" fill="#4D4F80"/>
<path opacity="0.6" d="M240.113 140.734V142.5L238.661 143.376V141.61L240.113 140.737V140.734ZM242.758 135.549C242.63 135.555 242.505 135.595 242.396 135.666L236.382 139.286C236.144 139.447 235.947 139.664 235.805 139.919C235.664 140.173 235.582 140.459 235.567 140.752V147.963C235.567 148.345 235.748 148.564 236.015 148.564C236.145 148.559 236.271 148.52 236.382 148.451L242.396 144.831C242.633 144.668 242.83 144.451 242.972 144.196C243.113 143.941 243.195 143.655 243.21 143.362V136.15C243.21 135.768 243.025 135.546 242.758 135.546V135.549Z" fill="#4D4F80"/>
</g>
<path d="M246.164 174.692L219.757 190.585C218.911 191.093 218.23 190.683 218.23 189.673V170.132C218.259 169.583 218.413 169.048 218.678 168.57C218.943 168.092 219.312 167.685 219.757 167.381L246.164 151.488C247.006 150.98 247.691 151.389 247.691 152.399V171.955C247.66 172.502 247.506 173.034 247.241 173.509C246.976 173.984 246.607 174.389 246.164 174.692V174.692Z" fill="white"/>
<path opacity="0.4" d="M243.686 160.883L222.755 173.48C222.307 173.749 221.941 173.533 221.941 172.993V169.666C221.957 169.373 222.039 169.088 222.18 168.834C222.321 168.579 222.518 168.363 222.755 168.2L243.686 155.603C244.134 155.334 244.501 155.55 244.501 156.09V159.413C244.485 159.707 244.404 159.993 244.262 160.248C244.121 160.503 243.923 160.72 243.686 160.883V160.883Z" fill="#627BFD"/>
<path d="M222.235 177.249L232.517 171.061" stroke="#7D83AF" stroke-width="2" stroke-linecap="round" stroke-linejoin="round"/>
<path d="M222.235 180.251L244.206 167.028" stroke="#7D83AF" stroke-width="2" stroke-linecap="round" stroke-linejoin="round"/>
<path d="M222.235 183.56L244.206 170.337" stroke="#7D83AF" stroke-width="2" stroke-linecap="round" stroke-linejoin="round"/>
<path d="M207.055 271.278C210.265 269.276 213.496 267.309 216.714 265.324L226.411 259.429C232.877 255.509 239.377 251.642 245.856 247.743C252.36 243.897 258.863 240.022 265.384 236.201L275.173 230.479C278.452 228.593 281.714 226.686 285 224.829C281.793 226.831 278.562 228.798 275.341 230.783L265.647 236.671C259.178 240.591 252.681 244.458 246.198 248.354C239.716 252.249 233.192 256.078 226.671 259.899L216.882 265.62C213.606 267.506 210.341 269.414 207.055 271.278Z" fill="white"/>
<g style="mix-blend-mode:multiply">
<path d="M174.969 257.197L207.055 276.025L285 229.406" stroke="#7D83AF" stroke-width="1.02" stroke-miterlimit="10"/>
</g>
<path d="M234.386 266.941L228.27 270.589V277.374L234.386 273.743V266.941Z" fill="#627BFD"/>
<path d="M221.006 281.683L227.633 277.752V270.967L221.006 274.916V281.683Z" fill="#627BFD"/>
<path d="M220.373 275.294L213.476 279.405V286.15L220.373 282.061V275.294Z" fill="#627BFD"/>
<path opacity="0.6" d="M220.373 275.294L221.006 274.916V281.683L220.373 282.061V275.294Z" fill="#F3F7FF"/>
<path opacity="0.6" d="M227.633 270.978L228.27 270.6V277.367L227.633 277.741V270.978Z" fill="#F3F7FF"/>
</g>
<defs>
<linearGradient id="paint0_linear_2_4397" x1="122" y1="272.691" x2="207.055" y2="272.691" gradientUnits="userSpaceOnUse">
<stop stop-color="#627BFD" stop-opacity="0"/>
<stop offset="0.13" stop-color="#627BFD" stop-opacity="0.02"/>
<stop offset="0.26" stop-color="#627BFD" stop-opacity="0.06"/>
<stop offset="0.39" stop-color="#627BFD" stop-opacity="0.14"/>
<stop offset="0.51" stop-color="#627BFD" stop-opacity="0.25"/>
<stop offset="0.64" stop-color="#627BFD" stop-opacity="0.4"/>
<stop offset="0.77" stop-color="#627BFD" stop-opacity="0.57"/>
<stop offset="0.9" stop-color="#627BFD" stop-opacity="0.78"/>
<stop offset="1" stop-color="#627BFD" stop-opacity="0.96"/>
</linearGradient>
<linearGradient id="paint1_linear_2_4397" x1="174.969" y1="238.793" x2="285" y2="238.793" gradientUnits="userSpaceOnUse">
<stop stop-color="#627BFD" stop-opacity="0"/>
<stop offset="0.09" stop-color="#627BFD" stop-opacity="0.05"/>
<stop offset="0.27" stop-color="#627BFD" stop-opacity="0.19"/>
<stop offset="0.5" stop-color="#627BFD" stop-opacity="0.41"/>
<stop offset="0.79" stop-color="#627BFD" stop-opacity="0.71"/>
<stop offset="1" stop-color="#627BFD" stop-opacity="0.96"/>
</linearGradient>
<linearGradient id="paint2_linear_2_4397" x1="191.012" y1="296.873" x2="191.012" y2="252.164" gradientUnits="userSpaceOnUse">
<stop offset="0.02" stop-color="#E1E4F4"/>
<stop offset="0.09" stop-color="#DBDEF1"/>
<stop offset="0.71" stop-color="#A3A9D3"/>
</linearGradient>
<linearGradient id="paint3_linear_2_4397" x1="10260.2" y1="28635.8" x2="10260.2" y2="22976.2" gradientUnits="userSpaceOnUse">
<stop stop-color="#627BFD" stop-opacity="0"/>
<stop offset="0.09" stop-color="#627BFD" stop-opacity="0.05"/>
<stop offset="0.27" stop-color="#627BFD" stop-opacity="0.19"/>
<stop offset="0.5" stop-color="#627BFD" stop-opacity="0.41"/>
<stop offset="0.79" stop-color="#627BFD" stop-opacity="0.71"/>
<stop offset="1" stop-color="#627BFD" stop-opacity="0.96"/>
</linearGradient>
<linearGradient id="paint4_linear_2_4397" x1="6769.82" y1="8513.3" x2="8546.21" y2="8513.3" gradientUnits="userSpaceOnUse">
<stop stop-color="#627BFD" stop-opacity="0"/>
<stop offset="0.09" stop-color="#627BFD" stop-opacity="0.05"/>
<stop offset="0.27" stop-color="#627BFD" stop-opacity="0.19"/>
<stop offset="0.5" stop-color="#627BFD" stop-opacity="0.41"/>
<stop offset="0.79" stop-color="#627BFD" stop-opacity="0.71"/>
<stop offset="1" stop-color="#627BFD" stop-opacity="0.96"/>
</linearGradient>
<linearGradient id="paint5_linear_2_4397" x1="250.566" y1="274.644" x2="233.132" y2="224.857" gradientUnits="userSpaceOnUse">
<stop stop-color="#CCD0E5"/>
<stop offset="0.37" stop-color="#BAC1E3"/>
<stop offset="0.71" stop-color="#AFB7E2"/>
</linearGradient>
<linearGradient id="paint6_linear_2_4397" x1="246.031" y1="285.617" x2="246.031" y2="195.632" gradientUnits="userSpaceOnUse">
<stop stop-color="#627BFD" stop-opacity="0.96"/>
<stop offset="0.1" stop-color="#627BFD" stop-opacity="0.71"/>
<stop offset="0.23" stop-color="#627BFD" stop-opacity="0.41"/>
<stop offset="0.34" stop-color="#627BFD" stop-opacity="0.19"/>
<stop offset="0.42" stop-color="#627BFD" stop-opacity="0.05"/>
<stop offset="0.46" stop-color="#627BFD" stop-opacity="0"/>
</linearGradient>
</defs>
</svg>
